G04 #@! TF.GenerationSoftware,KiCad,Pcbnew,(5.1.4)-1*
G04 #@! TF.CreationDate,2019-09-16T17:16:43+02:00*
G04 #@! TF.ProjectId,LED_Leiste,4c45445f-4c65-4697-9374-652e6b696361,rev?*
G04 #@! TF.SameCoordinates,Original*
G04 #@! TF.FileFunction,Legend,Bot*
G04 #@! TF.FilePolarity,Positive*
%FSLAX46Y46*%
G04 Gerber Fmt 4.6, Leading zero omitted, Abs format (unit mm)*
G04 Created by KiCad (PCBNEW (5.1.4)-1) date 2019-09-16 17:16:43*
%MOMM*%
%LPD*%
G04 APERTURE LIST*
%ADD10C,0.300000*%
%ADD11C,0.120000*%
%ADD12C,0.150000*%
G04 APERTURE END LIST*
D10*
X297278571Y-152842857D02*
X295778571Y-152842857D01*
X295778571Y-153414285D01*
X295850000Y-153557142D01*
X295921428Y-153628571D01*
X296064285Y-153700000D01*
X296278571Y-153700000D01*
X296421428Y-153628571D01*
X296492857Y-153557142D01*
X296564285Y-153414285D01*
X296564285Y-152842857D01*
X297278571Y-154342857D02*
X296278571Y-154342857D01*
X295778571Y-154342857D02*
X295850000Y-154271428D01*
X295921428Y-154342857D01*
X295850000Y-154414285D01*
X295778571Y-154342857D01*
X295921428Y-154342857D01*
X297278571Y-154914285D02*
X296278571Y-155700000D01*
X296278571Y-154914285D02*
X297278571Y-155700000D01*
X297207142Y-156842857D02*
X297278571Y-156700000D01*
X297278571Y-156414285D01*
X297207142Y-156271428D01*
X297064285Y-156200000D01*
X296492857Y-156200000D01*
X296350000Y-156271428D01*
X296278571Y-156414285D01*
X296278571Y-156700000D01*
X296350000Y-156842857D01*
X296492857Y-156914285D01*
X296635714Y-156914285D01*
X296778571Y-156200000D01*
X297278571Y-157771428D02*
X297207142Y-157628571D01*
X297064285Y-157557142D01*
X295778571Y-157557142D01*
X296492857Y-158842857D02*
X296492857Y-158342857D01*
X297278571Y-158342857D02*
X295778571Y-158342857D01*
X295778571Y-159057142D01*
X297278571Y-160271428D02*
X296492857Y-160271428D01*
X296350000Y-160200000D01*
X296278571Y-160057142D01*
X296278571Y-159771428D01*
X296350000Y-159628571D01*
X297207142Y-160271428D02*
X297278571Y-160128571D01*
X297278571Y-159771428D01*
X297207142Y-159628571D01*
X297064285Y-159557142D01*
X296921428Y-159557142D01*
X296778571Y-159628571D01*
X296707142Y-159771428D01*
X296707142Y-160128571D01*
X296635714Y-160271428D01*
X296278571Y-160985714D02*
X297278571Y-160985714D01*
X296421428Y-160985714D02*
X296350000Y-161057142D01*
X296278571Y-161200000D01*
X296278571Y-161414285D01*
X296350000Y-161557142D01*
X296492857Y-161628571D01*
X297278571Y-161628571D01*
X297278571Y-164200000D02*
X297278571Y-163485714D01*
X295778571Y-163485714D01*
X296492857Y-164700000D02*
X296492857Y-165200000D01*
X297278571Y-165414285D02*
X297278571Y-164700000D01*
X295778571Y-164700000D01*
X295778571Y-165414285D01*
X297278571Y-166057142D02*
X295778571Y-166057142D01*
X295778571Y-166414285D01*
X295850000Y-166628571D01*
X295992857Y-166771428D01*
X296135714Y-166842857D01*
X296421428Y-166914285D01*
X296635714Y-166914285D01*
X296921428Y-166842857D01*
X297064285Y-166771428D01*
X297207142Y-166628571D01*
X297278571Y-166414285D01*
X297278571Y-166057142D01*
X297278571Y-169414285D02*
X297278571Y-168700000D01*
X295778571Y-168700000D01*
X297207142Y-170485714D02*
X297278571Y-170342857D01*
X297278571Y-170057142D01*
X297207142Y-169914285D01*
X297064285Y-169842857D01*
X296492857Y-169842857D01*
X296350000Y-169914285D01*
X296278571Y-170057142D01*
X296278571Y-170342857D01*
X296350000Y-170485714D01*
X296492857Y-170557142D01*
X296635714Y-170557142D01*
X296778571Y-169842857D01*
X297278571Y-171200000D02*
X296278571Y-171200000D01*
X295778571Y-171200000D02*
X295850000Y-171128571D01*
X295921428Y-171200000D01*
X295850000Y-171271428D01*
X295778571Y-171200000D01*
X295921428Y-171200000D01*
X297207142Y-171842857D02*
X297278571Y-171985714D01*
X297278571Y-172271428D01*
X297207142Y-172414285D01*
X297064285Y-172485714D01*
X296992857Y-172485714D01*
X296850000Y-172414285D01*
X296778571Y-172271428D01*
X296778571Y-172057142D01*
X296707142Y-171914285D01*
X296564285Y-171842857D01*
X296492857Y-171842857D01*
X296350000Y-171914285D01*
X296278571Y-172057142D01*
X296278571Y-172271428D01*
X296350000Y-172414285D01*
X296278571Y-172914285D02*
X296278571Y-173485714D01*
X295778571Y-173128571D02*
X297064285Y-173128571D01*
X297207142Y-173200000D01*
X297278571Y-173342857D01*
X297278571Y-173485714D01*
X297207142Y-174557142D02*
X297278571Y-174414285D01*
X297278571Y-174128571D01*
X297207142Y-173985714D01*
X297064285Y-173914285D01*
X296492857Y-173914285D01*
X296350000Y-173985714D01*
X296278571Y-174128571D01*
X296278571Y-174414285D01*
X296350000Y-174557142D01*
X296492857Y-174628571D01*
X296635714Y-174628571D01*
X296778571Y-173914285D01*
X295778571Y-176200000D02*
X297278571Y-176700000D01*
X295778571Y-177200000D01*
X297278571Y-178485714D02*
X297278571Y-177628571D01*
X297278571Y-178057142D02*
X295778571Y-178057142D01*
X295992857Y-177914285D01*
X296135714Y-177771428D01*
X296207142Y-177628571D01*
X297135714Y-179128571D02*
X297207142Y-179200000D01*
X297278571Y-179128571D01*
X297207142Y-179057142D01*
X297135714Y-179128571D01*
X297278571Y-179128571D01*
X295778571Y-180128571D02*
X295778571Y-180271428D01*
X295850000Y-180414285D01*
X295921428Y-180485714D01*
X296064285Y-180557142D01*
X296350000Y-180628571D01*
X296707142Y-180628571D01*
X296992857Y-180557142D01*
X297135714Y-180485714D01*
X297207142Y-180414285D01*
X297278571Y-180271428D01*
X297278571Y-180128571D01*
X297207142Y-179985714D01*
X297135714Y-179914285D01*
X296992857Y-179842857D01*
X296707142Y-179771428D01*
X296350000Y-179771428D01*
X296064285Y-179842857D01*
X295921428Y-179914285D01*
X295850000Y-179985714D01*
X295778571Y-180128571D01*
D11*
X301261252Y-50490000D02*
X300738748Y-50490000D01*
X301261252Y-51910000D02*
X300738748Y-51910000D01*
X301236252Y-62490000D02*
X300713748Y-62490000D01*
X301236252Y-63910000D02*
X300713748Y-63910000D01*
X301236252Y-75910000D02*
X300713748Y-75910000D01*
X301236252Y-74490000D02*
X300713748Y-74490000D01*
X301236252Y-86490000D02*
X300713748Y-86490000D01*
X301236252Y-87910000D02*
X300713748Y-87910000D01*
X301261252Y-99910000D02*
X300738748Y-99910000D01*
X301261252Y-98490000D02*
X300738748Y-98490000D01*
X301261252Y-110490000D02*
X300738748Y-110490000D01*
X301261252Y-111910000D02*
X300738748Y-111910000D01*
X301261252Y-123910000D02*
X300738748Y-123910000D01*
X301261252Y-122490000D02*
X300738748Y-122490000D01*
X301236252Y-135910000D02*
X300713748Y-135910000D01*
X301236252Y-134490000D02*
X300713748Y-134490000D01*
X301236252Y-146490000D02*
X300713748Y-146490000D01*
X301236252Y-147910000D02*
X300713748Y-147910000D01*
X301261252Y-158490000D02*
X300738748Y-158490000D01*
X301261252Y-159910000D02*
X300738748Y-159910000D01*
X301261252Y-171910000D02*
X300738748Y-171910000D01*
X301261252Y-170490000D02*
X300738748Y-170490000D01*
X301261252Y-182490000D02*
X300738748Y-182490000D01*
X301261252Y-183910000D02*
X300738748Y-183910000D01*
D12*
X301166666Y-49907142D02*
X301214285Y-49954761D01*
X301357142Y-50002380D01*
X301452380Y-50002380D01*
X301595238Y-49954761D01*
X301690476Y-49859523D01*
X301738095Y-49764285D01*
X301785714Y-49573809D01*
X301785714Y-49430952D01*
X301738095Y-49240476D01*
X301690476Y-49145238D01*
X301595238Y-49050000D01*
X301452380Y-49002380D01*
X301357142Y-49002380D01*
X301214285Y-49050000D01*
X301166666Y-49097619D01*
X300214285Y-50002380D02*
X300785714Y-50002380D01*
X300500000Y-50002380D02*
X300500000Y-49002380D01*
X300595238Y-49145238D01*
X300690476Y-49240476D01*
X300785714Y-49288095D01*
X301141666Y-61907142D02*
X301189285Y-61954761D01*
X301332142Y-62002380D01*
X301427380Y-62002380D01*
X301570238Y-61954761D01*
X301665476Y-61859523D01*
X301713095Y-61764285D01*
X301760714Y-61573809D01*
X301760714Y-61430952D01*
X301713095Y-61240476D01*
X301665476Y-61145238D01*
X301570238Y-61050000D01*
X301427380Y-61002380D01*
X301332142Y-61002380D01*
X301189285Y-61050000D01*
X301141666Y-61097619D01*
X300760714Y-61097619D02*
X300713095Y-61050000D01*
X300617857Y-61002380D01*
X300379761Y-61002380D01*
X300284523Y-61050000D01*
X300236904Y-61097619D01*
X300189285Y-61192857D01*
X300189285Y-61288095D01*
X300236904Y-61430952D01*
X300808333Y-62002380D01*
X300189285Y-62002380D01*
X301141666Y-73907142D02*
X301189285Y-73954761D01*
X301332142Y-74002380D01*
X301427380Y-74002380D01*
X301570238Y-73954761D01*
X301665476Y-73859523D01*
X301713095Y-73764285D01*
X301760714Y-73573809D01*
X301760714Y-73430952D01*
X301713095Y-73240476D01*
X301665476Y-73145238D01*
X301570238Y-73050000D01*
X301427380Y-73002380D01*
X301332142Y-73002380D01*
X301189285Y-73050000D01*
X301141666Y-73097619D01*
X300808333Y-73002380D02*
X300189285Y-73002380D01*
X300522619Y-73383333D01*
X300379761Y-73383333D01*
X300284523Y-73430952D01*
X300236904Y-73478571D01*
X300189285Y-73573809D01*
X300189285Y-73811904D01*
X300236904Y-73907142D01*
X300284523Y-73954761D01*
X300379761Y-74002380D01*
X300665476Y-74002380D01*
X300760714Y-73954761D01*
X300808333Y-73907142D01*
X301141666Y-85907142D02*
X301189285Y-85954761D01*
X301332142Y-86002380D01*
X301427380Y-86002380D01*
X301570238Y-85954761D01*
X301665476Y-85859523D01*
X301713095Y-85764285D01*
X301760714Y-85573809D01*
X301760714Y-85430952D01*
X301713095Y-85240476D01*
X301665476Y-85145238D01*
X301570238Y-85050000D01*
X301427380Y-85002380D01*
X301332142Y-85002380D01*
X301189285Y-85050000D01*
X301141666Y-85097619D01*
X300284523Y-85335714D02*
X300284523Y-86002380D01*
X300522619Y-84954761D02*
X300760714Y-85669047D01*
X300141666Y-85669047D01*
X301166666Y-97907142D02*
X301214285Y-97954761D01*
X301357142Y-98002380D01*
X301452380Y-98002380D01*
X301595238Y-97954761D01*
X301690476Y-97859523D01*
X301738095Y-97764285D01*
X301785714Y-97573809D01*
X301785714Y-97430952D01*
X301738095Y-97240476D01*
X301690476Y-97145238D01*
X301595238Y-97050000D01*
X301452380Y-97002380D01*
X301357142Y-97002380D01*
X301214285Y-97050000D01*
X301166666Y-97097619D01*
X300261904Y-97002380D02*
X300738095Y-97002380D01*
X300785714Y-97478571D01*
X300738095Y-97430952D01*
X300642857Y-97383333D01*
X300404761Y-97383333D01*
X300309523Y-97430952D01*
X300261904Y-97478571D01*
X300214285Y-97573809D01*
X300214285Y-97811904D01*
X300261904Y-97907142D01*
X300309523Y-97954761D01*
X300404761Y-98002380D01*
X300642857Y-98002380D01*
X300738095Y-97954761D01*
X300785714Y-97907142D01*
X301166666Y-109907142D02*
X301214285Y-109954761D01*
X301357142Y-110002380D01*
X301452380Y-110002380D01*
X301595238Y-109954761D01*
X301690476Y-109859523D01*
X301738095Y-109764285D01*
X301785714Y-109573809D01*
X301785714Y-109430952D01*
X301738095Y-109240476D01*
X301690476Y-109145238D01*
X301595238Y-109050000D01*
X301452380Y-109002380D01*
X301357142Y-109002380D01*
X301214285Y-109050000D01*
X301166666Y-109097619D01*
X300309523Y-109002380D02*
X300500000Y-109002380D01*
X300595238Y-109050000D01*
X300642857Y-109097619D01*
X300738095Y-109240476D01*
X300785714Y-109430952D01*
X300785714Y-109811904D01*
X300738095Y-109907142D01*
X300690476Y-109954761D01*
X300595238Y-110002380D01*
X300404761Y-110002380D01*
X300309523Y-109954761D01*
X300261904Y-109907142D01*
X300214285Y-109811904D01*
X300214285Y-109573809D01*
X300261904Y-109478571D01*
X300309523Y-109430952D01*
X300404761Y-109383333D01*
X300595238Y-109383333D01*
X300690476Y-109430952D01*
X300738095Y-109478571D01*
X300785714Y-109573809D01*
X301166666Y-121907142D02*
X301214285Y-121954761D01*
X301357142Y-122002380D01*
X301452380Y-122002380D01*
X301595238Y-121954761D01*
X301690476Y-121859523D01*
X301738095Y-121764285D01*
X301785714Y-121573809D01*
X301785714Y-121430952D01*
X301738095Y-121240476D01*
X301690476Y-121145238D01*
X301595238Y-121050000D01*
X301452380Y-121002380D01*
X301357142Y-121002380D01*
X301214285Y-121050000D01*
X301166666Y-121097619D01*
X300833333Y-121002380D02*
X300166666Y-121002380D01*
X300595238Y-122002380D01*
X301141666Y-133907142D02*
X301189285Y-133954761D01*
X301332142Y-134002380D01*
X301427380Y-134002380D01*
X301570238Y-133954761D01*
X301665476Y-133859523D01*
X301713095Y-133764285D01*
X301760714Y-133573809D01*
X301760714Y-133430952D01*
X301713095Y-133240476D01*
X301665476Y-133145238D01*
X301570238Y-133050000D01*
X301427380Y-133002380D01*
X301332142Y-133002380D01*
X301189285Y-133050000D01*
X301141666Y-133097619D01*
X300570238Y-133430952D02*
X300665476Y-133383333D01*
X300713095Y-133335714D01*
X300760714Y-133240476D01*
X300760714Y-133192857D01*
X300713095Y-133097619D01*
X300665476Y-133050000D01*
X300570238Y-133002380D01*
X300379761Y-133002380D01*
X300284523Y-133050000D01*
X300236904Y-133097619D01*
X300189285Y-133192857D01*
X300189285Y-133240476D01*
X300236904Y-133335714D01*
X300284523Y-133383333D01*
X300379761Y-133430952D01*
X300570238Y-133430952D01*
X300665476Y-133478571D01*
X300713095Y-133526190D01*
X300760714Y-133621428D01*
X300760714Y-133811904D01*
X300713095Y-133907142D01*
X300665476Y-133954761D01*
X300570238Y-134002380D01*
X300379761Y-134002380D01*
X300284523Y-133954761D01*
X300236904Y-133907142D01*
X300189285Y-133811904D01*
X300189285Y-133621428D01*
X300236904Y-133526190D01*
X300284523Y-133478571D01*
X300379761Y-133430952D01*
X301141666Y-145907142D02*
X301189285Y-145954761D01*
X301332142Y-146002380D01*
X301427380Y-146002380D01*
X301570238Y-145954761D01*
X301665476Y-145859523D01*
X301713095Y-145764285D01*
X301760714Y-145573809D01*
X301760714Y-145430952D01*
X301713095Y-145240476D01*
X301665476Y-145145238D01*
X301570238Y-145050000D01*
X301427380Y-145002380D01*
X301332142Y-145002380D01*
X301189285Y-145050000D01*
X301141666Y-145097619D01*
X300665476Y-146002380D02*
X300475000Y-146002380D01*
X300379761Y-145954761D01*
X300332142Y-145907142D01*
X300236904Y-145764285D01*
X300189285Y-145573809D01*
X300189285Y-145192857D01*
X300236904Y-145097619D01*
X300284523Y-145050000D01*
X300379761Y-145002380D01*
X300570238Y-145002380D01*
X300665476Y-145050000D01*
X300713095Y-145097619D01*
X300760714Y-145192857D01*
X300760714Y-145430952D01*
X300713095Y-145526190D01*
X300665476Y-145573809D01*
X300570238Y-145621428D01*
X300379761Y-145621428D01*
X300284523Y-145573809D01*
X300236904Y-145526190D01*
X300189285Y-145430952D01*
X301642857Y-157907142D02*
X301690476Y-157954761D01*
X301833333Y-158002380D01*
X301928571Y-158002380D01*
X302071428Y-157954761D01*
X302166666Y-157859523D01*
X302214285Y-157764285D01*
X302261904Y-157573809D01*
X302261904Y-157430952D01*
X302214285Y-157240476D01*
X302166666Y-157145238D01*
X302071428Y-157050000D01*
X301928571Y-157002380D01*
X301833333Y-157002380D01*
X301690476Y-157050000D01*
X301642857Y-157097619D01*
X300690476Y-158002380D02*
X301261904Y-158002380D01*
X300976190Y-158002380D02*
X300976190Y-157002380D01*
X301071428Y-157145238D01*
X301166666Y-157240476D01*
X301261904Y-157288095D01*
X300071428Y-157002380D02*
X299976190Y-157002380D01*
X299880952Y-157050000D01*
X299833333Y-157097619D01*
X299785714Y-157192857D01*
X299738095Y-157383333D01*
X299738095Y-157621428D01*
X299785714Y-157811904D01*
X299833333Y-157907142D01*
X299880952Y-157954761D01*
X299976190Y-158002380D01*
X300071428Y-158002380D01*
X300166666Y-157954761D01*
X300214285Y-157907142D01*
X300261904Y-157811904D01*
X300309523Y-157621428D01*
X300309523Y-157383333D01*
X300261904Y-157192857D01*
X300214285Y-157097619D01*
X300166666Y-157050000D01*
X300071428Y-157002380D01*
X301642857Y-169907142D02*
X301690476Y-169954761D01*
X301833333Y-170002380D01*
X301928571Y-170002380D01*
X302071428Y-169954761D01*
X302166666Y-169859523D01*
X302214285Y-169764285D01*
X302261904Y-169573809D01*
X302261904Y-169430952D01*
X302214285Y-169240476D01*
X302166666Y-169145238D01*
X302071428Y-169050000D01*
X301928571Y-169002380D01*
X301833333Y-169002380D01*
X301690476Y-169050000D01*
X301642857Y-169097619D01*
X300690476Y-170002380D02*
X301261904Y-170002380D01*
X300976190Y-170002380D02*
X300976190Y-169002380D01*
X301071428Y-169145238D01*
X301166666Y-169240476D01*
X301261904Y-169288095D01*
X299738095Y-170002380D02*
X300309523Y-170002380D01*
X300023809Y-170002380D02*
X300023809Y-169002380D01*
X300119047Y-169145238D01*
X300214285Y-169240476D01*
X300309523Y-169288095D01*
X301642857Y-181907142D02*
X301690476Y-181954761D01*
X301833333Y-182002380D01*
X301928571Y-182002380D01*
X302071428Y-181954761D01*
X302166666Y-181859523D01*
X302214285Y-181764285D01*
X302261904Y-181573809D01*
X302261904Y-181430952D01*
X302214285Y-181240476D01*
X302166666Y-181145238D01*
X302071428Y-181050000D01*
X301928571Y-181002380D01*
X301833333Y-181002380D01*
X301690476Y-181050000D01*
X301642857Y-181097619D01*
X300690476Y-182002380D02*
X301261904Y-182002380D01*
X300976190Y-182002380D02*
X300976190Y-181002380D01*
X301071428Y-181145238D01*
X301166666Y-181240476D01*
X301261904Y-181288095D01*
X300309523Y-181097619D02*
X300261904Y-181050000D01*
X300166666Y-181002380D01*
X299928571Y-181002380D01*
X299833333Y-181050000D01*
X299785714Y-181097619D01*
X299738095Y-181192857D01*
X299738095Y-181288095D01*
X299785714Y-181430952D01*
X300357142Y-182002380D01*
X299738095Y-182002380D01*
M02*
