M48
; DRILL file {KiCad (5.1.4)-1} date 16.09.2019 17:16:48
; FORMAT={-:-/ absolute / inch / decimal}
; #@! TF.CreationDate,2019-09-16T17:16:48+02:00
; #@! TF.GenerationSoftware,Kicad,Pcbnew,(5.1.4)-1
; #@! TF.FileFunction,Plated,1,2,PTH
FMAT,2
INCH
T1C0.0157
T2C0.0394
T3C0.1299
%
G90
G05
T1
X11.7559Y-2.0157
X11.7559Y-2.252
X11.7559Y-2.4882
X11.7559Y-2.7244
X11.7559Y-2.9606
X11.7559Y-3.1969
X11.7559Y-3.4331
X11.7559Y-3.6693
X11.7559Y-3.9055
X11.7559Y-4.1417
X11.7559Y-4.378
X11.7559Y-4.6142
X11.7559Y-4.8504
X11.7559Y-5.0866
X11.7559Y-5.3228
X11.7559Y-5.5591
X11.7559Y-5.7953
X11.7559Y-6.0315
X11.7559Y-6.2677
X11.7559Y-6.5039
X11.7559Y-6.7402
X11.7559Y-6.9764
X11.7559Y-7.2126
X11.7559Y-7.4488
X11.7559Y-7.685
X11.7559Y-7.9213
X11.9449Y-2.0157
X11.9449Y-2.252
X11.9449Y-2.4882
X11.9449Y-2.7244
X11.9449Y-2.9606
X11.9449Y-3.1969
X11.9449Y-3.4331
X11.9449Y-3.6693
X11.9449Y-3.9055
X11.9449Y-4.1417
X11.9449Y-4.378
X11.9449Y-4.6142
X11.9449Y-4.8504
X11.9449Y-5.0866
X11.9449Y-5.3228
X11.9449Y-5.5591
X11.9449Y-5.7953
X11.9449Y-6.0315
X11.9449Y-6.2677
X11.9449Y-6.5039
X11.9449Y-6.7402
X11.9449Y-6.9764
X11.9449Y-7.2126
X11.9449Y-7.4488
X11.9449Y-7.685
X11.9449Y-7.9213
T2
X11.5311Y-7.6724
X11.5311Y-7.7724
X11.5311Y-7.8724
X11.5311Y-7.9724
X11.661Y-8.0469
X11.761Y-8.0469
X11.861Y-8.0469
X11.961Y-8.0469
X12.0803Y-7.6724
X12.0803Y-7.7724
X12.0803Y-7.8724
X12.0803Y-7.9724
T3
X11.4567Y-7.4803
X12.1654Y-7.4803
T0
M30
