G04 #@! TF.GenerationSoftware,KiCad,Pcbnew,(5.1.4)-1*
G04 #@! TF.CreationDate,2019-09-16T17:16:43+02:00*
G04 #@! TF.ProjectId,LED_Leiste,4c45445f-4c65-4697-9374-652e6b696361,rev?*
G04 #@! TF.SameCoordinates,Original*
G04 #@! TF.FileFunction,Copper,L1,Top*
G04 #@! TF.FilePolarity,Positive*
%FSLAX46Y46*%
G04 Gerber Fmt 4.6, Leading zero omitted, Abs format (unit mm)*
G04 Created by KiCad (PCBNEW (5.1.4)-1) date 2019-09-16 17:16:43*
%MOMM*%
%LPD*%
G04 APERTURE LIST*
%ADD10R,2.000000X1.100000*%
%ADD11C,2.000000*%
%ADD12C,3.300000*%
%ADD13C,0.800000*%
%ADD14C,0.500000*%
%ADD15C,0.250000*%
G04 APERTURE END LIST*
D10*
X303500000Y-64500000D03*
X303500000Y-66200000D03*
X303500000Y-67900000D03*
X298700000Y-67900000D03*
X298700000Y-66200000D03*
X298700000Y-64500000D03*
X303500000Y-178500000D03*
X303500000Y-180200000D03*
X303500000Y-181900000D03*
X298700000Y-181900000D03*
X298700000Y-180200000D03*
X298700000Y-178500000D03*
X298700000Y-70500000D03*
X298700000Y-72200000D03*
X298700000Y-73900000D03*
X303500000Y-73900000D03*
X303500000Y-72200000D03*
X303500000Y-70500000D03*
X298700000Y-172500000D03*
X298700000Y-174200000D03*
X298700000Y-175900000D03*
X303500000Y-175900000D03*
X303500000Y-174200000D03*
X303500000Y-172500000D03*
X303500000Y-76500000D03*
X303500000Y-78200000D03*
X303500000Y-79900000D03*
X298700000Y-79900000D03*
X298700000Y-78200000D03*
X298700000Y-76500000D03*
X303500000Y-166500000D03*
X303500000Y-168200000D03*
X303500000Y-169900000D03*
X298700000Y-169900000D03*
X298700000Y-168200000D03*
X298700000Y-166500000D03*
X298700000Y-82500000D03*
X298700000Y-84200000D03*
X298700000Y-85900000D03*
X303500000Y-85900000D03*
X303500000Y-84200000D03*
X303500000Y-82500000D03*
X298700000Y-160500000D03*
X298700000Y-162200000D03*
X298700000Y-163900000D03*
X303500000Y-163900000D03*
X303500000Y-162200000D03*
X303500000Y-160500000D03*
X298700000Y-88500000D03*
X298700000Y-90200000D03*
X298700000Y-91900000D03*
X303500000Y-91900000D03*
X303500000Y-90200000D03*
X303500000Y-88500000D03*
X303500000Y-154500000D03*
X303500000Y-156200000D03*
X303500000Y-157900000D03*
X298700000Y-157900000D03*
X298700000Y-156200000D03*
X298700000Y-154500000D03*
X303500000Y-94500000D03*
X303500000Y-96200000D03*
X303500000Y-97900000D03*
X298700000Y-97900000D03*
X298700000Y-96200000D03*
X298700000Y-94500000D03*
X298700000Y-148500000D03*
X298700000Y-150200000D03*
X298700000Y-151900000D03*
X303500000Y-151900000D03*
X303500000Y-150200000D03*
X303500000Y-148500000D03*
X298700000Y-100500000D03*
X298700000Y-102200000D03*
X298700000Y-103900000D03*
X303500000Y-103900000D03*
X303500000Y-102200000D03*
X303500000Y-100500000D03*
X303500000Y-142500000D03*
X303500000Y-144200000D03*
X303500000Y-145900000D03*
X298700000Y-145900000D03*
X298700000Y-144200000D03*
X298700000Y-142500000D03*
X303500000Y-106500000D03*
X303500000Y-108200000D03*
X303500000Y-109900000D03*
X298700000Y-109900000D03*
X298700000Y-108200000D03*
X298700000Y-106500000D03*
X298700000Y-136500000D03*
X298700000Y-138200000D03*
X298700000Y-139900000D03*
X303500000Y-139900000D03*
X303500000Y-138200000D03*
X303500000Y-136500000D03*
X298700000Y-112500000D03*
X298700000Y-114200000D03*
X298700000Y-115900000D03*
X303500000Y-115900000D03*
X303500000Y-114200000D03*
X303500000Y-112500000D03*
X303500000Y-130500000D03*
X303500000Y-132200000D03*
X303500000Y-133900000D03*
X298700000Y-133900000D03*
X298700000Y-132200000D03*
X298700000Y-130500000D03*
X303500000Y-118500000D03*
X303500000Y-120200000D03*
X303500000Y-121900000D03*
X298700000Y-121900000D03*
X298700000Y-120200000D03*
X298700000Y-118500000D03*
X298700000Y-124500000D03*
X298700000Y-126200000D03*
X298700000Y-127900000D03*
X303500000Y-127900000D03*
X303500000Y-126200000D03*
X303500000Y-124500000D03*
X298700000Y-46500000D03*
X298700000Y-48200000D03*
X298700000Y-49900000D03*
X303500000Y-49900000D03*
X303500000Y-48200000D03*
X303500000Y-46500000D03*
X303500000Y-196500000D03*
X303500000Y-198200000D03*
X303500000Y-199900000D03*
X298700000Y-199900000D03*
X298700000Y-198200000D03*
X298700000Y-196500000D03*
X303500000Y-52500000D03*
X303500000Y-54200000D03*
X303500000Y-55900000D03*
X298700000Y-55900000D03*
X298700000Y-54200000D03*
X298700000Y-52500000D03*
X298700000Y-190500000D03*
X298700000Y-192200000D03*
X298700000Y-193900000D03*
X303500000Y-193900000D03*
X303500000Y-192200000D03*
X303500000Y-190500000D03*
X298700000Y-58500000D03*
X298700000Y-60200000D03*
X298700000Y-61900000D03*
X303500000Y-61900000D03*
X303500000Y-60200000D03*
X303500000Y-58500000D03*
X303500000Y-184500000D03*
X303500000Y-186200000D03*
X303500000Y-187900000D03*
X298700000Y-187900000D03*
X298700000Y-186200000D03*
X298700000Y-184500000D03*
D11*
X306840000Y-202500000D03*
X306840000Y-199960000D03*
X306840000Y-197420000D03*
X306840000Y-194880000D03*
X296190000Y-204390000D03*
X298730000Y-204390000D03*
X301270000Y-204390000D03*
X303810000Y-204390000D03*
X292890000Y-202500000D03*
X292890000Y-199960000D03*
X292890000Y-197420000D03*
X292890000Y-194880000D03*
D12*
X291000000Y-190000000D03*
X309000000Y-190000000D03*
D13*
X298600000Y-51200000D03*
X298600000Y-63200000D03*
X298600000Y-75200000D03*
X298600000Y-87200000D03*
X298600000Y-99200000D03*
X298600000Y-111200000D03*
X298600000Y-123200000D03*
X298600000Y-135200000D03*
X298600000Y-147200000D03*
X298600000Y-159200000D03*
X298600000Y-171200000D03*
X298600000Y-183200000D03*
X298600000Y-195200000D03*
X298600000Y-57200000D03*
X298600000Y-69200000D03*
X298600000Y-81200000D03*
X298600000Y-93200000D03*
X298600000Y-105200000D03*
X298600000Y-117200000D03*
X298600000Y-129200000D03*
X298600000Y-141200000D03*
X298600000Y-153200000D03*
X298600000Y-165200000D03*
X298600000Y-177200000D03*
X298600000Y-189200000D03*
X298600000Y-201200000D03*
X303400000Y-51200000D03*
X303400000Y-63200000D03*
X303400000Y-75200000D03*
X303400000Y-87200000D03*
X303400000Y-99200000D03*
X303400000Y-111200000D03*
X303400000Y-123200000D03*
X303400000Y-135200000D03*
X303400000Y-147200000D03*
X303400000Y-159200000D03*
X303400000Y-171200000D03*
X303400000Y-183200000D03*
X303400000Y-195200000D03*
X303400000Y-57200000D03*
X303400000Y-69200000D03*
X303400000Y-81200000D03*
X303400000Y-93200000D03*
X303400000Y-105200000D03*
X303400000Y-117200000D03*
X303400000Y-129200000D03*
X303400000Y-141200000D03*
X303400000Y-153200000D03*
X303400000Y-165200000D03*
X303400000Y-177200000D03*
X303400000Y-189200000D03*
X303400000Y-201200000D03*
D14*
X298600000Y-49900000D02*
X298600000Y-50950000D01*
X298600000Y-50950000D02*
X298600000Y-51200000D01*
X298600000Y-61900000D02*
X298600000Y-62950000D01*
X298600000Y-62950000D02*
X298600000Y-63200000D01*
X298600000Y-73900000D02*
X298600000Y-74950000D01*
X298600000Y-74950000D02*
X298600000Y-75200000D01*
X298600000Y-85900000D02*
X298600000Y-86950000D01*
X298600000Y-86950000D02*
X298600000Y-87200000D01*
X298600000Y-97900000D02*
X298600000Y-98950000D01*
X298600000Y-98950000D02*
X298600000Y-99200000D01*
X298600000Y-109900000D02*
X298600000Y-111200000D01*
X298600000Y-121900000D02*
X298600000Y-122950000D01*
X298600000Y-122950000D02*
X298600000Y-123200000D01*
X298600000Y-133900000D02*
X298600000Y-134950000D01*
X298600000Y-134950000D02*
X298600000Y-135200000D01*
X298600000Y-145900000D02*
X298600000Y-147200000D01*
X298600000Y-157900000D02*
X298600000Y-158950000D01*
X298600000Y-158950000D02*
X298600000Y-159200000D01*
X298600000Y-169900000D02*
X298600000Y-171200000D01*
X298600000Y-181900000D02*
X298600000Y-182950000D01*
X298600000Y-182950000D02*
X298600000Y-183200000D01*
X298600000Y-193900000D02*
X298600000Y-195200000D01*
X298600000Y-55900000D02*
X298600000Y-57200000D01*
X298600000Y-67900000D02*
X298600000Y-68950000D01*
X298600000Y-68950000D02*
X298600000Y-69200000D01*
X298600000Y-79900000D02*
X298600000Y-81200000D01*
X298600000Y-91900000D02*
X298600000Y-93200000D01*
X298600000Y-103900000D02*
X298600000Y-105200000D01*
X298600000Y-115900000D02*
X298600000Y-117200000D01*
X298600000Y-127900000D02*
X298600000Y-129200000D01*
X298600000Y-139900000D02*
X298600000Y-140950000D01*
X298600000Y-140950000D02*
X298600000Y-141200000D01*
X298600000Y-151900000D02*
X298600000Y-153200000D01*
X298600000Y-163900000D02*
X298600000Y-164950000D01*
X298600000Y-164950000D02*
X298600000Y-165200000D01*
X298600000Y-175900000D02*
X298600000Y-176950000D01*
X298600000Y-176950000D02*
X298600000Y-177200000D01*
X298600000Y-187900000D02*
X298600000Y-189200000D01*
X297300000Y-189200000D02*
X298600000Y-189200000D01*
X296900000Y-188800000D02*
X297300000Y-189200000D01*
X298600000Y-51200000D02*
X297300000Y-51200000D01*
X297300000Y-51200000D02*
X296900000Y-51600000D01*
X298600000Y-57200000D02*
X296900000Y-57200000D01*
X296900000Y-51600000D02*
X296900000Y-57200000D01*
X298600000Y-63200000D02*
X296900000Y-63200000D01*
X296900000Y-57200000D02*
X296900000Y-63200000D01*
X298600000Y-69200000D02*
X296900000Y-69200000D01*
X296900000Y-63200000D02*
X296900000Y-69200000D01*
X298600000Y-75200000D02*
X296900000Y-75200000D01*
X296900000Y-69200000D02*
X296900000Y-75200000D01*
X298034315Y-81200000D02*
X296900000Y-81200000D01*
X298600000Y-81200000D02*
X298034315Y-81200000D01*
X296900000Y-75200000D02*
X296900000Y-81200000D01*
X298600000Y-87200000D02*
X296900000Y-87200000D01*
X296900000Y-81200000D02*
X296900000Y-87200000D01*
X298034315Y-93200000D02*
X296900000Y-93200000D01*
X298600000Y-93200000D02*
X298034315Y-93200000D01*
X296900000Y-87200000D02*
X296900000Y-93200000D01*
X298600000Y-99200000D02*
X296900000Y-99200000D01*
X296900000Y-93200000D02*
X296900000Y-99200000D01*
X298600000Y-105200000D02*
X296900000Y-105200000D01*
X296900000Y-99200000D02*
X296900000Y-105200000D01*
X298600000Y-111200000D02*
X296900000Y-111200000D01*
X296900000Y-105200000D02*
X296900000Y-111200000D01*
X298600000Y-117200000D02*
X296900000Y-117200000D01*
X296900000Y-111200000D02*
X296900000Y-117200000D01*
X298600000Y-123200000D02*
X296900000Y-123200000D01*
X296900000Y-117200000D02*
X296900000Y-123200000D01*
X298600000Y-129200000D02*
X296900000Y-129200000D01*
X296900000Y-123200000D02*
X296900000Y-129200000D01*
X298600000Y-135200000D02*
X296900000Y-135200000D01*
X296900000Y-129200000D02*
X296900000Y-135200000D01*
X298600000Y-141200000D02*
X296900000Y-141200000D01*
X296900000Y-135200000D02*
X296900000Y-141200000D01*
X298600000Y-147200000D02*
X296900000Y-147200000D01*
X296900000Y-141200000D02*
X296900000Y-147200000D01*
X298600000Y-153200000D02*
X296900000Y-153200000D01*
X296900000Y-147200000D02*
X296900000Y-153200000D01*
X298034315Y-159200000D02*
X296900000Y-159200000D01*
X298600000Y-159200000D02*
X298034315Y-159200000D01*
X296900000Y-153200000D02*
X296900000Y-159200000D01*
X298600000Y-165200000D02*
X296900000Y-165200000D01*
X296900000Y-159200000D02*
X296900000Y-165200000D01*
X298034315Y-171200000D02*
X296900000Y-171200000D01*
X298600000Y-171200000D02*
X298034315Y-171200000D01*
X296900000Y-165200000D02*
X296900000Y-171200000D01*
X298600000Y-177200000D02*
X296900000Y-177200000D01*
X296900000Y-171200000D02*
X296900000Y-177200000D01*
X298034315Y-183200000D02*
X296900000Y-183200000D01*
X298600000Y-183200000D02*
X298034315Y-183200000D01*
X296900000Y-177200000D02*
X296900000Y-183200000D01*
X296900000Y-183200000D02*
X296900000Y-188800000D01*
X298600000Y-199900000D02*
X298600000Y-201200000D01*
X303400000Y-49900000D02*
X303400000Y-51200000D01*
X303400000Y-61900000D02*
X303400000Y-62950000D01*
X303400000Y-62950000D02*
X303400000Y-63200000D01*
X303400000Y-73900000D02*
X303400000Y-74950000D01*
X303400000Y-74950000D02*
X303400000Y-75200000D01*
X303400000Y-85900000D02*
X303400000Y-86950000D01*
X303400000Y-86950000D02*
X303400000Y-87200000D01*
X303400000Y-97900000D02*
X303400000Y-98950000D01*
X303400000Y-98950000D02*
X303400000Y-99200000D01*
X303400000Y-109900000D02*
X303400000Y-111200000D01*
X303400000Y-121900000D02*
X303400000Y-123200000D01*
X303400000Y-133900000D02*
X303400000Y-135200000D01*
X303400000Y-145900000D02*
X303400000Y-147200000D01*
X303400000Y-157900000D02*
X303400000Y-159200000D01*
X303400000Y-169900000D02*
X303400000Y-171200000D01*
X303400000Y-181900000D02*
X303400000Y-182950000D01*
X303400000Y-182950000D02*
X303400000Y-183200000D01*
X303400000Y-193900000D02*
X303400000Y-194950000D01*
X303400000Y-194950000D02*
X303400000Y-195200000D01*
X303400000Y-55900000D02*
X303400000Y-56950000D01*
X303400000Y-56950000D02*
X303400000Y-57200000D01*
X303400000Y-67900000D02*
X303400000Y-68950000D01*
X303400000Y-68950000D02*
X303400000Y-69200000D01*
X303400000Y-79900000D02*
X303400000Y-80950000D01*
X303400000Y-80950000D02*
X303400000Y-81200000D01*
X303400000Y-91900000D02*
X303400000Y-92950000D01*
X303400000Y-92950000D02*
X303400000Y-93200000D01*
X303400000Y-103900000D02*
X303400000Y-104950000D01*
X303400000Y-104950000D02*
X303400000Y-105200000D01*
X303400000Y-115900000D02*
X303400000Y-116950000D01*
X303400000Y-116950000D02*
X303400000Y-117200000D01*
X303400000Y-127900000D02*
X303400000Y-129200000D01*
X303400000Y-139900000D02*
X303400000Y-141200000D01*
X303400000Y-151900000D02*
X303400000Y-153200000D01*
X303400000Y-163900000D02*
X303400000Y-165200000D01*
X303400000Y-175900000D02*
X303400000Y-176950000D01*
X303400000Y-176950000D02*
X303400000Y-177200000D01*
X303400000Y-187900000D02*
X303400000Y-189200000D01*
X303400000Y-199900000D02*
X303400000Y-201200000D01*
X295400000Y-202600000D02*
X296190000Y-204390000D01*
D15*
X295400000Y-48400000D02*
X295400000Y-202600000D01*
X298600000Y-46500000D02*
X297350000Y-46500000D01*
X297350000Y-46500000D02*
X295400000Y-48400000D01*
D14*
X296200000Y-201200000D02*
X298730000Y-204390000D01*
D15*
X296200000Y-49400000D02*
X296200000Y-201200000D01*
X298600000Y-48200000D02*
X297350000Y-48200000D01*
X297350000Y-48200000D02*
X296200000Y-49400000D01*
D14*
X302739998Y-48200000D02*
X301300000Y-49639998D01*
X303400000Y-48200000D02*
X302739998Y-48200000D01*
X301300000Y-49639998D02*
X301300000Y-51500000D01*
X301300000Y-51500000D02*
X300300000Y-52500000D01*
X300100000Y-54200000D02*
X298600000Y-54200000D01*
X300300000Y-54000000D02*
X300100000Y-54200000D01*
X300300000Y-52500000D02*
X300300000Y-54000000D01*
X301900000Y-46500000D02*
X300400000Y-48000000D01*
X303400000Y-46500000D02*
X301900000Y-46500000D01*
X299050000Y-52500000D02*
X298600000Y-52500000D01*
X300400000Y-51150000D02*
X299050000Y-52500000D01*
X300400000Y-48000000D02*
X300400000Y-51150000D01*
X301700020Y-54399980D02*
X301700020Y-57199980D01*
X303400000Y-54200000D02*
X301900000Y-54200000D01*
X301900000Y-54200000D02*
X301700020Y-54399980D01*
X301700020Y-57199980D02*
X301600020Y-57199980D01*
X301600020Y-57199980D02*
X300300000Y-58500000D01*
X300100000Y-60200000D02*
X298600000Y-60200000D01*
X300300000Y-60000000D02*
X300100000Y-60200000D01*
X300300000Y-58500000D02*
X300300000Y-60000000D01*
X299050000Y-58500000D02*
X298600000Y-58500000D01*
X301000010Y-56549990D02*
X299050000Y-58500000D01*
X301000010Y-53399990D02*
X301000010Y-56549990D01*
X301900000Y-52500000D02*
X301000010Y-53399990D01*
X303400000Y-52500000D02*
X301900000Y-52500000D01*
X301000010Y-59399990D02*
X301000010Y-60499990D01*
X303400000Y-58500000D02*
X301900000Y-58500000D01*
X301900000Y-58500000D02*
X301000010Y-59399990D01*
X301000010Y-60499990D02*
X300400000Y-61100000D01*
X299050000Y-64500000D02*
X298600000Y-64500000D01*
X300400000Y-63150000D02*
X299050000Y-64500000D01*
X300400000Y-61100000D02*
X300400000Y-63150000D01*
X301100010Y-61839988D02*
X301100010Y-63699990D01*
X303400000Y-60200000D02*
X302739998Y-60200000D01*
X302739998Y-60200000D02*
X301100010Y-61839988D01*
X301100010Y-63699990D02*
X300300000Y-64500000D01*
X300100000Y-66200000D02*
X298600000Y-66200000D01*
X300300000Y-66000000D02*
X300100000Y-66200000D01*
X300300000Y-64500000D02*
X300300000Y-66000000D01*
X301900000Y-100500000D02*
X301200000Y-101200000D01*
X303400000Y-100500000D02*
X301900000Y-100500000D01*
X301200000Y-101200000D02*
X301200000Y-102400000D01*
X301200000Y-102400000D02*
X300400000Y-103200000D01*
X299050000Y-106500000D02*
X298600000Y-106500000D01*
X300400000Y-105150000D02*
X299050000Y-106500000D01*
X300400000Y-103200000D02*
X300400000Y-105150000D01*
X303400000Y-102200000D02*
X302600000Y-102200000D01*
X301100010Y-103699990D02*
X301100010Y-105899990D01*
X302600000Y-102200000D02*
X301100010Y-103699990D01*
X301100010Y-105899990D02*
X300400000Y-106600000D01*
X300100000Y-108200000D02*
X298600000Y-108200000D01*
X300400000Y-107900000D02*
X300100000Y-108200000D01*
X300400000Y-106600000D02*
X300400000Y-107900000D01*
X303400000Y-66200000D02*
X302300000Y-66200000D01*
X302300000Y-66200000D02*
X301200000Y-67300000D01*
X301200000Y-67300000D02*
X301200000Y-69700000D01*
X301200000Y-69700000D02*
X300300000Y-70600000D01*
X300100000Y-72200000D02*
X298600000Y-72200000D01*
X300300000Y-72000000D02*
X300100000Y-72200000D01*
X300300000Y-70600000D02*
X300300000Y-72000000D01*
X301900000Y-64500000D02*
X301000000Y-65400000D01*
X303400000Y-64500000D02*
X301900000Y-64500000D01*
X301000000Y-66289962D02*
X300400000Y-66889962D01*
X301000000Y-65400000D02*
X301000000Y-66289962D01*
X299050000Y-70500000D02*
X298600000Y-70500000D01*
X300400000Y-69150000D02*
X299050000Y-70500000D01*
X300400000Y-66889962D02*
X300400000Y-69150000D01*
X303400000Y-76500000D02*
X301500000Y-76500000D01*
X301500000Y-76500000D02*
X301100010Y-76899990D01*
X301100010Y-76899990D02*
X301100010Y-78299990D01*
X301100010Y-78299990D02*
X300400000Y-79000000D01*
X299050000Y-82500000D02*
X298600000Y-82500000D01*
X300400000Y-81150000D02*
X299050000Y-82500000D01*
X300400000Y-79000000D02*
X300400000Y-81150000D01*
X302739998Y-78200000D02*
X301200000Y-79739998D01*
X303400000Y-78200000D02*
X302739998Y-78200000D01*
X301200000Y-79739998D02*
X301200000Y-81800000D01*
X301200000Y-81800000D02*
X301100000Y-81900000D01*
X301100000Y-81900000D02*
X301100000Y-82000000D01*
X301100000Y-82000000D02*
X300300000Y-82800000D01*
X300100000Y-84200000D02*
X298600000Y-84200000D01*
X300300000Y-84000000D02*
X300100000Y-84200000D01*
X300300000Y-82800000D02*
X300300000Y-84000000D01*
X302739998Y-114200000D02*
X301200000Y-115739998D01*
X303400000Y-114200000D02*
X302739998Y-114200000D01*
X301200000Y-115739998D02*
X301200000Y-117700000D01*
X301200000Y-117700000D02*
X300300000Y-118600000D01*
X300100000Y-120200000D02*
X298600000Y-120200000D01*
X300300000Y-120000000D02*
X300100000Y-120200000D01*
X300300000Y-118600000D02*
X300300000Y-120000000D01*
X301900000Y-112500000D02*
X301200000Y-113200000D01*
X303400000Y-112500000D02*
X301900000Y-112500000D01*
X301200000Y-113200000D02*
X301200000Y-114400000D01*
X301200000Y-114400000D02*
X300400000Y-115200000D01*
X299050000Y-118500000D02*
X298600000Y-118500000D01*
X300400000Y-117150000D02*
X299050000Y-118500000D01*
X300400000Y-115200000D02*
X300400000Y-117150000D01*
X303400000Y-126200000D02*
X302500000Y-126200000D01*
X302500000Y-126200000D02*
X301300000Y-127400000D01*
X301300000Y-127400000D02*
X301300000Y-129600000D01*
X301300000Y-129600000D02*
X300400000Y-130500000D01*
X300100000Y-132200000D02*
X298600000Y-132200000D01*
X300400000Y-131900000D02*
X300100000Y-132200000D01*
X300400000Y-130500000D02*
X300400000Y-131900000D01*
X301900000Y-124500000D02*
X301200000Y-125200000D01*
X303400000Y-124500000D02*
X301900000Y-124500000D01*
X301200000Y-126089963D02*
X300400000Y-126889963D01*
X301200000Y-125200000D02*
X301200000Y-126089963D01*
X299050000Y-130500000D02*
X298600000Y-130500000D01*
X300400000Y-129150000D02*
X299050000Y-130500000D01*
X300400000Y-126889963D02*
X300400000Y-129150000D01*
X301800010Y-96299990D02*
X301800010Y-97199990D01*
X303400000Y-96200000D02*
X301900000Y-96200000D01*
X301900000Y-96200000D02*
X301800010Y-96299990D01*
X301100010Y-99439953D02*
X300439962Y-100100000D01*
X301800010Y-97199990D02*
X301100010Y-97899990D01*
X301100010Y-97899990D02*
X301100010Y-99439953D01*
X300100000Y-102200000D02*
X298600000Y-102200000D01*
X300439962Y-101860038D02*
X300100000Y-102200000D01*
X300439962Y-100100000D02*
X300439962Y-101860038D01*
X301900000Y-94500000D02*
X301100000Y-95300000D01*
X303400000Y-94500000D02*
X301900000Y-94500000D01*
X301100000Y-95300000D02*
X301100000Y-96800000D01*
X301100000Y-96800000D02*
X300400000Y-97500000D01*
X299050000Y-100500000D02*
X298600000Y-100500000D01*
X300400000Y-99150000D02*
X299050000Y-100500000D01*
X300400000Y-97500000D02*
X300400000Y-99150000D01*
X302739998Y-108200000D02*
X301239998Y-109700000D01*
X303400000Y-108200000D02*
X302739998Y-108200000D01*
X301239998Y-109700000D02*
X301239998Y-111660002D01*
X301239998Y-111660002D02*
X300400000Y-112500000D01*
X300100000Y-114200000D02*
X298600000Y-114200000D01*
X300400000Y-113900000D02*
X300100000Y-114200000D01*
X300400000Y-112500000D02*
X300400000Y-113900000D01*
X301900000Y-106500000D02*
X301200000Y-107200000D01*
X303400000Y-106500000D02*
X301900000Y-106500000D01*
X301200000Y-107200000D02*
X301200000Y-108300000D01*
X301200000Y-108300000D02*
X300400000Y-109100000D01*
X299050000Y-112500000D02*
X298600000Y-112500000D01*
X300400000Y-111150000D02*
X299050000Y-112500000D01*
X300400000Y-109100000D02*
X300400000Y-111150000D01*
X302739998Y-120200000D02*
X301200000Y-121739998D01*
X303400000Y-120200000D02*
X302739998Y-120200000D01*
X301200000Y-121739998D02*
X301200000Y-123700000D01*
X301200000Y-123700000D02*
X300400000Y-124500000D01*
X300100000Y-126200000D02*
X298600000Y-126200000D01*
X300400000Y-125900000D02*
X300100000Y-126200000D01*
X300400000Y-124500000D02*
X300400000Y-125900000D01*
X301900000Y-118500000D02*
X301100000Y-119300000D01*
X303400000Y-118500000D02*
X301900000Y-118500000D01*
X301100000Y-119300000D02*
X301100000Y-120700000D01*
X301100000Y-120700000D02*
X300400000Y-121400000D01*
X299050000Y-124500000D02*
X298600000Y-124500000D01*
X300400000Y-123150000D02*
X299050000Y-124500000D01*
X300400000Y-121400000D02*
X300400000Y-123150000D01*
X303400000Y-130500000D02*
X301900000Y-130500000D01*
X301900000Y-130500000D02*
X301200000Y-131200000D01*
X301200000Y-131200000D02*
X301200000Y-132400000D01*
X301200000Y-132400000D02*
X300400000Y-133200000D01*
X299050000Y-136500000D02*
X298600000Y-136500000D01*
X300400000Y-135150000D02*
X299050000Y-136500000D01*
X300400000Y-133200000D02*
X300400000Y-135150000D01*
X303400000Y-132200000D02*
X302600000Y-132200000D01*
X302600000Y-132200000D02*
X301200000Y-133600000D01*
X301100010Y-135199990D02*
X301100010Y-135699990D01*
X301200000Y-133600000D02*
X301200000Y-135100000D01*
X301200000Y-135100000D02*
X301100010Y-135199990D01*
X301100010Y-135699990D02*
X300400000Y-136400000D01*
X300100000Y-138200000D02*
X298600000Y-138200000D01*
X300400000Y-137900000D02*
X300100000Y-138200000D01*
X300400000Y-136400000D02*
X300400000Y-137900000D01*
X303400000Y-142500000D02*
X302500000Y-142500000D01*
X302500000Y-142789963D02*
X301000000Y-144289963D01*
X302500000Y-142500000D02*
X302500000Y-142789963D01*
X301000000Y-144289963D02*
X301000000Y-144400000D01*
X301000000Y-144400000D02*
X300400000Y-145000000D01*
X299050000Y-148500000D02*
X298600000Y-148500000D01*
X300400000Y-147150000D02*
X299050000Y-148500000D01*
X300400000Y-145000000D02*
X300400000Y-147150000D01*
X303400000Y-144200000D02*
X302400000Y-144200000D01*
X302400000Y-144200000D02*
X301200000Y-145400000D01*
X301200000Y-145400000D02*
X301200000Y-147500000D01*
X301200000Y-147500000D02*
X300400000Y-148300000D01*
X300100000Y-150200000D02*
X298600000Y-150200000D01*
X300400000Y-149900000D02*
X300100000Y-150200000D01*
X300400000Y-148300000D02*
X300400000Y-149900000D01*
X301900000Y-154500000D02*
X301100000Y-155300000D01*
X303400000Y-154500000D02*
X301900000Y-154500000D01*
X301100000Y-156189963D02*
X300300000Y-156989963D01*
X301100000Y-155300000D02*
X301100000Y-156189963D01*
X299050000Y-160500000D02*
X298600000Y-160500000D01*
X300300000Y-159250000D02*
X299050000Y-160500000D01*
X300300000Y-156989963D02*
X300300000Y-159250000D01*
X303400000Y-156200000D02*
X302200000Y-156200000D01*
X302200000Y-156200000D02*
X301100000Y-157300000D01*
X301100000Y-157300000D02*
X301100000Y-159600000D01*
X301100000Y-159600000D02*
X300400000Y-160300000D01*
X300100000Y-162200000D02*
X298600000Y-162200000D01*
X300400000Y-161900000D02*
X300100000Y-162200000D01*
X300400000Y-160300000D02*
X300400000Y-161900000D01*
X303400000Y-168200000D02*
X302500000Y-168200000D01*
X302500000Y-168200000D02*
X301300000Y-169400000D01*
X301300000Y-169400000D02*
X301300000Y-171400000D01*
X301300000Y-171400000D02*
X300400000Y-172300000D01*
X300100000Y-174200000D02*
X298600000Y-174200000D01*
X300400000Y-173900000D02*
X300100000Y-174200000D01*
X300400000Y-172300000D02*
X300400000Y-173900000D01*
X301900000Y-166500000D02*
X301200000Y-167200000D01*
X303400000Y-166500000D02*
X301900000Y-166500000D01*
X301200000Y-167200000D02*
X301200000Y-168300000D01*
X301200000Y-168300000D02*
X300400000Y-169100000D01*
X299050000Y-172500000D02*
X298600000Y-172500000D01*
X300400000Y-171150000D02*
X299050000Y-172500000D01*
X300400000Y-169100000D02*
X300400000Y-171150000D01*
X303400000Y-180200000D02*
X302600000Y-180200000D01*
X302600000Y-180200000D02*
X301200000Y-181600000D01*
X301200000Y-181600000D02*
X301200000Y-183600000D01*
X301200000Y-183600000D02*
X300400000Y-184400000D01*
X300100000Y-186200000D02*
X298600000Y-186200000D01*
X300400000Y-185900000D02*
X300100000Y-186200000D01*
X300400000Y-184400000D02*
X300400000Y-185900000D01*
X303400000Y-178500000D02*
X301900000Y-178500000D01*
X301900000Y-178500000D02*
X301300000Y-179100000D01*
X299050000Y-184500000D02*
X298600000Y-184500000D01*
X301300000Y-179100000D02*
X301300000Y-180300000D01*
X301300000Y-180300000D02*
X300400000Y-181200000D01*
X300400000Y-181200000D02*
X300400000Y-183150000D01*
X300400000Y-183150000D02*
X299050000Y-184500000D01*
X302300001Y-192899999D02*
X301800001Y-192899999D01*
X303400000Y-192200000D02*
X303000000Y-192200000D01*
X303000000Y-192200000D02*
X302300001Y-192899999D01*
X301800001Y-192899999D02*
X301200000Y-193500000D01*
X301200000Y-193500000D02*
X301200000Y-195600000D01*
X301200000Y-195600000D02*
X300400000Y-196400000D01*
X300100000Y-198200000D02*
X298600000Y-198200000D01*
X300400000Y-197900000D02*
X300100000Y-198200000D01*
X300400000Y-196400000D02*
X300400000Y-197900000D01*
X301900000Y-190500000D02*
X301200000Y-191200000D01*
X303400000Y-190500000D02*
X301900000Y-190500000D01*
X301200000Y-191200000D02*
X301200000Y-192400000D01*
X301200000Y-192400000D02*
X300400000Y-193200000D01*
X299050000Y-196500000D02*
X298600000Y-196500000D01*
X300400000Y-195150000D02*
X299050000Y-196500000D01*
X300400000Y-193200000D02*
X300400000Y-195150000D01*
X302739998Y-72200000D02*
X301239998Y-73700000D01*
X303400000Y-72200000D02*
X302739998Y-72200000D01*
X301239998Y-75560002D02*
X300400000Y-76400000D01*
X301239998Y-73700000D02*
X301239998Y-75560002D01*
X300100000Y-78200000D02*
X298600000Y-78200000D01*
X300400000Y-77900000D02*
X300100000Y-78200000D01*
X300400000Y-76400000D02*
X300400000Y-77900000D01*
X301900000Y-70500000D02*
X301100000Y-71300000D01*
X303400000Y-70500000D02*
X301900000Y-70500000D01*
X301100000Y-71300000D02*
X301100000Y-72500000D01*
X301100000Y-72500000D02*
X300300000Y-73300000D01*
X299050000Y-76500000D02*
X298600000Y-76500000D01*
X300300000Y-75250000D02*
X299050000Y-76500000D01*
X300300000Y-73300000D02*
X300300000Y-75250000D01*
X301800010Y-84299990D02*
X301800010Y-85099990D01*
X303400000Y-84200000D02*
X301900000Y-84200000D01*
X301900000Y-84200000D02*
X301800010Y-84299990D01*
X301800010Y-85099990D02*
X301100000Y-85800000D01*
X301100000Y-85800000D02*
X301100000Y-87900000D01*
X301100000Y-87900000D02*
X300400000Y-88600000D01*
X300100000Y-90200000D02*
X298600000Y-90200000D01*
X300400000Y-89900000D02*
X300100000Y-90200000D01*
X300400000Y-88600000D02*
X300400000Y-89900000D01*
X301900000Y-82500000D02*
X301100000Y-83300000D01*
X303400000Y-82500000D02*
X301900000Y-82500000D01*
X301100000Y-83300000D02*
X301100000Y-84700000D01*
X301100000Y-84700000D02*
X300400000Y-85400000D01*
X299050000Y-88500000D02*
X298600000Y-88500000D01*
X300400000Y-87150000D02*
X299050000Y-88500000D01*
X300400000Y-85400000D02*
X300400000Y-87150000D01*
X303400000Y-90200000D02*
X302300000Y-90200000D01*
X302300000Y-90200000D02*
X301100000Y-91400000D01*
X301100000Y-91400000D02*
X301100000Y-93800000D01*
X301100000Y-93800000D02*
X300300000Y-94600000D01*
X300100000Y-96200000D02*
X298600000Y-96200000D01*
X300300000Y-96000000D02*
X300100000Y-96200000D01*
X300300000Y-94600000D02*
X300300000Y-96000000D01*
X301900000Y-88500000D02*
X301200000Y-89200000D01*
X303400000Y-88500000D02*
X301900000Y-88500000D01*
X301200000Y-89200000D02*
X301200000Y-90200000D01*
X301200000Y-90200000D02*
X300300000Y-91100000D01*
X299050000Y-94500000D02*
X298600000Y-94500000D01*
X300300000Y-93250000D02*
X299050000Y-94500000D01*
X300300000Y-91100000D02*
X300300000Y-93250000D01*
X302739998Y-138200000D02*
X301239998Y-139700000D01*
X303400000Y-138200000D02*
X302739998Y-138200000D01*
X301100010Y-140899990D02*
X301100010Y-142799990D01*
X301239998Y-139700000D02*
X301239998Y-140760002D01*
X301239998Y-140760002D02*
X301100010Y-140899990D01*
X301100010Y-142799990D02*
X300400000Y-143500000D01*
X300100000Y-144200000D02*
X298600000Y-144200000D01*
X300400000Y-143900000D02*
X300100000Y-144200000D01*
X300400000Y-143500000D02*
X300400000Y-143900000D01*
X303400000Y-136500000D02*
X301900000Y-136500000D01*
X300100000Y-142500000D02*
X298600000Y-142500000D01*
X301900000Y-136500000D02*
X301200000Y-137200000D01*
X301200000Y-137200000D02*
X301200000Y-138300000D01*
X301200000Y-138300000D02*
X300400000Y-139100000D01*
X300400000Y-139100000D02*
X300400000Y-142200000D01*
X300400000Y-142200000D02*
X300100000Y-142500000D01*
X303400000Y-150200000D02*
X302200000Y-150200000D01*
X302200000Y-150200000D02*
X301200000Y-151200000D01*
X301200000Y-151200000D02*
X301200000Y-153700000D01*
X301200000Y-153700000D02*
X300300000Y-154600000D01*
X300100000Y-156200000D02*
X298600000Y-156200000D01*
X300300000Y-156000000D02*
X300100000Y-156200000D01*
X300300000Y-154600000D02*
X300300000Y-156000000D01*
X301900000Y-148500000D02*
X301100010Y-149299990D01*
X303400000Y-148500000D02*
X301900000Y-148500000D01*
X301100010Y-150189953D02*
X300400000Y-150889963D01*
X301100010Y-149299990D02*
X301100010Y-150189953D01*
X299050000Y-154500000D02*
X298600000Y-154500000D01*
X300400000Y-153150000D02*
X299050000Y-154500000D01*
X300400000Y-150889963D02*
X300400000Y-153150000D01*
X303400000Y-162200000D02*
X302500000Y-162200000D01*
X302500000Y-162200000D02*
X301200000Y-163500000D01*
X301200000Y-163500000D02*
X301200000Y-165400000D01*
X301200000Y-165400000D02*
X300400000Y-166200000D01*
X300100000Y-168200000D02*
X298600000Y-168200000D01*
X300400000Y-167900000D02*
X300100000Y-168200000D01*
X300400000Y-166200000D02*
X300400000Y-167900000D01*
X301900000Y-160500000D02*
X301200000Y-161200000D01*
X303400000Y-160500000D02*
X301900000Y-160500000D01*
X301200000Y-161200000D02*
X301200000Y-162400000D01*
X301200000Y-162400000D02*
X300400000Y-163200000D01*
X299050000Y-166500000D02*
X298600000Y-166500000D01*
X300400000Y-165150000D02*
X299050000Y-166500000D01*
X300400000Y-163200000D02*
X300400000Y-165150000D01*
X302739998Y-174200000D02*
X301339998Y-175600000D01*
X303400000Y-174200000D02*
X302739998Y-174200000D01*
X301339998Y-175600000D02*
X301339998Y-177560002D01*
X301339998Y-177560002D02*
X300500000Y-178400000D01*
X300100000Y-180200000D02*
X298600000Y-180200000D01*
X300500000Y-179800000D02*
X300100000Y-180200000D01*
X300500000Y-178400000D02*
X300500000Y-179800000D01*
X301900000Y-172500000D02*
X301200000Y-173200000D01*
X303400000Y-172500000D02*
X301900000Y-172500000D01*
X301200000Y-173200000D02*
X301200000Y-174300000D01*
X301200000Y-174300000D02*
X300500000Y-175000000D01*
X299050000Y-178500000D02*
X298600000Y-178500000D01*
X300500000Y-177050000D02*
X299050000Y-178500000D01*
X300500000Y-175000000D02*
X300500000Y-177050000D01*
X301900000Y-184500000D02*
X301200000Y-185200000D01*
X303400000Y-184500000D02*
X301900000Y-184500000D01*
X301200000Y-185200000D02*
X301200000Y-186400000D01*
X301200000Y-186400000D02*
X300400000Y-187200000D01*
X299050000Y-190500000D02*
X298600000Y-190500000D01*
X300400000Y-189150000D02*
X299050000Y-190500000D01*
X300400000Y-187200000D02*
X300400000Y-189150000D01*
X303400000Y-186200000D02*
X302500000Y-186200000D01*
X302500000Y-186200000D02*
X301200000Y-187500000D01*
X301200000Y-187500000D02*
X301200000Y-189600000D01*
X301200000Y-189600000D02*
X300400000Y-190400000D01*
X300100000Y-192200000D02*
X298600000Y-192200000D01*
X300400000Y-191900000D02*
X300100000Y-192200000D01*
X300400000Y-190400000D02*
X300400000Y-191900000D01*
X300600000Y-203720000D02*
X301270000Y-204390000D01*
X300600000Y-198689963D02*
X300600000Y-203720000D01*
X301200000Y-198089963D02*
X300600000Y-198689963D01*
X301200000Y-197300000D02*
X301200000Y-198089963D01*
X303500000Y-196500000D02*
X302000000Y-196500000D01*
X302000000Y-196500000D02*
X301200000Y-197300000D01*
X303810000Y-203910000D02*
X303810000Y-204390000D01*
X301600000Y-201700000D02*
X303810000Y-203910000D01*
X301600000Y-199000000D02*
X301600000Y-201700000D01*
X303500000Y-198200000D02*
X302400000Y-198200000D01*
X302400000Y-198200000D02*
X301600000Y-199000000D01*
M02*
