G04 #@! TF.GenerationSoftware,KiCad,Pcbnew,(5.1.4)-1*
G04 #@! TF.CreationDate,2019-09-16T17:16:43+02:00*
G04 #@! TF.ProjectId,LED_Leiste,4c45445f-4c65-4697-9374-652e6b696361,rev?*
G04 #@! TF.SameCoordinates,Original*
G04 #@! TF.FileFunction,Legend,Top*
G04 #@! TF.FilePolarity,Positive*
%FSLAX46Y46*%
G04 Gerber Fmt 4.6, Leading zero omitted, Abs format (unit mm)*
G04 Created by KiCad (PCBNEW (5.1.4)-1) date 2019-09-16 17:16:43*
%MOMM*%
%LPD*%
G04 APERTURE LIST*
%ADD10C,0.120000*%
%ADD11C,0.150000*%
G04 APERTURE END LIST*
D10*
X303600000Y-68900000D02*
X298600000Y-68900000D01*
X297500000Y-64600000D02*
X297500000Y-63500000D01*
X297500000Y-63500000D02*
X303600000Y-63500000D01*
X303600000Y-182900000D02*
X298600000Y-182900000D01*
X297500000Y-178600000D02*
X297500000Y-177500000D01*
X297500000Y-177500000D02*
X303600000Y-177500000D01*
X297500000Y-69500000D02*
X303600000Y-69500000D01*
X297500000Y-70600000D02*
X297500000Y-69500000D01*
X303600000Y-74900000D02*
X298600000Y-74900000D01*
X297500000Y-171500000D02*
X303600000Y-171500000D01*
X297500000Y-172600000D02*
X297500000Y-171500000D01*
X303600000Y-176900000D02*
X298600000Y-176900000D01*
X303600000Y-80900000D02*
X298600000Y-80900000D01*
X297500000Y-76600000D02*
X297500000Y-75500000D01*
X297500000Y-75500000D02*
X303600000Y-75500000D01*
X303600000Y-170900000D02*
X298600000Y-170900000D01*
X297500000Y-166600000D02*
X297500000Y-165500000D01*
X297500000Y-165500000D02*
X303600000Y-165500000D01*
X297500000Y-81500000D02*
X303600000Y-81500000D01*
X297500000Y-82600000D02*
X297500000Y-81500000D01*
X303600000Y-86900000D02*
X298600000Y-86900000D01*
X297500000Y-159500000D02*
X303600000Y-159500000D01*
X297500000Y-160600000D02*
X297500000Y-159500000D01*
X303600000Y-164900000D02*
X298600000Y-164900000D01*
X297500000Y-87500000D02*
X303600000Y-87500000D01*
X297500000Y-88600000D02*
X297500000Y-87500000D01*
X303600000Y-92900000D02*
X298600000Y-92900000D01*
X303600000Y-158900000D02*
X298600000Y-158900000D01*
X297500000Y-154600000D02*
X297500000Y-153500000D01*
X297500000Y-153500000D02*
X303600000Y-153500000D01*
X303600000Y-98900000D02*
X298600000Y-98900000D01*
X297500000Y-94600000D02*
X297500000Y-93500000D01*
X297500000Y-93500000D02*
X303600000Y-93500000D01*
X297500000Y-147500000D02*
X303600000Y-147500000D01*
X297500000Y-148600000D02*
X297500000Y-147500000D01*
X303600000Y-152900000D02*
X298600000Y-152900000D01*
X297500000Y-99500000D02*
X303600000Y-99500000D01*
X297500000Y-100600000D02*
X297500000Y-99500000D01*
X303600000Y-104900000D02*
X298600000Y-104900000D01*
X303600000Y-146900000D02*
X298600000Y-146900000D01*
X297500000Y-142600000D02*
X297500000Y-141500000D01*
X297500000Y-141500000D02*
X303600000Y-141500000D01*
X303600000Y-110900000D02*
X298600000Y-110900000D01*
X297500000Y-106600000D02*
X297500000Y-105500000D01*
X297500000Y-105500000D02*
X303600000Y-105500000D01*
X297500000Y-135500000D02*
X303600000Y-135500000D01*
X297500000Y-136600000D02*
X297500000Y-135500000D01*
X303600000Y-140900000D02*
X298600000Y-140900000D01*
X297500000Y-111500000D02*
X303600000Y-111500000D01*
X297500000Y-112600000D02*
X297500000Y-111500000D01*
X303600000Y-116900000D02*
X298600000Y-116900000D01*
X303600000Y-134900000D02*
X298600000Y-134900000D01*
X297500000Y-130600000D02*
X297500000Y-129500000D01*
X297500000Y-129500000D02*
X303600000Y-129500000D01*
X303600000Y-122900000D02*
X298600000Y-122900000D01*
X297500000Y-118600000D02*
X297500000Y-117500000D01*
X297500000Y-117500000D02*
X303600000Y-117500000D01*
X297500000Y-123500000D02*
X303600000Y-123500000D01*
X297500000Y-124600000D02*
X297500000Y-123500000D01*
X303600000Y-128900000D02*
X298600000Y-128900000D01*
X297500000Y-45500000D02*
X303600000Y-45500000D01*
X297500000Y-46600000D02*
X297500000Y-45500000D01*
X303600000Y-50900000D02*
X298600000Y-50900000D01*
X303600000Y-200900000D02*
X298600000Y-200900000D01*
X297500000Y-196600000D02*
X297500000Y-195500000D01*
X297500000Y-195500000D02*
X303600000Y-195500000D01*
X303600000Y-56900000D02*
X298600000Y-56900000D01*
X297500000Y-52600000D02*
X297500000Y-51500000D01*
X297500000Y-51500000D02*
X303600000Y-51500000D01*
X297500000Y-189500000D02*
X303600000Y-189500000D01*
X297500000Y-190600000D02*
X297500000Y-189500000D01*
X303600000Y-194900000D02*
X298600000Y-194900000D01*
X297500000Y-57500000D02*
X303600000Y-57500000D01*
X297500000Y-58600000D02*
X297500000Y-57500000D01*
X303600000Y-62900000D02*
X298600000Y-62900000D01*
X303600000Y-188900000D02*
X298600000Y-188900000D01*
X297500000Y-184600000D02*
X297500000Y-183500000D01*
X297500000Y-183500000D02*
X303600000Y-183500000D01*
X294162278Y-190000000D02*
G75*
G03X294162278Y-190000000I-3162278J0D01*
G01*
X312162278Y-190000000D02*
G75*
G03X312162278Y-190000000I-3162278J0D01*
G01*
D11*
X296852380Y-66938095D02*
X295852380Y-66938095D01*
X295852380Y-66700000D01*
X295900000Y-66557142D01*
X295995238Y-66461904D01*
X296090476Y-66414285D01*
X296280952Y-66366666D01*
X296423809Y-66366666D01*
X296614285Y-66414285D01*
X296709523Y-66461904D01*
X296804761Y-66557142D01*
X296852380Y-66700000D01*
X296852380Y-66938095D01*
X296185714Y-65509523D02*
X296852380Y-65509523D01*
X295804761Y-65747619D02*
X296519047Y-65985714D01*
X296519047Y-65366666D01*
X296852380Y-181414285D02*
X295852380Y-181414285D01*
X295852380Y-181176190D01*
X295900000Y-181033333D01*
X295995238Y-180938095D01*
X296090476Y-180890476D01*
X296280952Y-180842857D01*
X296423809Y-180842857D01*
X296614285Y-180890476D01*
X296709523Y-180938095D01*
X296804761Y-181033333D01*
X296852380Y-181176190D01*
X296852380Y-181414285D01*
X295947619Y-180461904D02*
X295900000Y-180414285D01*
X295852380Y-180319047D01*
X295852380Y-180080952D01*
X295900000Y-179985714D01*
X295947619Y-179938095D01*
X296042857Y-179890476D01*
X296138095Y-179890476D01*
X296280952Y-179938095D01*
X296852380Y-180509523D01*
X296852380Y-179890476D01*
X295852380Y-179557142D02*
X295852380Y-178938095D01*
X296233333Y-179271428D01*
X296233333Y-179128571D01*
X296280952Y-179033333D01*
X296328571Y-178985714D01*
X296423809Y-178938095D01*
X296661904Y-178938095D01*
X296757142Y-178985714D01*
X296804761Y-179033333D01*
X296852380Y-179128571D01*
X296852380Y-179414285D01*
X296804761Y-179509523D01*
X296757142Y-179557142D01*
X296852380Y-72938095D02*
X295852380Y-72938095D01*
X295852380Y-72700000D01*
X295900000Y-72557142D01*
X295995238Y-72461904D01*
X296090476Y-72414285D01*
X296280952Y-72366666D01*
X296423809Y-72366666D01*
X296614285Y-72414285D01*
X296709523Y-72461904D01*
X296804761Y-72557142D01*
X296852380Y-72700000D01*
X296852380Y-72938095D01*
X295852380Y-71461904D02*
X295852380Y-71938095D01*
X296328571Y-71985714D01*
X296280952Y-71938095D01*
X296233333Y-71842857D01*
X296233333Y-71604761D01*
X296280952Y-71509523D01*
X296328571Y-71461904D01*
X296423809Y-71414285D01*
X296661904Y-71414285D01*
X296757142Y-71461904D01*
X296804761Y-71509523D01*
X296852380Y-71604761D01*
X296852380Y-71842857D01*
X296804761Y-71938095D01*
X296757142Y-71985714D01*
X296852380Y-175414285D02*
X295852380Y-175414285D01*
X295852380Y-175176190D01*
X295900000Y-175033333D01*
X295995238Y-174938095D01*
X296090476Y-174890476D01*
X296280952Y-174842857D01*
X296423809Y-174842857D01*
X296614285Y-174890476D01*
X296709523Y-174938095D01*
X296804761Y-175033333D01*
X296852380Y-175176190D01*
X296852380Y-175414285D01*
X295947619Y-174461904D02*
X295900000Y-174414285D01*
X295852380Y-174319047D01*
X295852380Y-174080952D01*
X295900000Y-173985714D01*
X295947619Y-173938095D01*
X296042857Y-173890476D01*
X296138095Y-173890476D01*
X296280952Y-173938095D01*
X296852380Y-174509523D01*
X296852380Y-173890476D01*
X295947619Y-173509523D02*
X295900000Y-173461904D01*
X295852380Y-173366666D01*
X295852380Y-173128571D01*
X295900000Y-173033333D01*
X295947619Y-172985714D01*
X296042857Y-172938095D01*
X296138095Y-172938095D01*
X296280952Y-172985714D01*
X296852380Y-173557142D01*
X296852380Y-172938095D01*
X296852380Y-78938095D02*
X295852380Y-78938095D01*
X295852380Y-78700000D01*
X295900000Y-78557142D01*
X295995238Y-78461904D01*
X296090476Y-78414285D01*
X296280952Y-78366666D01*
X296423809Y-78366666D01*
X296614285Y-78414285D01*
X296709523Y-78461904D01*
X296804761Y-78557142D01*
X296852380Y-78700000D01*
X296852380Y-78938095D01*
X295852380Y-77509523D02*
X295852380Y-77700000D01*
X295900000Y-77795238D01*
X295947619Y-77842857D01*
X296090476Y-77938095D01*
X296280952Y-77985714D01*
X296661904Y-77985714D01*
X296757142Y-77938095D01*
X296804761Y-77890476D01*
X296852380Y-77795238D01*
X296852380Y-77604761D01*
X296804761Y-77509523D01*
X296757142Y-77461904D01*
X296661904Y-77414285D01*
X296423809Y-77414285D01*
X296328571Y-77461904D01*
X296280952Y-77509523D01*
X296233333Y-77604761D01*
X296233333Y-77795238D01*
X296280952Y-77890476D01*
X296328571Y-77938095D01*
X296423809Y-77985714D01*
X296852380Y-169414285D02*
X295852380Y-169414285D01*
X295852380Y-169176190D01*
X295900000Y-169033333D01*
X295995238Y-168938095D01*
X296090476Y-168890476D01*
X296280952Y-168842857D01*
X296423809Y-168842857D01*
X296614285Y-168890476D01*
X296709523Y-168938095D01*
X296804761Y-169033333D01*
X296852380Y-169176190D01*
X296852380Y-169414285D01*
X295947619Y-168461904D02*
X295900000Y-168414285D01*
X295852380Y-168319047D01*
X295852380Y-168080952D01*
X295900000Y-167985714D01*
X295947619Y-167938095D01*
X296042857Y-167890476D01*
X296138095Y-167890476D01*
X296280952Y-167938095D01*
X296852380Y-168509523D01*
X296852380Y-167890476D01*
X296852380Y-166938095D02*
X296852380Y-167509523D01*
X296852380Y-167223809D02*
X295852380Y-167223809D01*
X295995238Y-167319047D01*
X296090476Y-167414285D01*
X296138095Y-167509523D01*
X296852380Y-84938095D02*
X295852380Y-84938095D01*
X295852380Y-84700000D01*
X295900000Y-84557142D01*
X295995238Y-84461904D01*
X296090476Y-84414285D01*
X296280952Y-84366666D01*
X296423809Y-84366666D01*
X296614285Y-84414285D01*
X296709523Y-84461904D01*
X296804761Y-84557142D01*
X296852380Y-84700000D01*
X296852380Y-84938095D01*
X295852380Y-84033333D02*
X295852380Y-83366666D01*
X296852380Y-83795238D01*
X296852380Y-163414285D02*
X295852380Y-163414285D01*
X295852380Y-163176190D01*
X295900000Y-163033333D01*
X295995238Y-162938095D01*
X296090476Y-162890476D01*
X296280952Y-162842857D01*
X296423809Y-162842857D01*
X296614285Y-162890476D01*
X296709523Y-162938095D01*
X296804761Y-163033333D01*
X296852380Y-163176190D01*
X296852380Y-163414285D01*
X295947619Y-162461904D02*
X295900000Y-162414285D01*
X295852380Y-162319047D01*
X295852380Y-162080952D01*
X295900000Y-161985714D01*
X295947619Y-161938095D01*
X296042857Y-161890476D01*
X296138095Y-161890476D01*
X296280952Y-161938095D01*
X296852380Y-162509523D01*
X296852380Y-161890476D01*
X295852380Y-161271428D02*
X295852380Y-161176190D01*
X295900000Y-161080952D01*
X295947619Y-161033333D01*
X296042857Y-160985714D01*
X296233333Y-160938095D01*
X296471428Y-160938095D01*
X296661904Y-160985714D01*
X296757142Y-161033333D01*
X296804761Y-161080952D01*
X296852380Y-161176190D01*
X296852380Y-161271428D01*
X296804761Y-161366666D01*
X296757142Y-161414285D01*
X296661904Y-161461904D01*
X296471428Y-161509523D01*
X296233333Y-161509523D01*
X296042857Y-161461904D01*
X295947619Y-161414285D01*
X295900000Y-161366666D01*
X295852380Y-161271428D01*
X296852380Y-90938095D02*
X295852380Y-90938095D01*
X295852380Y-90700000D01*
X295900000Y-90557142D01*
X295995238Y-90461904D01*
X296090476Y-90414285D01*
X296280952Y-90366666D01*
X296423809Y-90366666D01*
X296614285Y-90414285D01*
X296709523Y-90461904D01*
X296804761Y-90557142D01*
X296852380Y-90700000D01*
X296852380Y-90938095D01*
X296280952Y-89795238D02*
X296233333Y-89890476D01*
X296185714Y-89938095D01*
X296090476Y-89985714D01*
X296042857Y-89985714D01*
X295947619Y-89938095D01*
X295900000Y-89890476D01*
X295852380Y-89795238D01*
X295852380Y-89604761D01*
X295900000Y-89509523D01*
X295947619Y-89461904D01*
X296042857Y-89414285D01*
X296090476Y-89414285D01*
X296185714Y-89461904D01*
X296233333Y-89509523D01*
X296280952Y-89604761D01*
X296280952Y-89795238D01*
X296328571Y-89890476D01*
X296376190Y-89938095D01*
X296471428Y-89985714D01*
X296661904Y-89985714D01*
X296757142Y-89938095D01*
X296804761Y-89890476D01*
X296852380Y-89795238D01*
X296852380Y-89604761D01*
X296804761Y-89509523D01*
X296757142Y-89461904D01*
X296661904Y-89414285D01*
X296471428Y-89414285D01*
X296376190Y-89461904D01*
X296328571Y-89509523D01*
X296280952Y-89604761D01*
X296852380Y-157414285D02*
X295852380Y-157414285D01*
X295852380Y-157176190D01*
X295900000Y-157033333D01*
X295995238Y-156938095D01*
X296090476Y-156890476D01*
X296280952Y-156842857D01*
X296423809Y-156842857D01*
X296614285Y-156890476D01*
X296709523Y-156938095D01*
X296804761Y-157033333D01*
X296852380Y-157176190D01*
X296852380Y-157414285D01*
X296852380Y-155890476D02*
X296852380Y-156461904D01*
X296852380Y-156176190D02*
X295852380Y-156176190D01*
X295995238Y-156271428D01*
X296090476Y-156366666D01*
X296138095Y-156461904D01*
X296852380Y-155414285D02*
X296852380Y-155223809D01*
X296804761Y-155128571D01*
X296757142Y-155080952D01*
X296614285Y-154985714D01*
X296423809Y-154938095D01*
X296042857Y-154938095D01*
X295947619Y-154985714D01*
X295900000Y-155033333D01*
X295852380Y-155128571D01*
X295852380Y-155319047D01*
X295900000Y-155414285D01*
X295947619Y-155461904D01*
X296042857Y-155509523D01*
X296280952Y-155509523D01*
X296376190Y-155461904D01*
X296423809Y-155414285D01*
X296471428Y-155319047D01*
X296471428Y-155128571D01*
X296423809Y-155033333D01*
X296376190Y-154985714D01*
X296280952Y-154938095D01*
X296852380Y-96938095D02*
X295852380Y-96938095D01*
X295852380Y-96700000D01*
X295900000Y-96557142D01*
X295995238Y-96461904D01*
X296090476Y-96414285D01*
X296280952Y-96366666D01*
X296423809Y-96366666D01*
X296614285Y-96414285D01*
X296709523Y-96461904D01*
X296804761Y-96557142D01*
X296852380Y-96700000D01*
X296852380Y-96938095D01*
X296852380Y-95890476D02*
X296852380Y-95700000D01*
X296804761Y-95604761D01*
X296757142Y-95557142D01*
X296614285Y-95461904D01*
X296423809Y-95414285D01*
X296042857Y-95414285D01*
X295947619Y-95461904D01*
X295900000Y-95509523D01*
X295852380Y-95604761D01*
X295852380Y-95795238D01*
X295900000Y-95890476D01*
X295947619Y-95938095D01*
X296042857Y-95985714D01*
X296280952Y-95985714D01*
X296376190Y-95938095D01*
X296423809Y-95890476D01*
X296471428Y-95795238D01*
X296471428Y-95604761D01*
X296423809Y-95509523D01*
X296376190Y-95461904D01*
X296280952Y-95414285D01*
X296852380Y-151314285D02*
X295852380Y-151314285D01*
X295852380Y-151076190D01*
X295900000Y-150933333D01*
X295995238Y-150838095D01*
X296090476Y-150790476D01*
X296280952Y-150742857D01*
X296423809Y-150742857D01*
X296614285Y-150790476D01*
X296709523Y-150838095D01*
X296804761Y-150933333D01*
X296852380Y-151076190D01*
X296852380Y-151314285D01*
X296852380Y-149790476D02*
X296852380Y-150361904D01*
X296852380Y-150076190D02*
X295852380Y-150076190D01*
X295995238Y-150171428D01*
X296090476Y-150266666D01*
X296138095Y-150361904D01*
X296280952Y-149219047D02*
X296233333Y-149314285D01*
X296185714Y-149361904D01*
X296090476Y-149409523D01*
X296042857Y-149409523D01*
X295947619Y-149361904D01*
X295900000Y-149314285D01*
X295852380Y-149219047D01*
X295852380Y-149028571D01*
X295900000Y-148933333D01*
X295947619Y-148885714D01*
X296042857Y-148838095D01*
X296090476Y-148838095D01*
X296185714Y-148885714D01*
X296233333Y-148933333D01*
X296280952Y-149028571D01*
X296280952Y-149219047D01*
X296328571Y-149314285D01*
X296376190Y-149361904D01*
X296471428Y-149409523D01*
X296661904Y-149409523D01*
X296757142Y-149361904D01*
X296804761Y-149314285D01*
X296852380Y-149219047D01*
X296852380Y-149028571D01*
X296804761Y-148933333D01*
X296757142Y-148885714D01*
X296661904Y-148838095D01*
X296471428Y-148838095D01*
X296376190Y-148885714D01*
X296328571Y-148933333D01*
X296280952Y-149028571D01*
X296852380Y-103414285D02*
X295852380Y-103414285D01*
X295852380Y-103176190D01*
X295900000Y-103033333D01*
X295995238Y-102938095D01*
X296090476Y-102890476D01*
X296280952Y-102842857D01*
X296423809Y-102842857D01*
X296614285Y-102890476D01*
X296709523Y-102938095D01*
X296804761Y-103033333D01*
X296852380Y-103176190D01*
X296852380Y-103414285D01*
X296852380Y-101890476D02*
X296852380Y-102461904D01*
X296852380Y-102176190D02*
X295852380Y-102176190D01*
X295995238Y-102271428D01*
X296090476Y-102366666D01*
X296138095Y-102461904D01*
X295852380Y-101271428D02*
X295852380Y-101176190D01*
X295900000Y-101080952D01*
X295947619Y-101033333D01*
X296042857Y-100985714D01*
X296233333Y-100938095D01*
X296471428Y-100938095D01*
X296661904Y-100985714D01*
X296757142Y-101033333D01*
X296804761Y-101080952D01*
X296852380Y-101176190D01*
X296852380Y-101271428D01*
X296804761Y-101366666D01*
X296757142Y-101414285D01*
X296661904Y-101461904D01*
X296471428Y-101509523D01*
X296233333Y-101509523D01*
X296042857Y-101461904D01*
X295947619Y-101414285D01*
X295900000Y-101366666D01*
X295852380Y-101271428D01*
X296852380Y-145414285D02*
X295852380Y-145414285D01*
X295852380Y-145176190D01*
X295900000Y-145033333D01*
X295995238Y-144938095D01*
X296090476Y-144890476D01*
X296280952Y-144842857D01*
X296423809Y-144842857D01*
X296614285Y-144890476D01*
X296709523Y-144938095D01*
X296804761Y-145033333D01*
X296852380Y-145176190D01*
X296852380Y-145414285D01*
X296852380Y-143890476D02*
X296852380Y-144461904D01*
X296852380Y-144176190D02*
X295852380Y-144176190D01*
X295995238Y-144271428D01*
X296090476Y-144366666D01*
X296138095Y-144461904D01*
X295852380Y-143557142D02*
X295852380Y-142890476D01*
X296852380Y-143319047D01*
X296852380Y-109414285D02*
X295852380Y-109414285D01*
X295852380Y-109176190D01*
X295900000Y-109033333D01*
X295995238Y-108938095D01*
X296090476Y-108890476D01*
X296280952Y-108842857D01*
X296423809Y-108842857D01*
X296614285Y-108890476D01*
X296709523Y-108938095D01*
X296804761Y-109033333D01*
X296852380Y-109176190D01*
X296852380Y-109414285D01*
X296852380Y-107890476D02*
X296852380Y-108461904D01*
X296852380Y-108176190D02*
X295852380Y-108176190D01*
X295995238Y-108271428D01*
X296090476Y-108366666D01*
X296138095Y-108461904D01*
X296852380Y-106938095D02*
X296852380Y-107509523D01*
X296852380Y-107223809D02*
X295852380Y-107223809D01*
X295995238Y-107319047D01*
X296090476Y-107414285D01*
X296138095Y-107509523D01*
X296852380Y-139414285D02*
X295852380Y-139414285D01*
X295852380Y-139176190D01*
X295900000Y-139033333D01*
X295995238Y-138938095D01*
X296090476Y-138890476D01*
X296280952Y-138842857D01*
X296423809Y-138842857D01*
X296614285Y-138890476D01*
X296709523Y-138938095D01*
X296804761Y-139033333D01*
X296852380Y-139176190D01*
X296852380Y-139414285D01*
X296852380Y-137890476D02*
X296852380Y-138461904D01*
X296852380Y-138176190D02*
X295852380Y-138176190D01*
X295995238Y-138271428D01*
X296090476Y-138366666D01*
X296138095Y-138461904D01*
X295852380Y-137033333D02*
X295852380Y-137223809D01*
X295900000Y-137319047D01*
X295947619Y-137366666D01*
X296090476Y-137461904D01*
X296280952Y-137509523D01*
X296661904Y-137509523D01*
X296757142Y-137461904D01*
X296804761Y-137414285D01*
X296852380Y-137319047D01*
X296852380Y-137128571D01*
X296804761Y-137033333D01*
X296757142Y-136985714D01*
X296661904Y-136938095D01*
X296423809Y-136938095D01*
X296328571Y-136985714D01*
X296280952Y-137033333D01*
X296233333Y-137128571D01*
X296233333Y-137319047D01*
X296280952Y-137414285D01*
X296328571Y-137461904D01*
X296423809Y-137509523D01*
X296852380Y-115414285D02*
X295852380Y-115414285D01*
X295852380Y-115176190D01*
X295900000Y-115033333D01*
X295995238Y-114938095D01*
X296090476Y-114890476D01*
X296280952Y-114842857D01*
X296423809Y-114842857D01*
X296614285Y-114890476D01*
X296709523Y-114938095D01*
X296804761Y-115033333D01*
X296852380Y-115176190D01*
X296852380Y-115414285D01*
X296852380Y-113890476D02*
X296852380Y-114461904D01*
X296852380Y-114176190D02*
X295852380Y-114176190D01*
X295995238Y-114271428D01*
X296090476Y-114366666D01*
X296138095Y-114461904D01*
X295947619Y-113509523D02*
X295900000Y-113461904D01*
X295852380Y-113366666D01*
X295852380Y-113128571D01*
X295900000Y-113033333D01*
X295947619Y-112985714D01*
X296042857Y-112938095D01*
X296138095Y-112938095D01*
X296280952Y-112985714D01*
X296852380Y-113557142D01*
X296852380Y-112938095D01*
X296852380Y-133414285D02*
X295852380Y-133414285D01*
X295852380Y-133176190D01*
X295900000Y-133033333D01*
X295995238Y-132938095D01*
X296090476Y-132890476D01*
X296280952Y-132842857D01*
X296423809Y-132842857D01*
X296614285Y-132890476D01*
X296709523Y-132938095D01*
X296804761Y-133033333D01*
X296852380Y-133176190D01*
X296852380Y-133414285D01*
X296852380Y-131890476D02*
X296852380Y-132461904D01*
X296852380Y-132176190D02*
X295852380Y-132176190D01*
X295995238Y-132271428D01*
X296090476Y-132366666D01*
X296138095Y-132461904D01*
X295852380Y-130985714D02*
X295852380Y-131461904D01*
X296328571Y-131509523D01*
X296280952Y-131461904D01*
X296233333Y-131366666D01*
X296233333Y-131128571D01*
X296280952Y-131033333D01*
X296328571Y-130985714D01*
X296423809Y-130938095D01*
X296661904Y-130938095D01*
X296757142Y-130985714D01*
X296804761Y-131033333D01*
X296852380Y-131128571D01*
X296852380Y-131366666D01*
X296804761Y-131461904D01*
X296757142Y-131509523D01*
X296852380Y-121414285D02*
X295852380Y-121414285D01*
X295852380Y-121176190D01*
X295900000Y-121033333D01*
X295995238Y-120938095D01*
X296090476Y-120890476D01*
X296280952Y-120842857D01*
X296423809Y-120842857D01*
X296614285Y-120890476D01*
X296709523Y-120938095D01*
X296804761Y-121033333D01*
X296852380Y-121176190D01*
X296852380Y-121414285D01*
X296852380Y-119890476D02*
X296852380Y-120461904D01*
X296852380Y-120176190D02*
X295852380Y-120176190D01*
X295995238Y-120271428D01*
X296090476Y-120366666D01*
X296138095Y-120461904D01*
X295852380Y-119557142D02*
X295852380Y-118938095D01*
X296233333Y-119271428D01*
X296233333Y-119128571D01*
X296280952Y-119033333D01*
X296328571Y-118985714D01*
X296423809Y-118938095D01*
X296661904Y-118938095D01*
X296757142Y-118985714D01*
X296804761Y-119033333D01*
X296852380Y-119128571D01*
X296852380Y-119414285D01*
X296804761Y-119509523D01*
X296757142Y-119557142D01*
X296852380Y-127414285D02*
X295852380Y-127414285D01*
X295852380Y-127176190D01*
X295900000Y-127033333D01*
X295995238Y-126938095D01*
X296090476Y-126890476D01*
X296280952Y-126842857D01*
X296423809Y-126842857D01*
X296614285Y-126890476D01*
X296709523Y-126938095D01*
X296804761Y-127033333D01*
X296852380Y-127176190D01*
X296852380Y-127414285D01*
X296852380Y-125890476D02*
X296852380Y-126461904D01*
X296852380Y-126176190D02*
X295852380Y-126176190D01*
X295995238Y-126271428D01*
X296090476Y-126366666D01*
X296138095Y-126461904D01*
X296185714Y-125033333D02*
X296852380Y-125033333D01*
X295804761Y-125271428D02*
X296519047Y-125509523D01*
X296519047Y-124890476D01*
X296852380Y-48938095D02*
X295852380Y-48938095D01*
X295852380Y-48700000D01*
X295900000Y-48557142D01*
X295995238Y-48461904D01*
X296090476Y-48414285D01*
X296280952Y-48366666D01*
X296423809Y-48366666D01*
X296614285Y-48414285D01*
X296709523Y-48461904D01*
X296804761Y-48557142D01*
X296852380Y-48700000D01*
X296852380Y-48938095D01*
X296852380Y-47414285D02*
X296852380Y-47985714D01*
X296852380Y-47700000D02*
X295852380Y-47700000D01*
X295995238Y-47795238D01*
X296090476Y-47890476D01*
X296138095Y-47985714D01*
X296852380Y-199414285D02*
X295852380Y-199414285D01*
X295852380Y-199176190D01*
X295900000Y-199033333D01*
X295995238Y-198938095D01*
X296090476Y-198890476D01*
X296280952Y-198842857D01*
X296423809Y-198842857D01*
X296614285Y-198890476D01*
X296709523Y-198938095D01*
X296804761Y-199033333D01*
X296852380Y-199176190D01*
X296852380Y-199414285D01*
X295947619Y-198461904D02*
X295900000Y-198414285D01*
X295852380Y-198319047D01*
X295852380Y-198080952D01*
X295900000Y-197985714D01*
X295947619Y-197938095D01*
X296042857Y-197890476D01*
X296138095Y-197890476D01*
X296280952Y-197938095D01*
X296852380Y-198509523D01*
X296852380Y-197890476D01*
X295852380Y-197033333D02*
X295852380Y-197223809D01*
X295900000Y-197319047D01*
X295947619Y-197366666D01*
X296090476Y-197461904D01*
X296280952Y-197509523D01*
X296661904Y-197509523D01*
X296757142Y-197461904D01*
X296804761Y-197414285D01*
X296852380Y-197319047D01*
X296852380Y-197128571D01*
X296804761Y-197033333D01*
X296757142Y-196985714D01*
X296661904Y-196938095D01*
X296423809Y-196938095D01*
X296328571Y-196985714D01*
X296280952Y-197033333D01*
X296233333Y-197128571D01*
X296233333Y-197319047D01*
X296280952Y-197414285D01*
X296328571Y-197461904D01*
X296423809Y-197509523D01*
X296852380Y-54938095D02*
X295852380Y-54938095D01*
X295852380Y-54700000D01*
X295900000Y-54557142D01*
X295995238Y-54461904D01*
X296090476Y-54414285D01*
X296280952Y-54366666D01*
X296423809Y-54366666D01*
X296614285Y-54414285D01*
X296709523Y-54461904D01*
X296804761Y-54557142D01*
X296852380Y-54700000D01*
X296852380Y-54938095D01*
X295947619Y-53985714D02*
X295900000Y-53938095D01*
X295852380Y-53842857D01*
X295852380Y-53604761D01*
X295900000Y-53509523D01*
X295947619Y-53461904D01*
X296042857Y-53414285D01*
X296138095Y-53414285D01*
X296280952Y-53461904D01*
X296852380Y-54033333D01*
X296852380Y-53414285D01*
X296852380Y-193414285D02*
X295852380Y-193414285D01*
X295852380Y-193176190D01*
X295900000Y-193033333D01*
X295995238Y-192938095D01*
X296090476Y-192890476D01*
X296280952Y-192842857D01*
X296423809Y-192842857D01*
X296614285Y-192890476D01*
X296709523Y-192938095D01*
X296804761Y-193033333D01*
X296852380Y-193176190D01*
X296852380Y-193414285D01*
X295947619Y-192461904D02*
X295900000Y-192414285D01*
X295852380Y-192319047D01*
X295852380Y-192080952D01*
X295900000Y-191985714D01*
X295947619Y-191938095D01*
X296042857Y-191890476D01*
X296138095Y-191890476D01*
X296280952Y-191938095D01*
X296852380Y-192509523D01*
X296852380Y-191890476D01*
X295852380Y-190985714D02*
X295852380Y-191461904D01*
X296328571Y-191509523D01*
X296280952Y-191461904D01*
X296233333Y-191366666D01*
X296233333Y-191128571D01*
X296280952Y-191033333D01*
X296328571Y-190985714D01*
X296423809Y-190938095D01*
X296661904Y-190938095D01*
X296757142Y-190985714D01*
X296804761Y-191033333D01*
X296852380Y-191128571D01*
X296852380Y-191366666D01*
X296804761Y-191461904D01*
X296757142Y-191509523D01*
X296852380Y-60938095D02*
X295852380Y-60938095D01*
X295852380Y-60700000D01*
X295900000Y-60557142D01*
X295995238Y-60461904D01*
X296090476Y-60414285D01*
X296280952Y-60366666D01*
X296423809Y-60366666D01*
X296614285Y-60414285D01*
X296709523Y-60461904D01*
X296804761Y-60557142D01*
X296852380Y-60700000D01*
X296852380Y-60938095D01*
X295852380Y-60033333D02*
X295852380Y-59414285D01*
X296233333Y-59747619D01*
X296233333Y-59604761D01*
X296280952Y-59509523D01*
X296328571Y-59461904D01*
X296423809Y-59414285D01*
X296661904Y-59414285D01*
X296757142Y-59461904D01*
X296804761Y-59509523D01*
X296852380Y-59604761D01*
X296852380Y-59890476D01*
X296804761Y-59985714D01*
X296757142Y-60033333D01*
X296852380Y-187414285D02*
X295852380Y-187414285D01*
X295852380Y-187176190D01*
X295900000Y-187033333D01*
X295995238Y-186938095D01*
X296090476Y-186890476D01*
X296280952Y-186842857D01*
X296423809Y-186842857D01*
X296614285Y-186890476D01*
X296709523Y-186938095D01*
X296804761Y-187033333D01*
X296852380Y-187176190D01*
X296852380Y-187414285D01*
X295947619Y-186461904D02*
X295900000Y-186414285D01*
X295852380Y-186319047D01*
X295852380Y-186080952D01*
X295900000Y-185985714D01*
X295947619Y-185938095D01*
X296042857Y-185890476D01*
X296138095Y-185890476D01*
X296280952Y-185938095D01*
X296852380Y-186509523D01*
X296852380Y-185890476D01*
X296185714Y-185033333D02*
X296852380Y-185033333D01*
X295804761Y-185271428D02*
X296519047Y-185509523D01*
X296519047Y-184890476D01*
X306538095Y-205052380D02*
X306538095Y-205861904D01*
X306585714Y-205957142D01*
X306633333Y-206004761D01*
X306728571Y-206052380D01*
X306919047Y-206052380D01*
X307014285Y-206004761D01*
X307061904Y-205957142D01*
X307109523Y-205861904D01*
X307109523Y-205052380D01*
X308109523Y-206052380D02*
X307538095Y-206052380D01*
X307823809Y-206052380D02*
X307823809Y-205052380D01*
X307728571Y-205195238D01*
X307633333Y-205290476D01*
X307538095Y-205338095D01*
M02*
