G04 #@! TF.GenerationSoftware,KiCad,Pcbnew,(5.1.4)-1*
G04 #@! TF.CreationDate,2019-09-16T17:16:43+02:00*
G04 #@! TF.ProjectId,LED_Leiste,4c45445f-4c65-4697-9374-652e6b696361,rev?*
G04 #@! TF.SameCoordinates,Original*
G04 #@! TF.FileFunction,Soldermask,Bot*
G04 #@! TF.FilePolarity,Negative*
%FSLAX46Y46*%
G04 Gerber Fmt 4.6, Leading zero omitted, Abs format (unit mm)*
G04 Created by KiCad (PCBNEW (5.1.4)-1) date 2019-09-16 17:16:43*
%MOMM*%
%LPD*%
G04 APERTURE LIST*
%ADD10C,0.100000*%
G04 APERTURE END LIST*
D10*
G36*
X299036564Y-203379389D02*
G01*
X299227833Y-203458615D01*
X299227835Y-203458616D01*
X299305649Y-203510610D01*
X299399973Y-203573635D01*
X299546365Y-203720027D01*
X299661385Y-203892167D01*
X299740611Y-204083436D01*
X299781000Y-204286484D01*
X299781000Y-204493516D01*
X299740611Y-204696564D01*
X299661385Y-204887833D01*
X299661384Y-204887835D01*
X299546365Y-205059973D01*
X299399973Y-205206365D01*
X299227835Y-205321384D01*
X299227834Y-205321385D01*
X299227833Y-205321385D01*
X299036564Y-205400611D01*
X298833516Y-205441000D01*
X298626484Y-205441000D01*
X298423436Y-205400611D01*
X298232167Y-205321385D01*
X298232166Y-205321385D01*
X298232165Y-205321384D01*
X298060027Y-205206365D01*
X297913635Y-205059973D01*
X297798616Y-204887835D01*
X297798615Y-204887833D01*
X297719389Y-204696564D01*
X297679000Y-204493516D01*
X297679000Y-204286484D01*
X297719389Y-204083436D01*
X297798615Y-203892167D01*
X297913635Y-203720027D01*
X298060027Y-203573635D01*
X298154351Y-203510610D01*
X298232165Y-203458616D01*
X298232167Y-203458615D01*
X298423436Y-203379389D01*
X298626484Y-203339000D01*
X298833516Y-203339000D01*
X299036564Y-203379389D01*
X299036564Y-203379389D01*
G37*
G36*
X301576564Y-203379389D02*
G01*
X301767833Y-203458615D01*
X301767835Y-203458616D01*
X301845649Y-203510610D01*
X301939973Y-203573635D01*
X302086365Y-203720027D01*
X302201385Y-203892167D01*
X302280611Y-204083436D01*
X302321000Y-204286484D01*
X302321000Y-204493516D01*
X302280611Y-204696564D01*
X302201385Y-204887833D01*
X302201384Y-204887835D01*
X302086365Y-205059973D01*
X301939973Y-205206365D01*
X301767835Y-205321384D01*
X301767834Y-205321385D01*
X301767833Y-205321385D01*
X301576564Y-205400611D01*
X301373516Y-205441000D01*
X301166484Y-205441000D01*
X300963436Y-205400611D01*
X300772167Y-205321385D01*
X300772166Y-205321385D01*
X300772165Y-205321384D01*
X300600027Y-205206365D01*
X300453635Y-205059973D01*
X300338616Y-204887835D01*
X300338615Y-204887833D01*
X300259389Y-204696564D01*
X300219000Y-204493516D01*
X300219000Y-204286484D01*
X300259389Y-204083436D01*
X300338615Y-203892167D01*
X300453635Y-203720027D01*
X300600027Y-203573635D01*
X300694351Y-203510610D01*
X300772165Y-203458616D01*
X300772167Y-203458615D01*
X300963436Y-203379389D01*
X301166484Y-203339000D01*
X301373516Y-203339000D01*
X301576564Y-203379389D01*
X301576564Y-203379389D01*
G37*
G36*
X304116564Y-203379389D02*
G01*
X304307833Y-203458615D01*
X304307835Y-203458616D01*
X304385649Y-203510610D01*
X304479973Y-203573635D01*
X304626365Y-203720027D01*
X304741385Y-203892167D01*
X304820611Y-204083436D01*
X304861000Y-204286484D01*
X304861000Y-204493516D01*
X304820611Y-204696564D01*
X304741385Y-204887833D01*
X304741384Y-204887835D01*
X304626365Y-205059973D01*
X304479973Y-205206365D01*
X304307835Y-205321384D01*
X304307834Y-205321385D01*
X304307833Y-205321385D01*
X304116564Y-205400611D01*
X303913516Y-205441000D01*
X303706484Y-205441000D01*
X303503436Y-205400611D01*
X303312167Y-205321385D01*
X303312166Y-205321385D01*
X303312165Y-205321384D01*
X303140027Y-205206365D01*
X302993635Y-205059973D01*
X302878616Y-204887835D01*
X302878615Y-204887833D01*
X302799389Y-204696564D01*
X302759000Y-204493516D01*
X302759000Y-204286484D01*
X302799389Y-204083436D01*
X302878615Y-203892167D01*
X302993635Y-203720027D01*
X303140027Y-203573635D01*
X303234351Y-203510610D01*
X303312165Y-203458616D01*
X303312167Y-203458615D01*
X303503436Y-203379389D01*
X303706484Y-203339000D01*
X303913516Y-203339000D01*
X304116564Y-203379389D01*
X304116564Y-203379389D01*
G37*
G36*
X296496564Y-203379389D02*
G01*
X296687833Y-203458615D01*
X296687835Y-203458616D01*
X296765649Y-203510610D01*
X296859973Y-203573635D01*
X297006365Y-203720027D01*
X297121385Y-203892167D01*
X297200611Y-204083436D01*
X297241000Y-204286484D01*
X297241000Y-204493516D01*
X297200611Y-204696564D01*
X297121385Y-204887833D01*
X297121384Y-204887835D01*
X297006365Y-205059973D01*
X296859973Y-205206365D01*
X296687835Y-205321384D01*
X296687834Y-205321385D01*
X296687833Y-205321385D01*
X296496564Y-205400611D01*
X296293516Y-205441000D01*
X296086484Y-205441000D01*
X295883436Y-205400611D01*
X295692167Y-205321385D01*
X295692166Y-205321385D01*
X295692165Y-205321384D01*
X295520027Y-205206365D01*
X295373635Y-205059973D01*
X295258616Y-204887835D01*
X295258615Y-204887833D01*
X295179389Y-204696564D01*
X295139000Y-204493516D01*
X295139000Y-204286484D01*
X295179389Y-204083436D01*
X295258615Y-203892167D01*
X295373635Y-203720027D01*
X295520027Y-203573635D01*
X295614351Y-203510610D01*
X295692165Y-203458616D01*
X295692167Y-203458615D01*
X295883436Y-203379389D01*
X296086484Y-203339000D01*
X296293516Y-203339000D01*
X296496564Y-203379389D01*
X296496564Y-203379389D01*
G37*
G36*
X307146564Y-201489389D02*
G01*
X307337833Y-201568615D01*
X307337835Y-201568616D01*
X307509973Y-201683635D01*
X307656365Y-201830027D01*
X307771385Y-202002167D01*
X307850611Y-202193436D01*
X307891000Y-202396484D01*
X307891000Y-202603516D01*
X307850611Y-202806564D01*
X307771385Y-202997833D01*
X307771384Y-202997835D01*
X307656365Y-203169973D01*
X307509973Y-203316365D01*
X307337835Y-203431384D01*
X307337834Y-203431385D01*
X307337833Y-203431385D01*
X307146564Y-203510611D01*
X306943516Y-203551000D01*
X306736484Y-203551000D01*
X306533436Y-203510611D01*
X306342167Y-203431385D01*
X306342166Y-203431385D01*
X306342165Y-203431384D01*
X306170027Y-203316365D01*
X306023635Y-203169973D01*
X305908616Y-202997835D01*
X305908615Y-202997833D01*
X305829389Y-202806564D01*
X305789000Y-202603516D01*
X305789000Y-202396484D01*
X305829389Y-202193436D01*
X305908615Y-202002167D01*
X306023635Y-201830027D01*
X306170027Y-201683635D01*
X306342165Y-201568616D01*
X306342167Y-201568615D01*
X306533436Y-201489389D01*
X306736484Y-201449000D01*
X306943516Y-201449000D01*
X307146564Y-201489389D01*
X307146564Y-201489389D01*
G37*
G36*
X293196564Y-201489389D02*
G01*
X293387833Y-201568615D01*
X293387835Y-201568616D01*
X293559973Y-201683635D01*
X293706365Y-201830027D01*
X293821385Y-202002167D01*
X293900611Y-202193436D01*
X293941000Y-202396484D01*
X293941000Y-202603516D01*
X293900611Y-202806564D01*
X293821385Y-202997833D01*
X293821384Y-202997835D01*
X293706365Y-203169973D01*
X293559973Y-203316365D01*
X293387835Y-203431384D01*
X293387834Y-203431385D01*
X293387833Y-203431385D01*
X293196564Y-203510611D01*
X292993516Y-203551000D01*
X292786484Y-203551000D01*
X292583436Y-203510611D01*
X292392167Y-203431385D01*
X292392166Y-203431385D01*
X292392165Y-203431384D01*
X292220027Y-203316365D01*
X292073635Y-203169973D01*
X291958616Y-202997835D01*
X291958615Y-202997833D01*
X291879389Y-202806564D01*
X291839000Y-202603516D01*
X291839000Y-202396484D01*
X291879389Y-202193436D01*
X291958615Y-202002167D01*
X292073635Y-201830027D01*
X292220027Y-201683635D01*
X292392165Y-201568616D01*
X292392167Y-201568615D01*
X292583436Y-201489389D01*
X292786484Y-201449000D01*
X292993516Y-201449000D01*
X293196564Y-201489389D01*
X293196564Y-201489389D01*
G37*
G36*
X293196564Y-198949389D02*
G01*
X293387833Y-199028615D01*
X293387835Y-199028616D01*
X293559973Y-199143635D01*
X293706365Y-199290027D01*
X293821385Y-199462167D01*
X293900611Y-199653436D01*
X293941000Y-199856484D01*
X293941000Y-200063516D01*
X293900611Y-200266564D01*
X293821385Y-200457833D01*
X293821384Y-200457835D01*
X293706365Y-200629973D01*
X293559973Y-200776365D01*
X293387835Y-200891384D01*
X293387834Y-200891385D01*
X293387833Y-200891385D01*
X293196564Y-200970611D01*
X292993516Y-201011000D01*
X292786484Y-201011000D01*
X292583436Y-200970611D01*
X292392167Y-200891385D01*
X292392166Y-200891385D01*
X292392165Y-200891384D01*
X292220027Y-200776365D01*
X292073635Y-200629973D01*
X291958616Y-200457835D01*
X291958615Y-200457833D01*
X291879389Y-200266564D01*
X291839000Y-200063516D01*
X291839000Y-199856484D01*
X291879389Y-199653436D01*
X291958615Y-199462167D01*
X292073635Y-199290027D01*
X292220027Y-199143635D01*
X292392165Y-199028616D01*
X292392167Y-199028615D01*
X292583436Y-198949389D01*
X292786484Y-198909000D01*
X292993516Y-198909000D01*
X293196564Y-198949389D01*
X293196564Y-198949389D01*
G37*
G36*
X307146564Y-198949389D02*
G01*
X307337833Y-199028615D01*
X307337835Y-199028616D01*
X307509973Y-199143635D01*
X307656365Y-199290027D01*
X307771385Y-199462167D01*
X307850611Y-199653436D01*
X307891000Y-199856484D01*
X307891000Y-200063516D01*
X307850611Y-200266564D01*
X307771385Y-200457833D01*
X307771384Y-200457835D01*
X307656365Y-200629973D01*
X307509973Y-200776365D01*
X307337835Y-200891384D01*
X307337834Y-200891385D01*
X307337833Y-200891385D01*
X307146564Y-200970611D01*
X306943516Y-201011000D01*
X306736484Y-201011000D01*
X306533436Y-200970611D01*
X306342167Y-200891385D01*
X306342166Y-200891385D01*
X306342165Y-200891384D01*
X306170027Y-200776365D01*
X306023635Y-200629973D01*
X305908616Y-200457835D01*
X305908615Y-200457833D01*
X305829389Y-200266564D01*
X305789000Y-200063516D01*
X305789000Y-199856484D01*
X305829389Y-199653436D01*
X305908615Y-199462167D01*
X306023635Y-199290027D01*
X306170027Y-199143635D01*
X306342165Y-199028616D01*
X306342167Y-199028615D01*
X306533436Y-198949389D01*
X306736484Y-198909000D01*
X306943516Y-198909000D01*
X307146564Y-198949389D01*
X307146564Y-198949389D01*
G37*
G36*
X293196564Y-196409389D02*
G01*
X293387833Y-196488615D01*
X293387835Y-196488616D01*
X293559973Y-196603635D01*
X293706365Y-196750027D01*
X293821385Y-196922167D01*
X293900611Y-197113436D01*
X293941000Y-197316484D01*
X293941000Y-197523516D01*
X293900611Y-197726564D01*
X293821385Y-197917833D01*
X293821384Y-197917835D01*
X293706365Y-198089973D01*
X293559973Y-198236365D01*
X293387835Y-198351384D01*
X293387834Y-198351385D01*
X293387833Y-198351385D01*
X293196564Y-198430611D01*
X292993516Y-198471000D01*
X292786484Y-198471000D01*
X292583436Y-198430611D01*
X292392167Y-198351385D01*
X292392166Y-198351385D01*
X292392165Y-198351384D01*
X292220027Y-198236365D01*
X292073635Y-198089973D01*
X291958616Y-197917835D01*
X291958615Y-197917833D01*
X291879389Y-197726564D01*
X291839000Y-197523516D01*
X291839000Y-197316484D01*
X291879389Y-197113436D01*
X291958615Y-196922167D01*
X292073635Y-196750027D01*
X292220027Y-196603635D01*
X292392165Y-196488616D01*
X292392167Y-196488615D01*
X292583436Y-196409389D01*
X292786484Y-196369000D01*
X292993516Y-196369000D01*
X293196564Y-196409389D01*
X293196564Y-196409389D01*
G37*
G36*
X307146564Y-196409389D02*
G01*
X307337833Y-196488615D01*
X307337835Y-196488616D01*
X307509973Y-196603635D01*
X307656365Y-196750027D01*
X307771385Y-196922167D01*
X307850611Y-197113436D01*
X307891000Y-197316484D01*
X307891000Y-197523516D01*
X307850611Y-197726564D01*
X307771385Y-197917833D01*
X307771384Y-197917835D01*
X307656365Y-198089973D01*
X307509973Y-198236365D01*
X307337835Y-198351384D01*
X307337834Y-198351385D01*
X307337833Y-198351385D01*
X307146564Y-198430611D01*
X306943516Y-198471000D01*
X306736484Y-198471000D01*
X306533436Y-198430611D01*
X306342167Y-198351385D01*
X306342166Y-198351385D01*
X306342165Y-198351384D01*
X306170027Y-198236365D01*
X306023635Y-198089973D01*
X305908616Y-197917835D01*
X305908615Y-197917833D01*
X305829389Y-197726564D01*
X305789000Y-197523516D01*
X305789000Y-197316484D01*
X305829389Y-197113436D01*
X305908615Y-196922167D01*
X306023635Y-196750027D01*
X306170027Y-196603635D01*
X306342165Y-196488616D01*
X306342167Y-196488615D01*
X306533436Y-196409389D01*
X306736484Y-196369000D01*
X306943516Y-196369000D01*
X307146564Y-196409389D01*
X307146564Y-196409389D01*
G37*
G36*
X307146564Y-193869389D02*
G01*
X307337833Y-193948615D01*
X307337835Y-193948616D01*
X307509973Y-194063635D01*
X307656365Y-194210027D01*
X307771385Y-194382167D01*
X307850611Y-194573436D01*
X307891000Y-194776484D01*
X307891000Y-194983516D01*
X307850611Y-195186564D01*
X307771385Y-195377833D01*
X307771384Y-195377835D01*
X307656365Y-195549973D01*
X307509973Y-195696365D01*
X307337835Y-195811384D01*
X307337834Y-195811385D01*
X307337833Y-195811385D01*
X307146564Y-195890611D01*
X306943516Y-195931000D01*
X306736484Y-195931000D01*
X306533436Y-195890611D01*
X306342167Y-195811385D01*
X306342166Y-195811385D01*
X306342165Y-195811384D01*
X306170027Y-195696365D01*
X306023635Y-195549973D01*
X305908616Y-195377835D01*
X305908615Y-195377833D01*
X305829389Y-195186564D01*
X305789000Y-194983516D01*
X305789000Y-194776484D01*
X305829389Y-194573436D01*
X305908615Y-194382167D01*
X306023635Y-194210027D01*
X306170027Y-194063635D01*
X306342165Y-193948616D01*
X306342167Y-193948615D01*
X306533436Y-193869389D01*
X306736484Y-193829000D01*
X306943516Y-193829000D01*
X307146564Y-193869389D01*
X307146564Y-193869389D01*
G37*
G36*
X293196564Y-193869389D02*
G01*
X293387833Y-193948615D01*
X293387835Y-193948616D01*
X293559973Y-194063635D01*
X293706365Y-194210027D01*
X293821385Y-194382167D01*
X293900611Y-194573436D01*
X293941000Y-194776484D01*
X293941000Y-194983516D01*
X293900611Y-195186564D01*
X293821385Y-195377833D01*
X293821384Y-195377835D01*
X293706365Y-195549973D01*
X293559973Y-195696365D01*
X293387835Y-195811384D01*
X293387834Y-195811385D01*
X293387833Y-195811385D01*
X293196564Y-195890611D01*
X292993516Y-195931000D01*
X292786484Y-195931000D01*
X292583436Y-195890611D01*
X292392167Y-195811385D01*
X292392166Y-195811385D01*
X292392165Y-195811384D01*
X292220027Y-195696365D01*
X292073635Y-195549973D01*
X291958616Y-195377835D01*
X291958615Y-195377833D01*
X291879389Y-195186564D01*
X291839000Y-194983516D01*
X291839000Y-194776484D01*
X291879389Y-194573436D01*
X291958615Y-194382167D01*
X292073635Y-194210027D01*
X292220027Y-194063635D01*
X292392165Y-193948616D01*
X292392167Y-193948615D01*
X292583436Y-193869389D01*
X292786484Y-193829000D01*
X292993516Y-193829000D01*
X293196564Y-193869389D01*
X293196564Y-193869389D01*
G37*
G36*
X291496162Y-188364368D02*
G01*
X291805724Y-188492593D01*
X291805725Y-188492594D01*
X292084324Y-188678747D01*
X292321253Y-188915676D01*
X292445637Y-189101830D01*
X292507407Y-189194276D01*
X292635632Y-189503838D01*
X292701000Y-189832465D01*
X292701000Y-190167535D01*
X292635632Y-190496162D01*
X292507407Y-190805724D01*
X292507406Y-190805725D01*
X292321253Y-191084324D01*
X292084324Y-191321253D01*
X291898170Y-191445637D01*
X291805724Y-191507407D01*
X291496162Y-191635632D01*
X291167535Y-191701000D01*
X290832465Y-191701000D01*
X290503838Y-191635632D01*
X290194276Y-191507407D01*
X290101830Y-191445637D01*
X289915676Y-191321253D01*
X289678747Y-191084324D01*
X289492594Y-190805725D01*
X289492593Y-190805724D01*
X289364368Y-190496162D01*
X289299000Y-190167535D01*
X289299000Y-189832465D01*
X289364368Y-189503838D01*
X289492593Y-189194276D01*
X289554363Y-189101830D01*
X289678747Y-188915676D01*
X289915676Y-188678747D01*
X290194275Y-188492594D01*
X290194276Y-188492593D01*
X290503838Y-188364368D01*
X290832465Y-188299000D01*
X291167535Y-188299000D01*
X291496162Y-188364368D01*
X291496162Y-188364368D01*
G37*
G36*
X309496162Y-188364368D02*
G01*
X309805724Y-188492593D01*
X309805725Y-188492594D01*
X310084324Y-188678747D01*
X310321253Y-188915676D01*
X310445637Y-189101830D01*
X310507407Y-189194276D01*
X310635632Y-189503838D01*
X310701000Y-189832465D01*
X310701000Y-190167535D01*
X310635632Y-190496162D01*
X310507407Y-190805724D01*
X310507406Y-190805725D01*
X310321253Y-191084324D01*
X310084324Y-191321253D01*
X309898170Y-191445637D01*
X309805724Y-191507407D01*
X309496162Y-191635632D01*
X309167535Y-191701000D01*
X308832465Y-191701000D01*
X308503838Y-191635632D01*
X308194276Y-191507407D01*
X308101830Y-191445637D01*
X307915676Y-191321253D01*
X307678747Y-191084324D01*
X307492594Y-190805725D01*
X307492593Y-190805724D01*
X307364368Y-190496162D01*
X307299000Y-190167535D01*
X307299000Y-189832465D01*
X307364368Y-189503838D01*
X307492593Y-189194276D01*
X307554363Y-189101830D01*
X307678747Y-188915676D01*
X307915676Y-188678747D01*
X308194275Y-188492594D01*
X308194276Y-188492593D01*
X308503838Y-188364368D01*
X308832465Y-188299000D01*
X309167535Y-188299000D01*
X309496162Y-188364368D01*
X309496162Y-188364368D01*
G37*
G36*
X302488674Y-182453465D02*
G01*
X302526367Y-182464899D01*
X302561103Y-182483466D01*
X302591548Y-182508452D01*
X302616534Y-182538897D01*
X302635101Y-182573633D01*
X302646535Y-182611326D01*
X302651000Y-182656661D01*
X302651000Y-183743339D01*
X302646535Y-183788674D01*
X302635101Y-183826367D01*
X302616534Y-183861103D01*
X302591548Y-183891548D01*
X302561103Y-183916534D01*
X302526367Y-183935101D01*
X302488674Y-183946535D01*
X302443339Y-183951000D01*
X301606661Y-183951000D01*
X301561326Y-183946535D01*
X301523633Y-183935101D01*
X301488897Y-183916534D01*
X301458452Y-183891548D01*
X301433466Y-183861103D01*
X301414899Y-183826367D01*
X301403465Y-183788674D01*
X301399000Y-183743339D01*
X301399000Y-182656661D01*
X301403465Y-182611326D01*
X301414899Y-182573633D01*
X301433466Y-182538897D01*
X301458452Y-182508452D01*
X301488897Y-182483466D01*
X301523633Y-182464899D01*
X301561326Y-182453465D01*
X301606661Y-182449000D01*
X302443339Y-182449000D01*
X302488674Y-182453465D01*
X302488674Y-182453465D01*
G37*
G36*
X300438674Y-182453465D02*
G01*
X300476367Y-182464899D01*
X300511103Y-182483466D01*
X300541548Y-182508452D01*
X300566534Y-182538897D01*
X300585101Y-182573633D01*
X300596535Y-182611326D01*
X300601000Y-182656661D01*
X300601000Y-183743339D01*
X300596535Y-183788674D01*
X300585101Y-183826367D01*
X300566534Y-183861103D01*
X300541548Y-183891548D01*
X300511103Y-183916534D01*
X300476367Y-183935101D01*
X300438674Y-183946535D01*
X300393339Y-183951000D01*
X299556661Y-183951000D01*
X299511326Y-183946535D01*
X299473633Y-183935101D01*
X299438897Y-183916534D01*
X299408452Y-183891548D01*
X299383466Y-183861103D01*
X299364899Y-183826367D01*
X299353465Y-183788674D01*
X299349000Y-183743339D01*
X299349000Y-182656661D01*
X299353465Y-182611326D01*
X299364899Y-182573633D01*
X299383466Y-182538897D01*
X299408452Y-182508452D01*
X299438897Y-182483466D01*
X299473633Y-182464899D01*
X299511326Y-182453465D01*
X299556661Y-182449000D01*
X300393339Y-182449000D01*
X300438674Y-182453465D01*
X300438674Y-182453465D01*
G37*
G36*
X302488674Y-170453465D02*
G01*
X302526367Y-170464899D01*
X302561103Y-170483466D01*
X302591548Y-170508452D01*
X302616534Y-170538897D01*
X302635101Y-170573633D01*
X302646535Y-170611326D01*
X302651000Y-170656661D01*
X302651000Y-171743339D01*
X302646535Y-171788674D01*
X302635101Y-171826367D01*
X302616534Y-171861103D01*
X302591548Y-171891548D01*
X302561103Y-171916534D01*
X302526367Y-171935101D01*
X302488674Y-171946535D01*
X302443339Y-171951000D01*
X301606661Y-171951000D01*
X301561326Y-171946535D01*
X301523633Y-171935101D01*
X301488897Y-171916534D01*
X301458452Y-171891548D01*
X301433466Y-171861103D01*
X301414899Y-171826367D01*
X301403465Y-171788674D01*
X301399000Y-171743339D01*
X301399000Y-170656661D01*
X301403465Y-170611326D01*
X301414899Y-170573633D01*
X301433466Y-170538897D01*
X301458452Y-170508452D01*
X301488897Y-170483466D01*
X301523633Y-170464899D01*
X301561326Y-170453465D01*
X301606661Y-170449000D01*
X302443339Y-170449000D01*
X302488674Y-170453465D01*
X302488674Y-170453465D01*
G37*
G36*
X300438674Y-170453465D02*
G01*
X300476367Y-170464899D01*
X300511103Y-170483466D01*
X300541548Y-170508452D01*
X300566534Y-170538897D01*
X300585101Y-170573633D01*
X300596535Y-170611326D01*
X300601000Y-170656661D01*
X300601000Y-171743339D01*
X300596535Y-171788674D01*
X300585101Y-171826367D01*
X300566534Y-171861103D01*
X300541548Y-171891548D01*
X300511103Y-171916534D01*
X300476367Y-171935101D01*
X300438674Y-171946535D01*
X300393339Y-171951000D01*
X299556661Y-171951000D01*
X299511326Y-171946535D01*
X299473633Y-171935101D01*
X299438897Y-171916534D01*
X299408452Y-171891548D01*
X299383466Y-171861103D01*
X299364899Y-171826367D01*
X299353465Y-171788674D01*
X299349000Y-171743339D01*
X299349000Y-170656661D01*
X299353465Y-170611326D01*
X299364899Y-170573633D01*
X299383466Y-170538897D01*
X299408452Y-170508452D01*
X299438897Y-170483466D01*
X299473633Y-170464899D01*
X299511326Y-170453465D01*
X299556661Y-170449000D01*
X300393339Y-170449000D01*
X300438674Y-170453465D01*
X300438674Y-170453465D01*
G37*
G36*
X302488674Y-158453465D02*
G01*
X302526367Y-158464899D01*
X302561103Y-158483466D01*
X302591548Y-158508452D01*
X302616534Y-158538897D01*
X302635101Y-158573633D01*
X302646535Y-158611326D01*
X302651000Y-158656661D01*
X302651000Y-159743339D01*
X302646535Y-159788674D01*
X302635101Y-159826367D01*
X302616534Y-159861103D01*
X302591548Y-159891548D01*
X302561103Y-159916534D01*
X302526367Y-159935101D01*
X302488674Y-159946535D01*
X302443339Y-159951000D01*
X301606661Y-159951000D01*
X301561326Y-159946535D01*
X301523633Y-159935101D01*
X301488897Y-159916534D01*
X301458452Y-159891548D01*
X301433466Y-159861103D01*
X301414899Y-159826367D01*
X301403465Y-159788674D01*
X301399000Y-159743339D01*
X301399000Y-158656661D01*
X301403465Y-158611326D01*
X301414899Y-158573633D01*
X301433466Y-158538897D01*
X301458452Y-158508452D01*
X301488897Y-158483466D01*
X301523633Y-158464899D01*
X301561326Y-158453465D01*
X301606661Y-158449000D01*
X302443339Y-158449000D01*
X302488674Y-158453465D01*
X302488674Y-158453465D01*
G37*
G36*
X300438674Y-158453465D02*
G01*
X300476367Y-158464899D01*
X300511103Y-158483466D01*
X300541548Y-158508452D01*
X300566534Y-158538897D01*
X300585101Y-158573633D01*
X300596535Y-158611326D01*
X300601000Y-158656661D01*
X300601000Y-159743339D01*
X300596535Y-159788674D01*
X300585101Y-159826367D01*
X300566534Y-159861103D01*
X300541548Y-159891548D01*
X300511103Y-159916534D01*
X300476367Y-159935101D01*
X300438674Y-159946535D01*
X300393339Y-159951000D01*
X299556661Y-159951000D01*
X299511326Y-159946535D01*
X299473633Y-159935101D01*
X299438897Y-159916534D01*
X299408452Y-159891548D01*
X299383466Y-159861103D01*
X299364899Y-159826367D01*
X299353465Y-159788674D01*
X299349000Y-159743339D01*
X299349000Y-158656661D01*
X299353465Y-158611326D01*
X299364899Y-158573633D01*
X299383466Y-158538897D01*
X299408452Y-158508452D01*
X299438897Y-158483466D01*
X299473633Y-158464899D01*
X299511326Y-158453465D01*
X299556661Y-158449000D01*
X300393339Y-158449000D01*
X300438674Y-158453465D01*
X300438674Y-158453465D01*
G37*
G36*
X302463674Y-146453465D02*
G01*
X302501367Y-146464899D01*
X302536103Y-146483466D01*
X302566548Y-146508452D01*
X302591534Y-146538897D01*
X302610101Y-146573633D01*
X302621535Y-146611326D01*
X302626000Y-146656661D01*
X302626000Y-147743339D01*
X302621535Y-147788674D01*
X302610101Y-147826367D01*
X302591534Y-147861103D01*
X302566548Y-147891548D01*
X302536103Y-147916534D01*
X302501367Y-147935101D01*
X302463674Y-147946535D01*
X302418339Y-147951000D01*
X301581661Y-147951000D01*
X301536326Y-147946535D01*
X301498633Y-147935101D01*
X301463897Y-147916534D01*
X301433452Y-147891548D01*
X301408466Y-147861103D01*
X301389899Y-147826367D01*
X301378465Y-147788674D01*
X301374000Y-147743339D01*
X301374000Y-146656661D01*
X301378465Y-146611326D01*
X301389899Y-146573633D01*
X301408466Y-146538897D01*
X301433452Y-146508452D01*
X301463897Y-146483466D01*
X301498633Y-146464899D01*
X301536326Y-146453465D01*
X301581661Y-146449000D01*
X302418339Y-146449000D01*
X302463674Y-146453465D01*
X302463674Y-146453465D01*
G37*
G36*
X300413674Y-146453465D02*
G01*
X300451367Y-146464899D01*
X300486103Y-146483466D01*
X300516548Y-146508452D01*
X300541534Y-146538897D01*
X300560101Y-146573633D01*
X300571535Y-146611326D01*
X300576000Y-146656661D01*
X300576000Y-147743339D01*
X300571535Y-147788674D01*
X300560101Y-147826367D01*
X300541534Y-147861103D01*
X300516548Y-147891548D01*
X300486103Y-147916534D01*
X300451367Y-147935101D01*
X300413674Y-147946535D01*
X300368339Y-147951000D01*
X299531661Y-147951000D01*
X299486326Y-147946535D01*
X299448633Y-147935101D01*
X299413897Y-147916534D01*
X299383452Y-147891548D01*
X299358466Y-147861103D01*
X299339899Y-147826367D01*
X299328465Y-147788674D01*
X299324000Y-147743339D01*
X299324000Y-146656661D01*
X299328465Y-146611326D01*
X299339899Y-146573633D01*
X299358466Y-146538897D01*
X299383452Y-146508452D01*
X299413897Y-146483466D01*
X299448633Y-146464899D01*
X299486326Y-146453465D01*
X299531661Y-146449000D01*
X300368339Y-146449000D01*
X300413674Y-146453465D01*
X300413674Y-146453465D01*
G37*
G36*
X302463674Y-134453465D02*
G01*
X302501367Y-134464899D01*
X302536103Y-134483466D01*
X302566548Y-134508452D01*
X302591534Y-134538897D01*
X302610101Y-134573633D01*
X302621535Y-134611326D01*
X302626000Y-134656661D01*
X302626000Y-135743339D01*
X302621535Y-135788674D01*
X302610101Y-135826367D01*
X302591534Y-135861103D01*
X302566548Y-135891548D01*
X302536103Y-135916534D01*
X302501367Y-135935101D01*
X302463674Y-135946535D01*
X302418339Y-135951000D01*
X301581661Y-135951000D01*
X301536326Y-135946535D01*
X301498633Y-135935101D01*
X301463897Y-135916534D01*
X301433452Y-135891548D01*
X301408466Y-135861103D01*
X301389899Y-135826367D01*
X301378465Y-135788674D01*
X301374000Y-135743339D01*
X301374000Y-134656661D01*
X301378465Y-134611326D01*
X301389899Y-134573633D01*
X301408466Y-134538897D01*
X301433452Y-134508452D01*
X301463897Y-134483466D01*
X301498633Y-134464899D01*
X301536326Y-134453465D01*
X301581661Y-134449000D01*
X302418339Y-134449000D01*
X302463674Y-134453465D01*
X302463674Y-134453465D01*
G37*
G36*
X300413674Y-134453465D02*
G01*
X300451367Y-134464899D01*
X300486103Y-134483466D01*
X300516548Y-134508452D01*
X300541534Y-134538897D01*
X300560101Y-134573633D01*
X300571535Y-134611326D01*
X300576000Y-134656661D01*
X300576000Y-135743339D01*
X300571535Y-135788674D01*
X300560101Y-135826367D01*
X300541534Y-135861103D01*
X300516548Y-135891548D01*
X300486103Y-135916534D01*
X300451367Y-135935101D01*
X300413674Y-135946535D01*
X300368339Y-135951000D01*
X299531661Y-135951000D01*
X299486326Y-135946535D01*
X299448633Y-135935101D01*
X299413897Y-135916534D01*
X299383452Y-135891548D01*
X299358466Y-135861103D01*
X299339899Y-135826367D01*
X299328465Y-135788674D01*
X299324000Y-135743339D01*
X299324000Y-134656661D01*
X299328465Y-134611326D01*
X299339899Y-134573633D01*
X299358466Y-134538897D01*
X299383452Y-134508452D01*
X299413897Y-134483466D01*
X299448633Y-134464899D01*
X299486326Y-134453465D01*
X299531661Y-134449000D01*
X300368339Y-134449000D01*
X300413674Y-134453465D01*
X300413674Y-134453465D01*
G37*
G36*
X300438674Y-122453465D02*
G01*
X300476367Y-122464899D01*
X300511103Y-122483466D01*
X300541548Y-122508452D01*
X300566534Y-122538897D01*
X300585101Y-122573633D01*
X300596535Y-122611326D01*
X300601000Y-122656661D01*
X300601000Y-123743339D01*
X300596535Y-123788674D01*
X300585101Y-123826367D01*
X300566534Y-123861103D01*
X300541548Y-123891548D01*
X300511103Y-123916534D01*
X300476367Y-123935101D01*
X300438674Y-123946535D01*
X300393339Y-123951000D01*
X299556661Y-123951000D01*
X299511326Y-123946535D01*
X299473633Y-123935101D01*
X299438897Y-123916534D01*
X299408452Y-123891548D01*
X299383466Y-123861103D01*
X299364899Y-123826367D01*
X299353465Y-123788674D01*
X299349000Y-123743339D01*
X299349000Y-122656661D01*
X299353465Y-122611326D01*
X299364899Y-122573633D01*
X299383466Y-122538897D01*
X299408452Y-122508452D01*
X299438897Y-122483466D01*
X299473633Y-122464899D01*
X299511326Y-122453465D01*
X299556661Y-122449000D01*
X300393339Y-122449000D01*
X300438674Y-122453465D01*
X300438674Y-122453465D01*
G37*
G36*
X302488674Y-122453465D02*
G01*
X302526367Y-122464899D01*
X302561103Y-122483466D01*
X302591548Y-122508452D01*
X302616534Y-122538897D01*
X302635101Y-122573633D01*
X302646535Y-122611326D01*
X302651000Y-122656661D01*
X302651000Y-123743339D01*
X302646535Y-123788674D01*
X302635101Y-123826367D01*
X302616534Y-123861103D01*
X302591548Y-123891548D01*
X302561103Y-123916534D01*
X302526367Y-123935101D01*
X302488674Y-123946535D01*
X302443339Y-123951000D01*
X301606661Y-123951000D01*
X301561326Y-123946535D01*
X301523633Y-123935101D01*
X301488897Y-123916534D01*
X301458452Y-123891548D01*
X301433466Y-123861103D01*
X301414899Y-123826367D01*
X301403465Y-123788674D01*
X301399000Y-123743339D01*
X301399000Y-122656661D01*
X301403465Y-122611326D01*
X301414899Y-122573633D01*
X301433466Y-122538897D01*
X301458452Y-122508452D01*
X301488897Y-122483466D01*
X301523633Y-122464899D01*
X301561326Y-122453465D01*
X301606661Y-122449000D01*
X302443339Y-122449000D01*
X302488674Y-122453465D01*
X302488674Y-122453465D01*
G37*
G36*
X300438674Y-110453465D02*
G01*
X300476367Y-110464899D01*
X300511103Y-110483466D01*
X300541548Y-110508452D01*
X300566534Y-110538897D01*
X300585101Y-110573633D01*
X300596535Y-110611326D01*
X300601000Y-110656661D01*
X300601000Y-111743339D01*
X300596535Y-111788674D01*
X300585101Y-111826367D01*
X300566534Y-111861103D01*
X300541548Y-111891548D01*
X300511103Y-111916534D01*
X300476367Y-111935101D01*
X300438674Y-111946535D01*
X300393339Y-111951000D01*
X299556661Y-111951000D01*
X299511326Y-111946535D01*
X299473633Y-111935101D01*
X299438897Y-111916534D01*
X299408452Y-111891548D01*
X299383466Y-111861103D01*
X299364899Y-111826367D01*
X299353465Y-111788674D01*
X299349000Y-111743339D01*
X299349000Y-110656661D01*
X299353465Y-110611326D01*
X299364899Y-110573633D01*
X299383466Y-110538897D01*
X299408452Y-110508452D01*
X299438897Y-110483466D01*
X299473633Y-110464899D01*
X299511326Y-110453465D01*
X299556661Y-110449000D01*
X300393339Y-110449000D01*
X300438674Y-110453465D01*
X300438674Y-110453465D01*
G37*
G36*
X302488674Y-110453465D02*
G01*
X302526367Y-110464899D01*
X302561103Y-110483466D01*
X302591548Y-110508452D01*
X302616534Y-110538897D01*
X302635101Y-110573633D01*
X302646535Y-110611326D01*
X302651000Y-110656661D01*
X302651000Y-111743339D01*
X302646535Y-111788674D01*
X302635101Y-111826367D01*
X302616534Y-111861103D01*
X302591548Y-111891548D01*
X302561103Y-111916534D01*
X302526367Y-111935101D01*
X302488674Y-111946535D01*
X302443339Y-111951000D01*
X301606661Y-111951000D01*
X301561326Y-111946535D01*
X301523633Y-111935101D01*
X301488897Y-111916534D01*
X301458452Y-111891548D01*
X301433466Y-111861103D01*
X301414899Y-111826367D01*
X301403465Y-111788674D01*
X301399000Y-111743339D01*
X301399000Y-110656661D01*
X301403465Y-110611326D01*
X301414899Y-110573633D01*
X301433466Y-110538897D01*
X301458452Y-110508452D01*
X301488897Y-110483466D01*
X301523633Y-110464899D01*
X301561326Y-110453465D01*
X301606661Y-110449000D01*
X302443339Y-110449000D01*
X302488674Y-110453465D01*
X302488674Y-110453465D01*
G37*
G36*
X302488674Y-98453465D02*
G01*
X302526367Y-98464899D01*
X302561103Y-98483466D01*
X302591548Y-98508452D01*
X302616534Y-98538897D01*
X302635101Y-98573633D01*
X302646535Y-98611326D01*
X302651000Y-98656661D01*
X302651000Y-99743339D01*
X302646535Y-99788674D01*
X302635101Y-99826367D01*
X302616534Y-99861103D01*
X302591548Y-99891548D01*
X302561103Y-99916534D01*
X302526367Y-99935101D01*
X302488674Y-99946535D01*
X302443339Y-99951000D01*
X301606661Y-99951000D01*
X301561326Y-99946535D01*
X301523633Y-99935101D01*
X301488897Y-99916534D01*
X301458452Y-99891548D01*
X301433466Y-99861103D01*
X301414899Y-99826367D01*
X301403465Y-99788674D01*
X301399000Y-99743339D01*
X301399000Y-98656661D01*
X301403465Y-98611326D01*
X301414899Y-98573633D01*
X301433466Y-98538897D01*
X301458452Y-98508452D01*
X301488897Y-98483466D01*
X301523633Y-98464899D01*
X301561326Y-98453465D01*
X301606661Y-98449000D01*
X302443339Y-98449000D01*
X302488674Y-98453465D01*
X302488674Y-98453465D01*
G37*
G36*
X300438674Y-98453465D02*
G01*
X300476367Y-98464899D01*
X300511103Y-98483466D01*
X300541548Y-98508452D01*
X300566534Y-98538897D01*
X300585101Y-98573633D01*
X300596535Y-98611326D01*
X300601000Y-98656661D01*
X300601000Y-99743339D01*
X300596535Y-99788674D01*
X300585101Y-99826367D01*
X300566534Y-99861103D01*
X300541548Y-99891548D01*
X300511103Y-99916534D01*
X300476367Y-99935101D01*
X300438674Y-99946535D01*
X300393339Y-99951000D01*
X299556661Y-99951000D01*
X299511326Y-99946535D01*
X299473633Y-99935101D01*
X299438897Y-99916534D01*
X299408452Y-99891548D01*
X299383466Y-99861103D01*
X299364899Y-99826367D01*
X299353465Y-99788674D01*
X299349000Y-99743339D01*
X299349000Y-98656661D01*
X299353465Y-98611326D01*
X299364899Y-98573633D01*
X299383466Y-98538897D01*
X299408452Y-98508452D01*
X299438897Y-98483466D01*
X299473633Y-98464899D01*
X299511326Y-98453465D01*
X299556661Y-98449000D01*
X300393339Y-98449000D01*
X300438674Y-98453465D01*
X300438674Y-98453465D01*
G37*
G36*
X300413674Y-86453465D02*
G01*
X300451367Y-86464899D01*
X300486103Y-86483466D01*
X300516548Y-86508452D01*
X300541534Y-86538897D01*
X300560101Y-86573633D01*
X300571535Y-86611326D01*
X300576000Y-86656661D01*
X300576000Y-87743339D01*
X300571535Y-87788674D01*
X300560101Y-87826367D01*
X300541534Y-87861103D01*
X300516548Y-87891548D01*
X300486103Y-87916534D01*
X300451367Y-87935101D01*
X300413674Y-87946535D01*
X300368339Y-87951000D01*
X299531661Y-87951000D01*
X299486326Y-87946535D01*
X299448633Y-87935101D01*
X299413897Y-87916534D01*
X299383452Y-87891548D01*
X299358466Y-87861103D01*
X299339899Y-87826367D01*
X299328465Y-87788674D01*
X299324000Y-87743339D01*
X299324000Y-86656661D01*
X299328465Y-86611326D01*
X299339899Y-86573633D01*
X299358466Y-86538897D01*
X299383452Y-86508452D01*
X299413897Y-86483466D01*
X299448633Y-86464899D01*
X299486326Y-86453465D01*
X299531661Y-86449000D01*
X300368339Y-86449000D01*
X300413674Y-86453465D01*
X300413674Y-86453465D01*
G37*
G36*
X302463674Y-86453465D02*
G01*
X302501367Y-86464899D01*
X302536103Y-86483466D01*
X302566548Y-86508452D01*
X302591534Y-86538897D01*
X302610101Y-86573633D01*
X302621535Y-86611326D01*
X302626000Y-86656661D01*
X302626000Y-87743339D01*
X302621535Y-87788674D01*
X302610101Y-87826367D01*
X302591534Y-87861103D01*
X302566548Y-87891548D01*
X302536103Y-87916534D01*
X302501367Y-87935101D01*
X302463674Y-87946535D01*
X302418339Y-87951000D01*
X301581661Y-87951000D01*
X301536326Y-87946535D01*
X301498633Y-87935101D01*
X301463897Y-87916534D01*
X301433452Y-87891548D01*
X301408466Y-87861103D01*
X301389899Y-87826367D01*
X301378465Y-87788674D01*
X301374000Y-87743339D01*
X301374000Y-86656661D01*
X301378465Y-86611326D01*
X301389899Y-86573633D01*
X301408466Y-86538897D01*
X301433452Y-86508452D01*
X301463897Y-86483466D01*
X301498633Y-86464899D01*
X301536326Y-86453465D01*
X301581661Y-86449000D01*
X302418339Y-86449000D01*
X302463674Y-86453465D01*
X302463674Y-86453465D01*
G37*
G36*
X300413674Y-74453465D02*
G01*
X300451367Y-74464899D01*
X300486103Y-74483466D01*
X300516548Y-74508452D01*
X300541534Y-74538897D01*
X300560101Y-74573633D01*
X300571535Y-74611326D01*
X300576000Y-74656661D01*
X300576000Y-75743339D01*
X300571535Y-75788674D01*
X300560101Y-75826367D01*
X300541534Y-75861103D01*
X300516548Y-75891548D01*
X300486103Y-75916534D01*
X300451367Y-75935101D01*
X300413674Y-75946535D01*
X300368339Y-75951000D01*
X299531661Y-75951000D01*
X299486326Y-75946535D01*
X299448633Y-75935101D01*
X299413897Y-75916534D01*
X299383452Y-75891548D01*
X299358466Y-75861103D01*
X299339899Y-75826367D01*
X299328465Y-75788674D01*
X299324000Y-75743339D01*
X299324000Y-74656661D01*
X299328465Y-74611326D01*
X299339899Y-74573633D01*
X299358466Y-74538897D01*
X299383452Y-74508452D01*
X299413897Y-74483466D01*
X299448633Y-74464899D01*
X299486326Y-74453465D01*
X299531661Y-74449000D01*
X300368339Y-74449000D01*
X300413674Y-74453465D01*
X300413674Y-74453465D01*
G37*
G36*
X302463674Y-74453465D02*
G01*
X302501367Y-74464899D01*
X302536103Y-74483466D01*
X302566548Y-74508452D01*
X302591534Y-74538897D01*
X302610101Y-74573633D01*
X302621535Y-74611326D01*
X302626000Y-74656661D01*
X302626000Y-75743339D01*
X302621535Y-75788674D01*
X302610101Y-75826367D01*
X302591534Y-75861103D01*
X302566548Y-75891548D01*
X302536103Y-75916534D01*
X302501367Y-75935101D01*
X302463674Y-75946535D01*
X302418339Y-75951000D01*
X301581661Y-75951000D01*
X301536326Y-75946535D01*
X301498633Y-75935101D01*
X301463897Y-75916534D01*
X301433452Y-75891548D01*
X301408466Y-75861103D01*
X301389899Y-75826367D01*
X301378465Y-75788674D01*
X301374000Y-75743339D01*
X301374000Y-74656661D01*
X301378465Y-74611326D01*
X301389899Y-74573633D01*
X301408466Y-74538897D01*
X301433452Y-74508452D01*
X301463897Y-74483466D01*
X301498633Y-74464899D01*
X301536326Y-74453465D01*
X301581661Y-74449000D01*
X302418339Y-74449000D01*
X302463674Y-74453465D01*
X302463674Y-74453465D01*
G37*
G36*
X300413674Y-62453465D02*
G01*
X300451367Y-62464899D01*
X300486103Y-62483466D01*
X300516548Y-62508452D01*
X300541534Y-62538897D01*
X300560101Y-62573633D01*
X300571535Y-62611326D01*
X300576000Y-62656661D01*
X300576000Y-63743339D01*
X300571535Y-63788674D01*
X300560101Y-63826367D01*
X300541534Y-63861103D01*
X300516548Y-63891548D01*
X300486103Y-63916534D01*
X300451367Y-63935101D01*
X300413674Y-63946535D01*
X300368339Y-63951000D01*
X299531661Y-63951000D01*
X299486326Y-63946535D01*
X299448633Y-63935101D01*
X299413897Y-63916534D01*
X299383452Y-63891548D01*
X299358466Y-63861103D01*
X299339899Y-63826367D01*
X299328465Y-63788674D01*
X299324000Y-63743339D01*
X299324000Y-62656661D01*
X299328465Y-62611326D01*
X299339899Y-62573633D01*
X299358466Y-62538897D01*
X299383452Y-62508452D01*
X299413897Y-62483466D01*
X299448633Y-62464899D01*
X299486326Y-62453465D01*
X299531661Y-62449000D01*
X300368339Y-62449000D01*
X300413674Y-62453465D01*
X300413674Y-62453465D01*
G37*
G36*
X302463674Y-62453465D02*
G01*
X302501367Y-62464899D01*
X302536103Y-62483466D01*
X302566548Y-62508452D01*
X302591534Y-62538897D01*
X302610101Y-62573633D01*
X302621535Y-62611326D01*
X302626000Y-62656661D01*
X302626000Y-63743339D01*
X302621535Y-63788674D01*
X302610101Y-63826367D01*
X302591534Y-63861103D01*
X302566548Y-63891548D01*
X302536103Y-63916534D01*
X302501367Y-63935101D01*
X302463674Y-63946535D01*
X302418339Y-63951000D01*
X301581661Y-63951000D01*
X301536326Y-63946535D01*
X301498633Y-63935101D01*
X301463897Y-63916534D01*
X301433452Y-63891548D01*
X301408466Y-63861103D01*
X301389899Y-63826367D01*
X301378465Y-63788674D01*
X301374000Y-63743339D01*
X301374000Y-62656661D01*
X301378465Y-62611326D01*
X301389899Y-62573633D01*
X301408466Y-62538897D01*
X301433452Y-62508452D01*
X301463897Y-62483466D01*
X301498633Y-62464899D01*
X301536326Y-62453465D01*
X301581661Y-62449000D01*
X302418339Y-62449000D01*
X302463674Y-62453465D01*
X302463674Y-62453465D01*
G37*
G36*
X302488674Y-50453465D02*
G01*
X302526367Y-50464899D01*
X302561103Y-50483466D01*
X302591548Y-50508452D01*
X302616534Y-50538897D01*
X302635101Y-50573633D01*
X302646535Y-50611326D01*
X302651000Y-50656661D01*
X302651000Y-51743339D01*
X302646535Y-51788674D01*
X302635101Y-51826367D01*
X302616534Y-51861103D01*
X302591548Y-51891548D01*
X302561103Y-51916534D01*
X302526367Y-51935101D01*
X302488674Y-51946535D01*
X302443339Y-51951000D01*
X301606661Y-51951000D01*
X301561326Y-51946535D01*
X301523633Y-51935101D01*
X301488897Y-51916534D01*
X301458452Y-51891548D01*
X301433466Y-51861103D01*
X301414899Y-51826367D01*
X301403465Y-51788674D01*
X301399000Y-51743339D01*
X301399000Y-50656661D01*
X301403465Y-50611326D01*
X301414899Y-50573633D01*
X301433466Y-50538897D01*
X301458452Y-50508452D01*
X301488897Y-50483466D01*
X301523633Y-50464899D01*
X301561326Y-50453465D01*
X301606661Y-50449000D01*
X302443339Y-50449000D01*
X302488674Y-50453465D01*
X302488674Y-50453465D01*
G37*
G36*
X300438674Y-50453465D02*
G01*
X300476367Y-50464899D01*
X300511103Y-50483466D01*
X300541548Y-50508452D01*
X300566534Y-50538897D01*
X300585101Y-50573633D01*
X300596535Y-50611326D01*
X300601000Y-50656661D01*
X300601000Y-51743339D01*
X300596535Y-51788674D01*
X300585101Y-51826367D01*
X300566534Y-51861103D01*
X300541548Y-51891548D01*
X300511103Y-51916534D01*
X300476367Y-51935101D01*
X300438674Y-51946535D01*
X300393339Y-51951000D01*
X299556661Y-51951000D01*
X299511326Y-51946535D01*
X299473633Y-51935101D01*
X299438897Y-51916534D01*
X299408452Y-51891548D01*
X299383466Y-51861103D01*
X299364899Y-51826367D01*
X299353465Y-51788674D01*
X299349000Y-51743339D01*
X299349000Y-50656661D01*
X299353465Y-50611326D01*
X299364899Y-50573633D01*
X299383466Y-50538897D01*
X299408452Y-50508452D01*
X299438897Y-50483466D01*
X299473633Y-50464899D01*
X299511326Y-50453465D01*
X299556661Y-50449000D01*
X300393339Y-50449000D01*
X300438674Y-50453465D01*
X300438674Y-50453465D01*
G37*
M02*
