G04 #@! TF.GenerationSoftware,KiCad,Pcbnew,(5.1.4)-1*
G04 #@! TF.CreationDate,2019-09-16T17:16:43+02:00*
G04 #@! TF.ProjectId,LED_Leiste,4c45445f-4c65-4697-9374-652e6b696361,rev?*
G04 #@! TF.SameCoordinates,Original*
G04 #@! TF.FileFunction,Soldermask,Top*
G04 #@! TF.FilePolarity,Negative*
%FSLAX46Y46*%
G04 Gerber Fmt 4.6, Leading zero omitted, Abs format (unit mm)*
G04 Created by KiCad (PCBNEW (5.1.4)-1) date 2019-09-16 17:16:43*
%MOMM*%
%LPD*%
G04 APERTURE LIST*
%ADD10C,0.100000*%
G04 APERTURE END LIST*
D10*
G36*
X304116564Y-203379389D02*
G01*
X304307833Y-203458615D01*
X304307835Y-203458616D01*
X304385649Y-203510610D01*
X304479973Y-203573635D01*
X304626365Y-203720027D01*
X304741385Y-203892167D01*
X304820611Y-204083436D01*
X304861000Y-204286484D01*
X304861000Y-204493516D01*
X304820611Y-204696564D01*
X304741385Y-204887833D01*
X304741384Y-204887835D01*
X304626365Y-205059973D01*
X304479973Y-205206365D01*
X304307835Y-205321384D01*
X304307834Y-205321385D01*
X304307833Y-205321385D01*
X304116564Y-205400611D01*
X303913516Y-205441000D01*
X303706484Y-205441000D01*
X303503436Y-205400611D01*
X303312167Y-205321385D01*
X303312166Y-205321385D01*
X303312165Y-205321384D01*
X303140027Y-205206365D01*
X302993635Y-205059973D01*
X302878616Y-204887835D01*
X302878615Y-204887833D01*
X302799389Y-204696564D01*
X302759000Y-204493516D01*
X302759000Y-204286484D01*
X302799389Y-204083436D01*
X302878615Y-203892167D01*
X302993635Y-203720027D01*
X303140027Y-203573635D01*
X303234351Y-203510610D01*
X303312165Y-203458616D01*
X303312167Y-203458615D01*
X303503436Y-203379389D01*
X303706484Y-203339000D01*
X303913516Y-203339000D01*
X304116564Y-203379389D01*
X304116564Y-203379389D01*
G37*
G36*
X301576564Y-203379389D02*
G01*
X301767833Y-203458615D01*
X301767835Y-203458616D01*
X301845649Y-203510610D01*
X301939973Y-203573635D01*
X302086365Y-203720027D01*
X302201385Y-203892167D01*
X302280611Y-204083436D01*
X302321000Y-204286484D01*
X302321000Y-204493516D01*
X302280611Y-204696564D01*
X302201385Y-204887833D01*
X302201384Y-204887835D01*
X302086365Y-205059973D01*
X301939973Y-205206365D01*
X301767835Y-205321384D01*
X301767834Y-205321385D01*
X301767833Y-205321385D01*
X301576564Y-205400611D01*
X301373516Y-205441000D01*
X301166484Y-205441000D01*
X300963436Y-205400611D01*
X300772167Y-205321385D01*
X300772166Y-205321385D01*
X300772165Y-205321384D01*
X300600027Y-205206365D01*
X300453635Y-205059973D01*
X300338616Y-204887835D01*
X300338615Y-204887833D01*
X300259389Y-204696564D01*
X300219000Y-204493516D01*
X300219000Y-204286484D01*
X300259389Y-204083436D01*
X300338615Y-203892167D01*
X300453635Y-203720027D01*
X300600027Y-203573635D01*
X300694351Y-203510610D01*
X300772165Y-203458616D01*
X300772167Y-203458615D01*
X300963436Y-203379389D01*
X301166484Y-203339000D01*
X301373516Y-203339000D01*
X301576564Y-203379389D01*
X301576564Y-203379389D01*
G37*
G36*
X296496564Y-203379389D02*
G01*
X296687833Y-203458615D01*
X296687835Y-203458616D01*
X296765649Y-203510610D01*
X296859973Y-203573635D01*
X297006365Y-203720027D01*
X297121385Y-203892167D01*
X297200611Y-204083436D01*
X297241000Y-204286484D01*
X297241000Y-204493516D01*
X297200611Y-204696564D01*
X297121385Y-204887833D01*
X297121384Y-204887835D01*
X297006365Y-205059973D01*
X296859973Y-205206365D01*
X296687835Y-205321384D01*
X296687834Y-205321385D01*
X296687833Y-205321385D01*
X296496564Y-205400611D01*
X296293516Y-205441000D01*
X296086484Y-205441000D01*
X295883436Y-205400611D01*
X295692167Y-205321385D01*
X295692166Y-205321385D01*
X295692165Y-205321384D01*
X295520027Y-205206365D01*
X295373635Y-205059973D01*
X295258616Y-204887835D01*
X295258615Y-204887833D01*
X295179389Y-204696564D01*
X295139000Y-204493516D01*
X295139000Y-204286484D01*
X295179389Y-204083436D01*
X295258615Y-203892167D01*
X295373635Y-203720027D01*
X295520027Y-203573635D01*
X295614351Y-203510610D01*
X295692165Y-203458616D01*
X295692167Y-203458615D01*
X295883436Y-203379389D01*
X296086484Y-203339000D01*
X296293516Y-203339000D01*
X296496564Y-203379389D01*
X296496564Y-203379389D01*
G37*
G36*
X299036564Y-203379389D02*
G01*
X299227833Y-203458615D01*
X299227835Y-203458616D01*
X299305649Y-203510610D01*
X299399973Y-203573635D01*
X299546365Y-203720027D01*
X299661385Y-203892167D01*
X299740611Y-204083436D01*
X299781000Y-204286484D01*
X299781000Y-204493516D01*
X299740611Y-204696564D01*
X299661385Y-204887833D01*
X299661384Y-204887835D01*
X299546365Y-205059973D01*
X299399973Y-205206365D01*
X299227835Y-205321384D01*
X299227834Y-205321385D01*
X299227833Y-205321385D01*
X299036564Y-205400611D01*
X298833516Y-205441000D01*
X298626484Y-205441000D01*
X298423436Y-205400611D01*
X298232167Y-205321385D01*
X298232166Y-205321385D01*
X298232165Y-205321384D01*
X298060027Y-205206365D01*
X297913635Y-205059973D01*
X297798616Y-204887835D01*
X297798615Y-204887833D01*
X297719389Y-204696564D01*
X297679000Y-204493516D01*
X297679000Y-204286484D01*
X297719389Y-204083436D01*
X297798615Y-203892167D01*
X297913635Y-203720027D01*
X298060027Y-203573635D01*
X298154351Y-203510610D01*
X298232165Y-203458616D01*
X298232167Y-203458615D01*
X298423436Y-203379389D01*
X298626484Y-203339000D01*
X298833516Y-203339000D01*
X299036564Y-203379389D01*
X299036564Y-203379389D01*
G37*
G36*
X293196564Y-201489389D02*
G01*
X293387833Y-201568615D01*
X293387835Y-201568616D01*
X293559973Y-201683635D01*
X293706365Y-201830027D01*
X293821385Y-202002167D01*
X293900611Y-202193436D01*
X293941000Y-202396484D01*
X293941000Y-202603516D01*
X293900611Y-202806564D01*
X293821385Y-202997833D01*
X293821384Y-202997835D01*
X293706365Y-203169973D01*
X293559973Y-203316365D01*
X293387835Y-203431384D01*
X293387834Y-203431385D01*
X293387833Y-203431385D01*
X293196564Y-203510611D01*
X292993516Y-203551000D01*
X292786484Y-203551000D01*
X292583436Y-203510611D01*
X292392167Y-203431385D01*
X292392166Y-203431385D01*
X292392165Y-203431384D01*
X292220027Y-203316365D01*
X292073635Y-203169973D01*
X291958616Y-202997835D01*
X291958615Y-202997833D01*
X291879389Y-202806564D01*
X291839000Y-202603516D01*
X291839000Y-202396484D01*
X291879389Y-202193436D01*
X291958615Y-202002167D01*
X292073635Y-201830027D01*
X292220027Y-201683635D01*
X292392165Y-201568616D01*
X292392167Y-201568615D01*
X292583436Y-201489389D01*
X292786484Y-201449000D01*
X292993516Y-201449000D01*
X293196564Y-201489389D01*
X293196564Y-201489389D01*
G37*
G36*
X307146564Y-201489389D02*
G01*
X307337833Y-201568615D01*
X307337835Y-201568616D01*
X307509973Y-201683635D01*
X307656365Y-201830027D01*
X307771385Y-202002167D01*
X307850611Y-202193436D01*
X307891000Y-202396484D01*
X307891000Y-202603516D01*
X307850611Y-202806564D01*
X307771385Y-202997833D01*
X307771384Y-202997835D01*
X307656365Y-203169973D01*
X307509973Y-203316365D01*
X307337835Y-203431384D01*
X307337834Y-203431385D01*
X307337833Y-203431385D01*
X307146564Y-203510611D01*
X306943516Y-203551000D01*
X306736484Y-203551000D01*
X306533436Y-203510611D01*
X306342167Y-203431385D01*
X306342166Y-203431385D01*
X306342165Y-203431384D01*
X306170027Y-203316365D01*
X306023635Y-203169973D01*
X305908616Y-202997835D01*
X305908615Y-202997833D01*
X305829389Y-202806564D01*
X305789000Y-202603516D01*
X305789000Y-202396484D01*
X305829389Y-202193436D01*
X305908615Y-202002167D01*
X306023635Y-201830027D01*
X306170027Y-201683635D01*
X306342165Y-201568616D01*
X306342167Y-201568615D01*
X306533436Y-201489389D01*
X306736484Y-201449000D01*
X306943516Y-201449000D01*
X307146564Y-201489389D01*
X307146564Y-201489389D01*
G37*
G36*
X293196564Y-198949389D02*
G01*
X293387833Y-199028615D01*
X293387835Y-199028616D01*
X293559973Y-199143635D01*
X293706365Y-199290027D01*
X293821385Y-199462167D01*
X293900611Y-199653436D01*
X293941000Y-199856484D01*
X293941000Y-200063516D01*
X293900611Y-200266564D01*
X293821385Y-200457833D01*
X293821384Y-200457835D01*
X293706365Y-200629973D01*
X293559973Y-200776365D01*
X293387835Y-200891384D01*
X293387834Y-200891385D01*
X293387833Y-200891385D01*
X293196564Y-200970611D01*
X292993516Y-201011000D01*
X292786484Y-201011000D01*
X292583436Y-200970611D01*
X292392167Y-200891385D01*
X292392166Y-200891385D01*
X292392165Y-200891384D01*
X292220027Y-200776365D01*
X292073635Y-200629973D01*
X291958616Y-200457835D01*
X291958615Y-200457833D01*
X291879389Y-200266564D01*
X291839000Y-200063516D01*
X291839000Y-199856484D01*
X291879389Y-199653436D01*
X291958615Y-199462167D01*
X292073635Y-199290027D01*
X292220027Y-199143635D01*
X292392165Y-199028616D01*
X292392167Y-199028615D01*
X292583436Y-198949389D01*
X292786484Y-198909000D01*
X292993516Y-198909000D01*
X293196564Y-198949389D01*
X293196564Y-198949389D01*
G37*
G36*
X307146564Y-198949389D02*
G01*
X307337833Y-199028615D01*
X307337835Y-199028616D01*
X307509973Y-199143635D01*
X307656365Y-199290027D01*
X307771385Y-199462167D01*
X307850611Y-199653436D01*
X307891000Y-199856484D01*
X307891000Y-200063516D01*
X307850611Y-200266564D01*
X307771385Y-200457833D01*
X307771384Y-200457835D01*
X307656365Y-200629973D01*
X307509973Y-200776365D01*
X307337835Y-200891384D01*
X307337834Y-200891385D01*
X307337833Y-200891385D01*
X307146564Y-200970611D01*
X306943516Y-201011000D01*
X306736484Y-201011000D01*
X306533436Y-200970611D01*
X306342167Y-200891385D01*
X306342166Y-200891385D01*
X306342165Y-200891384D01*
X306170027Y-200776365D01*
X306023635Y-200629973D01*
X305908616Y-200457835D01*
X305908615Y-200457833D01*
X305829389Y-200266564D01*
X305789000Y-200063516D01*
X305789000Y-199856484D01*
X305829389Y-199653436D01*
X305908615Y-199462167D01*
X306023635Y-199290027D01*
X306170027Y-199143635D01*
X306342165Y-199028616D01*
X306342167Y-199028615D01*
X306533436Y-198949389D01*
X306736484Y-198909000D01*
X306943516Y-198909000D01*
X307146564Y-198949389D01*
X307146564Y-198949389D01*
G37*
G36*
X299751000Y-200501000D02*
G01*
X297649000Y-200501000D01*
X297649000Y-199299000D01*
X299751000Y-199299000D01*
X299751000Y-200501000D01*
X299751000Y-200501000D01*
G37*
G36*
X304551000Y-200501000D02*
G01*
X302449000Y-200501000D01*
X302449000Y-199299000D01*
X304551000Y-199299000D01*
X304551000Y-200501000D01*
X304551000Y-200501000D01*
G37*
G36*
X299751000Y-198801000D02*
G01*
X297649000Y-198801000D01*
X297649000Y-197599000D01*
X299751000Y-197599000D01*
X299751000Y-198801000D01*
X299751000Y-198801000D01*
G37*
G36*
X304551000Y-198801000D02*
G01*
X302449000Y-198801000D01*
X302449000Y-197599000D01*
X304551000Y-197599000D01*
X304551000Y-198801000D01*
X304551000Y-198801000D01*
G37*
G36*
X293196564Y-196409389D02*
G01*
X293387833Y-196488615D01*
X293387835Y-196488616D01*
X293559973Y-196603635D01*
X293706365Y-196750027D01*
X293821385Y-196922167D01*
X293900611Y-197113436D01*
X293941000Y-197316484D01*
X293941000Y-197523516D01*
X293900611Y-197726564D01*
X293821385Y-197917833D01*
X293821384Y-197917835D01*
X293706365Y-198089973D01*
X293559973Y-198236365D01*
X293387835Y-198351384D01*
X293387834Y-198351385D01*
X293387833Y-198351385D01*
X293196564Y-198430611D01*
X292993516Y-198471000D01*
X292786484Y-198471000D01*
X292583436Y-198430611D01*
X292392167Y-198351385D01*
X292392166Y-198351385D01*
X292392165Y-198351384D01*
X292220027Y-198236365D01*
X292073635Y-198089973D01*
X291958616Y-197917835D01*
X291958615Y-197917833D01*
X291879389Y-197726564D01*
X291839000Y-197523516D01*
X291839000Y-197316484D01*
X291879389Y-197113436D01*
X291958615Y-196922167D01*
X292073635Y-196750027D01*
X292220027Y-196603635D01*
X292392165Y-196488616D01*
X292392167Y-196488615D01*
X292583436Y-196409389D01*
X292786484Y-196369000D01*
X292993516Y-196369000D01*
X293196564Y-196409389D01*
X293196564Y-196409389D01*
G37*
G36*
X307146564Y-196409389D02*
G01*
X307337833Y-196488615D01*
X307337835Y-196488616D01*
X307509973Y-196603635D01*
X307656365Y-196750027D01*
X307771385Y-196922167D01*
X307850611Y-197113436D01*
X307891000Y-197316484D01*
X307891000Y-197523516D01*
X307850611Y-197726564D01*
X307771385Y-197917833D01*
X307771384Y-197917835D01*
X307656365Y-198089973D01*
X307509973Y-198236365D01*
X307337835Y-198351384D01*
X307337834Y-198351385D01*
X307337833Y-198351385D01*
X307146564Y-198430611D01*
X306943516Y-198471000D01*
X306736484Y-198471000D01*
X306533436Y-198430611D01*
X306342167Y-198351385D01*
X306342166Y-198351385D01*
X306342165Y-198351384D01*
X306170027Y-198236365D01*
X306023635Y-198089973D01*
X305908616Y-197917835D01*
X305908615Y-197917833D01*
X305829389Y-197726564D01*
X305789000Y-197523516D01*
X305789000Y-197316484D01*
X305829389Y-197113436D01*
X305908615Y-196922167D01*
X306023635Y-196750027D01*
X306170027Y-196603635D01*
X306342165Y-196488616D01*
X306342167Y-196488615D01*
X306533436Y-196409389D01*
X306736484Y-196369000D01*
X306943516Y-196369000D01*
X307146564Y-196409389D01*
X307146564Y-196409389D01*
G37*
G36*
X304551000Y-197101000D02*
G01*
X302449000Y-197101000D01*
X302449000Y-195899000D01*
X304551000Y-195899000D01*
X304551000Y-197101000D01*
X304551000Y-197101000D01*
G37*
G36*
X299751000Y-197101000D02*
G01*
X297649000Y-197101000D01*
X297649000Y-195899000D01*
X299751000Y-195899000D01*
X299751000Y-197101000D01*
X299751000Y-197101000D01*
G37*
G36*
X293196564Y-193869389D02*
G01*
X293387833Y-193948615D01*
X293387835Y-193948616D01*
X293559973Y-194063635D01*
X293706365Y-194210027D01*
X293821385Y-194382167D01*
X293900611Y-194573436D01*
X293941000Y-194776484D01*
X293941000Y-194983516D01*
X293900611Y-195186564D01*
X293821385Y-195377833D01*
X293821384Y-195377835D01*
X293706365Y-195549973D01*
X293559973Y-195696365D01*
X293387835Y-195811384D01*
X293387834Y-195811385D01*
X293387833Y-195811385D01*
X293196564Y-195890611D01*
X292993516Y-195931000D01*
X292786484Y-195931000D01*
X292583436Y-195890611D01*
X292392167Y-195811385D01*
X292392166Y-195811385D01*
X292392165Y-195811384D01*
X292220027Y-195696365D01*
X292073635Y-195549973D01*
X291958616Y-195377835D01*
X291958615Y-195377833D01*
X291879389Y-195186564D01*
X291839000Y-194983516D01*
X291839000Y-194776484D01*
X291879389Y-194573436D01*
X291958615Y-194382167D01*
X292073635Y-194210027D01*
X292220027Y-194063635D01*
X292392165Y-193948616D01*
X292392167Y-193948615D01*
X292583436Y-193869389D01*
X292786484Y-193829000D01*
X292993516Y-193829000D01*
X293196564Y-193869389D01*
X293196564Y-193869389D01*
G37*
G36*
X307146564Y-193869389D02*
G01*
X307337833Y-193948615D01*
X307337835Y-193948616D01*
X307509973Y-194063635D01*
X307656365Y-194210027D01*
X307771385Y-194382167D01*
X307850611Y-194573436D01*
X307891000Y-194776484D01*
X307891000Y-194983516D01*
X307850611Y-195186564D01*
X307771385Y-195377833D01*
X307771384Y-195377835D01*
X307656365Y-195549973D01*
X307509973Y-195696365D01*
X307337835Y-195811384D01*
X307337834Y-195811385D01*
X307337833Y-195811385D01*
X307146564Y-195890611D01*
X306943516Y-195931000D01*
X306736484Y-195931000D01*
X306533436Y-195890611D01*
X306342167Y-195811385D01*
X306342166Y-195811385D01*
X306342165Y-195811384D01*
X306170027Y-195696365D01*
X306023635Y-195549973D01*
X305908616Y-195377835D01*
X305908615Y-195377833D01*
X305829389Y-195186564D01*
X305789000Y-194983516D01*
X305789000Y-194776484D01*
X305829389Y-194573436D01*
X305908615Y-194382167D01*
X306023635Y-194210027D01*
X306170027Y-194063635D01*
X306342165Y-193948616D01*
X306342167Y-193948615D01*
X306533436Y-193869389D01*
X306736484Y-193829000D01*
X306943516Y-193829000D01*
X307146564Y-193869389D01*
X307146564Y-193869389D01*
G37*
G36*
X299751000Y-194501000D02*
G01*
X297649000Y-194501000D01*
X297649000Y-193299000D01*
X299751000Y-193299000D01*
X299751000Y-194501000D01*
X299751000Y-194501000D01*
G37*
G36*
X304551000Y-194501000D02*
G01*
X302449000Y-194501000D01*
X302449000Y-193299000D01*
X304551000Y-193299000D01*
X304551000Y-194501000D01*
X304551000Y-194501000D01*
G37*
G36*
X299751000Y-192801000D02*
G01*
X297649000Y-192801000D01*
X297649000Y-191599000D01*
X299751000Y-191599000D01*
X299751000Y-192801000D01*
X299751000Y-192801000D01*
G37*
G36*
X304551000Y-192801000D02*
G01*
X302449000Y-192801000D01*
X302449000Y-191599000D01*
X304551000Y-191599000D01*
X304551000Y-192801000D01*
X304551000Y-192801000D01*
G37*
G36*
X291496162Y-188364368D02*
G01*
X291805724Y-188492593D01*
X291805725Y-188492594D01*
X292084324Y-188678747D01*
X292321253Y-188915676D01*
X292445637Y-189101830D01*
X292507407Y-189194276D01*
X292635632Y-189503838D01*
X292701000Y-189832465D01*
X292701000Y-190167535D01*
X292635632Y-190496162D01*
X292507407Y-190805724D01*
X292507406Y-190805725D01*
X292321253Y-191084324D01*
X292084324Y-191321253D01*
X291898170Y-191445637D01*
X291805724Y-191507407D01*
X291496162Y-191635632D01*
X291167535Y-191701000D01*
X290832465Y-191701000D01*
X290503838Y-191635632D01*
X290194276Y-191507407D01*
X290101830Y-191445637D01*
X289915676Y-191321253D01*
X289678747Y-191084324D01*
X289492594Y-190805725D01*
X289492593Y-190805724D01*
X289364368Y-190496162D01*
X289299000Y-190167535D01*
X289299000Y-189832465D01*
X289364368Y-189503838D01*
X289492593Y-189194276D01*
X289554363Y-189101830D01*
X289678747Y-188915676D01*
X289915676Y-188678747D01*
X290194275Y-188492594D01*
X290194276Y-188492593D01*
X290503838Y-188364368D01*
X290832465Y-188299000D01*
X291167535Y-188299000D01*
X291496162Y-188364368D01*
X291496162Y-188364368D01*
G37*
G36*
X309496162Y-188364368D02*
G01*
X309805724Y-188492593D01*
X309805725Y-188492594D01*
X310084324Y-188678747D01*
X310321253Y-188915676D01*
X310445637Y-189101830D01*
X310507407Y-189194276D01*
X310635632Y-189503838D01*
X310701000Y-189832465D01*
X310701000Y-190167535D01*
X310635632Y-190496162D01*
X310507407Y-190805724D01*
X310507406Y-190805725D01*
X310321253Y-191084324D01*
X310084324Y-191321253D01*
X309898170Y-191445637D01*
X309805724Y-191507407D01*
X309496162Y-191635632D01*
X309167535Y-191701000D01*
X308832465Y-191701000D01*
X308503838Y-191635632D01*
X308194276Y-191507407D01*
X308101830Y-191445637D01*
X307915676Y-191321253D01*
X307678747Y-191084324D01*
X307492594Y-190805725D01*
X307492593Y-190805724D01*
X307364368Y-190496162D01*
X307299000Y-190167535D01*
X307299000Y-189832465D01*
X307364368Y-189503838D01*
X307492593Y-189194276D01*
X307554363Y-189101830D01*
X307678747Y-188915676D01*
X307915676Y-188678747D01*
X308194275Y-188492594D01*
X308194276Y-188492593D01*
X308503838Y-188364368D01*
X308832465Y-188299000D01*
X309167535Y-188299000D01*
X309496162Y-188364368D01*
X309496162Y-188364368D01*
G37*
G36*
X299751000Y-191101000D02*
G01*
X297649000Y-191101000D01*
X297649000Y-189899000D01*
X299751000Y-189899000D01*
X299751000Y-191101000D01*
X299751000Y-191101000D01*
G37*
G36*
X304551000Y-191101000D02*
G01*
X302449000Y-191101000D01*
X302449000Y-189899000D01*
X304551000Y-189899000D01*
X304551000Y-191101000D01*
X304551000Y-191101000D01*
G37*
G36*
X304551000Y-188501000D02*
G01*
X302449000Y-188501000D01*
X302449000Y-187299000D01*
X304551000Y-187299000D01*
X304551000Y-188501000D01*
X304551000Y-188501000D01*
G37*
G36*
X299751000Y-188501000D02*
G01*
X297649000Y-188501000D01*
X297649000Y-187299000D01*
X299751000Y-187299000D01*
X299751000Y-188501000D01*
X299751000Y-188501000D01*
G37*
G36*
X299751000Y-186801000D02*
G01*
X297649000Y-186801000D01*
X297649000Y-185599000D01*
X299751000Y-185599000D01*
X299751000Y-186801000D01*
X299751000Y-186801000D01*
G37*
G36*
X304551000Y-186801000D02*
G01*
X302449000Y-186801000D01*
X302449000Y-185599000D01*
X304551000Y-185599000D01*
X304551000Y-186801000D01*
X304551000Y-186801000D01*
G37*
G36*
X299751000Y-185101000D02*
G01*
X297649000Y-185101000D01*
X297649000Y-183899000D01*
X299751000Y-183899000D01*
X299751000Y-185101000D01*
X299751000Y-185101000D01*
G37*
G36*
X304551000Y-185101000D02*
G01*
X302449000Y-185101000D01*
X302449000Y-183899000D01*
X304551000Y-183899000D01*
X304551000Y-185101000D01*
X304551000Y-185101000D01*
G37*
G36*
X299751000Y-182501000D02*
G01*
X297649000Y-182501000D01*
X297649000Y-181299000D01*
X299751000Y-181299000D01*
X299751000Y-182501000D01*
X299751000Y-182501000D01*
G37*
G36*
X304551000Y-182501000D02*
G01*
X302449000Y-182501000D01*
X302449000Y-181299000D01*
X304551000Y-181299000D01*
X304551000Y-182501000D01*
X304551000Y-182501000D01*
G37*
G36*
X299751000Y-180801000D02*
G01*
X297649000Y-180801000D01*
X297649000Y-179599000D01*
X299751000Y-179599000D01*
X299751000Y-180801000D01*
X299751000Y-180801000D01*
G37*
G36*
X304551000Y-180801000D02*
G01*
X302449000Y-180801000D01*
X302449000Y-179599000D01*
X304551000Y-179599000D01*
X304551000Y-180801000D01*
X304551000Y-180801000D01*
G37*
G36*
X304551000Y-179101000D02*
G01*
X302449000Y-179101000D01*
X302449000Y-177899000D01*
X304551000Y-177899000D01*
X304551000Y-179101000D01*
X304551000Y-179101000D01*
G37*
G36*
X299751000Y-179101000D02*
G01*
X297649000Y-179101000D01*
X297649000Y-177899000D01*
X299751000Y-177899000D01*
X299751000Y-179101000D01*
X299751000Y-179101000D01*
G37*
G36*
X304551000Y-176501000D02*
G01*
X302449000Y-176501000D01*
X302449000Y-175299000D01*
X304551000Y-175299000D01*
X304551000Y-176501000D01*
X304551000Y-176501000D01*
G37*
G36*
X299751000Y-176501000D02*
G01*
X297649000Y-176501000D01*
X297649000Y-175299000D01*
X299751000Y-175299000D01*
X299751000Y-176501000D01*
X299751000Y-176501000D01*
G37*
G36*
X299751000Y-174801000D02*
G01*
X297649000Y-174801000D01*
X297649000Y-173599000D01*
X299751000Y-173599000D01*
X299751000Y-174801000D01*
X299751000Y-174801000D01*
G37*
G36*
X304551000Y-174801000D02*
G01*
X302449000Y-174801000D01*
X302449000Y-173599000D01*
X304551000Y-173599000D01*
X304551000Y-174801000D01*
X304551000Y-174801000D01*
G37*
G36*
X304551000Y-173101000D02*
G01*
X302449000Y-173101000D01*
X302449000Y-171899000D01*
X304551000Y-171899000D01*
X304551000Y-173101000D01*
X304551000Y-173101000D01*
G37*
G36*
X299751000Y-173101000D02*
G01*
X297649000Y-173101000D01*
X297649000Y-171899000D01*
X299751000Y-171899000D01*
X299751000Y-173101000D01*
X299751000Y-173101000D01*
G37*
G36*
X304551000Y-170501000D02*
G01*
X302449000Y-170501000D01*
X302449000Y-169299000D01*
X304551000Y-169299000D01*
X304551000Y-170501000D01*
X304551000Y-170501000D01*
G37*
G36*
X299751000Y-170501000D02*
G01*
X297649000Y-170501000D01*
X297649000Y-169299000D01*
X299751000Y-169299000D01*
X299751000Y-170501000D01*
X299751000Y-170501000D01*
G37*
G36*
X299751000Y-168801000D02*
G01*
X297649000Y-168801000D01*
X297649000Y-167599000D01*
X299751000Y-167599000D01*
X299751000Y-168801000D01*
X299751000Y-168801000D01*
G37*
G36*
X304551000Y-168801000D02*
G01*
X302449000Y-168801000D01*
X302449000Y-167599000D01*
X304551000Y-167599000D01*
X304551000Y-168801000D01*
X304551000Y-168801000D01*
G37*
G36*
X304551000Y-167101000D02*
G01*
X302449000Y-167101000D01*
X302449000Y-165899000D01*
X304551000Y-165899000D01*
X304551000Y-167101000D01*
X304551000Y-167101000D01*
G37*
G36*
X299751000Y-167101000D02*
G01*
X297649000Y-167101000D01*
X297649000Y-165899000D01*
X299751000Y-165899000D01*
X299751000Y-167101000D01*
X299751000Y-167101000D01*
G37*
G36*
X299751000Y-164501000D02*
G01*
X297649000Y-164501000D01*
X297649000Y-163299000D01*
X299751000Y-163299000D01*
X299751000Y-164501000D01*
X299751000Y-164501000D01*
G37*
G36*
X304551000Y-164501000D02*
G01*
X302449000Y-164501000D01*
X302449000Y-163299000D01*
X304551000Y-163299000D01*
X304551000Y-164501000D01*
X304551000Y-164501000D01*
G37*
G36*
X299751000Y-162801000D02*
G01*
X297649000Y-162801000D01*
X297649000Y-161599000D01*
X299751000Y-161599000D01*
X299751000Y-162801000D01*
X299751000Y-162801000D01*
G37*
G36*
X304551000Y-162801000D02*
G01*
X302449000Y-162801000D01*
X302449000Y-161599000D01*
X304551000Y-161599000D01*
X304551000Y-162801000D01*
X304551000Y-162801000D01*
G37*
G36*
X299751000Y-161101000D02*
G01*
X297649000Y-161101000D01*
X297649000Y-159899000D01*
X299751000Y-159899000D01*
X299751000Y-161101000D01*
X299751000Y-161101000D01*
G37*
G36*
X304551000Y-161101000D02*
G01*
X302449000Y-161101000D01*
X302449000Y-159899000D01*
X304551000Y-159899000D01*
X304551000Y-161101000D01*
X304551000Y-161101000D01*
G37*
G36*
X299751000Y-158501000D02*
G01*
X297649000Y-158501000D01*
X297649000Y-157299000D01*
X299751000Y-157299000D01*
X299751000Y-158501000D01*
X299751000Y-158501000D01*
G37*
G36*
X304551000Y-158501000D02*
G01*
X302449000Y-158501000D01*
X302449000Y-157299000D01*
X304551000Y-157299000D01*
X304551000Y-158501000D01*
X304551000Y-158501000D01*
G37*
G36*
X299751000Y-156801000D02*
G01*
X297649000Y-156801000D01*
X297649000Y-155599000D01*
X299751000Y-155599000D01*
X299751000Y-156801000D01*
X299751000Y-156801000D01*
G37*
G36*
X304551000Y-156801000D02*
G01*
X302449000Y-156801000D01*
X302449000Y-155599000D01*
X304551000Y-155599000D01*
X304551000Y-156801000D01*
X304551000Y-156801000D01*
G37*
G36*
X299751000Y-155101000D02*
G01*
X297649000Y-155101000D01*
X297649000Y-153899000D01*
X299751000Y-153899000D01*
X299751000Y-155101000D01*
X299751000Y-155101000D01*
G37*
G36*
X304551000Y-155101000D02*
G01*
X302449000Y-155101000D01*
X302449000Y-153899000D01*
X304551000Y-153899000D01*
X304551000Y-155101000D01*
X304551000Y-155101000D01*
G37*
G36*
X304551000Y-152501000D02*
G01*
X302449000Y-152501000D01*
X302449000Y-151299000D01*
X304551000Y-151299000D01*
X304551000Y-152501000D01*
X304551000Y-152501000D01*
G37*
G36*
X299751000Y-152501000D02*
G01*
X297649000Y-152501000D01*
X297649000Y-151299000D01*
X299751000Y-151299000D01*
X299751000Y-152501000D01*
X299751000Y-152501000D01*
G37*
G36*
X299751000Y-150801000D02*
G01*
X297649000Y-150801000D01*
X297649000Y-149599000D01*
X299751000Y-149599000D01*
X299751000Y-150801000D01*
X299751000Y-150801000D01*
G37*
G36*
X304551000Y-150801000D02*
G01*
X302449000Y-150801000D01*
X302449000Y-149599000D01*
X304551000Y-149599000D01*
X304551000Y-150801000D01*
X304551000Y-150801000D01*
G37*
G36*
X299751000Y-149101000D02*
G01*
X297649000Y-149101000D01*
X297649000Y-147899000D01*
X299751000Y-147899000D01*
X299751000Y-149101000D01*
X299751000Y-149101000D01*
G37*
G36*
X304551000Y-149101000D02*
G01*
X302449000Y-149101000D01*
X302449000Y-147899000D01*
X304551000Y-147899000D01*
X304551000Y-149101000D01*
X304551000Y-149101000D01*
G37*
G36*
X299751000Y-146501000D02*
G01*
X297649000Y-146501000D01*
X297649000Y-145299000D01*
X299751000Y-145299000D01*
X299751000Y-146501000D01*
X299751000Y-146501000D01*
G37*
G36*
X304551000Y-146501000D02*
G01*
X302449000Y-146501000D01*
X302449000Y-145299000D01*
X304551000Y-145299000D01*
X304551000Y-146501000D01*
X304551000Y-146501000D01*
G37*
G36*
X304551000Y-144801000D02*
G01*
X302449000Y-144801000D01*
X302449000Y-143599000D01*
X304551000Y-143599000D01*
X304551000Y-144801000D01*
X304551000Y-144801000D01*
G37*
G36*
X299751000Y-144801000D02*
G01*
X297649000Y-144801000D01*
X297649000Y-143599000D01*
X299751000Y-143599000D01*
X299751000Y-144801000D01*
X299751000Y-144801000D01*
G37*
G36*
X299751000Y-143101000D02*
G01*
X297649000Y-143101000D01*
X297649000Y-141899000D01*
X299751000Y-141899000D01*
X299751000Y-143101000D01*
X299751000Y-143101000D01*
G37*
G36*
X304551000Y-143101000D02*
G01*
X302449000Y-143101000D01*
X302449000Y-141899000D01*
X304551000Y-141899000D01*
X304551000Y-143101000D01*
X304551000Y-143101000D01*
G37*
G36*
X304551000Y-140501000D02*
G01*
X302449000Y-140501000D01*
X302449000Y-139299000D01*
X304551000Y-139299000D01*
X304551000Y-140501000D01*
X304551000Y-140501000D01*
G37*
G36*
X299751000Y-140501000D02*
G01*
X297649000Y-140501000D01*
X297649000Y-139299000D01*
X299751000Y-139299000D01*
X299751000Y-140501000D01*
X299751000Y-140501000D01*
G37*
G36*
X304551000Y-138801000D02*
G01*
X302449000Y-138801000D01*
X302449000Y-137599000D01*
X304551000Y-137599000D01*
X304551000Y-138801000D01*
X304551000Y-138801000D01*
G37*
G36*
X299751000Y-138801000D02*
G01*
X297649000Y-138801000D01*
X297649000Y-137599000D01*
X299751000Y-137599000D01*
X299751000Y-138801000D01*
X299751000Y-138801000D01*
G37*
G36*
X299751000Y-137101000D02*
G01*
X297649000Y-137101000D01*
X297649000Y-135899000D01*
X299751000Y-135899000D01*
X299751000Y-137101000D01*
X299751000Y-137101000D01*
G37*
G36*
X304551000Y-137101000D02*
G01*
X302449000Y-137101000D01*
X302449000Y-135899000D01*
X304551000Y-135899000D01*
X304551000Y-137101000D01*
X304551000Y-137101000D01*
G37*
G36*
X304551000Y-134501000D02*
G01*
X302449000Y-134501000D01*
X302449000Y-133299000D01*
X304551000Y-133299000D01*
X304551000Y-134501000D01*
X304551000Y-134501000D01*
G37*
G36*
X299751000Y-134501000D02*
G01*
X297649000Y-134501000D01*
X297649000Y-133299000D01*
X299751000Y-133299000D01*
X299751000Y-134501000D01*
X299751000Y-134501000D01*
G37*
G36*
X304551000Y-132801000D02*
G01*
X302449000Y-132801000D01*
X302449000Y-131599000D01*
X304551000Y-131599000D01*
X304551000Y-132801000D01*
X304551000Y-132801000D01*
G37*
G36*
X299751000Y-132801000D02*
G01*
X297649000Y-132801000D01*
X297649000Y-131599000D01*
X299751000Y-131599000D01*
X299751000Y-132801000D01*
X299751000Y-132801000D01*
G37*
G36*
X299751000Y-131101000D02*
G01*
X297649000Y-131101000D01*
X297649000Y-129899000D01*
X299751000Y-129899000D01*
X299751000Y-131101000D01*
X299751000Y-131101000D01*
G37*
G36*
X304551000Y-131101000D02*
G01*
X302449000Y-131101000D01*
X302449000Y-129899000D01*
X304551000Y-129899000D01*
X304551000Y-131101000D01*
X304551000Y-131101000D01*
G37*
G36*
X299751000Y-128501000D02*
G01*
X297649000Y-128501000D01*
X297649000Y-127299000D01*
X299751000Y-127299000D01*
X299751000Y-128501000D01*
X299751000Y-128501000D01*
G37*
G36*
X304551000Y-128501000D02*
G01*
X302449000Y-128501000D01*
X302449000Y-127299000D01*
X304551000Y-127299000D01*
X304551000Y-128501000D01*
X304551000Y-128501000D01*
G37*
G36*
X299751000Y-126801000D02*
G01*
X297649000Y-126801000D01*
X297649000Y-125599000D01*
X299751000Y-125599000D01*
X299751000Y-126801000D01*
X299751000Y-126801000D01*
G37*
G36*
X304551000Y-126801000D02*
G01*
X302449000Y-126801000D01*
X302449000Y-125599000D01*
X304551000Y-125599000D01*
X304551000Y-126801000D01*
X304551000Y-126801000D01*
G37*
G36*
X304551000Y-125101000D02*
G01*
X302449000Y-125101000D01*
X302449000Y-123899000D01*
X304551000Y-123899000D01*
X304551000Y-125101000D01*
X304551000Y-125101000D01*
G37*
G36*
X299751000Y-125101000D02*
G01*
X297649000Y-125101000D01*
X297649000Y-123899000D01*
X299751000Y-123899000D01*
X299751000Y-125101000D01*
X299751000Y-125101000D01*
G37*
G36*
X304551000Y-122501000D02*
G01*
X302449000Y-122501000D01*
X302449000Y-121299000D01*
X304551000Y-121299000D01*
X304551000Y-122501000D01*
X304551000Y-122501000D01*
G37*
G36*
X299751000Y-122501000D02*
G01*
X297649000Y-122501000D01*
X297649000Y-121299000D01*
X299751000Y-121299000D01*
X299751000Y-122501000D01*
X299751000Y-122501000D01*
G37*
G36*
X304551000Y-120801000D02*
G01*
X302449000Y-120801000D01*
X302449000Y-119599000D01*
X304551000Y-119599000D01*
X304551000Y-120801000D01*
X304551000Y-120801000D01*
G37*
G36*
X299751000Y-120801000D02*
G01*
X297649000Y-120801000D01*
X297649000Y-119599000D01*
X299751000Y-119599000D01*
X299751000Y-120801000D01*
X299751000Y-120801000D01*
G37*
G36*
X304551000Y-119101000D02*
G01*
X302449000Y-119101000D01*
X302449000Y-117899000D01*
X304551000Y-117899000D01*
X304551000Y-119101000D01*
X304551000Y-119101000D01*
G37*
G36*
X299751000Y-119101000D02*
G01*
X297649000Y-119101000D01*
X297649000Y-117899000D01*
X299751000Y-117899000D01*
X299751000Y-119101000D01*
X299751000Y-119101000D01*
G37*
G36*
X299751000Y-116501000D02*
G01*
X297649000Y-116501000D01*
X297649000Y-115299000D01*
X299751000Y-115299000D01*
X299751000Y-116501000D01*
X299751000Y-116501000D01*
G37*
G36*
X304551000Y-116501000D02*
G01*
X302449000Y-116501000D01*
X302449000Y-115299000D01*
X304551000Y-115299000D01*
X304551000Y-116501000D01*
X304551000Y-116501000D01*
G37*
G36*
X299751000Y-114801000D02*
G01*
X297649000Y-114801000D01*
X297649000Y-113599000D01*
X299751000Y-113599000D01*
X299751000Y-114801000D01*
X299751000Y-114801000D01*
G37*
G36*
X304551000Y-114801000D02*
G01*
X302449000Y-114801000D01*
X302449000Y-113599000D01*
X304551000Y-113599000D01*
X304551000Y-114801000D01*
X304551000Y-114801000D01*
G37*
G36*
X304551000Y-113101000D02*
G01*
X302449000Y-113101000D01*
X302449000Y-111899000D01*
X304551000Y-111899000D01*
X304551000Y-113101000D01*
X304551000Y-113101000D01*
G37*
G36*
X299751000Y-113101000D02*
G01*
X297649000Y-113101000D01*
X297649000Y-111899000D01*
X299751000Y-111899000D01*
X299751000Y-113101000D01*
X299751000Y-113101000D01*
G37*
G36*
X304551000Y-110501000D02*
G01*
X302449000Y-110501000D01*
X302449000Y-109299000D01*
X304551000Y-109299000D01*
X304551000Y-110501000D01*
X304551000Y-110501000D01*
G37*
G36*
X299751000Y-110501000D02*
G01*
X297649000Y-110501000D01*
X297649000Y-109299000D01*
X299751000Y-109299000D01*
X299751000Y-110501000D01*
X299751000Y-110501000D01*
G37*
G36*
X304551000Y-108801000D02*
G01*
X302449000Y-108801000D01*
X302449000Y-107599000D01*
X304551000Y-107599000D01*
X304551000Y-108801000D01*
X304551000Y-108801000D01*
G37*
G36*
X299751000Y-108801000D02*
G01*
X297649000Y-108801000D01*
X297649000Y-107599000D01*
X299751000Y-107599000D01*
X299751000Y-108801000D01*
X299751000Y-108801000D01*
G37*
G36*
X299751000Y-107101000D02*
G01*
X297649000Y-107101000D01*
X297649000Y-105899000D01*
X299751000Y-105899000D01*
X299751000Y-107101000D01*
X299751000Y-107101000D01*
G37*
G36*
X304551000Y-107101000D02*
G01*
X302449000Y-107101000D01*
X302449000Y-105899000D01*
X304551000Y-105899000D01*
X304551000Y-107101000D01*
X304551000Y-107101000D01*
G37*
G36*
X304551000Y-104501000D02*
G01*
X302449000Y-104501000D01*
X302449000Y-103299000D01*
X304551000Y-103299000D01*
X304551000Y-104501000D01*
X304551000Y-104501000D01*
G37*
G36*
X299751000Y-104501000D02*
G01*
X297649000Y-104501000D01*
X297649000Y-103299000D01*
X299751000Y-103299000D01*
X299751000Y-104501000D01*
X299751000Y-104501000D01*
G37*
G36*
X304551000Y-102801000D02*
G01*
X302449000Y-102801000D01*
X302449000Y-101599000D01*
X304551000Y-101599000D01*
X304551000Y-102801000D01*
X304551000Y-102801000D01*
G37*
G36*
X299751000Y-102801000D02*
G01*
X297649000Y-102801000D01*
X297649000Y-101599000D01*
X299751000Y-101599000D01*
X299751000Y-102801000D01*
X299751000Y-102801000D01*
G37*
G36*
X304551000Y-101101000D02*
G01*
X302449000Y-101101000D01*
X302449000Y-99899000D01*
X304551000Y-99899000D01*
X304551000Y-101101000D01*
X304551000Y-101101000D01*
G37*
G36*
X299751000Y-101101000D02*
G01*
X297649000Y-101101000D01*
X297649000Y-99899000D01*
X299751000Y-99899000D01*
X299751000Y-101101000D01*
X299751000Y-101101000D01*
G37*
G36*
X299751000Y-98501000D02*
G01*
X297649000Y-98501000D01*
X297649000Y-97299000D01*
X299751000Y-97299000D01*
X299751000Y-98501000D01*
X299751000Y-98501000D01*
G37*
G36*
X304551000Y-98501000D02*
G01*
X302449000Y-98501000D01*
X302449000Y-97299000D01*
X304551000Y-97299000D01*
X304551000Y-98501000D01*
X304551000Y-98501000D01*
G37*
G36*
X299751000Y-96801000D02*
G01*
X297649000Y-96801000D01*
X297649000Y-95599000D01*
X299751000Y-95599000D01*
X299751000Y-96801000D01*
X299751000Y-96801000D01*
G37*
G36*
X304551000Y-96801000D02*
G01*
X302449000Y-96801000D01*
X302449000Y-95599000D01*
X304551000Y-95599000D01*
X304551000Y-96801000D01*
X304551000Y-96801000D01*
G37*
G36*
X299751000Y-95101000D02*
G01*
X297649000Y-95101000D01*
X297649000Y-93899000D01*
X299751000Y-93899000D01*
X299751000Y-95101000D01*
X299751000Y-95101000D01*
G37*
G36*
X304551000Y-95101000D02*
G01*
X302449000Y-95101000D01*
X302449000Y-93899000D01*
X304551000Y-93899000D01*
X304551000Y-95101000D01*
X304551000Y-95101000D01*
G37*
G36*
X304551000Y-92501000D02*
G01*
X302449000Y-92501000D01*
X302449000Y-91299000D01*
X304551000Y-91299000D01*
X304551000Y-92501000D01*
X304551000Y-92501000D01*
G37*
G36*
X299751000Y-92501000D02*
G01*
X297649000Y-92501000D01*
X297649000Y-91299000D01*
X299751000Y-91299000D01*
X299751000Y-92501000D01*
X299751000Y-92501000D01*
G37*
G36*
X304551000Y-90801000D02*
G01*
X302449000Y-90801000D01*
X302449000Y-89599000D01*
X304551000Y-89599000D01*
X304551000Y-90801000D01*
X304551000Y-90801000D01*
G37*
G36*
X299751000Y-90801000D02*
G01*
X297649000Y-90801000D01*
X297649000Y-89599000D01*
X299751000Y-89599000D01*
X299751000Y-90801000D01*
X299751000Y-90801000D01*
G37*
G36*
X299751000Y-89101000D02*
G01*
X297649000Y-89101000D01*
X297649000Y-87899000D01*
X299751000Y-87899000D01*
X299751000Y-89101000D01*
X299751000Y-89101000D01*
G37*
G36*
X304551000Y-89101000D02*
G01*
X302449000Y-89101000D01*
X302449000Y-87899000D01*
X304551000Y-87899000D01*
X304551000Y-89101000D01*
X304551000Y-89101000D01*
G37*
G36*
X304551000Y-86501000D02*
G01*
X302449000Y-86501000D01*
X302449000Y-85299000D01*
X304551000Y-85299000D01*
X304551000Y-86501000D01*
X304551000Y-86501000D01*
G37*
G36*
X299751000Y-86501000D02*
G01*
X297649000Y-86501000D01*
X297649000Y-85299000D01*
X299751000Y-85299000D01*
X299751000Y-86501000D01*
X299751000Y-86501000D01*
G37*
G36*
X304551000Y-84801000D02*
G01*
X302449000Y-84801000D01*
X302449000Y-83599000D01*
X304551000Y-83599000D01*
X304551000Y-84801000D01*
X304551000Y-84801000D01*
G37*
G36*
X299751000Y-84801000D02*
G01*
X297649000Y-84801000D01*
X297649000Y-83599000D01*
X299751000Y-83599000D01*
X299751000Y-84801000D01*
X299751000Y-84801000D01*
G37*
G36*
X304551000Y-83101000D02*
G01*
X302449000Y-83101000D01*
X302449000Y-81899000D01*
X304551000Y-81899000D01*
X304551000Y-83101000D01*
X304551000Y-83101000D01*
G37*
G36*
X299751000Y-83101000D02*
G01*
X297649000Y-83101000D01*
X297649000Y-81899000D01*
X299751000Y-81899000D01*
X299751000Y-83101000D01*
X299751000Y-83101000D01*
G37*
G36*
X299751000Y-80501000D02*
G01*
X297649000Y-80501000D01*
X297649000Y-79299000D01*
X299751000Y-79299000D01*
X299751000Y-80501000D01*
X299751000Y-80501000D01*
G37*
G36*
X304551000Y-80501000D02*
G01*
X302449000Y-80501000D01*
X302449000Y-79299000D01*
X304551000Y-79299000D01*
X304551000Y-80501000D01*
X304551000Y-80501000D01*
G37*
G36*
X299751000Y-78801000D02*
G01*
X297649000Y-78801000D01*
X297649000Y-77599000D01*
X299751000Y-77599000D01*
X299751000Y-78801000D01*
X299751000Y-78801000D01*
G37*
G36*
X304551000Y-78801000D02*
G01*
X302449000Y-78801000D01*
X302449000Y-77599000D01*
X304551000Y-77599000D01*
X304551000Y-78801000D01*
X304551000Y-78801000D01*
G37*
G36*
X299751000Y-77101000D02*
G01*
X297649000Y-77101000D01*
X297649000Y-75899000D01*
X299751000Y-75899000D01*
X299751000Y-77101000D01*
X299751000Y-77101000D01*
G37*
G36*
X304551000Y-77101000D02*
G01*
X302449000Y-77101000D01*
X302449000Y-75899000D01*
X304551000Y-75899000D01*
X304551000Y-77101000D01*
X304551000Y-77101000D01*
G37*
G36*
X299751000Y-74501000D02*
G01*
X297649000Y-74501000D01*
X297649000Y-73299000D01*
X299751000Y-73299000D01*
X299751000Y-74501000D01*
X299751000Y-74501000D01*
G37*
G36*
X304551000Y-74501000D02*
G01*
X302449000Y-74501000D01*
X302449000Y-73299000D01*
X304551000Y-73299000D01*
X304551000Y-74501000D01*
X304551000Y-74501000D01*
G37*
G36*
X299751000Y-72801000D02*
G01*
X297649000Y-72801000D01*
X297649000Y-71599000D01*
X299751000Y-71599000D01*
X299751000Y-72801000D01*
X299751000Y-72801000D01*
G37*
G36*
X304551000Y-72801000D02*
G01*
X302449000Y-72801000D01*
X302449000Y-71599000D01*
X304551000Y-71599000D01*
X304551000Y-72801000D01*
X304551000Y-72801000D01*
G37*
G36*
X299751000Y-71101000D02*
G01*
X297649000Y-71101000D01*
X297649000Y-69899000D01*
X299751000Y-69899000D01*
X299751000Y-71101000D01*
X299751000Y-71101000D01*
G37*
G36*
X304551000Y-71101000D02*
G01*
X302449000Y-71101000D01*
X302449000Y-69899000D01*
X304551000Y-69899000D01*
X304551000Y-71101000D01*
X304551000Y-71101000D01*
G37*
G36*
X304551000Y-68501000D02*
G01*
X302449000Y-68501000D01*
X302449000Y-67299000D01*
X304551000Y-67299000D01*
X304551000Y-68501000D01*
X304551000Y-68501000D01*
G37*
G36*
X299751000Y-68501000D02*
G01*
X297649000Y-68501000D01*
X297649000Y-67299000D01*
X299751000Y-67299000D01*
X299751000Y-68501000D01*
X299751000Y-68501000D01*
G37*
G36*
X304551000Y-66801000D02*
G01*
X302449000Y-66801000D01*
X302449000Y-65599000D01*
X304551000Y-65599000D01*
X304551000Y-66801000D01*
X304551000Y-66801000D01*
G37*
G36*
X299751000Y-66801000D02*
G01*
X297649000Y-66801000D01*
X297649000Y-65599000D01*
X299751000Y-65599000D01*
X299751000Y-66801000D01*
X299751000Y-66801000D01*
G37*
G36*
X304551000Y-65101000D02*
G01*
X302449000Y-65101000D01*
X302449000Y-63899000D01*
X304551000Y-63899000D01*
X304551000Y-65101000D01*
X304551000Y-65101000D01*
G37*
G36*
X299751000Y-65101000D02*
G01*
X297649000Y-65101000D01*
X297649000Y-63899000D01*
X299751000Y-63899000D01*
X299751000Y-65101000D01*
X299751000Y-65101000D01*
G37*
G36*
X299751000Y-62501000D02*
G01*
X297649000Y-62501000D01*
X297649000Y-61299000D01*
X299751000Y-61299000D01*
X299751000Y-62501000D01*
X299751000Y-62501000D01*
G37*
G36*
X304551000Y-62501000D02*
G01*
X302449000Y-62501000D01*
X302449000Y-61299000D01*
X304551000Y-61299000D01*
X304551000Y-62501000D01*
X304551000Y-62501000D01*
G37*
G36*
X304551000Y-60801000D02*
G01*
X302449000Y-60801000D01*
X302449000Y-59599000D01*
X304551000Y-59599000D01*
X304551000Y-60801000D01*
X304551000Y-60801000D01*
G37*
G36*
X299751000Y-60801000D02*
G01*
X297649000Y-60801000D01*
X297649000Y-59599000D01*
X299751000Y-59599000D01*
X299751000Y-60801000D01*
X299751000Y-60801000D01*
G37*
G36*
X304551000Y-59101000D02*
G01*
X302449000Y-59101000D01*
X302449000Y-57899000D01*
X304551000Y-57899000D01*
X304551000Y-59101000D01*
X304551000Y-59101000D01*
G37*
G36*
X299751000Y-59101000D02*
G01*
X297649000Y-59101000D01*
X297649000Y-57899000D01*
X299751000Y-57899000D01*
X299751000Y-59101000D01*
X299751000Y-59101000D01*
G37*
G36*
X299751000Y-56501000D02*
G01*
X297649000Y-56501000D01*
X297649000Y-55299000D01*
X299751000Y-55299000D01*
X299751000Y-56501000D01*
X299751000Y-56501000D01*
G37*
G36*
X304551000Y-56501000D02*
G01*
X302449000Y-56501000D01*
X302449000Y-55299000D01*
X304551000Y-55299000D01*
X304551000Y-56501000D01*
X304551000Y-56501000D01*
G37*
G36*
X299751000Y-54801000D02*
G01*
X297649000Y-54801000D01*
X297649000Y-53599000D01*
X299751000Y-53599000D01*
X299751000Y-54801000D01*
X299751000Y-54801000D01*
G37*
G36*
X304551000Y-54801000D02*
G01*
X302449000Y-54801000D01*
X302449000Y-53599000D01*
X304551000Y-53599000D01*
X304551000Y-54801000D01*
X304551000Y-54801000D01*
G37*
G36*
X304551000Y-53101000D02*
G01*
X302449000Y-53101000D01*
X302449000Y-51899000D01*
X304551000Y-51899000D01*
X304551000Y-53101000D01*
X304551000Y-53101000D01*
G37*
G36*
X299751000Y-53101000D02*
G01*
X297649000Y-53101000D01*
X297649000Y-51899000D01*
X299751000Y-51899000D01*
X299751000Y-53101000D01*
X299751000Y-53101000D01*
G37*
G36*
X299751000Y-50501000D02*
G01*
X297649000Y-50501000D01*
X297649000Y-49299000D01*
X299751000Y-49299000D01*
X299751000Y-50501000D01*
X299751000Y-50501000D01*
G37*
G36*
X304551000Y-50501000D02*
G01*
X302449000Y-50501000D01*
X302449000Y-49299000D01*
X304551000Y-49299000D01*
X304551000Y-50501000D01*
X304551000Y-50501000D01*
G37*
G36*
X299751000Y-48801000D02*
G01*
X297649000Y-48801000D01*
X297649000Y-47599000D01*
X299751000Y-47599000D01*
X299751000Y-48801000D01*
X299751000Y-48801000D01*
G37*
G36*
X304551000Y-48801000D02*
G01*
X302449000Y-48801000D01*
X302449000Y-47599000D01*
X304551000Y-47599000D01*
X304551000Y-48801000D01*
X304551000Y-48801000D01*
G37*
G36*
X299751000Y-47101000D02*
G01*
X297649000Y-47101000D01*
X297649000Y-45899000D01*
X299751000Y-45899000D01*
X299751000Y-47101000D01*
X299751000Y-47101000D01*
G37*
G36*
X304551000Y-47101000D02*
G01*
X302449000Y-47101000D01*
X302449000Y-45899000D01*
X304551000Y-45899000D01*
X304551000Y-47101000D01*
X304551000Y-47101000D01*
G37*
M02*
