M48
; DRILL file {KiCad (5.1.4)-1} date 16.09.2019 17:17:10
; FORMAT={-:-/ absolute / inch / decimal}
; #@! TF.CreationDate,2019-09-16T17:17:10+02:00
; #@! TF.GenerationSoftware,Kicad,Pcbnew,(5.1.4)-1
; #@! TF.FileFunction,Plated,1,2,PTH
FMAT,2
INCH
T1C0.0157
T2C0.0315
T3C0.0394
T4C0.0472
T5C0.1299
%
G90
G05
T1
X9.856Y-9.0463
X10.0079Y-8.4252
X10.046Y-8.9038
X10.1485Y-10.3863
X10.1575Y-8.4409
X10.161Y-10.4988
X10.1811Y-8.3622
X10.236Y-10.3238
X10.286Y-10.3988
X10.2992Y-8.8583
X10.341Y-8.5088
X10.3465Y-7.9528
X10.4016Y-9.0157
X10.4331Y-7.8819
X10.476Y-8.3588
X10.476Y-9.2688
X10.476Y-10.3138
X10.496Y-10.2588
X10.5197Y-7.811
X10.556Y-9.5088
X10.5842Y-10.3785
X10.6063Y-7.7402
X10.611Y-9.5038
X10.641Y-9.6688
X10.666Y-9.4988
X10.686Y-9.6638
X10.706Y-9.9588
X10.716Y-9.4938
X10.726Y-9.6588
X10.766Y-9.9538
X10.7691Y-8.3372
X10.771Y-9.3238
X10.771Y-9.4888
X10.771Y-9.6538
X10.816Y-9.6488
X10.821Y-9.4838
X10.826Y-9.9538
X10.881Y-9.9288
X10.926Y-9.8888
X11.063Y-7.4961
X11.0951Y-7.6687
X11.096Y-10.3888
X11.106Y-10.0288
X11.1575Y-7.4882
X11.166Y-10.3538
X11.2047Y-7.6299
X11.226Y-10.3338
X11.231Y-10.8288
X11.236Y-10.1588
X11.252Y-7.5827
X11.281Y-10.3138
X11.331Y-10.2838
X11.341Y-10.2238
X11.375Y-8.6278
X11.381Y-10.7738
X11.401Y-11.3988
X11.521Y-8.6188
X11.596Y-8.1438
X11.596Y-8.1838
X11.596Y-8.2238
X11.596Y-8.2638
X11.596Y-8.3038
X11.611Y-8.4188
X11.6142Y-7.5157
X11.6142Y-7.7953
X11.651Y-7.7088
X11.656Y-11.1488
X11.676Y-7.4688
X11.761Y-7.7088
X11.811Y-8.4388
X11.831Y-8.1388
X11.831Y-8.1788
X11.831Y-8.2188
X11.831Y-8.2588
X11.831Y-8.2988
X11.856Y-10.6538
X11.866Y-8.5888
X11.871Y-10.9238
X11.901Y-7.5288
X11.9685Y-7.4016
X11.9685Y-7.7165
X11.986Y-10.9238
X12.176Y-8.6338
X12.386Y-8.7338
X12.426Y-8.1988
X12.431Y-10.1438
X12.506Y-8.2738
X12.586Y-8.8388
X12.601Y-8.3338
X12.631Y-8.8088
X12.671Y-8.9888
X12.676Y-8.7788
X12.6825Y-9.0574
X12.7163Y-9.926
X12.726Y-8.7438
X12.726Y-8.9538
X12.7754Y-9.8238
X12.776Y-8.7138
X12.776Y-8.9188
X12.826Y-8.6788
X12.826Y-8.8838
X12.876Y-8.8538
X12.881Y-8.6438
X12.926Y-8.8188
X12.931Y-8.6088
X12.981Y-8.7788
X13.031Y-8.7438
X13.101Y-10.2838
X13.1588Y-8.9311
X13.191Y-9.7588
X13.201Y-9.0638
X13.211Y-9.1138
X13.211Y-9.6888
X13.2154Y-10.4415
X13.221Y-9.1638
X13.221Y-9.6288
X13.226Y-9.2138
X13.231Y-9.5688
X13.236Y-9.2638
X13.241Y-9.3188
X13.241Y-9.3788
X13.241Y-9.4438
X13.241Y-9.5038
X13.281Y-10.3588
X13.311Y-9.1988
X13.3631Y-10.1858
X13.366Y-9.0488
X13.3736Y-9.2612
X13.386Y-10.2488
X13.401Y-8.9438
X13.511Y-9.6338
X13.521Y-10.4938
X13.5223Y-10.6187
X13.546Y-9.7138
X13.5713Y-9.4488
X13.5758Y-10.3086
X13.576Y-9.7588
X13.586Y-9.0988
X13.586Y-10.3688
X13.606Y-9.8038
X13.656Y-9.6438
X13.701Y-9.6938
X13.711Y-9.1488
X13.746Y-9.7488
X13.786Y-9.7988
T2
X13.2436Y-8.8178
X13.2769Y-8.8892
X13.0358Y-8.1564
X13.0961Y-8.1057
T3
X12.6223Y-10.8658
X12.6646Y-10.9565
X12.7068Y-11.0471
X12.7491Y-11.1377
X12.7913Y-11.2283
X13.7953Y-9.1535
X13.7953Y-9.2535
X13.7953Y-9.3535
X13.7953Y-9.4535
X13.7953Y-9.5535
X13.7953Y-9.6535
X10.138Y-10.1038
X10.2246Y-10.0538
X10.3112Y-10.0038
X10.3978Y-9.9538
X10.4126Y-10.5794
X10.4992Y-10.5294
X10.5219Y-10.0199
X10.5719Y-10.1065
X10.5858Y-10.4794
X10.6219Y-10.1931
X10.6719Y-10.2797
X10.6724Y-10.4294
X12.7402Y-10.7343
X13.1732Y-10.9843
X12.6274Y-8.1061
X12.7886Y-8.219
X9.811Y-9.8661
X10.244Y-9.6161
X12.9502Y-10.2797
X12.955Y-10.4202
X13.0002Y-10.1931
X13.0416Y-10.4702
X13.0502Y-10.1065
X13.1002Y-10.0199
X13.1282Y-10.5202
X13.2148Y-10.5702
X13.2296Y-9.9446
X13.3162Y-9.9946
X13.4028Y-10.0446
X13.4894Y-10.0946
X10.2467Y-8.2472
X10.311Y-8.3238
X10.3233Y-8.1829
X10.3876Y-8.2595
X10.4Y-8.1187
X10.4642Y-8.1953
X10.4766Y-8.0544
X10.5408Y-8.131
X10.5532Y-7.9901
X10.6174Y-8.0667
X10.6298Y-7.9258
X10.694Y-8.0024
X10.7064Y-7.8615
X10.7707Y-7.9381
X10.783Y-7.7973
X10.8473Y-7.8739
X10.8596Y-7.733
X10.9239Y-7.8096
X10.9362Y-7.6687
X11.0005Y-7.7453
X11.5311Y-7.6724
X11.5311Y-7.7724
X11.5311Y-7.8724
X11.5311Y-7.9724
X11.661Y-8.0469
X11.761Y-8.0469
X11.861Y-8.0469
X11.961Y-8.0469
X12.0803Y-7.6724
X12.0803Y-7.7724
X12.0803Y-7.8724
X12.0803Y-7.9724
X12.4213Y-7.4803
X12.4213Y-7.9803
T4
X13.1977Y-8.5279
X13.4234Y-8.3699
T5
X11.4567Y-7.4803
X12.1654Y-7.4803
X9.9291Y-10.1262
X10.2834Y-10.7399
X13.3386Y-10.7399
X13.693Y-10.1262
T0
M30
