G04 #@! TF.GenerationSoftware,KiCad,Pcbnew,(5.1.4)-1*
G04 #@! TF.CreationDate,2019-09-16T17:17:07+02:00*
G04 #@! TF.ProjectId,PixelFan,50697865-6c46-4616-9e2e-6b696361645f,rev?*
G04 #@! TF.SameCoordinates,Original*
G04 #@! TF.FileFunction,Copper,L1,Top*
G04 #@! TF.FilePolarity,Positive*
%FSLAX46Y46*%
G04 Gerber Fmt 4.6, Leading zero omitted, Abs format (unit mm)*
G04 Created by KiCad (PCBNEW (5.1.4)-1) date 2019-09-16 17:17:07*
%MOMM*%
%LPD*%
G04 APERTURE LIST*
%ADD10C,3.300000*%
%ADD11C,2.000000*%
%ADD12C,0.100000*%
%ADD13C,1.600000*%
%ADD14C,1.150000*%
%ADD15C,1.700000*%
%ADD16C,1.700000*%
%ADD17C,2.400000*%
%ADD18C,1.500000*%
%ADD19C,0.500000*%
%ADD20R,1.000000X2.500000*%
%ADD21R,1.800000X1.000000*%
%ADD22R,0.650000X1.560000*%
%ADD23R,1.700000X1.700000*%
%ADD24O,1.700000X1.700000*%
%ADD25C,4.000000*%
%ADD26C,2.000000*%
%ADD27O,2.000000X2.000000*%
%ADD28C,0.800000*%
%ADD29C,1.500000*%
%ADD30C,0.500000*%
%ADD31C,1.000000*%
%ADD32C,0.250000*%
%ADD33C,0.254000*%
G04 APERTURE END LIST*
D10*
X252198730Y-257205771D03*
X261198730Y-272794229D03*
D11*
X264479934Y-268717441D03*
X266679639Y-267447441D03*
X268879343Y-266177441D03*
X271079048Y-264907441D03*
X267255836Y-254505443D03*
X268525836Y-256705148D03*
X269795836Y-258904852D03*
X271065836Y-261104557D03*
X257504934Y-256636386D03*
X259704639Y-255366386D03*
X261904343Y-254096386D03*
X264104048Y-252826386D03*
D10*
X309000000Y-190000000D03*
X291000000Y-190000000D03*
D11*
X292890000Y-194880000D03*
X292890000Y-197420000D03*
X292890000Y-199960000D03*
X292890000Y-202500000D03*
X303810000Y-204390000D03*
X301270000Y-204390000D03*
X298730000Y-204390000D03*
X296190000Y-204390000D03*
X306840000Y-194880000D03*
X306840000Y-197420000D03*
X306840000Y-199960000D03*
X306840000Y-202500000D03*
D10*
X338801270Y-272794229D03*
X347801270Y-257205771D03*
D11*
X342630066Y-256402559D03*
X340430361Y-255132559D03*
X338230657Y-253862559D03*
X336030952Y-252592559D03*
X328934164Y-261104557D03*
X330204164Y-258904852D03*
X331474164Y-256705148D03*
X332744164Y-254505443D03*
X335655066Y-268483614D03*
X333455361Y-267213614D03*
X331255657Y-265943614D03*
X329055952Y-264673614D03*
X324830998Y-208762337D03*
D12*
G36*
X326223726Y-208516761D02*
G01*
X325076574Y-210155065D01*
X323438270Y-209007913D01*
X324585422Y-207369609D01*
X326223726Y-208516761D01*
X326223726Y-208516761D01*
G37*
D11*
X320735238Y-205894455D03*
D13*
X332641625Y-205885862D03*
D12*
G36*
X332740230Y-204758796D02*
G01*
X333768691Y-205984467D01*
X332543020Y-207012928D01*
X331514559Y-205787257D01*
X332740230Y-204758796D01*
X332740230Y-204758796D01*
G37*
D13*
X331109536Y-207171437D03*
X337233532Y-225784453D03*
X336388295Y-223971837D03*
D12*
G36*
X335325154Y-223584885D02*
G01*
X336775247Y-222908696D01*
X337451436Y-224358789D01*
X336001343Y-225034978D01*
X335325154Y-223584885D01*
X335325154Y-223584885D01*
G37*
G36*
X331165668Y-227072175D02*
G01*
X331190041Y-227074979D01*
X331214022Y-227080159D01*
X331237379Y-227087664D01*
X331259889Y-227097422D01*
X331281334Y-227109339D01*
X331301507Y-227123302D01*
X331320214Y-227139174D01*
X331337276Y-227156803D01*
X331352528Y-227176020D01*
X331365823Y-227196640D01*
X331815824Y-227976065D01*
X331827033Y-227997888D01*
X331836050Y-228020705D01*
X331842786Y-228044295D01*
X331847178Y-228068433D01*
X331849183Y-228092884D01*
X331848782Y-228117415D01*
X331845978Y-228141788D01*
X331840798Y-228165769D01*
X331833294Y-228189126D01*
X331823535Y-228211636D01*
X331811618Y-228233080D01*
X331797656Y-228253254D01*
X331781783Y-228271961D01*
X331764154Y-228289023D01*
X331744937Y-228304275D01*
X331724317Y-228317570D01*
X331161398Y-228642571D01*
X331139575Y-228653780D01*
X331116758Y-228662797D01*
X331093168Y-228669533D01*
X331069030Y-228673925D01*
X331044579Y-228675930D01*
X331020048Y-228675529D01*
X330995675Y-228672725D01*
X330971694Y-228667545D01*
X330948337Y-228660040D01*
X330925827Y-228650282D01*
X330904382Y-228638365D01*
X330884209Y-228624402D01*
X330865502Y-228608530D01*
X330848440Y-228590901D01*
X330833188Y-228571684D01*
X330819893Y-228551064D01*
X330369892Y-227771639D01*
X330358683Y-227749816D01*
X330349666Y-227726999D01*
X330342930Y-227703409D01*
X330338538Y-227679271D01*
X330336533Y-227654820D01*
X330336934Y-227630289D01*
X330339738Y-227605916D01*
X330344918Y-227581935D01*
X330352422Y-227558578D01*
X330362181Y-227536068D01*
X330374098Y-227514624D01*
X330388060Y-227494450D01*
X330403933Y-227475743D01*
X330421562Y-227458681D01*
X330440779Y-227443429D01*
X330461399Y-227430134D01*
X331024318Y-227105133D01*
X331046141Y-227093924D01*
X331068958Y-227084907D01*
X331092548Y-227078171D01*
X331116686Y-227073779D01*
X331141137Y-227071774D01*
X331165668Y-227072175D01*
X331165668Y-227072175D01*
G37*
D14*
X331092858Y-227873852D03*
D12*
G36*
X332941020Y-226047175D02*
G01*
X332965393Y-226049979D01*
X332989374Y-226055159D01*
X333012731Y-226062664D01*
X333035241Y-226072422D01*
X333056686Y-226084339D01*
X333076859Y-226098302D01*
X333095566Y-226114174D01*
X333112628Y-226131803D01*
X333127880Y-226151020D01*
X333141175Y-226171640D01*
X333591176Y-226951065D01*
X333602385Y-226972888D01*
X333611402Y-226995705D01*
X333618138Y-227019295D01*
X333622530Y-227043433D01*
X333624535Y-227067884D01*
X333624134Y-227092415D01*
X333621330Y-227116788D01*
X333616150Y-227140769D01*
X333608646Y-227164126D01*
X333598887Y-227186636D01*
X333586970Y-227208080D01*
X333573008Y-227228254D01*
X333557135Y-227246961D01*
X333539506Y-227264023D01*
X333520289Y-227279275D01*
X333499669Y-227292570D01*
X332936750Y-227617571D01*
X332914927Y-227628780D01*
X332892110Y-227637797D01*
X332868520Y-227644533D01*
X332844382Y-227648925D01*
X332819931Y-227650930D01*
X332795400Y-227650529D01*
X332771027Y-227647725D01*
X332747046Y-227642545D01*
X332723689Y-227635040D01*
X332701179Y-227625282D01*
X332679734Y-227613365D01*
X332659561Y-227599402D01*
X332640854Y-227583530D01*
X332623792Y-227565901D01*
X332608540Y-227546684D01*
X332595245Y-227526064D01*
X332145244Y-226746639D01*
X332134035Y-226724816D01*
X332125018Y-226701999D01*
X332118282Y-226678409D01*
X332113890Y-226654271D01*
X332111885Y-226629820D01*
X332112286Y-226605289D01*
X332115090Y-226580916D01*
X332120270Y-226556935D01*
X332127774Y-226533578D01*
X332137533Y-226511068D01*
X332149450Y-226489624D01*
X332163412Y-226469450D01*
X332179285Y-226450743D01*
X332196914Y-226433681D01*
X332216131Y-226418429D01*
X332236751Y-226405134D01*
X332799670Y-226080133D01*
X332821493Y-226068924D01*
X332844310Y-226059907D01*
X332867900Y-226053171D01*
X332892038Y-226048779D01*
X332916489Y-226046774D01*
X332941020Y-226047175D01*
X332941020Y-226047175D01*
G37*
D14*
X332868210Y-226848852D03*
D12*
G36*
X347464505Y-232296204D02*
G01*
X347488773Y-232299804D01*
X347512572Y-232305765D01*
X347535671Y-232314030D01*
X347557850Y-232324520D01*
X347578893Y-232337132D01*
X347598599Y-232351747D01*
X347616777Y-232368223D01*
X347633253Y-232386401D01*
X347647868Y-232406107D01*
X347660480Y-232427150D01*
X347670970Y-232449329D01*
X347679235Y-232472428D01*
X347685196Y-232496227D01*
X347688796Y-232520495D01*
X347690000Y-232544999D01*
X347690000Y-233195001D01*
X347688796Y-233219505D01*
X347685196Y-233243773D01*
X347679235Y-233267572D01*
X347670970Y-233290671D01*
X347660480Y-233312850D01*
X347647868Y-233333893D01*
X347633253Y-233353599D01*
X347616777Y-233371777D01*
X347598599Y-233388253D01*
X347578893Y-233402868D01*
X347557850Y-233415480D01*
X347535671Y-233425970D01*
X347512572Y-233434235D01*
X347488773Y-233440196D01*
X347464505Y-233443796D01*
X347440001Y-233445000D01*
X346539999Y-233445000D01*
X346515495Y-233443796D01*
X346491227Y-233440196D01*
X346467428Y-233434235D01*
X346444329Y-233425970D01*
X346422150Y-233415480D01*
X346401107Y-233402868D01*
X346381401Y-233388253D01*
X346363223Y-233371777D01*
X346346747Y-233353599D01*
X346332132Y-233333893D01*
X346319520Y-233312850D01*
X346309030Y-233290671D01*
X346300765Y-233267572D01*
X346294804Y-233243773D01*
X346291204Y-233219505D01*
X346290000Y-233195001D01*
X346290000Y-232544999D01*
X346291204Y-232520495D01*
X346294804Y-232496227D01*
X346300765Y-232472428D01*
X346309030Y-232449329D01*
X346319520Y-232427150D01*
X346332132Y-232406107D01*
X346346747Y-232386401D01*
X346363223Y-232368223D01*
X346381401Y-232351747D01*
X346401107Y-232337132D01*
X346422150Y-232324520D01*
X346444329Y-232314030D01*
X346467428Y-232305765D01*
X346491227Y-232299804D01*
X346515495Y-232296204D01*
X346539999Y-232295000D01*
X347440001Y-232295000D01*
X347464505Y-232296204D01*
X347464505Y-232296204D01*
G37*
D14*
X346990000Y-232870000D03*
D12*
G36*
X347464505Y-234346204D02*
G01*
X347488773Y-234349804D01*
X347512572Y-234355765D01*
X347535671Y-234364030D01*
X347557850Y-234374520D01*
X347578893Y-234387132D01*
X347598599Y-234401747D01*
X347616777Y-234418223D01*
X347633253Y-234436401D01*
X347647868Y-234456107D01*
X347660480Y-234477150D01*
X347670970Y-234499329D01*
X347679235Y-234522428D01*
X347685196Y-234546227D01*
X347688796Y-234570495D01*
X347690000Y-234594999D01*
X347690000Y-235245001D01*
X347688796Y-235269505D01*
X347685196Y-235293773D01*
X347679235Y-235317572D01*
X347670970Y-235340671D01*
X347660480Y-235362850D01*
X347647868Y-235383893D01*
X347633253Y-235403599D01*
X347616777Y-235421777D01*
X347598599Y-235438253D01*
X347578893Y-235452868D01*
X347557850Y-235465480D01*
X347535671Y-235475970D01*
X347512572Y-235484235D01*
X347488773Y-235490196D01*
X347464505Y-235493796D01*
X347440001Y-235495000D01*
X346539999Y-235495000D01*
X346515495Y-235493796D01*
X346491227Y-235490196D01*
X346467428Y-235484235D01*
X346444329Y-235475970D01*
X346422150Y-235465480D01*
X346401107Y-235452868D01*
X346381401Y-235438253D01*
X346363223Y-235421777D01*
X346346747Y-235403599D01*
X346332132Y-235383893D01*
X346319520Y-235362850D01*
X346309030Y-235340671D01*
X346300765Y-235317572D01*
X346294804Y-235293773D01*
X346291204Y-235269505D01*
X346290000Y-235245001D01*
X346290000Y-234594999D01*
X346291204Y-234570495D01*
X346294804Y-234546227D01*
X346300765Y-234522428D01*
X346309030Y-234499329D01*
X346319520Y-234477150D01*
X346332132Y-234456107D01*
X346346747Y-234436401D01*
X346363223Y-234418223D01*
X346381401Y-234401747D01*
X346401107Y-234387132D01*
X346422150Y-234374520D01*
X346444329Y-234364030D01*
X346467428Y-234355765D01*
X346491227Y-234349804D01*
X346515495Y-234346204D01*
X346539999Y-234345000D01*
X347440001Y-234345000D01*
X347464505Y-234346204D01*
X347464505Y-234346204D01*
G37*
D14*
X346990000Y-234920000D03*
D12*
G36*
X339964505Y-238031204D02*
G01*
X339988773Y-238034804D01*
X340012572Y-238040765D01*
X340035671Y-238049030D01*
X340057850Y-238059520D01*
X340078893Y-238072132D01*
X340098599Y-238086747D01*
X340116777Y-238103223D01*
X340133253Y-238121401D01*
X340147868Y-238141107D01*
X340160480Y-238162150D01*
X340170970Y-238184329D01*
X340179235Y-238207428D01*
X340185196Y-238231227D01*
X340188796Y-238255495D01*
X340190000Y-238279999D01*
X340190000Y-239180001D01*
X340188796Y-239204505D01*
X340185196Y-239228773D01*
X340179235Y-239252572D01*
X340170970Y-239275671D01*
X340160480Y-239297850D01*
X340147868Y-239318893D01*
X340133253Y-239338599D01*
X340116777Y-239356777D01*
X340098599Y-239373253D01*
X340078893Y-239387868D01*
X340057850Y-239400480D01*
X340035671Y-239410970D01*
X340012572Y-239419235D01*
X339988773Y-239425196D01*
X339964505Y-239428796D01*
X339940001Y-239430000D01*
X339289999Y-239430000D01*
X339265495Y-239428796D01*
X339241227Y-239425196D01*
X339217428Y-239419235D01*
X339194329Y-239410970D01*
X339172150Y-239400480D01*
X339151107Y-239387868D01*
X339131401Y-239373253D01*
X339113223Y-239356777D01*
X339096747Y-239338599D01*
X339082132Y-239318893D01*
X339069520Y-239297850D01*
X339059030Y-239275671D01*
X339050765Y-239252572D01*
X339044804Y-239228773D01*
X339041204Y-239204505D01*
X339040000Y-239180001D01*
X339040000Y-238279999D01*
X339041204Y-238255495D01*
X339044804Y-238231227D01*
X339050765Y-238207428D01*
X339059030Y-238184329D01*
X339069520Y-238162150D01*
X339082132Y-238141107D01*
X339096747Y-238121401D01*
X339113223Y-238103223D01*
X339131401Y-238086747D01*
X339151107Y-238072132D01*
X339172150Y-238059520D01*
X339194329Y-238049030D01*
X339217428Y-238040765D01*
X339241227Y-238034804D01*
X339265495Y-238031204D01*
X339289999Y-238030000D01*
X339940001Y-238030000D01*
X339964505Y-238031204D01*
X339964505Y-238031204D01*
G37*
D14*
X339615000Y-238730000D03*
D12*
G36*
X342014505Y-238031204D02*
G01*
X342038773Y-238034804D01*
X342062572Y-238040765D01*
X342085671Y-238049030D01*
X342107850Y-238059520D01*
X342128893Y-238072132D01*
X342148599Y-238086747D01*
X342166777Y-238103223D01*
X342183253Y-238121401D01*
X342197868Y-238141107D01*
X342210480Y-238162150D01*
X342220970Y-238184329D01*
X342229235Y-238207428D01*
X342235196Y-238231227D01*
X342238796Y-238255495D01*
X342240000Y-238279999D01*
X342240000Y-239180001D01*
X342238796Y-239204505D01*
X342235196Y-239228773D01*
X342229235Y-239252572D01*
X342220970Y-239275671D01*
X342210480Y-239297850D01*
X342197868Y-239318893D01*
X342183253Y-239338599D01*
X342166777Y-239356777D01*
X342148599Y-239373253D01*
X342128893Y-239387868D01*
X342107850Y-239400480D01*
X342085671Y-239410970D01*
X342062572Y-239419235D01*
X342038773Y-239425196D01*
X342014505Y-239428796D01*
X341990001Y-239430000D01*
X341339999Y-239430000D01*
X341315495Y-239428796D01*
X341291227Y-239425196D01*
X341267428Y-239419235D01*
X341244329Y-239410970D01*
X341222150Y-239400480D01*
X341201107Y-239387868D01*
X341181401Y-239373253D01*
X341163223Y-239356777D01*
X341146747Y-239338599D01*
X341132132Y-239318893D01*
X341119520Y-239297850D01*
X341109030Y-239275671D01*
X341100765Y-239252572D01*
X341094804Y-239228773D01*
X341091204Y-239204505D01*
X341090000Y-239180001D01*
X341090000Y-238279999D01*
X341091204Y-238255495D01*
X341094804Y-238231227D01*
X341100765Y-238207428D01*
X341109030Y-238184329D01*
X341119520Y-238162150D01*
X341132132Y-238141107D01*
X341146747Y-238121401D01*
X341163223Y-238103223D01*
X341181401Y-238086747D01*
X341201107Y-238072132D01*
X341222150Y-238059520D01*
X341244329Y-238049030D01*
X341267428Y-238040765D01*
X341291227Y-238034804D01*
X341315495Y-238031204D01*
X341339999Y-238030000D01*
X341990001Y-238030000D01*
X342014505Y-238031204D01*
X342014505Y-238031204D01*
G37*
D14*
X341665000Y-238730000D03*
D15*
X324900000Y-285200000D03*
D12*
G36*
X325311136Y-284070413D02*
G01*
X326029587Y-285611136D01*
X324488864Y-286329587D01*
X323770413Y-284788864D01*
X325311136Y-284070413D01*
X325311136Y-284070413D01*
G37*
D15*
X323826550Y-282897978D03*
D16*
X323826550Y-282897978D02*
X323826550Y-282897978D01*
D15*
X322753099Y-280595956D03*
D16*
X322753099Y-280595956D02*
X322753099Y-280595956D01*
D15*
X321679649Y-278293935D03*
D16*
X321679649Y-278293935D02*
X321679649Y-278293935D01*
D15*
X320606198Y-275991913D03*
D16*
X320606198Y-275991913D02*
X320606198Y-275991913D01*
D17*
X340954393Y-212594702D03*
X335220329Y-216609737D03*
D12*
G36*
X274838745Y-213201172D02*
G01*
X274863118Y-213203976D01*
X274887099Y-213209156D01*
X275514953Y-213377389D01*
X275538310Y-213384893D01*
X275560820Y-213394652D01*
X275582264Y-213406569D01*
X275602438Y-213420531D01*
X275621145Y-213436404D01*
X275638207Y-213454033D01*
X275653459Y-213473250D01*
X275666753Y-213493870D01*
X275677963Y-213515693D01*
X275686980Y-213538509D01*
X275693716Y-213562100D01*
X275698108Y-213586238D01*
X275700113Y-213610689D01*
X275699712Y-213635220D01*
X275696908Y-213659593D01*
X275691728Y-213683574D01*
X275458790Y-214552909D01*
X275451286Y-214576266D01*
X275441527Y-214598776D01*
X275429610Y-214620221D01*
X275415647Y-214640394D01*
X275399775Y-214659101D01*
X275382146Y-214676163D01*
X275362929Y-214691415D01*
X275342309Y-214704710D01*
X275320486Y-214715919D01*
X275297669Y-214724936D01*
X275274079Y-214731672D01*
X275249941Y-214736064D01*
X275225490Y-214738069D01*
X275200959Y-214737668D01*
X275176586Y-214734864D01*
X275152605Y-214729684D01*
X274524751Y-214561451D01*
X274501394Y-214553947D01*
X274478884Y-214544188D01*
X274457440Y-214532271D01*
X274437266Y-214518309D01*
X274418559Y-214502436D01*
X274401497Y-214484807D01*
X274386245Y-214465590D01*
X274372951Y-214444970D01*
X274361741Y-214423147D01*
X274352724Y-214400331D01*
X274345988Y-214376740D01*
X274341596Y-214352602D01*
X274339591Y-214328151D01*
X274339992Y-214303620D01*
X274342796Y-214279247D01*
X274347976Y-214255266D01*
X274580914Y-213385931D01*
X274588418Y-213362574D01*
X274598177Y-213340064D01*
X274610094Y-213318619D01*
X274624057Y-213298446D01*
X274639929Y-213279739D01*
X274657558Y-213262677D01*
X274676775Y-213247425D01*
X274697395Y-213234130D01*
X274719218Y-213222921D01*
X274742035Y-213213904D01*
X274765625Y-213207168D01*
X274789763Y-213202776D01*
X274814214Y-213200771D01*
X274838745Y-213201172D01*
X274838745Y-213201172D01*
G37*
D14*
X275019852Y-213969420D03*
D12*
G36*
X276818893Y-213731752D02*
G01*
X276843266Y-213734556D01*
X276867247Y-213739736D01*
X277495101Y-213907969D01*
X277518458Y-213915473D01*
X277540968Y-213925232D01*
X277562412Y-213937149D01*
X277582586Y-213951111D01*
X277601293Y-213966984D01*
X277618355Y-213984613D01*
X277633607Y-214003830D01*
X277646901Y-214024450D01*
X277658111Y-214046273D01*
X277667128Y-214069089D01*
X277673864Y-214092680D01*
X277678256Y-214116818D01*
X277680261Y-214141269D01*
X277679860Y-214165800D01*
X277677056Y-214190173D01*
X277671876Y-214214154D01*
X277438938Y-215083489D01*
X277431434Y-215106846D01*
X277421675Y-215129356D01*
X277409758Y-215150801D01*
X277395795Y-215170974D01*
X277379923Y-215189681D01*
X277362294Y-215206743D01*
X277343077Y-215221995D01*
X277322457Y-215235290D01*
X277300634Y-215246499D01*
X277277817Y-215255516D01*
X277254227Y-215262252D01*
X277230089Y-215266644D01*
X277205638Y-215268649D01*
X277181107Y-215268248D01*
X277156734Y-215265444D01*
X277132753Y-215260264D01*
X276504899Y-215092031D01*
X276481542Y-215084527D01*
X276459032Y-215074768D01*
X276437588Y-215062851D01*
X276417414Y-215048889D01*
X276398707Y-215033016D01*
X276381645Y-215015387D01*
X276366393Y-214996170D01*
X276353099Y-214975550D01*
X276341889Y-214953727D01*
X276332872Y-214930911D01*
X276326136Y-214907320D01*
X276321744Y-214883182D01*
X276319739Y-214858731D01*
X276320140Y-214834200D01*
X276322944Y-214809827D01*
X276328124Y-214785846D01*
X276561062Y-213916511D01*
X276568566Y-213893154D01*
X276578325Y-213870644D01*
X276590242Y-213849199D01*
X276604205Y-213829026D01*
X276620077Y-213810319D01*
X276637706Y-213793257D01*
X276656923Y-213778005D01*
X276677543Y-213764710D01*
X276699366Y-213753501D01*
X276722183Y-213744484D01*
X276745773Y-213737748D01*
X276769911Y-213733356D01*
X276794362Y-213731351D01*
X276818893Y-213731752D01*
X276818893Y-213731752D01*
G37*
D14*
X277000000Y-214500000D03*
D12*
G36*
X284846505Y-287815204D02*
G01*
X284870773Y-287818804D01*
X284894572Y-287824765D01*
X284917671Y-287833030D01*
X284939850Y-287843520D01*
X284960893Y-287856132D01*
X284980599Y-287870747D01*
X284998777Y-287887223D01*
X285015253Y-287905401D01*
X285029868Y-287925107D01*
X285042480Y-287946150D01*
X285052970Y-287968329D01*
X285061235Y-287991428D01*
X285067196Y-288015227D01*
X285070796Y-288039495D01*
X285072000Y-288063999D01*
X285072000Y-288964001D01*
X285070796Y-288988505D01*
X285067196Y-289012773D01*
X285061235Y-289036572D01*
X285052970Y-289059671D01*
X285042480Y-289081850D01*
X285029868Y-289102893D01*
X285015253Y-289122599D01*
X284998777Y-289140777D01*
X284980599Y-289157253D01*
X284960893Y-289171868D01*
X284939850Y-289184480D01*
X284917671Y-289194970D01*
X284894572Y-289203235D01*
X284870773Y-289209196D01*
X284846505Y-289212796D01*
X284822001Y-289214000D01*
X284171999Y-289214000D01*
X284147495Y-289212796D01*
X284123227Y-289209196D01*
X284099428Y-289203235D01*
X284076329Y-289194970D01*
X284054150Y-289184480D01*
X284033107Y-289171868D01*
X284013401Y-289157253D01*
X283995223Y-289140777D01*
X283978747Y-289122599D01*
X283964132Y-289102893D01*
X283951520Y-289081850D01*
X283941030Y-289059671D01*
X283932765Y-289036572D01*
X283926804Y-289012773D01*
X283923204Y-288988505D01*
X283922000Y-288964001D01*
X283922000Y-288063999D01*
X283923204Y-288039495D01*
X283926804Y-288015227D01*
X283932765Y-287991428D01*
X283941030Y-287968329D01*
X283951520Y-287946150D01*
X283964132Y-287925107D01*
X283978747Y-287905401D01*
X283995223Y-287887223D01*
X284013401Y-287870747D01*
X284033107Y-287856132D01*
X284054150Y-287843520D01*
X284076329Y-287833030D01*
X284099428Y-287824765D01*
X284123227Y-287818804D01*
X284147495Y-287815204D01*
X284171999Y-287814000D01*
X284822001Y-287814000D01*
X284846505Y-287815204D01*
X284846505Y-287815204D01*
G37*
D14*
X284497000Y-288514000D03*
D12*
G36*
X286896505Y-287815204D02*
G01*
X286920773Y-287818804D01*
X286944572Y-287824765D01*
X286967671Y-287833030D01*
X286989850Y-287843520D01*
X287010893Y-287856132D01*
X287030599Y-287870747D01*
X287048777Y-287887223D01*
X287065253Y-287905401D01*
X287079868Y-287925107D01*
X287092480Y-287946150D01*
X287102970Y-287968329D01*
X287111235Y-287991428D01*
X287117196Y-288015227D01*
X287120796Y-288039495D01*
X287122000Y-288063999D01*
X287122000Y-288964001D01*
X287120796Y-288988505D01*
X287117196Y-289012773D01*
X287111235Y-289036572D01*
X287102970Y-289059671D01*
X287092480Y-289081850D01*
X287079868Y-289102893D01*
X287065253Y-289122599D01*
X287048777Y-289140777D01*
X287030599Y-289157253D01*
X287010893Y-289171868D01*
X286989850Y-289184480D01*
X286967671Y-289194970D01*
X286944572Y-289203235D01*
X286920773Y-289209196D01*
X286896505Y-289212796D01*
X286872001Y-289214000D01*
X286221999Y-289214000D01*
X286197495Y-289212796D01*
X286173227Y-289209196D01*
X286149428Y-289203235D01*
X286126329Y-289194970D01*
X286104150Y-289184480D01*
X286083107Y-289171868D01*
X286063401Y-289157253D01*
X286045223Y-289140777D01*
X286028747Y-289122599D01*
X286014132Y-289102893D01*
X286001520Y-289081850D01*
X285991030Y-289059671D01*
X285982765Y-289036572D01*
X285976804Y-289012773D01*
X285973204Y-288988505D01*
X285972000Y-288964001D01*
X285972000Y-288063999D01*
X285973204Y-288039495D01*
X285976804Y-288015227D01*
X285982765Y-287991428D01*
X285991030Y-287968329D01*
X286001520Y-287946150D01*
X286014132Y-287925107D01*
X286028747Y-287905401D01*
X286045223Y-287887223D01*
X286063401Y-287870747D01*
X286083107Y-287856132D01*
X286104150Y-287843520D01*
X286126329Y-287833030D01*
X286149428Y-287824765D01*
X286173227Y-287818804D01*
X286197495Y-287815204D01*
X286221999Y-287814000D01*
X286872001Y-287814000D01*
X286896505Y-287815204D01*
X286896505Y-287815204D01*
G37*
D14*
X286547000Y-288514000D03*
D12*
G36*
X342014505Y-235882095D02*
G01*
X342038773Y-235885695D01*
X342062572Y-235891656D01*
X342085671Y-235899921D01*
X342107850Y-235910411D01*
X342128893Y-235923023D01*
X342148599Y-235937638D01*
X342166777Y-235954114D01*
X342183253Y-235972292D01*
X342197868Y-235991998D01*
X342210480Y-236013041D01*
X342220970Y-236035220D01*
X342229235Y-236058319D01*
X342235196Y-236082118D01*
X342238796Y-236106386D01*
X342240000Y-236130890D01*
X342240000Y-237030892D01*
X342238796Y-237055396D01*
X342235196Y-237079664D01*
X342229235Y-237103463D01*
X342220970Y-237126562D01*
X342210480Y-237148741D01*
X342197868Y-237169784D01*
X342183253Y-237189490D01*
X342166777Y-237207668D01*
X342148599Y-237224144D01*
X342128893Y-237238759D01*
X342107850Y-237251371D01*
X342085671Y-237261861D01*
X342062572Y-237270126D01*
X342038773Y-237276087D01*
X342014505Y-237279687D01*
X341990001Y-237280891D01*
X341339999Y-237280891D01*
X341315495Y-237279687D01*
X341291227Y-237276087D01*
X341267428Y-237270126D01*
X341244329Y-237261861D01*
X341222150Y-237251371D01*
X341201107Y-237238759D01*
X341181401Y-237224144D01*
X341163223Y-237207668D01*
X341146747Y-237189490D01*
X341132132Y-237169784D01*
X341119520Y-237148741D01*
X341109030Y-237126562D01*
X341100765Y-237103463D01*
X341094804Y-237079664D01*
X341091204Y-237055396D01*
X341090000Y-237030892D01*
X341090000Y-236130890D01*
X341091204Y-236106386D01*
X341094804Y-236082118D01*
X341100765Y-236058319D01*
X341109030Y-236035220D01*
X341119520Y-236013041D01*
X341132132Y-235991998D01*
X341146747Y-235972292D01*
X341163223Y-235954114D01*
X341181401Y-235937638D01*
X341201107Y-235923023D01*
X341222150Y-235910411D01*
X341244329Y-235899921D01*
X341267428Y-235891656D01*
X341291227Y-235885695D01*
X341315495Y-235882095D01*
X341339999Y-235880891D01*
X341990001Y-235880891D01*
X342014505Y-235882095D01*
X342014505Y-235882095D01*
G37*
D14*
X341665000Y-236580891D03*
D12*
G36*
X339964505Y-235882095D02*
G01*
X339988773Y-235885695D01*
X340012572Y-235891656D01*
X340035671Y-235899921D01*
X340057850Y-235910411D01*
X340078893Y-235923023D01*
X340098599Y-235937638D01*
X340116777Y-235954114D01*
X340133253Y-235972292D01*
X340147868Y-235991998D01*
X340160480Y-236013041D01*
X340170970Y-236035220D01*
X340179235Y-236058319D01*
X340185196Y-236082118D01*
X340188796Y-236106386D01*
X340190000Y-236130890D01*
X340190000Y-237030892D01*
X340188796Y-237055396D01*
X340185196Y-237079664D01*
X340179235Y-237103463D01*
X340170970Y-237126562D01*
X340160480Y-237148741D01*
X340147868Y-237169784D01*
X340133253Y-237189490D01*
X340116777Y-237207668D01*
X340098599Y-237224144D01*
X340078893Y-237238759D01*
X340057850Y-237251371D01*
X340035671Y-237261861D01*
X340012572Y-237270126D01*
X339988773Y-237276087D01*
X339964505Y-237279687D01*
X339940001Y-237280891D01*
X339289999Y-237280891D01*
X339265495Y-237279687D01*
X339241227Y-237276087D01*
X339217428Y-237270126D01*
X339194329Y-237261861D01*
X339172150Y-237251371D01*
X339151107Y-237238759D01*
X339131401Y-237224144D01*
X339113223Y-237207668D01*
X339096747Y-237189490D01*
X339082132Y-237169784D01*
X339069520Y-237148741D01*
X339059030Y-237126562D01*
X339050765Y-237103463D01*
X339044804Y-237079664D01*
X339041204Y-237055396D01*
X339040000Y-237030892D01*
X339040000Y-236130890D01*
X339041204Y-236106386D01*
X339044804Y-236082118D01*
X339050765Y-236058319D01*
X339059030Y-236035220D01*
X339069520Y-236013041D01*
X339082132Y-235991998D01*
X339096747Y-235972292D01*
X339113223Y-235954114D01*
X339131401Y-235937638D01*
X339151107Y-235923023D01*
X339172150Y-235910411D01*
X339194329Y-235899921D01*
X339217428Y-235891656D01*
X339241227Y-235885695D01*
X339265495Y-235882095D01*
X339289999Y-235880891D01*
X339940001Y-235880891D01*
X339964505Y-235882095D01*
X339964505Y-235882095D01*
G37*
D14*
X339615000Y-236580891D03*
D12*
G36*
X346194505Y-239181204D02*
G01*
X346218773Y-239184804D01*
X346242572Y-239190765D01*
X346265671Y-239199030D01*
X346287850Y-239209520D01*
X346308893Y-239222132D01*
X346328599Y-239236747D01*
X346346777Y-239253223D01*
X346363253Y-239271401D01*
X346377868Y-239291107D01*
X346390480Y-239312150D01*
X346400970Y-239334329D01*
X346409235Y-239357428D01*
X346415196Y-239381227D01*
X346418796Y-239405495D01*
X346420000Y-239429999D01*
X346420000Y-240080001D01*
X346418796Y-240104505D01*
X346415196Y-240128773D01*
X346409235Y-240152572D01*
X346400970Y-240175671D01*
X346390480Y-240197850D01*
X346377868Y-240218893D01*
X346363253Y-240238599D01*
X346346777Y-240256777D01*
X346328599Y-240273253D01*
X346308893Y-240287868D01*
X346287850Y-240300480D01*
X346265671Y-240310970D01*
X346242572Y-240319235D01*
X346218773Y-240325196D01*
X346194505Y-240328796D01*
X346170001Y-240330000D01*
X345269999Y-240330000D01*
X345245495Y-240328796D01*
X345221227Y-240325196D01*
X345197428Y-240319235D01*
X345174329Y-240310970D01*
X345152150Y-240300480D01*
X345131107Y-240287868D01*
X345111401Y-240273253D01*
X345093223Y-240256777D01*
X345076747Y-240238599D01*
X345062132Y-240218893D01*
X345049520Y-240197850D01*
X345039030Y-240175671D01*
X345030765Y-240152572D01*
X345024804Y-240128773D01*
X345021204Y-240104505D01*
X345020000Y-240080001D01*
X345020000Y-239429999D01*
X345021204Y-239405495D01*
X345024804Y-239381227D01*
X345030765Y-239357428D01*
X345039030Y-239334329D01*
X345049520Y-239312150D01*
X345062132Y-239291107D01*
X345076747Y-239271401D01*
X345093223Y-239253223D01*
X345111401Y-239236747D01*
X345131107Y-239222132D01*
X345152150Y-239209520D01*
X345174329Y-239199030D01*
X345197428Y-239190765D01*
X345221227Y-239184804D01*
X345245495Y-239181204D01*
X345269999Y-239180000D01*
X346170001Y-239180000D01*
X346194505Y-239181204D01*
X346194505Y-239181204D01*
G37*
D14*
X345720000Y-239755000D03*
D12*
G36*
X346194505Y-237131204D02*
G01*
X346218773Y-237134804D01*
X346242572Y-237140765D01*
X346265671Y-237149030D01*
X346287850Y-237159520D01*
X346308893Y-237172132D01*
X346328599Y-237186747D01*
X346346777Y-237203223D01*
X346363253Y-237221401D01*
X346377868Y-237241107D01*
X346390480Y-237262150D01*
X346400970Y-237284329D01*
X346409235Y-237307428D01*
X346415196Y-237331227D01*
X346418796Y-237355495D01*
X346420000Y-237379999D01*
X346420000Y-238030001D01*
X346418796Y-238054505D01*
X346415196Y-238078773D01*
X346409235Y-238102572D01*
X346400970Y-238125671D01*
X346390480Y-238147850D01*
X346377868Y-238168893D01*
X346363253Y-238188599D01*
X346346777Y-238206777D01*
X346328599Y-238223253D01*
X346308893Y-238237868D01*
X346287850Y-238250480D01*
X346265671Y-238260970D01*
X346242572Y-238269235D01*
X346218773Y-238275196D01*
X346194505Y-238278796D01*
X346170001Y-238280000D01*
X345269999Y-238280000D01*
X345245495Y-238278796D01*
X345221227Y-238275196D01*
X345197428Y-238269235D01*
X345174329Y-238260970D01*
X345152150Y-238250480D01*
X345131107Y-238237868D01*
X345111401Y-238223253D01*
X345093223Y-238206777D01*
X345076747Y-238188599D01*
X345062132Y-238168893D01*
X345049520Y-238147850D01*
X345039030Y-238125671D01*
X345030765Y-238102572D01*
X345024804Y-238078773D01*
X345021204Y-238054505D01*
X345020000Y-238030001D01*
X345020000Y-237379999D01*
X345021204Y-237355495D01*
X345024804Y-237331227D01*
X345030765Y-237307428D01*
X345039030Y-237284329D01*
X345049520Y-237262150D01*
X345062132Y-237241107D01*
X345076747Y-237221401D01*
X345093223Y-237203223D01*
X345111401Y-237186747D01*
X345131107Y-237172132D01*
X345152150Y-237159520D01*
X345174329Y-237149030D01*
X345197428Y-237140765D01*
X345221227Y-237134804D01*
X345245495Y-237131204D01*
X345269999Y-237130000D01*
X346170001Y-237130000D01*
X346194505Y-237131204D01*
X346194505Y-237131204D01*
G37*
D14*
X345720000Y-237705000D03*
D12*
G36*
X344289505Y-230781204D02*
G01*
X344313773Y-230784804D01*
X344337572Y-230790765D01*
X344360671Y-230799030D01*
X344382850Y-230809520D01*
X344403893Y-230822132D01*
X344423599Y-230836747D01*
X344441777Y-230853223D01*
X344458253Y-230871401D01*
X344472868Y-230891107D01*
X344485480Y-230912150D01*
X344495970Y-230934329D01*
X344504235Y-230957428D01*
X344510196Y-230981227D01*
X344513796Y-231005495D01*
X344515000Y-231029999D01*
X344515000Y-231680001D01*
X344513796Y-231704505D01*
X344510196Y-231728773D01*
X344504235Y-231752572D01*
X344495970Y-231775671D01*
X344485480Y-231797850D01*
X344472868Y-231818893D01*
X344458253Y-231838599D01*
X344441777Y-231856777D01*
X344423599Y-231873253D01*
X344403893Y-231887868D01*
X344382850Y-231900480D01*
X344360671Y-231910970D01*
X344337572Y-231919235D01*
X344313773Y-231925196D01*
X344289505Y-231928796D01*
X344265001Y-231930000D01*
X343364999Y-231930000D01*
X343340495Y-231928796D01*
X343316227Y-231925196D01*
X343292428Y-231919235D01*
X343269329Y-231910970D01*
X343247150Y-231900480D01*
X343226107Y-231887868D01*
X343206401Y-231873253D01*
X343188223Y-231856777D01*
X343171747Y-231838599D01*
X343157132Y-231818893D01*
X343144520Y-231797850D01*
X343134030Y-231775671D01*
X343125765Y-231752572D01*
X343119804Y-231728773D01*
X343116204Y-231704505D01*
X343115000Y-231680001D01*
X343115000Y-231029999D01*
X343116204Y-231005495D01*
X343119804Y-230981227D01*
X343125765Y-230957428D01*
X343134030Y-230934329D01*
X343144520Y-230912150D01*
X343157132Y-230891107D01*
X343171747Y-230871401D01*
X343188223Y-230853223D01*
X343206401Y-230836747D01*
X343226107Y-230822132D01*
X343247150Y-230809520D01*
X343269329Y-230799030D01*
X343292428Y-230790765D01*
X343316227Y-230784804D01*
X343340495Y-230781204D01*
X343364999Y-230780000D01*
X344265001Y-230780000D01*
X344289505Y-230781204D01*
X344289505Y-230781204D01*
G37*
D14*
X343815000Y-231355000D03*
D12*
G36*
X344289505Y-232831204D02*
G01*
X344313773Y-232834804D01*
X344337572Y-232840765D01*
X344360671Y-232849030D01*
X344382850Y-232859520D01*
X344403893Y-232872132D01*
X344423599Y-232886747D01*
X344441777Y-232903223D01*
X344458253Y-232921401D01*
X344472868Y-232941107D01*
X344485480Y-232962150D01*
X344495970Y-232984329D01*
X344504235Y-233007428D01*
X344510196Y-233031227D01*
X344513796Y-233055495D01*
X344515000Y-233079999D01*
X344515000Y-233730001D01*
X344513796Y-233754505D01*
X344510196Y-233778773D01*
X344504235Y-233802572D01*
X344495970Y-233825671D01*
X344485480Y-233847850D01*
X344472868Y-233868893D01*
X344458253Y-233888599D01*
X344441777Y-233906777D01*
X344423599Y-233923253D01*
X344403893Y-233937868D01*
X344382850Y-233950480D01*
X344360671Y-233960970D01*
X344337572Y-233969235D01*
X344313773Y-233975196D01*
X344289505Y-233978796D01*
X344265001Y-233980000D01*
X343364999Y-233980000D01*
X343340495Y-233978796D01*
X343316227Y-233975196D01*
X343292428Y-233969235D01*
X343269329Y-233960970D01*
X343247150Y-233950480D01*
X343226107Y-233937868D01*
X343206401Y-233923253D01*
X343188223Y-233906777D01*
X343171747Y-233888599D01*
X343157132Y-233868893D01*
X343144520Y-233847850D01*
X343134030Y-233825671D01*
X343125765Y-233802572D01*
X343119804Y-233778773D01*
X343116204Y-233754505D01*
X343115000Y-233730001D01*
X343115000Y-233079999D01*
X343116204Y-233055495D01*
X343119804Y-233031227D01*
X343125765Y-233007428D01*
X343134030Y-232984329D01*
X343144520Y-232962150D01*
X343157132Y-232941107D01*
X343171747Y-232921401D01*
X343188223Y-232903223D01*
X343206401Y-232886747D01*
X343226107Y-232872132D01*
X343247150Y-232859520D01*
X343269329Y-232849030D01*
X343292428Y-232840765D01*
X343316227Y-232834804D01*
X343340495Y-232831204D01*
X343364999Y-232830000D01*
X344265001Y-232830000D01*
X344289505Y-232831204D01*
X344289505Y-232831204D01*
G37*
D14*
X343815000Y-233405000D03*
D18*
X260200000Y-219400000D03*
X251193662Y-230631115D03*
X249744275Y-236040300D03*
X272279581Y-223029535D03*
X351435000Y-252065000D03*
X272978392Y-220421535D03*
X270370393Y-219722724D03*
X257400000Y-218400000D03*
X254066553Y-219909338D03*
X253367742Y-222517338D03*
X252643049Y-225221930D03*
X251918355Y-227926523D03*
X267762393Y-219023912D03*
X265154393Y-218325101D03*
X262546393Y-217626290D03*
X250468969Y-233335707D03*
X251061896Y-238463908D03*
X253766489Y-239188601D03*
X256471081Y-239913294D03*
X259175673Y-240637988D03*
X261880265Y-241362681D03*
X264584858Y-242087374D03*
X254765365Y-217301339D03*
D12*
G36*
X260306105Y-232533555D02*
G01*
X260318292Y-232534957D01*
X260330282Y-232537546D01*
X260341961Y-232541299D01*
X260353216Y-232546178D01*
X260363938Y-232552137D01*
X260374025Y-232559118D01*
X260383379Y-232567054D01*
X260391910Y-232575869D01*
X260399536Y-232585477D01*
X260406183Y-232595787D01*
X261031183Y-233678319D01*
X261036788Y-233689231D01*
X261041296Y-233700639D01*
X261044665Y-233712434D01*
X261046861Y-233724503D01*
X261047863Y-233736729D01*
X261047662Y-233748994D01*
X261046260Y-233761181D01*
X261043671Y-233773171D01*
X261039918Y-233784850D01*
X261035039Y-233796105D01*
X261029080Y-233806827D01*
X261022099Y-233816914D01*
X261014163Y-233826268D01*
X261005348Y-233834799D01*
X260995740Y-233842425D01*
X260985430Y-233849072D01*
X260768924Y-233974072D01*
X260758012Y-233979677D01*
X260746604Y-233984185D01*
X260734809Y-233987554D01*
X260722740Y-233989750D01*
X260710514Y-233990752D01*
X260698249Y-233990551D01*
X260686062Y-233989149D01*
X260674072Y-233986560D01*
X260662393Y-233982807D01*
X260651138Y-233977928D01*
X260640416Y-233971969D01*
X260630329Y-233964988D01*
X260620975Y-233957052D01*
X260612444Y-233948237D01*
X260604818Y-233938629D01*
X260598171Y-233928319D01*
X259973171Y-232845787D01*
X259967566Y-232834875D01*
X259963058Y-232823467D01*
X259959689Y-232811672D01*
X259957493Y-232799603D01*
X259956491Y-232787377D01*
X259956692Y-232775112D01*
X259958094Y-232762925D01*
X259960683Y-232750935D01*
X259964436Y-232739256D01*
X259969315Y-232728001D01*
X259975274Y-232717279D01*
X259982255Y-232707192D01*
X259990191Y-232697838D01*
X259999006Y-232689307D01*
X260008614Y-232681681D01*
X260018924Y-232675034D01*
X260235430Y-232550034D01*
X260246342Y-232544429D01*
X260257750Y-232539921D01*
X260269545Y-232536552D01*
X260281614Y-232534356D01*
X260293840Y-232533354D01*
X260306105Y-232533555D01*
X260306105Y-232533555D01*
G37*
D19*
X260502177Y-233262053D03*
D12*
G36*
X260998925Y-232133555D02*
G01*
X261011112Y-232134957D01*
X261023102Y-232137546D01*
X261034781Y-232141299D01*
X261046036Y-232146178D01*
X261056758Y-232152137D01*
X261066845Y-232159118D01*
X261076199Y-232167054D01*
X261084730Y-232175869D01*
X261092356Y-232185477D01*
X261099003Y-232195787D01*
X261724003Y-233278319D01*
X261729608Y-233289231D01*
X261734116Y-233300639D01*
X261737485Y-233312434D01*
X261739681Y-233324503D01*
X261740683Y-233336729D01*
X261740482Y-233348994D01*
X261739080Y-233361181D01*
X261736491Y-233373171D01*
X261732738Y-233384850D01*
X261727859Y-233396105D01*
X261721900Y-233406827D01*
X261714919Y-233416914D01*
X261706983Y-233426268D01*
X261698168Y-233434799D01*
X261688560Y-233442425D01*
X261678250Y-233449072D01*
X261461744Y-233574072D01*
X261450832Y-233579677D01*
X261439424Y-233584185D01*
X261427629Y-233587554D01*
X261415560Y-233589750D01*
X261403334Y-233590752D01*
X261391069Y-233590551D01*
X261378882Y-233589149D01*
X261366892Y-233586560D01*
X261355213Y-233582807D01*
X261343958Y-233577928D01*
X261333236Y-233571969D01*
X261323149Y-233564988D01*
X261313795Y-233557052D01*
X261305264Y-233548237D01*
X261297638Y-233538629D01*
X261290991Y-233528319D01*
X260665991Y-232445787D01*
X260660386Y-232434875D01*
X260655878Y-232423467D01*
X260652509Y-232411672D01*
X260650313Y-232399603D01*
X260649311Y-232387377D01*
X260649512Y-232375112D01*
X260650914Y-232362925D01*
X260653503Y-232350935D01*
X260657256Y-232339256D01*
X260662135Y-232328001D01*
X260668094Y-232317279D01*
X260675075Y-232307192D01*
X260683011Y-232297838D01*
X260691826Y-232289307D01*
X260701434Y-232281681D01*
X260711744Y-232275034D01*
X260928250Y-232150034D01*
X260939162Y-232144429D01*
X260950570Y-232139921D01*
X260962365Y-232136552D01*
X260974434Y-232134356D01*
X260986660Y-232133354D01*
X260998925Y-232133555D01*
X260998925Y-232133555D01*
G37*
D19*
X261194997Y-232862053D03*
D12*
G36*
X261691746Y-231733555D02*
G01*
X261703933Y-231734957D01*
X261715923Y-231737546D01*
X261727602Y-231741299D01*
X261738857Y-231746178D01*
X261749579Y-231752137D01*
X261759666Y-231759118D01*
X261769020Y-231767054D01*
X261777551Y-231775869D01*
X261785177Y-231785477D01*
X261791824Y-231795787D01*
X262416824Y-232878319D01*
X262422429Y-232889231D01*
X262426937Y-232900639D01*
X262430306Y-232912434D01*
X262432502Y-232924503D01*
X262433504Y-232936729D01*
X262433303Y-232948994D01*
X262431901Y-232961181D01*
X262429312Y-232973171D01*
X262425559Y-232984850D01*
X262420680Y-232996105D01*
X262414721Y-233006827D01*
X262407740Y-233016914D01*
X262399804Y-233026268D01*
X262390989Y-233034799D01*
X262381381Y-233042425D01*
X262371071Y-233049072D01*
X262154565Y-233174072D01*
X262143653Y-233179677D01*
X262132245Y-233184185D01*
X262120450Y-233187554D01*
X262108381Y-233189750D01*
X262096155Y-233190752D01*
X262083890Y-233190551D01*
X262071703Y-233189149D01*
X262059713Y-233186560D01*
X262048034Y-233182807D01*
X262036779Y-233177928D01*
X262026057Y-233171969D01*
X262015970Y-233164988D01*
X262006616Y-233157052D01*
X261998085Y-233148237D01*
X261990459Y-233138629D01*
X261983812Y-233128319D01*
X261358812Y-232045787D01*
X261353207Y-232034875D01*
X261348699Y-232023467D01*
X261345330Y-232011672D01*
X261343134Y-231999603D01*
X261342132Y-231987377D01*
X261342333Y-231975112D01*
X261343735Y-231962925D01*
X261346324Y-231950935D01*
X261350077Y-231939256D01*
X261354956Y-231928001D01*
X261360915Y-231917279D01*
X261367896Y-231907192D01*
X261375832Y-231897838D01*
X261384647Y-231889307D01*
X261394255Y-231881681D01*
X261404565Y-231875034D01*
X261621071Y-231750034D01*
X261631983Y-231744429D01*
X261643391Y-231739921D01*
X261655186Y-231736552D01*
X261667255Y-231734356D01*
X261679481Y-231733354D01*
X261691746Y-231733555D01*
X261691746Y-231733555D01*
G37*
D19*
X261887818Y-232462053D03*
D12*
G36*
X262384566Y-231333555D02*
G01*
X262396753Y-231334957D01*
X262408743Y-231337546D01*
X262420422Y-231341299D01*
X262431677Y-231346178D01*
X262442399Y-231352137D01*
X262452486Y-231359118D01*
X262461840Y-231367054D01*
X262470371Y-231375869D01*
X262477997Y-231385477D01*
X262484644Y-231395787D01*
X263109644Y-232478319D01*
X263115249Y-232489231D01*
X263119757Y-232500639D01*
X263123126Y-232512434D01*
X263125322Y-232524503D01*
X263126324Y-232536729D01*
X263126123Y-232548994D01*
X263124721Y-232561181D01*
X263122132Y-232573171D01*
X263118379Y-232584850D01*
X263113500Y-232596105D01*
X263107541Y-232606827D01*
X263100560Y-232616914D01*
X263092624Y-232626268D01*
X263083809Y-232634799D01*
X263074201Y-232642425D01*
X263063891Y-232649072D01*
X262847385Y-232774072D01*
X262836473Y-232779677D01*
X262825065Y-232784185D01*
X262813270Y-232787554D01*
X262801201Y-232789750D01*
X262788975Y-232790752D01*
X262776710Y-232790551D01*
X262764523Y-232789149D01*
X262752533Y-232786560D01*
X262740854Y-232782807D01*
X262729599Y-232777928D01*
X262718877Y-232771969D01*
X262708790Y-232764988D01*
X262699436Y-232757052D01*
X262690905Y-232748237D01*
X262683279Y-232738629D01*
X262676632Y-232728319D01*
X262051632Y-231645787D01*
X262046027Y-231634875D01*
X262041519Y-231623467D01*
X262038150Y-231611672D01*
X262035954Y-231599603D01*
X262034952Y-231587377D01*
X262035153Y-231575112D01*
X262036555Y-231562925D01*
X262039144Y-231550935D01*
X262042897Y-231539256D01*
X262047776Y-231528001D01*
X262053735Y-231517279D01*
X262060716Y-231507192D01*
X262068652Y-231497838D01*
X262077467Y-231489307D01*
X262087075Y-231481681D01*
X262097385Y-231475034D01*
X262313891Y-231350034D01*
X262324803Y-231344429D01*
X262336211Y-231339921D01*
X262348006Y-231336552D01*
X262360075Y-231334356D01*
X262372301Y-231333354D01*
X262384566Y-231333555D01*
X262384566Y-231333555D01*
G37*
D19*
X262580638Y-232062053D03*
D12*
G36*
X263077386Y-230933555D02*
G01*
X263089573Y-230934957D01*
X263101563Y-230937546D01*
X263113242Y-230941299D01*
X263124497Y-230946178D01*
X263135219Y-230952137D01*
X263145306Y-230959118D01*
X263154660Y-230967054D01*
X263163191Y-230975869D01*
X263170817Y-230985477D01*
X263177464Y-230995787D01*
X263802464Y-232078319D01*
X263808069Y-232089231D01*
X263812577Y-232100639D01*
X263815946Y-232112434D01*
X263818142Y-232124503D01*
X263819144Y-232136729D01*
X263818943Y-232148994D01*
X263817541Y-232161181D01*
X263814952Y-232173171D01*
X263811199Y-232184850D01*
X263806320Y-232196105D01*
X263800361Y-232206827D01*
X263793380Y-232216914D01*
X263785444Y-232226268D01*
X263776629Y-232234799D01*
X263767021Y-232242425D01*
X263756711Y-232249072D01*
X263540205Y-232374072D01*
X263529293Y-232379677D01*
X263517885Y-232384185D01*
X263506090Y-232387554D01*
X263494021Y-232389750D01*
X263481795Y-232390752D01*
X263469530Y-232390551D01*
X263457343Y-232389149D01*
X263445353Y-232386560D01*
X263433674Y-232382807D01*
X263422419Y-232377928D01*
X263411697Y-232371969D01*
X263401610Y-232364988D01*
X263392256Y-232357052D01*
X263383725Y-232348237D01*
X263376099Y-232338629D01*
X263369452Y-232328319D01*
X262744452Y-231245787D01*
X262738847Y-231234875D01*
X262734339Y-231223467D01*
X262730970Y-231211672D01*
X262728774Y-231199603D01*
X262727772Y-231187377D01*
X262727973Y-231175112D01*
X262729375Y-231162925D01*
X262731964Y-231150935D01*
X262735717Y-231139256D01*
X262740596Y-231128001D01*
X262746555Y-231117279D01*
X262753536Y-231107192D01*
X262761472Y-231097838D01*
X262770287Y-231089307D01*
X262779895Y-231081681D01*
X262790205Y-231075034D01*
X263006711Y-230950034D01*
X263017623Y-230944429D01*
X263029031Y-230939921D01*
X263040826Y-230936552D01*
X263052895Y-230934356D01*
X263065121Y-230933354D01*
X263077386Y-230933555D01*
X263077386Y-230933555D01*
G37*
D19*
X263273458Y-231662053D03*
D12*
G36*
X263770206Y-230533555D02*
G01*
X263782393Y-230534957D01*
X263794383Y-230537546D01*
X263806062Y-230541299D01*
X263817317Y-230546178D01*
X263828039Y-230552137D01*
X263838126Y-230559118D01*
X263847480Y-230567054D01*
X263856011Y-230575869D01*
X263863637Y-230585477D01*
X263870284Y-230595787D01*
X264495284Y-231678319D01*
X264500889Y-231689231D01*
X264505397Y-231700639D01*
X264508766Y-231712434D01*
X264510962Y-231724503D01*
X264511964Y-231736729D01*
X264511763Y-231748994D01*
X264510361Y-231761181D01*
X264507772Y-231773171D01*
X264504019Y-231784850D01*
X264499140Y-231796105D01*
X264493181Y-231806827D01*
X264486200Y-231816914D01*
X264478264Y-231826268D01*
X264469449Y-231834799D01*
X264459841Y-231842425D01*
X264449531Y-231849072D01*
X264233025Y-231974072D01*
X264222113Y-231979677D01*
X264210705Y-231984185D01*
X264198910Y-231987554D01*
X264186841Y-231989750D01*
X264174615Y-231990752D01*
X264162350Y-231990551D01*
X264150163Y-231989149D01*
X264138173Y-231986560D01*
X264126494Y-231982807D01*
X264115239Y-231977928D01*
X264104517Y-231971969D01*
X264094430Y-231964988D01*
X264085076Y-231957052D01*
X264076545Y-231948237D01*
X264068919Y-231938629D01*
X264062272Y-231928319D01*
X263437272Y-230845787D01*
X263431667Y-230834875D01*
X263427159Y-230823467D01*
X263423790Y-230811672D01*
X263421594Y-230799603D01*
X263420592Y-230787377D01*
X263420793Y-230775112D01*
X263422195Y-230762925D01*
X263424784Y-230750935D01*
X263428537Y-230739256D01*
X263433416Y-230728001D01*
X263439375Y-230717279D01*
X263446356Y-230707192D01*
X263454292Y-230697838D01*
X263463107Y-230689307D01*
X263472715Y-230681681D01*
X263483025Y-230675034D01*
X263699531Y-230550034D01*
X263710443Y-230544429D01*
X263721851Y-230539921D01*
X263733646Y-230536552D01*
X263745715Y-230534356D01*
X263757941Y-230533354D01*
X263770206Y-230533555D01*
X263770206Y-230533555D01*
G37*
D19*
X263966278Y-231262053D03*
D12*
G36*
X264463027Y-230133555D02*
G01*
X264475214Y-230134957D01*
X264487204Y-230137546D01*
X264498883Y-230141299D01*
X264510138Y-230146178D01*
X264520860Y-230152137D01*
X264530947Y-230159118D01*
X264540301Y-230167054D01*
X264548832Y-230175869D01*
X264556458Y-230185477D01*
X264563105Y-230195787D01*
X265188105Y-231278319D01*
X265193710Y-231289231D01*
X265198218Y-231300639D01*
X265201587Y-231312434D01*
X265203783Y-231324503D01*
X265204785Y-231336729D01*
X265204584Y-231348994D01*
X265203182Y-231361181D01*
X265200593Y-231373171D01*
X265196840Y-231384850D01*
X265191961Y-231396105D01*
X265186002Y-231406827D01*
X265179021Y-231416914D01*
X265171085Y-231426268D01*
X265162270Y-231434799D01*
X265152662Y-231442425D01*
X265142352Y-231449072D01*
X264925846Y-231574072D01*
X264914934Y-231579677D01*
X264903526Y-231584185D01*
X264891731Y-231587554D01*
X264879662Y-231589750D01*
X264867436Y-231590752D01*
X264855171Y-231590551D01*
X264842984Y-231589149D01*
X264830994Y-231586560D01*
X264819315Y-231582807D01*
X264808060Y-231577928D01*
X264797338Y-231571969D01*
X264787251Y-231564988D01*
X264777897Y-231557052D01*
X264769366Y-231548237D01*
X264761740Y-231538629D01*
X264755093Y-231528319D01*
X264130093Y-230445787D01*
X264124488Y-230434875D01*
X264119980Y-230423467D01*
X264116611Y-230411672D01*
X264114415Y-230399603D01*
X264113413Y-230387377D01*
X264113614Y-230375112D01*
X264115016Y-230362925D01*
X264117605Y-230350935D01*
X264121358Y-230339256D01*
X264126237Y-230328001D01*
X264132196Y-230317279D01*
X264139177Y-230307192D01*
X264147113Y-230297838D01*
X264155928Y-230289307D01*
X264165536Y-230281681D01*
X264175846Y-230275034D01*
X264392352Y-230150034D01*
X264403264Y-230144429D01*
X264414672Y-230139921D01*
X264426467Y-230136552D01*
X264438536Y-230134356D01*
X264450762Y-230133354D01*
X264463027Y-230133555D01*
X264463027Y-230133555D01*
G37*
D19*
X264659099Y-230862053D03*
D12*
G36*
X265155847Y-229733555D02*
G01*
X265168034Y-229734957D01*
X265180024Y-229737546D01*
X265191703Y-229741299D01*
X265202958Y-229746178D01*
X265213680Y-229752137D01*
X265223767Y-229759118D01*
X265233121Y-229767054D01*
X265241652Y-229775869D01*
X265249278Y-229785477D01*
X265255925Y-229795787D01*
X265880925Y-230878319D01*
X265886530Y-230889231D01*
X265891038Y-230900639D01*
X265894407Y-230912434D01*
X265896603Y-230924503D01*
X265897605Y-230936729D01*
X265897404Y-230948994D01*
X265896002Y-230961181D01*
X265893413Y-230973171D01*
X265889660Y-230984850D01*
X265884781Y-230996105D01*
X265878822Y-231006827D01*
X265871841Y-231016914D01*
X265863905Y-231026268D01*
X265855090Y-231034799D01*
X265845482Y-231042425D01*
X265835172Y-231049072D01*
X265618666Y-231174072D01*
X265607754Y-231179677D01*
X265596346Y-231184185D01*
X265584551Y-231187554D01*
X265572482Y-231189750D01*
X265560256Y-231190752D01*
X265547991Y-231190551D01*
X265535804Y-231189149D01*
X265523814Y-231186560D01*
X265512135Y-231182807D01*
X265500880Y-231177928D01*
X265490158Y-231171969D01*
X265480071Y-231164988D01*
X265470717Y-231157052D01*
X265462186Y-231148237D01*
X265454560Y-231138629D01*
X265447913Y-231128319D01*
X264822913Y-230045787D01*
X264817308Y-230034875D01*
X264812800Y-230023467D01*
X264809431Y-230011672D01*
X264807235Y-229999603D01*
X264806233Y-229987377D01*
X264806434Y-229975112D01*
X264807836Y-229962925D01*
X264810425Y-229950935D01*
X264814178Y-229939256D01*
X264819057Y-229928001D01*
X264825016Y-229917279D01*
X264831997Y-229907192D01*
X264839933Y-229897838D01*
X264848748Y-229889307D01*
X264858356Y-229881681D01*
X264868666Y-229875034D01*
X265085172Y-229750034D01*
X265096084Y-229744429D01*
X265107492Y-229739921D01*
X265119287Y-229736552D01*
X265131356Y-229734356D01*
X265143582Y-229733354D01*
X265155847Y-229733555D01*
X265155847Y-229733555D01*
G37*
D19*
X265351919Y-230462053D03*
D12*
G36*
X266342145Y-228038283D02*
G01*
X266354332Y-228039685D01*
X266366322Y-228042274D01*
X266378001Y-228046027D01*
X266389256Y-228050906D01*
X266399978Y-228056865D01*
X266410065Y-228063846D01*
X266419419Y-228071782D01*
X266427950Y-228080597D01*
X266435576Y-228090205D01*
X266442223Y-228100515D01*
X266567223Y-228317021D01*
X266572828Y-228327933D01*
X266577336Y-228339341D01*
X266580705Y-228351136D01*
X266582901Y-228363205D01*
X266583903Y-228375431D01*
X266583702Y-228387696D01*
X266582300Y-228399883D01*
X266579711Y-228411873D01*
X266575958Y-228423552D01*
X266571079Y-228434807D01*
X266565120Y-228445529D01*
X266558139Y-228455616D01*
X266550203Y-228464970D01*
X266541388Y-228473501D01*
X266531780Y-228481127D01*
X266521470Y-228487774D01*
X265438938Y-229112774D01*
X265428026Y-229118379D01*
X265416618Y-229122887D01*
X265404823Y-229126256D01*
X265392754Y-229128452D01*
X265380528Y-229129454D01*
X265368263Y-229129253D01*
X265356076Y-229127851D01*
X265344086Y-229125262D01*
X265332407Y-229121509D01*
X265321152Y-229116630D01*
X265310430Y-229110671D01*
X265300343Y-229103690D01*
X265290989Y-229095754D01*
X265282458Y-229086939D01*
X265274832Y-229077331D01*
X265268185Y-229067021D01*
X265143185Y-228850515D01*
X265137580Y-228839603D01*
X265133072Y-228828195D01*
X265129703Y-228816400D01*
X265127507Y-228804331D01*
X265126505Y-228792105D01*
X265126706Y-228779840D01*
X265128108Y-228767653D01*
X265130697Y-228755663D01*
X265134450Y-228743984D01*
X265139329Y-228732729D01*
X265145288Y-228722007D01*
X265152269Y-228711920D01*
X265160205Y-228702566D01*
X265169020Y-228694035D01*
X265178628Y-228686409D01*
X265188938Y-228679762D01*
X266271470Y-228054762D01*
X266282382Y-228049157D01*
X266293790Y-228044649D01*
X266305585Y-228041280D01*
X266317654Y-228039084D01*
X266329880Y-228038082D01*
X266342145Y-228038283D01*
X266342145Y-228038283D01*
G37*
D19*
X265855204Y-228583768D03*
D12*
G36*
X265942145Y-227345463D02*
G01*
X265954332Y-227346865D01*
X265966322Y-227349454D01*
X265978001Y-227353207D01*
X265989256Y-227358086D01*
X265999978Y-227364045D01*
X266010065Y-227371026D01*
X266019419Y-227378962D01*
X266027950Y-227387777D01*
X266035576Y-227397385D01*
X266042223Y-227407695D01*
X266167223Y-227624201D01*
X266172828Y-227635113D01*
X266177336Y-227646521D01*
X266180705Y-227658316D01*
X266182901Y-227670385D01*
X266183903Y-227682611D01*
X266183702Y-227694876D01*
X266182300Y-227707063D01*
X266179711Y-227719053D01*
X266175958Y-227730732D01*
X266171079Y-227741987D01*
X266165120Y-227752709D01*
X266158139Y-227762796D01*
X266150203Y-227772150D01*
X266141388Y-227780681D01*
X266131780Y-227788307D01*
X266121470Y-227794954D01*
X265038938Y-228419954D01*
X265028026Y-228425559D01*
X265016618Y-228430067D01*
X265004823Y-228433436D01*
X264992754Y-228435632D01*
X264980528Y-228436634D01*
X264968263Y-228436433D01*
X264956076Y-228435031D01*
X264944086Y-228432442D01*
X264932407Y-228428689D01*
X264921152Y-228423810D01*
X264910430Y-228417851D01*
X264900343Y-228410870D01*
X264890989Y-228402934D01*
X264882458Y-228394119D01*
X264874832Y-228384511D01*
X264868185Y-228374201D01*
X264743185Y-228157695D01*
X264737580Y-228146783D01*
X264733072Y-228135375D01*
X264729703Y-228123580D01*
X264727507Y-228111511D01*
X264726505Y-228099285D01*
X264726706Y-228087020D01*
X264728108Y-228074833D01*
X264730697Y-228062843D01*
X264734450Y-228051164D01*
X264739329Y-228039909D01*
X264745288Y-228029187D01*
X264752269Y-228019100D01*
X264760205Y-228009746D01*
X264769020Y-228001215D01*
X264778628Y-227993589D01*
X264788938Y-227986942D01*
X265871470Y-227361942D01*
X265882382Y-227356337D01*
X265893790Y-227351829D01*
X265905585Y-227348460D01*
X265917654Y-227346264D01*
X265929880Y-227345262D01*
X265942145Y-227345463D01*
X265942145Y-227345463D01*
G37*
D19*
X265455204Y-227890948D03*
D12*
G36*
X265542145Y-226652642D02*
G01*
X265554332Y-226654044D01*
X265566322Y-226656633D01*
X265578001Y-226660386D01*
X265589256Y-226665265D01*
X265599978Y-226671224D01*
X265610065Y-226678205D01*
X265619419Y-226686141D01*
X265627950Y-226694956D01*
X265635576Y-226704564D01*
X265642223Y-226714874D01*
X265767223Y-226931380D01*
X265772828Y-226942292D01*
X265777336Y-226953700D01*
X265780705Y-226965495D01*
X265782901Y-226977564D01*
X265783903Y-226989790D01*
X265783702Y-227002055D01*
X265782300Y-227014242D01*
X265779711Y-227026232D01*
X265775958Y-227037911D01*
X265771079Y-227049166D01*
X265765120Y-227059888D01*
X265758139Y-227069975D01*
X265750203Y-227079329D01*
X265741388Y-227087860D01*
X265731780Y-227095486D01*
X265721470Y-227102133D01*
X264638938Y-227727133D01*
X264628026Y-227732738D01*
X264616618Y-227737246D01*
X264604823Y-227740615D01*
X264592754Y-227742811D01*
X264580528Y-227743813D01*
X264568263Y-227743612D01*
X264556076Y-227742210D01*
X264544086Y-227739621D01*
X264532407Y-227735868D01*
X264521152Y-227730989D01*
X264510430Y-227725030D01*
X264500343Y-227718049D01*
X264490989Y-227710113D01*
X264482458Y-227701298D01*
X264474832Y-227691690D01*
X264468185Y-227681380D01*
X264343185Y-227464874D01*
X264337580Y-227453962D01*
X264333072Y-227442554D01*
X264329703Y-227430759D01*
X264327507Y-227418690D01*
X264326505Y-227406464D01*
X264326706Y-227394199D01*
X264328108Y-227382012D01*
X264330697Y-227370022D01*
X264334450Y-227358343D01*
X264339329Y-227347088D01*
X264345288Y-227336366D01*
X264352269Y-227326279D01*
X264360205Y-227316925D01*
X264369020Y-227308394D01*
X264378628Y-227300768D01*
X264388938Y-227294121D01*
X265471470Y-226669121D01*
X265482382Y-226663516D01*
X265493790Y-226659008D01*
X265505585Y-226655639D01*
X265517654Y-226653443D01*
X265529880Y-226652441D01*
X265542145Y-226652642D01*
X265542145Y-226652642D01*
G37*
D19*
X265055204Y-227198127D03*
D12*
G36*
X265142145Y-225959822D02*
G01*
X265154332Y-225961224D01*
X265166322Y-225963813D01*
X265178001Y-225967566D01*
X265189256Y-225972445D01*
X265199978Y-225978404D01*
X265210065Y-225985385D01*
X265219419Y-225993321D01*
X265227950Y-226002136D01*
X265235576Y-226011744D01*
X265242223Y-226022054D01*
X265367223Y-226238560D01*
X265372828Y-226249472D01*
X265377336Y-226260880D01*
X265380705Y-226272675D01*
X265382901Y-226284744D01*
X265383903Y-226296970D01*
X265383702Y-226309235D01*
X265382300Y-226321422D01*
X265379711Y-226333412D01*
X265375958Y-226345091D01*
X265371079Y-226356346D01*
X265365120Y-226367068D01*
X265358139Y-226377155D01*
X265350203Y-226386509D01*
X265341388Y-226395040D01*
X265331780Y-226402666D01*
X265321470Y-226409313D01*
X264238938Y-227034313D01*
X264228026Y-227039918D01*
X264216618Y-227044426D01*
X264204823Y-227047795D01*
X264192754Y-227049991D01*
X264180528Y-227050993D01*
X264168263Y-227050792D01*
X264156076Y-227049390D01*
X264144086Y-227046801D01*
X264132407Y-227043048D01*
X264121152Y-227038169D01*
X264110430Y-227032210D01*
X264100343Y-227025229D01*
X264090989Y-227017293D01*
X264082458Y-227008478D01*
X264074832Y-226998870D01*
X264068185Y-226988560D01*
X263943185Y-226772054D01*
X263937580Y-226761142D01*
X263933072Y-226749734D01*
X263929703Y-226737939D01*
X263927507Y-226725870D01*
X263926505Y-226713644D01*
X263926706Y-226701379D01*
X263928108Y-226689192D01*
X263930697Y-226677202D01*
X263934450Y-226665523D01*
X263939329Y-226654268D01*
X263945288Y-226643546D01*
X263952269Y-226633459D01*
X263960205Y-226624105D01*
X263969020Y-226615574D01*
X263978628Y-226607948D01*
X263988938Y-226601301D01*
X265071470Y-225976301D01*
X265082382Y-225970696D01*
X265093790Y-225966188D01*
X265105585Y-225962819D01*
X265117654Y-225960623D01*
X265129880Y-225959621D01*
X265142145Y-225959822D01*
X265142145Y-225959822D01*
G37*
D19*
X264655204Y-226505307D03*
D12*
G36*
X264742145Y-225267002D02*
G01*
X264754332Y-225268404D01*
X264766322Y-225270993D01*
X264778001Y-225274746D01*
X264789256Y-225279625D01*
X264799978Y-225285584D01*
X264810065Y-225292565D01*
X264819419Y-225300501D01*
X264827950Y-225309316D01*
X264835576Y-225318924D01*
X264842223Y-225329234D01*
X264967223Y-225545740D01*
X264972828Y-225556652D01*
X264977336Y-225568060D01*
X264980705Y-225579855D01*
X264982901Y-225591924D01*
X264983903Y-225604150D01*
X264983702Y-225616415D01*
X264982300Y-225628602D01*
X264979711Y-225640592D01*
X264975958Y-225652271D01*
X264971079Y-225663526D01*
X264965120Y-225674248D01*
X264958139Y-225684335D01*
X264950203Y-225693689D01*
X264941388Y-225702220D01*
X264931780Y-225709846D01*
X264921470Y-225716493D01*
X263838938Y-226341493D01*
X263828026Y-226347098D01*
X263816618Y-226351606D01*
X263804823Y-226354975D01*
X263792754Y-226357171D01*
X263780528Y-226358173D01*
X263768263Y-226357972D01*
X263756076Y-226356570D01*
X263744086Y-226353981D01*
X263732407Y-226350228D01*
X263721152Y-226345349D01*
X263710430Y-226339390D01*
X263700343Y-226332409D01*
X263690989Y-226324473D01*
X263682458Y-226315658D01*
X263674832Y-226306050D01*
X263668185Y-226295740D01*
X263543185Y-226079234D01*
X263537580Y-226068322D01*
X263533072Y-226056914D01*
X263529703Y-226045119D01*
X263527507Y-226033050D01*
X263526505Y-226020824D01*
X263526706Y-226008559D01*
X263528108Y-225996372D01*
X263530697Y-225984382D01*
X263534450Y-225972703D01*
X263539329Y-225961448D01*
X263545288Y-225950726D01*
X263552269Y-225940639D01*
X263560205Y-225931285D01*
X263569020Y-225922754D01*
X263578628Y-225915128D01*
X263588938Y-225908481D01*
X264671470Y-225283481D01*
X264682382Y-225277876D01*
X264693790Y-225273368D01*
X264705585Y-225269999D01*
X264717654Y-225267803D01*
X264729880Y-225266801D01*
X264742145Y-225267002D01*
X264742145Y-225267002D01*
G37*
D19*
X264255204Y-225812487D03*
D12*
G36*
X264342145Y-224574182D02*
G01*
X264354332Y-224575584D01*
X264366322Y-224578173D01*
X264378001Y-224581926D01*
X264389256Y-224586805D01*
X264399978Y-224592764D01*
X264410065Y-224599745D01*
X264419419Y-224607681D01*
X264427950Y-224616496D01*
X264435576Y-224626104D01*
X264442223Y-224636414D01*
X264567223Y-224852920D01*
X264572828Y-224863832D01*
X264577336Y-224875240D01*
X264580705Y-224887035D01*
X264582901Y-224899104D01*
X264583903Y-224911330D01*
X264583702Y-224923595D01*
X264582300Y-224935782D01*
X264579711Y-224947772D01*
X264575958Y-224959451D01*
X264571079Y-224970706D01*
X264565120Y-224981428D01*
X264558139Y-224991515D01*
X264550203Y-225000869D01*
X264541388Y-225009400D01*
X264531780Y-225017026D01*
X264521470Y-225023673D01*
X263438938Y-225648673D01*
X263428026Y-225654278D01*
X263416618Y-225658786D01*
X263404823Y-225662155D01*
X263392754Y-225664351D01*
X263380528Y-225665353D01*
X263368263Y-225665152D01*
X263356076Y-225663750D01*
X263344086Y-225661161D01*
X263332407Y-225657408D01*
X263321152Y-225652529D01*
X263310430Y-225646570D01*
X263300343Y-225639589D01*
X263290989Y-225631653D01*
X263282458Y-225622838D01*
X263274832Y-225613230D01*
X263268185Y-225602920D01*
X263143185Y-225386414D01*
X263137580Y-225375502D01*
X263133072Y-225364094D01*
X263129703Y-225352299D01*
X263127507Y-225340230D01*
X263126505Y-225328004D01*
X263126706Y-225315739D01*
X263128108Y-225303552D01*
X263130697Y-225291562D01*
X263134450Y-225279883D01*
X263139329Y-225268628D01*
X263145288Y-225257906D01*
X263152269Y-225247819D01*
X263160205Y-225238465D01*
X263169020Y-225229934D01*
X263178628Y-225222308D01*
X263188938Y-225215661D01*
X264271470Y-224590661D01*
X264282382Y-224585056D01*
X264293790Y-224580548D01*
X264305585Y-224577179D01*
X264317654Y-224574983D01*
X264329880Y-224573981D01*
X264342145Y-224574182D01*
X264342145Y-224574182D01*
G37*
D19*
X263855204Y-225119667D03*
D12*
G36*
X263942145Y-223881361D02*
G01*
X263954332Y-223882763D01*
X263966322Y-223885352D01*
X263978001Y-223889105D01*
X263989256Y-223893984D01*
X263999978Y-223899943D01*
X264010065Y-223906924D01*
X264019419Y-223914860D01*
X264027950Y-223923675D01*
X264035576Y-223933283D01*
X264042223Y-223943593D01*
X264167223Y-224160099D01*
X264172828Y-224171011D01*
X264177336Y-224182419D01*
X264180705Y-224194214D01*
X264182901Y-224206283D01*
X264183903Y-224218509D01*
X264183702Y-224230774D01*
X264182300Y-224242961D01*
X264179711Y-224254951D01*
X264175958Y-224266630D01*
X264171079Y-224277885D01*
X264165120Y-224288607D01*
X264158139Y-224298694D01*
X264150203Y-224308048D01*
X264141388Y-224316579D01*
X264131780Y-224324205D01*
X264121470Y-224330852D01*
X263038938Y-224955852D01*
X263028026Y-224961457D01*
X263016618Y-224965965D01*
X263004823Y-224969334D01*
X262992754Y-224971530D01*
X262980528Y-224972532D01*
X262968263Y-224972331D01*
X262956076Y-224970929D01*
X262944086Y-224968340D01*
X262932407Y-224964587D01*
X262921152Y-224959708D01*
X262910430Y-224953749D01*
X262900343Y-224946768D01*
X262890989Y-224938832D01*
X262882458Y-224930017D01*
X262874832Y-224920409D01*
X262868185Y-224910099D01*
X262743185Y-224693593D01*
X262737580Y-224682681D01*
X262733072Y-224671273D01*
X262729703Y-224659478D01*
X262727507Y-224647409D01*
X262726505Y-224635183D01*
X262726706Y-224622918D01*
X262728108Y-224610731D01*
X262730697Y-224598741D01*
X262734450Y-224587062D01*
X262739329Y-224575807D01*
X262745288Y-224565085D01*
X262752269Y-224554998D01*
X262760205Y-224545644D01*
X262769020Y-224537113D01*
X262778628Y-224529487D01*
X262788938Y-224522840D01*
X263871470Y-223897840D01*
X263882382Y-223892235D01*
X263893790Y-223887727D01*
X263905585Y-223884358D01*
X263917654Y-223882162D01*
X263929880Y-223881160D01*
X263942145Y-223881361D01*
X263942145Y-223881361D01*
G37*
D19*
X263455204Y-224426846D03*
D12*
G36*
X263542145Y-223188541D02*
G01*
X263554332Y-223189943D01*
X263566322Y-223192532D01*
X263578001Y-223196285D01*
X263589256Y-223201164D01*
X263599978Y-223207123D01*
X263610065Y-223214104D01*
X263619419Y-223222040D01*
X263627950Y-223230855D01*
X263635576Y-223240463D01*
X263642223Y-223250773D01*
X263767223Y-223467279D01*
X263772828Y-223478191D01*
X263777336Y-223489599D01*
X263780705Y-223501394D01*
X263782901Y-223513463D01*
X263783903Y-223525689D01*
X263783702Y-223537954D01*
X263782300Y-223550141D01*
X263779711Y-223562131D01*
X263775958Y-223573810D01*
X263771079Y-223585065D01*
X263765120Y-223595787D01*
X263758139Y-223605874D01*
X263750203Y-223615228D01*
X263741388Y-223623759D01*
X263731780Y-223631385D01*
X263721470Y-223638032D01*
X262638938Y-224263032D01*
X262628026Y-224268637D01*
X262616618Y-224273145D01*
X262604823Y-224276514D01*
X262592754Y-224278710D01*
X262580528Y-224279712D01*
X262568263Y-224279511D01*
X262556076Y-224278109D01*
X262544086Y-224275520D01*
X262532407Y-224271767D01*
X262521152Y-224266888D01*
X262510430Y-224260929D01*
X262500343Y-224253948D01*
X262490989Y-224246012D01*
X262482458Y-224237197D01*
X262474832Y-224227589D01*
X262468185Y-224217279D01*
X262343185Y-224000773D01*
X262337580Y-223989861D01*
X262333072Y-223978453D01*
X262329703Y-223966658D01*
X262327507Y-223954589D01*
X262326505Y-223942363D01*
X262326706Y-223930098D01*
X262328108Y-223917911D01*
X262330697Y-223905921D01*
X262334450Y-223894242D01*
X262339329Y-223882987D01*
X262345288Y-223872265D01*
X262352269Y-223862178D01*
X262360205Y-223852824D01*
X262369020Y-223844293D01*
X262378628Y-223836667D01*
X262388938Y-223830020D01*
X263471470Y-223205020D01*
X263482382Y-223199415D01*
X263493790Y-223194907D01*
X263505585Y-223191538D01*
X263517654Y-223189342D01*
X263529880Y-223188340D01*
X263542145Y-223188541D01*
X263542145Y-223188541D01*
G37*
D19*
X263055204Y-223734026D03*
D12*
G36*
X260980847Y-222502243D02*
G01*
X260993034Y-222503645D01*
X261005024Y-222506234D01*
X261016703Y-222509987D01*
X261027958Y-222514866D01*
X261038680Y-222520825D01*
X261048767Y-222527806D01*
X261058121Y-222535742D01*
X261066652Y-222544557D01*
X261074278Y-222554165D01*
X261080925Y-222564475D01*
X261705925Y-223647007D01*
X261711530Y-223657919D01*
X261716038Y-223669327D01*
X261719407Y-223681122D01*
X261721603Y-223693191D01*
X261722605Y-223705417D01*
X261722404Y-223717682D01*
X261721002Y-223729869D01*
X261718413Y-223741859D01*
X261714660Y-223753538D01*
X261709781Y-223764793D01*
X261703822Y-223775515D01*
X261696841Y-223785602D01*
X261688905Y-223794956D01*
X261680090Y-223803487D01*
X261670482Y-223811113D01*
X261660172Y-223817760D01*
X261443666Y-223942760D01*
X261432754Y-223948365D01*
X261421346Y-223952873D01*
X261409551Y-223956242D01*
X261397482Y-223958438D01*
X261385256Y-223959440D01*
X261372991Y-223959239D01*
X261360804Y-223957837D01*
X261348814Y-223955248D01*
X261337135Y-223951495D01*
X261325880Y-223946616D01*
X261315158Y-223940657D01*
X261305071Y-223933676D01*
X261295717Y-223925740D01*
X261287186Y-223916925D01*
X261279560Y-223907317D01*
X261272913Y-223897007D01*
X260647913Y-222814475D01*
X260642308Y-222803563D01*
X260637800Y-222792155D01*
X260634431Y-222780360D01*
X260632235Y-222768291D01*
X260631233Y-222756065D01*
X260631434Y-222743800D01*
X260632836Y-222731613D01*
X260635425Y-222719623D01*
X260639178Y-222707944D01*
X260644057Y-222696689D01*
X260650016Y-222685967D01*
X260656997Y-222675880D01*
X260664933Y-222666526D01*
X260673748Y-222657995D01*
X260683356Y-222650369D01*
X260693666Y-222643722D01*
X260910172Y-222518722D01*
X260921084Y-222513117D01*
X260932492Y-222508609D01*
X260944287Y-222505240D01*
X260956356Y-222503044D01*
X260968582Y-222502042D01*
X260980847Y-222502243D01*
X260980847Y-222502243D01*
G37*
D19*
X261176919Y-223230741D03*
D12*
G36*
X260288027Y-222902243D02*
G01*
X260300214Y-222903645D01*
X260312204Y-222906234D01*
X260323883Y-222909987D01*
X260335138Y-222914866D01*
X260345860Y-222920825D01*
X260355947Y-222927806D01*
X260365301Y-222935742D01*
X260373832Y-222944557D01*
X260381458Y-222954165D01*
X260388105Y-222964475D01*
X261013105Y-224047007D01*
X261018710Y-224057919D01*
X261023218Y-224069327D01*
X261026587Y-224081122D01*
X261028783Y-224093191D01*
X261029785Y-224105417D01*
X261029584Y-224117682D01*
X261028182Y-224129869D01*
X261025593Y-224141859D01*
X261021840Y-224153538D01*
X261016961Y-224164793D01*
X261011002Y-224175515D01*
X261004021Y-224185602D01*
X260996085Y-224194956D01*
X260987270Y-224203487D01*
X260977662Y-224211113D01*
X260967352Y-224217760D01*
X260750846Y-224342760D01*
X260739934Y-224348365D01*
X260728526Y-224352873D01*
X260716731Y-224356242D01*
X260704662Y-224358438D01*
X260692436Y-224359440D01*
X260680171Y-224359239D01*
X260667984Y-224357837D01*
X260655994Y-224355248D01*
X260644315Y-224351495D01*
X260633060Y-224346616D01*
X260622338Y-224340657D01*
X260612251Y-224333676D01*
X260602897Y-224325740D01*
X260594366Y-224316925D01*
X260586740Y-224307317D01*
X260580093Y-224297007D01*
X259955093Y-223214475D01*
X259949488Y-223203563D01*
X259944980Y-223192155D01*
X259941611Y-223180360D01*
X259939415Y-223168291D01*
X259938413Y-223156065D01*
X259938614Y-223143800D01*
X259940016Y-223131613D01*
X259942605Y-223119623D01*
X259946358Y-223107944D01*
X259951237Y-223096689D01*
X259957196Y-223085967D01*
X259964177Y-223075880D01*
X259972113Y-223066526D01*
X259980928Y-223057995D01*
X259990536Y-223050369D01*
X260000846Y-223043722D01*
X260217352Y-222918722D01*
X260228264Y-222913117D01*
X260239672Y-222908609D01*
X260251467Y-222905240D01*
X260263536Y-222903044D01*
X260275762Y-222902042D01*
X260288027Y-222902243D01*
X260288027Y-222902243D01*
G37*
D19*
X260484099Y-223630741D03*
D12*
G36*
X259595206Y-223302243D02*
G01*
X259607393Y-223303645D01*
X259619383Y-223306234D01*
X259631062Y-223309987D01*
X259642317Y-223314866D01*
X259653039Y-223320825D01*
X259663126Y-223327806D01*
X259672480Y-223335742D01*
X259681011Y-223344557D01*
X259688637Y-223354165D01*
X259695284Y-223364475D01*
X260320284Y-224447007D01*
X260325889Y-224457919D01*
X260330397Y-224469327D01*
X260333766Y-224481122D01*
X260335962Y-224493191D01*
X260336964Y-224505417D01*
X260336763Y-224517682D01*
X260335361Y-224529869D01*
X260332772Y-224541859D01*
X260329019Y-224553538D01*
X260324140Y-224564793D01*
X260318181Y-224575515D01*
X260311200Y-224585602D01*
X260303264Y-224594956D01*
X260294449Y-224603487D01*
X260284841Y-224611113D01*
X260274531Y-224617760D01*
X260058025Y-224742760D01*
X260047113Y-224748365D01*
X260035705Y-224752873D01*
X260023910Y-224756242D01*
X260011841Y-224758438D01*
X259999615Y-224759440D01*
X259987350Y-224759239D01*
X259975163Y-224757837D01*
X259963173Y-224755248D01*
X259951494Y-224751495D01*
X259940239Y-224746616D01*
X259929517Y-224740657D01*
X259919430Y-224733676D01*
X259910076Y-224725740D01*
X259901545Y-224716925D01*
X259893919Y-224707317D01*
X259887272Y-224697007D01*
X259262272Y-223614475D01*
X259256667Y-223603563D01*
X259252159Y-223592155D01*
X259248790Y-223580360D01*
X259246594Y-223568291D01*
X259245592Y-223556065D01*
X259245793Y-223543800D01*
X259247195Y-223531613D01*
X259249784Y-223519623D01*
X259253537Y-223507944D01*
X259258416Y-223496689D01*
X259264375Y-223485967D01*
X259271356Y-223475880D01*
X259279292Y-223466526D01*
X259288107Y-223457995D01*
X259297715Y-223450369D01*
X259308025Y-223443722D01*
X259524531Y-223318722D01*
X259535443Y-223313117D01*
X259546851Y-223308609D01*
X259558646Y-223305240D01*
X259570715Y-223303044D01*
X259582941Y-223302042D01*
X259595206Y-223302243D01*
X259595206Y-223302243D01*
G37*
D19*
X259791278Y-224030741D03*
D12*
G36*
X258902386Y-223702243D02*
G01*
X258914573Y-223703645D01*
X258926563Y-223706234D01*
X258938242Y-223709987D01*
X258949497Y-223714866D01*
X258960219Y-223720825D01*
X258970306Y-223727806D01*
X258979660Y-223735742D01*
X258988191Y-223744557D01*
X258995817Y-223754165D01*
X259002464Y-223764475D01*
X259627464Y-224847007D01*
X259633069Y-224857919D01*
X259637577Y-224869327D01*
X259640946Y-224881122D01*
X259643142Y-224893191D01*
X259644144Y-224905417D01*
X259643943Y-224917682D01*
X259642541Y-224929869D01*
X259639952Y-224941859D01*
X259636199Y-224953538D01*
X259631320Y-224964793D01*
X259625361Y-224975515D01*
X259618380Y-224985602D01*
X259610444Y-224994956D01*
X259601629Y-225003487D01*
X259592021Y-225011113D01*
X259581711Y-225017760D01*
X259365205Y-225142760D01*
X259354293Y-225148365D01*
X259342885Y-225152873D01*
X259331090Y-225156242D01*
X259319021Y-225158438D01*
X259306795Y-225159440D01*
X259294530Y-225159239D01*
X259282343Y-225157837D01*
X259270353Y-225155248D01*
X259258674Y-225151495D01*
X259247419Y-225146616D01*
X259236697Y-225140657D01*
X259226610Y-225133676D01*
X259217256Y-225125740D01*
X259208725Y-225116925D01*
X259201099Y-225107317D01*
X259194452Y-225097007D01*
X258569452Y-224014475D01*
X258563847Y-224003563D01*
X258559339Y-223992155D01*
X258555970Y-223980360D01*
X258553774Y-223968291D01*
X258552772Y-223956065D01*
X258552973Y-223943800D01*
X258554375Y-223931613D01*
X258556964Y-223919623D01*
X258560717Y-223907944D01*
X258565596Y-223896689D01*
X258571555Y-223885967D01*
X258578536Y-223875880D01*
X258586472Y-223866526D01*
X258595287Y-223857995D01*
X258604895Y-223850369D01*
X258615205Y-223843722D01*
X258831711Y-223718722D01*
X258842623Y-223713117D01*
X258854031Y-223708609D01*
X258865826Y-223705240D01*
X258877895Y-223703044D01*
X258890121Y-223702042D01*
X258902386Y-223702243D01*
X258902386Y-223702243D01*
G37*
D19*
X259098458Y-224430741D03*
D12*
G36*
X258209566Y-224102243D02*
G01*
X258221753Y-224103645D01*
X258233743Y-224106234D01*
X258245422Y-224109987D01*
X258256677Y-224114866D01*
X258267399Y-224120825D01*
X258277486Y-224127806D01*
X258286840Y-224135742D01*
X258295371Y-224144557D01*
X258302997Y-224154165D01*
X258309644Y-224164475D01*
X258934644Y-225247007D01*
X258940249Y-225257919D01*
X258944757Y-225269327D01*
X258948126Y-225281122D01*
X258950322Y-225293191D01*
X258951324Y-225305417D01*
X258951123Y-225317682D01*
X258949721Y-225329869D01*
X258947132Y-225341859D01*
X258943379Y-225353538D01*
X258938500Y-225364793D01*
X258932541Y-225375515D01*
X258925560Y-225385602D01*
X258917624Y-225394956D01*
X258908809Y-225403487D01*
X258899201Y-225411113D01*
X258888891Y-225417760D01*
X258672385Y-225542760D01*
X258661473Y-225548365D01*
X258650065Y-225552873D01*
X258638270Y-225556242D01*
X258626201Y-225558438D01*
X258613975Y-225559440D01*
X258601710Y-225559239D01*
X258589523Y-225557837D01*
X258577533Y-225555248D01*
X258565854Y-225551495D01*
X258554599Y-225546616D01*
X258543877Y-225540657D01*
X258533790Y-225533676D01*
X258524436Y-225525740D01*
X258515905Y-225516925D01*
X258508279Y-225507317D01*
X258501632Y-225497007D01*
X257876632Y-224414475D01*
X257871027Y-224403563D01*
X257866519Y-224392155D01*
X257863150Y-224380360D01*
X257860954Y-224368291D01*
X257859952Y-224356065D01*
X257860153Y-224343800D01*
X257861555Y-224331613D01*
X257864144Y-224319623D01*
X257867897Y-224307944D01*
X257872776Y-224296689D01*
X257878735Y-224285967D01*
X257885716Y-224275880D01*
X257893652Y-224266526D01*
X257902467Y-224257995D01*
X257912075Y-224250369D01*
X257922385Y-224243722D01*
X258138891Y-224118722D01*
X258149803Y-224113117D01*
X258161211Y-224108609D01*
X258173006Y-224105240D01*
X258185075Y-224103044D01*
X258197301Y-224102042D01*
X258209566Y-224102243D01*
X258209566Y-224102243D01*
G37*
D19*
X258405638Y-224830741D03*
D12*
G36*
X257516746Y-224502243D02*
G01*
X257528933Y-224503645D01*
X257540923Y-224506234D01*
X257552602Y-224509987D01*
X257563857Y-224514866D01*
X257574579Y-224520825D01*
X257584666Y-224527806D01*
X257594020Y-224535742D01*
X257602551Y-224544557D01*
X257610177Y-224554165D01*
X257616824Y-224564475D01*
X258241824Y-225647007D01*
X258247429Y-225657919D01*
X258251937Y-225669327D01*
X258255306Y-225681122D01*
X258257502Y-225693191D01*
X258258504Y-225705417D01*
X258258303Y-225717682D01*
X258256901Y-225729869D01*
X258254312Y-225741859D01*
X258250559Y-225753538D01*
X258245680Y-225764793D01*
X258239721Y-225775515D01*
X258232740Y-225785602D01*
X258224804Y-225794956D01*
X258215989Y-225803487D01*
X258206381Y-225811113D01*
X258196071Y-225817760D01*
X257979565Y-225942760D01*
X257968653Y-225948365D01*
X257957245Y-225952873D01*
X257945450Y-225956242D01*
X257933381Y-225958438D01*
X257921155Y-225959440D01*
X257908890Y-225959239D01*
X257896703Y-225957837D01*
X257884713Y-225955248D01*
X257873034Y-225951495D01*
X257861779Y-225946616D01*
X257851057Y-225940657D01*
X257840970Y-225933676D01*
X257831616Y-225925740D01*
X257823085Y-225916925D01*
X257815459Y-225907317D01*
X257808812Y-225897007D01*
X257183812Y-224814475D01*
X257178207Y-224803563D01*
X257173699Y-224792155D01*
X257170330Y-224780360D01*
X257168134Y-224768291D01*
X257167132Y-224756065D01*
X257167333Y-224743800D01*
X257168735Y-224731613D01*
X257171324Y-224719623D01*
X257175077Y-224707944D01*
X257179956Y-224696689D01*
X257185915Y-224685967D01*
X257192896Y-224675880D01*
X257200832Y-224666526D01*
X257209647Y-224657995D01*
X257219255Y-224650369D01*
X257229565Y-224643722D01*
X257446071Y-224518722D01*
X257456983Y-224513117D01*
X257468391Y-224508609D01*
X257480186Y-224505240D01*
X257492255Y-224503044D01*
X257504481Y-224502042D01*
X257516746Y-224502243D01*
X257516746Y-224502243D01*
G37*
D19*
X257712818Y-225230741D03*
D12*
G36*
X256823925Y-224902243D02*
G01*
X256836112Y-224903645D01*
X256848102Y-224906234D01*
X256859781Y-224909987D01*
X256871036Y-224914866D01*
X256881758Y-224920825D01*
X256891845Y-224927806D01*
X256901199Y-224935742D01*
X256909730Y-224944557D01*
X256917356Y-224954165D01*
X256924003Y-224964475D01*
X257549003Y-226047007D01*
X257554608Y-226057919D01*
X257559116Y-226069327D01*
X257562485Y-226081122D01*
X257564681Y-226093191D01*
X257565683Y-226105417D01*
X257565482Y-226117682D01*
X257564080Y-226129869D01*
X257561491Y-226141859D01*
X257557738Y-226153538D01*
X257552859Y-226164793D01*
X257546900Y-226175515D01*
X257539919Y-226185602D01*
X257531983Y-226194956D01*
X257523168Y-226203487D01*
X257513560Y-226211113D01*
X257503250Y-226217760D01*
X257286744Y-226342760D01*
X257275832Y-226348365D01*
X257264424Y-226352873D01*
X257252629Y-226356242D01*
X257240560Y-226358438D01*
X257228334Y-226359440D01*
X257216069Y-226359239D01*
X257203882Y-226357837D01*
X257191892Y-226355248D01*
X257180213Y-226351495D01*
X257168958Y-226346616D01*
X257158236Y-226340657D01*
X257148149Y-226333676D01*
X257138795Y-226325740D01*
X257130264Y-226316925D01*
X257122638Y-226307317D01*
X257115991Y-226297007D01*
X256490991Y-225214475D01*
X256485386Y-225203563D01*
X256480878Y-225192155D01*
X256477509Y-225180360D01*
X256475313Y-225168291D01*
X256474311Y-225156065D01*
X256474512Y-225143800D01*
X256475914Y-225131613D01*
X256478503Y-225119623D01*
X256482256Y-225107944D01*
X256487135Y-225096689D01*
X256493094Y-225085967D01*
X256500075Y-225075880D01*
X256508011Y-225066526D01*
X256516826Y-225057995D01*
X256526434Y-225050369D01*
X256536744Y-225043722D01*
X256753250Y-224918722D01*
X256764162Y-224913117D01*
X256775570Y-224908609D01*
X256787365Y-224905240D01*
X256799434Y-224903044D01*
X256811660Y-224902042D01*
X256823925Y-224902243D01*
X256823925Y-224902243D01*
G37*
D19*
X257019997Y-225630741D03*
D12*
G36*
X256131105Y-225302243D02*
G01*
X256143292Y-225303645D01*
X256155282Y-225306234D01*
X256166961Y-225309987D01*
X256178216Y-225314866D01*
X256188938Y-225320825D01*
X256199025Y-225327806D01*
X256208379Y-225335742D01*
X256216910Y-225344557D01*
X256224536Y-225354165D01*
X256231183Y-225364475D01*
X256856183Y-226447007D01*
X256861788Y-226457919D01*
X256866296Y-226469327D01*
X256869665Y-226481122D01*
X256871861Y-226493191D01*
X256872863Y-226505417D01*
X256872662Y-226517682D01*
X256871260Y-226529869D01*
X256868671Y-226541859D01*
X256864918Y-226553538D01*
X256860039Y-226564793D01*
X256854080Y-226575515D01*
X256847099Y-226585602D01*
X256839163Y-226594956D01*
X256830348Y-226603487D01*
X256820740Y-226611113D01*
X256810430Y-226617760D01*
X256593924Y-226742760D01*
X256583012Y-226748365D01*
X256571604Y-226752873D01*
X256559809Y-226756242D01*
X256547740Y-226758438D01*
X256535514Y-226759440D01*
X256523249Y-226759239D01*
X256511062Y-226757837D01*
X256499072Y-226755248D01*
X256487393Y-226751495D01*
X256476138Y-226746616D01*
X256465416Y-226740657D01*
X256455329Y-226733676D01*
X256445975Y-226725740D01*
X256437444Y-226716925D01*
X256429818Y-226707317D01*
X256423171Y-226697007D01*
X255798171Y-225614475D01*
X255792566Y-225603563D01*
X255788058Y-225592155D01*
X255784689Y-225580360D01*
X255782493Y-225568291D01*
X255781491Y-225556065D01*
X255781692Y-225543800D01*
X255783094Y-225531613D01*
X255785683Y-225519623D01*
X255789436Y-225507944D01*
X255794315Y-225496689D01*
X255800274Y-225485967D01*
X255807255Y-225475880D01*
X255815191Y-225466526D01*
X255824006Y-225457995D01*
X255833614Y-225450369D01*
X255843924Y-225443722D01*
X256060430Y-225318722D01*
X256071342Y-225313117D01*
X256082750Y-225308609D01*
X256094545Y-225305240D01*
X256106614Y-225303044D01*
X256118840Y-225302042D01*
X256131105Y-225302243D01*
X256131105Y-225302243D01*
G37*
D19*
X256327177Y-226030741D03*
D12*
G36*
X256310833Y-227363541D02*
G01*
X256323020Y-227364943D01*
X256335010Y-227367532D01*
X256346689Y-227371285D01*
X256357944Y-227376164D01*
X256368666Y-227382123D01*
X256378753Y-227389104D01*
X256388107Y-227397040D01*
X256396638Y-227405855D01*
X256404264Y-227415463D01*
X256410911Y-227425773D01*
X256535911Y-227642279D01*
X256541516Y-227653191D01*
X256546024Y-227664599D01*
X256549393Y-227676394D01*
X256551589Y-227688463D01*
X256552591Y-227700689D01*
X256552390Y-227712954D01*
X256550988Y-227725141D01*
X256548399Y-227737131D01*
X256544646Y-227748810D01*
X256539767Y-227760065D01*
X256533808Y-227770787D01*
X256526827Y-227780874D01*
X256518891Y-227790228D01*
X256510076Y-227798759D01*
X256500468Y-227806385D01*
X256490158Y-227813032D01*
X255407626Y-228438032D01*
X255396714Y-228443637D01*
X255385306Y-228448145D01*
X255373511Y-228451514D01*
X255361442Y-228453710D01*
X255349216Y-228454712D01*
X255336951Y-228454511D01*
X255324764Y-228453109D01*
X255312774Y-228450520D01*
X255301095Y-228446767D01*
X255289840Y-228441888D01*
X255279118Y-228435929D01*
X255269031Y-228428948D01*
X255259677Y-228421012D01*
X255251146Y-228412197D01*
X255243520Y-228402589D01*
X255236873Y-228392279D01*
X255111873Y-228175773D01*
X255106268Y-228164861D01*
X255101760Y-228153453D01*
X255098391Y-228141658D01*
X255096195Y-228129589D01*
X255095193Y-228117363D01*
X255095394Y-228105098D01*
X255096796Y-228092911D01*
X255099385Y-228080921D01*
X255103138Y-228069242D01*
X255108017Y-228057987D01*
X255113976Y-228047265D01*
X255120957Y-228037178D01*
X255128893Y-228027824D01*
X255137708Y-228019293D01*
X255147316Y-228011667D01*
X255157626Y-228005020D01*
X256240158Y-227380020D01*
X256251070Y-227374415D01*
X256262478Y-227369907D01*
X256274273Y-227366538D01*
X256286342Y-227364342D01*
X256298568Y-227363340D01*
X256310833Y-227363541D01*
X256310833Y-227363541D01*
G37*
D19*
X255823892Y-227909026D03*
D12*
G36*
X256710833Y-228056361D02*
G01*
X256723020Y-228057763D01*
X256735010Y-228060352D01*
X256746689Y-228064105D01*
X256757944Y-228068984D01*
X256768666Y-228074943D01*
X256778753Y-228081924D01*
X256788107Y-228089860D01*
X256796638Y-228098675D01*
X256804264Y-228108283D01*
X256810911Y-228118593D01*
X256935911Y-228335099D01*
X256941516Y-228346011D01*
X256946024Y-228357419D01*
X256949393Y-228369214D01*
X256951589Y-228381283D01*
X256952591Y-228393509D01*
X256952390Y-228405774D01*
X256950988Y-228417961D01*
X256948399Y-228429951D01*
X256944646Y-228441630D01*
X256939767Y-228452885D01*
X256933808Y-228463607D01*
X256926827Y-228473694D01*
X256918891Y-228483048D01*
X256910076Y-228491579D01*
X256900468Y-228499205D01*
X256890158Y-228505852D01*
X255807626Y-229130852D01*
X255796714Y-229136457D01*
X255785306Y-229140965D01*
X255773511Y-229144334D01*
X255761442Y-229146530D01*
X255749216Y-229147532D01*
X255736951Y-229147331D01*
X255724764Y-229145929D01*
X255712774Y-229143340D01*
X255701095Y-229139587D01*
X255689840Y-229134708D01*
X255679118Y-229128749D01*
X255669031Y-229121768D01*
X255659677Y-229113832D01*
X255651146Y-229105017D01*
X255643520Y-229095409D01*
X255636873Y-229085099D01*
X255511873Y-228868593D01*
X255506268Y-228857681D01*
X255501760Y-228846273D01*
X255498391Y-228834478D01*
X255496195Y-228822409D01*
X255495193Y-228810183D01*
X255495394Y-228797918D01*
X255496796Y-228785731D01*
X255499385Y-228773741D01*
X255503138Y-228762062D01*
X255508017Y-228750807D01*
X255513976Y-228740085D01*
X255520957Y-228729998D01*
X255528893Y-228720644D01*
X255537708Y-228712113D01*
X255547316Y-228704487D01*
X255557626Y-228697840D01*
X256640158Y-228072840D01*
X256651070Y-228067235D01*
X256662478Y-228062727D01*
X256674273Y-228059358D01*
X256686342Y-228057162D01*
X256698568Y-228056160D01*
X256710833Y-228056361D01*
X256710833Y-228056361D01*
G37*
D19*
X256223892Y-228601846D03*
D12*
G36*
X257110833Y-228749182D02*
G01*
X257123020Y-228750584D01*
X257135010Y-228753173D01*
X257146689Y-228756926D01*
X257157944Y-228761805D01*
X257168666Y-228767764D01*
X257178753Y-228774745D01*
X257188107Y-228782681D01*
X257196638Y-228791496D01*
X257204264Y-228801104D01*
X257210911Y-228811414D01*
X257335911Y-229027920D01*
X257341516Y-229038832D01*
X257346024Y-229050240D01*
X257349393Y-229062035D01*
X257351589Y-229074104D01*
X257352591Y-229086330D01*
X257352390Y-229098595D01*
X257350988Y-229110782D01*
X257348399Y-229122772D01*
X257344646Y-229134451D01*
X257339767Y-229145706D01*
X257333808Y-229156428D01*
X257326827Y-229166515D01*
X257318891Y-229175869D01*
X257310076Y-229184400D01*
X257300468Y-229192026D01*
X257290158Y-229198673D01*
X256207626Y-229823673D01*
X256196714Y-229829278D01*
X256185306Y-229833786D01*
X256173511Y-229837155D01*
X256161442Y-229839351D01*
X256149216Y-229840353D01*
X256136951Y-229840152D01*
X256124764Y-229838750D01*
X256112774Y-229836161D01*
X256101095Y-229832408D01*
X256089840Y-229827529D01*
X256079118Y-229821570D01*
X256069031Y-229814589D01*
X256059677Y-229806653D01*
X256051146Y-229797838D01*
X256043520Y-229788230D01*
X256036873Y-229777920D01*
X255911873Y-229561414D01*
X255906268Y-229550502D01*
X255901760Y-229539094D01*
X255898391Y-229527299D01*
X255896195Y-229515230D01*
X255895193Y-229503004D01*
X255895394Y-229490739D01*
X255896796Y-229478552D01*
X255899385Y-229466562D01*
X255903138Y-229454883D01*
X255908017Y-229443628D01*
X255913976Y-229432906D01*
X255920957Y-229422819D01*
X255928893Y-229413465D01*
X255937708Y-229404934D01*
X255947316Y-229397308D01*
X255957626Y-229390661D01*
X257040158Y-228765661D01*
X257051070Y-228760056D01*
X257062478Y-228755548D01*
X257074273Y-228752179D01*
X257086342Y-228749983D01*
X257098568Y-228748981D01*
X257110833Y-228749182D01*
X257110833Y-228749182D01*
G37*
D19*
X256623892Y-229294667D03*
D12*
G36*
X257510833Y-229442002D02*
G01*
X257523020Y-229443404D01*
X257535010Y-229445993D01*
X257546689Y-229449746D01*
X257557944Y-229454625D01*
X257568666Y-229460584D01*
X257578753Y-229467565D01*
X257588107Y-229475501D01*
X257596638Y-229484316D01*
X257604264Y-229493924D01*
X257610911Y-229504234D01*
X257735911Y-229720740D01*
X257741516Y-229731652D01*
X257746024Y-229743060D01*
X257749393Y-229754855D01*
X257751589Y-229766924D01*
X257752591Y-229779150D01*
X257752390Y-229791415D01*
X257750988Y-229803602D01*
X257748399Y-229815592D01*
X257744646Y-229827271D01*
X257739767Y-229838526D01*
X257733808Y-229849248D01*
X257726827Y-229859335D01*
X257718891Y-229868689D01*
X257710076Y-229877220D01*
X257700468Y-229884846D01*
X257690158Y-229891493D01*
X256607626Y-230516493D01*
X256596714Y-230522098D01*
X256585306Y-230526606D01*
X256573511Y-230529975D01*
X256561442Y-230532171D01*
X256549216Y-230533173D01*
X256536951Y-230532972D01*
X256524764Y-230531570D01*
X256512774Y-230528981D01*
X256501095Y-230525228D01*
X256489840Y-230520349D01*
X256479118Y-230514390D01*
X256469031Y-230507409D01*
X256459677Y-230499473D01*
X256451146Y-230490658D01*
X256443520Y-230481050D01*
X256436873Y-230470740D01*
X256311873Y-230254234D01*
X256306268Y-230243322D01*
X256301760Y-230231914D01*
X256298391Y-230220119D01*
X256296195Y-230208050D01*
X256295193Y-230195824D01*
X256295394Y-230183559D01*
X256296796Y-230171372D01*
X256299385Y-230159382D01*
X256303138Y-230147703D01*
X256308017Y-230136448D01*
X256313976Y-230125726D01*
X256320957Y-230115639D01*
X256328893Y-230106285D01*
X256337708Y-230097754D01*
X256347316Y-230090128D01*
X256357626Y-230083481D01*
X257440158Y-229458481D01*
X257451070Y-229452876D01*
X257462478Y-229448368D01*
X257474273Y-229444999D01*
X257486342Y-229442803D01*
X257498568Y-229441801D01*
X257510833Y-229442002D01*
X257510833Y-229442002D01*
G37*
D19*
X257023892Y-229987487D03*
D12*
G36*
X257910833Y-230134822D02*
G01*
X257923020Y-230136224D01*
X257935010Y-230138813D01*
X257946689Y-230142566D01*
X257957944Y-230147445D01*
X257968666Y-230153404D01*
X257978753Y-230160385D01*
X257988107Y-230168321D01*
X257996638Y-230177136D01*
X258004264Y-230186744D01*
X258010911Y-230197054D01*
X258135911Y-230413560D01*
X258141516Y-230424472D01*
X258146024Y-230435880D01*
X258149393Y-230447675D01*
X258151589Y-230459744D01*
X258152591Y-230471970D01*
X258152390Y-230484235D01*
X258150988Y-230496422D01*
X258148399Y-230508412D01*
X258144646Y-230520091D01*
X258139767Y-230531346D01*
X258133808Y-230542068D01*
X258126827Y-230552155D01*
X258118891Y-230561509D01*
X258110076Y-230570040D01*
X258100468Y-230577666D01*
X258090158Y-230584313D01*
X257007626Y-231209313D01*
X256996714Y-231214918D01*
X256985306Y-231219426D01*
X256973511Y-231222795D01*
X256961442Y-231224991D01*
X256949216Y-231225993D01*
X256936951Y-231225792D01*
X256924764Y-231224390D01*
X256912774Y-231221801D01*
X256901095Y-231218048D01*
X256889840Y-231213169D01*
X256879118Y-231207210D01*
X256869031Y-231200229D01*
X256859677Y-231192293D01*
X256851146Y-231183478D01*
X256843520Y-231173870D01*
X256836873Y-231163560D01*
X256711873Y-230947054D01*
X256706268Y-230936142D01*
X256701760Y-230924734D01*
X256698391Y-230912939D01*
X256696195Y-230900870D01*
X256695193Y-230888644D01*
X256695394Y-230876379D01*
X256696796Y-230864192D01*
X256699385Y-230852202D01*
X256703138Y-230840523D01*
X256708017Y-230829268D01*
X256713976Y-230818546D01*
X256720957Y-230808459D01*
X256728893Y-230799105D01*
X256737708Y-230790574D01*
X256747316Y-230782948D01*
X256757626Y-230776301D01*
X257840158Y-230151301D01*
X257851070Y-230145696D01*
X257862478Y-230141188D01*
X257874273Y-230137819D01*
X257886342Y-230135623D01*
X257898568Y-230134621D01*
X257910833Y-230134822D01*
X257910833Y-230134822D01*
G37*
D19*
X257423892Y-230680307D03*
D12*
G36*
X258310833Y-230827642D02*
G01*
X258323020Y-230829044D01*
X258335010Y-230831633D01*
X258346689Y-230835386D01*
X258357944Y-230840265D01*
X258368666Y-230846224D01*
X258378753Y-230853205D01*
X258388107Y-230861141D01*
X258396638Y-230869956D01*
X258404264Y-230879564D01*
X258410911Y-230889874D01*
X258535911Y-231106380D01*
X258541516Y-231117292D01*
X258546024Y-231128700D01*
X258549393Y-231140495D01*
X258551589Y-231152564D01*
X258552591Y-231164790D01*
X258552390Y-231177055D01*
X258550988Y-231189242D01*
X258548399Y-231201232D01*
X258544646Y-231212911D01*
X258539767Y-231224166D01*
X258533808Y-231234888D01*
X258526827Y-231244975D01*
X258518891Y-231254329D01*
X258510076Y-231262860D01*
X258500468Y-231270486D01*
X258490158Y-231277133D01*
X257407626Y-231902133D01*
X257396714Y-231907738D01*
X257385306Y-231912246D01*
X257373511Y-231915615D01*
X257361442Y-231917811D01*
X257349216Y-231918813D01*
X257336951Y-231918612D01*
X257324764Y-231917210D01*
X257312774Y-231914621D01*
X257301095Y-231910868D01*
X257289840Y-231905989D01*
X257279118Y-231900030D01*
X257269031Y-231893049D01*
X257259677Y-231885113D01*
X257251146Y-231876298D01*
X257243520Y-231866690D01*
X257236873Y-231856380D01*
X257111873Y-231639874D01*
X257106268Y-231628962D01*
X257101760Y-231617554D01*
X257098391Y-231605759D01*
X257096195Y-231593690D01*
X257095193Y-231581464D01*
X257095394Y-231569199D01*
X257096796Y-231557012D01*
X257099385Y-231545022D01*
X257103138Y-231533343D01*
X257108017Y-231522088D01*
X257113976Y-231511366D01*
X257120957Y-231501279D01*
X257128893Y-231491925D01*
X257137708Y-231483394D01*
X257147316Y-231475768D01*
X257157626Y-231469121D01*
X258240158Y-230844121D01*
X258251070Y-230838516D01*
X258262478Y-230834008D01*
X258274273Y-230830639D01*
X258286342Y-230828443D01*
X258298568Y-230827441D01*
X258310833Y-230827642D01*
X258310833Y-230827642D01*
G37*
D19*
X257823892Y-231373127D03*
D12*
G36*
X258710833Y-231520463D02*
G01*
X258723020Y-231521865D01*
X258735010Y-231524454D01*
X258746689Y-231528207D01*
X258757944Y-231533086D01*
X258768666Y-231539045D01*
X258778753Y-231546026D01*
X258788107Y-231553962D01*
X258796638Y-231562777D01*
X258804264Y-231572385D01*
X258810911Y-231582695D01*
X258935911Y-231799201D01*
X258941516Y-231810113D01*
X258946024Y-231821521D01*
X258949393Y-231833316D01*
X258951589Y-231845385D01*
X258952591Y-231857611D01*
X258952390Y-231869876D01*
X258950988Y-231882063D01*
X258948399Y-231894053D01*
X258944646Y-231905732D01*
X258939767Y-231916987D01*
X258933808Y-231927709D01*
X258926827Y-231937796D01*
X258918891Y-231947150D01*
X258910076Y-231955681D01*
X258900468Y-231963307D01*
X258890158Y-231969954D01*
X257807626Y-232594954D01*
X257796714Y-232600559D01*
X257785306Y-232605067D01*
X257773511Y-232608436D01*
X257761442Y-232610632D01*
X257749216Y-232611634D01*
X257736951Y-232611433D01*
X257724764Y-232610031D01*
X257712774Y-232607442D01*
X257701095Y-232603689D01*
X257689840Y-232598810D01*
X257679118Y-232592851D01*
X257669031Y-232585870D01*
X257659677Y-232577934D01*
X257651146Y-232569119D01*
X257643520Y-232559511D01*
X257636873Y-232549201D01*
X257511873Y-232332695D01*
X257506268Y-232321783D01*
X257501760Y-232310375D01*
X257498391Y-232298580D01*
X257496195Y-232286511D01*
X257495193Y-232274285D01*
X257495394Y-232262020D01*
X257496796Y-232249833D01*
X257499385Y-232237843D01*
X257503138Y-232226164D01*
X257508017Y-232214909D01*
X257513976Y-232204187D01*
X257520957Y-232194100D01*
X257528893Y-232184746D01*
X257537708Y-232176215D01*
X257547316Y-232168589D01*
X257557626Y-232161942D01*
X258640158Y-231536942D01*
X258651070Y-231531337D01*
X258662478Y-231526829D01*
X258674273Y-231523460D01*
X258686342Y-231521264D01*
X258698568Y-231520262D01*
X258710833Y-231520463D01*
X258710833Y-231520463D01*
G37*
D19*
X258223892Y-232065948D03*
D12*
G36*
X259110833Y-232213283D02*
G01*
X259123020Y-232214685D01*
X259135010Y-232217274D01*
X259146689Y-232221027D01*
X259157944Y-232225906D01*
X259168666Y-232231865D01*
X259178753Y-232238846D01*
X259188107Y-232246782D01*
X259196638Y-232255597D01*
X259204264Y-232265205D01*
X259210911Y-232275515D01*
X259335911Y-232492021D01*
X259341516Y-232502933D01*
X259346024Y-232514341D01*
X259349393Y-232526136D01*
X259351589Y-232538205D01*
X259352591Y-232550431D01*
X259352390Y-232562696D01*
X259350988Y-232574883D01*
X259348399Y-232586873D01*
X259344646Y-232598552D01*
X259339767Y-232609807D01*
X259333808Y-232620529D01*
X259326827Y-232630616D01*
X259318891Y-232639970D01*
X259310076Y-232648501D01*
X259300468Y-232656127D01*
X259290158Y-232662774D01*
X258207626Y-233287774D01*
X258196714Y-233293379D01*
X258185306Y-233297887D01*
X258173511Y-233301256D01*
X258161442Y-233303452D01*
X258149216Y-233304454D01*
X258136951Y-233304253D01*
X258124764Y-233302851D01*
X258112774Y-233300262D01*
X258101095Y-233296509D01*
X258089840Y-233291630D01*
X258079118Y-233285671D01*
X258069031Y-233278690D01*
X258059677Y-233270754D01*
X258051146Y-233261939D01*
X258043520Y-233252331D01*
X258036873Y-233242021D01*
X257911873Y-233025515D01*
X257906268Y-233014603D01*
X257901760Y-233003195D01*
X257898391Y-232991400D01*
X257896195Y-232979331D01*
X257895193Y-232967105D01*
X257895394Y-232954840D01*
X257896796Y-232942653D01*
X257899385Y-232930663D01*
X257903138Y-232918984D01*
X257908017Y-232907729D01*
X257913976Y-232897007D01*
X257920957Y-232886920D01*
X257928893Y-232877566D01*
X257937708Y-232869035D01*
X257947316Y-232861409D01*
X257957626Y-232854762D01*
X259040158Y-232229762D01*
X259051070Y-232224157D01*
X259062478Y-232219649D01*
X259074273Y-232216280D01*
X259086342Y-232214084D01*
X259098568Y-232213082D01*
X259110833Y-232213283D01*
X259110833Y-232213283D01*
G37*
D19*
X258623892Y-232758768D03*
D20*
X305140000Y-274700000D03*
X303140000Y-274700000D03*
X301140000Y-274700000D03*
X299140000Y-274700000D03*
X297140000Y-274700000D03*
X295140000Y-274700000D03*
X293140000Y-274700000D03*
X291140000Y-274700000D03*
D21*
X289640000Y-277300000D03*
X289640000Y-279300000D03*
X289640000Y-281300000D03*
X289640000Y-283300000D03*
X289640000Y-285300000D03*
X289640000Y-287300000D03*
D20*
X291140000Y-289900000D03*
X293140000Y-289900000D03*
X295140000Y-289900000D03*
X297140000Y-289900000D03*
X299140000Y-289900000D03*
X301140000Y-289900000D03*
X303140000Y-289900000D03*
X305140000Y-289900000D03*
D22*
X339690000Y-233730000D03*
X340640000Y-233730000D03*
X341590000Y-233730000D03*
X341590000Y-231030000D03*
X339690000Y-231030000D03*
D23*
X350400000Y-232500000D03*
D24*
X350400000Y-235040000D03*
X350400000Y-237580000D03*
X350400000Y-240120000D03*
X350400000Y-242660000D03*
X350400000Y-245200000D03*
D25*
X330679312Y-198527240D03*
X325208211Y-194990711D03*
D12*
G36*
X287023505Y-272956204D02*
G01*
X287047773Y-272959804D01*
X287071572Y-272965765D01*
X287094671Y-272974030D01*
X287116850Y-272984520D01*
X287137893Y-272997132D01*
X287157599Y-273011747D01*
X287175777Y-273028223D01*
X287192253Y-273046401D01*
X287206868Y-273066107D01*
X287219480Y-273087150D01*
X287229970Y-273109329D01*
X287238235Y-273132428D01*
X287244196Y-273156227D01*
X287247796Y-273180495D01*
X287249000Y-273204999D01*
X287249000Y-274105001D01*
X287247796Y-274129505D01*
X287244196Y-274153773D01*
X287238235Y-274177572D01*
X287229970Y-274200671D01*
X287219480Y-274222850D01*
X287206868Y-274243893D01*
X287192253Y-274263599D01*
X287175777Y-274281777D01*
X287157599Y-274298253D01*
X287137893Y-274312868D01*
X287116850Y-274325480D01*
X287094671Y-274335970D01*
X287071572Y-274344235D01*
X287047773Y-274350196D01*
X287023505Y-274353796D01*
X286999001Y-274355000D01*
X286348999Y-274355000D01*
X286324495Y-274353796D01*
X286300227Y-274350196D01*
X286276428Y-274344235D01*
X286253329Y-274335970D01*
X286231150Y-274325480D01*
X286210107Y-274312868D01*
X286190401Y-274298253D01*
X286172223Y-274281777D01*
X286155747Y-274263599D01*
X286141132Y-274243893D01*
X286128520Y-274222850D01*
X286118030Y-274200671D01*
X286109765Y-274177572D01*
X286103804Y-274153773D01*
X286100204Y-274129505D01*
X286099000Y-274105001D01*
X286099000Y-273204999D01*
X286100204Y-273180495D01*
X286103804Y-273156227D01*
X286109765Y-273132428D01*
X286118030Y-273109329D01*
X286128520Y-273087150D01*
X286141132Y-273066107D01*
X286155747Y-273046401D01*
X286172223Y-273028223D01*
X286190401Y-273011747D01*
X286210107Y-272997132D01*
X286231150Y-272984520D01*
X286253329Y-272974030D01*
X286276428Y-272965765D01*
X286300227Y-272959804D01*
X286324495Y-272956204D01*
X286348999Y-272955000D01*
X286999001Y-272955000D01*
X287023505Y-272956204D01*
X287023505Y-272956204D01*
G37*
D14*
X286674000Y-273655000D03*
D12*
G36*
X284973505Y-272956204D02*
G01*
X284997773Y-272959804D01*
X285021572Y-272965765D01*
X285044671Y-272974030D01*
X285066850Y-272984520D01*
X285087893Y-272997132D01*
X285107599Y-273011747D01*
X285125777Y-273028223D01*
X285142253Y-273046401D01*
X285156868Y-273066107D01*
X285169480Y-273087150D01*
X285179970Y-273109329D01*
X285188235Y-273132428D01*
X285194196Y-273156227D01*
X285197796Y-273180495D01*
X285199000Y-273204999D01*
X285199000Y-274105001D01*
X285197796Y-274129505D01*
X285194196Y-274153773D01*
X285188235Y-274177572D01*
X285179970Y-274200671D01*
X285169480Y-274222850D01*
X285156868Y-274243893D01*
X285142253Y-274263599D01*
X285125777Y-274281777D01*
X285107599Y-274298253D01*
X285087893Y-274312868D01*
X285066850Y-274325480D01*
X285044671Y-274335970D01*
X285021572Y-274344235D01*
X284997773Y-274350196D01*
X284973505Y-274353796D01*
X284949001Y-274355000D01*
X284298999Y-274355000D01*
X284274495Y-274353796D01*
X284250227Y-274350196D01*
X284226428Y-274344235D01*
X284203329Y-274335970D01*
X284181150Y-274325480D01*
X284160107Y-274312868D01*
X284140401Y-274298253D01*
X284122223Y-274281777D01*
X284105747Y-274263599D01*
X284091132Y-274243893D01*
X284078520Y-274222850D01*
X284068030Y-274200671D01*
X284059765Y-274177572D01*
X284053804Y-274153773D01*
X284050204Y-274129505D01*
X284049000Y-274105001D01*
X284049000Y-273204999D01*
X284050204Y-273180495D01*
X284053804Y-273156227D01*
X284059765Y-273132428D01*
X284068030Y-273109329D01*
X284078520Y-273087150D01*
X284091132Y-273066107D01*
X284105747Y-273046401D01*
X284122223Y-273028223D01*
X284140401Y-273011747D01*
X284160107Y-272997132D01*
X284181150Y-272984520D01*
X284203329Y-272974030D01*
X284226428Y-272965765D01*
X284250227Y-272959804D01*
X284274495Y-272956204D01*
X284298999Y-272955000D01*
X284949001Y-272955000D01*
X284973505Y-272956204D01*
X284973505Y-272956204D01*
G37*
D14*
X284624000Y-273655000D03*
D12*
G36*
X265663239Y-233764909D02*
G01*
X265687612Y-233767713D01*
X265711593Y-233772893D01*
X265734950Y-233780398D01*
X265757460Y-233790156D01*
X265778905Y-233802073D01*
X265799078Y-233816036D01*
X265817785Y-233831908D01*
X265834847Y-233849537D01*
X265850099Y-233868754D01*
X265863394Y-233889374D01*
X266313395Y-234668799D01*
X266324604Y-234690622D01*
X266333621Y-234713439D01*
X266340357Y-234737029D01*
X266344749Y-234761167D01*
X266346754Y-234785618D01*
X266346353Y-234810149D01*
X266343549Y-234834522D01*
X266338369Y-234858503D01*
X266330865Y-234881860D01*
X266321106Y-234904370D01*
X266309189Y-234925814D01*
X266295227Y-234945988D01*
X266279354Y-234964695D01*
X266261725Y-234981757D01*
X266242508Y-234997009D01*
X266221888Y-235010304D01*
X265658969Y-235335305D01*
X265637146Y-235346514D01*
X265614329Y-235355531D01*
X265590739Y-235362267D01*
X265566601Y-235366659D01*
X265542150Y-235368664D01*
X265517619Y-235368263D01*
X265493246Y-235365459D01*
X265469265Y-235360279D01*
X265445908Y-235352774D01*
X265423398Y-235343016D01*
X265401953Y-235331099D01*
X265381780Y-235317136D01*
X265363073Y-235301264D01*
X265346011Y-235283635D01*
X265330759Y-235264418D01*
X265317464Y-235243798D01*
X264867463Y-234464373D01*
X264856254Y-234442550D01*
X264847237Y-234419733D01*
X264840501Y-234396143D01*
X264836109Y-234372005D01*
X264834104Y-234347554D01*
X264834505Y-234323023D01*
X264837309Y-234298650D01*
X264842489Y-234274669D01*
X264849993Y-234251312D01*
X264859752Y-234228802D01*
X264871669Y-234207358D01*
X264885631Y-234187184D01*
X264901504Y-234168477D01*
X264919133Y-234151415D01*
X264938350Y-234136163D01*
X264958970Y-234122868D01*
X265521889Y-233797867D01*
X265543712Y-233786658D01*
X265566529Y-233777641D01*
X265590119Y-233770905D01*
X265614257Y-233766513D01*
X265638708Y-233764508D01*
X265663239Y-233764909D01*
X265663239Y-233764909D01*
G37*
D14*
X265590429Y-234566586D03*
D12*
G36*
X263887887Y-234789909D02*
G01*
X263912260Y-234792713D01*
X263936241Y-234797893D01*
X263959598Y-234805398D01*
X263982108Y-234815156D01*
X264003553Y-234827073D01*
X264023726Y-234841036D01*
X264042433Y-234856908D01*
X264059495Y-234874537D01*
X264074747Y-234893754D01*
X264088042Y-234914374D01*
X264538043Y-235693799D01*
X264549252Y-235715622D01*
X264558269Y-235738439D01*
X264565005Y-235762029D01*
X264569397Y-235786167D01*
X264571402Y-235810618D01*
X264571001Y-235835149D01*
X264568197Y-235859522D01*
X264563017Y-235883503D01*
X264555513Y-235906860D01*
X264545754Y-235929370D01*
X264533837Y-235950814D01*
X264519875Y-235970988D01*
X264504002Y-235989695D01*
X264486373Y-236006757D01*
X264467156Y-236022009D01*
X264446536Y-236035304D01*
X263883617Y-236360305D01*
X263861794Y-236371514D01*
X263838977Y-236380531D01*
X263815387Y-236387267D01*
X263791249Y-236391659D01*
X263766798Y-236393664D01*
X263742267Y-236393263D01*
X263717894Y-236390459D01*
X263693913Y-236385279D01*
X263670556Y-236377774D01*
X263648046Y-236368016D01*
X263626601Y-236356099D01*
X263606428Y-236342136D01*
X263587721Y-236326264D01*
X263570659Y-236308635D01*
X263555407Y-236289418D01*
X263542112Y-236268798D01*
X263092111Y-235489373D01*
X263080902Y-235467550D01*
X263071885Y-235444733D01*
X263065149Y-235421143D01*
X263060757Y-235397005D01*
X263058752Y-235372554D01*
X263059153Y-235348023D01*
X263061957Y-235323650D01*
X263067137Y-235299669D01*
X263074641Y-235276312D01*
X263084400Y-235253802D01*
X263096317Y-235232358D01*
X263110279Y-235212184D01*
X263126152Y-235193477D01*
X263143781Y-235176415D01*
X263162998Y-235161163D01*
X263183618Y-235147868D01*
X263746537Y-234822867D01*
X263768360Y-234811658D01*
X263791177Y-234802641D01*
X263814767Y-234795905D01*
X263838905Y-234791513D01*
X263863356Y-234789508D01*
X263887887Y-234789909D01*
X263887887Y-234789909D01*
G37*
D14*
X263815077Y-235591586D03*
D11*
X249200000Y-250600000D03*
X260198523Y-244250000D03*
D26*
X260198523Y-244250000D02*
X260198523Y-244250000D01*
D11*
X323601477Y-272650000D03*
D26*
X323601477Y-272650000D02*
X323601477Y-272650000D01*
D11*
X334600000Y-279000000D03*
X315500000Y-190000000D03*
D27*
X315500000Y-202700000D03*
D15*
X261900000Y-211425000D03*
D12*
G36*
X261795232Y-212622507D02*
G01*
X260702493Y-211320232D01*
X262004768Y-210227493D01*
X263097507Y-211529768D01*
X261795232Y-212622507D01*
X261795232Y-212622507D01*
G37*
D15*
X260267319Y-209479247D03*
X263845753Y-209792319D03*
X262213072Y-207846567D03*
X265791506Y-208159639D03*
X264158825Y-206213886D03*
X267737259Y-206526958D03*
X266104578Y-204581206D03*
X269683012Y-204894278D03*
X268050331Y-202948525D03*
X271628764Y-203261597D03*
X269996084Y-201315844D03*
X273574517Y-201628917D03*
X271941837Y-199683164D03*
X275520270Y-199996236D03*
X273887590Y-198050483D03*
X277466023Y-198363556D03*
X275833343Y-196417803D03*
X279411776Y-196730875D03*
X277779095Y-194785122D03*
D18*
X268504000Y-230602000D03*
X269774000Y-227935000D03*
D28*
X338100000Y-233650000D03*
X289586000Y-289530000D03*
X268123000Y-241524000D03*
X269520000Y-241397000D03*
X270917000Y-241270000D03*
X272187000Y-241143000D03*
X273584000Y-241016000D03*
X274854000Y-240889000D03*
X274727000Y-245080000D03*
X273584000Y-245207000D03*
X272441000Y-245334000D03*
X271425000Y-245461000D03*
X270282000Y-245588000D03*
X266091000Y-235428000D03*
X315621000Y-208250000D03*
X320066000Y-211679000D03*
X317653000Y-210155000D03*
X334233148Y-226848852D03*
X335306000Y-230221000D03*
X335560000Y-231491000D03*
X335814000Y-232761000D03*
X335941000Y-234031000D03*
X336195000Y-235301000D03*
X336322000Y-236698000D03*
X336322000Y-238222000D03*
X336322000Y-239873000D03*
X336322000Y-241397000D03*
X336068000Y-243048000D03*
X335814000Y-244572000D03*
X335560000Y-246096000D03*
X335052000Y-247874000D03*
X343180000Y-244699000D03*
X344069000Y-246731000D03*
X344831000Y-247874000D03*
X345593000Y-249017000D03*
X350165000Y-248890000D03*
X349149000Y-247620000D03*
X348006000Y-246223000D03*
X346863000Y-244953000D03*
X319685000Y-224506000D03*
X320828000Y-223744000D03*
X321971000Y-222982000D03*
X323241000Y-222093000D03*
X324511000Y-221331000D03*
X325781000Y-220442000D03*
X327178000Y-219553000D03*
X328448000Y-218664000D03*
X330988000Y-222093000D03*
X329718000Y-222982000D03*
X328321000Y-223998000D03*
X327051000Y-224887000D03*
X325781000Y-225649000D03*
X324511000Y-226538000D03*
X323241000Y-227427000D03*
X321844000Y-228316000D03*
X285268000Y-275052000D03*
X294539000Y-206853000D03*
X294539000Y-207869000D03*
X294539000Y-208885000D03*
X294539000Y-209901000D03*
X294539000Y-210917000D03*
X300508000Y-206726000D03*
X300508000Y-207742000D03*
X300508000Y-208758000D03*
X300508000Y-209774000D03*
X300508000Y-210790000D03*
X285800000Y-192600000D03*
X283400000Y-190200000D03*
X281000000Y-190400000D03*
X284600000Y-193800000D03*
X281814878Y-194785122D03*
X269400000Y-196600000D03*
X267200000Y-198400000D03*
X265000000Y-200200000D03*
X262800000Y-202000000D03*
X258600000Y-212400000D03*
X258000000Y-214400000D03*
X254200000Y-214000000D03*
X268838036Y-263614822D03*
X266599000Y-260574000D03*
X288062000Y-259685000D03*
X298730000Y-195804000D03*
X295936000Y-195804000D03*
X292634000Y-218918000D03*
X339497000Y-229840000D03*
X340386000Y-227173000D03*
X340005000Y-260320000D03*
X337338000Y-263114000D03*
X332766000Y-261209000D03*
X348260000Y-232380000D03*
X315748000Y-257653000D03*
X301524000Y-277465000D03*
X289078000Y-273655000D03*
X301143000Y-270607000D03*
X322134724Y-230057276D03*
X314605000Y-221839000D03*
X273584000Y-236825000D03*
X288925600Y-219146600D03*
X339690000Y-235235000D03*
X255169000Y-226157000D03*
X261600000Y-225000000D03*
X264200000Y-229000000D03*
X273535344Y-211764656D03*
X287808000Y-261209000D03*
X277521000Y-251176000D03*
X286538000Y-261971000D03*
X276378000Y-252192000D03*
X285141000Y-262479000D03*
X274981000Y-252827000D03*
X281839000Y-263876000D03*
X271933000Y-252954000D03*
X273457000Y-252827000D03*
X283617000Y-262987000D03*
X345085000Y-231110000D03*
X309271000Y-219299000D03*
X301397000Y-218156000D03*
X344710891Y-240000000D03*
X304445000Y-277465000D03*
X296063000Y-283180000D03*
X345085000Y-263368000D03*
X296571000Y-189708000D03*
X266091000Y-212314000D03*
X262662000Y-216124000D03*
X259995000Y-262225000D03*
X250343000Y-229776500D03*
X261265000Y-264130000D03*
X302286000Y-191232000D03*
X343434000Y-266543000D03*
X324495010Y-249523398D03*
X294920000Y-213838000D03*
X322995010Y-252121475D03*
X285395000Y-258034000D03*
X282093000Y-254732000D03*
X300000000Y-214346000D03*
X339422105Y-258718911D03*
X344825647Y-261838647D03*
X343466334Y-269714102D03*
X335672105Y-265214102D03*
X295000000Y-198000000D03*
X295000000Y-190898000D03*
X304000000Y-188000000D03*
X304000000Y-196000000D03*
X257772500Y-263812500D03*
X258090000Y-266670000D03*
X266091000Y-261971000D03*
D29*
X332641625Y-200489553D02*
X330679312Y-198527240D01*
X332641625Y-205885862D02*
X332641625Y-200489553D01*
X325619722Y-207973613D02*
X325676387Y-207973613D01*
X324830998Y-208762337D02*
X325619722Y-207973613D01*
X332003069Y-205247306D02*
X332641625Y-205885862D01*
X328402694Y-205247306D02*
X332003069Y-205247306D01*
X325676387Y-207973613D02*
X328402694Y-205247306D01*
D30*
X340640000Y-235555891D02*
X341665000Y-236580891D01*
X340640000Y-233730000D02*
X340640000Y-235555891D01*
D26*
X325208211Y-201421482D02*
X320735238Y-205894455D01*
X325208211Y-194990711D02*
X325208211Y-201421482D01*
D31*
X291140000Y-289900000D02*
X289956000Y-289900000D01*
X289956000Y-289900000D02*
X289586000Y-289530000D01*
X286547000Y-288514000D02*
X289586000Y-289530000D01*
D32*
X264313000Y-233269000D02*
X265590429Y-234566586D01*
X263273458Y-231662053D02*
X264313000Y-233269000D01*
X265590429Y-234566586D02*
X265590429Y-234927429D01*
X265590429Y-234927429D02*
X266091000Y-235428000D01*
D29*
X320735238Y-205894455D02*
X317976545Y-205894455D01*
X317976545Y-205894455D02*
X315621000Y-208250000D01*
X320735238Y-205894455D02*
X320735238Y-211009762D01*
X320735238Y-211009762D02*
X320066000Y-211679000D01*
X320735238Y-205894455D02*
X320735238Y-207072762D01*
X320735238Y-207072762D02*
X317653000Y-210155000D01*
X336169133Y-226848852D02*
X337233532Y-225784453D01*
X332868210Y-226848852D02*
X334233148Y-226848852D01*
X334233148Y-226848852D02*
X336169133Y-226848852D01*
X284624000Y-273655000D02*
X284624000Y-274408000D01*
X284624000Y-274408000D02*
X285268000Y-275052000D01*
D30*
X268838036Y-263614822D02*
X273330000Y-262479000D01*
X266599000Y-260574000D02*
X268838036Y-263614822D01*
D31*
X273330000Y-262479000D02*
X288062000Y-259685000D01*
D30*
X298730000Y-195804000D02*
X295936000Y-195804000D01*
X295936000Y-195804000D02*
X295936000Y-201900000D01*
X295936000Y-201900000D02*
X293142000Y-204694000D01*
X293142000Y-204694000D02*
X292634000Y-205202000D01*
X292634000Y-205202000D02*
X292634000Y-218918000D01*
X339690000Y-231030000D02*
X339690000Y-230033000D01*
X339690000Y-230033000D02*
X339497000Y-229840000D01*
D31*
X340386000Y-221775408D02*
X335220329Y-216609737D01*
X340386000Y-227173000D02*
X340386000Y-221775408D01*
D30*
X340005000Y-260320000D02*
X337338000Y-263114000D01*
D31*
X337338000Y-263114000D02*
X335433000Y-261209000D01*
X335433000Y-261209000D02*
X332766000Y-261209000D01*
D30*
X346990000Y-232870000D02*
X347770000Y-232870000D01*
X347770000Y-232870000D02*
X348260000Y-232380000D01*
D32*
X263551000Y-233650000D02*
X263815077Y-235591586D01*
X262580638Y-232062053D02*
X263551000Y-233650000D01*
D29*
X315748000Y-257653000D02*
X301143000Y-270607000D01*
X301143000Y-271947000D02*
X301143000Y-270607000D01*
X301140000Y-271950000D02*
X301143000Y-271947000D01*
X301140000Y-274700000D02*
X301140000Y-271950000D01*
X301140000Y-274700000D02*
X301140000Y-277081000D01*
X301140000Y-277081000D02*
X301524000Y-277465000D01*
X290095000Y-273655000D02*
X291140000Y-274700000D01*
X286674000Y-273655000D02*
X289078000Y-273655000D01*
X289078000Y-273655000D02*
X290095000Y-273655000D01*
X322134724Y-230057276D02*
X331092858Y-227873852D01*
X321569039Y-230057276D02*
X318542000Y-227030237D01*
X322134724Y-230057276D02*
X321569039Y-230057276D01*
X318542000Y-227030237D02*
X318542000Y-225776000D01*
X318542000Y-225776000D02*
X317018000Y-224252000D01*
X317018000Y-224252000D02*
X314605000Y-221839000D01*
X273584000Y-236825000D02*
X265048491Y-236825000D01*
X265048491Y-236825000D02*
X264426746Y-236203254D01*
X264426746Y-236203254D02*
X263815077Y-235591586D01*
D30*
X261900000Y-211425000D02*
X264059000Y-213584000D01*
D29*
X330480000Y-225395000D02*
X331092858Y-227873852D01*
X336388295Y-223971837D02*
X333315240Y-223971837D01*
X333315240Y-223971837D02*
X330480000Y-225395000D01*
D30*
X277540195Y-216540195D02*
X277616861Y-216616861D01*
X277540195Y-215040195D02*
X277540195Y-216540195D01*
X277000000Y-214500000D02*
X277540195Y-215040195D01*
X264059000Y-213584000D02*
X277616861Y-216616861D01*
X277616861Y-216616861D02*
X288925600Y-219146600D01*
X339615000Y-238730000D02*
X339615000Y-236580891D01*
X339690000Y-236505891D02*
X339615000Y-236580891D01*
X339690000Y-233730000D02*
X339690000Y-235235000D01*
X339690000Y-235235000D02*
X339690000Y-236505891D01*
X256327177Y-226030741D02*
X255295259Y-226030741D01*
X255295259Y-226030741D02*
X255169000Y-226157000D01*
D32*
X256178918Y-227554000D02*
X255823892Y-227909026D01*
X261600000Y-225000000D02*
X256178918Y-227554000D01*
X263457144Y-230057144D02*
X263966278Y-231262053D01*
X264200000Y-229000000D02*
X263457144Y-230057144D01*
D30*
X275019852Y-213249164D02*
X273535344Y-211764656D01*
X275019852Y-213969420D02*
X275019852Y-213249164D01*
X297079000Y-272889000D02*
X297140000Y-274700000D01*
X297079000Y-270353000D02*
X297079000Y-272889000D01*
X287808000Y-261209000D02*
X297079000Y-270353000D01*
D32*
X266304046Y-232507000D02*
X264659099Y-230862053D01*
D30*
X266304046Y-232507000D02*
X271679000Y-232507000D01*
X271679000Y-232507000D02*
X276505000Y-237333000D01*
X276505000Y-250160000D02*
X277521000Y-251176000D01*
X276505000Y-237333000D02*
X276505000Y-250160000D01*
X295174000Y-270988000D02*
X295140000Y-274700000D01*
X286538000Y-261971000D02*
X295174000Y-270988000D01*
X265574712Y-227890948D02*
X265455204Y-227890948D01*
X278410000Y-252192000D02*
X279299000Y-251303000D01*
X276378000Y-252192000D02*
X278410000Y-252192000D01*
X279299000Y-251303000D02*
X279299000Y-234412000D01*
X279299000Y-234412000D02*
X270790000Y-225903000D01*
X270790000Y-225903000D02*
X269139000Y-225903000D01*
X269139000Y-225903000D02*
X265574712Y-227890948D01*
X293140000Y-273950000D02*
X293140000Y-274700000D01*
X285141000Y-262479000D02*
X293142000Y-271242000D01*
X293142000Y-271242000D02*
X293140000Y-273950000D01*
X269139000Y-224887000D02*
X265055204Y-227198127D01*
X275380999Y-253226999D02*
X278899001Y-253226999D01*
X274981000Y-252827000D02*
X275380999Y-253226999D01*
X278899001Y-253226999D02*
X280315000Y-251811000D01*
X280315000Y-251811000D02*
X280315000Y-234158000D01*
X280315000Y-234158000D02*
X271044000Y-224887000D01*
X271044000Y-224887000D02*
X269139000Y-224887000D01*
X280315000Y-275375000D02*
X281839000Y-263876000D01*
X289640000Y-283300000D02*
X288240000Y-283300000D01*
X288240000Y-283300000D02*
X280315000Y-275375000D01*
D32*
X261880265Y-240302021D02*
X261880265Y-241362681D01*
X261670120Y-233879880D02*
X261880265Y-240302021D01*
X261194997Y-232862053D02*
X261194997Y-232919320D01*
X261194997Y-232919320D02*
X261670120Y-233879880D01*
D30*
X262916000Y-243302000D02*
X261880265Y-241362681D01*
X271933000Y-252954000D02*
X262916000Y-243302000D01*
X289240000Y-281300000D02*
X289640000Y-281300000D01*
X282347000Y-274407000D02*
X289240000Y-281300000D01*
X283617000Y-262987000D02*
X282347000Y-274407000D01*
D32*
X262535000Y-236190000D02*
X264584858Y-242087374D01*
X261887818Y-232462053D02*
X262535000Y-233650000D01*
X262535000Y-233650000D02*
X262535000Y-236190000D01*
D30*
X273457000Y-252827000D02*
X264584858Y-242087374D01*
X341915000Y-231355000D02*
X341590000Y-231030000D01*
X343815000Y-231355000D02*
X341915000Y-231355000D01*
X343815000Y-231355000D02*
X344840000Y-231355000D01*
X344840000Y-231355000D02*
X345085000Y-231110000D01*
X261138000Y-214219000D02*
X259938394Y-216927478D01*
X288951000Y-220188000D02*
X261138000Y-214219000D01*
X296317000Y-220188000D02*
X288951000Y-220188000D01*
X301397000Y-218156000D02*
X296317000Y-220188000D01*
X341590000Y-229750000D02*
X341590000Y-231030000D01*
X340410000Y-228570000D02*
X341590000Y-229750000D01*
X334036000Y-228570000D02*
X340410000Y-228570000D01*
X332639000Y-229967000D02*
X334036000Y-228570000D01*
X309271000Y-219299000D02*
X321082000Y-231618000D01*
X321082000Y-231618000D02*
X332639000Y-229967000D01*
D32*
X259880202Y-216985670D02*
X259938394Y-216927478D01*
X259521353Y-221878647D02*
X260200000Y-219400000D01*
X260484099Y-223630741D02*
X259521353Y-221878647D01*
D30*
X260200000Y-219400000D02*
X259880202Y-216985670D01*
X345720000Y-239755000D02*
X344955891Y-239755000D01*
X344955891Y-239755000D02*
X344710891Y-240000000D01*
X344710891Y-245340891D02*
X344710891Y-240000000D01*
X351435000Y-252065000D02*
X344710891Y-245340891D01*
X345720000Y-237705000D02*
X343815000Y-235800000D01*
X343815000Y-235800000D02*
X343815000Y-233405000D01*
X343490000Y-233730000D02*
X343815000Y-233405000D01*
X341590000Y-233730000D02*
X343490000Y-233730000D01*
X321903100Y-281445955D02*
X322753099Y-280595956D01*
X321903100Y-286503100D02*
X321903100Y-281445955D01*
X303140000Y-291650000D02*
X304260010Y-292770010D01*
X303140000Y-289900000D02*
X303140000Y-291650000D01*
X304260010Y-292770010D02*
X313656365Y-292770010D01*
X313656365Y-292770010D02*
X318200000Y-290600000D01*
X318200000Y-290600000D02*
X320800000Y-288600000D01*
X320800000Y-288600000D02*
X321903100Y-286503100D01*
X315240000Y-290196412D02*
X315240000Y-290165000D01*
X305140000Y-290776412D02*
X305080000Y-290836412D01*
X305140000Y-289900000D02*
X305140000Y-290776412D01*
X305080000Y-290836412D02*
X305080000Y-291435000D01*
X305080000Y-291435000D02*
X305715000Y-292070000D01*
X305715000Y-292070000D02*
X313366412Y-292070000D01*
X313366412Y-292070000D02*
X315240000Y-290196412D01*
X315600000Y-285800000D02*
X315600000Y-289836412D01*
X320320000Y-279653584D02*
X320320000Y-283320000D01*
X315600000Y-289836412D02*
X315240000Y-290196412D01*
X321679649Y-278293935D02*
X320320000Y-279653584D01*
X320320000Y-283320000D02*
X320280000Y-283320000D01*
X320280000Y-283320000D02*
X319000000Y-284600000D01*
X319000000Y-284600000D02*
X316800000Y-284600000D01*
X316800000Y-284600000D02*
X315600000Y-285800000D01*
X305140000Y-274700000D02*
X305140000Y-276770000D01*
X305140000Y-276770000D02*
X304445000Y-277465000D01*
D31*
X297140000Y-289900000D02*
X297140000Y-284257000D01*
X297140000Y-284257000D02*
X296063000Y-283180000D01*
D30*
X293140000Y-291310000D02*
X293140000Y-289900000D01*
X291872000Y-292578000D02*
X293140000Y-291310000D01*
X287761000Y-292578000D02*
X291872000Y-292578000D01*
X284497000Y-289314000D02*
X287761000Y-292578000D01*
X284497000Y-288514000D02*
X284497000Y-289314000D01*
D32*
X258725000Y-222220000D02*
X257400000Y-218400000D01*
X259791278Y-224030741D02*
X258725000Y-222220000D01*
X269139000Y-223871000D02*
X272279581Y-223029535D01*
X264655204Y-226505307D02*
X269139000Y-223871000D01*
X264255204Y-225812487D02*
X272978392Y-220421535D01*
X270370393Y-219722724D02*
X269620394Y-220472723D01*
X267615000Y-222855000D02*
X270370393Y-219722724D01*
X263855204Y-225119667D02*
X267615000Y-222855000D01*
X256185000Y-220950000D02*
X254066553Y-219909338D01*
X258405638Y-224830741D02*
X256185000Y-220950000D01*
X256185000Y-222517338D02*
X253367742Y-222517338D01*
X257712818Y-225230741D02*
X256185000Y-222517338D01*
X256185000Y-224125000D02*
X252643049Y-225221930D01*
X257019997Y-225630741D02*
X256185000Y-224125000D01*
X254532163Y-229587837D02*
X251918355Y-227926523D01*
X256223892Y-228601846D02*
X254532163Y-229587837D01*
X266345000Y-222855000D02*
X267762393Y-219023912D01*
X263455204Y-224426846D02*
X266345000Y-222855000D01*
X264440000Y-222855000D02*
X265154393Y-218325101D01*
X263055204Y-223734026D02*
X264440000Y-222855000D01*
D30*
X344519315Y-263368000D02*
X345085000Y-263368000D01*
X342995315Y-264892000D02*
X344519315Y-263368000D01*
X317272000Y-239873000D02*
X326035000Y-248890000D01*
X326035000Y-261209000D02*
X327676231Y-262869769D01*
X265904392Y-217575102D02*
X267234000Y-216632000D01*
X326035000Y-248890000D02*
X326035000Y-261209000D01*
X265154393Y-218325101D02*
X265904392Y-217575102D01*
X327676231Y-262869769D02*
X334428724Y-262975276D01*
X267234000Y-216632000D02*
X288062000Y-221204000D01*
X334428724Y-262975276D02*
X336556101Y-264364101D01*
X288062000Y-221204000D02*
X305080000Y-221204000D01*
X336556101Y-264364101D02*
X342467416Y-264364101D01*
X305080000Y-221204000D02*
X317272000Y-233396000D01*
X342467416Y-264364101D02*
X342995315Y-264892000D01*
X317272000Y-233396000D02*
X317272000Y-239873000D01*
D32*
X261176919Y-223230741D02*
X262546393Y-217626290D01*
D30*
X262662000Y-217510683D02*
X262546393Y-217626290D01*
X262662000Y-216124000D02*
X262662000Y-217510683D01*
X289078000Y-193518000D02*
X266091000Y-212314000D01*
X290983000Y-193518000D02*
X289078000Y-193518000D01*
X293777000Y-191867000D02*
X290983000Y-193518000D01*
X293777000Y-190343000D02*
X293777000Y-191867000D01*
X296571000Y-189708000D02*
X294412000Y-189708000D01*
X294412000Y-189708000D02*
X293777000Y-190343000D01*
D32*
X253010000Y-232380000D02*
X250468969Y-233335707D01*
X257023892Y-229987487D02*
X253010000Y-232380000D01*
X253645000Y-234285000D02*
X251061896Y-238463908D01*
X257823892Y-231373127D02*
X253645000Y-234285000D01*
X254915000Y-234285000D02*
X253766489Y-239188601D01*
X258223892Y-232065948D02*
X254915000Y-234285000D01*
X256471081Y-234911579D02*
X256471081Y-239913294D01*
X258623892Y-232758768D02*
X256471081Y-234911579D01*
X260502177Y-239311484D02*
X259175673Y-240637988D01*
X260502177Y-233262053D02*
X260502177Y-239311484D01*
X256820000Y-220315000D02*
X254765365Y-217301339D01*
X259098458Y-224430741D02*
X256820000Y-220315000D01*
X254123885Y-230631115D02*
X251193662Y-230631115D01*
X256623892Y-229294667D02*
X254123885Y-230631115D01*
D30*
X249678885Y-230631115D02*
X251193662Y-230631115D01*
X247295000Y-233015000D02*
X249678885Y-230631115D01*
X247295000Y-242540000D02*
X247295000Y-233015000D01*
X259995000Y-262225000D02*
X256185000Y-258415000D01*
X256185000Y-258415000D02*
X247295000Y-242540000D01*
X251193662Y-230631115D02*
X251193662Y-230627162D01*
X251193662Y-230627162D02*
X250343000Y-229776500D01*
D32*
X253645000Y-233015000D02*
X249744275Y-236040300D01*
X257423892Y-230680307D02*
X253645000Y-233015000D01*
D30*
X248994276Y-236790299D02*
X249744275Y-236040300D01*
X248994276Y-242334276D02*
X248994276Y-236790299D01*
X261265000Y-264130000D02*
X266416328Y-252136328D01*
X266416328Y-252136328D02*
X265710000Y-250795000D01*
X265710000Y-250795000D02*
X248994276Y-242334276D01*
X302286000Y-191797685D02*
X302286000Y-191232000D01*
X302286000Y-200376000D02*
X302286000Y-191797685D01*
X306096000Y-204186000D02*
X302286000Y-200376000D01*
X306096000Y-218156000D02*
X306096000Y-204186000D01*
X320320000Y-232380000D02*
X306096000Y-218156000D01*
X320320000Y-238476000D02*
X320320000Y-232380000D01*
X343999685Y-266543000D02*
X346990000Y-263241000D01*
X343434000Y-266543000D02*
X343999685Y-266543000D01*
X346990000Y-263241000D02*
X346736000Y-261463000D01*
X346736000Y-261463000D02*
X335306000Y-254986000D01*
X335306000Y-254986000D02*
X332893000Y-251176000D01*
X332893000Y-251176000D02*
X320320000Y-238476000D01*
D31*
X271229852Y-256705148D02*
X268525836Y-256705148D01*
X271298000Y-256637000D02*
X271229852Y-256705148D01*
X307874000Y-256637000D02*
X271298000Y-256637000D01*
X324495010Y-249523398D02*
X314987602Y-249523398D01*
X314987602Y-249523398D02*
X307874000Y-256637000D01*
D30*
X329204165Y-257904853D02*
X329204165Y-257774165D01*
X330204164Y-258904852D02*
X329204165Y-257904853D01*
X329204165Y-257774165D02*
X328448000Y-257018000D01*
X328448000Y-257018000D02*
X328448000Y-248128000D01*
X328448000Y-248128000D02*
X319304000Y-238984000D01*
X319304000Y-238984000D02*
X319304000Y-232888000D01*
X319304000Y-232888000D02*
X303302000Y-216886000D01*
X303302000Y-216886000D02*
X303302000Y-215362000D01*
X303302000Y-215362000D02*
X300000000Y-212060000D01*
X300000000Y-212060000D02*
X296698000Y-212060000D01*
X296698000Y-212060000D02*
X294920000Y-213838000D01*
D31*
X314421525Y-252121475D02*
X322995010Y-252121475D01*
X308509000Y-258034000D02*
X314421525Y-252121475D01*
X285395000Y-258034000D02*
X308509000Y-258034000D01*
X269111557Y-254505443D02*
X267255836Y-254505443D01*
X278410000Y-254605000D02*
X269111557Y-254505443D01*
X282093000Y-254732000D02*
X278410000Y-254605000D01*
D30*
X328934164Y-261104557D02*
X327178000Y-259348393D01*
X327178000Y-259348393D02*
X327178000Y-248382000D01*
X327178000Y-248382000D02*
X318288000Y-239492000D01*
X318288000Y-239492000D02*
X318288000Y-233142000D01*
X318288000Y-233142000D02*
X300000000Y-214854000D01*
X300000000Y-214854000D02*
X300000000Y-214346000D01*
X344825647Y-261838647D02*
X339422105Y-258718911D01*
X343466334Y-269714102D02*
X335672105Y-265214102D01*
X295000000Y-190898000D02*
X295000000Y-198000000D01*
X304000000Y-188000000D02*
X304000000Y-196000000D01*
X257772500Y-263812500D02*
X259995000Y-266035000D01*
X259995000Y-266035000D02*
X261251475Y-266035000D01*
X261251475Y-266035000D02*
X264694000Y-262592475D01*
X264694000Y-262592475D02*
X264694000Y-260320000D01*
X266109148Y-258904852D02*
X269795836Y-258904852D01*
X264694000Y-260320000D02*
X266109148Y-258904852D01*
X262135001Y-267069999D02*
X263551000Y-265400000D01*
X258090000Y-266670000D02*
X258489999Y-267069999D01*
X258489999Y-267069999D02*
X262135001Y-267069999D01*
X263551000Y-265400000D02*
X265964000Y-262987000D01*
X265964000Y-262987000D02*
X266091000Y-262860000D01*
X266091000Y-262860000D02*
X266091000Y-261971000D01*
D32*
X268364053Y-230462053D02*
X268504000Y-230602000D01*
X265351919Y-230462053D02*
X268364053Y-230462053D01*
X269125232Y-228583768D02*
X269774000Y-227935000D01*
X265855204Y-228583768D02*
X269125232Y-228583768D01*
D33*
G36*
X353366427Y-229759881D02*
G01*
X353842550Y-232664099D01*
X354160743Y-235589835D01*
X354320073Y-238528506D01*
X354320073Y-241471494D01*
X354160743Y-244410165D01*
X353842550Y-247335901D01*
X353504486Y-249398000D01*
X350019579Y-249398000D01*
X345595891Y-244974313D01*
X345595891Y-240968072D01*
X346170001Y-240968072D01*
X346343255Y-240951008D01*
X346509851Y-240900472D01*
X346663387Y-240818405D01*
X346797962Y-240707962D01*
X346908405Y-240573387D01*
X346990472Y-240419851D01*
X347041008Y-240253255D01*
X347058072Y-240080001D01*
X347058072Y-239429999D01*
X347041008Y-239256745D01*
X346990472Y-239090149D01*
X346908405Y-238936613D01*
X346797962Y-238802038D01*
X346710184Y-238730000D01*
X346797962Y-238657962D01*
X346908405Y-238523387D01*
X346990472Y-238369851D01*
X347041008Y-238203255D01*
X347058072Y-238030001D01*
X347058072Y-237580000D01*
X348907815Y-237580000D01*
X348936487Y-237871111D01*
X349021401Y-238151034D01*
X349159294Y-238409014D01*
X349344866Y-238635134D01*
X349570986Y-238820706D01*
X349625791Y-238850000D01*
X349570986Y-238879294D01*
X349344866Y-239064866D01*
X349159294Y-239290986D01*
X349021401Y-239548966D01*
X348936487Y-239828889D01*
X348907815Y-240120000D01*
X348936487Y-240411111D01*
X349021401Y-240691034D01*
X349159294Y-240949014D01*
X349344866Y-241175134D01*
X349570986Y-241360706D01*
X349625791Y-241390000D01*
X349570986Y-241419294D01*
X349344866Y-241604866D01*
X349159294Y-241830986D01*
X349021401Y-242088966D01*
X348936487Y-242368889D01*
X348907815Y-242660000D01*
X348936487Y-242951111D01*
X349021401Y-243231034D01*
X349159294Y-243489014D01*
X349344866Y-243715134D01*
X349570986Y-243900706D01*
X349625791Y-243930000D01*
X349570986Y-243959294D01*
X349344866Y-244144866D01*
X349159294Y-244370986D01*
X349021401Y-244628966D01*
X348936487Y-244908889D01*
X348907815Y-245200000D01*
X348936487Y-245491111D01*
X349021401Y-245771034D01*
X349159294Y-246029014D01*
X349344866Y-246255134D01*
X349570986Y-246440706D01*
X349828966Y-246578599D01*
X350108889Y-246663513D01*
X350327050Y-246685000D01*
X350472950Y-246685000D01*
X350691111Y-246663513D01*
X350971034Y-246578599D01*
X351229014Y-246440706D01*
X351455134Y-246255134D01*
X351640706Y-246029014D01*
X351778599Y-245771034D01*
X351863513Y-245491111D01*
X351892185Y-245200000D01*
X351863513Y-244908889D01*
X351778599Y-244628966D01*
X351640706Y-244370986D01*
X351455134Y-244144866D01*
X351229014Y-243959294D01*
X351174209Y-243930000D01*
X351229014Y-243900706D01*
X351455134Y-243715134D01*
X351640706Y-243489014D01*
X351778599Y-243231034D01*
X351863513Y-242951111D01*
X351892185Y-242660000D01*
X351863513Y-242368889D01*
X351778599Y-242088966D01*
X351640706Y-241830986D01*
X351455134Y-241604866D01*
X351229014Y-241419294D01*
X351174209Y-241390000D01*
X351229014Y-241360706D01*
X351455134Y-241175134D01*
X351640706Y-240949014D01*
X351778599Y-240691034D01*
X351863513Y-240411111D01*
X351892185Y-240120000D01*
X351863513Y-239828889D01*
X351778599Y-239548966D01*
X351640706Y-239290986D01*
X351455134Y-239064866D01*
X351229014Y-238879294D01*
X351174209Y-238850000D01*
X351229014Y-238820706D01*
X351455134Y-238635134D01*
X351640706Y-238409014D01*
X351778599Y-238151034D01*
X351863513Y-237871111D01*
X351892185Y-237580000D01*
X351863513Y-237288889D01*
X351778599Y-237008966D01*
X351640706Y-236750986D01*
X351455134Y-236524866D01*
X351229014Y-236339294D01*
X351164477Y-236304799D01*
X351281355Y-236235178D01*
X351497588Y-236040269D01*
X351671641Y-235806920D01*
X351796825Y-235544099D01*
X351841476Y-235396890D01*
X351720155Y-235167000D01*
X350527000Y-235167000D01*
X350527000Y-235187000D01*
X350273000Y-235187000D01*
X350273000Y-235167000D01*
X349079845Y-235167000D01*
X348958524Y-235396890D01*
X349003175Y-235544099D01*
X349128359Y-235806920D01*
X349302412Y-236040269D01*
X349518645Y-236235178D01*
X349635523Y-236304799D01*
X349570986Y-236339294D01*
X349344866Y-236524866D01*
X349159294Y-236750986D01*
X349021401Y-237008966D01*
X348936487Y-237288889D01*
X348907815Y-237580000D01*
X347058072Y-237580000D01*
X347058072Y-237379999D01*
X347041008Y-237206745D01*
X346990472Y-237040149D01*
X346908405Y-236886613D01*
X346797962Y-236752038D01*
X346663387Y-236641595D01*
X346509851Y-236559528D01*
X346343255Y-236508992D01*
X346170001Y-236491928D01*
X345758507Y-236491928D01*
X344761579Y-235495000D01*
X345651928Y-235495000D01*
X345664188Y-235619482D01*
X345700498Y-235739180D01*
X345759463Y-235849494D01*
X345838815Y-235946185D01*
X345935506Y-236025537D01*
X346045820Y-236084502D01*
X346165518Y-236120812D01*
X346290000Y-236133072D01*
X346704250Y-236130000D01*
X346863000Y-235971250D01*
X346863000Y-235047000D01*
X347117000Y-235047000D01*
X347117000Y-235971250D01*
X347275750Y-236130000D01*
X347690000Y-236133072D01*
X347814482Y-236120812D01*
X347934180Y-236084502D01*
X348044494Y-236025537D01*
X348141185Y-235946185D01*
X348220537Y-235849494D01*
X348279502Y-235739180D01*
X348315812Y-235619482D01*
X348328072Y-235495000D01*
X348325000Y-235205750D01*
X348166250Y-235047000D01*
X347117000Y-235047000D01*
X346863000Y-235047000D01*
X345813750Y-235047000D01*
X345655000Y-235205750D01*
X345651928Y-235495000D01*
X344761579Y-235495000D01*
X344700000Y-235433422D01*
X344700000Y-234499614D01*
X344758387Y-234468405D01*
X344892962Y-234357962D01*
X345003405Y-234223387D01*
X345085472Y-234069851D01*
X345136008Y-233903255D01*
X345153072Y-233730001D01*
X345153072Y-233079999D01*
X345136008Y-232906745D01*
X345085472Y-232740149D01*
X345003405Y-232586613D01*
X344969254Y-232544999D01*
X345651928Y-232544999D01*
X345651928Y-233195001D01*
X345668992Y-233368255D01*
X345719528Y-233534851D01*
X345801595Y-233688387D01*
X345912038Y-233822962D01*
X345918594Y-233828342D01*
X345838815Y-233893815D01*
X345759463Y-233990506D01*
X345700498Y-234100820D01*
X345664188Y-234220518D01*
X345651928Y-234345000D01*
X345655000Y-234634250D01*
X345813750Y-234793000D01*
X346863000Y-234793000D01*
X346863000Y-234773000D01*
X347117000Y-234773000D01*
X347117000Y-234793000D01*
X348166250Y-234793000D01*
X348325000Y-234634250D01*
X348328072Y-234345000D01*
X348315812Y-234220518D01*
X348279502Y-234100820D01*
X348220537Y-233990506D01*
X348141185Y-233893815D01*
X348061406Y-233828342D01*
X348067962Y-233822962D01*
X348178405Y-233688387D01*
X348203244Y-233641917D01*
X348264059Y-233609411D01*
X348398817Y-233498817D01*
X348426534Y-233465044D01*
X348505043Y-233386535D01*
X348561898Y-233375226D01*
X348750256Y-233297205D01*
X348911928Y-233189180D01*
X348911928Y-233350000D01*
X348924188Y-233474482D01*
X348960498Y-233594180D01*
X349019463Y-233704494D01*
X349098815Y-233801185D01*
X349195506Y-233880537D01*
X349305820Y-233939502D01*
X349386466Y-233963966D01*
X349302412Y-234039731D01*
X349128359Y-234273080D01*
X349003175Y-234535901D01*
X348958524Y-234683110D01*
X349079845Y-234913000D01*
X350273000Y-234913000D01*
X350273000Y-234893000D01*
X350527000Y-234893000D01*
X350527000Y-234913000D01*
X351720155Y-234913000D01*
X351841476Y-234683110D01*
X351796825Y-234535901D01*
X351671641Y-234273080D01*
X351497588Y-234039731D01*
X351413534Y-233963966D01*
X351494180Y-233939502D01*
X351604494Y-233880537D01*
X351701185Y-233801185D01*
X351780537Y-233704494D01*
X351839502Y-233594180D01*
X351875812Y-233474482D01*
X351888072Y-233350000D01*
X351888072Y-231650000D01*
X351875812Y-231525518D01*
X351839502Y-231405820D01*
X351780537Y-231295506D01*
X351701185Y-231198815D01*
X351604494Y-231119463D01*
X351494180Y-231060498D01*
X351374482Y-231024188D01*
X351250000Y-231011928D01*
X349550000Y-231011928D01*
X349425518Y-231024188D01*
X349305820Y-231060498D01*
X349195506Y-231119463D01*
X349098815Y-231198815D01*
X349019463Y-231295506D01*
X348960498Y-231405820D01*
X348924188Y-231525518D01*
X348919245Y-231575709D01*
X348750256Y-231462795D01*
X348561898Y-231384774D01*
X348361939Y-231345000D01*
X348158061Y-231345000D01*
X347958102Y-231384774D01*
X347769744Y-231462795D01*
X347600226Y-231576063D01*
X347512246Y-231664043D01*
X347440001Y-231656928D01*
X346539999Y-231656928D01*
X346366745Y-231673992D01*
X346200149Y-231724528D01*
X346046613Y-231806595D01*
X345912038Y-231917038D01*
X345801595Y-232051613D01*
X345719528Y-232205149D01*
X345668992Y-232371745D01*
X345651928Y-232544999D01*
X344969254Y-232544999D01*
X344892962Y-232452038D01*
X344805184Y-232380000D01*
X344892962Y-232307962D01*
X344954476Y-232233007D01*
X345013490Y-232227195D01*
X345180313Y-232176589D01*
X345270514Y-232128376D01*
X345386898Y-232105226D01*
X345575256Y-232027205D01*
X345744774Y-231913937D01*
X345888937Y-231769774D01*
X346002205Y-231600256D01*
X346080226Y-231411898D01*
X346120000Y-231211939D01*
X346120000Y-231008061D01*
X346080226Y-230808102D01*
X346002205Y-230619744D01*
X345888937Y-230450226D01*
X345744774Y-230306063D01*
X345575256Y-230192795D01*
X345386898Y-230114774D01*
X345186939Y-230075000D01*
X344983061Y-230075000D01*
X344783102Y-230114774D01*
X344594744Y-230192795D01*
X344580676Y-230202195D01*
X344438255Y-230158992D01*
X344265001Y-230141928D01*
X343364999Y-230141928D01*
X343191745Y-230158992D01*
X343025149Y-230209528D01*
X342871613Y-230291595D01*
X342737038Y-230402038D01*
X342681263Y-230470000D01*
X342553072Y-230470000D01*
X342553072Y-230250000D01*
X342540812Y-230125518D01*
X342504502Y-230005820D01*
X342475000Y-229950627D01*
X342475000Y-229793466D01*
X342479281Y-229749999D01*
X342475000Y-229706533D01*
X342475000Y-229706523D01*
X342462195Y-229576510D01*
X342411589Y-229409687D01*
X342329411Y-229255941D01*
X342282530Y-229198817D01*
X342246532Y-229154953D01*
X342246530Y-229154951D01*
X342218817Y-229121183D01*
X342185050Y-229093471D01*
X341788579Y-228697000D01*
X353132469Y-228697000D01*
X353366427Y-229759881D01*
X353366427Y-229759881D01*
G37*
X353366427Y-229759881D02*
X353842550Y-232664099D01*
X354160743Y-235589835D01*
X354320073Y-238528506D01*
X354320073Y-241471494D01*
X354160743Y-244410165D01*
X353842550Y-247335901D01*
X353504486Y-249398000D01*
X350019579Y-249398000D01*
X345595891Y-244974313D01*
X345595891Y-240968072D01*
X346170001Y-240968072D01*
X346343255Y-240951008D01*
X346509851Y-240900472D01*
X346663387Y-240818405D01*
X346797962Y-240707962D01*
X346908405Y-240573387D01*
X346990472Y-240419851D01*
X347041008Y-240253255D01*
X347058072Y-240080001D01*
X347058072Y-239429999D01*
X347041008Y-239256745D01*
X346990472Y-239090149D01*
X346908405Y-238936613D01*
X346797962Y-238802038D01*
X346710184Y-238730000D01*
X346797962Y-238657962D01*
X346908405Y-238523387D01*
X346990472Y-238369851D01*
X347041008Y-238203255D01*
X347058072Y-238030001D01*
X347058072Y-237580000D01*
X348907815Y-237580000D01*
X348936487Y-237871111D01*
X349021401Y-238151034D01*
X349159294Y-238409014D01*
X349344866Y-238635134D01*
X349570986Y-238820706D01*
X349625791Y-238850000D01*
X349570986Y-238879294D01*
X349344866Y-239064866D01*
X349159294Y-239290986D01*
X349021401Y-239548966D01*
X348936487Y-239828889D01*
X348907815Y-240120000D01*
X348936487Y-240411111D01*
X349021401Y-240691034D01*
X349159294Y-240949014D01*
X349344866Y-241175134D01*
X349570986Y-241360706D01*
X349625791Y-241390000D01*
X349570986Y-241419294D01*
X349344866Y-241604866D01*
X349159294Y-241830986D01*
X349021401Y-242088966D01*
X348936487Y-242368889D01*
X348907815Y-242660000D01*
X348936487Y-242951111D01*
X349021401Y-243231034D01*
X349159294Y-243489014D01*
X349344866Y-243715134D01*
X349570986Y-243900706D01*
X349625791Y-243930000D01*
X349570986Y-243959294D01*
X349344866Y-244144866D01*
X349159294Y-244370986D01*
X349021401Y-244628966D01*
X348936487Y-244908889D01*
X348907815Y-245200000D01*
X348936487Y-245491111D01*
X349021401Y-245771034D01*
X349159294Y-246029014D01*
X349344866Y-246255134D01*
X349570986Y-246440706D01*
X349828966Y-246578599D01*
X350108889Y-246663513D01*
X350327050Y-246685000D01*
X350472950Y-246685000D01*
X350691111Y-246663513D01*
X350971034Y-246578599D01*
X351229014Y-246440706D01*
X351455134Y-246255134D01*
X351640706Y-246029014D01*
X351778599Y-245771034D01*
X351863513Y-245491111D01*
X351892185Y-245200000D01*
X351863513Y-244908889D01*
X351778599Y-244628966D01*
X351640706Y-244370986D01*
X351455134Y-244144866D01*
X351229014Y-243959294D01*
X351174209Y-243930000D01*
X351229014Y-243900706D01*
X351455134Y-243715134D01*
X351640706Y-243489014D01*
X351778599Y-243231034D01*
X351863513Y-242951111D01*
X351892185Y-242660000D01*
X351863513Y-242368889D01*
X351778599Y-242088966D01*
X351640706Y-241830986D01*
X351455134Y-241604866D01*
X351229014Y-241419294D01*
X351174209Y-241390000D01*
X351229014Y-241360706D01*
X351455134Y-241175134D01*
X351640706Y-240949014D01*
X351778599Y-240691034D01*
X351863513Y-240411111D01*
X351892185Y-240120000D01*
X351863513Y-239828889D01*
X351778599Y-239548966D01*
X351640706Y-239290986D01*
X351455134Y-239064866D01*
X351229014Y-238879294D01*
X351174209Y-238850000D01*
X351229014Y-238820706D01*
X351455134Y-238635134D01*
X351640706Y-238409014D01*
X351778599Y-238151034D01*
X351863513Y-237871111D01*
X351892185Y-237580000D01*
X351863513Y-237288889D01*
X351778599Y-237008966D01*
X351640706Y-236750986D01*
X351455134Y-236524866D01*
X351229014Y-236339294D01*
X351164477Y-236304799D01*
X351281355Y-236235178D01*
X351497588Y-236040269D01*
X351671641Y-235806920D01*
X351796825Y-235544099D01*
X351841476Y-235396890D01*
X351720155Y-235167000D01*
X350527000Y-235167000D01*
X350527000Y-235187000D01*
X350273000Y-235187000D01*
X350273000Y-235167000D01*
X349079845Y-235167000D01*
X348958524Y-235396890D01*
X349003175Y-235544099D01*
X349128359Y-235806920D01*
X349302412Y-236040269D01*
X349518645Y-236235178D01*
X349635523Y-236304799D01*
X349570986Y-236339294D01*
X349344866Y-236524866D01*
X349159294Y-236750986D01*
X349021401Y-237008966D01*
X348936487Y-237288889D01*
X348907815Y-237580000D01*
X347058072Y-237580000D01*
X347058072Y-237379999D01*
X347041008Y-237206745D01*
X346990472Y-237040149D01*
X346908405Y-236886613D01*
X346797962Y-236752038D01*
X346663387Y-236641595D01*
X346509851Y-236559528D01*
X346343255Y-236508992D01*
X346170001Y-236491928D01*
X345758507Y-236491928D01*
X344761579Y-235495000D01*
X345651928Y-235495000D01*
X345664188Y-235619482D01*
X345700498Y-235739180D01*
X345759463Y-235849494D01*
X345838815Y-235946185D01*
X345935506Y-236025537D01*
X346045820Y-236084502D01*
X346165518Y-236120812D01*
X346290000Y-236133072D01*
X346704250Y-236130000D01*
X346863000Y-235971250D01*
X346863000Y-235047000D01*
X347117000Y-235047000D01*
X347117000Y-235971250D01*
X347275750Y-236130000D01*
X347690000Y-236133072D01*
X347814482Y-236120812D01*
X347934180Y-236084502D01*
X348044494Y-236025537D01*
X348141185Y-235946185D01*
X348220537Y-235849494D01*
X348279502Y-235739180D01*
X348315812Y-235619482D01*
X348328072Y-235495000D01*
X348325000Y-235205750D01*
X348166250Y-235047000D01*
X347117000Y-235047000D01*
X346863000Y-235047000D01*
X345813750Y-235047000D01*
X345655000Y-235205750D01*
X345651928Y-235495000D01*
X344761579Y-235495000D01*
X344700000Y-235433422D01*
X344700000Y-234499614D01*
X344758387Y-234468405D01*
X344892962Y-234357962D01*
X345003405Y-234223387D01*
X345085472Y-234069851D01*
X345136008Y-233903255D01*
X345153072Y-233730001D01*
X345153072Y-233079999D01*
X345136008Y-232906745D01*
X345085472Y-232740149D01*
X345003405Y-232586613D01*
X344969254Y-232544999D01*
X345651928Y-232544999D01*
X345651928Y-233195001D01*
X345668992Y-233368255D01*
X345719528Y-233534851D01*
X345801595Y-233688387D01*
X345912038Y-233822962D01*
X345918594Y-233828342D01*
X345838815Y-233893815D01*
X345759463Y-233990506D01*
X345700498Y-234100820D01*
X345664188Y-234220518D01*
X345651928Y-234345000D01*
X345655000Y-234634250D01*
X345813750Y-234793000D01*
X346863000Y-234793000D01*
X346863000Y-234773000D01*
X347117000Y-234773000D01*
X347117000Y-234793000D01*
X348166250Y-234793000D01*
X348325000Y-234634250D01*
X348328072Y-234345000D01*
X348315812Y-234220518D01*
X348279502Y-234100820D01*
X348220537Y-233990506D01*
X348141185Y-233893815D01*
X348061406Y-233828342D01*
X348067962Y-233822962D01*
X348178405Y-233688387D01*
X348203244Y-233641917D01*
X348264059Y-233609411D01*
X348398817Y-233498817D01*
X348426534Y-233465044D01*
X348505043Y-233386535D01*
X348561898Y-233375226D01*
X348750256Y-233297205D01*
X348911928Y-233189180D01*
X348911928Y-233350000D01*
X348924188Y-233474482D01*
X348960498Y-233594180D01*
X349019463Y-233704494D01*
X349098815Y-233801185D01*
X349195506Y-233880537D01*
X349305820Y-233939502D01*
X349386466Y-233963966D01*
X349302412Y-234039731D01*
X349128359Y-234273080D01*
X349003175Y-234535901D01*
X348958524Y-234683110D01*
X349079845Y-234913000D01*
X350273000Y-234913000D01*
X350273000Y-234893000D01*
X350527000Y-234893000D01*
X350527000Y-234913000D01*
X351720155Y-234913000D01*
X351841476Y-234683110D01*
X351796825Y-234535901D01*
X351671641Y-234273080D01*
X351497588Y-234039731D01*
X351413534Y-233963966D01*
X351494180Y-233939502D01*
X351604494Y-233880537D01*
X351701185Y-233801185D01*
X351780537Y-233704494D01*
X351839502Y-233594180D01*
X351875812Y-233474482D01*
X351888072Y-233350000D01*
X351888072Y-231650000D01*
X351875812Y-231525518D01*
X351839502Y-231405820D01*
X351780537Y-231295506D01*
X351701185Y-231198815D01*
X351604494Y-231119463D01*
X351494180Y-231060498D01*
X351374482Y-231024188D01*
X351250000Y-231011928D01*
X349550000Y-231011928D01*
X349425518Y-231024188D01*
X349305820Y-231060498D01*
X349195506Y-231119463D01*
X349098815Y-231198815D01*
X349019463Y-231295506D01*
X348960498Y-231405820D01*
X348924188Y-231525518D01*
X348919245Y-231575709D01*
X348750256Y-231462795D01*
X348561898Y-231384774D01*
X348361939Y-231345000D01*
X348158061Y-231345000D01*
X347958102Y-231384774D01*
X347769744Y-231462795D01*
X347600226Y-231576063D01*
X347512246Y-231664043D01*
X347440001Y-231656928D01*
X346539999Y-231656928D01*
X346366745Y-231673992D01*
X346200149Y-231724528D01*
X346046613Y-231806595D01*
X345912038Y-231917038D01*
X345801595Y-232051613D01*
X345719528Y-232205149D01*
X345668992Y-232371745D01*
X345651928Y-232544999D01*
X344969254Y-232544999D01*
X344892962Y-232452038D01*
X344805184Y-232380000D01*
X344892962Y-232307962D01*
X344954476Y-232233007D01*
X345013490Y-232227195D01*
X345180313Y-232176589D01*
X345270514Y-232128376D01*
X345386898Y-232105226D01*
X345575256Y-232027205D01*
X345744774Y-231913937D01*
X345888937Y-231769774D01*
X346002205Y-231600256D01*
X346080226Y-231411898D01*
X346120000Y-231211939D01*
X346120000Y-231008061D01*
X346080226Y-230808102D01*
X346002205Y-230619744D01*
X345888937Y-230450226D01*
X345744774Y-230306063D01*
X345575256Y-230192795D01*
X345386898Y-230114774D01*
X345186939Y-230075000D01*
X344983061Y-230075000D01*
X344783102Y-230114774D01*
X344594744Y-230192795D01*
X344580676Y-230202195D01*
X344438255Y-230158992D01*
X344265001Y-230141928D01*
X343364999Y-230141928D01*
X343191745Y-230158992D01*
X343025149Y-230209528D01*
X342871613Y-230291595D01*
X342737038Y-230402038D01*
X342681263Y-230470000D01*
X342553072Y-230470000D01*
X342553072Y-230250000D01*
X342540812Y-230125518D01*
X342504502Y-230005820D01*
X342475000Y-229950627D01*
X342475000Y-229793466D01*
X342479281Y-229749999D01*
X342475000Y-229706533D01*
X342475000Y-229706523D01*
X342462195Y-229576510D01*
X342411589Y-229409687D01*
X342329411Y-229255941D01*
X342282530Y-229198817D01*
X342246532Y-229154953D01*
X342246530Y-229154951D01*
X342218817Y-229121183D01*
X342185050Y-229093471D01*
X341788579Y-228697000D01*
X353132469Y-228697000D01*
X353366427Y-229759881D01*
G36*
X338501774Y-229538102D02*
G01*
X338462000Y-229738061D01*
X338462000Y-229941939D01*
X338501774Y-230141898D01*
X338579795Y-230330256D01*
X338693063Y-230499774D01*
X338726928Y-230533639D01*
X338726928Y-231810000D01*
X338739188Y-231934482D01*
X338775498Y-232054180D01*
X338834463Y-232164494D01*
X338913815Y-232261185D01*
X339010506Y-232340537D01*
X339084335Y-232380000D01*
X339010506Y-232419463D01*
X338913815Y-232498815D01*
X338834463Y-232595506D01*
X338775498Y-232705820D01*
X338739188Y-232825518D01*
X338726928Y-232950000D01*
X338726928Y-234510000D01*
X338739188Y-234634482D01*
X338772703Y-234744966D01*
X338694774Y-234933102D01*
X338655000Y-235133061D01*
X338655000Y-235336939D01*
X338684371Y-235484600D01*
X338662038Y-235502929D01*
X338551595Y-235637504D01*
X338469528Y-235791040D01*
X338418992Y-235957636D01*
X338401928Y-236130890D01*
X338401928Y-237030892D01*
X338418992Y-237204146D01*
X338469528Y-237370742D01*
X338551595Y-237524278D01*
X338659242Y-237655446D01*
X338551595Y-237786613D01*
X338469528Y-237940149D01*
X338418992Y-238106745D01*
X338401928Y-238279999D01*
X338401928Y-239180001D01*
X338418992Y-239353255D01*
X338469528Y-239519851D01*
X338551595Y-239673387D01*
X338662038Y-239807962D01*
X338796613Y-239918405D01*
X338950149Y-240000472D01*
X339116745Y-240051008D01*
X339289999Y-240068072D01*
X339940001Y-240068072D01*
X340113255Y-240051008D01*
X340279851Y-240000472D01*
X340433387Y-239918405D01*
X340567962Y-239807962D01*
X340573342Y-239801406D01*
X340638815Y-239881185D01*
X340735506Y-239960537D01*
X340845820Y-240019502D01*
X340965518Y-240055812D01*
X341090000Y-240068072D01*
X341379250Y-240065000D01*
X341538000Y-239906250D01*
X341538000Y-238857000D01*
X341792000Y-238857000D01*
X341792000Y-239906250D01*
X341950750Y-240065000D01*
X342240000Y-240068072D01*
X342364482Y-240055812D01*
X342484180Y-240019502D01*
X342594494Y-239960537D01*
X342691185Y-239881185D01*
X342770537Y-239784494D01*
X342829502Y-239674180D01*
X342865812Y-239554482D01*
X342878072Y-239430000D01*
X342875000Y-239015750D01*
X342716250Y-238857000D01*
X341792000Y-238857000D01*
X341538000Y-238857000D01*
X341518000Y-238857000D01*
X341518000Y-238603000D01*
X341538000Y-238603000D01*
X341538000Y-236707891D01*
X341792000Y-236707891D01*
X341792000Y-238603000D01*
X342716250Y-238603000D01*
X342875000Y-238444250D01*
X342878072Y-238030000D01*
X342865812Y-237905518D01*
X342829502Y-237785820D01*
X342770537Y-237675506D01*
X342754074Y-237655445D01*
X342770537Y-237635385D01*
X342829502Y-237525071D01*
X342865812Y-237405373D01*
X342878072Y-237280891D01*
X342875000Y-236866641D01*
X342716250Y-236707891D01*
X341792000Y-236707891D01*
X341538000Y-236707891D01*
X341518000Y-236707891D01*
X341518000Y-236453891D01*
X341538000Y-236453891D01*
X341538000Y-235404641D01*
X341792000Y-235404641D01*
X341792000Y-236453891D01*
X342716250Y-236453891D01*
X342875000Y-236295141D01*
X342878072Y-235880891D01*
X342865812Y-235756409D01*
X342829502Y-235636711D01*
X342770537Y-235526397D01*
X342691185Y-235429706D01*
X342594494Y-235350354D01*
X342484180Y-235291389D01*
X342364482Y-235255079D01*
X342240000Y-235242819D01*
X341950750Y-235245891D01*
X341792000Y-235404641D01*
X341538000Y-235404641D01*
X341379250Y-235245891D01*
X341090000Y-235242819D01*
X340965518Y-235255079D01*
X340845820Y-235291389D01*
X340735506Y-235350354D01*
X340719761Y-235363275D01*
X340725000Y-235336939D01*
X340725000Y-235145000D01*
X340767002Y-235145000D01*
X340767002Y-234986252D01*
X340925750Y-235145000D01*
X340965000Y-235148072D01*
X341089482Y-235135812D01*
X341115000Y-235128071D01*
X341140518Y-235135812D01*
X341265000Y-235148072D01*
X341915000Y-235148072D01*
X342039482Y-235135812D01*
X342159180Y-235099502D01*
X342269494Y-235040537D01*
X342366185Y-234961185D01*
X342445537Y-234864494D01*
X342504502Y-234754180D01*
X342540812Y-234634482D01*
X342542731Y-234615000D01*
X342930000Y-234615000D01*
X342930000Y-235756531D01*
X342925719Y-235800000D01*
X342930000Y-235843469D01*
X342930000Y-235843476D01*
X342940116Y-235946185D01*
X342942805Y-235973490D01*
X342946553Y-235985845D01*
X342993411Y-236140312D01*
X343075589Y-236294058D01*
X343186183Y-236428817D01*
X343219956Y-236456534D01*
X344381928Y-237618507D01*
X344381928Y-238030001D01*
X344398992Y-238203255D01*
X344449528Y-238369851D01*
X344531595Y-238523387D01*
X344642038Y-238657962D01*
X344729816Y-238730000D01*
X344642038Y-238802038D01*
X344531595Y-238936613D01*
X344505414Y-238985595D01*
X344408993Y-239004774D01*
X344220635Y-239082795D01*
X344051117Y-239196063D01*
X343906954Y-239340226D01*
X343793686Y-239509744D01*
X343715665Y-239698102D01*
X343675891Y-239898061D01*
X343675891Y-240101939D01*
X343715665Y-240301898D01*
X343793686Y-240490256D01*
X343825892Y-240538456D01*
X343825891Y-245297422D01*
X343821610Y-245340891D01*
X343825891Y-245384360D01*
X343825891Y-245384367D01*
X343838696Y-245514380D01*
X343889302Y-245681203D01*
X343971480Y-245834949D01*
X344082074Y-245969708D01*
X344115847Y-245997425D01*
X347516421Y-249398000D01*
X334417000Y-249398000D01*
X334417000Y-229455000D01*
X338536196Y-229455000D01*
X338501774Y-229538102D01*
X338501774Y-229538102D01*
G37*
X338501774Y-229538102D02*
X338462000Y-229738061D01*
X338462000Y-229941939D01*
X338501774Y-230141898D01*
X338579795Y-230330256D01*
X338693063Y-230499774D01*
X338726928Y-230533639D01*
X338726928Y-231810000D01*
X338739188Y-231934482D01*
X338775498Y-232054180D01*
X338834463Y-232164494D01*
X338913815Y-232261185D01*
X339010506Y-232340537D01*
X339084335Y-232380000D01*
X339010506Y-232419463D01*
X338913815Y-232498815D01*
X338834463Y-232595506D01*
X338775498Y-232705820D01*
X338739188Y-232825518D01*
X338726928Y-232950000D01*
X338726928Y-234510000D01*
X338739188Y-234634482D01*
X338772703Y-234744966D01*
X338694774Y-234933102D01*
X338655000Y-235133061D01*
X338655000Y-235336939D01*
X338684371Y-235484600D01*
X338662038Y-235502929D01*
X338551595Y-235637504D01*
X338469528Y-235791040D01*
X338418992Y-235957636D01*
X338401928Y-236130890D01*
X338401928Y-237030892D01*
X338418992Y-237204146D01*
X338469528Y-237370742D01*
X338551595Y-237524278D01*
X338659242Y-237655446D01*
X338551595Y-237786613D01*
X338469528Y-237940149D01*
X338418992Y-238106745D01*
X338401928Y-238279999D01*
X338401928Y-239180001D01*
X338418992Y-239353255D01*
X338469528Y-239519851D01*
X338551595Y-239673387D01*
X338662038Y-239807962D01*
X338796613Y-239918405D01*
X338950149Y-240000472D01*
X339116745Y-240051008D01*
X339289999Y-240068072D01*
X339940001Y-240068072D01*
X340113255Y-240051008D01*
X340279851Y-240000472D01*
X340433387Y-239918405D01*
X340567962Y-239807962D01*
X340573342Y-239801406D01*
X340638815Y-239881185D01*
X340735506Y-239960537D01*
X340845820Y-240019502D01*
X340965518Y-240055812D01*
X341090000Y-240068072D01*
X341379250Y-240065000D01*
X341538000Y-239906250D01*
X341538000Y-238857000D01*
X341792000Y-238857000D01*
X341792000Y-239906250D01*
X341950750Y-240065000D01*
X342240000Y-240068072D01*
X342364482Y-240055812D01*
X342484180Y-240019502D01*
X342594494Y-239960537D01*
X342691185Y-239881185D01*
X342770537Y-239784494D01*
X342829502Y-239674180D01*
X342865812Y-239554482D01*
X342878072Y-239430000D01*
X342875000Y-239015750D01*
X342716250Y-238857000D01*
X341792000Y-238857000D01*
X341538000Y-238857000D01*
X341518000Y-238857000D01*
X341518000Y-238603000D01*
X341538000Y-238603000D01*
X341538000Y-236707891D01*
X341792000Y-236707891D01*
X341792000Y-238603000D01*
X342716250Y-238603000D01*
X342875000Y-238444250D01*
X342878072Y-238030000D01*
X342865812Y-237905518D01*
X342829502Y-237785820D01*
X342770537Y-237675506D01*
X342754074Y-237655445D01*
X342770537Y-237635385D01*
X342829502Y-237525071D01*
X342865812Y-237405373D01*
X342878072Y-237280891D01*
X342875000Y-236866641D01*
X342716250Y-236707891D01*
X341792000Y-236707891D01*
X341538000Y-236707891D01*
X341518000Y-236707891D01*
X341518000Y-236453891D01*
X341538000Y-236453891D01*
X341538000Y-235404641D01*
X341792000Y-235404641D01*
X341792000Y-236453891D01*
X342716250Y-236453891D01*
X342875000Y-236295141D01*
X342878072Y-235880891D01*
X342865812Y-235756409D01*
X342829502Y-235636711D01*
X342770537Y-235526397D01*
X342691185Y-235429706D01*
X342594494Y-235350354D01*
X342484180Y-235291389D01*
X342364482Y-235255079D01*
X342240000Y-235242819D01*
X341950750Y-235245891D01*
X341792000Y-235404641D01*
X341538000Y-235404641D01*
X341379250Y-235245891D01*
X341090000Y-235242819D01*
X340965518Y-235255079D01*
X340845820Y-235291389D01*
X340735506Y-235350354D01*
X340719761Y-235363275D01*
X340725000Y-235336939D01*
X340725000Y-235145000D01*
X340767002Y-235145000D01*
X340767002Y-234986252D01*
X340925750Y-235145000D01*
X340965000Y-235148072D01*
X341089482Y-235135812D01*
X341115000Y-235128071D01*
X341140518Y-235135812D01*
X341265000Y-235148072D01*
X341915000Y-235148072D01*
X342039482Y-235135812D01*
X342159180Y-235099502D01*
X342269494Y-235040537D01*
X342366185Y-234961185D01*
X342445537Y-234864494D01*
X342504502Y-234754180D01*
X342540812Y-234634482D01*
X342542731Y-234615000D01*
X342930000Y-234615000D01*
X342930000Y-235756531D01*
X342925719Y-235800000D01*
X342930000Y-235843469D01*
X342930000Y-235843476D01*
X342940116Y-235946185D01*
X342942805Y-235973490D01*
X342946553Y-235985845D01*
X342993411Y-236140312D01*
X343075589Y-236294058D01*
X343186183Y-236428817D01*
X343219956Y-236456534D01*
X344381928Y-237618507D01*
X344381928Y-238030001D01*
X344398992Y-238203255D01*
X344449528Y-238369851D01*
X344531595Y-238523387D01*
X344642038Y-238657962D01*
X344729816Y-238730000D01*
X344642038Y-238802038D01*
X344531595Y-238936613D01*
X344505414Y-238985595D01*
X344408993Y-239004774D01*
X344220635Y-239082795D01*
X344051117Y-239196063D01*
X343906954Y-239340226D01*
X343793686Y-239509744D01*
X343715665Y-239698102D01*
X343675891Y-239898061D01*
X343675891Y-240101939D01*
X343715665Y-240301898D01*
X343793686Y-240490256D01*
X343825892Y-240538456D01*
X343825891Y-245297422D01*
X343821610Y-245340891D01*
X343825891Y-245384360D01*
X343825891Y-245384367D01*
X343838696Y-245514380D01*
X343889302Y-245681203D01*
X343971480Y-245834949D01*
X344082074Y-245969708D01*
X344115847Y-245997425D01*
X347516421Y-249398000D01*
X334417000Y-249398000D01*
X334417000Y-229455000D01*
X338536196Y-229455000D01*
X338501774Y-229538102D01*
G36*
X275235000Y-245471564D02*
G01*
X269590446Y-245962395D01*
X266933408Y-241252192D01*
X275235000Y-240519699D01*
X275235000Y-245471564D01*
X275235000Y-245471564D01*
G37*
X275235000Y-245471564D02*
X269590446Y-245962395D01*
X266933408Y-241252192D01*
X275235000Y-240519699D01*
X275235000Y-245471564D01*
G36*
X332083020Y-222056613D02*
G01*
X322178920Y-228620958D01*
X322108557Y-228638108D01*
X319927000Y-226456552D01*
X319927000Y-225844026D01*
X319933700Y-225775999D01*
X319927000Y-225707972D01*
X319927000Y-225707963D01*
X319906960Y-225504493D01*
X319827764Y-225243419D01*
X319699157Y-225002812D01*
X319526081Y-224791919D01*
X319473231Y-224748546D01*
X319046792Y-224322107D01*
X329173439Y-217571009D01*
X332083020Y-222056613D01*
X332083020Y-222056613D01*
G37*
X332083020Y-222056613D02*
X322178920Y-228620958D01*
X322108557Y-228638108D01*
X319927000Y-226456552D01*
X319927000Y-225844026D01*
X319933700Y-225775999D01*
X319927000Y-225707972D01*
X319927000Y-225707963D01*
X319906960Y-225504493D01*
X319827764Y-225243419D01*
X319699157Y-225002812D01*
X319526081Y-224791919D01*
X319473231Y-224748546D01*
X319046792Y-224322107D01*
X329173439Y-217571009D01*
X332083020Y-222056613D01*
G36*
X301397000Y-211298000D02*
G01*
X300451797Y-211298000D01*
X300340313Y-211238411D01*
X300173490Y-211187805D01*
X300043477Y-211175000D01*
X300043469Y-211175000D01*
X300000000Y-211170719D01*
X299956531Y-211175000D01*
X296741469Y-211175000D01*
X296698000Y-211170719D01*
X296654531Y-211175000D01*
X296654523Y-211175000D01*
X296524510Y-211187805D01*
X296357687Y-211238411D01*
X296246203Y-211298000D01*
X293777000Y-211298000D01*
X293777000Y-206345000D01*
X301397000Y-206345000D01*
X301397000Y-211298000D01*
X301397000Y-211298000D01*
G37*
X301397000Y-211298000D02*
X300451797Y-211298000D01*
X300340313Y-211238411D01*
X300173490Y-211187805D01*
X300043477Y-211175000D01*
X300043469Y-211175000D01*
X300000000Y-211170719D01*
X299956531Y-211175000D01*
X296741469Y-211175000D01*
X296698000Y-211170719D01*
X296654531Y-211175000D01*
X296654523Y-211175000D01*
X296524510Y-211187805D01*
X296357687Y-211238411D01*
X296246203Y-211298000D01*
X293777000Y-211298000D01*
X293777000Y-206345000D01*
X301397000Y-206345000D01*
X301397000Y-211298000D01*
G36*
X288656610Y-192352332D02*
G01*
X263946874Y-212220295D01*
X263619059Y-211892480D01*
X263663484Y-211824397D01*
X263710088Y-211708319D01*
X263733151Y-211585379D01*
X263731786Y-211460303D01*
X263706047Y-211337896D01*
X263656922Y-211222862D01*
X263590463Y-211125710D01*
X263856582Y-211125710D01*
X264076156Y-211266609D01*
X264359348Y-211193332D01*
X264622804Y-211066215D01*
X264856397Y-210890142D01*
X265051153Y-210671881D01*
X265199586Y-210419818D01*
X265257636Y-210275229D01*
X265157006Y-210034524D01*
X263961201Y-209929905D01*
X263856582Y-211125710D01*
X263590463Y-211125710D01*
X263586298Y-211119623D01*
X263580807Y-211113079D01*
X263603548Y-211103572D01*
X263688824Y-210128856D01*
X263831612Y-209986068D01*
X263652004Y-209806460D01*
X263563365Y-209895099D01*
X262512362Y-209803148D01*
X262499050Y-209823892D01*
X262493559Y-209817348D01*
X262404152Y-209729870D01*
X262299397Y-209661516D01*
X262183319Y-209614912D01*
X262060379Y-209591849D01*
X261935303Y-209593214D01*
X261812896Y-209618953D01*
X261748120Y-209646615D01*
X261752319Y-209625507D01*
X261752319Y-209332987D01*
X261736930Y-209255621D01*
X261917913Y-209179958D01*
X262223901Y-209179958D01*
X262436889Y-209316631D01*
X262534500Y-209550114D01*
X263509216Y-209635390D01*
X263652004Y-209778178D01*
X263831612Y-209598570D01*
X263859894Y-209598570D01*
X264039502Y-209778178D01*
X264128141Y-209689539D01*
X265179144Y-209781490D01*
X265315816Y-209568504D01*
X265496347Y-209493030D01*
X265802335Y-209493030D01*
X266021909Y-209633929D01*
X266305101Y-209560652D01*
X266568557Y-209433535D01*
X266802150Y-209257462D01*
X266996906Y-209039201D01*
X267145339Y-208787138D01*
X267203389Y-208642549D01*
X267102759Y-208401844D01*
X265906954Y-208297225D01*
X265802335Y-209493030D01*
X265496347Y-209493030D01*
X265549301Y-209470892D01*
X265634577Y-208496176D01*
X265777365Y-208353388D01*
X265597757Y-208173780D01*
X265509119Y-208262419D01*
X264458115Y-208170468D01*
X264321443Y-208383454D01*
X264087958Y-208481066D01*
X264002682Y-209455782D01*
X263859894Y-209598570D01*
X263831612Y-209598570D01*
X263742973Y-209509931D01*
X263834924Y-208458928D01*
X263621936Y-208322255D01*
X263524325Y-208088772D01*
X262549609Y-208003496D01*
X262406821Y-207860708D01*
X262227213Y-208040316D01*
X262315852Y-208128955D01*
X262223901Y-209179958D01*
X261917913Y-209179958D01*
X261970867Y-209157820D01*
X262056143Y-208183104D01*
X262198931Y-208040316D01*
X262019323Y-207860708D01*
X261930684Y-207949347D01*
X260879681Y-207857396D01*
X260743744Y-208069237D01*
X260700477Y-208051315D01*
X260413579Y-207994247D01*
X260121059Y-207994247D01*
X259834161Y-208051315D01*
X259563908Y-208163257D01*
X259320687Y-208325772D01*
X259113844Y-208532615D01*
X258951329Y-208775836D01*
X258839387Y-209046089D01*
X258782319Y-209332987D01*
X258782319Y-209625507D01*
X258839387Y-209912405D01*
X258951329Y-210182658D01*
X259113844Y-210425879D01*
X259320687Y-210632722D01*
X259563908Y-210795237D01*
X259834161Y-210907179D01*
X260121059Y-210964247D01*
X260176552Y-210964247D01*
X260136516Y-211025603D01*
X260089912Y-211141681D01*
X260066849Y-211264621D01*
X260068214Y-211389697D01*
X260093953Y-211512104D01*
X260143078Y-211627138D01*
X260213702Y-211730377D01*
X261306441Y-213032652D01*
X261395848Y-213120130D01*
X261500603Y-213188484D01*
X261616681Y-213235088D01*
X261739621Y-213258151D01*
X261864697Y-213256786D01*
X261987104Y-213231047D01*
X262102138Y-213181922D01*
X262205377Y-213111298D01*
X262275706Y-213052285D01*
X262559356Y-213335935D01*
X262281587Y-213559276D01*
X261370196Y-213363681D01*
X261332580Y-213351267D01*
X261285178Y-213345435D01*
X261281193Y-213344580D01*
X261242002Y-213340123D01*
X261159555Y-213329980D01*
X261155467Y-213330283D01*
X261151388Y-213329819D01*
X261068557Y-213336720D01*
X260985701Y-213342857D01*
X260981747Y-213343953D01*
X260977661Y-213344293D01*
X260897800Y-213367211D01*
X260817701Y-213389404D01*
X260814038Y-213391249D01*
X260810094Y-213392381D01*
X260736279Y-213430419D01*
X260662009Y-213467831D01*
X260658770Y-213470360D01*
X260655130Y-213472236D01*
X260590126Y-213523964D01*
X260524609Y-213575127D01*
X260521933Y-213578231D01*
X260518721Y-213580787D01*
X260465078Y-213644181D01*
X260410781Y-213707165D01*
X260408756Y-213710743D01*
X260406112Y-213713867D01*
X260365916Y-213786418D01*
X260346422Y-213820854D01*
X260344767Y-213824591D01*
X260321627Y-213866357D01*
X260309562Y-213904077D01*
X259456038Y-215831170D01*
X259167849Y-216062890D01*
X252040034Y-214494771D01*
X252696822Y-213255937D01*
X254214090Y-210734217D01*
X255865657Y-208298339D01*
X256576183Y-207363657D01*
X260801189Y-207363657D01*
X260901819Y-207604362D01*
X262097624Y-207708981D01*
X262102537Y-207652818D01*
X262227213Y-207652818D01*
X262406821Y-207832426D01*
X262495460Y-207743787D01*
X263546463Y-207835738D01*
X263683136Y-207622750D01*
X263863666Y-207547277D01*
X264169654Y-207547277D01*
X264382642Y-207683950D01*
X264480253Y-207917434D01*
X265454969Y-208002710D01*
X265597757Y-208145498D01*
X265777365Y-207965890D01*
X265805647Y-207965890D01*
X265985255Y-208145498D01*
X266073894Y-208056859D01*
X267124897Y-208148810D01*
X267260834Y-207936968D01*
X267304101Y-207954890D01*
X267590999Y-208011958D01*
X267883519Y-208011958D01*
X268170417Y-207954890D01*
X268440670Y-207842948D01*
X268683891Y-207680433D01*
X268890734Y-207473590D01*
X269053249Y-207230369D01*
X269165191Y-206960116D01*
X269222259Y-206673218D01*
X269222259Y-206380698D01*
X269207103Y-206304502D01*
X269249854Y-206322210D01*
X269536752Y-206379278D01*
X269829272Y-206379278D01*
X270116170Y-206322210D01*
X270386423Y-206210268D01*
X270629644Y-206047753D01*
X270836487Y-205840910D01*
X270999002Y-205597689D01*
X271110944Y-205327436D01*
X271168012Y-205040538D01*
X271168012Y-204748018D01*
X271152855Y-204671821D01*
X271195606Y-204689529D01*
X271482504Y-204746597D01*
X271775024Y-204746597D01*
X272061922Y-204689529D01*
X272332175Y-204577587D01*
X272575396Y-204415072D01*
X272782239Y-204208229D01*
X272944754Y-203965008D01*
X273056696Y-203694755D01*
X273113764Y-203407857D01*
X273113764Y-203115337D01*
X273098608Y-203039141D01*
X273141359Y-203056849D01*
X273428257Y-203113917D01*
X273720777Y-203113917D01*
X274007675Y-203056849D01*
X274277928Y-202944907D01*
X274521149Y-202782392D01*
X274727992Y-202575549D01*
X274890507Y-202332328D01*
X275002449Y-202062075D01*
X275059517Y-201775177D01*
X275059517Y-201482657D01*
X275044360Y-201406460D01*
X275087112Y-201424168D01*
X275374010Y-201481236D01*
X275666530Y-201481236D01*
X275953428Y-201424168D01*
X276223681Y-201312226D01*
X276466902Y-201149711D01*
X276673745Y-200942868D01*
X276836260Y-200699647D01*
X276948202Y-200429394D01*
X277005270Y-200142496D01*
X277005270Y-199849976D01*
X276990114Y-199773780D01*
X277032865Y-199791488D01*
X277319763Y-199848556D01*
X277612283Y-199848556D01*
X277899181Y-199791488D01*
X278169434Y-199679546D01*
X278412655Y-199517031D01*
X278619498Y-199310188D01*
X278782013Y-199066967D01*
X278893955Y-198796714D01*
X278951023Y-198509816D01*
X278951023Y-198217296D01*
X278935866Y-198141099D01*
X278978618Y-198158807D01*
X279265516Y-198215875D01*
X279558036Y-198215875D01*
X279844934Y-198158807D01*
X280115187Y-198046865D01*
X280358408Y-197884350D01*
X280565251Y-197677507D01*
X280727766Y-197434286D01*
X280839708Y-197164033D01*
X280896776Y-196877135D01*
X280896776Y-196584615D01*
X280839708Y-196297717D01*
X280727766Y-196027464D01*
X280565251Y-195784243D01*
X280358408Y-195577400D01*
X280115187Y-195414885D01*
X279844934Y-195302943D01*
X279558036Y-195245875D01*
X279265516Y-195245875D01*
X279188149Y-195261264D01*
X279090348Y-195027327D01*
X278115632Y-194942051D01*
X277972844Y-194799263D01*
X277793236Y-194978871D01*
X277881875Y-195067510D01*
X277789924Y-196118513D01*
X278001766Y-196254450D01*
X277983844Y-196297717D01*
X277926776Y-196584615D01*
X277926776Y-196877135D01*
X277941933Y-196953332D01*
X277899181Y-196935624D01*
X277612283Y-196878556D01*
X277319763Y-196878556D01*
X277242397Y-196893945D01*
X277144596Y-196660008D01*
X276169880Y-196574732D01*
X276027092Y-196431944D01*
X275847484Y-196611552D01*
X275936123Y-196700191D01*
X275844172Y-197751194D01*
X276056013Y-197887131D01*
X276038091Y-197930398D01*
X275981023Y-198217296D01*
X275981023Y-198509816D01*
X275996179Y-198586012D01*
X275953428Y-198568304D01*
X275666530Y-198511236D01*
X275374010Y-198511236D01*
X275296644Y-198526625D01*
X275198843Y-198292688D01*
X274224127Y-198207412D01*
X274081339Y-198064624D01*
X273901731Y-198244232D01*
X273990370Y-198332871D01*
X273898419Y-199383874D01*
X274110260Y-199519811D01*
X274092338Y-199563078D01*
X274035270Y-199849976D01*
X274035270Y-200142496D01*
X274050427Y-200218693D01*
X274007675Y-200200985D01*
X273720777Y-200143917D01*
X273428257Y-200143917D01*
X273350891Y-200159306D01*
X273253090Y-199925369D01*
X272278374Y-199840093D01*
X272135586Y-199697305D01*
X271955978Y-199876913D01*
X272044617Y-199965552D01*
X271952666Y-201016555D01*
X272164507Y-201152492D01*
X272146585Y-201195759D01*
X272089517Y-201482657D01*
X272089517Y-201775177D01*
X272104673Y-201851373D01*
X272061922Y-201833665D01*
X271775024Y-201776597D01*
X271482504Y-201776597D01*
X271405138Y-201791986D01*
X271307337Y-201558049D01*
X270332621Y-201472773D01*
X270189833Y-201329985D01*
X270010225Y-201509593D01*
X270098864Y-201598232D01*
X270006913Y-202649235D01*
X270218754Y-202785172D01*
X270200832Y-202828439D01*
X270143764Y-203115337D01*
X270143764Y-203407857D01*
X270158921Y-203484054D01*
X270116170Y-203466346D01*
X269829272Y-203409278D01*
X269536752Y-203409278D01*
X269459385Y-203424667D01*
X269361584Y-203190730D01*
X268386868Y-203105454D01*
X268244080Y-202962666D01*
X268064472Y-203142274D01*
X268153111Y-203230913D01*
X268061160Y-204281916D01*
X268273002Y-204417853D01*
X268255080Y-204461120D01*
X268198012Y-204748018D01*
X268198012Y-205040538D01*
X268213168Y-205116734D01*
X268170417Y-205099026D01*
X267883519Y-205041958D01*
X267590999Y-205041958D01*
X267513631Y-205057348D01*
X267415831Y-204823411D01*
X266441115Y-204738135D01*
X266298327Y-204595347D01*
X266118719Y-204774955D01*
X266207358Y-204863594D01*
X266115407Y-205914597D01*
X266327248Y-206050534D01*
X266309327Y-206093800D01*
X266252259Y-206380698D01*
X266252259Y-206673218D01*
X266267648Y-206750585D01*
X266033711Y-206848386D01*
X265948435Y-207823102D01*
X265805647Y-207965890D01*
X265777365Y-207965890D01*
X265688726Y-207877251D01*
X265780677Y-206826248D01*
X265567689Y-206689575D01*
X265470078Y-206456091D01*
X264495362Y-206370815D01*
X264352574Y-206228027D01*
X264172966Y-206407635D01*
X264261605Y-206496274D01*
X264169654Y-207547277D01*
X263863666Y-207547277D01*
X263916620Y-207525139D01*
X264001896Y-206550423D01*
X264144684Y-206407635D01*
X263965076Y-206228027D01*
X263876437Y-206316666D01*
X262825434Y-206224715D01*
X262688761Y-206437703D01*
X262455277Y-206535314D01*
X262370001Y-207510030D01*
X262227213Y-207652818D01*
X262102537Y-207652818D01*
X262202243Y-206513176D01*
X261982669Y-206372277D01*
X261699477Y-206445554D01*
X261436021Y-206572671D01*
X261202428Y-206748744D01*
X261007672Y-206967005D01*
X260859239Y-207219068D01*
X260801189Y-207363657D01*
X256576183Y-207363657D01*
X257646677Y-205955447D01*
X257837344Y-205730976D01*
X262746942Y-205730976D01*
X262847572Y-205971681D01*
X264043377Y-206076300D01*
X264048290Y-206020137D01*
X264172966Y-206020137D01*
X264352574Y-206199745D01*
X264441213Y-206111106D01*
X265492216Y-206203057D01*
X265628888Y-205990071D01*
X265862373Y-205892459D01*
X265947649Y-204917743D01*
X266090437Y-204774955D01*
X265910829Y-204595347D01*
X265822191Y-204683986D01*
X264771187Y-204592035D01*
X264634515Y-204805021D01*
X264401030Y-204902633D01*
X264315754Y-205877349D01*
X264172966Y-206020137D01*
X264048290Y-206020137D01*
X264147996Y-204880495D01*
X263928422Y-204739596D01*
X263645230Y-204812873D01*
X263381774Y-204939990D01*
X263148181Y-205116063D01*
X262953425Y-205334324D01*
X262804992Y-205586387D01*
X262746942Y-205730976D01*
X257837344Y-205730976D01*
X259224154Y-204098296D01*
X264692695Y-204098296D01*
X264793325Y-204339001D01*
X265989130Y-204443620D01*
X265994043Y-204387457D01*
X266118719Y-204387457D01*
X266298327Y-204567065D01*
X266386966Y-204478426D01*
X267437969Y-204570377D01*
X267574642Y-204357389D01*
X267808126Y-204259778D01*
X267893402Y-203285062D01*
X268036190Y-203142274D01*
X267856582Y-202962666D01*
X267767943Y-203051305D01*
X266716940Y-202959354D01*
X266580267Y-203172342D01*
X266346783Y-203269953D01*
X266261507Y-204244669D01*
X266118719Y-204387457D01*
X265994043Y-204387457D01*
X266093749Y-203247815D01*
X265874175Y-203106916D01*
X265590983Y-203180193D01*
X265327527Y-203307310D01*
X265093934Y-203483383D01*
X264899178Y-203701644D01*
X264750745Y-203953707D01*
X264692695Y-204098296D01*
X259224154Y-204098296D01*
X259551927Y-203712413D01*
X260732957Y-202465615D01*
X266638448Y-202465615D01*
X266739078Y-202706320D01*
X267934883Y-202810939D01*
X267939796Y-202754776D01*
X268064472Y-202754776D01*
X268244080Y-202934384D01*
X268332719Y-202845745D01*
X269383722Y-202937696D01*
X269520395Y-202724708D01*
X269753879Y-202627097D01*
X269839155Y-201652381D01*
X269981943Y-201509593D01*
X269802335Y-201329985D01*
X269713696Y-201418624D01*
X268662693Y-201326673D01*
X268526020Y-201539661D01*
X268292536Y-201637272D01*
X268207260Y-202611988D01*
X268064472Y-202754776D01*
X267939796Y-202754776D01*
X268039502Y-201615134D01*
X267819928Y-201474235D01*
X267536736Y-201547512D01*
X267273280Y-201674629D01*
X267039687Y-201850702D01*
X266844931Y-202068963D01*
X266696498Y-202321026D01*
X266638448Y-202465615D01*
X260732957Y-202465615D01*
X261575818Y-201575818D01*
X262360070Y-200832934D01*
X268584201Y-200832934D01*
X268684831Y-201073639D01*
X269880636Y-201178258D01*
X269885549Y-201122095D01*
X270010225Y-201122095D01*
X270189833Y-201301703D01*
X270278472Y-201213064D01*
X271329475Y-201305015D01*
X271466147Y-201092029D01*
X271699632Y-200994417D01*
X271784908Y-200019701D01*
X271927696Y-199876913D01*
X271748088Y-199697305D01*
X271659450Y-199785944D01*
X270608446Y-199693993D01*
X270471774Y-199906979D01*
X270238289Y-200004591D01*
X270153013Y-200979307D01*
X270010225Y-201122095D01*
X269885549Y-201122095D01*
X269985255Y-199982453D01*
X269765681Y-199841554D01*
X269482489Y-199914831D01*
X269219033Y-200041948D01*
X268985440Y-200218021D01*
X268790684Y-200436282D01*
X268642251Y-200688345D01*
X268584201Y-200832934D01*
X262360070Y-200832934D01*
X263712413Y-199551927D01*
X264126434Y-199200254D01*
X270529954Y-199200254D01*
X270630584Y-199440959D01*
X271826389Y-199545578D01*
X271831302Y-199489415D01*
X271955978Y-199489415D01*
X272135586Y-199669023D01*
X272224225Y-199580384D01*
X273275228Y-199672335D01*
X273411901Y-199459347D01*
X273645385Y-199361736D01*
X273730661Y-198387020D01*
X273873449Y-198244232D01*
X273693841Y-198064624D01*
X273605202Y-198153263D01*
X272554199Y-198061312D01*
X272417526Y-198274300D01*
X272184042Y-198371911D01*
X272098766Y-199346627D01*
X271955978Y-199489415D01*
X271831302Y-199489415D01*
X271931008Y-198349773D01*
X271711434Y-198208874D01*
X271428242Y-198282151D01*
X271164786Y-198409268D01*
X270931193Y-198585341D01*
X270736437Y-198803602D01*
X270588004Y-199055665D01*
X270529954Y-199200254D01*
X264126434Y-199200254D01*
X265955447Y-197646677D01*
X266059506Y-197567573D01*
X272475707Y-197567573D01*
X272576337Y-197808278D01*
X273772142Y-197912897D01*
X273777055Y-197856734D01*
X273901731Y-197856734D01*
X274081339Y-198036342D01*
X274169978Y-197947703D01*
X275220981Y-198039654D01*
X275357653Y-197826668D01*
X275591138Y-197729056D01*
X275676414Y-196754340D01*
X275819202Y-196611552D01*
X275639594Y-196431944D01*
X275550956Y-196520583D01*
X274499952Y-196428632D01*
X274363280Y-196641618D01*
X274129795Y-196739230D01*
X274044519Y-197713946D01*
X273901731Y-197856734D01*
X273777055Y-197856734D01*
X273876761Y-196717092D01*
X273657187Y-196576193D01*
X273373995Y-196649470D01*
X273110539Y-196776587D01*
X272876946Y-196952660D01*
X272682190Y-197170921D01*
X272533757Y-197422984D01*
X272475707Y-197567573D01*
X266059506Y-197567573D01*
X268207260Y-195934893D01*
X274421460Y-195934893D01*
X274522090Y-196175598D01*
X275717895Y-196280217D01*
X275722808Y-196224054D01*
X275847484Y-196224054D01*
X276027092Y-196403662D01*
X276115731Y-196315023D01*
X277166734Y-196406974D01*
X277303407Y-196193986D01*
X277536890Y-196096375D01*
X277622166Y-195121659D01*
X277764954Y-194978871D01*
X277585346Y-194799263D01*
X277496708Y-194887902D01*
X276445704Y-194795951D01*
X276309031Y-195008939D01*
X276075548Y-195106550D01*
X275990272Y-196081266D01*
X275847484Y-196224054D01*
X275722808Y-196224054D01*
X275822514Y-195084412D01*
X275602940Y-194943513D01*
X275319748Y-195016790D01*
X275056292Y-195143907D01*
X274822699Y-195319980D01*
X274627943Y-195538241D01*
X274479510Y-195790304D01*
X274421460Y-195934893D01*
X268207260Y-195934893D01*
X268298339Y-195865657D01*
X270062280Y-194669674D01*
X277916681Y-194669674D01*
X279112486Y-194774293D01*
X279253385Y-194554719D01*
X279180108Y-194271527D01*
X279052991Y-194008071D01*
X278876918Y-193774478D01*
X278658657Y-193579722D01*
X278406594Y-193431289D01*
X278262005Y-193373239D01*
X278021300Y-193473869D01*
X277916681Y-194669674D01*
X270062280Y-194669674D01*
X270604246Y-194302212D01*
X276367212Y-194302212D01*
X276467842Y-194542917D01*
X277663647Y-194647536D01*
X277768266Y-193451731D01*
X277548692Y-193310832D01*
X277265500Y-193384109D01*
X277002044Y-193511226D01*
X276768451Y-193687299D01*
X276573695Y-193905560D01*
X276425262Y-194157623D01*
X276367212Y-194302212D01*
X270604246Y-194302212D01*
X270734217Y-194214090D01*
X273255937Y-192696822D01*
X275856102Y-191318301D01*
X278527085Y-190082573D01*
X281261052Y-188993261D01*
X284049983Y-188053561D01*
X286885699Y-187266228D01*
X287323949Y-187169762D01*
X288656610Y-192352332D01*
X288656610Y-192352332D01*
G37*
X288656610Y-192352332D02*
X263946874Y-212220295D01*
X263619059Y-211892480D01*
X263663484Y-211824397D01*
X263710088Y-211708319D01*
X263733151Y-211585379D01*
X263731786Y-211460303D01*
X263706047Y-211337896D01*
X263656922Y-211222862D01*
X263590463Y-211125710D01*
X263856582Y-211125710D01*
X264076156Y-211266609D01*
X264359348Y-211193332D01*
X264622804Y-211066215D01*
X264856397Y-210890142D01*
X265051153Y-210671881D01*
X265199586Y-210419818D01*
X265257636Y-210275229D01*
X265157006Y-210034524D01*
X263961201Y-209929905D01*
X263856582Y-211125710D01*
X263590463Y-211125710D01*
X263586298Y-211119623D01*
X263580807Y-211113079D01*
X263603548Y-211103572D01*
X263688824Y-210128856D01*
X263831612Y-209986068D01*
X263652004Y-209806460D01*
X263563365Y-209895099D01*
X262512362Y-209803148D01*
X262499050Y-209823892D01*
X262493559Y-209817348D01*
X262404152Y-209729870D01*
X262299397Y-209661516D01*
X262183319Y-209614912D01*
X262060379Y-209591849D01*
X261935303Y-209593214D01*
X261812896Y-209618953D01*
X261748120Y-209646615D01*
X261752319Y-209625507D01*
X261752319Y-209332987D01*
X261736930Y-209255621D01*
X261917913Y-209179958D01*
X262223901Y-209179958D01*
X262436889Y-209316631D01*
X262534500Y-209550114D01*
X263509216Y-209635390D01*
X263652004Y-209778178D01*
X263831612Y-209598570D01*
X263859894Y-209598570D01*
X264039502Y-209778178D01*
X264128141Y-209689539D01*
X265179144Y-209781490D01*
X265315816Y-209568504D01*
X265496347Y-209493030D01*
X265802335Y-209493030D01*
X266021909Y-209633929D01*
X266305101Y-209560652D01*
X266568557Y-209433535D01*
X266802150Y-209257462D01*
X266996906Y-209039201D01*
X267145339Y-208787138D01*
X267203389Y-208642549D01*
X267102759Y-208401844D01*
X265906954Y-208297225D01*
X265802335Y-209493030D01*
X265496347Y-209493030D01*
X265549301Y-209470892D01*
X265634577Y-208496176D01*
X265777365Y-208353388D01*
X265597757Y-208173780D01*
X265509119Y-208262419D01*
X264458115Y-208170468D01*
X264321443Y-208383454D01*
X264087958Y-208481066D01*
X264002682Y-209455782D01*
X263859894Y-209598570D01*
X263831612Y-209598570D01*
X263742973Y-209509931D01*
X263834924Y-208458928D01*
X263621936Y-208322255D01*
X263524325Y-208088772D01*
X262549609Y-208003496D01*
X262406821Y-207860708D01*
X262227213Y-208040316D01*
X262315852Y-208128955D01*
X262223901Y-209179958D01*
X261917913Y-209179958D01*
X261970867Y-209157820D01*
X262056143Y-208183104D01*
X262198931Y-208040316D01*
X262019323Y-207860708D01*
X261930684Y-207949347D01*
X260879681Y-207857396D01*
X260743744Y-208069237D01*
X260700477Y-208051315D01*
X260413579Y-207994247D01*
X260121059Y-207994247D01*
X259834161Y-208051315D01*
X259563908Y-208163257D01*
X259320687Y-208325772D01*
X259113844Y-208532615D01*
X258951329Y-208775836D01*
X258839387Y-209046089D01*
X258782319Y-209332987D01*
X258782319Y-209625507D01*
X258839387Y-209912405D01*
X258951329Y-210182658D01*
X259113844Y-210425879D01*
X259320687Y-210632722D01*
X259563908Y-210795237D01*
X259834161Y-210907179D01*
X260121059Y-210964247D01*
X260176552Y-210964247D01*
X260136516Y-211025603D01*
X260089912Y-211141681D01*
X260066849Y-211264621D01*
X260068214Y-211389697D01*
X260093953Y-211512104D01*
X260143078Y-211627138D01*
X260213702Y-211730377D01*
X261306441Y-213032652D01*
X261395848Y-213120130D01*
X261500603Y-213188484D01*
X261616681Y-213235088D01*
X261739621Y-213258151D01*
X261864697Y-213256786D01*
X261987104Y-213231047D01*
X262102138Y-213181922D01*
X262205377Y-213111298D01*
X262275706Y-213052285D01*
X262559356Y-213335935D01*
X262281587Y-213559276D01*
X261370196Y-213363681D01*
X261332580Y-213351267D01*
X261285178Y-213345435D01*
X261281193Y-213344580D01*
X261242002Y-213340123D01*
X261159555Y-213329980D01*
X261155467Y-213330283D01*
X261151388Y-213329819D01*
X261068557Y-213336720D01*
X260985701Y-213342857D01*
X260981747Y-213343953D01*
X260977661Y-213344293D01*
X260897800Y-213367211D01*
X260817701Y-213389404D01*
X260814038Y-213391249D01*
X260810094Y-213392381D01*
X260736279Y-213430419D01*
X260662009Y-213467831D01*
X260658770Y-213470360D01*
X260655130Y-213472236D01*
X260590126Y-213523964D01*
X260524609Y-213575127D01*
X260521933Y-213578231D01*
X260518721Y-213580787D01*
X260465078Y-213644181D01*
X260410781Y-213707165D01*
X260408756Y-213710743D01*
X260406112Y-213713867D01*
X260365916Y-213786418D01*
X260346422Y-213820854D01*
X260344767Y-213824591D01*
X260321627Y-213866357D01*
X260309562Y-213904077D01*
X259456038Y-215831170D01*
X259167849Y-216062890D01*
X252040034Y-214494771D01*
X252696822Y-213255937D01*
X254214090Y-210734217D01*
X255865657Y-208298339D01*
X256576183Y-207363657D01*
X260801189Y-207363657D01*
X260901819Y-207604362D01*
X262097624Y-207708981D01*
X262102537Y-207652818D01*
X262227213Y-207652818D01*
X262406821Y-207832426D01*
X262495460Y-207743787D01*
X263546463Y-207835738D01*
X263683136Y-207622750D01*
X263863666Y-207547277D01*
X264169654Y-207547277D01*
X264382642Y-207683950D01*
X264480253Y-207917434D01*
X265454969Y-208002710D01*
X265597757Y-208145498D01*
X265777365Y-207965890D01*
X265805647Y-207965890D01*
X265985255Y-208145498D01*
X266073894Y-208056859D01*
X267124897Y-208148810D01*
X267260834Y-207936968D01*
X267304101Y-207954890D01*
X267590999Y-208011958D01*
X267883519Y-208011958D01*
X268170417Y-207954890D01*
X268440670Y-207842948D01*
X268683891Y-207680433D01*
X268890734Y-207473590D01*
X269053249Y-207230369D01*
X269165191Y-206960116D01*
X269222259Y-206673218D01*
X269222259Y-206380698D01*
X269207103Y-206304502D01*
X269249854Y-206322210D01*
X269536752Y-206379278D01*
X269829272Y-206379278D01*
X270116170Y-206322210D01*
X270386423Y-206210268D01*
X270629644Y-206047753D01*
X270836487Y-205840910D01*
X270999002Y-205597689D01*
X271110944Y-205327436D01*
X271168012Y-205040538D01*
X271168012Y-204748018D01*
X271152855Y-204671821D01*
X271195606Y-204689529D01*
X271482504Y-204746597D01*
X271775024Y-204746597D01*
X272061922Y-204689529D01*
X272332175Y-204577587D01*
X272575396Y-204415072D01*
X272782239Y-204208229D01*
X272944754Y-203965008D01*
X273056696Y-203694755D01*
X273113764Y-203407857D01*
X273113764Y-203115337D01*
X273098608Y-203039141D01*
X273141359Y-203056849D01*
X273428257Y-203113917D01*
X273720777Y-203113917D01*
X274007675Y-203056849D01*
X274277928Y-202944907D01*
X274521149Y-202782392D01*
X274727992Y-202575549D01*
X274890507Y-202332328D01*
X275002449Y-202062075D01*
X275059517Y-201775177D01*
X275059517Y-201482657D01*
X275044360Y-201406460D01*
X275087112Y-201424168D01*
X275374010Y-201481236D01*
X275666530Y-201481236D01*
X275953428Y-201424168D01*
X276223681Y-201312226D01*
X276466902Y-201149711D01*
X276673745Y-200942868D01*
X276836260Y-200699647D01*
X276948202Y-200429394D01*
X277005270Y-200142496D01*
X277005270Y-199849976D01*
X276990114Y-199773780D01*
X277032865Y-199791488D01*
X277319763Y-199848556D01*
X277612283Y-199848556D01*
X277899181Y-199791488D01*
X278169434Y-199679546D01*
X278412655Y-199517031D01*
X278619498Y-199310188D01*
X278782013Y-199066967D01*
X278893955Y-198796714D01*
X278951023Y-198509816D01*
X278951023Y-198217296D01*
X278935866Y-198141099D01*
X278978618Y-198158807D01*
X279265516Y-198215875D01*
X279558036Y-198215875D01*
X279844934Y-198158807D01*
X280115187Y-198046865D01*
X280358408Y-197884350D01*
X280565251Y-197677507D01*
X280727766Y-197434286D01*
X280839708Y-197164033D01*
X280896776Y-196877135D01*
X280896776Y-196584615D01*
X280839708Y-196297717D01*
X280727766Y-196027464D01*
X280565251Y-195784243D01*
X280358408Y-195577400D01*
X280115187Y-195414885D01*
X279844934Y-195302943D01*
X279558036Y-195245875D01*
X279265516Y-195245875D01*
X279188149Y-195261264D01*
X279090348Y-195027327D01*
X278115632Y-194942051D01*
X277972844Y-194799263D01*
X277793236Y-194978871D01*
X277881875Y-195067510D01*
X277789924Y-196118513D01*
X278001766Y-196254450D01*
X277983844Y-196297717D01*
X277926776Y-196584615D01*
X277926776Y-196877135D01*
X277941933Y-196953332D01*
X277899181Y-196935624D01*
X277612283Y-196878556D01*
X277319763Y-196878556D01*
X277242397Y-196893945D01*
X277144596Y-196660008D01*
X276169880Y-196574732D01*
X276027092Y-196431944D01*
X275847484Y-196611552D01*
X275936123Y-196700191D01*
X275844172Y-197751194D01*
X276056013Y-197887131D01*
X276038091Y-197930398D01*
X275981023Y-198217296D01*
X275981023Y-198509816D01*
X275996179Y-198586012D01*
X275953428Y-198568304D01*
X275666530Y-198511236D01*
X275374010Y-198511236D01*
X275296644Y-198526625D01*
X275198843Y-198292688D01*
X274224127Y-198207412D01*
X274081339Y-198064624D01*
X273901731Y-198244232D01*
X273990370Y-198332871D01*
X273898419Y-199383874D01*
X274110260Y-199519811D01*
X274092338Y-199563078D01*
X274035270Y-199849976D01*
X274035270Y-200142496D01*
X274050427Y-200218693D01*
X274007675Y-200200985D01*
X273720777Y-200143917D01*
X273428257Y-200143917D01*
X273350891Y-200159306D01*
X273253090Y-199925369D01*
X272278374Y-199840093D01*
X272135586Y-199697305D01*
X271955978Y-199876913D01*
X272044617Y-199965552D01*
X271952666Y-201016555D01*
X272164507Y-201152492D01*
X272146585Y-201195759D01*
X272089517Y-201482657D01*
X272089517Y-201775177D01*
X272104673Y-201851373D01*
X272061922Y-201833665D01*
X271775024Y-201776597D01*
X271482504Y-201776597D01*
X271405138Y-201791986D01*
X271307337Y-201558049D01*
X270332621Y-201472773D01*
X270189833Y-201329985D01*
X270010225Y-201509593D01*
X270098864Y-201598232D01*
X270006913Y-202649235D01*
X270218754Y-202785172D01*
X270200832Y-202828439D01*
X270143764Y-203115337D01*
X270143764Y-203407857D01*
X270158921Y-203484054D01*
X270116170Y-203466346D01*
X269829272Y-203409278D01*
X269536752Y-203409278D01*
X269459385Y-203424667D01*
X269361584Y-203190730D01*
X268386868Y-203105454D01*
X268244080Y-202962666D01*
X268064472Y-203142274D01*
X268153111Y-203230913D01*
X268061160Y-204281916D01*
X268273002Y-204417853D01*
X268255080Y-204461120D01*
X268198012Y-204748018D01*
X268198012Y-205040538D01*
X268213168Y-205116734D01*
X268170417Y-205099026D01*
X267883519Y-205041958D01*
X267590999Y-205041958D01*
X267513631Y-205057348D01*
X267415831Y-204823411D01*
X266441115Y-204738135D01*
X266298327Y-204595347D01*
X266118719Y-204774955D01*
X266207358Y-204863594D01*
X266115407Y-205914597D01*
X266327248Y-206050534D01*
X266309327Y-206093800D01*
X266252259Y-206380698D01*
X266252259Y-206673218D01*
X266267648Y-206750585D01*
X266033711Y-206848386D01*
X265948435Y-207823102D01*
X265805647Y-207965890D01*
X265777365Y-207965890D01*
X265688726Y-207877251D01*
X265780677Y-206826248D01*
X265567689Y-206689575D01*
X265470078Y-206456091D01*
X264495362Y-206370815D01*
X264352574Y-206228027D01*
X264172966Y-206407635D01*
X264261605Y-206496274D01*
X264169654Y-207547277D01*
X263863666Y-207547277D01*
X263916620Y-207525139D01*
X264001896Y-206550423D01*
X264144684Y-206407635D01*
X263965076Y-206228027D01*
X263876437Y-206316666D01*
X262825434Y-206224715D01*
X262688761Y-206437703D01*
X262455277Y-206535314D01*
X262370001Y-207510030D01*
X262227213Y-207652818D01*
X262102537Y-207652818D01*
X262202243Y-206513176D01*
X261982669Y-206372277D01*
X261699477Y-206445554D01*
X261436021Y-206572671D01*
X261202428Y-206748744D01*
X261007672Y-206967005D01*
X260859239Y-207219068D01*
X260801189Y-207363657D01*
X256576183Y-207363657D01*
X257646677Y-205955447D01*
X257837344Y-205730976D01*
X262746942Y-205730976D01*
X262847572Y-205971681D01*
X264043377Y-206076300D01*
X264048290Y-206020137D01*
X264172966Y-206020137D01*
X264352574Y-206199745D01*
X264441213Y-206111106D01*
X265492216Y-206203057D01*
X265628888Y-205990071D01*
X265862373Y-205892459D01*
X265947649Y-204917743D01*
X266090437Y-204774955D01*
X265910829Y-204595347D01*
X265822191Y-204683986D01*
X264771187Y-204592035D01*
X264634515Y-204805021D01*
X264401030Y-204902633D01*
X264315754Y-205877349D01*
X264172966Y-206020137D01*
X264048290Y-206020137D01*
X264147996Y-204880495D01*
X263928422Y-204739596D01*
X263645230Y-204812873D01*
X263381774Y-204939990D01*
X263148181Y-205116063D01*
X262953425Y-205334324D01*
X262804992Y-205586387D01*
X262746942Y-205730976D01*
X257837344Y-205730976D01*
X259224154Y-204098296D01*
X264692695Y-204098296D01*
X264793325Y-204339001D01*
X265989130Y-204443620D01*
X265994043Y-204387457D01*
X266118719Y-204387457D01*
X266298327Y-204567065D01*
X266386966Y-204478426D01*
X267437969Y-204570377D01*
X267574642Y-204357389D01*
X267808126Y-204259778D01*
X267893402Y-203285062D01*
X268036190Y-203142274D01*
X267856582Y-202962666D01*
X267767943Y-203051305D01*
X266716940Y-202959354D01*
X266580267Y-203172342D01*
X266346783Y-203269953D01*
X266261507Y-204244669D01*
X266118719Y-204387457D01*
X265994043Y-204387457D01*
X266093749Y-203247815D01*
X265874175Y-203106916D01*
X265590983Y-203180193D01*
X265327527Y-203307310D01*
X265093934Y-203483383D01*
X264899178Y-203701644D01*
X264750745Y-203953707D01*
X264692695Y-204098296D01*
X259224154Y-204098296D01*
X259551927Y-203712413D01*
X260732957Y-202465615D01*
X266638448Y-202465615D01*
X266739078Y-202706320D01*
X267934883Y-202810939D01*
X267939796Y-202754776D01*
X268064472Y-202754776D01*
X268244080Y-202934384D01*
X268332719Y-202845745D01*
X269383722Y-202937696D01*
X269520395Y-202724708D01*
X269753879Y-202627097D01*
X269839155Y-201652381D01*
X269981943Y-201509593D01*
X269802335Y-201329985D01*
X269713696Y-201418624D01*
X268662693Y-201326673D01*
X268526020Y-201539661D01*
X268292536Y-201637272D01*
X268207260Y-202611988D01*
X268064472Y-202754776D01*
X267939796Y-202754776D01*
X268039502Y-201615134D01*
X267819928Y-201474235D01*
X267536736Y-201547512D01*
X267273280Y-201674629D01*
X267039687Y-201850702D01*
X266844931Y-202068963D01*
X266696498Y-202321026D01*
X266638448Y-202465615D01*
X260732957Y-202465615D01*
X261575818Y-201575818D01*
X262360070Y-200832934D01*
X268584201Y-200832934D01*
X268684831Y-201073639D01*
X269880636Y-201178258D01*
X269885549Y-201122095D01*
X270010225Y-201122095D01*
X270189833Y-201301703D01*
X270278472Y-201213064D01*
X271329475Y-201305015D01*
X271466147Y-201092029D01*
X271699632Y-200994417D01*
X271784908Y-200019701D01*
X271927696Y-199876913D01*
X271748088Y-199697305D01*
X271659450Y-199785944D01*
X270608446Y-199693993D01*
X270471774Y-199906979D01*
X270238289Y-200004591D01*
X270153013Y-200979307D01*
X270010225Y-201122095D01*
X269885549Y-201122095D01*
X269985255Y-199982453D01*
X269765681Y-199841554D01*
X269482489Y-199914831D01*
X269219033Y-200041948D01*
X268985440Y-200218021D01*
X268790684Y-200436282D01*
X268642251Y-200688345D01*
X268584201Y-200832934D01*
X262360070Y-200832934D01*
X263712413Y-199551927D01*
X264126434Y-199200254D01*
X270529954Y-199200254D01*
X270630584Y-199440959D01*
X271826389Y-199545578D01*
X271831302Y-199489415D01*
X271955978Y-199489415D01*
X272135586Y-199669023D01*
X272224225Y-199580384D01*
X273275228Y-199672335D01*
X273411901Y-199459347D01*
X273645385Y-199361736D01*
X273730661Y-198387020D01*
X273873449Y-198244232D01*
X273693841Y-198064624D01*
X273605202Y-198153263D01*
X272554199Y-198061312D01*
X272417526Y-198274300D01*
X272184042Y-198371911D01*
X272098766Y-199346627D01*
X271955978Y-199489415D01*
X271831302Y-199489415D01*
X271931008Y-198349773D01*
X271711434Y-198208874D01*
X271428242Y-198282151D01*
X271164786Y-198409268D01*
X270931193Y-198585341D01*
X270736437Y-198803602D01*
X270588004Y-199055665D01*
X270529954Y-199200254D01*
X264126434Y-199200254D01*
X265955447Y-197646677D01*
X266059506Y-197567573D01*
X272475707Y-197567573D01*
X272576337Y-197808278D01*
X273772142Y-197912897D01*
X273777055Y-197856734D01*
X273901731Y-197856734D01*
X274081339Y-198036342D01*
X274169978Y-197947703D01*
X275220981Y-198039654D01*
X275357653Y-197826668D01*
X275591138Y-197729056D01*
X275676414Y-196754340D01*
X275819202Y-196611552D01*
X275639594Y-196431944D01*
X275550956Y-196520583D01*
X274499952Y-196428632D01*
X274363280Y-196641618D01*
X274129795Y-196739230D01*
X274044519Y-197713946D01*
X273901731Y-197856734D01*
X273777055Y-197856734D01*
X273876761Y-196717092D01*
X273657187Y-196576193D01*
X273373995Y-196649470D01*
X273110539Y-196776587D01*
X272876946Y-196952660D01*
X272682190Y-197170921D01*
X272533757Y-197422984D01*
X272475707Y-197567573D01*
X266059506Y-197567573D01*
X268207260Y-195934893D01*
X274421460Y-195934893D01*
X274522090Y-196175598D01*
X275717895Y-196280217D01*
X275722808Y-196224054D01*
X275847484Y-196224054D01*
X276027092Y-196403662D01*
X276115731Y-196315023D01*
X277166734Y-196406974D01*
X277303407Y-196193986D01*
X277536890Y-196096375D01*
X277622166Y-195121659D01*
X277764954Y-194978871D01*
X277585346Y-194799263D01*
X277496708Y-194887902D01*
X276445704Y-194795951D01*
X276309031Y-195008939D01*
X276075548Y-195106550D01*
X275990272Y-196081266D01*
X275847484Y-196224054D01*
X275722808Y-196224054D01*
X275822514Y-195084412D01*
X275602940Y-194943513D01*
X275319748Y-195016790D01*
X275056292Y-195143907D01*
X274822699Y-195319980D01*
X274627943Y-195538241D01*
X274479510Y-195790304D01*
X274421460Y-195934893D01*
X268207260Y-195934893D01*
X268298339Y-195865657D01*
X270062280Y-194669674D01*
X277916681Y-194669674D01*
X279112486Y-194774293D01*
X279253385Y-194554719D01*
X279180108Y-194271527D01*
X279052991Y-194008071D01*
X278876918Y-193774478D01*
X278658657Y-193579722D01*
X278406594Y-193431289D01*
X278262005Y-193373239D01*
X278021300Y-193473869D01*
X277916681Y-194669674D01*
X270062280Y-194669674D01*
X270604246Y-194302212D01*
X276367212Y-194302212D01*
X276467842Y-194542917D01*
X277663647Y-194647536D01*
X277768266Y-193451731D01*
X277548692Y-193310832D01*
X277265500Y-193384109D01*
X277002044Y-193511226D01*
X276768451Y-193687299D01*
X276573695Y-193905560D01*
X276425262Y-194157623D01*
X276367212Y-194302212D01*
X270604246Y-194302212D01*
X270734217Y-194214090D01*
X273255937Y-192696822D01*
X275856102Y-191318301D01*
X278527085Y-190082573D01*
X281261052Y-188993261D01*
X284049983Y-188053561D01*
X286885699Y-187266228D01*
X287323949Y-187169762D01*
X288656610Y-192352332D01*
M02*
