G04 #@! TF.GenerationSoftware,KiCad,Pcbnew,(5.1.4)-1*
G04 #@! TF.CreationDate,2019-09-16T17:17:07+02:00*
G04 #@! TF.ProjectId,PixelFan,50697865-6c46-4616-9e2e-6b696361645f,rev?*
G04 #@! TF.SameCoordinates,Original*
G04 #@! TF.FileFunction,Soldermask,Bot*
G04 #@! TF.FilePolarity,Negative*
%FSLAX46Y46*%
G04 Gerber Fmt 4.6, Leading zero omitted, Abs format (unit mm)*
G04 Created by KiCad (PCBNEW (5.1.4)-1) date 2019-09-16 17:17:07*
%MOMM*%
%LPD*%
G04 APERTURE LIST*
%ADD10C,0.100000*%
G04 APERTURE END LIST*
D10*
G36*
X303701000Y-291851000D02*
G01*
X302049000Y-291851000D01*
X302049000Y-290449000D01*
X303701000Y-290449000D01*
X303701000Y-291851000D01*
X303701000Y-291851000D01*
G37*
G36*
X295751000Y-291851000D02*
G01*
X294099000Y-291851000D01*
X294099000Y-290449000D01*
X295751000Y-290449000D01*
X295751000Y-291851000D01*
X295751000Y-291851000D01*
G37*
G36*
X290236499Y-289938810D02*
G01*
X289873635Y-291293038D01*
X288277925Y-290865468D01*
X288640789Y-289511240D01*
X290236499Y-289938810D01*
X290236499Y-289938810D01*
G37*
G36*
X318379487Y-286748996D02*
G01*
X318616253Y-286847068D01*
X318616255Y-286847069D01*
X318829339Y-286989447D01*
X319010553Y-287170661D01*
X319131052Y-287351000D01*
X319152932Y-287383747D01*
X319251004Y-287620513D01*
X319301000Y-287871861D01*
X319301000Y-288128139D01*
X319251004Y-288379487D01*
X319152932Y-288616253D01*
X319152931Y-288616255D01*
X319010553Y-288829339D01*
X318829339Y-289010553D01*
X318616255Y-289152931D01*
X318616254Y-289152932D01*
X318616253Y-289152932D01*
X318379487Y-289251004D01*
X318128139Y-289301000D01*
X317871861Y-289301000D01*
X317620513Y-289251004D01*
X317383747Y-289152932D01*
X317383746Y-289152932D01*
X317383745Y-289152931D01*
X317170661Y-289010553D01*
X316989447Y-288829339D01*
X316847069Y-288616255D01*
X316847068Y-288616253D01*
X316748996Y-288379487D01*
X316699000Y-288128139D01*
X316699000Y-287871861D01*
X316748996Y-287620513D01*
X316847068Y-287383747D01*
X316868949Y-287351000D01*
X316989447Y-287170661D01*
X317170661Y-286989447D01*
X317383745Y-286847069D01*
X317383747Y-286847068D01*
X317620513Y-286748996D01*
X317871861Y-286699000D01*
X318128139Y-286699000D01*
X318379487Y-286748996D01*
X318379487Y-286748996D01*
G37*
G36*
X282557389Y-287881198D02*
G01*
X282194525Y-289235426D01*
X280598815Y-288807856D01*
X280961679Y-287453628D01*
X282557389Y-287881198D01*
X282557389Y-287881198D01*
G37*
G36*
X303701000Y-287351000D02*
G01*
X302049000Y-287351000D01*
X302049000Y-285949000D01*
X303701000Y-285949000D01*
X303701000Y-287351000D01*
X303701000Y-287351000D01*
G37*
G36*
X295751000Y-287351000D02*
G01*
X294099000Y-287351000D01*
X294099000Y-285949000D01*
X295751000Y-285949000D01*
X295751000Y-287351000D01*
X295751000Y-287351000D01*
G37*
G36*
X291401185Y-285592144D02*
G01*
X291038321Y-286946372D01*
X289442611Y-286518802D01*
X289805475Y-285164574D01*
X291401185Y-285592144D01*
X291401185Y-285592144D01*
G37*
G36*
X326097362Y-285635804D02*
G01*
X324464196Y-286397362D01*
X323702638Y-284764196D01*
X325335804Y-284002638D01*
X326097362Y-285635804D01*
X326097362Y-285635804D01*
G37*
G36*
X283722075Y-283534532D02*
G01*
X283359211Y-284888760D01*
X281763501Y-284461190D01*
X282126365Y-283106962D01*
X283722075Y-283534532D01*
X283722075Y-283534532D01*
G37*
G36*
X293438674Y-282453465D02*
G01*
X293476367Y-282464899D01*
X293511103Y-282483466D01*
X293541548Y-282508452D01*
X293566534Y-282538897D01*
X293585101Y-282573633D01*
X293596535Y-282611326D01*
X293601000Y-282656661D01*
X293601000Y-283743339D01*
X293596535Y-283788674D01*
X293585101Y-283826367D01*
X293566534Y-283861103D01*
X293541548Y-283891548D01*
X293511103Y-283916534D01*
X293476367Y-283935101D01*
X293438674Y-283946535D01*
X293393339Y-283951000D01*
X292556661Y-283951000D01*
X292511326Y-283946535D01*
X292473633Y-283935101D01*
X292438897Y-283916534D01*
X292408452Y-283891548D01*
X292383466Y-283861103D01*
X292364899Y-283826367D01*
X292353465Y-283788674D01*
X292349000Y-283743339D01*
X292349000Y-282656661D01*
X292353465Y-282611326D01*
X292364899Y-282573633D01*
X292383466Y-282538897D01*
X292408452Y-282508452D01*
X292438897Y-282483466D01*
X292473633Y-282464899D01*
X292511326Y-282453465D01*
X292556661Y-282449000D01*
X293393339Y-282449000D01*
X293438674Y-282453465D01*
X293438674Y-282453465D01*
G37*
G36*
X295488674Y-282453465D02*
G01*
X295526367Y-282464899D01*
X295561103Y-282483466D01*
X295591548Y-282508452D01*
X295616534Y-282538897D01*
X295635101Y-282573633D01*
X295646535Y-282611326D01*
X295651000Y-282656661D01*
X295651000Y-283743339D01*
X295646535Y-283788674D01*
X295635101Y-283826367D01*
X295616534Y-283861103D01*
X295591548Y-283891548D01*
X295561103Y-283916534D01*
X295526367Y-283935101D01*
X295488674Y-283946535D01*
X295443339Y-283951000D01*
X294606661Y-283951000D01*
X294561326Y-283946535D01*
X294523633Y-283935101D01*
X294488897Y-283916534D01*
X294458452Y-283891548D01*
X294433466Y-283861103D01*
X294414899Y-283826367D01*
X294403465Y-283788674D01*
X294399000Y-283743339D01*
X294399000Y-282656661D01*
X294403465Y-282611326D01*
X294414899Y-282573633D01*
X294433466Y-282538897D01*
X294458452Y-282508452D01*
X294488897Y-282483466D01*
X294523633Y-282464899D01*
X294561326Y-282453465D01*
X294606661Y-282449000D01*
X295443339Y-282449000D01*
X295488674Y-282453465D01*
X295488674Y-282453465D01*
G37*
G36*
X323936993Y-282003497D02*
G01*
X324003177Y-282010015D01*
X324173016Y-282061535D01*
X324329541Y-282145200D01*
X324365279Y-282174530D01*
X324466736Y-282257792D01*
X324549998Y-282359249D01*
X324579328Y-282394987D01*
X324662993Y-282551512D01*
X324714513Y-282721351D01*
X324731909Y-282897978D01*
X324714513Y-283074605D01*
X324662993Y-283244444D01*
X324579328Y-283400969D01*
X324549998Y-283436707D01*
X324466736Y-283538164D01*
X324365279Y-283621426D01*
X324329541Y-283650756D01*
X324173016Y-283734421D01*
X324003177Y-283785941D01*
X323936992Y-283792460D01*
X323870810Y-283798978D01*
X323782290Y-283798978D01*
X323716108Y-283792460D01*
X323649923Y-283785941D01*
X323480084Y-283734421D01*
X323323559Y-283650756D01*
X323287821Y-283621426D01*
X323186364Y-283538164D01*
X323103102Y-283436707D01*
X323073772Y-283400969D01*
X322990107Y-283244444D01*
X322938587Y-283074605D01*
X322921191Y-282897978D01*
X322938587Y-282721351D01*
X322990107Y-282551512D01*
X323073772Y-282394987D01*
X323103102Y-282359249D01*
X323186364Y-282257792D01*
X323287821Y-282174530D01*
X323323559Y-282145200D01*
X323480084Y-282061535D01*
X323649923Y-282010015D01*
X323716107Y-282003497D01*
X323782290Y-281996978D01*
X323870810Y-281996978D01*
X323936993Y-282003497D01*
X323936993Y-282003497D01*
G37*
G36*
X298688674Y-280503465D02*
G01*
X298726367Y-280514899D01*
X298761103Y-280533466D01*
X298791548Y-280558452D01*
X298816534Y-280588897D01*
X298835101Y-280623633D01*
X298846535Y-280661326D01*
X298851000Y-280706661D01*
X298851000Y-281543339D01*
X298846535Y-281588674D01*
X298835101Y-281626367D01*
X298816534Y-281661103D01*
X298791548Y-281691548D01*
X298761103Y-281716534D01*
X298726367Y-281735101D01*
X298688674Y-281746535D01*
X298643339Y-281751000D01*
X297556661Y-281751000D01*
X297511326Y-281746535D01*
X297473633Y-281735101D01*
X297438897Y-281716534D01*
X297408452Y-281691548D01*
X297383466Y-281661103D01*
X297364899Y-281626367D01*
X297353465Y-281588674D01*
X297349000Y-281543339D01*
X297349000Y-280706661D01*
X297353465Y-280661326D01*
X297364899Y-280623633D01*
X297383466Y-280588897D01*
X297408452Y-280558452D01*
X297438897Y-280533466D01*
X297473633Y-280514899D01*
X297511326Y-280503465D01*
X297556661Y-280499000D01*
X298643339Y-280499000D01*
X298688674Y-280503465D01*
X298688674Y-280503465D01*
G37*
G36*
X302188674Y-280503465D02*
G01*
X302226367Y-280514899D01*
X302261103Y-280533466D01*
X302291548Y-280558452D01*
X302316534Y-280588897D01*
X302335101Y-280623633D01*
X302346535Y-280661326D01*
X302351000Y-280706661D01*
X302351000Y-281543339D01*
X302346535Y-281588674D01*
X302335101Y-281626367D01*
X302316534Y-281661103D01*
X302291548Y-281691548D01*
X302261103Y-281716534D01*
X302226367Y-281735101D01*
X302188674Y-281746535D01*
X302143339Y-281751000D01*
X301056661Y-281751000D01*
X301011326Y-281746535D01*
X300973633Y-281735101D01*
X300938897Y-281716534D01*
X300908452Y-281691548D01*
X300883466Y-281661103D01*
X300864899Y-281626367D01*
X300853465Y-281588674D01*
X300849000Y-281543339D01*
X300849000Y-280706661D01*
X300853465Y-280661326D01*
X300864899Y-280623633D01*
X300883466Y-280588897D01*
X300908452Y-280558452D01*
X300938897Y-280533466D01*
X300973633Y-280514899D01*
X301011326Y-280503465D01*
X301056661Y-280499000D01*
X302143339Y-280499000D01*
X302188674Y-280503465D01*
X302188674Y-280503465D01*
G37*
G36*
X322858724Y-279701000D02*
G01*
X322929726Y-279707993D01*
X323099565Y-279759513D01*
X323256090Y-279843178D01*
X323291040Y-279871861D01*
X323393285Y-279955770D01*
X323471437Y-280051000D01*
X323505877Y-280092965D01*
X323589542Y-280249490D01*
X323641062Y-280419329D01*
X323658458Y-280595956D01*
X323641062Y-280772583D01*
X323589542Y-280942422D01*
X323505877Y-281098947D01*
X323476547Y-281134685D01*
X323393285Y-281236142D01*
X323314254Y-281301000D01*
X323256090Y-281348734D01*
X323099565Y-281432399D01*
X322929726Y-281483919D01*
X322863542Y-281490437D01*
X322797359Y-281496956D01*
X322708839Y-281496956D01*
X322642656Y-281490437D01*
X322576472Y-281483919D01*
X322406633Y-281432399D01*
X322250108Y-281348734D01*
X322191944Y-281301000D01*
X322112913Y-281236142D01*
X322029651Y-281134685D01*
X322000321Y-281098947D01*
X321916656Y-280942422D01*
X321865136Y-280772583D01*
X321847740Y-280595956D01*
X321865136Y-280419329D01*
X321916656Y-280249490D01*
X322000321Y-280092965D01*
X322034761Y-280051000D01*
X322112913Y-279955770D01*
X322215158Y-279871861D01*
X322250108Y-279843178D01*
X322406633Y-279759513D01*
X322576472Y-279707993D01*
X322647474Y-279701000D01*
X322708839Y-279694956D01*
X322797359Y-279694956D01*
X322858724Y-279701000D01*
X322858724Y-279701000D01*
G37*
G36*
X270379487Y-278748996D02*
G01*
X270616253Y-278847068D01*
X270616255Y-278847069D01*
X270771799Y-278951000D01*
X270829339Y-278989447D01*
X271010553Y-279170661D01*
X271152932Y-279383747D01*
X271251004Y-279620513D01*
X271301000Y-279871861D01*
X271301000Y-280128139D01*
X271251004Y-280379487D01*
X271164263Y-280588897D01*
X271152931Y-280616255D01*
X271010553Y-280829339D01*
X270829339Y-281010553D01*
X270616255Y-281152931D01*
X270616254Y-281152932D01*
X270616253Y-281152932D01*
X270379487Y-281251004D01*
X270128139Y-281301000D01*
X269871861Y-281301000D01*
X269620513Y-281251004D01*
X269383747Y-281152932D01*
X269383746Y-281152932D01*
X269383745Y-281152931D01*
X269170661Y-281010553D01*
X268989447Y-280829339D01*
X268847069Y-280616255D01*
X268835737Y-280588897D01*
X268748996Y-280379487D01*
X268699000Y-280128139D01*
X268699000Y-279871861D01*
X268748996Y-279620513D01*
X268847068Y-279383747D01*
X268989447Y-279170661D01*
X269170661Y-278989447D01*
X269228201Y-278951000D01*
X269383745Y-278847069D01*
X269383747Y-278847068D01*
X269620513Y-278748996D01*
X269871861Y-278699000D01*
X270128139Y-278699000D01*
X270379487Y-278748996D01*
X270379487Y-278748996D01*
G37*
G36*
X334906564Y-277989389D02*
G01*
X335097833Y-278068615D01*
X335097835Y-278068616D01*
X335269973Y-278183635D01*
X335416365Y-278330027D01*
X335518890Y-278483466D01*
X335531385Y-278502167D01*
X335610611Y-278693436D01*
X335651000Y-278896484D01*
X335651000Y-279103516D01*
X335610611Y-279306564D01*
X335559968Y-279428827D01*
X335531384Y-279497835D01*
X335416365Y-279669973D01*
X335269973Y-279816365D01*
X335097835Y-279931384D01*
X335097834Y-279931385D01*
X335097833Y-279931385D01*
X334906564Y-280010611D01*
X334703516Y-280051000D01*
X334496484Y-280051000D01*
X334293436Y-280010611D01*
X334102167Y-279931385D01*
X334102166Y-279931385D01*
X334102165Y-279931384D01*
X333930027Y-279816365D01*
X333783635Y-279669973D01*
X333668616Y-279497835D01*
X333640032Y-279428827D01*
X333589389Y-279306564D01*
X333549000Y-279103516D01*
X333549000Y-278896484D01*
X333589389Y-278693436D01*
X333668615Y-278502167D01*
X333681111Y-278483466D01*
X333783635Y-278330027D01*
X333930027Y-278183635D01*
X334102165Y-278068616D01*
X334102167Y-278068615D01*
X334293436Y-277989389D01*
X334496484Y-277949000D01*
X334703516Y-277949000D01*
X334906564Y-277989389D01*
X334906564Y-277989389D01*
G37*
G36*
X302188674Y-278453465D02*
G01*
X302226367Y-278464899D01*
X302261103Y-278483466D01*
X302291548Y-278508452D01*
X302316534Y-278538897D01*
X302335101Y-278573633D01*
X302346535Y-278611326D01*
X302351000Y-278656661D01*
X302351000Y-279493339D01*
X302346535Y-279538674D01*
X302335101Y-279576367D01*
X302316534Y-279611103D01*
X302291548Y-279641548D01*
X302261103Y-279666534D01*
X302226367Y-279685101D01*
X302188674Y-279696535D01*
X302143339Y-279701000D01*
X301056661Y-279701000D01*
X301011326Y-279696535D01*
X300973633Y-279685101D01*
X300938897Y-279666534D01*
X300908452Y-279641548D01*
X300883466Y-279611103D01*
X300864899Y-279576367D01*
X300853465Y-279538674D01*
X300849000Y-279493339D01*
X300849000Y-278656661D01*
X300853465Y-278611326D01*
X300864899Y-278573633D01*
X300883466Y-278538897D01*
X300908452Y-278508452D01*
X300938897Y-278483466D01*
X300973633Y-278464899D01*
X301011326Y-278453465D01*
X301056661Y-278449000D01*
X302143339Y-278449000D01*
X302188674Y-278453465D01*
X302188674Y-278453465D01*
G37*
G36*
X298688674Y-278453465D02*
G01*
X298726367Y-278464899D01*
X298761103Y-278483466D01*
X298791548Y-278508452D01*
X298816534Y-278538897D01*
X298835101Y-278573633D01*
X298846535Y-278611326D01*
X298851000Y-278656661D01*
X298851000Y-279493339D01*
X298846535Y-279538674D01*
X298835101Y-279576367D01*
X298816534Y-279611103D01*
X298791548Y-279641548D01*
X298761103Y-279666534D01*
X298726367Y-279685101D01*
X298688674Y-279696535D01*
X298643339Y-279701000D01*
X297556661Y-279701000D01*
X297511326Y-279696535D01*
X297473633Y-279685101D01*
X297438897Y-279666534D01*
X297408452Y-279641548D01*
X297383466Y-279611103D01*
X297364899Y-279576367D01*
X297353465Y-279538674D01*
X297349000Y-279493339D01*
X297349000Y-278656661D01*
X297353465Y-278611326D01*
X297364899Y-278573633D01*
X297383466Y-278538897D01*
X297408452Y-278508452D01*
X297438897Y-278483466D01*
X297473633Y-278464899D01*
X297511326Y-278453465D01*
X297556661Y-278449000D01*
X298643339Y-278449000D01*
X298688674Y-278453465D01*
X298688674Y-278453465D01*
G37*
G36*
X321790092Y-277399454D02*
G01*
X321856276Y-277405972D01*
X322026115Y-277457492D01*
X322026117Y-277457493D01*
X322048988Y-277469718D01*
X322182640Y-277541157D01*
X322217739Y-277569962D01*
X322319835Y-277653749D01*
X322403097Y-277755206D01*
X322432427Y-277790944D01*
X322516092Y-277947469D01*
X322567612Y-278117308D01*
X322585008Y-278293935D01*
X322567612Y-278470562D01*
X322516092Y-278640401D01*
X322432427Y-278796926D01*
X322408265Y-278826367D01*
X322319835Y-278934121D01*
X322218378Y-279017383D01*
X322182640Y-279046713D01*
X322026115Y-279130378D01*
X321856276Y-279181898D01*
X321790092Y-279188416D01*
X321723909Y-279194935D01*
X321635389Y-279194935D01*
X321569206Y-279188416D01*
X321503022Y-279181898D01*
X321333183Y-279130378D01*
X321176658Y-279046713D01*
X321140920Y-279017383D01*
X321039463Y-278934121D01*
X320951033Y-278826367D01*
X320926871Y-278796926D01*
X320843206Y-278640401D01*
X320791686Y-278470562D01*
X320774290Y-278293935D01*
X320791686Y-278117308D01*
X320843206Y-277947469D01*
X320926871Y-277790944D01*
X320956201Y-277755206D01*
X321039463Y-277653749D01*
X321141559Y-277569962D01*
X321176658Y-277541157D01*
X321310310Y-277469718D01*
X321333181Y-277457493D01*
X321333183Y-277457492D01*
X321503022Y-277405972D01*
X321569206Y-277399454D01*
X321635389Y-277392935D01*
X321723909Y-277392935D01*
X321790092Y-277399454D01*
X321790092Y-277399454D01*
G37*
G36*
X290538674Y-277453465D02*
G01*
X290576367Y-277464899D01*
X290611103Y-277483466D01*
X290641548Y-277508452D01*
X290666534Y-277538897D01*
X290685101Y-277573633D01*
X290696535Y-277611326D01*
X290701000Y-277656661D01*
X290701000Y-278743339D01*
X290696535Y-278788674D01*
X290685101Y-278826367D01*
X290666534Y-278861103D01*
X290641548Y-278891548D01*
X290611103Y-278916534D01*
X290576367Y-278935101D01*
X290538674Y-278946535D01*
X290493339Y-278951000D01*
X289656661Y-278951000D01*
X289611326Y-278946535D01*
X289573633Y-278935101D01*
X289538897Y-278916534D01*
X289508452Y-278891548D01*
X289483466Y-278861103D01*
X289464899Y-278826367D01*
X289453465Y-278788674D01*
X289449000Y-278743339D01*
X289449000Y-277656661D01*
X289453465Y-277611326D01*
X289464899Y-277573633D01*
X289483466Y-277538897D01*
X289508452Y-277508452D01*
X289538897Y-277483466D01*
X289573633Y-277464899D01*
X289611326Y-277453465D01*
X289656661Y-277449000D01*
X290493339Y-277449000D01*
X290538674Y-277453465D01*
X290538674Y-277453465D01*
G37*
G36*
X288488674Y-277453465D02*
G01*
X288526367Y-277464899D01*
X288561103Y-277483466D01*
X288591548Y-277508452D01*
X288616534Y-277538897D01*
X288635101Y-277573633D01*
X288646535Y-277611326D01*
X288651000Y-277656661D01*
X288651000Y-278743339D01*
X288646535Y-278788674D01*
X288635101Y-278826367D01*
X288616534Y-278861103D01*
X288591548Y-278891548D01*
X288561103Y-278916534D01*
X288526367Y-278935101D01*
X288488674Y-278946535D01*
X288443339Y-278951000D01*
X287606661Y-278951000D01*
X287561326Y-278946535D01*
X287523633Y-278935101D01*
X287488897Y-278916534D01*
X287458452Y-278891548D01*
X287433466Y-278861103D01*
X287414899Y-278826367D01*
X287403465Y-278788674D01*
X287399000Y-278743339D01*
X287399000Y-277656661D01*
X287403465Y-277611326D01*
X287414899Y-277573633D01*
X287433466Y-277538897D01*
X287458452Y-277508452D01*
X287488897Y-277483466D01*
X287523633Y-277464899D01*
X287561326Y-277453465D01*
X287606661Y-277449000D01*
X288443339Y-277449000D01*
X288488674Y-277453465D01*
X288488674Y-277453465D01*
G37*
G36*
X320716640Y-275097431D02*
G01*
X320782825Y-275103950D01*
X320952664Y-275155470D01*
X321109189Y-275239135D01*
X321144927Y-275268465D01*
X321246384Y-275351727D01*
X321329646Y-275453184D01*
X321358976Y-275488922D01*
X321442641Y-275645447D01*
X321494161Y-275815286D01*
X321511557Y-275991913D01*
X321494161Y-276168540D01*
X321442641Y-276338379D01*
X321358976Y-276494904D01*
X321329646Y-276530642D01*
X321246384Y-276632099D01*
X321144927Y-276715361D01*
X321109189Y-276744691D01*
X320952664Y-276828356D01*
X320782825Y-276879876D01*
X320716641Y-276886394D01*
X320650458Y-276892913D01*
X320561938Y-276892913D01*
X320495755Y-276886394D01*
X320429571Y-276879876D01*
X320259732Y-276828356D01*
X320103207Y-276744691D01*
X320067469Y-276715361D01*
X319966012Y-276632099D01*
X319882750Y-276530642D01*
X319853420Y-276494904D01*
X319769755Y-276338379D01*
X319718235Y-276168540D01*
X319700839Y-275991913D01*
X319718235Y-275815286D01*
X319769755Y-275645447D01*
X319853420Y-275488922D01*
X319882750Y-275453184D01*
X319966012Y-275351727D01*
X320067469Y-275268465D01*
X320103207Y-275239135D01*
X320259732Y-275155470D01*
X320429571Y-275103950D01*
X320495756Y-275097431D01*
X320561938Y-275090913D01*
X320650458Y-275090913D01*
X320716640Y-275097431D01*
X320716640Y-275097431D01*
G37*
G36*
X261694892Y-271158597D02*
G01*
X262004454Y-271286822D01*
X262004455Y-271286823D01*
X262283054Y-271472976D01*
X262519983Y-271709905D01*
X262644367Y-271896059D01*
X262706137Y-271988505D01*
X262834362Y-272298067D01*
X262899730Y-272626694D01*
X262899730Y-272961764D01*
X262834362Y-273290391D01*
X262706137Y-273599953D01*
X262644367Y-273692399D01*
X262519983Y-273878553D01*
X262283054Y-274115482D01*
X262096900Y-274239866D01*
X262004454Y-274301636D01*
X261694892Y-274429861D01*
X261366265Y-274495229D01*
X261031195Y-274495229D01*
X260702568Y-274429861D01*
X260393006Y-274301636D01*
X260300560Y-274239866D01*
X260114406Y-274115482D01*
X259877477Y-273878553D01*
X259753093Y-273692399D01*
X259691323Y-273599953D01*
X259563098Y-273290391D01*
X259497730Y-272961764D01*
X259497730Y-272626694D01*
X259563098Y-272298067D01*
X259691323Y-271988505D01*
X259753093Y-271896059D01*
X259877477Y-271709905D01*
X260114406Y-271472976D01*
X260393005Y-271286823D01*
X260393006Y-271286822D01*
X260702568Y-271158597D01*
X261031195Y-271093229D01*
X261366265Y-271093229D01*
X261694892Y-271158597D01*
X261694892Y-271158597D01*
G37*
G36*
X339297432Y-271158597D02*
G01*
X339606994Y-271286822D01*
X339606995Y-271286823D01*
X339885594Y-271472976D01*
X340122523Y-271709905D01*
X340246907Y-271896059D01*
X340308677Y-271988505D01*
X340436902Y-272298067D01*
X340502270Y-272626694D01*
X340502270Y-272961764D01*
X340436902Y-273290391D01*
X340308677Y-273599953D01*
X340246907Y-273692399D01*
X340122523Y-273878553D01*
X339885594Y-274115482D01*
X339699440Y-274239866D01*
X339606994Y-274301636D01*
X339297432Y-274429861D01*
X338968805Y-274495229D01*
X338633735Y-274495229D01*
X338305108Y-274429861D01*
X337995546Y-274301636D01*
X337903100Y-274239866D01*
X337716946Y-274115482D01*
X337480017Y-273878553D01*
X337355633Y-273692399D01*
X337293863Y-273599953D01*
X337165638Y-273290391D01*
X337100270Y-272961764D01*
X337100270Y-272626694D01*
X337165638Y-272298067D01*
X337293863Y-271988505D01*
X337355633Y-271896059D01*
X337480017Y-271709905D01*
X337716946Y-271472976D01*
X337995545Y-271286823D01*
X337995546Y-271286822D01*
X338305108Y-271158597D01*
X338633735Y-271093229D01*
X338968805Y-271093229D01*
X339297432Y-271158597D01*
X339297432Y-271158597D01*
G37*
G36*
X323704574Y-271604069D02*
G01*
X323807509Y-271614207D01*
X324005623Y-271674305D01*
X324005626Y-271674306D01*
X324102452Y-271726061D01*
X324188206Y-271771897D01*
X324348242Y-271903235D01*
X324479580Y-272063271D01*
X324525416Y-272149025D01*
X324577171Y-272245851D01*
X324577172Y-272245854D01*
X324637270Y-272443968D01*
X324657562Y-272650000D01*
X324637270Y-272856032D01*
X324605196Y-272961763D01*
X324577171Y-273054149D01*
X324525416Y-273150975D01*
X324479580Y-273236729D01*
X324348242Y-273396765D01*
X324188206Y-273528103D01*
X324102452Y-273573939D01*
X324005626Y-273625694D01*
X324005623Y-273625695D01*
X323807509Y-273685793D01*
X323704574Y-273695931D01*
X323653108Y-273701000D01*
X323549846Y-273701000D01*
X323498380Y-273695931D01*
X323395445Y-273685793D01*
X323197331Y-273625695D01*
X323197328Y-273625694D01*
X323100502Y-273573939D01*
X323014748Y-273528103D01*
X322854712Y-273396765D01*
X322723374Y-273236729D01*
X322677538Y-273150975D01*
X322625783Y-273054149D01*
X322597758Y-272961763D01*
X322565684Y-272856032D01*
X322545392Y-272650000D01*
X322565684Y-272443968D01*
X322625782Y-272245854D01*
X322625783Y-272245851D01*
X322677538Y-272149025D01*
X322723374Y-272063271D01*
X322854712Y-271903235D01*
X323014748Y-271771897D01*
X323100502Y-271726061D01*
X323197328Y-271674306D01*
X323197331Y-271674305D01*
X323395445Y-271614207D01*
X323498380Y-271604069D01*
X323549846Y-271599000D01*
X323653108Y-271599000D01*
X323704574Y-271604069D01*
X323704574Y-271604069D01*
G37*
G36*
X264786498Y-267706830D02*
G01*
X264977767Y-267786056D01*
X264977769Y-267786057D01*
X265149907Y-267901076D01*
X265296299Y-268047468D01*
X265393935Y-268193590D01*
X265411319Y-268219608D01*
X265490545Y-268410877D01*
X265530934Y-268613925D01*
X265530934Y-268820957D01*
X265490545Y-269024005D01*
X265411319Y-269215274D01*
X265411318Y-269215276D01*
X265296299Y-269387414D01*
X265149907Y-269533806D01*
X264977769Y-269648825D01*
X264977768Y-269648826D01*
X264977767Y-269648826D01*
X264786498Y-269728052D01*
X264583450Y-269768441D01*
X264376418Y-269768441D01*
X264173370Y-269728052D01*
X263982101Y-269648826D01*
X263982100Y-269648826D01*
X263982099Y-269648825D01*
X263809961Y-269533806D01*
X263663569Y-269387414D01*
X263548550Y-269215276D01*
X263548549Y-269215274D01*
X263469323Y-269024005D01*
X263428934Y-268820957D01*
X263428934Y-268613925D01*
X263469323Y-268410877D01*
X263548549Y-268219608D01*
X263565934Y-268193590D01*
X263663569Y-268047468D01*
X263809961Y-267901076D01*
X263982099Y-267786057D01*
X263982101Y-267786056D01*
X264173370Y-267706830D01*
X264376418Y-267666441D01*
X264583450Y-267666441D01*
X264786498Y-267706830D01*
X264786498Y-267706830D01*
G37*
G36*
X335961630Y-267473003D02*
G01*
X336149823Y-267550955D01*
X336152901Y-267552230D01*
X336325039Y-267667249D01*
X336471431Y-267813641D01*
X336559387Y-267945276D01*
X336586451Y-267985781D01*
X336665677Y-268177050D01*
X336706066Y-268380098D01*
X336706066Y-268587130D01*
X336665677Y-268790178D01*
X336627705Y-268881851D01*
X336586450Y-268981449D01*
X336471431Y-269153587D01*
X336325039Y-269299979D01*
X336152901Y-269414998D01*
X336152900Y-269414999D01*
X336152899Y-269414999D01*
X335961630Y-269494225D01*
X335758582Y-269534614D01*
X335551550Y-269534614D01*
X335348502Y-269494225D01*
X335157233Y-269414999D01*
X335157232Y-269414999D01*
X335157231Y-269414998D01*
X334985093Y-269299979D01*
X334838701Y-269153587D01*
X334723682Y-268981449D01*
X334682427Y-268881851D01*
X334644455Y-268790178D01*
X334604066Y-268587130D01*
X334604066Y-268380098D01*
X334644455Y-268177050D01*
X334723681Y-267985781D01*
X334750746Y-267945276D01*
X334838701Y-267813641D01*
X334985093Y-267667249D01*
X335157231Y-267552230D01*
X335160309Y-267550955D01*
X335348502Y-267473003D01*
X335551550Y-267432614D01*
X335758582Y-267432614D01*
X335961630Y-267473003D01*
X335961630Y-267473003D01*
G37*
G36*
X344421337Y-267107251D02*
G01*
X344459698Y-267116196D01*
X344501192Y-267134997D01*
X344557057Y-267167251D01*
X344557060Y-267167252D01*
X345168346Y-267520178D01*
X345225776Y-267553335D01*
X345262808Y-267579872D01*
X345289729Y-267608616D01*
X345310530Y-267642066D01*
X345324404Y-267678927D01*
X345330819Y-267717787D01*
X345329531Y-267757151D01*
X345320586Y-267795512D01*
X345301785Y-267837006D01*
X345269531Y-267892871D01*
X345269530Y-267892874D01*
X344943225Y-268458051D01*
X344758447Y-268778096D01*
X344731910Y-268815128D01*
X344703166Y-268842049D01*
X344669716Y-268862850D01*
X344632855Y-268876724D01*
X344593995Y-268883139D01*
X344554631Y-268881851D01*
X344516270Y-268872906D01*
X344474776Y-268854105D01*
X344418911Y-268821851D01*
X344418908Y-268821850D01*
X343806061Y-268468023D01*
X343806060Y-268468023D01*
X343750192Y-268435767D01*
X343713160Y-268409230D01*
X343686239Y-268380486D01*
X343665438Y-268347036D01*
X343651564Y-268310175D01*
X343645149Y-268271315D01*
X343646437Y-268231951D01*
X343655382Y-268193590D01*
X343674183Y-268152096D01*
X343793592Y-267945274D01*
X344185265Y-267266875D01*
X344217521Y-267211006D01*
X344244058Y-267173974D01*
X344272802Y-267147053D01*
X344306252Y-267126252D01*
X344343113Y-267112378D01*
X344381973Y-267105963D01*
X344421337Y-267107251D01*
X344421337Y-267107251D01*
G37*
G36*
X266986203Y-266436830D02*
G01*
X267177472Y-266516056D01*
X267177474Y-266516057D01*
X267349612Y-266631076D01*
X267496004Y-266777468D01*
X267529662Y-266827840D01*
X267611024Y-266949608D01*
X267690250Y-267140877D01*
X267730639Y-267343925D01*
X267730639Y-267550957D01*
X267690250Y-267754005D01*
X267629331Y-267901076D01*
X267611023Y-267945276D01*
X267496004Y-268117414D01*
X267349612Y-268263806D01*
X267177474Y-268378825D01*
X267177473Y-268378826D01*
X267177472Y-268378826D01*
X266986203Y-268458052D01*
X266783155Y-268498441D01*
X266576123Y-268498441D01*
X266373075Y-268458052D01*
X266181806Y-268378826D01*
X266181805Y-268378826D01*
X266181804Y-268378825D01*
X266009666Y-268263806D01*
X265863274Y-268117414D01*
X265748255Y-267945276D01*
X265729947Y-267901076D01*
X265669028Y-267754005D01*
X265628639Y-267550957D01*
X265628639Y-267343925D01*
X265669028Y-267140877D01*
X265748254Y-266949608D01*
X265829617Y-266827840D01*
X265863274Y-266777468D01*
X266009666Y-266631076D01*
X266181804Y-266516057D01*
X266181806Y-266516056D01*
X266373075Y-266436830D01*
X266576123Y-266396441D01*
X266783155Y-266396441D01*
X266986203Y-266436830D01*
X266986203Y-266436830D01*
G37*
G36*
X333761925Y-266203003D02*
G01*
X333950118Y-266280955D01*
X333953196Y-266282230D01*
X334125334Y-266397249D01*
X334271726Y-266543641D01*
X334385548Y-266713987D01*
X334386746Y-266715781D01*
X334465972Y-266907050D01*
X334506361Y-267110098D01*
X334506361Y-267317130D01*
X334465972Y-267520178D01*
X334415484Y-267642066D01*
X334386745Y-267711449D01*
X334271726Y-267883587D01*
X334125334Y-268029979D01*
X333953196Y-268144998D01*
X333953195Y-268144999D01*
X333953194Y-268144999D01*
X333761925Y-268224225D01*
X333558877Y-268264614D01*
X333351845Y-268264614D01*
X333148797Y-268224225D01*
X332957528Y-268144999D01*
X332957527Y-268144999D01*
X332957526Y-268144998D01*
X332785388Y-268029979D01*
X332638996Y-267883587D01*
X332523977Y-267711449D01*
X332495238Y-267642066D01*
X332444750Y-267520178D01*
X332404361Y-267317130D01*
X332404361Y-267110098D01*
X332444750Y-266907050D01*
X332523976Y-266715781D01*
X332525175Y-266713987D01*
X332638996Y-266543641D01*
X332785388Y-266397249D01*
X332957526Y-266282230D01*
X332960604Y-266280955D01*
X333148797Y-266203003D01*
X333351845Y-266162614D01*
X333558877Y-266162614D01*
X333761925Y-266203003D01*
X333761925Y-266203003D01*
G37*
G36*
X342645985Y-266082251D02*
G01*
X342684346Y-266091196D01*
X342725840Y-266109997D01*
X342781705Y-266142251D01*
X342781708Y-266142252D01*
X343291934Y-266436831D01*
X343450424Y-266528335D01*
X343487456Y-266554872D01*
X343514377Y-266583616D01*
X343535178Y-266617066D01*
X343549052Y-266653927D01*
X343555467Y-266692787D01*
X343554179Y-266732151D01*
X343545234Y-266770512D01*
X343526433Y-266812006D01*
X343494179Y-266867871D01*
X343494178Y-266867874D01*
X343021634Y-267686344D01*
X342983095Y-267753096D01*
X342956558Y-267790128D01*
X342927814Y-267817049D01*
X342894364Y-267837850D01*
X342857503Y-267851724D01*
X342818643Y-267858139D01*
X342779279Y-267856851D01*
X342740918Y-267847906D01*
X342699424Y-267829105D01*
X342643559Y-267796851D01*
X342643556Y-267796850D01*
X342030709Y-267443023D01*
X342030708Y-267443023D01*
X341974840Y-267410767D01*
X341937808Y-267384230D01*
X341910887Y-267355486D01*
X341890086Y-267322036D01*
X341876212Y-267285175D01*
X341869797Y-267246315D01*
X341871085Y-267206951D01*
X341880030Y-267168590D01*
X341898831Y-267127096D01*
X341998639Y-266954224D01*
X342409913Y-266241875D01*
X342442169Y-266186006D01*
X342468706Y-266148974D01*
X342497450Y-266122053D01*
X342530900Y-266101252D01*
X342567761Y-266087378D01*
X342606621Y-266080963D01*
X342645985Y-266082251D01*
X342645985Y-266082251D01*
G37*
G36*
X269185907Y-265166830D02*
G01*
X269363101Y-265240226D01*
X269377178Y-265246057D01*
X269549316Y-265361076D01*
X269695708Y-265507468D01*
X269752255Y-265592096D01*
X269810728Y-265679608D01*
X269889954Y-265870877D01*
X269930343Y-266073925D01*
X269930343Y-266280957D01*
X269889954Y-266484005D01*
X269834838Y-266617066D01*
X269810727Y-266675276D01*
X269695708Y-266847414D01*
X269549316Y-266993806D01*
X269377178Y-267108825D01*
X269377177Y-267108826D01*
X269377176Y-267108826D01*
X269185907Y-267188052D01*
X268982859Y-267228441D01*
X268775827Y-267228441D01*
X268572779Y-267188052D01*
X268381510Y-267108826D01*
X268381509Y-267108826D01*
X268381508Y-267108825D01*
X268209370Y-266993806D01*
X268062978Y-266847414D01*
X267947959Y-266675276D01*
X267923848Y-266617066D01*
X267868732Y-266484005D01*
X267828343Y-266280957D01*
X267828343Y-266073925D01*
X267868732Y-265870877D01*
X267947958Y-265679608D01*
X268006432Y-265592096D01*
X268062978Y-265507468D01*
X268209370Y-265361076D01*
X268381508Y-265246057D01*
X268395585Y-265240226D01*
X268572779Y-265166830D01*
X268775827Y-265126441D01*
X268982859Y-265126441D01*
X269185907Y-265166830D01*
X269185907Y-265166830D01*
G37*
G36*
X331562221Y-264933003D02*
G01*
X331750414Y-265010955D01*
X331753492Y-265012230D01*
X331925630Y-265127249D01*
X332072022Y-265273641D01*
X332168955Y-265418711D01*
X332187042Y-265445781D01*
X332266268Y-265637050D01*
X332306657Y-265840098D01*
X332306657Y-266047130D01*
X332266268Y-266250178D01*
X332205684Y-266396441D01*
X332187041Y-266441449D01*
X332072022Y-266613587D01*
X331925630Y-266759979D01*
X331753492Y-266874998D01*
X331753491Y-266874999D01*
X331753490Y-266874999D01*
X331562221Y-266954225D01*
X331359173Y-266994614D01*
X331152141Y-266994614D01*
X330949093Y-266954225D01*
X330757824Y-266874999D01*
X330757823Y-266874999D01*
X330757822Y-266874998D01*
X330585684Y-266759979D01*
X330439292Y-266613587D01*
X330324273Y-266441449D01*
X330305630Y-266396441D01*
X330245046Y-266250178D01*
X330204657Y-266047130D01*
X330204657Y-265840098D01*
X330245046Y-265637050D01*
X330324272Y-265445781D01*
X330342360Y-265418711D01*
X330439292Y-265273641D01*
X330585684Y-265127249D01*
X330757822Y-265012230D01*
X330760900Y-265010955D01*
X330949093Y-264933003D01*
X331152141Y-264892614D01*
X331359173Y-264892614D01*
X331562221Y-264933003D01*
X331562221Y-264933003D01*
G37*
G36*
X340834360Y-264844745D02*
G01*
X341566182Y-265267262D01*
X341303681Y-265721927D01*
X341267833Y-265784017D01*
X341252682Y-265810259D01*
X340978681Y-266284844D01*
X340939026Y-266353527D01*
X340927682Y-266373175D01*
X340927682Y-266373176D01*
X340665182Y-266827840D01*
X340665181Y-266827840D01*
X339877680Y-266373176D01*
X339277808Y-266026840D01*
X339541584Y-265569967D01*
X339871662Y-264998255D01*
X340178808Y-264466262D01*
X340178809Y-264466262D01*
X340834360Y-264844745D01*
X340834360Y-264844745D01*
G37*
G36*
X258870988Y-264679365D02*
G01*
X258907849Y-264693239D01*
X258941299Y-264714040D01*
X258970043Y-264740961D01*
X258996580Y-264777993D01*
X259028836Y-264833862D01*
X259492557Y-265637050D01*
X259539918Y-265719083D01*
X259558719Y-265760577D01*
X259567664Y-265798938D01*
X259568952Y-265838302D01*
X259562537Y-265877162D01*
X259548663Y-265914023D01*
X259527862Y-265947473D01*
X259500941Y-265976217D01*
X259463909Y-266002754D01*
X259408041Y-266035010D01*
X259408040Y-266035010D01*
X258795193Y-266388837D01*
X258795190Y-266388838D01*
X258739325Y-266421092D01*
X258697831Y-266439893D01*
X258659470Y-266448838D01*
X258620106Y-266450126D01*
X258581246Y-266443711D01*
X258544385Y-266429837D01*
X258510935Y-266409036D01*
X258482191Y-266382115D01*
X258455654Y-266345083D01*
X258363811Y-266186006D01*
X257944571Y-265459861D01*
X257944570Y-265459858D01*
X257912316Y-265403993D01*
X257893515Y-265362499D01*
X257884570Y-265324138D01*
X257883282Y-265284774D01*
X257889697Y-265245914D01*
X257903571Y-265209053D01*
X257924372Y-265175603D01*
X257951293Y-265146859D01*
X257988325Y-265120322D01*
X258083905Y-265065139D01*
X258657041Y-264734239D01*
X258657044Y-264734238D01*
X258712909Y-264701984D01*
X258754403Y-264683183D01*
X258792764Y-264674238D01*
X258832128Y-264672950D01*
X258870988Y-264679365D01*
X258870988Y-264679365D01*
G37*
G36*
X271385612Y-263896830D02*
G01*
X271576881Y-263976056D01*
X271576883Y-263976057D01*
X271749021Y-264091076D01*
X271895413Y-264237468D01*
X271990435Y-264379678D01*
X272010433Y-264409608D01*
X272089659Y-264600877D01*
X272130048Y-264803925D01*
X272130048Y-265010957D01*
X272089659Y-265214005D01*
X272010680Y-265404678D01*
X272010432Y-265405276D01*
X271895413Y-265577414D01*
X271749021Y-265723806D01*
X271576883Y-265838825D01*
X271576882Y-265838826D01*
X271576881Y-265838826D01*
X271385612Y-265918052D01*
X271182564Y-265958441D01*
X270975532Y-265958441D01*
X270772484Y-265918052D01*
X270581215Y-265838826D01*
X270581214Y-265838826D01*
X270581213Y-265838825D01*
X270409075Y-265723806D01*
X270262683Y-265577414D01*
X270147664Y-265405276D01*
X270147416Y-265404678D01*
X270068437Y-265214005D01*
X270028048Y-265010957D01*
X270028048Y-264803925D01*
X270068437Y-264600877D01*
X270147663Y-264409608D01*
X270167662Y-264379678D01*
X270262683Y-264237468D01*
X270409075Y-264091076D01*
X270581213Y-263976057D01*
X270581215Y-263976056D01*
X270772484Y-263896830D01*
X270975532Y-263856441D01*
X271182564Y-263856441D01*
X271385612Y-263896830D01*
X271385612Y-263896830D01*
G37*
G36*
X346171337Y-264076162D02*
G01*
X346209698Y-264085107D01*
X346251192Y-264103908D01*
X346307057Y-264136162D01*
X346307060Y-264136163D01*
X346878809Y-264466262D01*
X346975776Y-264522246D01*
X347012808Y-264548783D01*
X347039729Y-264577527D01*
X347060530Y-264610977D01*
X347074404Y-264647838D01*
X347080819Y-264686698D01*
X347079531Y-264726062D01*
X347070586Y-264764423D01*
X347051785Y-264805917D01*
X347019531Y-264861782D01*
X347019530Y-264861785D01*
X346597885Y-265592096D01*
X346508447Y-265747007D01*
X346481910Y-265784039D01*
X346453166Y-265810960D01*
X346419716Y-265831761D01*
X346382855Y-265845635D01*
X346343995Y-265852050D01*
X346304631Y-265850762D01*
X346266270Y-265841817D01*
X346224776Y-265823016D01*
X346168911Y-265790762D01*
X346168908Y-265790761D01*
X345556061Y-265436934D01*
X345556060Y-265436934D01*
X345500192Y-265404678D01*
X345463160Y-265378141D01*
X345436239Y-265349397D01*
X345415438Y-265315947D01*
X345401564Y-265279086D01*
X345395149Y-265240226D01*
X345396437Y-265200862D01*
X345405382Y-265162501D01*
X345424183Y-265121007D01*
X345495054Y-264998255D01*
X345935265Y-264235786D01*
X345967521Y-264179917D01*
X345994058Y-264142885D01*
X346022802Y-264115964D01*
X346056252Y-264095163D01*
X346093113Y-264081289D01*
X346131973Y-264074874D01*
X346171337Y-264076162D01*
X346171337Y-264076162D01*
G37*
G36*
X329362516Y-263663003D02*
G01*
X329553785Y-263742229D01*
X329553787Y-263742230D01*
X329725925Y-263857249D01*
X329872317Y-264003641D01*
X329942698Y-264108973D01*
X329987337Y-264175781D01*
X330066563Y-264367050D01*
X330106952Y-264570098D01*
X330106952Y-264777130D01*
X330066563Y-264980178D01*
X329989718Y-265165699D01*
X329987336Y-265171449D01*
X329872317Y-265343587D01*
X329725925Y-265489979D01*
X329553787Y-265604998D01*
X329553786Y-265604999D01*
X329553785Y-265604999D01*
X329362516Y-265684225D01*
X329159468Y-265724614D01*
X328952436Y-265724614D01*
X328749388Y-265684225D01*
X328558119Y-265604999D01*
X328558118Y-265604999D01*
X328558117Y-265604998D01*
X328385979Y-265489979D01*
X328239587Y-265343587D01*
X328124568Y-265171449D01*
X328122186Y-265165699D01*
X328045341Y-264980178D01*
X328004952Y-264777130D01*
X328004952Y-264570098D01*
X328045341Y-264367050D01*
X328124567Y-264175781D01*
X328169207Y-264108973D01*
X328239587Y-264003641D01*
X328385979Y-263857249D01*
X328558117Y-263742230D01*
X328558119Y-263742229D01*
X328749388Y-263663003D01*
X328952436Y-263622614D01*
X329159468Y-263622614D01*
X329362516Y-263663003D01*
X329362516Y-263663003D01*
G37*
G36*
X264993735Y-263425370D02*
G01*
X265174110Y-263737789D01*
X265752029Y-264738775D01*
X265761610Y-264755370D01*
X264374238Y-265556370D01*
X264060738Y-265013373D01*
X263473238Y-263995792D01*
X264860610Y-263194792D01*
X264993735Y-263425370D01*
X264993735Y-263425370D01*
G37*
G36*
X338612553Y-265063096D02*
G01*
X338361553Y-265497840D01*
X336974181Y-264696840D01*
X337225181Y-264262096D01*
X338612553Y-265063096D01*
X338612553Y-265063096D01*
G37*
G36*
X260646340Y-263654365D02*
G01*
X260683201Y-263668239D01*
X260716651Y-263689040D01*
X260745395Y-263715961D01*
X260771932Y-263752993D01*
X260804188Y-263808862D01*
X261247977Y-264577527D01*
X261315270Y-264694083D01*
X261334071Y-264735577D01*
X261343016Y-264773938D01*
X261344304Y-264813302D01*
X261337889Y-264852162D01*
X261324015Y-264889023D01*
X261303214Y-264922473D01*
X261276293Y-264951217D01*
X261239261Y-264977754D01*
X261183393Y-265010010D01*
X261183392Y-265010010D01*
X260570545Y-265363837D01*
X260570542Y-265363838D01*
X260514677Y-265396092D01*
X260473183Y-265414893D01*
X260434822Y-265423838D01*
X260395458Y-265425126D01*
X260356598Y-265418711D01*
X260319737Y-265404837D01*
X260286287Y-265384036D01*
X260257543Y-265357115D01*
X260231006Y-265320083D01*
X260188267Y-265246057D01*
X259719923Y-264434861D01*
X259719922Y-264434858D01*
X259687668Y-264378993D01*
X259668867Y-264337499D01*
X259659922Y-264299138D01*
X259658634Y-264259774D01*
X259665049Y-264220914D01*
X259678923Y-264184053D01*
X259699724Y-264150603D01*
X259726645Y-264121859D01*
X259763677Y-264095322D01*
X260107476Y-263896830D01*
X260432393Y-263709239D01*
X260432396Y-263709238D01*
X260488261Y-263676984D01*
X260529755Y-263658183D01*
X260568116Y-263649238D01*
X260607480Y-263647950D01*
X260646340Y-263654365D01*
X260646340Y-263654365D01*
G37*
G36*
X344395985Y-263051162D02*
G01*
X344434346Y-263060107D01*
X344475840Y-263078908D01*
X344531705Y-263111162D01*
X344531708Y-263111163D01*
X344966183Y-263362007D01*
X345200424Y-263497246D01*
X345237456Y-263523783D01*
X345264377Y-263552527D01*
X345285178Y-263585977D01*
X345299052Y-263622838D01*
X345305467Y-263661698D01*
X345304179Y-263701062D01*
X345295234Y-263739423D01*
X345276433Y-263780917D01*
X345244179Y-263836782D01*
X345244178Y-263836785D01*
X344771634Y-264655255D01*
X344733095Y-264722007D01*
X344706558Y-264759039D01*
X344677814Y-264785960D01*
X344644364Y-264806761D01*
X344607503Y-264820635D01*
X344568643Y-264827050D01*
X344529279Y-264825762D01*
X344490918Y-264816817D01*
X344449424Y-264798016D01*
X344393559Y-264765762D01*
X344393556Y-264765761D01*
X343780709Y-264411934D01*
X343780708Y-264411934D01*
X343724840Y-264379678D01*
X343687808Y-264353141D01*
X343660887Y-264324397D01*
X343640086Y-264290947D01*
X343626212Y-264254086D01*
X343619797Y-264215226D01*
X343621085Y-264175862D01*
X343630030Y-264137501D01*
X343648831Y-264096007D01*
X343718085Y-263976056D01*
X344159913Y-263210786D01*
X344192169Y-263154917D01*
X344218706Y-263117885D01*
X344247450Y-263090964D01*
X344280900Y-263070163D01*
X344317761Y-263056289D01*
X344356621Y-263049874D01*
X344395985Y-263051162D01*
X344395985Y-263051162D01*
G37*
G36*
X339262553Y-263937262D02*
G01*
X339011553Y-264372006D01*
X337624181Y-263571006D01*
X337875181Y-263136262D01*
X339262553Y-263937262D01*
X339262553Y-263937262D01*
G37*
G36*
X257620988Y-262514302D02*
G01*
X257657849Y-262528176D01*
X257691299Y-262548977D01*
X257720043Y-262575898D01*
X257746580Y-262612930D01*
X257778836Y-262668799D01*
X258256460Y-263496068D01*
X258289918Y-263554020D01*
X258308719Y-263595514D01*
X258317664Y-263633875D01*
X258318952Y-263673239D01*
X258312537Y-263712099D01*
X258298663Y-263748960D01*
X258277862Y-263782410D01*
X258250941Y-263811154D01*
X258213909Y-263837691D01*
X258158041Y-263869947D01*
X258158040Y-263869947D01*
X257545193Y-264223774D01*
X257545190Y-264223775D01*
X257489325Y-264256029D01*
X257447831Y-264274830D01*
X257409470Y-264283775D01*
X257370106Y-264285063D01*
X257331246Y-264278648D01*
X257294385Y-264264774D01*
X257260935Y-264243973D01*
X257232191Y-264217052D01*
X257205654Y-264180020D01*
X257156662Y-264095163D01*
X256694571Y-263294798D01*
X256694570Y-263294795D01*
X256662316Y-263238930D01*
X256643515Y-263197436D01*
X256634570Y-263159075D01*
X256633282Y-263119711D01*
X256639697Y-263080851D01*
X256653571Y-263043990D01*
X256674372Y-263010540D01*
X256701293Y-262981796D01*
X256738325Y-262955259D01*
X257031224Y-262786154D01*
X257407041Y-262569176D01*
X257407044Y-262569175D01*
X257462909Y-262536921D01*
X257504403Y-262518120D01*
X257542764Y-262509175D01*
X257582128Y-262507887D01*
X257620988Y-262514302D01*
X257620988Y-262514302D01*
G37*
G36*
X268065238Y-263425370D02*
G01*
X266677866Y-264226370D01*
X266426866Y-263791626D01*
X267814238Y-262990626D01*
X268065238Y-263425370D01*
X268065238Y-263425370D01*
G37*
G36*
X343316182Y-262236173D02*
G01*
X343053681Y-262690838D01*
X343002682Y-262779170D01*
X342728681Y-263253755D01*
X342684914Y-263329562D01*
X342684913Y-263329562D01*
X342677683Y-263342084D01*
X342677682Y-263342087D01*
X342415182Y-263796751D01*
X342415181Y-263796751D01*
X341027809Y-262995751D01*
X341152852Y-262779170D01*
X341297143Y-262529251D01*
X341615309Y-261978170D01*
X341795685Y-261665751D01*
X341928809Y-261435173D01*
X343316182Y-262236173D01*
X343316182Y-262236173D01*
G37*
G36*
X259396340Y-261489302D02*
G01*
X259433201Y-261503176D01*
X259466651Y-261523977D01*
X259495395Y-261550898D01*
X259521932Y-261587930D01*
X259554188Y-261643799D01*
X259932778Y-262299536D01*
X260065270Y-262529020D01*
X260084071Y-262570514D01*
X260093016Y-262608875D01*
X260094304Y-262648239D01*
X260087889Y-262687099D01*
X260074015Y-262723960D01*
X260053214Y-262757410D01*
X260026293Y-262786154D01*
X259989261Y-262812691D01*
X259933393Y-262844947D01*
X259933392Y-262844947D01*
X259320545Y-263198774D01*
X259320542Y-263198775D01*
X259264677Y-263231029D01*
X259223183Y-263249830D01*
X259184822Y-263258775D01*
X259145458Y-263260063D01*
X259106598Y-263253648D01*
X259069737Y-263239774D01*
X259036287Y-263218973D01*
X259007543Y-263192052D01*
X258981006Y-263155020D01*
X258939987Y-263083973D01*
X258469923Y-262269798D01*
X258469922Y-262269795D01*
X258437668Y-262213930D01*
X258418867Y-262172436D01*
X258409922Y-262134075D01*
X258408634Y-262094711D01*
X258415049Y-262055851D01*
X258428923Y-262018990D01*
X258449724Y-261985540D01*
X258476645Y-261956796D01*
X258513677Y-261930259D01*
X258569546Y-261898003D01*
X259182393Y-261544176D01*
X259182396Y-261544175D01*
X259238261Y-261511921D01*
X259279755Y-261493120D01*
X259318116Y-261484175D01*
X259357480Y-261482887D01*
X259396340Y-261489302D01*
X259396340Y-261489302D01*
G37*
G36*
X267415238Y-262299536D02*
G01*
X266027866Y-263100536D01*
X265776866Y-262665792D01*
X267164238Y-261864792D01*
X267415238Y-262299536D01*
X267415238Y-262299536D01*
G37*
G36*
X263438402Y-260731454D02*
G01*
X263782984Y-261328288D01*
X264052319Y-261794789D01*
X262664946Y-262595789D01*
X262413946Y-262161045D01*
X262351446Y-262052792D01*
X261763946Y-261035211D01*
X262117572Y-260831045D01*
X263151318Y-260234211D01*
X263151319Y-260234211D01*
X263438402Y-260731454D01*
X263438402Y-260731454D01*
G37*
G36*
X340362553Y-262032007D02*
G01*
X340111553Y-262466751D01*
X338724181Y-261665751D01*
X338975181Y-261231007D01*
X340362553Y-262032007D01*
X340362553Y-262032007D01*
G37*
G36*
X329240728Y-260093946D02*
G01*
X329380977Y-260152039D01*
X329431999Y-260173173D01*
X329490256Y-260212099D01*
X329604137Y-260288192D01*
X329750529Y-260434584D01*
X329865549Y-260606724D01*
X329944775Y-260797993D01*
X329985164Y-261001041D01*
X329985164Y-261208073D01*
X329944775Y-261411121D01*
X329867314Y-261598128D01*
X329865548Y-261602392D01*
X329750529Y-261774530D01*
X329604137Y-261920922D01*
X329431999Y-262035941D01*
X329431998Y-262035942D01*
X329431997Y-262035942D01*
X329240728Y-262115168D01*
X329037680Y-262155557D01*
X328830648Y-262155557D01*
X328627600Y-262115168D01*
X328436331Y-262035942D01*
X328436330Y-262035942D01*
X328436329Y-262035941D01*
X328264191Y-261920922D01*
X328117799Y-261774530D01*
X328002780Y-261602392D01*
X328001014Y-261598128D01*
X327923553Y-261411121D01*
X327883164Y-261208073D01*
X327883164Y-261001041D01*
X327923553Y-260797993D01*
X328002779Y-260606724D01*
X328117799Y-260434584D01*
X328264191Y-260288192D01*
X328378072Y-260212099D01*
X328436329Y-260173173D01*
X328487351Y-260152039D01*
X328627600Y-260093946D01*
X328830648Y-260053557D01*
X329037680Y-260053557D01*
X329240728Y-260093946D01*
X329240728Y-260093946D01*
G37*
G36*
X271372400Y-260093946D02*
G01*
X271512649Y-260152039D01*
X271563671Y-260173173D01*
X271621928Y-260212099D01*
X271735809Y-260288192D01*
X271882201Y-260434584D01*
X271997221Y-260606724D01*
X272076447Y-260797993D01*
X272116836Y-261001041D01*
X272116836Y-261208073D01*
X272076447Y-261411121D01*
X271998986Y-261598128D01*
X271997220Y-261602392D01*
X271882201Y-261774530D01*
X271735809Y-261920922D01*
X271563671Y-262035941D01*
X271563670Y-262035942D01*
X271563669Y-262035942D01*
X271372400Y-262115168D01*
X271169352Y-262155557D01*
X270962320Y-262155557D01*
X270759272Y-262115168D01*
X270568003Y-262035942D01*
X270568002Y-262035942D01*
X270568001Y-262035941D01*
X270395863Y-261920922D01*
X270249471Y-261774530D01*
X270134452Y-261602392D01*
X270132686Y-261598128D01*
X270055225Y-261411121D01*
X270014836Y-261208073D01*
X270014836Y-261001041D01*
X270055225Y-260797993D01*
X270134451Y-260606724D01*
X270249471Y-260434584D01*
X270395863Y-260288192D01*
X270509744Y-260212099D01*
X270568001Y-260173173D01*
X270619023Y-260152039D01*
X270759272Y-260093946D01*
X270962320Y-260053557D01*
X271169352Y-260053557D01*
X271372400Y-260093946D01*
X271372400Y-260093946D01*
G37*
G36*
X341012553Y-260906173D02*
G01*
X340761553Y-261340917D01*
X339374181Y-260539917D01*
X339625181Y-260105173D01*
X341012553Y-260906173D01*
X341012553Y-260906173D01*
G37*
G36*
X266355946Y-260464789D02*
G01*
X264968574Y-261265789D01*
X264717574Y-260831045D01*
X266104946Y-260030045D01*
X266355946Y-260464789D01*
X266355946Y-260464789D01*
G37*
G36*
X336395058Y-259009175D02*
G01*
X336433419Y-259018120D01*
X336474913Y-259036921D01*
X336530778Y-259069175D01*
X336530781Y-259069176D01*
X337143628Y-259423003D01*
X337199497Y-259455259D01*
X337236529Y-259481796D01*
X337263450Y-259510540D01*
X337284251Y-259543990D01*
X337298125Y-259580851D01*
X337304540Y-259619711D01*
X337303252Y-259659075D01*
X337294307Y-259697436D01*
X337275506Y-259738930D01*
X337243252Y-259794795D01*
X337243251Y-259794798D01*
X336774487Y-260606722D01*
X336732168Y-260680020D01*
X336705631Y-260717052D01*
X336676887Y-260743973D01*
X336643437Y-260764774D01*
X336606576Y-260778648D01*
X336567716Y-260785063D01*
X336528352Y-260783775D01*
X336489991Y-260774830D01*
X336448497Y-260756029D01*
X336392632Y-260723775D01*
X336392629Y-260723774D01*
X335779782Y-260369947D01*
X335779781Y-260369947D01*
X335723913Y-260337691D01*
X335686881Y-260311154D01*
X335659960Y-260282410D01*
X335639159Y-260248960D01*
X335625285Y-260212099D01*
X335618870Y-260173239D01*
X335620158Y-260133875D01*
X335629103Y-260095514D01*
X335647904Y-260054020D01*
X335727900Y-259915463D01*
X336158986Y-259168799D01*
X336191242Y-259112930D01*
X336217779Y-259075898D01*
X336246523Y-259048977D01*
X336279973Y-259028176D01*
X336316834Y-259014302D01*
X336355694Y-259007887D01*
X336395058Y-259009175D01*
X336395058Y-259009175D01*
G37*
G36*
X265705946Y-259338955D02*
G01*
X264318574Y-260139955D01*
X264067574Y-259705211D01*
X265454946Y-258904211D01*
X265705946Y-259338955D01*
X265705946Y-259338955D01*
G37*
G36*
X330510728Y-257894241D02*
G01*
X330690756Y-257968811D01*
X330701999Y-257973468D01*
X330874137Y-258088487D01*
X331020529Y-258234879D01*
X331057423Y-258290094D01*
X331135549Y-258407019D01*
X331214775Y-258598288D01*
X331255164Y-258801336D01*
X331255164Y-259008368D01*
X331214775Y-259211416D01*
X331159465Y-259344947D01*
X331135548Y-259402687D01*
X331020529Y-259574825D01*
X330874137Y-259721217D01*
X330701999Y-259836236D01*
X330701998Y-259836237D01*
X330701997Y-259836237D01*
X330510728Y-259915463D01*
X330307680Y-259955852D01*
X330100648Y-259955852D01*
X329897600Y-259915463D01*
X329706331Y-259836237D01*
X329706330Y-259836237D01*
X329706329Y-259836236D01*
X329534191Y-259721217D01*
X329387799Y-259574825D01*
X329272780Y-259402687D01*
X329248863Y-259344947D01*
X329193553Y-259211416D01*
X329153164Y-259008368D01*
X329153164Y-258801336D01*
X329193553Y-258598288D01*
X329272779Y-258407019D01*
X329350906Y-258290094D01*
X329387799Y-258234879D01*
X329534191Y-258088487D01*
X329706329Y-257973468D01*
X329717572Y-257968811D01*
X329897600Y-257894241D01*
X330100648Y-257853852D01*
X330307680Y-257853852D01*
X330510728Y-257894241D01*
X330510728Y-257894241D01*
G37*
G36*
X270102400Y-257894241D02*
G01*
X270282428Y-257968811D01*
X270293671Y-257973468D01*
X270465809Y-258088487D01*
X270612201Y-258234879D01*
X270649095Y-258290094D01*
X270727221Y-258407019D01*
X270806447Y-258598288D01*
X270846836Y-258801336D01*
X270846836Y-259008368D01*
X270806447Y-259211416D01*
X270751137Y-259344947D01*
X270727220Y-259402687D01*
X270612201Y-259574825D01*
X270465809Y-259721217D01*
X270293671Y-259836236D01*
X270293670Y-259836237D01*
X270293669Y-259836237D01*
X270102400Y-259915463D01*
X269899352Y-259955852D01*
X269692320Y-259955852D01*
X269489272Y-259915463D01*
X269298003Y-259836237D01*
X269298002Y-259836237D01*
X269298001Y-259836236D01*
X269125863Y-259721217D01*
X268979471Y-259574825D01*
X268864452Y-259402687D01*
X268840535Y-259344947D01*
X268785225Y-259211416D01*
X268744836Y-259008368D01*
X268744836Y-258801336D01*
X268785225Y-258598288D01*
X268864451Y-258407019D01*
X268942578Y-258290094D01*
X268979471Y-258234879D01*
X269125863Y-258088487D01*
X269298001Y-257973468D01*
X269309244Y-257968811D01*
X269489272Y-257894241D01*
X269692320Y-257853852D01*
X269899352Y-257853852D01*
X270102400Y-257894241D01*
X270102400Y-257894241D01*
G37*
G36*
X334619706Y-257984175D02*
G01*
X334658067Y-257993120D01*
X334699561Y-258011921D01*
X334755426Y-258044175D01*
X334755429Y-258044176D01*
X335368276Y-258398003D01*
X335424145Y-258430259D01*
X335461177Y-258456796D01*
X335488098Y-258485540D01*
X335508899Y-258518990D01*
X335522773Y-258555851D01*
X335529188Y-258594711D01*
X335527900Y-258634075D01*
X335518955Y-258672436D01*
X335500154Y-258713930D01*
X335467900Y-258769795D01*
X335467899Y-258769798D01*
X334995355Y-259588268D01*
X334956816Y-259655020D01*
X334930279Y-259692052D01*
X334901535Y-259718973D01*
X334868085Y-259739774D01*
X334831224Y-259753648D01*
X334792364Y-259760063D01*
X334753000Y-259758775D01*
X334714639Y-259749830D01*
X334673145Y-259731029D01*
X334617280Y-259698775D01*
X334617277Y-259698774D01*
X334004430Y-259344947D01*
X334004429Y-259344947D01*
X333948561Y-259312691D01*
X333911529Y-259286154D01*
X333884608Y-259257410D01*
X333863807Y-259223960D01*
X333849933Y-259187099D01*
X333843518Y-259148239D01*
X333844806Y-259108875D01*
X333853751Y-259070514D01*
X333872552Y-259029020D01*
X333980873Y-258841403D01*
X334383634Y-258143799D01*
X334415890Y-258087930D01*
X334442427Y-258050898D01*
X334471171Y-258023977D01*
X334504621Y-258003176D01*
X334541482Y-257989302D01*
X334580342Y-257982887D01*
X334619706Y-257984175D01*
X334619706Y-257984175D01*
G37*
G36*
X252694892Y-255570139D02*
G01*
X253004454Y-255698364D01*
X253004455Y-255698365D01*
X253283054Y-255884518D01*
X253519983Y-256121447D01*
X253577358Y-256207315D01*
X253706137Y-256400047D01*
X253834362Y-256709609D01*
X253899730Y-257038236D01*
X253899730Y-257373306D01*
X253834362Y-257701933D01*
X253706137Y-258011495D01*
X253697797Y-258023977D01*
X253519983Y-258290095D01*
X253283054Y-258527024D01*
X253145834Y-258618711D01*
X253004454Y-258713178D01*
X252694892Y-258841403D01*
X252366265Y-258906771D01*
X252031195Y-258906771D01*
X251702568Y-258841403D01*
X251393006Y-258713178D01*
X251251626Y-258618711D01*
X251114406Y-258527024D01*
X250877477Y-258290095D01*
X250699663Y-258023977D01*
X250691323Y-258011495D01*
X250563098Y-257701933D01*
X250497730Y-257373306D01*
X250497730Y-257038236D01*
X250563098Y-256709609D01*
X250691323Y-256400047D01*
X250820102Y-256207315D01*
X250877477Y-256121447D01*
X251114406Y-255884518D01*
X251393005Y-255698365D01*
X251393006Y-255698364D01*
X251702568Y-255570139D01*
X252031195Y-255504771D01*
X252366265Y-255504771D01*
X252694892Y-255570139D01*
X252694892Y-255570139D01*
G37*
G36*
X348297432Y-255570139D02*
G01*
X348606994Y-255698364D01*
X348606995Y-255698365D01*
X348885594Y-255884518D01*
X349122523Y-256121447D01*
X349179898Y-256207315D01*
X349308677Y-256400047D01*
X349436902Y-256709609D01*
X349502270Y-257038236D01*
X349502270Y-257373306D01*
X349436902Y-257701933D01*
X349308677Y-258011495D01*
X349300337Y-258023977D01*
X349122523Y-258290095D01*
X348885594Y-258527024D01*
X348748374Y-258618711D01*
X348606994Y-258713178D01*
X348297432Y-258841403D01*
X347968805Y-258906771D01*
X347633735Y-258906771D01*
X347305108Y-258841403D01*
X346995546Y-258713178D01*
X346854166Y-258618711D01*
X346716946Y-258527024D01*
X346480017Y-258290095D01*
X346302203Y-258023977D01*
X346293863Y-258011495D01*
X346165638Y-257701933D01*
X346100270Y-257373306D01*
X346100270Y-257038236D01*
X346165638Y-256709609D01*
X346293863Y-256400047D01*
X346422642Y-256207315D01*
X346480017Y-256121447D01*
X346716946Y-255884518D01*
X346995545Y-255698365D01*
X346995546Y-255698364D01*
X347305108Y-255570139D01*
X347633735Y-255504771D01*
X347968805Y-255504771D01*
X348297432Y-255570139D01*
X348297432Y-255570139D01*
G37*
G36*
X337645058Y-256844111D02*
G01*
X337683419Y-256853056D01*
X337724913Y-256871857D01*
X337780778Y-256904111D01*
X337780781Y-256904112D01*
X338156598Y-257121090D01*
X338449497Y-257290195D01*
X338486529Y-257316732D01*
X338513450Y-257345476D01*
X338534251Y-257378926D01*
X338548125Y-257415787D01*
X338554540Y-257454647D01*
X338553252Y-257494011D01*
X338544307Y-257532372D01*
X338525506Y-257573866D01*
X338493252Y-257629731D01*
X338493251Y-257629734D01*
X338049691Y-258398003D01*
X337982168Y-258514956D01*
X337955631Y-258551988D01*
X337926887Y-258578909D01*
X337893437Y-258599710D01*
X337856576Y-258613584D01*
X337817716Y-258619999D01*
X337778352Y-258618711D01*
X337739991Y-258609766D01*
X337698497Y-258590965D01*
X337642632Y-258558711D01*
X337642629Y-258558710D01*
X337029782Y-258204883D01*
X337029781Y-258204883D01*
X336973913Y-258172627D01*
X336936881Y-258146090D01*
X336909960Y-258117346D01*
X336889159Y-258083896D01*
X336875285Y-258047035D01*
X336868870Y-258008175D01*
X336870158Y-257968811D01*
X336879103Y-257930450D01*
X336897904Y-257888956D01*
X336974581Y-257756148D01*
X337408986Y-257003735D01*
X337441242Y-256947866D01*
X337467779Y-256910834D01*
X337496523Y-256883913D01*
X337529973Y-256863112D01*
X337566834Y-256849238D01*
X337605694Y-256842823D01*
X337645058Y-256844111D01*
X337645058Y-256844111D01*
G37*
G36*
X331780728Y-255694537D02*
G01*
X331971997Y-255773763D01*
X331971999Y-255773764D01*
X332144137Y-255888783D01*
X332290529Y-256035175D01*
X332359603Y-256138551D01*
X332405549Y-256207315D01*
X332484775Y-256398584D01*
X332525164Y-256601632D01*
X332525164Y-256808664D01*
X332484775Y-257011712D01*
X332439469Y-257121090D01*
X332405548Y-257202983D01*
X332290529Y-257375121D01*
X332144137Y-257521513D01*
X331971999Y-257636532D01*
X331971998Y-257636533D01*
X331971997Y-257636533D01*
X331780728Y-257715759D01*
X331577680Y-257756148D01*
X331370648Y-257756148D01*
X331167600Y-257715759D01*
X330976331Y-257636533D01*
X330976330Y-257636533D01*
X330976329Y-257636532D01*
X330804191Y-257521513D01*
X330657799Y-257375121D01*
X330542780Y-257202983D01*
X330508859Y-257121090D01*
X330463553Y-257011712D01*
X330423164Y-256808664D01*
X330423164Y-256601632D01*
X330463553Y-256398584D01*
X330542779Y-256207315D01*
X330588726Y-256138551D01*
X330657799Y-256035175D01*
X330804191Y-255888783D01*
X330976329Y-255773764D01*
X330976331Y-255773763D01*
X331167600Y-255694537D01*
X331370648Y-255654148D01*
X331577680Y-255654148D01*
X331780728Y-255694537D01*
X331780728Y-255694537D01*
G37*
G36*
X268832400Y-255694537D02*
G01*
X269023669Y-255773763D01*
X269023671Y-255773764D01*
X269195809Y-255888783D01*
X269342201Y-256035175D01*
X269411275Y-256138551D01*
X269457221Y-256207315D01*
X269536447Y-256398584D01*
X269576836Y-256601632D01*
X269576836Y-256808664D01*
X269536447Y-257011712D01*
X269491141Y-257121090D01*
X269457220Y-257202983D01*
X269342201Y-257375121D01*
X269195809Y-257521513D01*
X269023671Y-257636532D01*
X269023670Y-257636533D01*
X269023669Y-257636533D01*
X268832400Y-257715759D01*
X268629352Y-257756148D01*
X268422320Y-257756148D01*
X268219272Y-257715759D01*
X268028003Y-257636533D01*
X268028002Y-257636533D01*
X268028001Y-257636532D01*
X267855863Y-257521513D01*
X267709471Y-257375121D01*
X267594452Y-257202983D01*
X267560531Y-257121090D01*
X267515225Y-257011712D01*
X267474836Y-256808664D01*
X267474836Y-256601632D01*
X267515225Y-256398584D01*
X267594451Y-256207315D01*
X267640398Y-256138551D01*
X267709471Y-256035175D01*
X267855863Y-255888783D01*
X268028001Y-255773764D01*
X268028003Y-255773763D01*
X268219272Y-255694537D01*
X268422320Y-255654148D01*
X268629352Y-255654148D01*
X268832400Y-255694537D01*
X268832400Y-255694537D01*
G37*
G36*
X257811498Y-255625775D02*
G01*
X257986746Y-255698365D01*
X258002769Y-255705002D01*
X258148733Y-255802532D01*
X258174907Y-255820021D01*
X258321299Y-255966413D01*
X258436319Y-256138553D01*
X258515545Y-256329822D01*
X258555934Y-256532870D01*
X258555934Y-256739902D01*
X258515545Y-256942950D01*
X258441757Y-257121090D01*
X258436318Y-257134221D01*
X258321299Y-257306359D01*
X258174907Y-257452751D01*
X258002769Y-257567770D01*
X258002768Y-257567771D01*
X258002767Y-257567771D01*
X257811498Y-257646997D01*
X257608450Y-257687386D01*
X257401418Y-257687386D01*
X257198370Y-257646997D01*
X257007101Y-257567771D01*
X257007100Y-257567771D01*
X257007099Y-257567770D01*
X256834961Y-257452751D01*
X256688569Y-257306359D01*
X256573550Y-257134221D01*
X256568111Y-257121090D01*
X256494323Y-256942950D01*
X256453934Y-256739902D01*
X256453934Y-256532870D01*
X256494323Y-256329822D01*
X256573549Y-256138553D01*
X256688569Y-255966413D01*
X256834961Y-255820021D01*
X256861135Y-255802532D01*
X257007099Y-255705002D01*
X257023122Y-255698365D01*
X257198370Y-255625775D01*
X257401418Y-255585386D01*
X257608450Y-255585386D01*
X257811498Y-255625775D01*
X257811498Y-255625775D01*
G37*
G36*
X335869706Y-255819111D02*
G01*
X335908067Y-255828056D01*
X335949561Y-255846857D01*
X336005426Y-255879111D01*
X336005429Y-255879112D01*
X336462791Y-256143170D01*
X336674145Y-256265195D01*
X336711177Y-256291732D01*
X336738098Y-256320476D01*
X336758899Y-256353926D01*
X336772773Y-256390787D01*
X336779188Y-256429647D01*
X336777900Y-256469011D01*
X336768955Y-256507372D01*
X336750154Y-256548866D01*
X336717900Y-256604731D01*
X336717899Y-256604734D01*
X336245355Y-257423204D01*
X336206816Y-257489956D01*
X336180279Y-257526988D01*
X336151535Y-257553909D01*
X336118085Y-257574710D01*
X336081224Y-257588584D01*
X336042364Y-257594999D01*
X336003000Y-257593711D01*
X335964639Y-257584766D01*
X335923145Y-257565965D01*
X335867280Y-257533711D01*
X335867277Y-257533710D01*
X335254430Y-257179883D01*
X335254429Y-257179883D01*
X335198561Y-257147627D01*
X335161529Y-257121090D01*
X335134608Y-257092346D01*
X335113807Y-257058896D01*
X335099933Y-257022035D01*
X335093518Y-256983175D01*
X335094806Y-256943811D01*
X335103751Y-256905450D01*
X335122552Y-256863956D01*
X335194175Y-256739902D01*
X335633634Y-255978735D01*
X335665890Y-255922866D01*
X335692427Y-255885834D01*
X335721171Y-255858913D01*
X335754621Y-255838112D01*
X335791482Y-255824238D01*
X335830342Y-255817823D01*
X335869706Y-255819111D01*
X335869706Y-255819111D01*
G37*
G36*
X342936630Y-255391948D02*
G01*
X343124823Y-255469900D01*
X343127901Y-255471175D01*
X343300039Y-255586194D01*
X343446431Y-255732586D01*
X343550799Y-255888783D01*
X343561451Y-255904726D01*
X343640677Y-256095995D01*
X343681066Y-256299043D01*
X343681066Y-256506075D01*
X343640677Y-256709123D01*
X343569031Y-256882092D01*
X343561450Y-256900394D01*
X343446431Y-257072532D01*
X343300039Y-257218924D01*
X343127901Y-257333943D01*
X343127900Y-257333944D01*
X343127899Y-257333944D01*
X342936630Y-257413170D01*
X342733582Y-257453559D01*
X342526550Y-257453559D01*
X342323502Y-257413170D01*
X342132233Y-257333944D01*
X342132232Y-257333944D01*
X342132231Y-257333943D01*
X341960093Y-257218924D01*
X341813701Y-257072532D01*
X341698682Y-256900394D01*
X341691101Y-256882092D01*
X341619455Y-256709123D01*
X341579066Y-256506075D01*
X341579066Y-256299043D01*
X341619455Y-256095995D01*
X341698681Y-255904726D01*
X341709334Y-255888783D01*
X341813701Y-255732586D01*
X341960093Y-255586194D01*
X342132231Y-255471175D01*
X342135309Y-255469900D01*
X342323502Y-255391948D01*
X342526550Y-255351559D01*
X342733582Y-255351559D01*
X342936630Y-255391948D01*
X342936630Y-255391948D01*
G37*
G36*
X260011203Y-254355775D02*
G01*
X260202472Y-254435001D01*
X260202474Y-254435002D01*
X260243756Y-254462586D01*
X260374612Y-254550021D01*
X260521004Y-254696413D01*
X260636024Y-254868553D01*
X260715250Y-255059822D01*
X260755639Y-255262870D01*
X260755639Y-255469902D01*
X260715250Y-255672950D01*
X260638976Y-255857092D01*
X260636023Y-255864221D01*
X260521004Y-256036359D01*
X260374612Y-256182751D01*
X260202474Y-256297770D01*
X260202473Y-256297771D01*
X260202472Y-256297771D01*
X260011203Y-256376997D01*
X259808155Y-256417386D01*
X259601123Y-256417386D01*
X259398075Y-256376997D01*
X259206806Y-256297771D01*
X259206805Y-256297771D01*
X259206804Y-256297770D01*
X259034666Y-256182751D01*
X258888274Y-256036359D01*
X258773255Y-255864221D01*
X258770302Y-255857092D01*
X258694028Y-255672950D01*
X258653639Y-255469902D01*
X258653639Y-255262870D01*
X258694028Y-255059822D01*
X258773254Y-254868553D01*
X258888274Y-254696413D01*
X259034666Y-254550021D01*
X259165522Y-254462586D01*
X259206804Y-254435002D01*
X259206806Y-254435001D01*
X259398075Y-254355775D01*
X259601123Y-254315386D01*
X259808155Y-254315386D01*
X260011203Y-254355775D01*
X260011203Y-254355775D01*
G37*
G36*
X340736925Y-254121948D02*
G01*
X340922651Y-254198878D01*
X340928196Y-254201175D01*
X341100334Y-254316194D01*
X341246726Y-254462586D01*
X341334682Y-254594221D01*
X341361746Y-254634726D01*
X341440972Y-254825995D01*
X341481361Y-255029043D01*
X341481361Y-255236075D01*
X341440972Y-255439123D01*
X341386703Y-255570140D01*
X341361745Y-255630394D01*
X341246726Y-255802532D01*
X341100334Y-255948924D01*
X340928196Y-256063943D01*
X340928195Y-256063944D01*
X340928194Y-256063944D01*
X340736925Y-256143170D01*
X340533877Y-256183559D01*
X340326845Y-256183559D01*
X340123797Y-256143170D01*
X339932528Y-256063944D01*
X339932527Y-256063944D01*
X339932526Y-256063943D01*
X339760388Y-255948924D01*
X339613996Y-255802532D01*
X339498977Y-255630394D01*
X339474019Y-255570140D01*
X339419750Y-255439123D01*
X339379361Y-255236075D01*
X339379361Y-255029043D01*
X339419750Y-254825995D01*
X339498976Y-254634726D01*
X339526041Y-254594221D01*
X339613996Y-254462586D01*
X339760388Y-254316194D01*
X339932526Y-254201175D01*
X339938071Y-254198878D01*
X340123797Y-254121948D01*
X340326845Y-254081559D01*
X340533877Y-254081559D01*
X340736925Y-254121948D01*
X340736925Y-254121948D01*
G37*
G36*
X267562400Y-253494832D02*
G01*
X267753669Y-253574058D01*
X267753671Y-253574059D01*
X267925809Y-253689078D01*
X268072201Y-253835470D01*
X268182781Y-254000964D01*
X268187221Y-254007610D01*
X268266447Y-254198879D01*
X268306836Y-254401927D01*
X268306836Y-254608959D01*
X268266447Y-254812007D01*
X268224383Y-254913559D01*
X268187220Y-255003278D01*
X268072201Y-255175416D01*
X267925809Y-255321808D01*
X267753671Y-255436827D01*
X267753670Y-255436828D01*
X267753669Y-255436828D01*
X267562400Y-255516054D01*
X267359352Y-255556443D01*
X267152320Y-255556443D01*
X266949272Y-255516054D01*
X266758003Y-255436828D01*
X266758002Y-255436828D01*
X266758001Y-255436827D01*
X266585863Y-255321808D01*
X266439471Y-255175416D01*
X266324452Y-255003278D01*
X266287289Y-254913559D01*
X266245225Y-254812007D01*
X266204836Y-254608959D01*
X266204836Y-254401927D01*
X266245225Y-254198879D01*
X266324451Y-254007610D01*
X266328892Y-254000964D01*
X266439471Y-253835470D01*
X266585863Y-253689078D01*
X266758001Y-253574059D01*
X266758003Y-253574058D01*
X266949272Y-253494832D01*
X267152320Y-253454443D01*
X267359352Y-253454443D01*
X267562400Y-253494832D01*
X267562400Y-253494832D01*
G37*
G36*
X333050728Y-253494832D02*
G01*
X333241997Y-253574058D01*
X333241999Y-253574059D01*
X333414137Y-253689078D01*
X333560529Y-253835470D01*
X333671109Y-254000964D01*
X333675549Y-254007610D01*
X333754775Y-254198879D01*
X333795164Y-254401927D01*
X333795164Y-254608959D01*
X333754775Y-254812007D01*
X333712711Y-254913559D01*
X333675548Y-255003278D01*
X333560529Y-255175416D01*
X333414137Y-255321808D01*
X333241999Y-255436827D01*
X333241998Y-255436828D01*
X333241997Y-255436828D01*
X333050728Y-255516054D01*
X332847680Y-255556443D01*
X332640648Y-255556443D01*
X332437600Y-255516054D01*
X332246331Y-255436828D01*
X332246330Y-255436828D01*
X332246329Y-255436827D01*
X332074191Y-255321808D01*
X331927799Y-255175416D01*
X331812780Y-255003278D01*
X331775617Y-254913559D01*
X331733553Y-254812007D01*
X331693164Y-254608959D01*
X331693164Y-254401927D01*
X331733553Y-254198879D01*
X331812779Y-254007610D01*
X331817220Y-254000964D01*
X331927799Y-253835470D01*
X332074191Y-253689078D01*
X332246329Y-253574059D01*
X332246331Y-253574058D01*
X332437600Y-253494832D01*
X332640648Y-253454443D01*
X332847680Y-253454443D01*
X333050728Y-253494832D01*
X333050728Y-253494832D01*
G37*
G36*
X262210907Y-253085775D02*
G01*
X262402176Y-253165001D01*
X262402178Y-253165002D01*
X262574316Y-253280021D01*
X262720708Y-253426413D01*
X262829258Y-253588869D01*
X262835728Y-253598553D01*
X262914954Y-253789822D01*
X262955343Y-253992870D01*
X262955343Y-254199902D01*
X262914954Y-254402950D01*
X262854035Y-254550021D01*
X262835727Y-254594221D01*
X262720708Y-254766359D01*
X262574316Y-254912751D01*
X262402178Y-255027770D01*
X262402177Y-255027771D01*
X262402176Y-255027771D01*
X262210907Y-255106997D01*
X262007859Y-255147386D01*
X261800827Y-255147386D01*
X261597779Y-255106997D01*
X261406510Y-255027771D01*
X261406509Y-255027771D01*
X261406508Y-255027770D01*
X261234370Y-254912751D01*
X261087978Y-254766359D01*
X260972959Y-254594221D01*
X260954651Y-254550021D01*
X260893732Y-254402950D01*
X260853343Y-254199902D01*
X260853343Y-253992870D01*
X260893732Y-253789822D01*
X260972958Y-253598553D01*
X260979429Y-253588869D01*
X261087978Y-253426413D01*
X261234370Y-253280021D01*
X261406508Y-253165002D01*
X261406510Y-253165001D01*
X261597779Y-253085775D01*
X261800827Y-253045386D01*
X262007859Y-253045386D01*
X262210907Y-253085775D01*
X262210907Y-253085775D01*
G37*
G36*
X338537221Y-252851948D02*
G01*
X338723227Y-252928994D01*
X338728492Y-252931175D01*
X338900630Y-253046194D01*
X339047022Y-253192586D01*
X339134978Y-253324221D01*
X339162042Y-253364726D01*
X339241268Y-253555995D01*
X339281657Y-253759043D01*
X339281657Y-253966075D01*
X339241268Y-254169123D01*
X339180684Y-254315386D01*
X339162041Y-254360394D01*
X339047022Y-254532532D01*
X338900630Y-254678924D01*
X338728492Y-254793943D01*
X338728491Y-254793944D01*
X338728490Y-254793944D01*
X338537221Y-254873170D01*
X338334173Y-254913559D01*
X338127141Y-254913559D01*
X337924093Y-254873170D01*
X337732824Y-254793944D01*
X337732823Y-254793944D01*
X337732822Y-254793943D01*
X337560684Y-254678924D01*
X337414292Y-254532532D01*
X337299273Y-254360394D01*
X337280630Y-254315386D01*
X337220046Y-254169123D01*
X337179657Y-253966075D01*
X337179657Y-253759043D01*
X337220046Y-253555995D01*
X337299272Y-253364726D01*
X337326337Y-253324221D01*
X337414292Y-253192586D01*
X337560684Y-253046194D01*
X337732822Y-252931175D01*
X337738087Y-252928994D01*
X337924093Y-252851948D01*
X338127141Y-252811559D01*
X338334173Y-252811559D01*
X338537221Y-252851948D01*
X338537221Y-252851948D01*
G37*
G36*
X324703715Y-252259175D02*
G01*
X324742076Y-252268120D01*
X324783570Y-252286921D01*
X324839435Y-252319175D01*
X324839438Y-252319176D01*
X325215255Y-252536154D01*
X325508154Y-252705259D01*
X325545186Y-252731796D01*
X325572107Y-252760540D01*
X325592908Y-252793990D01*
X325606782Y-252830851D01*
X325613197Y-252869711D01*
X325611909Y-252909075D01*
X325602964Y-252947436D01*
X325584163Y-252988930D01*
X325551909Y-253044795D01*
X325551908Y-253044798D01*
X325140273Y-253757771D01*
X325040825Y-253930020D01*
X325014288Y-253967052D01*
X324985544Y-253993973D01*
X324952094Y-254014774D01*
X324915233Y-254028648D01*
X324876373Y-254035063D01*
X324837009Y-254033775D01*
X324798648Y-254024830D01*
X324757154Y-254006029D01*
X324701289Y-253973775D01*
X324701286Y-253973774D01*
X324088439Y-253619947D01*
X324088438Y-253619947D01*
X324032570Y-253587691D01*
X323995538Y-253561154D01*
X323968617Y-253532410D01*
X323947816Y-253498960D01*
X323933942Y-253462099D01*
X323927527Y-253423239D01*
X323928815Y-253383875D01*
X323937760Y-253345514D01*
X323956561Y-253304020D01*
X324036824Y-253165001D01*
X324467643Y-252418799D01*
X324499899Y-252362930D01*
X324526436Y-252325898D01*
X324555180Y-252298977D01*
X324588630Y-252278176D01*
X324625491Y-252264302D01*
X324664351Y-252257887D01*
X324703715Y-252259175D01*
X324703715Y-252259175D01*
G37*
G36*
X264410612Y-251815775D02*
G01*
X264531651Y-251865911D01*
X264601883Y-251895002D01*
X264774021Y-252010021D01*
X264920413Y-252156413D01*
X265032199Y-252323712D01*
X265035433Y-252328553D01*
X265114659Y-252519822D01*
X265155048Y-252722870D01*
X265155048Y-252929902D01*
X265114659Y-253132950D01*
X265035433Y-253324219D01*
X265035432Y-253324221D01*
X264920413Y-253496359D01*
X264774021Y-253642751D01*
X264601883Y-253757770D01*
X264601882Y-253757771D01*
X264601881Y-253757771D01*
X264410612Y-253836997D01*
X264207564Y-253877386D01*
X264000532Y-253877386D01*
X263797484Y-253836997D01*
X263606215Y-253757771D01*
X263606214Y-253757771D01*
X263606213Y-253757770D01*
X263434075Y-253642751D01*
X263287683Y-253496359D01*
X263172664Y-253324221D01*
X263172663Y-253324219D01*
X263093437Y-253132950D01*
X263053048Y-252929902D01*
X263053048Y-252722870D01*
X263093437Y-252519822D01*
X263172663Y-252328553D01*
X263175898Y-252323712D01*
X263287683Y-252156413D01*
X263434075Y-252010021D01*
X263606213Y-251895002D01*
X263676445Y-251865911D01*
X263797484Y-251815775D01*
X264000532Y-251775386D01*
X264207564Y-251775386D01*
X264410612Y-251815775D01*
X264410612Y-251815775D01*
G37*
G36*
X336337516Y-251581948D02*
G01*
X336528785Y-251661174D01*
X336528787Y-251661175D01*
X336613866Y-251718023D01*
X336700925Y-251776194D01*
X336847317Y-251922586D01*
X336962337Y-252094726D01*
X337041563Y-252285995D01*
X337081952Y-252489043D01*
X337081952Y-252696075D01*
X337041563Y-252899123D01*
X336980979Y-253045386D01*
X336962336Y-253090394D01*
X336847317Y-253262532D01*
X336700925Y-253408924D01*
X336528787Y-253523943D01*
X336528786Y-253523944D01*
X336528785Y-253523944D01*
X336337516Y-253603170D01*
X336134468Y-253643559D01*
X335927436Y-253643559D01*
X335724388Y-253603170D01*
X335533119Y-253523944D01*
X335533118Y-253523944D01*
X335533117Y-253523943D01*
X335360979Y-253408924D01*
X335214587Y-253262532D01*
X335099568Y-253090394D01*
X335080925Y-253045386D01*
X335020341Y-252899123D01*
X334979952Y-252696075D01*
X334979952Y-252489043D01*
X335020341Y-252285995D01*
X335099567Y-252094726D01*
X335214587Y-251922586D01*
X335360979Y-251776194D01*
X335448038Y-251718023D01*
X335533117Y-251661175D01*
X335533119Y-251661174D01*
X335724388Y-251581948D01*
X335927436Y-251541559D01*
X336134468Y-251541559D01*
X336337516Y-251581948D01*
X336337516Y-251581948D01*
G37*
G36*
X322928363Y-251234175D02*
G01*
X322966724Y-251243120D01*
X323008218Y-251261921D01*
X323064083Y-251294175D01*
X323064086Y-251294176D01*
X323474944Y-251531385D01*
X323732802Y-251680259D01*
X323769834Y-251706796D01*
X323796755Y-251735540D01*
X323817556Y-251768990D01*
X323831430Y-251805851D01*
X323837845Y-251844711D01*
X323836557Y-251884075D01*
X323827612Y-251922436D01*
X323808811Y-251963930D01*
X323776557Y-252019795D01*
X323776556Y-252019798D01*
X323304012Y-252838268D01*
X323265473Y-252905020D01*
X323238936Y-252942052D01*
X323210192Y-252968973D01*
X323176742Y-252989774D01*
X323139881Y-253003648D01*
X323101021Y-253010063D01*
X323061657Y-253008775D01*
X323023296Y-252999830D01*
X322981802Y-252981029D01*
X322925937Y-252948775D01*
X322925934Y-252948774D01*
X322313087Y-252594947D01*
X322313086Y-252594947D01*
X322257218Y-252562691D01*
X322220186Y-252536154D01*
X322193265Y-252507410D01*
X322172464Y-252473960D01*
X322158590Y-252437099D01*
X322152175Y-252398239D01*
X322153463Y-252358875D01*
X322162408Y-252320514D01*
X322181209Y-252279020D01*
X322330871Y-252019798D01*
X322692291Y-251393799D01*
X322724547Y-251337930D01*
X322751084Y-251300898D01*
X322779828Y-251273977D01*
X322813278Y-251253176D01*
X322850139Y-251239302D01*
X322888999Y-251232887D01*
X322928363Y-251234175D01*
X322928363Y-251234175D01*
G37*
G36*
X249506564Y-249589389D02*
G01*
X249679685Y-249661098D01*
X249697835Y-249668616D01*
X249743426Y-249699079D01*
X249869973Y-249783635D01*
X250016365Y-249930027D01*
X250131385Y-250102167D01*
X250210611Y-250293436D01*
X250251000Y-250496484D01*
X250251000Y-250703516D01*
X250210611Y-250906564D01*
X250131385Y-251097833D01*
X250131384Y-251097835D01*
X250016365Y-251269973D01*
X249869973Y-251416365D01*
X249697835Y-251531384D01*
X249697834Y-251531385D01*
X249697833Y-251531385D01*
X249506564Y-251610611D01*
X249303516Y-251651000D01*
X249096484Y-251651000D01*
X248893436Y-251610611D01*
X248702167Y-251531385D01*
X248702166Y-251531385D01*
X248702165Y-251531384D01*
X248530027Y-251416365D01*
X248383635Y-251269973D01*
X248268616Y-251097835D01*
X248268615Y-251097833D01*
X248189389Y-250906564D01*
X248149000Y-250703516D01*
X248149000Y-250496484D01*
X248189389Y-250293436D01*
X248268615Y-250102167D01*
X248383635Y-249930027D01*
X248530027Y-249783635D01*
X248656574Y-249699079D01*
X248702165Y-249668616D01*
X248720315Y-249661098D01*
X248893436Y-249589389D01*
X249096484Y-249549000D01*
X249303516Y-249549000D01*
X249506564Y-249589389D01*
X249506564Y-249589389D01*
G37*
G36*
X326203715Y-249661098D02*
G01*
X326242076Y-249670043D01*
X326283570Y-249688844D01*
X326339435Y-249721098D01*
X326339438Y-249721099D01*
X326701312Y-249930027D01*
X327008154Y-250107182D01*
X327045186Y-250133719D01*
X327072107Y-250162463D01*
X327092908Y-250195913D01*
X327106782Y-250232774D01*
X327113197Y-250271634D01*
X327111909Y-250310998D01*
X327102964Y-250349359D01*
X327084163Y-250390853D01*
X327051909Y-250446718D01*
X327051908Y-250446721D01*
X326719846Y-251021870D01*
X326540825Y-251331943D01*
X326514288Y-251368975D01*
X326485544Y-251395896D01*
X326452094Y-251416697D01*
X326415233Y-251430571D01*
X326376373Y-251436986D01*
X326337009Y-251435698D01*
X326298648Y-251426753D01*
X326257154Y-251407952D01*
X326201289Y-251375698D01*
X326201286Y-251375697D01*
X325588439Y-251021870D01*
X325588438Y-251021870D01*
X325532570Y-250989614D01*
X325495538Y-250963077D01*
X325468617Y-250934333D01*
X325447816Y-250900883D01*
X325433942Y-250864022D01*
X325427527Y-250825162D01*
X325428815Y-250785798D01*
X325437760Y-250747437D01*
X325456561Y-250705943D01*
X325606223Y-250446721D01*
X325967643Y-249820722D01*
X325999899Y-249764853D01*
X326026436Y-249727821D01*
X326055180Y-249700900D01*
X326088630Y-249680099D01*
X326125491Y-249666225D01*
X326164351Y-249659810D01*
X326203715Y-249661098D01*
X326203715Y-249661098D01*
G37*
G36*
X324428363Y-248636098D02*
G01*
X324466724Y-248645043D01*
X324508218Y-248663844D01*
X324564083Y-248696098D01*
X324564086Y-248696099D01*
X324639870Y-248739853D01*
X325232802Y-249082182D01*
X325269834Y-249108719D01*
X325296755Y-249137463D01*
X325317556Y-249170913D01*
X325331430Y-249207774D01*
X325337845Y-249246634D01*
X325336557Y-249285998D01*
X325327612Y-249324359D01*
X325308811Y-249365853D01*
X325276557Y-249421718D01*
X325276556Y-249421721D01*
X324804012Y-250240191D01*
X324765473Y-250306943D01*
X324738936Y-250343975D01*
X324710192Y-250370896D01*
X324676742Y-250391697D01*
X324639881Y-250405571D01*
X324601021Y-250411986D01*
X324561657Y-250410698D01*
X324523296Y-250401753D01*
X324481802Y-250382952D01*
X324425937Y-250350698D01*
X324425934Y-250350697D01*
X323813087Y-249996870D01*
X323813086Y-249996870D01*
X323757218Y-249964614D01*
X323720186Y-249938077D01*
X323693265Y-249909333D01*
X323672464Y-249875883D01*
X323658590Y-249839022D01*
X323652175Y-249800162D01*
X323653463Y-249760798D01*
X323662408Y-249722437D01*
X323681209Y-249680943D01*
X323734068Y-249589389D01*
X324192291Y-248795722D01*
X324224547Y-248739853D01*
X324251084Y-248702821D01*
X324279828Y-248675900D01*
X324313278Y-248655099D01*
X324350139Y-248641225D01*
X324388999Y-248634810D01*
X324428363Y-248636098D01*
X324428363Y-248636098D01*
G37*
G36*
X350510443Y-244305519D02*
G01*
X350576627Y-244312037D01*
X350746466Y-244363557D01*
X350902991Y-244447222D01*
X350938729Y-244476552D01*
X351040186Y-244559814D01*
X351123448Y-244661271D01*
X351152778Y-244697009D01*
X351152779Y-244697011D01*
X351227461Y-244836729D01*
X351236443Y-244853534D01*
X351287963Y-245023373D01*
X351305359Y-245200000D01*
X351287963Y-245376627D01*
X351236443Y-245546466D01*
X351152778Y-245702991D01*
X351123448Y-245738729D01*
X351040186Y-245840186D01*
X350938729Y-245923448D01*
X350902991Y-245952778D01*
X350746466Y-246036443D01*
X350576627Y-246087963D01*
X350510443Y-246094481D01*
X350444260Y-246101000D01*
X350355740Y-246101000D01*
X350289557Y-246094481D01*
X350223373Y-246087963D01*
X350053534Y-246036443D01*
X349897009Y-245952778D01*
X349861271Y-245923448D01*
X349759814Y-245840186D01*
X349676552Y-245738729D01*
X349647222Y-245702991D01*
X349563557Y-245546466D01*
X349512037Y-245376627D01*
X349494641Y-245200000D01*
X349512037Y-245023373D01*
X349563557Y-244853534D01*
X349572540Y-244836729D01*
X349647221Y-244697011D01*
X349647222Y-244697009D01*
X349676552Y-244661271D01*
X349759814Y-244559814D01*
X349861271Y-244476552D01*
X349897009Y-244447222D01*
X350053534Y-244363557D01*
X350223373Y-244312037D01*
X350289557Y-244305519D01*
X350355740Y-244299000D01*
X350444260Y-244299000D01*
X350510443Y-244305519D01*
X350510443Y-244305519D01*
G37*
G36*
X260301620Y-243204069D02*
G01*
X260404555Y-243214207D01*
X260589407Y-243270282D01*
X260602672Y-243274306D01*
X260699498Y-243326061D01*
X260785252Y-243371897D01*
X260945288Y-243503235D01*
X261076626Y-243663271D01*
X261122462Y-243749025D01*
X261174217Y-243845851D01*
X261174218Y-243845854D01*
X261234316Y-244043968D01*
X261254608Y-244250000D01*
X261234316Y-244456032D01*
X261202833Y-244559815D01*
X261174217Y-244654149D01*
X261122462Y-244750975D01*
X261076626Y-244836729D01*
X260945288Y-244996765D01*
X260785252Y-245128103D01*
X260699498Y-245173939D01*
X260602672Y-245225694D01*
X260602669Y-245225695D01*
X260404555Y-245285793D01*
X260301620Y-245295931D01*
X260250154Y-245301000D01*
X260146892Y-245301000D01*
X260095426Y-245295931D01*
X259992491Y-245285793D01*
X259794377Y-245225695D01*
X259794374Y-245225694D01*
X259697548Y-245173939D01*
X259611794Y-245128103D01*
X259451758Y-244996765D01*
X259320420Y-244836729D01*
X259274584Y-244750975D01*
X259222829Y-244654149D01*
X259194213Y-244559815D01*
X259162730Y-244456032D01*
X259142438Y-244250000D01*
X259162730Y-244043968D01*
X259222828Y-243845854D01*
X259222829Y-243845851D01*
X259274584Y-243749025D01*
X259320420Y-243663271D01*
X259451758Y-243503235D01*
X259611794Y-243371897D01*
X259697548Y-243326061D01*
X259794374Y-243274306D01*
X259807639Y-243270282D01*
X259992491Y-243214207D01*
X260095426Y-243204069D01*
X260146892Y-243199000D01*
X260250154Y-243199000D01*
X260301620Y-243204069D01*
X260301620Y-243204069D01*
G37*
G36*
X350510442Y-241765518D02*
G01*
X350576627Y-241772037D01*
X350746466Y-241823557D01*
X350902991Y-241907222D01*
X350938729Y-241936552D01*
X351040186Y-242019814D01*
X351123448Y-242121271D01*
X351152778Y-242157009D01*
X351236443Y-242313534D01*
X351287963Y-242483373D01*
X351305359Y-242660000D01*
X351287963Y-242836627D01*
X351236443Y-243006466D01*
X351152778Y-243162991D01*
X351123448Y-243198729D01*
X351040186Y-243300186D01*
X350938729Y-243383448D01*
X350902991Y-243412778D01*
X350746466Y-243496443D01*
X350576627Y-243547963D01*
X350510442Y-243554482D01*
X350444260Y-243561000D01*
X350355740Y-243561000D01*
X350289558Y-243554482D01*
X350223373Y-243547963D01*
X350053534Y-243496443D01*
X349897009Y-243412778D01*
X349861271Y-243383448D01*
X349759814Y-243300186D01*
X349676552Y-243198729D01*
X349647222Y-243162991D01*
X349563557Y-243006466D01*
X349512037Y-242836627D01*
X349494641Y-242660000D01*
X349512037Y-242483373D01*
X349563557Y-242313534D01*
X349647222Y-242157009D01*
X349676552Y-242121271D01*
X349759814Y-242019814D01*
X349861271Y-241936552D01*
X349897009Y-241907222D01*
X350053534Y-241823557D01*
X350223373Y-241772037D01*
X350289558Y-241765518D01*
X350355740Y-241759000D01*
X350444260Y-241759000D01*
X350510442Y-241765518D01*
X350510442Y-241765518D01*
G37*
G36*
X345158674Y-241793465D02*
G01*
X345196367Y-241804899D01*
X345231103Y-241823466D01*
X345261548Y-241848452D01*
X345286534Y-241878897D01*
X345305101Y-241913633D01*
X345316535Y-241951326D01*
X345321000Y-241996661D01*
X345321000Y-243083339D01*
X345316535Y-243128674D01*
X345305101Y-243166367D01*
X345286534Y-243201103D01*
X345261548Y-243231548D01*
X345231103Y-243256534D01*
X345196367Y-243275101D01*
X345158674Y-243286535D01*
X345113339Y-243291000D01*
X344276661Y-243291000D01*
X344231326Y-243286535D01*
X344193633Y-243275101D01*
X344158897Y-243256534D01*
X344128452Y-243231548D01*
X344103466Y-243201103D01*
X344084899Y-243166367D01*
X344073465Y-243128674D01*
X344069000Y-243083339D01*
X344069000Y-241996661D01*
X344073465Y-241951326D01*
X344084899Y-241913633D01*
X344103466Y-241878897D01*
X344128452Y-241848452D01*
X344158897Y-241823466D01*
X344193633Y-241804899D01*
X344231326Y-241793465D01*
X344276661Y-241789000D01*
X345113339Y-241789000D01*
X345158674Y-241793465D01*
X345158674Y-241793465D01*
G37*
G36*
X347208674Y-241793465D02*
G01*
X347246367Y-241804899D01*
X347281103Y-241823466D01*
X347311548Y-241848452D01*
X347336534Y-241878897D01*
X347355101Y-241913633D01*
X347366535Y-241951326D01*
X347371000Y-241996661D01*
X347371000Y-243083339D01*
X347366535Y-243128674D01*
X347355101Y-243166367D01*
X347336534Y-243201103D01*
X347311548Y-243231548D01*
X347281103Y-243256534D01*
X347246367Y-243275101D01*
X347208674Y-243286535D01*
X347163339Y-243291000D01*
X346326661Y-243291000D01*
X346281326Y-243286535D01*
X346243633Y-243275101D01*
X346208897Y-243256534D01*
X346178452Y-243231548D01*
X346153466Y-243201103D01*
X346134899Y-243166367D01*
X346123465Y-243128674D01*
X346119000Y-243083339D01*
X346119000Y-241996661D01*
X346123465Y-241951326D01*
X346134899Y-241913633D01*
X346153466Y-241878897D01*
X346178452Y-241848452D01*
X346208897Y-241823466D01*
X346243633Y-241804899D01*
X346281326Y-241793465D01*
X346326661Y-241789000D01*
X347163339Y-241789000D01*
X347208674Y-241793465D01*
X347208674Y-241793465D01*
G37*
G36*
X350510443Y-239225519D02*
G01*
X350576627Y-239232037D01*
X350746466Y-239283557D01*
X350902991Y-239367222D01*
X350938729Y-239396552D01*
X351040186Y-239479814D01*
X351123448Y-239581271D01*
X351152778Y-239617009D01*
X351236443Y-239773534D01*
X351287963Y-239943373D01*
X351305359Y-240120000D01*
X351287963Y-240296627D01*
X351236443Y-240466466D01*
X351152778Y-240622991D01*
X351123448Y-240658729D01*
X351040186Y-240760186D01*
X350938729Y-240843448D01*
X350902991Y-240872778D01*
X350746466Y-240956443D01*
X350576627Y-241007963D01*
X350510442Y-241014482D01*
X350444260Y-241021000D01*
X350355740Y-241021000D01*
X350289558Y-241014482D01*
X350223373Y-241007963D01*
X350053534Y-240956443D01*
X349897009Y-240872778D01*
X349861271Y-240843448D01*
X349759814Y-240760186D01*
X349676552Y-240658729D01*
X349647222Y-240622991D01*
X349563557Y-240466466D01*
X349512037Y-240296627D01*
X349494641Y-240120000D01*
X349512037Y-239943373D01*
X349563557Y-239773534D01*
X349647222Y-239617009D01*
X349676552Y-239581271D01*
X349759814Y-239479814D01*
X349861271Y-239396552D01*
X349897009Y-239367222D01*
X350053534Y-239283557D01*
X350223373Y-239232037D01*
X350289557Y-239225519D01*
X350355740Y-239219000D01*
X350444260Y-239219000D01*
X350510443Y-239225519D01*
X350510443Y-239225519D01*
G37*
G36*
X347224565Y-239253465D02*
G01*
X347262258Y-239264899D01*
X347296994Y-239283466D01*
X347327439Y-239308452D01*
X347352425Y-239338897D01*
X347370992Y-239373633D01*
X347382426Y-239411326D01*
X347386891Y-239456661D01*
X347386891Y-240543339D01*
X347382426Y-240588674D01*
X347370992Y-240626367D01*
X347352425Y-240661103D01*
X347327439Y-240691548D01*
X347296994Y-240716534D01*
X347262258Y-240735101D01*
X347224565Y-240746535D01*
X347179230Y-240751000D01*
X346342552Y-240751000D01*
X346297217Y-240746535D01*
X346259524Y-240735101D01*
X346224788Y-240716534D01*
X346194343Y-240691548D01*
X346169357Y-240661103D01*
X346150790Y-240626367D01*
X346139356Y-240588674D01*
X346134891Y-240543339D01*
X346134891Y-239456661D01*
X346139356Y-239411326D01*
X346150790Y-239373633D01*
X346169357Y-239338897D01*
X346194343Y-239308452D01*
X346224788Y-239283466D01*
X346259524Y-239264899D01*
X346297217Y-239253465D01*
X346342552Y-239249000D01*
X347179230Y-239249000D01*
X347224565Y-239253465D01*
X347224565Y-239253465D01*
G37*
G36*
X345174565Y-239253465D02*
G01*
X345212258Y-239264899D01*
X345246994Y-239283466D01*
X345277439Y-239308452D01*
X345302425Y-239338897D01*
X345320992Y-239373633D01*
X345332426Y-239411326D01*
X345336891Y-239456661D01*
X345336891Y-240543339D01*
X345332426Y-240588674D01*
X345320992Y-240626367D01*
X345302425Y-240661103D01*
X345277439Y-240691548D01*
X345246994Y-240716534D01*
X345212258Y-240735101D01*
X345174565Y-240746535D01*
X345129230Y-240751000D01*
X344292552Y-240751000D01*
X344247217Y-240746535D01*
X344209524Y-240735101D01*
X344174788Y-240716534D01*
X344144343Y-240691548D01*
X344119357Y-240661103D01*
X344100790Y-240626367D01*
X344089356Y-240588674D01*
X344084891Y-240543339D01*
X344084891Y-239456661D01*
X344089356Y-239411326D01*
X344100790Y-239373633D01*
X344119357Y-239338897D01*
X344144343Y-239308452D01*
X344174788Y-239283466D01*
X344209524Y-239264899D01*
X344247217Y-239253465D01*
X344292552Y-239249000D01*
X345129230Y-239249000D01*
X345174565Y-239253465D01*
X345174565Y-239253465D01*
G37*
G36*
X350510443Y-236685519D02*
G01*
X350576627Y-236692037D01*
X350746466Y-236743557D01*
X350746468Y-236743558D01*
X350766434Y-236754230D01*
X350902991Y-236827222D01*
X350938729Y-236856552D01*
X351040186Y-236939814D01*
X351123448Y-237041271D01*
X351152778Y-237077009D01*
X351236443Y-237233534D01*
X351287963Y-237403373D01*
X351305359Y-237580000D01*
X351287963Y-237756627D01*
X351236443Y-237926466D01*
X351152778Y-238082991D01*
X351148114Y-238088674D01*
X351040186Y-238220186D01*
X350938729Y-238303448D01*
X350902991Y-238332778D01*
X350746466Y-238416443D01*
X350576627Y-238467963D01*
X350510442Y-238474482D01*
X350444260Y-238481000D01*
X350355740Y-238481000D01*
X350289558Y-238474482D01*
X350223373Y-238467963D01*
X350053534Y-238416443D01*
X349897009Y-238332778D01*
X349861271Y-238303448D01*
X349759814Y-238220186D01*
X349651886Y-238088674D01*
X349647222Y-238082991D01*
X349563557Y-237926466D01*
X349512037Y-237756627D01*
X349494641Y-237580000D01*
X349512037Y-237403373D01*
X349563557Y-237233534D01*
X349647222Y-237077009D01*
X349676552Y-237041271D01*
X349759814Y-236939814D01*
X349861271Y-236856552D01*
X349897009Y-236827222D01*
X350033566Y-236754230D01*
X350053532Y-236743558D01*
X350053534Y-236743557D01*
X350223373Y-236692037D01*
X350289557Y-236685519D01*
X350355740Y-236679000D01*
X350444260Y-236679000D01*
X350510443Y-236685519D01*
X350510443Y-236685519D01*
G37*
G36*
X345158674Y-236753465D02*
G01*
X345196367Y-236764899D01*
X345231103Y-236783466D01*
X345261548Y-236808452D01*
X345286534Y-236838897D01*
X345305101Y-236873633D01*
X345316535Y-236911326D01*
X345321000Y-236956661D01*
X345321000Y-238043339D01*
X345316535Y-238088674D01*
X345305101Y-238126367D01*
X345286534Y-238161103D01*
X345261548Y-238191548D01*
X345231103Y-238216534D01*
X345196367Y-238235101D01*
X345158674Y-238246535D01*
X345113339Y-238251000D01*
X344276661Y-238251000D01*
X344231326Y-238246535D01*
X344193633Y-238235101D01*
X344158897Y-238216534D01*
X344128452Y-238191548D01*
X344103466Y-238161103D01*
X344084899Y-238126367D01*
X344073465Y-238088674D01*
X344069000Y-238043339D01*
X344069000Y-236956661D01*
X344073465Y-236911326D01*
X344084899Y-236873633D01*
X344103466Y-236838897D01*
X344128452Y-236808452D01*
X344158897Y-236783466D01*
X344193633Y-236764899D01*
X344231326Y-236753465D01*
X344276661Y-236749000D01*
X345113339Y-236749000D01*
X345158674Y-236753465D01*
X345158674Y-236753465D01*
G37*
G36*
X347208674Y-236753465D02*
G01*
X347246367Y-236764899D01*
X347281103Y-236783466D01*
X347311548Y-236808452D01*
X347336534Y-236838897D01*
X347355101Y-236873633D01*
X347366535Y-236911326D01*
X347371000Y-236956661D01*
X347371000Y-238043339D01*
X347366535Y-238088674D01*
X347355101Y-238126367D01*
X347336534Y-238161103D01*
X347311548Y-238191548D01*
X347281103Y-238216534D01*
X347246367Y-238235101D01*
X347208674Y-238246535D01*
X347163339Y-238251000D01*
X346326661Y-238251000D01*
X346281326Y-238246535D01*
X346243633Y-238235101D01*
X346208897Y-238216534D01*
X346178452Y-238191548D01*
X346153466Y-238161103D01*
X346134899Y-238126367D01*
X346123465Y-238088674D01*
X346119000Y-238043339D01*
X346119000Y-236956661D01*
X346123465Y-236911326D01*
X346134899Y-236873633D01*
X346153466Y-236838897D01*
X346178452Y-236808452D01*
X346208897Y-236783466D01*
X346243633Y-236764899D01*
X346281326Y-236753465D01*
X346326661Y-236749000D01*
X347163339Y-236749000D01*
X347208674Y-236753465D01*
X347208674Y-236753465D01*
G37*
G36*
X350510443Y-234145519D02*
G01*
X350576627Y-234152037D01*
X350746466Y-234203557D01*
X350902991Y-234287222D01*
X350938729Y-234316552D01*
X351040186Y-234399814D01*
X351123448Y-234501271D01*
X351152778Y-234537009D01*
X351236443Y-234693534D01*
X351287963Y-234863373D01*
X351305359Y-235040000D01*
X351287963Y-235216627D01*
X351236443Y-235386466D01*
X351152778Y-235542991D01*
X351123448Y-235578729D01*
X351040186Y-235680186D01*
X350938729Y-235763448D01*
X350902991Y-235792778D01*
X350746466Y-235876443D01*
X350576627Y-235927963D01*
X350510443Y-235934481D01*
X350444260Y-235941000D01*
X350355740Y-235941000D01*
X350289557Y-235934481D01*
X350223373Y-235927963D01*
X350053534Y-235876443D01*
X349897009Y-235792778D01*
X349861271Y-235763448D01*
X349759814Y-235680186D01*
X349676552Y-235578729D01*
X349647222Y-235542991D01*
X349563557Y-235386466D01*
X349512037Y-235216627D01*
X349494641Y-235040000D01*
X349512037Y-234863373D01*
X349563557Y-234693534D01*
X349647222Y-234537009D01*
X349676552Y-234501271D01*
X349759814Y-234399814D01*
X349861271Y-234316552D01*
X349897009Y-234287222D01*
X350053534Y-234203557D01*
X350223373Y-234152037D01*
X350289557Y-234145519D01*
X350355740Y-234139000D01*
X350444260Y-234139000D01*
X350510443Y-234145519D01*
X350510443Y-234145519D01*
G37*
G36*
X342618674Y-234173465D02*
G01*
X342656367Y-234184899D01*
X342691103Y-234203466D01*
X342721548Y-234228452D01*
X342746534Y-234258897D01*
X342765101Y-234293633D01*
X342776535Y-234331326D01*
X342781000Y-234376661D01*
X342781000Y-235463339D01*
X342776535Y-235508674D01*
X342765101Y-235546367D01*
X342746534Y-235581103D01*
X342721548Y-235611548D01*
X342691103Y-235636534D01*
X342656367Y-235655101D01*
X342618674Y-235666535D01*
X342573339Y-235671000D01*
X341736661Y-235671000D01*
X341691326Y-235666535D01*
X341653633Y-235655101D01*
X341618897Y-235636534D01*
X341588452Y-235611548D01*
X341563466Y-235581103D01*
X341544899Y-235546367D01*
X341533465Y-235508674D01*
X341529000Y-235463339D01*
X341529000Y-234376661D01*
X341533465Y-234331326D01*
X341544899Y-234293633D01*
X341563466Y-234258897D01*
X341588452Y-234228452D01*
X341618897Y-234203466D01*
X341653633Y-234184899D01*
X341691326Y-234173465D01*
X341736661Y-234169000D01*
X342573339Y-234169000D01*
X342618674Y-234173465D01*
X342618674Y-234173465D01*
G37*
G36*
X344668674Y-234173465D02*
G01*
X344706367Y-234184899D01*
X344741103Y-234203466D01*
X344771548Y-234228452D01*
X344796534Y-234258897D01*
X344815101Y-234293633D01*
X344826535Y-234331326D01*
X344831000Y-234376661D01*
X344831000Y-235463339D01*
X344826535Y-235508674D01*
X344815101Y-235546367D01*
X344796534Y-235581103D01*
X344771548Y-235611548D01*
X344741103Y-235636534D01*
X344706367Y-235655101D01*
X344668674Y-235666535D01*
X344623339Y-235671000D01*
X343786661Y-235671000D01*
X343741326Y-235666535D01*
X343703633Y-235655101D01*
X343668897Y-235636534D01*
X343638452Y-235611548D01*
X343613466Y-235581103D01*
X343594899Y-235546367D01*
X343583465Y-235508674D01*
X343579000Y-235463339D01*
X343579000Y-234376661D01*
X343583465Y-234331326D01*
X343594899Y-234293633D01*
X343613466Y-234258897D01*
X343638452Y-234228452D01*
X343668897Y-234203466D01*
X343703633Y-234184899D01*
X343741326Y-234173465D01*
X343786661Y-234169000D01*
X344623339Y-234169000D01*
X344668674Y-234173465D01*
X344668674Y-234173465D01*
G37*
G36*
X339958674Y-232783465D02*
G01*
X339996367Y-232794899D01*
X340031103Y-232813466D01*
X340061548Y-232838452D01*
X340086534Y-232868897D01*
X340105101Y-232903633D01*
X340116535Y-232941326D01*
X340121000Y-232986661D01*
X340121000Y-233823339D01*
X340116535Y-233868674D01*
X340105101Y-233906367D01*
X340086534Y-233941103D01*
X340061548Y-233971548D01*
X340031103Y-233996534D01*
X339996367Y-234015101D01*
X339958674Y-234026535D01*
X339913339Y-234031000D01*
X338826661Y-234031000D01*
X338781326Y-234026535D01*
X338743633Y-234015101D01*
X338708897Y-233996534D01*
X338678452Y-233971548D01*
X338653466Y-233941103D01*
X338634899Y-233906367D01*
X338623465Y-233868674D01*
X338619000Y-233823339D01*
X338619000Y-232986661D01*
X338623465Y-232941326D01*
X338634899Y-232903633D01*
X338653466Y-232868897D01*
X338678452Y-232838452D01*
X338708897Y-232813466D01*
X338743633Y-232794899D01*
X338781326Y-232783465D01*
X338826661Y-232779000D01*
X339913339Y-232779000D01*
X339958674Y-232783465D01*
X339958674Y-232783465D01*
G37*
G36*
X351301000Y-233401000D02*
G01*
X349499000Y-233401000D01*
X349499000Y-231599000D01*
X351301000Y-231599000D01*
X351301000Y-233401000D01*
X351301000Y-233401000D01*
G37*
G36*
X339958674Y-230733465D02*
G01*
X339996367Y-230744899D01*
X340031103Y-230763466D01*
X340061548Y-230788452D01*
X340086534Y-230818897D01*
X340105101Y-230853633D01*
X340116535Y-230891326D01*
X340121000Y-230936661D01*
X340121000Y-231773339D01*
X340116535Y-231818674D01*
X340105101Y-231856367D01*
X340086534Y-231891103D01*
X340061548Y-231921548D01*
X340031103Y-231946534D01*
X339996367Y-231965101D01*
X339958674Y-231976535D01*
X339913339Y-231981000D01*
X338826661Y-231981000D01*
X338781326Y-231976535D01*
X338743633Y-231965101D01*
X338708897Y-231946534D01*
X338678452Y-231921548D01*
X338653466Y-231891103D01*
X338634899Y-231856367D01*
X338623465Y-231818674D01*
X338619000Y-231773339D01*
X338619000Y-230936661D01*
X338623465Y-230891326D01*
X338634899Y-230853633D01*
X338653466Y-230818897D01*
X338678452Y-230788452D01*
X338708897Y-230763466D01*
X338743633Y-230744899D01*
X338781326Y-230733465D01*
X338826661Y-230729000D01*
X339913339Y-230729000D01*
X339958674Y-230733465D01*
X339958674Y-230733465D01*
G37*
G36*
X347698674Y-227823465D02*
G01*
X347736367Y-227834899D01*
X347771103Y-227853466D01*
X347801548Y-227878452D01*
X347826534Y-227908897D01*
X347845101Y-227943633D01*
X347856535Y-227981326D01*
X347861000Y-228026661D01*
X347861000Y-229113339D01*
X347856535Y-229158674D01*
X347845101Y-229196367D01*
X347826534Y-229231103D01*
X347801548Y-229261548D01*
X347771103Y-229286534D01*
X347736367Y-229305101D01*
X347698674Y-229316535D01*
X347653339Y-229321000D01*
X346816661Y-229321000D01*
X346771326Y-229316535D01*
X346733633Y-229305101D01*
X346698897Y-229286534D01*
X346668452Y-229261548D01*
X346643466Y-229231103D01*
X346624899Y-229196367D01*
X346613465Y-229158674D01*
X346609000Y-229113339D01*
X346609000Y-228026661D01*
X346613465Y-227981326D01*
X346624899Y-227943633D01*
X346643466Y-227908897D01*
X346668452Y-227878452D01*
X346698897Y-227853466D01*
X346733633Y-227834899D01*
X346771326Y-227823465D01*
X346816661Y-227819000D01*
X347653339Y-227819000D01*
X347698674Y-227823465D01*
X347698674Y-227823465D01*
G37*
G36*
X349748674Y-227823465D02*
G01*
X349786367Y-227834899D01*
X349821103Y-227853466D01*
X349851548Y-227878452D01*
X349876534Y-227908897D01*
X349895101Y-227943633D01*
X349906535Y-227981326D01*
X349911000Y-228026661D01*
X349911000Y-229113339D01*
X349906535Y-229158674D01*
X349895101Y-229196367D01*
X349876534Y-229231103D01*
X349851548Y-229261548D01*
X349821103Y-229286534D01*
X349786367Y-229305101D01*
X349748674Y-229316535D01*
X349703339Y-229321000D01*
X348866661Y-229321000D01*
X348821326Y-229316535D01*
X348783633Y-229305101D01*
X348748897Y-229286534D01*
X348718452Y-229261548D01*
X348693466Y-229231103D01*
X348674899Y-229196367D01*
X348663465Y-229158674D01*
X348659000Y-229113339D01*
X348659000Y-228026661D01*
X348663465Y-227981326D01*
X348674899Y-227943633D01*
X348693466Y-227908897D01*
X348718452Y-227878452D01*
X348748897Y-227853466D01*
X348783633Y-227834899D01*
X348821326Y-227823465D01*
X348866661Y-227819000D01*
X349703339Y-227819000D01*
X349748674Y-227823465D01*
X349748674Y-227823465D01*
G37*
G36*
X251175401Y-226655777D02*
G01*
X251237717Y-226672475D01*
X251237720Y-226672475D01*
X252162743Y-226920334D01*
X252162745Y-226920335D01*
X252225060Y-226937032D01*
X252267691Y-226953077D01*
X252301141Y-226973878D01*
X252329885Y-227000799D01*
X252352828Y-227032815D01*
X252369082Y-227068690D01*
X252378027Y-227107051D01*
X252379315Y-227146415D01*
X252371895Y-227191356D01*
X252355201Y-227253660D01*
X252355198Y-227253677D01*
X252182359Y-227898718D01*
X252155347Y-227999529D01*
X252139298Y-228042170D01*
X252118499Y-228075617D01*
X252091580Y-228104360D01*
X252059560Y-228127304D01*
X252023687Y-228143559D01*
X251985327Y-228152503D01*
X251945962Y-228153791D01*
X251901019Y-228146371D01*
X251838703Y-228129673D01*
X251838700Y-228129673D01*
X250913677Y-227881814D01*
X250913675Y-227881813D01*
X250851360Y-227865116D01*
X250808729Y-227849071D01*
X250775279Y-227828270D01*
X250746535Y-227801349D01*
X250723592Y-227769333D01*
X250707338Y-227733458D01*
X250698393Y-227695097D01*
X250697105Y-227655733D01*
X250704525Y-227610792D01*
X250721219Y-227548488D01*
X250721222Y-227548471D01*
X250904377Y-226864930D01*
X250921073Y-226802619D01*
X250937122Y-226759978D01*
X250957921Y-226726531D01*
X250984840Y-226697788D01*
X251016860Y-226674844D01*
X251052733Y-226658589D01*
X251091093Y-226649645D01*
X251130458Y-226648357D01*
X251175401Y-226655777D01*
X251175401Y-226655777D01*
G37*
G36*
X337481760Y-224966156D02*
G01*
X337636632Y-225030306D01*
X337776013Y-225123438D01*
X337894547Y-225241972D01*
X337987679Y-225381353D01*
X338051829Y-225536225D01*
X338084532Y-225700637D01*
X338084532Y-225868269D01*
X338051829Y-226032681D01*
X337987679Y-226187553D01*
X337894547Y-226326934D01*
X337776013Y-226445468D01*
X337636632Y-226538600D01*
X337481760Y-226602750D01*
X337317348Y-226635453D01*
X337149716Y-226635453D01*
X336985304Y-226602750D01*
X336830432Y-226538600D01*
X336691051Y-226445468D01*
X336572517Y-226326934D01*
X336479385Y-226187553D01*
X336415235Y-226032681D01*
X336382532Y-225868269D01*
X336382532Y-225700637D01*
X336415235Y-225536225D01*
X336479385Y-225381353D01*
X336572517Y-225241972D01*
X336691051Y-225123438D01*
X336830432Y-225030306D01*
X336985304Y-224966156D01*
X337149716Y-224933453D01*
X337317348Y-224933453D01*
X337481760Y-224966156D01*
X337481760Y-224966156D01*
G37*
G36*
X251705981Y-224675629D02*
G01*
X251768297Y-224692327D01*
X251768300Y-224692327D01*
X252693323Y-224940186D01*
X252693325Y-224940187D01*
X252755640Y-224956884D01*
X252798271Y-224972929D01*
X252831721Y-224993730D01*
X252860465Y-225020651D01*
X252883408Y-225052667D01*
X252899662Y-225088542D01*
X252908607Y-225126903D01*
X252909895Y-225166267D01*
X252902475Y-225211208D01*
X252885781Y-225273512D01*
X252885778Y-225273529D01*
X252710742Y-225926770D01*
X252685927Y-226019381D01*
X252669878Y-226062022D01*
X252649079Y-226095469D01*
X252622160Y-226124212D01*
X252590140Y-226147156D01*
X252554267Y-226163411D01*
X252515907Y-226172355D01*
X252476542Y-226173643D01*
X252431599Y-226166223D01*
X252369283Y-226149525D01*
X252369280Y-226149525D01*
X251444257Y-225901666D01*
X251444255Y-225901665D01*
X251381940Y-225884968D01*
X251339309Y-225868923D01*
X251305859Y-225848122D01*
X251277115Y-225821201D01*
X251254172Y-225789185D01*
X251237918Y-225753310D01*
X251228973Y-225714949D01*
X251227685Y-225675585D01*
X251235105Y-225630644D01*
X251251799Y-225568340D01*
X251251802Y-225568323D01*
X251434957Y-224884782D01*
X251451653Y-224822471D01*
X251467702Y-224779830D01*
X251488501Y-224746383D01*
X251515420Y-224717640D01*
X251547440Y-224694696D01*
X251583313Y-224678441D01*
X251621673Y-224669497D01*
X251661038Y-224668209D01*
X251705981Y-224675629D01*
X251705981Y-224675629D01*
G37*
G36*
X348379487Y-222748996D02*
G01*
X348601415Y-222840922D01*
X348616255Y-222847069D01*
X348829339Y-222989447D01*
X349010553Y-223170661D01*
X349152932Y-223383747D01*
X349251004Y-223620513D01*
X349301000Y-223871861D01*
X349301000Y-224128139D01*
X349251004Y-224379487D01*
X349152932Y-224616253D01*
X349152931Y-224616255D01*
X349010553Y-224829339D01*
X348829339Y-225010553D01*
X348616255Y-225152931D01*
X348616254Y-225152932D01*
X348616253Y-225152932D01*
X348379487Y-225251004D01*
X348128139Y-225301000D01*
X347871861Y-225301000D01*
X347620513Y-225251004D01*
X347383747Y-225152932D01*
X347383746Y-225152932D01*
X347383745Y-225152931D01*
X347170661Y-225010553D01*
X346989447Y-224829339D01*
X346847069Y-224616255D01*
X346847068Y-224616253D01*
X346748996Y-224379487D01*
X346699000Y-224128139D01*
X346699000Y-223871861D01*
X346748996Y-223620513D01*
X346847068Y-223383747D01*
X346989447Y-223170661D01*
X347170661Y-222989447D01*
X347383745Y-222847069D01*
X347398585Y-222840922D01*
X347620513Y-222748996D01*
X347871861Y-222699000D01*
X348128139Y-222699000D01*
X348379487Y-222748996D01*
X348379487Y-222748996D01*
G37*
G36*
X337519211Y-224383457D02*
G01*
X335976675Y-225102753D01*
X335257379Y-223560217D01*
X336799915Y-222840921D01*
X337519211Y-224383457D01*
X337519211Y-224383457D01*
G37*
G36*
X341173359Y-223830192D02*
G01*
X339268300Y-224718535D01*
X338591265Y-223266630D01*
X340496324Y-222378287D01*
X341173359Y-223830192D01*
X341173359Y-223830192D01*
G37*
G36*
X340201337Y-221745685D02*
G01*
X338296278Y-222634028D01*
X337619243Y-221182123D01*
X339524302Y-220293780D01*
X340201337Y-221745685D01*
X340201337Y-221745685D01*
G37*
G36*
X346397088Y-220125443D02*
G01*
X344492029Y-221013786D01*
X342842972Y-217477373D01*
X344748031Y-216589030D01*
X346397088Y-220125443D01*
X346397088Y-220125443D01*
G37*
G36*
X339229315Y-219661177D02*
G01*
X337324256Y-220549520D01*
X336647221Y-219097615D01*
X338552280Y-218209272D01*
X339229315Y-219661177D01*
X339229315Y-219661177D01*
G37*
G36*
X335585232Y-215406812D02*
G01*
X335777595Y-215486491D01*
X335812900Y-215501115D01*
X336017795Y-215638022D01*
X336192044Y-215812271D01*
X336328951Y-216017166D01*
X336423254Y-216244834D01*
X336471329Y-216486524D01*
X336471329Y-216732950D01*
X336423254Y-216974640D01*
X336328951Y-217202308D01*
X336192044Y-217407203D01*
X336017795Y-217581452D01*
X335812900Y-217718359D01*
X335812899Y-217718360D01*
X335812898Y-217718360D01*
X335585232Y-217812662D01*
X335343543Y-217860737D01*
X335097115Y-217860737D01*
X334855426Y-217812662D01*
X334627760Y-217718360D01*
X334627759Y-217718360D01*
X334627758Y-217718359D01*
X334422863Y-217581452D01*
X334248614Y-217407203D01*
X334111707Y-217202308D01*
X334017404Y-216974640D01*
X333969329Y-216732950D01*
X333969329Y-216486524D01*
X334017404Y-216244834D01*
X334111707Y-216017166D01*
X334248614Y-215812271D01*
X334422863Y-215638022D01*
X334627758Y-215501115D01*
X334663064Y-215486491D01*
X334855426Y-215406812D01*
X335097115Y-215358737D01*
X335343543Y-215358737D01*
X335585232Y-215406812D01*
X335585232Y-215406812D01*
G37*
G36*
X333011621Y-214383250D02*
G01*
X333056403Y-214391651D01*
X333092955Y-214406326D01*
X333125934Y-214427846D01*
X333154091Y-214455395D01*
X333176328Y-214487902D01*
X333191796Y-214524122D01*
X333199900Y-214562664D01*
X333200397Y-214608229D01*
X333127477Y-215441709D01*
X333119076Y-215486491D01*
X333104401Y-215523043D01*
X333082881Y-215556022D01*
X333055332Y-215584179D01*
X333022825Y-215606416D01*
X332986605Y-215621884D01*
X332948063Y-215629988D01*
X332902498Y-215630485D01*
X331819969Y-215535776D01*
X331775187Y-215527375D01*
X331738635Y-215512700D01*
X331705656Y-215491180D01*
X331677499Y-215463631D01*
X331655262Y-215431124D01*
X331639794Y-215394904D01*
X331631690Y-215356362D01*
X331631193Y-215310797D01*
X331704113Y-214477317D01*
X331712514Y-214432535D01*
X331727189Y-214395983D01*
X331748709Y-214363004D01*
X331776258Y-214334847D01*
X331808765Y-214312610D01*
X331844985Y-214297142D01*
X331883527Y-214289038D01*
X331929092Y-214288541D01*
X333011621Y-214383250D01*
X333011621Y-214383250D01*
G37*
G36*
X299588674Y-213403465D02*
G01*
X299626367Y-213414899D01*
X299661103Y-213433466D01*
X299691548Y-213458452D01*
X299716534Y-213488897D01*
X299735101Y-213523633D01*
X299746535Y-213561326D01*
X299751000Y-213606661D01*
X299751000Y-214443339D01*
X299746535Y-214488674D01*
X299735101Y-214526367D01*
X299716534Y-214561103D01*
X299691548Y-214591548D01*
X299661103Y-214616534D01*
X299626367Y-214635101D01*
X299588674Y-214646535D01*
X299543339Y-214651000D01*
X298456661Y-214651000D01*
X298411326Y-214646535D01*
X298373633Y-214635101D01*
X298338897Y-214616534D01*
X298308452Y-214591548D01*
X298283466Y-214561103D01*
X298264899Y-214526367D01*
X298253465Y-214488674D01*
X298249000Y-214443339D01*
X298249000Y-213606661D01*
X298253465Y-213561326D01*
X298264899Y-213523633D01*
X298283466Y-213488897D01*
X298308452Y-213458452D01*
X298338897Y-213433466D01*
X298373633Y-213414899D01*
X298411326Y-213403465D01*
X298456661Y-213399000D01*
X299543339Y-213399000D01*
X299588674Y-213403465D01*
X299588674Y-213403465D01*
G37*
G36*
X296588674Y-213403465D02*
G01*
X296626367Y-213414899D01*
X296661103Y-213433466D01*
X296691548Y-213458452D01*
X296716534Y-213488897D01*
X296735101Y-213523633D01*
X296746535Y-213561326D01*
X296751000Y-213606661D01*
X296751000Y-214443339D01*
X296746535Y-214488674D01*
X296735101Y-214526367D01*
X296716534Y-214561103D01*
X296691548Y-214591548D01*
X296661103Y-214616534D01*
X296626367Y-214635101D01*
X296588674Y-214646535D01*
X296543339Y-214651000D01*
X295456661Y-214651000D01*
X295411326Y-214646535D01*
X295373633Y-214635101D01*
X295338897Y-214616534D01*
X295308452Y-214591548D01*
X295283466Y-214561103D01*
X295264899Y-214526367D01*
X295253465Y-214488674D01*
X295249000Y-214443339D01*
X295249000Y-213606661D01*
X295253465Y-213561326D01*
X295264899Y-213523633D01*
X295283466Y-213488897D01*
X295308452Y-213458452D01*
X295338897Y-213433466D01*
X295373633Y-213414899D01*
X295411326Y-213403465D01*
X295456661Y-213399000D01*
X296543339Y-213399000D01*
X296588674Y-213403465D01*
X296588674Y-213403465D01*
G37*
G36*
X341319296Y-211391777D02*
G01*
X341516915Y-211473633D01*
X341546964Y-211486080D01*
X341751859Y-211622987D01*
X341926108Y-211797236D01*
X341926109Y-211797238D01*
X342063016Y-212002133D01*
X342157318Y-212229799D01*
X342190040Y-212394301D01*
X342205393Y-212471489D01*
X342205393Y-212717915D01*
X342157318Y-212959605D01*
X342063015Y-213187273D01*
X341926108Y-213392168D01*
X341751859Y-213566417D01*
X341546964Y-213703324D01*
X341546963Y-213703325D01*
X341546962Y-213703325D01*
X341319296Y-213797627D01*
X341077607Y-213845702D01*
X340831179Y-213845702D01*
X340589490Y-213797627D01*
X340361824Y-213703325D01*
X340361823Y-213703325D01*
X340361822Y-213703324D01*
X340156927Y-213566417D01*
X339982678Y-213392168D01*
X339845771Y-213187273D01*
X339751468Y-212959605D01*
X339703393Y-212717915D01*
X339703393Y-212471489D01*
X339718747Y-212394301D01*
X339751468Y-212229799D01*
X339845770Y-212002133D01*
X339982677Y-211797238D01*
X339982678Y-211797236D01*
X340156927Y-211622987D01*
X340361822Y-211486080D01*
X340391872Y-211473633D01*
X340589490Y-211391777D01*
X340831179Y-211343702D01*
X341077607Y-211343702D01*
X341319296Y-211391777D01*
X341319296Y-211391777D01*
G37*
G36*
X333190291Y-212341050D02*
G01*
X333235073Y-212349451D01*
X333271625Y-212364126D01*
X333304604Y-212385646D01*
X333332761Y-212413195D01*
X333354998Y-212445702D01*
X333370466Y-212481922D01*
X333378570Y-212520464D01*
X333379067Y-212566029D01*
X333306147Y-213399509D01*
X333297746Y-213444291D01*
X333283071Y-213480843D01*
X333261551Y-213513822D01*
X333234002Y-213541979D01*
X333201495Y-213564216D01*
X333165275Y-213579684D01*
X333126733Y-213587788D01*
X333081168Y-213588285D01*
X331998639Y-213493576D01*
X331953857Y-213485175D01*
X331917305Y-213470500D01*
X331884326Y-213448980D01*
X331856169Y-213421431D01*
X331833932Y-213388924D01*
X331818464Y-213352704D01*
X331810360Y-213314162D01*
X331809863Y-213268597D01*
X331882783Y-212435117D01*
X331891184Y-212390335D01*
X331905859Y-212353783D01*
X331927379Y-212320804D01*
X331954928Y-212292647D01*
X331987435Y-212270410D01*
X332023655Y-212254942D01*
X332062197Y-212246838D01*
X332107762Y-212246341D01*
X333190291Y-212341050D01*
X333190291Y-212341050D01*
G37*
G36*
X263169358Y-211536054D02*
G01*
X261788946Y-212694358D01*
X260630642Y-211313946D01*
X262011054Y-210155642D01*
X263169358Y-211536054D01*
X263169358Y-211536054D01*
G37*
G36*
X299588674Y-211353465D02*
G01*
X299626367Y-211364899D01*
X299661103Y-211383466D01*
X299691548Y-211408452D01*
X299716534Y-211438897D01*
X299735101Y-211473633D01*
X299746535Y-211511326D01*
X299751000Y-211556661D01*
X299751000Y-212393339D01*
X299746535Y-212438674D01*
X299735101Y-212476367D01*
X299716534Y-212511103D01*
X299691548Y-212541548D01*
X299661103Y-212566534D01*
X299626367Y-212585101D01*
X299588674Y-212596535D01*
X299543339Y-212601000D01*
X298456661Y-212601000D01*
X298411326Y-212596535D01*
X298373633Y-212585101D01*
X298338897Y-212566534D01*
X298308452Y-212541548D01*
X298283466Y-212511103D01*
X298264899Y-212476367D01*
X298253465Y-212438674D01*
X298249000Y-212393339D01*
X298249000Y-211556661D01*
X298253465Y-211511326D01*
X298264899Y-211473633D01*
X298283466Y-211438897D01*
X298308452Y-211408452D01*
X298338897Y-211383466D01*
X298373633Y-211364899D01*
X298411326Y-211353465D01*
X298456661Y-211349000D01*
X299543339Y-211349000D01*
X299588674Y-211353465D01*
X299588674Y-211353465D01*
G37*
G36*
X296588674Y-211353465D02*
G01*
X296626367Y-211364899D01*
X296661103Y-211383466D01*
X296691548Y-211408452D01*
X296716534Y-211438897D01*
X296735101Y-211473633D01*
X296746535Y-211511326D01*
X296751000Y-211556661D01*
X296751000Y-212393339D01*
X296746535Y-212438674D01*
X296735101Y-212476367D01*
X296716534Y-212511103D01*
X296691548Y-212541548D01*
X296661103Y-212566534D01*
X296626367Y-212585101D01*
X296588674Y-212596535D01*
X296543339Y-212601000D01*
X295456661Y-212601000D01*
X295411326Y-212596535D01*
X295373633Y-212585101D01*
X295338897Y-212566534D01*
X295308452Y-212541548D01*
X295283466Y-212511103D01*
X295264899Y-212476367D01*
X295253465Y-212438674D01*
X295249000Y-212393339D01*
X295249000Y-211556661D01*
X295253465Y-211511326D01*
X295264899Y-211473633D01*
X295283466Y-211438897D01*
X295308452Y-211408452D01*
X295338897Y-211383466D01*
X295373633Y-211364899D01*
X295411326Y-211353465D01*
X295456661Y-211349000D01*
X296543339Y-211349000D01*
X296588674Y-211353465D01*
X296588674Y-211353465D01*
G37*
G36*
X334370624Y-209875473D02*
G01*
X334408554Y-209886081D01*
X334443690Y-209903887D01*
X334474672Y-209928202D01*
X334504336Y-209962781D01*
X335127627Y-210852933D01*
X335149971Y-210892628D01*
X335162225Y-210930064D01*
X335166939Y-210969164D01*
X335163934Y-211008439D01*
X335153326Y-211046369D01*
X335135520Y-211081505D01*
X335111205Y-211112487D01*
X335076626Y-211142151D01*
X334391262Y-211622048D01*
X334351567Y-211644392D01*
X334314131Y-211656646D01*
X334275031Y-211661360D01*
X334235756Y-211658355D01*
X334197826Y-211647747D01*
X334162690Y-211629941D01*
X334131708Y-211605626D01*
X334102044Y-211571047D01*
X333478753Y-210680895D01*
X333456409Y-210641200D01*
X333444155Y-210603764D01*
X333439441Y-210564664D01*
X333442446Y-210525389D01*
X333453054Y-210487459D01*
X333470860Y-210452323D01*
X333495175Y-210421341D01*
X333529754Y-210391677D01*
X334215118Y-209911780D01*
X334254813Y-209889436D01*
X334292249Y-209877182D01*
X334331349Y-209872468D01*
X334370624Y-209875473D01*
X334370624Y-209875473D01*
G37*
G36*
X263953704Y-208895140D02*
G01*
X264108565Y-208925943D01*
X264272537Y-208993863D01*
X264420107Y-209092466D01*
X264545606Y-209217965D01*
X264644209Y-209365535D01*
X264712129Y-209529507D01*
X264746753Y-209703578D01*
X264746753Y-209881060D01*
X264712129Y-210055131D01*
X264644209Y-210219103D01*
X264545606Y-210366673D01*
X264420107Y-210492172D01*
X264272537Y-210590775D01*
X264108565Y-210658695D01*
X263965026Y-210687246D01*
X263934495Y-210693319D01*
X263757011Y-210693319D01*
X263726480Y-210687246D01*
X263582941Y-210658695D01*
X263418969Y-210590775D01*
X263271399Y-210492172D01*
X263145900Y-210366673D01*
X263047297Y-210219103D01*
X262979377Y-210055131D01*
X262944753Y-209881060D01*
X262944753Y-209703578D01*
X262979377Y-209529507D01*
X263047297Y-209365535D01*
X263145900Y-209217965D01*
X263271399Y-209092466D01*
X263418969Y-208993863D01*
X263582941Y-208925943D01*
X263737802Y-208895140D01*
X263757011Y-208891319D01*
X263934495Y-208891319D01*
X263953704Y-208895140D01*
X263953704Y-208895140D01*
G37*
G36*
X336049886Y-208699641D02*
G01*
X336087816Y-208710249D01*
X336122952Y-208728055D01*
X336153934Y-208752370D01*
X336183598Y-208786949D01*
X336806889Y-209677101D01*
X336829233Y-209716796D01*
X336841487Y-209754232D01*
X336846201Y-209793332D01*
X336843196Y-209832607D01*
X336832588Y-209870537D01*
X336814782Y-209905673D01*
X336790467Y-209936655D01*
X336755888Y-209966319D01*
X336070524Y-210446216D01*
X336030829Y-210468560D01*
X335993393Y-210480814D01*
X335954293Y-210485528D01*
X335915018Y-210482523D01*
X335877088Y-210471915D01*
X335841952Y-210454109D01*
X335810970Y-210429794D01*
X335781306Y-210395215D01*
X335158015Y-209505063D01*
X335135671Y-209465368D01*
X335123417Y-209427932D01*
X335118703Y-209388832D01*
X335121708Y-209349557D01*
X335132316Y-209311627D01*
X335150122Y-209276491D01*
X335174437Y-209245509D01*
X335209016Y-209215845D01*
X335894380Y-208735948D01*
X335934075Y-208713604D01*
X335971511Y-208701350D01*
X336010611Y-208696636D01*
X336049886Y-208699641D01*
X336049886Y-208699641D01*
G37*
G36*
X260370348Y-208581089D02*
G01*
X260530131Y-208612871D01*
X260694103Y-208680791D01*
X260841673Y-208779394D01*
X260967172Y-208904893D01*
X261065775Y-209052463D01*
X261133695Y-209216435D01*
X261168319Y-209390506D01*
X261168319Y-209567988D01*
X261133695Y-209742059D01*
X261065775Y-209906031D01*
X260967172Y-210053601D01*
X260841673Y-210179100D01*
X260694103Y-210277703D01*
X260530131Y-210345623D01*
X260380831Y-210375320D01*
X260356061Y-210380247D01*
X260178577Y-210380247D01*
X260153807Y-210375320D01*
X260004507Y-210345623D01*
X259840535Y-210277703D01*
X259692965Y-210179100D01*
X259567466Y-210053601D01*
X259468863Y-209906031D01*
X259400943Y-209742059D01*
X259366319Y-209567988D01*
X259366319Y-209390506D01*
X259400943Y-209216435D01*
X259468863Y-209052463D01*
X259567466Y-208904893D01*
X259692965Y-208779394D01*
X259840535Y-208680791D01*
X260004507Y-208612871D01*
X260164290Y-208581089D01*
X260178577Y-208578247D01*
X260356061Y-208578247D01*
X260370348Y-208581089D01*
X260370348Y-208581089D01*
G37*
G36*
X326294756Y-208504237D02*
G01*
X325089098Y-210226095D01*
X323367240Y-209020437D01*
X324572898Y-207298579D01*
X326294756Y-208504237D01*
X326294756Y-208504237D01*
G37*
G36*
X332940070Y-208118211D02*
G01*
X332976623Y-208132887D01*
X333009606Y-208154409D01*
X333042170Y-208186270D01*
X333083635Y-208235686D01*
X333083638Y-208235689D01*
X333373463Y-208581089D01*
X333740673Y-209018712D01*
X333766396Y-209056315D01*
X333781864Y-209092533D01*
X333789967Y-209131074D01*
X333790398Y-209170465D01*
X333783136Y-209209172D01*
X333768460Y-209245725D01*
X333746938Y-209278708D01*
X333715077Y-209311272D01*
X333665660Y-209352737D01*
X333665658Y-209352740D01*
X333476558Y-209511414D01*
X333074146Y-209849078D01*
X333036543Y-209874801D01*
X333000325Y-209890269D01*
X332961784Y-209898372D01*
X332922393Y-209898803D01*
X332883686Y-209891541D01*
X332847133Y-209876865D01*
X332814150Y-209855343D01*
X332781586Y-209823482D01*
X332713264Y-209742059D01*
X332305041Y-209255559D01*
X332083083Y-208991040D01*
X332057360Y-208953437D01*
X332041892Y-208917219D01*
X332033789Y-208878678D01*
X332033358Y-208839287D01*
X332040620Y-208800580D01*
X332055296Y-208764027D01*
X332076818Y-208731044D01*
X332108679Y-208698480D01*
X332158096Y-208657015D01*
X332158098Y-208657012D01*
X332615327Y-208273351D01*
X332749610Y-208160674D01*
X332787213Y-208134951D01*
X332823431Y-208119483D01*
X332861972Y-208111380D01*
X332901363Y-208110949D01*
X332940070Y-208118211D01*
X332940070Y-208118211D01*
G37*
G36*
X265905018Y-207263566D02*
G01*
X266054318Y-207293263D01*
X266218290Y-207361183D01*
X266365860Y-207459786D01*
X266491359Y-207585285D01*
X266589962Y-207732855D01*
X266657882Y-207896827D01*
X266692506Y-208070898D01*
X266692506Y-208248380D01*
X266657882Y-208422451D01*
X266589962Y-208586423D01*
X266491359Y-208733993D01*
X266365860Y-208859492D01*
X266218290Y-208958095D01*
X266054318Y-209026015D01*
X265905018Y-209055712D01*
X265880248Y-209060639D01*
X265702764Y-209060639D01*
X265677994Y-209055712D01*
X265528694Y-209026015D01*
X265364722Y-208958095D01*
X265217152Y-208859492D01*
X265091653Y-208733993D01*
X264993050Y-208586423D01*
X264925130Y-208422451D01*
X264890506Y-208248380D01*
X264890506Y-208070898D01*
X264925130Y-207896827D01*
X264993050Y-207732855D01*
X265091653Y-207585285D01*
X265217152Y-207459786D01*
X265364722Y-207361183D01*
X265528694Y-207293263D01*
X265677994Y-207263566D01*
X265702764Y-207258639D01*
X265880248Y-207258639D01*
X265905018Y-207263566D01*
X265905018Y-207263566D01*
G37*
G36*
X262326584Y-206950494D02*
G01*
X262475884Y-206980191D01*
X262639856Y-207048111D01*
X262787426Y-207146714D01*
X262912925Y-207272213D01*
X263011528Y-207419783D01*
X263079448Y-207583755D01*
X263114072Y-207757826D01*
X263114072Y-207935308D01*
X263079448Y-208109379D01*
X263011528Y-208273351D01*
X262912925Y-208420921D01*
X262787426Y-208546420D01*
X262639856Y-208645023D01*
X262475884Y-208712943D01*
X262340690Y-208739834D01*
X262301814Y-208747567D01*
X262124330Y-208747567D01*
X262085454Y-208739834D01*
X261950260Y-208712943D01*
X261786288Y-208645023D01*
X261638718Y-208546420D01*
X261513219Y-208420921D01*
X261414616Y-208273351D01*
X261346696Y-208109379D01*
X261312072Y-207935308D01*
X261312072Y-207757826D01*
X261346696Y-207583755D01*
X261414616Y-207419783D01*
X261513219Y-207272213D01*
X261638718Y-207146714D01*
X261786288Y-207048111D01*
X261950260Y-206980191D01*
X262099560Y-206950494D01*
X262124330Y-206945567D01*
X262301814Y-206945567D01*
X262326584Y-206950494D01*
X262326584Y-206950494D01*
G37*
G36*
X334510462Y-206800497D02*
G01*
X334547015Y-206815173D01*
X334579998Y-206836695D01*
X334612562Y-206868556D01*
X334654027Y-206917972D01*
X334654030Y-206917975D01*
X334677088Y-206945455D01*
X335311065Y-207700998D01*
X335336788Y-207738601D01*
X335352256Y-207774819D01*
X335360359Y-207813360D01*
X335360790Y-207852751D01*
X335353528Y-207891458D01*
X335338852Y-207928011D01*
X335317330Y-207960994D01*
X335285469Y-207993558D01*
X335236052Y-208035023D01*
X335236050Y-208035026D01*
X335055804Y-208186270D01*
X334644538Y-208531364D01*
X334606935Y-208557087D01*
X334570717Y-208572555D01*
X334532176Y-208580658D01*
X334492785Y-208581089D01*
X334454078Y-208573827D01*
X334417525Y-208559151D01*
X334384542Y-208537629D01*
X334351978Y-208505768D01*
X334282067Y-208422451D01*
X333873304Y-207935308D01*
X333653475Y-207673326D01*
X333627752Y-207635723D01*
X333612284Y-207599505D01*
X333604181Y-207560964D01*
X333603750Y-207521573D01*
X333611012Y-207482866D01*
X333625688Y-207446313D01*
X333647210Y-207413330D01*
X333679071Y-207380766D01*
X333728488Y-207339301D01*
X333728490Y-207339298D01*
X334156457Y-206980191D01*
X334320002Y-206842960D01*
X334357605Y-206817237D01*
X334393823Y-206801769D01*
X334432364Y-206793666D01*
X334471755Y-206793235D01*
X334510462Y-206800497D01*
X334510462Y-206800497D01*
G37*
G36*
X331357764Y-206353140D02*
G01*
X331512636Y-206417290D01*
X331652017Y-206510422D01*
X331770551Y-206628956D01*
X331863683Y-206768337D01*
X331927833Y-206923209D01*
X331960536Y-207087621D01*
X331960536Y-207255253D01*
X331927833Y-207419665D01*
X331863683Y-207574537D01*
X331770551Y-207713918D01*
X331652017Y-207832452D01*
X331512636Y-207925584D01*
X331357764Y-207989734D01*
X331193352Y-208022437D01*
X331025720Y-208022437D01*
X330861308Y-207989734D01*
X330706436Y-207925584D01*
X330567055Y-207832452D01*
X330448521Y-207713918D01*
X330355389Y-207574537D01*
X330291239Y-207419665D01*
X330258536Y-207255253D01*
X330258536Y-207087621D01*
X330291239Y-206923209D01*
X330355389Y-206768337D01*
X330448521Y-206628956D01*
X330567055Y-206510422D01*
X330706436Y-206417290D01*
X330861308Y-206353140D01*
X331025720Y-206320437D01*
X331193352Y-206320437D01*
X331357764Y-206353140D01*
X331357764Y-206353140D01*
G37*
G36*
X267850771Y-205630885D02*
G01*
X268000071Y-205660582D01*
X268164043Y-205728502D01*
X268311613Y-205827105D01*
X268437112Y-205952604D01*
X268535715Y-206100174D01*
X268603635Y-206264146D01*
X268638259Y-206438217D01*
X268638259Y-206615699D01*
X268603635Y-206789770D01*
X268535715Y-206953742D01*
X268437112Y-207101312D01*
X268311613Y-207226811D01*
X268164043Y-207325414D01*
X268000071Y-207393334D01*
X267867089Y-207419785D01*
X267826001Y-207427958D01*
X267648517Y-207427958D01*
X267607429Y-207419785D01*
X267474447Y-207393334D01*
X267310475Y-207325414D01*
X267162905Y-207226811D01*
X267037406Y-207101312D01*
X266938803Y-206953742D01*
X266870883Y-206789770D01*
X266836259Y-206615699D01*
X266836259Y-206438217D01*
X266870883Y-206264146D01*
X266938803Y-206100174D01*
X267037406Y-205952604D01*
X267162905Y-205827105D01*
X267310475Y-205728502D01*
X267474447Y-205660582D01*
X267623747Y-205630885D01*
X267648517Y-205625958D01*
X267826001Y-205625958D01*
X267850771Y-205630885D01*
X267850771Y-205630885D01*
G37*
G36*
X264272337Y-205317813D02*
G01*
X264421637Y-205347510D01*
X264585609Y-205415430D01*
X264733179Y-205514033D01*
X264858678Y-205639532D01*
X264957281Y-205787102D01*
X265025201Y-205951074D01*
X265054858Y-206100174D01*
X265059825Y-206125144D01*
X265059825Y-206302628D01*
X265054898Y-206327398D01*
X265025201Y-206476698D01*
X264957281Y-206640670D01*
X264858678Y-206788240D01*
X264733179Y-206913739D01*
X264585609Y-207012342D01*
X264421637Y-207080262D01*
X264272337Y-207109959D01*
X264247567Y-207114886D01*
X264070083Y-207114886D01*
X264045313Y-207109959D01*
X263896013Y-207080262D01*
X263732041Y-207012342D01*
X263584471Y-206913739D01*
X263458972Y-206788240D01*
X263360369Y-206640670D01*
X263292449Y-206476698D01*
X263262752Y-206327398D01*
X263257825Y-206302628D01*
X263257825Y-206125144D01*
X263262792Y-206100174D01*
X263292449Y-205951074D01*
X263360369Y-205787102D01*
X263458972Y-205639532D01*
X263584471Y-205514033D01*
X263732041Y-205415430D01*
X263896013Y-205347510D01*
X264045313Y-205317813D01*
X264070083Y-205312886D01*
X264247567Y-205312886D01*
X264272337Y-205317813D01*
X264272337Y-205317813D01*
G37*
G36*
X333840541Y-205990754D02*
G01*
X332536733Y-207084778D01*
X331442709Y-205780970D01*
X332746517Y-204686946D01*
X333840541Y-205990754D01*
X333840541Y-205990754D01*
G37*
G36*
X321041802Y-204883844D02*
G01*
X321233071Y-204963070D01*
X321233073Y-204963071D01*
X321405211Y-205078090D01*
X321551603Y-205224482D01*
X321633808Y-205347510D01*
X321666623Y-205396622D01*
X321745849Y-205587891D01*
X321786238Y-205790939D01*
X321786238Y-205997971D01*
X321745849Y-206201019D01*
X321682838Y-206353142D01*
X321666622Y-206392290D01*
X321551603Y-206564428D01*
X321405211Y-206710820D01*
X321233073Y-206825839D01*
X321233072Y-206825840D01*
X321233071Y-206825840D01*
X321041802Y-206905066D01*
X320838754Y-206945455D01*
X320631722Y-206945455D01*
X320428674Y-206905066D01*
X320237405Y-206825840D01*
X320237404Y-206825840D01*
X320237403Y-206825839D01*
X320065265Y-206710820D01*
X319918873Y-206564428D01*
X319803854Y-206392290D01*
X319787638Y-206353142D01*
X319724627Y-206201019D01*
X319684238Y-205997971D01*
X319684238Y-205790939D01*
X319724627Y-205587891D01*
X319803853Y-205396622D01*
X319836669Y-205347510D01*
X319918873Y-205224482D01*
X320065265Y-205078090D01*
X320237403Y-204963071D01*
X320237405Y-204963070D01*
X320428674Y-204883844D01*
X320631722Y-204843455D01*
X320838754Y-204843455D01*
X321041802Y-204883844D01*
X321041802Y-204883844D01*
G37*
G36*
X269796524Y-203998205D02*
G01*
X269945824Y-204027902D01*
X270109796Y-204095822D01*
X270257366Y-204194425D01*
X270382865Y-204319924D01*
X270481468Y-204467494D01*
X270549388Y-204631466D01*
X270584012Y-204805537D01*
X270584012Y-204983019D01*
X270549388Y-205157090D01*
X270481468Y-205321062D01*
X270382865Y-205468632D01*
X270257366Y-205594131D01*
X270109796Y-205692734D01*
X269945824Y-205760654D01*
X269796524Y-205790351D01*
X269771754Y-205795278D01*
X269594270Y-205795278D01*
X269569500Y-205790351D01*
X269420200Y-205760654D01*
X269256228Y-205692734D01*
X269108658Y-205594131D01*
X268983159Y-205468632D01*
X268884556Y-205321062D01*
X268816636Y-205157090D01*
X268782012Y-204983019D01*
X268782012Y-204805537D01*
X268816636Y-204631466D01*
X268884556Y-204467494D01*
X268983159Y-204319924D01*
X269108658Y-204194425D01*
X269256228Y-204095822D01*
X269420200Y-204027902D01*
X269569500Y-203998205D01*
X269594270Y-203993278D01*
X269771754Y-203993278D01*
X269796524Y-203998205D01*
X269796524Y-203998205D01*
G37*
G36*
X266218090Y-203685133D02*
G01*
X266367390Y-203714830D01*
X266531362Y-203782750D01*
X266678932Y-203881353D01*
X266804431Y-204006852D01*
X266903034Y-204154422D01*
X266970954Y-204318394D01*
X267005578Y-204492465D01*
X267005578Y-204669947D01*
X266970954Y-204844018D01*
X266903034Y-205007990D01*
X266804431Y-205155560D01*
X266678932Y-205281059D01*
X266531362Y-205379662D01*
X266367390Y-205447582D01*
X266218090Y-205477279D01*
X266193320Y-205482206D01*
X266015836Y-205482206D01*
X265991066Y-205477279D01*
X265841766Y-205447582D01*
X265677794Y-205379662D01*
X265530224Y-205281059D01*
X265404725Y-205155560D01*
X265306122Y-205007990D01*
X265238202Y-204844018D01*
X265203578Y-204669947D01*
X265203578Y-204492465D01*
X265238202Y-204318394D01*
X265306122Y-204154422D01*
X265404725Y-204006852D01*
X265530224Y-203881353D01*
X265677794Y-203782750D01*
X265841766Y-203714830D01*
X265991066Y-203685133D01*
X266015836Y-203680206D01*
X266193320Y-203680206D01*
X266218090Y-203685133D01*
X266218090Y-203685133D01*
G37*
G36*
X304116564Y-203379389D02*
G01*
X304279224Y-203446765D01*
X304307835Y-203458616D01*
X304479973Y-203573635D01*
X304626365Y-203720027D01*
X304734160Y-203881353D01*
X304741385Y-203892167D01*
X304820611Y-204083436D01*
X304861000Y-204286484D01*
X304861000Y-204493516D01*
X304820611Y-204696564D01*
X304743037Y-204883844D01*
X304741384Y-204887835D01*
X304626365Y-205059973D01*
X304479973Y-205206365D01*
X304307835Y-205321384D01*
X304307834Y-205321385D01*
X304307833Y-205321385D01*
X304116564Y-205400611D01*
X303913516Y-205441000D01*
X303706484Y-205441000D01*
X303503436Y-205400611D01*
X303312167Y-205321385D01*
X303312166Y-205321385D01*
X303312165Y-205321384D01*
X303140027Y-205206365D01*
X302993635Y-205059973D01*
X302878616Y-204887835D01*
X302876963Y-204883844D01*
X302799389Y-204696564D01*
X302759000Y-204493516D01*
X302759000Y-204286484D01*
X302799389Y-204083436D01*
X302878615Y-203892167D01*
X302885841Y-203881353D01*
X302993635Y-203720027D01*
X303140027Y-203573635D01*
X303312165Y-203458616D01*
X303340776Y-203446765D01*
X303503436Y-203379389D01*
X303706484Y-203339000D01*
X303913516Y-203339000D01*
X304116564Y-203379389D01*
X304116564Y-203379389D01*
G37*
G36*
X296496564Y-203379389D02*
G01*
X296659224Y-203446765D01*
X296687835Y-203458616D01*
X296859973Y-203573635D01*
X297006365Y-203720027D01*
X297114160Y-203881353D01*
X297121385Y-203892167D01*
X297200611Y-204083436D01*
X297241000Y-204286484D01*
X297241000Y-204493516D01*
X297200611Y-204696564D01*
X297123037Y-204883844D01*
X297121384Y-204887835D01*
X297006365Y-205059973D01*
X296859973Y-205206365D01*
X296687835Y-205321384D01*
X296687834Y-205321385D01*
X296687833Y-205321385D01*
X296496564Y-205400611D01*
X296293516Y-205441000D01*
X296086484Y-205441000D01*
X295883436Y-205400611D01*
X295692167Y-205321385D01*
X295692166Y-205321385D01*
X295692165Y-205321384D01*
X295520027Y-205206365D01*
X295373635Y-205059973D01*
X295258616Y-204887835D01*
X295256963Y-204883844D01*
X295179389Y-204696564D01*
X295139000Y-204493516D01*
X295139000Y-204286484D01*
X295179389Y-204083436D01*
X295258615Y-203892167D01*
X295265841Y-203881353D01*
X295373635Y-203720027D01*
X295520027Y-203573635D01*
X295692165Y-203458616D01*
X295720776Y-203446765D01*
X295883436Y-203379389D01*
X296086484Y-203339000D01*
X296293516Y-203339000D01*
X296496564Y-203379389D01*
X296496564Y-203379389D01*
G37*
G36*
X301576564Y-203379389D02*
G01*
X301739224Y-203446765D01*
X301767835Y-203458616D01*
X301939973Y-203573635D01*
X302086365Y-203720027D01*
X302194160Y-203881353D01*
X302201385Y-203892167D01*
X302280611Y-204083436D01*
X302321000Y-204286484D01*
X302321000Y-204493516D01*
X302280611Y-204696564D01*
X302203037Y-204883844D01*
X302201384Y-204887835D01*
X302086365Y-205059973D01*
X301939973Y-205206365D01*
X301767835Y-205321384D01*
X301767834Y-205321385D01*
X301767833Y-205321385D01*
X301576564Y-205400611D01*
X301373516Y-205441000D01*
X301166484Y-205441000D01*
X300963436Y-205400611D01*
X300772167Y-205321385D01*
X300772166Y-205321385D01*
X300772165Y-205321384D01*
X300600027Y-205206365D01*
X300453635Y-205059973D01*
X300338616Y-204887835D01*
X300336963Y-204883844D01*
X300259389Y-204696564D01*
X300219000Y-204493516D01*
X300219000Y-204286484D01*
X300259389Y-204083436D01*
X300338615Y-203892167D01*
X300345841Y-203881353D01*
X300453635Y-203720027D01*
X300600027Y-203573635D01*
X300772165Y-203458616D01*
X300800776Y-203446765D01*
X300963436Y-203379389D01*
X301166484Y-203339000D01*
X301373516Y-203339000D01*
X301576564Y-203379389D01*
X301576564Y-203379389D01*
G37*
G36*
X299036564Y-203379389D02*
G01*
X299199224Y-203446765D01*
X299227835Y-203458616D01*
X299399973Y-203573635D01*
X299546365Y-203720027D01*
X299654160Y-203881353D01*
X299661385Y-203892167D01*
X299740611Y-204083436D01*
X299781000Y-204286484D01*
X299781000Y-204493516D01*
X299740611Y-204696564D01*
X299663037Y-204883844D01*
X299661384Y-204887835D01*
X299546365Y-205059973D01*
X299399973Y-205206365D01*
X299227835Y-205321384D01*
X299227834Y-205321385D01*
X299227833Y-205321385D01*
X299036564Y-205400611D01*
X298833516Y-205441000D01*
X298626484Y-205441000D01*
X298423436Y-205400611D01*
X298232167Y-205321385D01*
X298232166Y-205321385D01*
X298232165Y-205321384D01*
X298060027Y-205206365D01*
X297913635Y-205059973D01*
X297798616Y-204887835D01*
X297796963Y-204883844D01*
X297719389Y-204696564D01*
X297679000Y-204493516D01*
X297679000Y-204286484D01*
X297719389Y-204083436D01*
X297798615Y-203892167D01*
X297805841Y-203881353D01*
X297913635Y-203720027D01*
X298060027Y-203573635D01*
X298232165Y-203458616D01*
X298260776Y-203446765D01*
X298423436Y-203379389D01*
X298626484Y-203339000D01*
X298833516Y-203339000D01*
X299036564Y-203379389D01*
X299036564Y-203379389D01*
G37*
G36*
X283379487Y-201748996D02*
G01*
X283616253Y-201847068D01*
X283616255Y-201847069D01*
X283829339Y-201989447D01*
X284010553Y-202170661D01*
X284146535Y-202374172D01*
X284152932Y-202383747D01*
X284251004Y-202620513D01*
X284301000Y-202871859D01*
X284301000Y-203128139D01*
X284251004Y-203379487D01*
X284170585Y-203573635D01*
X284152931Y-203616255D01*
X284010553Y-203829339D01*
X283829339Y-204010553D01*
X283616255Y-204152931D01*
X283616254Y-204152932D01*
X283616253Y-204152932D01*
X283379487Y-204251004D01*
X283128139Y-204301000D01*
X282871861Y-204301000D01*
X282620513Y-204251004D01*
X282383747Y-204152932D01*
X282383746Y-204152932D01*
X282383745Y-204152931D01*
X282170661Y-204010553D01*
X281989447Y-203829339D01*
X281847069Y-203616255D01*
X281829415Y-203573635D01*
X281748996Y-203379487D01*
X281699000Y-203128139D01*
X281699000Y-202871859D01*
X281748996Y-202620513D01*
X281847068Y-202383747D01*
X281853466Y-202374172D01*
X281989447Y-202170661D01*
X282170661Y-201989447D01*
X282383745Y-201847069D01*
X282383747Y-201847068D01*
X282620513Y-201748996D01*
X282871861Y-201699000D01*
X283128139Y-201699000D01*
X283379487Y-201748996D01*
X283379487Y-201748996D01*
G37*
G36*
X271742276Y-202365524D02*
G01*
X271891576Y-202395221D01*
X272055548Y-202463141D01*
X272203118Y-202561744D01*
X272328617Y-202687243D01*
X272427220Y-202834813D01*
X272495140Y-202998785D01*
X272529764Y-203172856D01*
X272529764Y-203350338D01*
X272495140Y-203524409D01*
X272427220Y-203688381D01*
X272328617Y-203835951D01*
X272203118Y-203961450D01*
X272055548Y-204060053D01*
X271891576Y-204127973D01*
X271758594Y-204154424D01*
X271717506Y-204162597D01*
X271540022Y-204162597D01*
X271498934Y-204154424D01*
X271365952Y-204127973D01*
X271201980Y-204060053D01*
X271054410Y-203961450D01*
X270928911Y-203835951D01*
X270830308Y-203688381D01*
X270762388Y-203524409D01*
X270727764Y-203350338D01*
X270727764Y-203172856D01*
X270762388Y-202998785D01*
X270830308Y-202834813D01*
X270928911Y-202687243D01*
X271054410Y-202561744D01*
X271201980Y-202463141D01*
X271365952Y-202395221D01*
X271515252Y-202365524D01*
X271540022Y-202360597D01*
X271717506Y-202360597D01*
X271742276Y-202365524D01*
X271742276Y-202365524D01*
G37*
G36*
X268163843Y-202052452D02*
G01*
X268313143Y-202082149D01*
X268477115Y-202150069D01*
X268624685Y-202248672D01*
X268750184Y-202374171D01*
X268848787Y-202521741D01*
X268916707Y-202685713D01*
X268951331Y-202859784D01*
X268951331Y-203037266D01*
X268916707Y-203211337D01*
X268848787Y-203375309D01*
X268750184Y-203522879D01*
X268624685Y-203648378D01*
X268477115Y-203746981D01*
X268313143Y-203814901D01*
X268163843Y-203844598D01*
X268139073Y-203849525D01*
X267961589Y-203849525D01*
X267936819Y-203844598D01*
X267787519Y-203814901D01*
X267623547Y-203746981D01*
X267475977Y-203648378D01*
X267350478Y-203522879D01*
X267251875Y-203375309D01*
X267183955Y-203211337D01*
X267149331Y-203037266D01*
X267149331Y-202859784D01*
X267183955Y-202685713D01*
X267251875Y-202521741D01*
X267350478Y-202374171D01*
X267475977Y-202248672D01*
X267623547Y-202150069D01*
X267787519Y-202082149D01*
X267936819Y-202052452D01*
X267961589Y-202047525D01*
X268139073Y-202047525D01*
X268163843Y-202052452D01*
X268163843Y-202052452D01*
G37*
G36*
X315603097Y-201654069D02*
G01*
X315706032Y-201664207D01*
X315882234Y-201717658D01*
X315904149Y-201724306D01*
X315950342Y-201748997D01*
X316086729Y-201821897D01*
X316246765Y-201953235D01*
X316378103Y-202113271D01*
X316397772Y-202150069D01*
X316475694Y-202295851D01*
X316475695Y-202295854D01*
X316535793Y-202493968D01*
X316556085Y-202700000D01*
X316535793Y-202906032D01*
X316507656Y-202998785D01*
X316475694Y-203104149D01*
X316462872Y-203128137D01*
X316378103Y-203286729D01*
X316246765Y-203446765D01*
X316086729Y-203578103D01*
X316015355Y-203616253D01*
X315904149Y-203675694D01*
X315904146Y-203675695D01*
X315706032Y-203735793D01*
X315603097Y-203745931D01*
X315551631Y-203751000D01*
X315448369Y-203751000D01*
X315396903Y-203745931D01*
X315293968Y-203735793D01*
X315095854Y-203675695D01*
X315095851Y-203675694D01*
X314984645Y-203616253D01*
X314913271Y-203578103D01*
X314753235Y-203446765D01*
X314621897Y-203286729D01*
X314537128Y-203128137D01*
X314524306Y-203104149D01*
X314492344Y-202998785D01*
X314464207Y-202906032D01*
X314443915Y-202700000D01*
X314464207Y-202493968D01*
X314524305Y-202295854D01*
X314524306Y-202295851D01*
X314602228Y-202150069D01*
X314621897Y-202113271D01*
X314753235Y-201953235D01*
X314913271Y-201821897D01*
X315049658Y-201748997D01*
X315095851Y-201724306D01*
X315117766Y-201717658D01*
X315293968Y-201664207D01*
X315396903Y-201654069D01*
X315448369Y-201649000D01*
X315551631Y-201649000D01*
X315603097Y-201654069D01*
X315603097Y-201654069D01*
G37*
G36*
X293196564Y-201489389D02*
G01*
X293387833Y-201568615D01*
X293387835Y-201568616D01*
X293508138Y-201649000D01*
X293559973Y-201683635D01*
X293706365Y-201830027D01*
X293821385Y-202002167D01*
X293900611Y-202193436D01*
X293941000Y-202396484D01*
X293941000Y-202603516D01*
X293900611Y-202806564D01*
X293873565Y-202871859D01*
X293821384Y-202997835D01*
X293706365Y-203169973D01*
X293559973Y-203316365D01*
X293387835Y-203431384D01*
X293387834Y-203431385D01*
X293387833Y-203431385D01*
X293196564Y-203510611D01*
X292993516Y-203551000D01*
X292786484Y-203551000D01*
X292583436Y-203510611D01*
X292392167Y-203431385D01*
X292392166Y-203431385D01*
X292392165Y-203431384D01*
X292220027Y-203316365D01*
X292073635Y-203169973D01*
X291958616Y-202997835D01*
X291906435Y-202871859D01*
X291879389Y-202806564D01*
X291839000Y-202603516D01*
X291839000Y-202396484D01*
X291879389Y-202193436D01*
X291958615Y-202002167D01*
X292073635Y-201830027D01*
X292220027Y-201683635D01*
X292271862Y-201649000D01*
X292392165Y-201568616D01*
X292392167Y-201568615D01*
X292583436Y-201489389D01*
X292786484Y-201449000D01*
X292993516Y-201449000D01*
X293196564Y-201489389D01*
X293196564Y-201489389D01*
G37*
G36*
X307146564Y-201489389D02*
G01*
X307337833Y-201568615D01*
X307337835Y-201568616D01*
X307458138Y-201649000D01*
X307509973Y-201683635D01*
X307656365Y-201830027D01*
X307771385Y-202002167D01*
X307850611Y-202193436D01*
X307891000Y-202396484D01*
X307891000Y-202603516D01*
X307850611Y-202806564D01*
X307823565Y-202871859D01*
X307771384Y-202997835D01*
X307656365Y-203169973D01*
X307509973Y-203316365D01*
X307337835Y-203431384D01*
X307337834Y-203431385D01*
X307337833Y-203431385D01*
X307146564Y-203510611D01*
X306943516Y-203551000D01*
X306736484Y-203551000D01*
X306533436Y-203510611D01*
X306342167Y-203431385D01*
X306342166Y-203431385D01*
X306342165Y-203431384D01*
X306170027Y-203316365D01*
X306023635Y-203169973D01*
X305908616Y-202997835D01*
X305856435Y-202871859D01*
X305829389Y-202806564D01*
X305789000Y-202603516D01*
X305789000Y-202396484D01*
X305829389Y-202193436D01*
X305908615Y-202002167D01*
X306023635Y-201830027D01*
X306170027Y-201683635D01*
X306221862Y-201649000D01*
X306342165Y-201568616D01*
X306342167Y-201568615D01*
X306533436Y-201489389D01*
X306736484Y-201449000D01*
X306943516Y-201449000D01*
X307146564Y-201489389D01*
X307146564Y-201489389D01*
G37*
G36*
X273688029Y-200732844D02*
G01*
X273837329Y-200762541D01*
X274001301Y-200830461D01*
X274148871Y-200929064D01*
X274274370Y-201054563D01*
X274372973Y-201202133D01*
X274440893Y-201366105D01*
X274475517Y-201540176D01*
X274475517Y-201717658D01*
X274440893Y-201891729D01*
X274372973Y-202055701D01*
X274274370Y-202203271D01*
X274148871Y-202328770D01*
X274001301Y-202427373D01*
X273837329Y-202495293D01*
X273688029Y-202524990D01*
X273663259Y-202529917D01*
X273485775Y-202529917D01*
X273461005Y-202524990D01*
X273311705Y-202495293D01*
X273147733Y-202427373D01*
X273000163Y-202328770D01*
X272874664Y-202203271D01*
X272776061Y-202055701D01*
X272708141Y-201891729D01*
X272673517Y-201717658D01*
X272673517Y-201540176D01*
X272708141Y-201366105D01*
X272776061Y-201202133D01*
X272874664Y-201054563D01*
X273000163Y-200929064D01*
X273147733Y-200830461D01*
X273311705Y-200762541D01*
X273461005Y-200732844D01*
X273485775Y-200727917D01*
X273663259Y-200727917D01*
X273688029Y-200732844D01*
X273688029Y-200732844D01*
G37*
G36*
X270109596Y-200419771D02*
G01*
X270258896Y-200449468D01*
X270422868Y-200517388D01*
X270570438Y-200615991D01*
X270695937Y-200741490D01*
X270794540Y-200889060D01*
X270862460Y-201053032D01*
X270897084Y-201227103D01*
X270897084Y-201404585D01*
X270862460Y-201578656D01*
X270794540Y-201742628D01*
X270695937Y-201890198D01*
X270570438Y-202015697D01*
X270422868Y-202114300D01*
X270258896Y-202182220D01*
X270109596Y-202211917D01*
X270084826Y-202216844D01*
X269907342Y-202216844D01*
X269882572Y-202211917D01*
X269733272Y-202182220D01*
X269569300Y-202114300D01*
X269421730Y-202015697D01*
X269296231Y-201890198D01*
X269197628Y-201742628D01*
X269129708Y-201578656D01*
X269095084Y-201404585D01*
X269095084Y-201227103D01*
X269129708Y-201053032D01*
X269197628Y-200889060D01*
X269296231Y-200741490D01*
X269421730Y-200615991D01*
X269569300Y-200517388D01*
X269733272Y-200449468D01*
X269882572Y-200419771D01*
X269907342Y-200414844D01*
X270084826Y-200414844D01*
X270109596Y-200419771D01*
X270109596Y-200419771D01*
G37*
G36*
X307146564Y-198949389D02*
G01*
X307337833Y-199028615D01*
X307337835Y-199028616D01*
X307509973Y-199143635D01*
X307656365Y-199290027D01*
X307744468Y-199421882D01*
X307771385Y-199462167D01*
X307850611Y-199653436D01*
X307891000Y-199856484D01*
X307891000Y-200063516D01*
X307850611Y-200266564D01*
X307774850Y-200449468D01*
X307771384Y-200457835D01*
X307656365Y-200629973D01*
X307509973Y-200776365D01*
X307337835Y-200891384D01*
X307337834Y-200891385D01*
X307337833Y-200891385D01*
X307146564Y-200970611D01*
X306943516Y-201011000D01*
X306736484Y-201011000D01*
X306533436Y-200970611D01*
X306342167Y-200891385D01*
X306342166Y-200891385D01*
X306342165Y-200891384D01*
X306170027Y-200776365D01*
X306023635Y-200629973D01*
X305908616Y-200457835D01*
X305905150Y-200449468D01*
X305829389Y-200266564D01*
X305789000Y-200063516D01*
X305789000Y-199856484D01*
X305829389Y-199653436D01*
X305908615Y-199462167D01*
X305935533Y-199421882D01*
X306023635Y-199290027D01*
X306170027Y-199143635D01*
X306342165Y-199028616D01*
X306342167Y-199028615D01*
X306533436Y-198949389D01*
X306736484Y-198909000D01*
X306943516Y-198909000D01*
X307146564Y-198949389D01*
X307146564Y-198949389D01*
G37*
G36*
X293196564Y-198949389D02*
G01*
X293387833Y-199028615D01*
X293387835Y-199028616D01*
X293559973Y-199143635D01*
X293706365Y-199290027D01*
X293794468Y-199421882D01*
X293821385Y-199462167D01*
X293900611Y-199653436D01*
X293941000Y-199856484D01*
X293941000Y-200063516D01*
X293900611Y-200266564D01*
X293824850Y-200449468D01*
X293821384Y-200457835D01*
X293706365Y-200629973D01*
X293559973Y-200776365D01*
X293387835Y-200891384D01*
X293387834Y-200891385D01*
X293387833Y-200891385D01*
X293196564Y-200970611D01*
X292993516Y-201011000D01*
X292786484Y-201011000D01*
X292583436Y-200970611D01*
X292392167Y-200891385D01*
X292392166Y-200891385D01*
X292392165Y-200891384D01*
X292220027Y-200776365D01*
X292073635Y-200629973D01*
X291958616Y-200457835D01*
X291955150Y-200449468D01*
X291879389Y-200266564D01*
X291839000Y-200063516D01*
X291839000Y-199856484D01*
X291879389Y-199653436D01*
X291958615Y-199462167D01*
X291985533Y-199421882D01*
X292073635Y-199290027D01*
X292220027Y-199143635D01*
X292392165Y-199028616D01*
X292392167Y-199028615D01*
X292583436Y-198949389D01*
X292786484Y-198909000D01*
X292993516Y-198909000D01*
X293196564Y-198949389D01*
X293196564Y-198949389D01*
G37*
G36*
X275633782Y-199100163D02*
G01*
X275783082Y-199129860D01*
X275947054Y-199197780D01*
X276094624Y-199296383D01*
X276220123Y-199421882D01*
X276318726Y-199569452D01*
X276386646Y-199733424D01*
X276421270Y-199907495D01*
X276421270Y-200084977D01*
X276386646Y-200259048D01*
X276318726Y-200423020D01*
X276220123Y-200570590D01*
X276094624Y-200696089D01*
X275947054Y-200794692D01*
X275783082Y-200862612D01*
X275638432Y-200891384D01*
X275609012Y-200897236D01*
X275431528Y-200897236D01*
X275402108Y-200891384D01*
X275257458Y-200862612D01*
X275093486Y-200794692D01*
X274945916Y-200696089D01*
X274820417Y-200570590D01*
X274721814Y-200423020D01*
X274653894Y-200259048D01*
X274619270Y-200084977D01*
X274619270Y-199907495D01*
X274653894Y-199733424D01*
X274721814Y-199569452D01*
X274820417Y-199421882D01*
X274945916Y-199296383D01*
X275093486Y-199197780D01*
X275257458Y-199129860D01*
X275406758Y-199100163D01*
X275431528Y-199095236D01*
X275609012Y-199095236D01*
X275633782Y-199100163D01*
X275633782Y-199100163D01*
G37*
G36*
X300088674Y-199403465D02*
G01*
X300126367Y-199414899D01*
X300161103Y-199433466D01*
X300191548Y-199458452D01*
X300216534Y-199488897D01*
X300235101Y-199523633D01*
X300246535Y-199561326D01*
X300251000Y-199606661D01*
X300251000Y-200443339D01*
X300246535Y-200488674D01*
X300235101Y-200526367D01*
X300216534Y-200561103D01*
X300191548Y-200591548D01*
X300161103Y-200616534D01*
X300126367Y-200635101D01*
X300088674Y-200646535D01*
X300043339Y-200651000D01*
X298956661Y-200651000D01*
X298911326Y-200646535D01*
X298873633Y-200635101D01*
X298838897Y-200616534D01*
X298808452Y-200591548D01*
X298783466Y-200561103D01*
X298764899Y-200526367D01*
X298753465Y-200488674D01*
X298749000Y-200443339D01*
X298749000Y-199606661D01*
X298753465Y-199561326D01*
X298764899Y-199523633D01*
X298783466Y-199488897D01*
X298808452Y-199458452D01*
X298838897Y-199433466D01*
X298873633Y-199414899D01*
X298911326Y-199403465D01*
X298956661Y-199399000D01*
X300043339Y-199399000D01*
X300088674Y-199403465D01*
X300088674Y-199403465D01*
G37*
G36*
X297588674Y-199403465D02*
G01*
X297626367Y-199414899D01*
X297661103Y-199433466D01*
X297691548Y-199458452D01*
X297716534Y-199488897D01*
X297735101Y-199523633D01*
X297746535Y-199561326D01*
X297751000Y-199606661D01*
X297751000Y-200443339D01*
X297746535Y-200488674D01*
X297735101Y-200526367D01*
X297716534Y-200561103D01*
X297691548Y-200591548D01*
X297661103Y-200616534D01*
X297626367Y-200635101D01*
X297588674Y-200646535D01*
X297543339Y-200651000D01*
X296456661Y-200651000D01*
X296411326Y-200646535D01*
X296373633Y-200635101D01*
X296338897Y-200616534D01*
X296308452Y-200591548D01*
X296283466Y-200561103D01*
X296264899Y-200526367D01*
X296253465Y-200488674D01*
X296249000Y-200443339D01*
X296249000Y-199606661D01*
X296253465Y-199561326D01*
X296264899Y-199523633D01*
X296283466Y-199488897D01*
X296308452Y-199458452D01*
X296338897Y-199433466D01*
X296373633Y-199414899D01*
X296411326Y-199403465D01*
X296456661Y-199399000D01*
X297543339Y-199399000D01*
X297588674Y-199403465D01*
X297588674Y-199403465D01*
G37*
G36*
X272055349Y-198787091D02*
G01*
X272204649Y-198816788D01*
X272368621Y-198884708D01*
X272516191Y-198983311D01*
X272641690Y-199108810D01*
X272740293Y-199256380D01*
X272808213Y-199420352D01*
X272842837Y-199594423D01*
X272842837Y-199771905D01*
X272808213Y-199945976D01*
X272740293Y-200109948D01*
X272641690Y-200257518D01*
X272516191Y-200383017D01*
X272368621Y-200481620D01*
X272204649Y-200549540D01*
X272055349Y-200579237D01*
X272030579Y-200584164D01*
X271853095Y-200584164D01*
X271828325Y-200579237D01*
X271679025Y-200549540D01*
X271515053Y-200481620D01*
X271367483Y-200383017D01*
X271241984Y-200257518D01*
X271143381Y-200109948D01*
X271075461Y-199945976D01*
X271040837Y-199771905D01*
X271040837Y-199594423D01*
X271075461Y-199420352D01*
X271143381Y-199256380D01*
X271241984Y-199108810D01*
X271367483Y-198983311D01*
X271515053Y-198884708D01*
X271679025Y-198816788D01*
X271828325Y-198787091D01*
X271853095Y-198782164D01*
X272030579Y-198782164D01*
X272055349Y-198787091D01*
X272055349Y-198787091D01*
G37*
G36*
X277579535Y-197467483D02*
G01*
X277728835Y-197497180D01*
X277892807Y-197565100D01*
X278040377Y-197663703D01*
X278165876Y-197789202D01*
X278264479Y-197936772D01*
X278332399Y-198100744D01*
X278367023Y-198274815D01*
X278367023Y-198452297D01*
X278332399Y-198626368D01*
X278264479Y-198790340D01*
X278165876Y-198937910D01*
X278040377Y-199063409D01*
X277892807Y-199162012D01*
X277728835Y-199229932D01*
X277579535Y-199259629D01*
X277554765Y-199264556D01*
X277377281Y-199264556D01*
X277352511Y-199259629D01*
X277203211Y-199229932D01*
X277039239Y-199162012D01*
X276891669Y-199063409D01*
X276766170Y-198937910D01*
X276667567Y-198790340D01*
X276599647Y-198626368D01*
X276565023Y-198452297D01*
X276565023Y-198274815D01*
X276599647Y-198100744D01*
X276667567Y-197936772D01*
X276766170Y-197789202D01*
X276891669Y-197663703D01*
X277039239Y-197565100D01*
X277203211Y-197497180D01*
X277352511Y-197467483D01*
X277377281Y-197462556D01*
X277554765Y-197462556D01*
X277579535Y-197467483D01*
X277579535Y-197467483D01*
G37*
G36*
X274001102Y-197154410D02*
G01*
X274150402Y-197184107D01*
X274314374Y-197252027D01*
X274461944Y-197350630D01*
X274587443Y-197476129D01*
X274686046Y-197623699D01*
X274753966Y-197787671D01*
X274788590Y-197961742D01*
X274788590Y-198139224D01*
X274753966Y-198313295D01*
X274686046Y-198477267D01*
X274587443Y-198624837D01*
X274461944Y-198750336D01*
X274314374Y-198848939D01*
X274150402Y-198916859D01*
X274001102Y-198946556D01*
X273976332Y-198951483D01*
X273798848Y-198951483D01*
X273774078Y-198946556D01*
X273624778Y-198916859D01*
X273460806Y-198848939D01*
X273313236Y-198750336D01*
X273187737Y-198624837D01*
X273089134Y-198477267D01*
X273021214Y-198313295D01*
X272986590Y-198139224D01*
X272986590Y-197961742D01*
X273021214Y-197787671D01*
X273089134Y-197623699D01*
X273187737Y-197476129D01*
X273313236Y-197350630D01*
X273460806Y-197252027D01*
X273624778Y-197184107D01*
X273774078Y-197154410D01*
X273798848Y-197149483D01*
X273976332Y-197149483D01*
X274001102Y-197154410D01*
X274001102Y-197154410D01*
G37*
G36*
X297588674Y-197353465D02*
G01*
X297626367Y-197364899D01*
X297661103Y-197383466D01*
X297691548Y-197408452D01*
X297716534Y-197438897D01*
X297735101Y-197473633D01*
X297746535Y-197511326D01*
X297751000Y-197556661D01*
X297751000Y-198393339D01*
X297746535Y-198438674D01*
X297735101Y-198476367D01*
X297716534Y-198511103D01*
X297691548Y-198541548D01*
X297661103Y-198566534D01*
X297626367Y-198585101D01*
X297588674Y-198596535D01*
X297543339Y-198601000D01*
X296456661Y-198601000D01*
X296411326Y-198596535D01*
X296373633Y-198585101D01*
X296338897Y-198566534D01*
X296308452Y-198541548D01*
X296283466Y-198511103D01*
X296264899Y-198476367D01*
X296253465Y-198438674D01*
X296249000Y-198393339D01*
X296249000Y-197556661D01*
X296253465Y-197511326D01*
X296264899Y-197473633D01*
X296283466Y-197438897D01*
X296308452Y-197408452D01*
X296338897Y-197383466D01*
X296373633Y-197364899D01*
X296411326Y-197353465D01*
X296456661Y-197349000D01*
X297543339Y-197349000D01*
X297588674Y-197353465D01*
X297588674Y-197353465D01*
G37*
G36*
X300088674Y-197353465D02*
G01*
X300126367Y-197364899D01*
X300161103Y-197383466D01*
X300191548Y-197408452D01*
X300216534Y-197438897D01*
X300235101Y-197473633D01*
X300246535Y-197511326D01*
X300251000Y-197556661D01*
X300251000Y-198393339D01*
X300246535Y-198438674D01*
X300235101Y-198476367D01*
X300216534Y-198511103D01*
X300191548Y-198541548D01*
X300161103Y-198566534D01*
X300126367Y-198585101D01*
X300088674Y-198596535D01*
X300043339Y-198601000D01*
X298956661Y-198601000D01*
X298911326Y-198596535D01*
X298873633Y-198585101D01*
X298838897Y-198566534D01*
X298808452Y-198541548D01*
X298783466Y-198511103D01*
X298764899Y-198476367D01*
X298753465Y-198438674D01*
X298749000Y-198393339D01*
X298749000Y-197556661D01*
X298753465Y-197511326D01*
X298764899Y-197473633D01*
X298783466Y-197438897D01*
X298808452Y-197408452D01*
X298838897Y-197383466D01*
X298873633Y-197364899D01*
X298911326Y-197353465D01*
X298956661Y-197349000D01*
X300043339Y-197349000D01*
X300088674Y-197353465D01*
X300088674Y-197353465D01*
G37*
G36*
X293196564Y-196409389D02*
G01*
X293338218Y-196468064D01*
X293387835Y-196488616D01*
X293559973Y-196603635D01*
X293706365Y-196750027D01*
X293769547Y-196844585D01*
X293821385Y-196922167D01*
X293900611Y-197113436D01*
X293941000Y-197316484D01*
X293941000Y-197523516D01*
X293900611Y-197726564D01*
X293874665Y-197789203D01*
X293821384Y-197917835D01*
X293706365Y-198089973D01*
X293559973Y-198236365D01*
X293387835Y-198351384D01*
X293387834Y-198351385D01*
X293387833Y-198351385D01*
X293196564Y-198430611D01*
X292993516Y-198471000D01*
X292786484Y-198471000D01*
X292583436Y-198430611D01*
X292392167Y-198351385D01*
X292392166Y-198351385D01*
X292392165Y-198351384D01*
X292220027Y-198236365D01*
X292073635Y-198089973D01*
X291958616Y-197917835D01*
X291905335Y-197789203D01*
X291879389Y-197726564D01*
X291839000Y-197523516D01*
X291839000Y-197316484D01*
X291879389Y-197113436D01*
X291958615Y-196922167D01*
X292010454Y-196844585D01*
X292073635Y-196750027D01*
X292220027Y-196603635D01*
X292392165Y-196488616D01*
X292441782Y-196468064D01*
X292583436Y-196409389D01*
X292786484Y-196369000D01*
X292993516Y-196369000D01*
X293196564Y-196409389D01*
X293196564Y-196409389D01*
G37*
G36*
X307146564Y-196409389D02*
G01*
X307288218Y-196468064D01*
X307337835Y-196488616D01*
X307509973Y-196603635D01*
X307656365Y-196750027D01*
X307719547Y-196844585D01*
X307771385Y-196922167D01*
X307850611Y-197113436D01*
X307891000Y-197316484D01*
X307891000Y-197523516D01*
X307850611Y-197726564D01*
X307824665Y-197789203D01*
X307771384Y-197917835D01*
X307656365Y-198089973D01*
X307509973Y-198236365D01*
X307337835Y-198351384D01*
X307337834Y-198351385D01*
X307337833Y-198351385D01*
X307146564Y-198430611D01*
X306943516Y-198471000D01*
X306736484Y-198471000D01*
X306533436Y-198430611D01*
X306342167Y-198351385D01*
X306342166Y-198351385D01*
X306342165Y-198351384D01*
X306170027Y-198236365D01*
X306023635Y-198089973D01*
X305908616Y-197917835D01*
X305855335Y-197789203D01*
X305829389Y-197726564D01*
X305789000Y-197523516D01*
X305789000Y-197316484D01*
X305829389Y-197113436D01*
X305908615Y-196922167D01*
X305960454Y-196844585D01*
X306023635Y-196750027D01*
X306170027Y-196603635D01*
X306342165Y-196488616D01*
X306391782Y-196468064D01*
X306533436Y-196409389D01*
X306736484Y-196369000D01*
X306943516Y-196369000D01*
X307146564Y-196409389D01*
X307146564Y-196409389D01*
G37*
G36*
X279525288Y-195834802D02*
G01*
X279674588Y-195864499D01*
X279838560Y-195932419D01*
X279986130Y-196031022D01*
X280111629Y-196156521D01*
X280210232Y-196304091D01*
X280278152Y-196468063D01*
X280312776Y-196642134D01*
X280312776Y-196819616D01*
X280278152Y-196993687D01*
X280210232Y-197157659D01*
X280111629Y-197305229D01*
X279986130Y-197430728D01*
X279838560Y-197529331D01*
X279674588Y-197597251D01*
X279525288Y-197626948D01*
X279500518Y-197631875D01*
X279323034Y-197631875D01*
X279298264Y-197626948D01*
X279148964Y-197597251D01*
X278984992Y-197529331D01*
X278837422Y-197430728D01*
X278711923Y-197305229D01*
X278613320Y-197157659D01*
X278545400Y-196993687D01*
X278510776Y-196819616D01*
X278510776Y-196642134D01*
X278545400Y-196468063D01*
X278613320Y-196304091D01*
X278711923Y-196156521D01*
X278837422Y-196031022D01*
X278984992Y-195932419D01*
X279148964Y-195864499D01*
X279298264Y-195834802D01*
X279323034Y-195829875D01*
X279500518Y-195829875D01*
X279525288Y-195834802D01*
X279525288Y-195834802D01*
G37*
G36*
X275946855Y-195521730D02*
G01*
X276096155Y-195551427D01*
X276260127Y-195619347D01*
X276407697Y-195717950D01*
X276533196Y-195843449D01*
X276631799Y-195991019D01*
X276699719Y-196154991D01*
X276734343Y-196329062D01*
X276734343Y-196506544D01*
X276699719Y-196680615D01*
X276631799Y-196844587D01*
X276533196Y-196992157D01*
X276407697Y-197117656D01*
X276260127Y-197216259D01*
X276096155Y-197284179D01*
X275946855Y-197313876D01*
X275922085Y-197318803D01*
X275744601Y-197318803D01*
X275719831Y-197313876D01*
X275570531Y-197284179D01*
X275406559Y-197216259D01*
X275258989Y-197117656D01*
X275133490Y-196992157D01*
X275034887Y-196844587D01*
X274966967Y-196680615D01*
X274932343Y-196506544D01*
X274932343Y-196329062D01*
X274966967Y-196154991D01*
X275034887Y-195991019D01*
X275133490Y-195843449D01*
X275258989Y-195717950D01*
X275406559Y-195619347D01*
X275570531Y-195551427D01*
X275719831Y-195521730D01*
X275744601Y-195516803D01*
X275922085Y-195516803D01*
X275946855Y-195521730D01*
X275946855Y-195521730D01*
G37*
G36*
X300901000Y-196131000D02*
G01*
X300399000Y-196131000D01*
X300399000Y-194529000D01*
X300901000Y-194529000D01*
X300901000Y-196131000D01*
X300901000Y-196131000D01*
G37*
G36*
X299601000Y-196131000D02*
G01*
X299099000Y-196131000D01*
X299099000Y-194529000D01*
X299601000Y-194529000D01*
X299601000Y-196131000D01*
X299601000Y-196131000D01*
G37*
G36*
X297901000Y-196131000D02*
G01*
X297399000Y-196131000D01*
X297399000Y-194529000D01*
X297901000Y-194529000D01*
X297901000Y-196131000D01*
X297901000Y-196131000D01*
G37*
G36*
X296601000Y-196131000D02*
G01*
X296099000Y-196131000D01*
X296099000Y-194529000D01*
X296601000Y-194529000D01*
X296601000Y-196131000D01*
X296601000Y-196131000D01*
G37*
G36*
X307146564Y-193869389D02*
G01*
X307337833Y-193948615D01*
X307337835Y-193948616D01*
X307509973Y-194063635D01*
X307656365Y-194210027D01*
X307755465Y-194358340D01*
X307771385Y-194382167D01*
X307850611Y-194573436D01*
X307891000Y-194776484D01*
X307891000Y-194983516D01*
X307850611Y-195186564D01*
X307771385Y-195377833D01*
X307771384Y-195377835D01*
X307656365Y-195549973D01*
X307509973Y-195696365D01*
X307337835Y-195811384D01*
X307337834Y-195811385D01*
X307337833Y-195811385D01*
X307146564Y-195890611D01*
X306943516Y-195931000D01*
X306736484Y-195931000D01*
X306533436Y-195890611D01*
X306342167Y-195811385D01*
X306342166Y-195811385D01*
X306342165Y-195811384D01*
X306170027Y-195696365D01*
X306023635Y-195549973D01*
X305908616Y-195377835D01*
X305908615Y-195377833D01*
X305829389Y-195186564D01*
X305789000Y-194983516D01*
X305789000Y-194776484D01*
X305829389Y-194573436D01*
X305908615Y-194382167D01*
X305924536Y-194358340D01*
X306023635Y-194210027D01*
X306170027Y-194063635D01*
X306342165Y-193948616D01*
X306342167Y-193948615D01*
X306533436Y-193869389D01*
X306736484Y-193829000D01*
X306943516Y-193829000D01*
X307146564Y-193869389D01*
X307146564Y-193869389D01*
G37*
G36*
X293196564Y-193869389D02*
G01*
X293387833Y-193948615D01*
X293387835Y-193948616D01*
X293559973Y-194063635D01*
X293706365Y-194210027D01*
X293805465Y-194358340D01*
X293821385Y-194382167D01*
X293900611Y-194573436D01*
X293941000Y-194776484D01*
X293941000Y-194983516D01*
X293900611Y-195186564D01*
X293821385Y-195377833D01*
X293821384Y-195377835D01*
X293706365Y-195549973D01*
X293559973Y-195696365D01*
X293387835Y-195811384D01*
X293387834Y-195811385D01*
X293387833Y-195811385D01*
X293196564Y-195890611D01*
X292993516Y-195931000D01*
X292786484Y-195931000D01*
X292583436Y-195890611D01*
X292392167Y-195811385D01*
X292392166Y-195811385D01*
X292392165Y-195811384D01*
X292220027Y-195696365D01*
X292073635Y-195549973D01*
X291958616Y-195377835D01*
X291958615Y-195377833D01*
X291879389Y-195186564D01*
X291839000Y-194983516D01*
X291839000Y-194776484D01*
X291879389Y-194573436D01*
X291958615Y-194382167D01*
X291974536Y-194358340D01*
X292073635Y-194210027D01*
X292220027Y-194063635D01*
X292392165Y-193948616D01*
X292392167Y-193948615D01*
X292583436Y-193869389D01*
X292786484Y-193829000D01*
X292993516Y-193829000D01*
X293196564Y-193869389D01*
X293196564Y-193869389D01*
G37*
G36*
X277892607Y-193889049D02*
G01*
X278041907Y-193918746D01*
X278205879Y-193986666D01*
X278353449Y-194085269D01*
X278478948Y-194210768D01*
X278577551Y-194358338D01*
X278645471Y-194522310D01*
X278680095Y-194696381D01*
X278680095Y-194873863D01*
X278645471Y-195047934D01*
X278577551Y-195211906D01*
X278478948Y-195359476D01*
X278353449Y-195484975D01*
X278205879Y-195583578D01*
X278041907Y-195651498D01*
X277892607Y-195681195D01*
X277867837Y-195686122D01*
X277690353Y-195686122D01*
X277665583Y-195681195D01*
X277516283Y-195651498D01*
X277352311Y-195583578D01*
X277204741Y-195484975D01*
X277079242Y-195359476D01*
X276980639Y-195211906D01*
X276912719Y-195047934D01*
X276878095Y-194873863D01*
X276878095Y-194696381D01*
X276912719Y-194522310D01*
X276980639Y-194358338D01*
X277079242Y-194210768D01*
X277204741Y-194085269D01*
X277352311Y-193986666D01*
X277516283Y-193918746D01*
X277665583Y-193889049D01*
X277690353Y-193884122D01*
X277867837Y-193884122D01*
X277892607Y-193889049D01*
X277892607Y-193889049D01*
G37*
G36*
X300901000Y-193471000D02*
G01*
X299099000Y-193471000D01*
X299099000Y-191869000D01*
X300901000Y-191869000D01*
X300901000Y-193471000D01*
X300901000Y-193471000D01*
G37*
G36*
X297901000Y-193471000D02*
G01*
X296099000Y-193471000D01*
X296099000Y-191869000D01*
X297901000Y-191869000D01*
X297901000Y-193471000D01*
X297901000Y-193471000D01*
G37*
G36*
X309496162Y-188364368D02*
G01*
X309805724Y-188492593D01*
X309805725Y-188492594D01*
X310084324Y-188678747D01*
X310321253Y-188915676D01*
X310423443Y-189068615D01*
X310507407Y-189194276D01*
X310635632Y-189503838D01*
X310701000Y-189832465D01*
X310701000Y-190167535D01*
X310635632Y-190496162D01*
X310507407Y-190805724D01*
X310507406Y-190805725D01*
X310321253Y-191084324D01*
X310084324Y-191321253D01*
X309898170Y-191445637D01*
X309805724Y-191507407D01*
X309496162Y-191635632D01*
X309167535Y-191701000D01*
X308832465Y-191701000D01*
X308503838Y-191635632D01*
X308194276Y-191507407D01*
X308101830Y-191445637D01*
X307915676Y-191321253D01*
X307678747Y-191084324D01*
X307492594Y-190805725D01*
X307492593Y-190805724D01*
X307364368Y-190496162D01*
X307299000Y-190167535D01*
X307299000Y-189832465D01*
X307364368Y-189503838D01*
X307492593Y-189194276D01*
X307576557Y-189068615D01*
X307678747Y-188915676D01*
X307915676Y-188678747D01*
X308194275Y-188492594D01*
X308194276Y-188492593D01*
X308503838Y-188364368D01*
X308832465Y-188299000D01*
X309167535Y-188299000D01*
X309496162Y-188364368D01*
X309496162Y-188364368D01*
G37*
G36*
X291496162Y-188364368D02*
G01*
X291805724Y-188492593D01*
X291805725Y-188492594D01*
X292084324Y-188678747D01*
X292321253Y-188915676D01*
X292423443Y-189068615D01*
X292507407Y-189194276D01*
X292635632Y-189503838D01*
X292701000Y-189832465D01*
X292701000Y-190167535D01*
X292635632Y-190496162D01*
X292507407Y-190805724D01*
X292507406Y-190805725D01*
X292321253Y-191084324D01*
X292084324Y-191321253D01*
X291898170Y-191445637D01*
X291805724Y-191507407D01*
X291496162Y-191635632D01*
X291167535Y-191701000D01*
X290832465Y-191701000D01*
X290503838Y-191635632D01*
X290194276Y-191507407D01*
X290101830Y-191445637D01*
X289915676Y-191321253D01*
X289678747Y-191084324D01*
X289492594Y-190805725D01*
X289492593Y-190805724D01*
X289364368Y-190496162D01*
X289299000Y-190167535D01*
X289299000Y-189832465D01*
X289364368Y-189503838D01*
X289492593Y-189194276D01*
X289576557Y-189068615D01*
X289678747Y-188915676D01*
X289915676Y-188678747D01*
X290194275Y-188492594D01*
X290194276Y-188492593D01*
X290503838Y-188364368D01*
X290832465Y-188299000D01*
X291167535Y-188299000D01*
X291496162Y-188364368D01*
X291496162Y-188364368D01*
G37*
G36*
X315806564Y-188989389D02*
G01*
X315997833Y-189068615D01*
X315997835Y-189068616D01*
X316169973Y-189183635D01*
X316316365Y-189330027D01*
X316422519Y-189488897D01*
X316431385Y-189502167D01*
X316510611Y-189693436D01*
X316551000Y-189896484D01*
X316551000Y-190103516D01*
X316510611Y-190306564D01*
X316443602Y-190468339D01*
X316431384Y-190497835D01*
X316316365Y-190669973D01*
X316169973Y-190816365D01*
X315997835Y-190931384D01*
X315997834Y-190931385D01*
X315997833Y-190931385D01*
X315806564Y-191010611D01*
X315603516Y-191051000D01*
X315396484Y-191051000D01*
X315193436Y-191010611D01*
X315002167Y-190931385D01*
X315002166Y-190931385D01*
X315002165Y-190931384D01*
X314830027Y-190816365D01*
X314683635Y-190669973D01*
X314568616Y-190497835D01*
X314556398Y-190468339D01*
X314489389Y-190306564D01*
X314449000Y-190103516D01*
X314449000Y-189896484D01*
X314489389Y-189693436D01*
X314568615Y-189502167D01*
X314577482Y-189488897D01*
X314683635Y-189330027D01*
X314830027Y-189183635D01*
X315002165Y-189068616D01*
X315002167Y-189068615D01*
X315193436Y-188989389D01*
X315396484Y-188949000D01*
X315603516Y-188949000D01*
X315806564Y-188989389D01*
X315806564Y-188989389D01*
G37*
G36*
X302588674Y-189428465D02*
G01*
X302626367Y-189439899D01*
X302661103Y-189458466D01*
X302691548Y-189483452D01*
X302716534Y-189513897D01*
X302735101Y-189548633D01*
X302746535Y-189586326D01*
X302751000Y-189631661D01*
X302751000Y-190468339D01*
X302746535Y-190513674D01*
X302735101Y-190551367D01*
X302716534Y-190586103D01*
X302691548Y-190616548D01*
X302661103Y-190641534D01*
X302626367Y-190660101D01*
X302588674Y-190671535D01*
X302543339Y-190676000D01*
X301456661Y-190676000D01*
X301411326Y-190671535D01*
X301373633Y-190660101D01*
X301338897Y-190641534D01*
X301308452Y-190616548D01*
X301283466Y-190586103D01*
X301264899Y-190551367D01*
X301253465Y-190513674D01*
X301249000Y-190468339D01*
X301249000Y-189631661D01*
X301253465Y-189586326D01*
X301264899Y-189548633D01*
X301283466Y-189513897D01*
X301308452Y-189483452D01*
X301338897Y-189458466D01*
X301373633Y-189439899D01*
X301411326Y-189428465D01*
X301456661Y-189424000D01*
X302543339Y-189424000D01*
X302588674Y-189428465D01*
X302588674Y-189428465D01*
G37*
G36*
X298588674Y-189403465D02*
G01*
X298626367Y-189414899D01*
X298661103Y-189433466D01*
X298691548Y-189458452D01*
X298716534Y-189488897D01*
X298735101Y-189523633D01*
X298746535Y-189561326D01*
X298751000Y-189606661D01*
X298751000Y-190443339D01*
X298746535Y-190488674D01*
X298735101Y-190526367D01*
X298716534Y-190561103D01*
X298691548Y-190591548D01*
X298661103Y-190616534D01*
X298626367Y-190635101D01*
X298588674Y-190646535D01*
X298543339Y-190651000D01*
X297456661Y-190651000D01*
X297411326Y-190646535D01*
X297373633Y-190635101D01*
X297338897Y-190616534D01*
X297308452Y-190591548D01*
X297283466Y-190561103D01*
X297264899Y-190526367D01*
X297253465Y-190488674D01*
X297249000Y-190443339D01*
X297249000Y-189606661D01*
X297253465Y-189561326D01*
X297264899Y-189523633D01*
X297283466Y-189488897D01*
X297308452Y-189458452D01*
X297338897Y-189433466D01*
X297373633Y-189414899D01*
X297411326Y-189403465D01*
X297456661Y-189399000D01*
X298543339Y-189399000D01*
X298588674Y-189403465D01*
X298588674Y-189403465D01*
G37*
G36*
X302588674Y-187378465D02*
G01*
X302626367Y-187389899D01*
X302661103Y-187408466D01*
X302691548Y-187433452D01*
X302716534Y-187463897D01*
X302735101Y-187498633D01*
X302746535Y-187536326D01*
X302751000Y-187581661D01*
X302751000Y-188418339D01*
X302746535Y-188463674D01*
X302735101Y-188501367D01*
X302716534Y-188536103D01*
X302691548Y-188566548D01*
X302661103Y-188591534D01*
X302626367Y-188610101D01*
X302588674Y-188621535D01*
X302543339Y-188626000D01*
X301456661Y-188626000D01*
X301411326Y-188621535D01*
X301373633Y-188610101D01*
X301338897Y-188591534D01*
X301308452Y-188566548D01*
X301283466Y-188536103D01*
X301264899Y-188501367D01*
X301253465Y-188463674D01*
X301249000Y-188418339D01*
X301249000Y-187581661D01*
X301253465Y-187536326D01*
X301264899Y-187498633D01*
X301283466Y-187463897D01*
X301308452Y-187433452D01*
X301338897Y-187408466D01*
X301373633Y-187389899D01*
X301411326Y-187378465D01*
X301456661Y-187374000D01*
X302543339Y-187374000D01*
X302588674Y-187378465D01*
X302588674Y-187378465D01*
G37*
G36*
X298588674Y-187353465D02*
G01*
X298626367Y-187364899D01*
X298661103Y-187383466D01*
X298691548Y-187408452D01*
X298716534Y-187438897D01*
X298735101Y-187473633D01*
X298746535Y-187511326D01*
X298751000Y-187556661D01*
X298751000Y-188393339D01*
X298746535Y-188438674D01*
X298735101Y-188476367D01*
X298716534Y-188511103D01*
X298691548Y-188541548D01*
X298661103Y-188566534D01*
X298626367Y-188585101D01*
X298588674Y-188596535D01*
X298543339Y-188601000D01*
X297456661Y-188601000D01*
X297411326Y-188596535D01*
X297373633Y-188585101D01*
X297338897Y-188566534D01*
X297308452Y-188541548D01*
X297283466Y-188511103D01*
X297264899Y-188476367D01*
X297253465Y-188438674D01*
X297249000Y-188393339D01*
X297249000Y-187556661D01*
X297253465Y-187511326D01*
X297264899Y-187473633D01*
X297283466Y-187438897D01*
X297308452Y-187408452D01*
X297338897Y-187383466D01*
X297373633Y-187364899D01*
X297411326Y-187353465D01*
X297456661Y-187349000D01*
X298543339Y-187349000D01*
X298588674Y-187353465D01*
X298588674Y-187353465D01*
G37*
M02*
