G04 #@! TF.GenerationSoftware,KiCad,Pcbnew,(5.1.4)-1*
G04 #@! TF.CreationDate,2019-09-16T17:17:07+02:00*
G04 #@! TF.ProjectId,PixelFan,50697865-6c46-4616-9e2e-6b696361645f,rev?*
G04 #@! TF.SameCoordinates,Original*
G04 #@! TF.FileFunction,Legend,Top*
G04 #@! TF.FilePolarity,Positive*
%FSLAX46Y46*%
G04 Gerber Fmt 4.6, Leading zero omitted, Abs format (unit mm)*
G04 Created by KiCad (PCBNEW (5.1.4)-1) date 2019-09-16 17:17:07*
%MOMM*%
%LPD*%
G04 APERTURE LIST*
%ADD10C,0.120000*%
%ADD11C,0.300000*%
%ADD12C,0.150000*%
G04 APERTURE END LIST*
D10*
X334000000Y-228500000D02*
X354000000Y-228500000D01*
X334000000Y-249500000D02*
X334000000Y-228500000D01*
X354000000Y-249500000D02*
X334000000Y-249500000D01*
X354000000Y-228500000D02*
X354000000Y-249500000D01*
D11*
X273315484Y-286445086D02*
X272086756Y-285584721D01*
X272414514Y-285116635D01*
X272554964Y-285040583D01*
X272654445Y-285023041D01*
X272812436Y-285046470D01*
X272987969Y-285169379D01*
X273064021Y-285309830D01*
X273081562Y-285409310D01*
X273058133Y-285567302D01*
X272730375Y-286035389D01*
X274175849Y-285216358D02*
X273356697Y-284642782D01*
X272947121Y-284355993D02*
X272964662Y-284455474D01*
X273064142Y-284437933D01*
X273046601Y-284338452D01*
X272947121Y-284355993D01*
X273064142Y-284437933D01*
X274503607Y-284748271D02*
X274135122Y-283531075D01*
X273684455Y-284174695D02*
X274954274Y-284104652D01*
X275551279Y-283127508D02*
X275527850Y-283285500D01*
X275363971Y-283519543D01*
X275223521Y-283595595D01*
X275065529Y-283572166D01*
X274597443Y-283244408D01*
X274521391Y-283103958D01*
X274544819Y-282945967D01*
X274708698Y-282711923D01*
X274849149Y-282635871D01*
X275007140Y-282659300D01*
X275124162Y-282741239D01*
X274831486Y-283408287D01*
X276142396Y-282407837D02*
X276001946Y-282483889D01*
X275843955Y-282460460D01*
X274790759Y-281723005D01*
X276113323Y-281079507D02*
X275826535Y-281489083D01*
X276470154Y-281939750D02*
X275241426Y-281079385D01*
X275651124Y-280494277D01*
X277576338Y-280359957D02*
X276932718Y-279909289D01*
X276774727Y-279885861D01*
X276634276Y-279961913D01*
X276470397Y-280195956D01*
X276446969Y-280353948D01*
X277517827Y-280318987D02*
X277494398Y-280476978D01*
X277289549Y-280769533D01*
X277149099Y-280845585D01*
X276991108Y-280822156D01*
X276874086Y-280740217D01*
X276798034Y-280599766D01*
X276821462Y-280441775D01*
X277026311Y-280149220D01*
X277049740Y-279991229D01*
X277166883Y-279201272D02*
X277986035Y-279774848D01*
X277283905Y-279283211D02*
X277266364Y-279183730D01*
X277289792Y-279025739D01*
X277412701Y-278850206D01*
X277553152Y-278774154D01*
X277711143Y-278797583D01*
X278354763Y-279248250D01*
X278068339Y-277042136D02*
X279583855Y-277492924D01*
X278641915Y-276222984D01*
X280608099Y-276030153D02*
X280116462Y-276732283D01*
X280362280Y-276381218D02*
X279133552Y-275520853D01*
X279227145Y-275760784D01*
X279262227Y-275959746D01*
X279238799Y-276117737D01*
X280859805Y-275421616D02*
X280959285Y-275404075D01*
X280976826Y-275503555D01*
X280877346Y-275521096D01*
X280859805Y-275421616D01*
X280976826Y-275503555D01*
X280321675Y-273824039D02*
X280403614Y-273707017D01*
X280544065Y-273630965D01*
X280643545Y-273613424D01*
X280801537Y-273636852D01*
X281076550Y-273742220D01*
X281369104Y-273947069D01*
X281562178Y-274169459D01*
X281638230Y-274309909D01*
X281655771Y-274409390D01*
X281632342Y-274567381D01*
X281550403Y-274684403D01*
X281409953Y-274760455D01*
X281310472Y-274777996D01*
X281152480Y-274754568D01*
X280877467Y-274649200D01*
X280584913Y-274444351D01*
X280391839Y-274221961D01*
X280315787Y-274081511D01*
X280298246Y-273982030D01*
X280321675Y-273824039D01*
D12*
X319926170Y-284191840D02*
X319819730Y-284188932D01*
X319690258Y-284249306D01*
X319580910Y-284352838D01*
X319534844Y-284479402D01*
X319531936Y-284585842D01*
X319569277Y-284778597D01*
X319629651Y-284908069D01*
X319753308Y-285060575D01*
X319836715Y-285126765D01*
X319963279Y-285172831D01*
X320112876Y-285155614D01*
X320199191Y-285115365D01*
X320308539Y-285011833D01*
X320331572Y-284948551D01*
X320190699Y-284646448D01*
X320018069Y-284726947D01*
X320760239Y-284853744D02*
X320337621Y-283947436D01*
X321278129Y-284612248D01*
X320855511Y-283705940D01*
X321709704Y-284411001D02*
X321287086Y-283504693D01*
X321502873Y-283404070D01*
X321652471Y-283386853D01*
X321779035Y-283432919D01*
X321862442Y-283499109D01*
X321986098Y-283651615D01*
X322046472Y-283781087D01*
X322083813Y-283973842D01*
X322080905Y-284080282D01*
X322034840Y-284206846D01*
X321925492Y-284310378D01*
X321709704Y-284411001D01*
X319335479Y-282665241D02*
X318832129Y-282374539D01*
X318817589Y-282906738D02*
X318394970Y-282000430D01*
X318740230Y-281839432D01*
X318846670Y-281842340D01*
X318909952Y-281865373D01*
X318993359Y-281931564D01*
X319053733Y-282061036D01*
X319050825Y-282167476D01*
X319027792Y-282230758D01*
X318961602Y-282314165D01*
X318616342Y-282475162D01*
X319214963Y-281618061D02*
X320241787Y-282242623D01*
X319819168Y-281336315D02*
X319637581Y-282524369D01*
X320587047Y-282081626D02*
X320164428Y-281175318D01*
X320380216Y-281074695D01*
X320529813Y-281057478D01*
X320656378Y-281103544D01*
X320739784Y-281169734D01*
X320863441Y-281322239D01*
X320923815Y-281451712D01*
X320961156Y-281644467D01*
X320958248Y-281750906D01*
X320912182Y-281877471D01*
X320802834Y-281981002D01*
X320587047Y-282081626D01*
X317293892Y-279851492D02*
X317811782Y-279609996D01*
X317975455Y-280637052D02*
X317552837Y-279730744D01*
X318027569Y-279509373D02*
X319054393Y-280133935D01*
X318631775Y-279227627D02*
X318450188Y-280415680D01*
X319399653Y-279972937D02*
X318977035Y-279066630D01*
X319192822Y-278966006D01*
X319342419Y-278948790D01*
X319468984Y-278994855D01*
X319552391Y-279061046D01*
X319676047Y-279213551D01*
X319736421Y-279343024D01*
X319773762Y-279535778D01*
X319770854Y-279642218D01*
X319724788Y-279768782D01*
X319615440Y-279872314D01*
X319399653Y-279972937D01*
X297647619Y-293652380D02*
X297314285Y-293176190D01*
X297076190Y-293652380D02*
X297076190Y-292652380D01*
X297457142Y-292652380D01*
X297552380Y-292700000D01*
X297600000Y-292747619D01*
X297647619Y-292842857D01*
X297647619Y-292985714D01*
X297600000Y-293080952D01*
X297552380Y-293128571D01*
X297457142Y-293176190D01*
X297076190Y-293176190D01*
X298076190Y-293128571D02*
X298409523Y-293128571D01*
X298552380Y-293652380D02*
X298076190Y-293652380D01*
X298076190Y-292652380D01*
X298552380Y-292652380D01*
X298933333Y-293604761D02*
X299076190Y-293652380D01*
X299314285Y-293652380D01*
X299409523Y-293604761D01*
X299457142Y-293557142D01*
X299504761Y-293461904D01*
X299504761Y-293366666D01*
X299457142Y-293271428D01*
X299409523Y-293223809D01*
X299314285Y-293176190D01*
X299123809Y-293128571D01*
X299028571Y-293080952D01*
X298980952Y-293033333D01*
X298933333Y-292938095D01*
X298933333Y-292842857D01*
X298980952Y-292747619D01*
X299028571Y-292700000D01*
X299123809Y-292652380D01*
X299361904Y-292652380D01*
X299504761Y-292700000D01*
X299933333Y-293128571D02*
X300266666Y-293128571D01*
X300409523Y-293652380D02*
X299933333Y-293652380D01*
X299933333Y-292652380D01*
X300409523Y-292652380D01*
X300695238Y-292652380D02*
X301266666Y-292652380D01*
X300980952Y-293652380D02*
X300980952Y-292652380D01*
X283485612Y-290893477D02*
X283163637Y-290807204D01*
X283028065Y-291313165D02*
X283286884Y-290347240D01*
X283746849Y-290470487D01*
X284315966Y-291658258D02*
X283856001Y-291535010D01*
X284114820Y-290569085D01*
X284665893Y-291456227D02*
X285125858Y-291579474D01*
X284499952Y-291707556D02*
X285080746Y-290827904D01*
X285143902Y-291880102D01*
X285432206Y-291908054D02*
X285557871Y-291991025D01*
X285787853Y-292052648D01*
X285892171Y-292031301D01*
X285950492Y-291997630D01*
X286021138Y-291917961D01*
X286045787Y-291825969D01*
X286024440Y-291721651D01*
X285990768Y-291663330D01*
X285911100Y-291592684D01*
X285739439Y-291497388D01*
X285659771Y-291426743D01*
X285626099Y-291368421D01*
X285604752Y-291264104D01*
X285629401Y-291172111D01*
X285700047Y-291092443D01*
X285758368Y-291058771D01*
X285862686Y-291037424D01*
X286092668Y-291099047D01*
X286218333Y-291182018D01*
X286385807Y-292212870D02*
X286644626Y-291246944D01*
X286521379Y-291706909D02*
X287073336Y-291854805D01*
X286937765Y-292360766D02*
X287196584Y-291394841D01*
X317607782Y-194383637D02*
X318030400Y-193477329D01*
X318039357Y-194584884D02*
X318461975Y-193678576D01*
X318557247Y-194826380D01*
X318979865Y-193920072D01*
X320556569Y-194707843D02*
X320490378Y-194624436D01*
X320360906Y-194564062D01*
X320211309Y-194546846D01*
X320084744Y-194592911D01*
X320001337Y-194659102D01*
X319877681Y-194811607D01*
X319817307Y-194941080D01*
X319779966Y-195133834D01*
X319782874Y-195240274D01*
X319828940Y-195366838D01*
X319938288Y-195470370D01*
X320024603Y-195510619D01*
X320174200Y-195527836D01*
X320237482Y-195504803D01*
X320378355Y-195202700D01*
X320205725Y-195122202D01*
X320585650Y-195772240D02*
X321008269Y-194865932D01*
X321103540Y-196013736D01*
X321526159Y-195107428D01*
X321535116Y-196214983D02*
X321957734Y-195308675D01*
X322173521Y-195409299D01*
X322282869Y-195512830D01*
X322328935Y-195639395D01*
X322331843Y-195745834D01*
X322294502Y-195938589D01*
X322234128Y-196068062D01*
X322110472Y-196220567D01*
X322027065Y-196286757D01*
X321900500Y-196332823D01*
X321750903Y-196315606D01*
X321535116Y-196214983D01*
X332612312Y-200852010D02*
X333255100Y-200085965D01*
X332977095Y-201158099D02*
X333619883Y-200392055D01*
X333414835Y-201525406D01*
X334057622Y-200759362D01*
X335370841Y-201861284D02*
X335006058Y-201555194D01*
X334663491Y-201889368D01*
X334730578Y-201883499D01*
X334834143Y-201908239D01*
X335016535Y-202061283D01*
X335058883Y-202158979D01*
X335064752Y-202226067D01*
X335040012Y-202329632D01*
X334886968Y-202512024D01*
X334789272Y-202554371D01*
X334722184Y-202560241D01*
X334618619Y-202535501D01*
X334436227Y-202382457D01*
X334393880Y-202284760D01*
X334388010Y-202217673D01*
X335626190Y-202075546D02*
X335238750Y-203055853D01*
X336136886Y-202504071D01*
D10*
X330500000Y-240000000D02*
G75*
G03X330500000Y-240000000I-30500000J0D01*
G01*
X327500000Y-240000000D02*
G75*
G03X327500000Y-240000000I-27500000J0D01*
G01*
X255361009Y-257205771D02*
G75*
G03X255361009Y-257205771I-3162279J0D01*
G01*
X264361008Y-272794229D02*
G75*
G03X264361008Y-272794229I-3162278J0D01*
G01*
X264921162Y-245241670D02*
X248033667Y-254991670D01*
X277921162Y-267758330D02*
X264921162Y-245241670D01*
X261033667Y-277508330D02*
X277921162Y-267758330D01*
X312162278Y-190000000D02*
G75*
G03X312162278Y-190000000I-3162278J0D01*
G01*
X294162278Y-190000000D02*
G75*
G03X294162278Y-190000000I-3162278J0D01*
G01*
X313000000Y-207000000D02*
X313000000Y-187500000D01*
X287000000Y-207000000D02*
X313000000Y-207000000D01*
X287000000Y-187500000D02*
X287000000Y-207000000D01*
X341963548Y-272794229D02*
G75*
G03X341963548Y-272794229I-3162278J0D01*
G01*
X350963549Y-257205771D02*
G75*
G03X350963549Y-257205771I-3162279J0D01*
G01*
X322078838Y-267758330D02*
X338966333Y-277508330D01*
X335078838Y-245241670D02*
X322078838Y-267758330D01*
X351966333Y-254991670D02*
X335078838Y-245241670D01*
X327903118Y-207328396D02*
G75*
G03X327903118Y-207328396I-5120000J0D01*
G01*
X319869350Y-211489688D02*
X325696886Y-203167104D01*
X319836584Y-211466745D02*
X325664120Y-203144160D01*
X319803817Y-211443802D02*
X325631354Y-203121217D01*
X319771625Y-211420040D02*
X325598014Y-203099094D01*
X319739432Y-211396278D02*
X325564675Y-203076970D01*
X319707240Y-211372516D02*
X325531335Y-203054846D01*
X319675621Y-211347934D02*
X325497422Y-203033541D01*
X319644002Y-211323353D02*
X325463509Y-203012236D01*
X319612957Y-211297952D02*
X325429022Y-202991751D01*
X319581338Y-211273371D02*
X325395109Y-202970446D01*
X319550292Y-211247970D02*
X325360622Y-202949960D01*
X319519247Y-211222570D02*
X325326135Y-202929475D01*
X319488775Y-211196350D02*
X325291075Y-202909808D01*
X319458304Y-211170131D02*
X325256014Y-202890142D01*
X319427832Y-211143911D02*
X325220954Y-202870475D01*
X319397934Y-211116872D02*
X325185320Y-202851628D01*
X319368035Y-211089833D02*
X325149686Y-202832781D01*
X319338137Y-211062794D02*
X325114052Y-202813933D01*
X319307420Y-211035182D02*
X325077599Y-202794513D01*
X319278095Y-211007324D02*
X325041391Y-202776484D01*
X319248771Y-210979466D02*
X325005184Y-202758456D01*
X319220019Y-210950789D02*
X324968403Y-202741247D01*
X319191268Y-210922112D02*
X324931621Y-202724038D01*
X319162517Y-210893435D02*
X324894840Y-202706829D01*
X319133766Y-210864758D02*
X324858059Y-202689620D01*
X319105589Y-210835261D02*
X324820704Y-202673230D01*
X319077411Y-210805765D02*
X324783350Y-202656841D01*
X319049808Y-210775450D02*
X324745422Y-202641270D01*
X319022204Y-210745134D02*
X324707493Y-202625699D01*
X318994600Y-210714819D02*
X324669565Y-202610129D01*
X318966996Y-210684503D02*
X324631637Y-202594558D01*
X318939966Y-210653369D02*
X324593135Y-202579806D01*
X318912935Y-210622234D02*
X321021976Y-207610212D01*
X322445592Y-205577077D02*
X324554633Y-202565055D01*
X318886478Y-210590281D02*
X320989210Y-207587269D01*
X322412826Y-205554134D02*
X324515558Y-202551122D01*
X318859448Y-210559146D02*
X320956444Y-207564326D01*
X322380060Y-205531191D02*
X324477056Y-202536371D01*
X318833565Y-210526373D02*
X320923678Y-207541383D01*
X322347294Y-205508248D02*
X324437407Y-202523258D01*
X318807108Y-210494419D02*
X320890911Y-207518440D01*
X322314528Y-205485305D02*
X324398331Y-202509325D01*
X318781225Y-210461646D02*
X320858145Y-207495497D01*
X322281762Y-205462362D02*
X324358682Y-202496212D01*
X318755342Y-210428874D02*
X320825379Y-207472554D01*
X322248996Y-205439418D02*
X324319033Y-202483099D01*
X318730032Y-210395282D02*
X320792613Y-207449611D01*
X322216230Y-205416475D02*
X324278811Y-202470805D01*
X318704723Y-210361689D02*
X320759847Y-207426668D01*
X322183464Y-205393532D02*
X324238588Y-202458511D01*
X318679413Y-210328097D02*
X320727081Y-207403725D01*
X322150698Y-205370589D02*
X324198366Y-202446216D01*
X318654677Y-210293686D02*
X320694315Y-207380782D01*
X322117932Y-205347646D02*
X324157569Y-202434742D01*
X318629941Y-210259275D02*
X320661549Y-207357839D01*
X322085166Y-205324703D02*
X324116773Y-202423267D01*
X318605779Y-210224045D02*
X320628783Y-207334895D01*
X322052399Y-205301760D02*
X324075404Y-202412611D01*
X318581043Y-210189634D02*
X320596017Y-207311952D01*
X322019633Y-205278817D02*
X324034607Y-202401136D01*
X318557454Y-210153584D02*
X320563251Y-207289009D01*
X321986867Y-205255874D02*
X323992664Y-202391299D01*
X318533291Y-210118354D02*
X320530485Y-207266066D01*
X321954101Y-205232931D02*
X323951294Y-202380644D01*
X318509703Y-210082304D02*
X320497718Y-207243123D01*
X321921335Y-205209988D02*
X323909351Y-202370807D01*
X318486687Y-210045436D02*
X320464952Y-207220180D01*
X321888569Y-205187045D02*
X323866834Y-202361789D01*
X318463098Y-210009386D02*
X320432186Y-207197237D01*
X321855803Y-205164102D02*
X323824891Y-202351953D01*
X318440083Y-209972517D02*
X320399420Y-207174294D01*
X321823037Y-205141159D02*
X323782374Y-202342935D01*
X318417641Y-209934830D02*
X320366654Y-207151351D01*
X321790271Y-205118216D02*
X323739284Y-202334737D01*
X318395200Y-209897142D02*
X320333888Y-207128408D01*
X321757505Y-205095273D02*
X323696193Y-202326539D01*
X318372758Y-209859454D02*
X320301122Y-207105465D01*
X321724739Y-205072330D02*
X323653103Y-202318340D01*
X318350890Y-209820947D02*
X320268356Y-207082522D01*
X321691973Y-205049386D02*
X323609439Y-202310961D01*
X318329595Y-209781621D02*
X320235590Y-207059579D01*
X321659207Y-205026443D02*
X323565201Y-202304401D01*
X318307727Y-209743114D02*
X320202824Y-207036636D01*
X321626440Y-205003500D02*
X323521537Y-202297022D01*
X318286433Y-209703788D02*
X320170058Y-207013693D01*
X321593674Y-204980557D02*
X323477299Y-202290462D01*
X318265712Y-209663643D02*
X320137292Y-206990750D01*
X321560908Y-204957614D02*
X323432488Y-202284721D01*
X318244991Y-209623497D02*
X320104525Y-206967807D01*
X321528142Y-204934671D02*
X323387677Y-202278980D01*
X318224270Y-209583352D02*
X320071759Y-206944864D01*
X321495376Y-204911728D02*
X323342866Y-202273239D01*
X318204122Y-209542388D02*
X320038993Y-206921920D01*
X321462610Y-204888785D02*
X323297481Y-202268318D01*
X318184548Y-209500604D02*
X320006227Y-206898977D01*
X321429844Y-204865842D02*
X323251523Y-202264215D01*
X318164401Y-209459640D02*
X319973461Y-206876034D01*
X321397078Y-204842899D02*
X323206138Y-202259293D01*
X318145401Y-209417037D02*
X319940695Y-206853091D01*
X321364312Y-204819956D02*
X323159606Y-202256010D01*
X318126401Y-209374434D02*
X319907929Y-206830148D01*
X321331546Y-204797013D02*
X323113074Y-202252727D01*
X318107400Y-209331832D02*
X319875163Y-206807205D01*
X321298780Y-204774070D02*
X323066542Y-202249443D01*
X318088974Y-209288410D02*
X319842397Y-206784262D01*
X321266014Y-204751127D02*
X323019437Y-202246979D01*
X318070547Y-209244988D02*
X319809631Y-206761319D01*
X321233247Y-204728184D02*
X322972331Y-202244515D01*
X318052694Y-209200747D02*
X319776865Y-206738376D01*
X321200481Y-204705241D02*
X322924652Y-202242870D01*
X318034841Y-209156506D02*
X319744099Y-206715433D01*
X321167715Y-204682298D02*
X322876973Y-202241224D01*
X318017561Y-209111446D02*
X319711332Y-206692490D01*
X321134949Y-204659355D02*
X322828720Y-202240399D01*
X318000855Y-209065567D02*
X319678566Y-206669547D01*
X321102183Y-204636411D02*
X322779894Y-202240392D01*
X317984149Y-209019687D02*
X319645800Y-206646604D01*
X321069417Y-204613468D02*
X322731068Y-202240385D01*
X317967443Y-208973808D02*
X319613034Y-206623661D01*
X321036651Y-204590525D02*
X322682242Y-202240378D01*
X317951885Y-208926290D02*
X319580268Y-206600718D01*
X321003885Y-204567582D02*
X322632268Y-202242010D01*
X317936326Y-208878773D02*
X319547502Y-206577775D01*
X320971119Y-204544639D02*
X322582295Y-202243641D01*
X317920767Y-208831255D02*
X319514736Y-206554832D01*
X320938353Y-204521696D02*
X322532322Y-202245273D01*
X317905782Y-208782918D02*
X319481970Y-206531888D01*
X320905587Y-204498753D02*
X322481775Y-202247723D01*
X317891370Y-208733762D02*
X319449204Y-206508945D01*
X320872821Y-204475810D02*
X322430654Y-202250993D01*
X317876959Y-208684606D02*
X319416438Y-206486002D01*
X320840054Y-204452867D02*
X322379534Y-202254263D01*
X317863121Y-208634631D02*
X319383672Y-206463059D01*
X320807288Y-204429924D02*
X322327840Y-202258352D01*
X317849856Y-208583837D02*
X319350906Y-206440116D01*
X320774522Y-204406981D02*
X322275572Y-202263260D01*
X317836592Y-208533043D02*
X319318140Y-206417173D01*
X320741756Y-204384038D02*
X322223304Y-202268168D01*
X317823901Y-208481430D02*
X319285373Y-206394230D01*
X320708990Y-204361095D02*
X322170463Y-202273895D01*
X317811783Y-208428997D02*
X319252607Y-206371287D01*
X320676224Y-204338152D02*
X322117048Y-202280442D01*
X317800240Y-208375745D02*
X319219841Y-206348344D01*
X320643458Y-204315209D02*
X322063060Y-202287807D01*
X317788696Y-208322494D02*
X319187075Y-206325401D01*
X320610692Y-204292266D02*
X322009071Y-202295173D01*
X317778299Y-208267604D02*
X319154309Y-206302458D01*
X320577926Y-204269323D02*
X321953936Y-202304177D01*
X317767903Y-208212714D02*
X319121543Y-206279515D01*
X320545160Y-204246379D02*
X321898800Y-202313181D01*
X317758080Y-208157005D02*
X319088777Y-206256572D01*
X320512394Y-204223436D02*
X321843091Y-202323004D01*
X317748830Y-208100476D02*
X319056011Y-206233629D01*
X320479628Y-204200493D02*
X321786808Y-202333646D01*
X317740154Y-208043129D02*
X319023245Y-206210686D01*
X320446861Y-204177550D02*
X321729952Y-202345107D01*
X317731478Y-207985781D02*
X321673096Y-202356569D01*
X317723950Y-207926796D02*
X321615092Y-202369668D01*
X317716995Y-207866991D02*
X321556515Y-202383587D01*
X317710613Y-207806367D02*
X321497365Y-202398325D01*
X317704805Y-207744923D02*
X321437640Y-202413882D01*
X317699571Y-207682661D02*
X321377343Y-202430258D01*
X317695483Y-207618760D02*
X321315898Y-202448273D01*
X317691396Y-207554860D02*
X321254453Y-202466287D01*
X317688456Y-207489321D02*
X321191861Y-202485940D01*
X317686663Y-207422144D02*
X321128122Y-202507231D01*
X317685444Y-207354147D02*
X321063809Y-202529342D01*
X317684798Y-207285332D02*
X320998922Y-202552271D01*
X317685873Y-207214059D02*
X320932315Y-202577658D01*
X317687521Y-207141966D02*
X320865135Y-202603864D01*
X317689743Y-207069055D02*
X320797380Y-202630889D01*
X317693686Y-206993686D02*
X320727905Y-202660372D01*
X317698776Y-206916679D02*
X320657283Y-202691493D01*
X317705587Y-206837215D02*
X320584941Y-202725071D01*
X317713545Y-206756112D02*
X320511451Y-202760288D01*
X317723223Y-206672551D02*
X320436240Y-202797962D01*
X317734049Y-206587353D02*
X320359882Y-202837275D01*
X317747169Y-206498878D02*
X320281230Y-202879864D01*
X317762583Y-206407126D02*
X320200283Y-202925730D01*
X317780292Y-206312097D02*
X320117042Y-202974872D01*
X317800868Y-206212973D02*
X320030934Y-203028110D01*
X317824313Y-206109753D02*
X319941957Y-203085444D01*
X317851199Y-206001618D02*
X319849539Y-203147693D01*
X317882673Y-205886930D02*
X319752532Y-203216495D01*
X317918736Y-205765689D02*
X319650937Y-203291850D01*
X317961682Y-205634618D02*
X319542459Y-203377035D01*
X318013806Y-205490440D02*
X319424804Y-203475326D01*
X318077400Y-205329880D02*
X319295677Y-203590001D01*
X318159350Y-205143106D02*
X319148195Y-203730888D01*
X318277434Y-204904726D02*
X318964579Y-203923382D01*
X325622749Y-212826454D02*
X324803597Y-212252877D01*
X324926385Y-212949242D02*
X325499961Y-212130090D01*
X334495581Y-206528650D02*
G75*
G03X334495581Y-206528650I-2620000J0D01*
G01*
X331207081Y-205731963D02*
X330217189Y-204552255D01*
X333533973Y-208505044D02*
X332544080Y-207325336D01*
X331176440Y-205757675D02*
X330186547Y-204577966D01*
X333503331Y-208530756D02*
X332513438Y-207351047D01*
X333472046Y-208555701D02*
X332482796Y-207376759D01*
X331145798Y-205783386D02*
X330156548Y-204604444D01*
X333440762Y-208580647D02*
X332452154Y-207402470D01*
X331115156Y-205809098D02*
X330126549Y-204630922D01*
X333408834Y-208604826D02*
X332421513Y-207428182D01*
X331084514Y-205834809D02*
X330097193Y-204658165D01*
X333376264Y-208628239D02*
X332390871Y-207453893D01*
X331053873Y-205860521D02*
X330068479Y-204686175D01*
X333343051Y-208650887D02*
X332360229Y-207479605D01*
X331023231Y-205886232D02*
X330040409Y-204714950D01*
X333309838Y-208673534D02*
X332329587Y-207505316D01*
X330992589Y-205911944D02*
X330012338Y-204743726D01*
X333276625Y-208696181D02*
X332298945Y-207531028D01*
X330961947Y-205937655D02*
X329984267Y-204772502D01*
X333242770Y-208718063D02*
X332268304Y-207556739D01*
X330931305Y-205963367D02*
X329956839Y-204802044D01*
X333208271Y-208739178D02*
X332237662Y-207582451D01*
X330900664Y-205989078D02*
X329930054Y-204832351D01*
X333173130Y-208759527D02*
X332207020Y-207608162D01*
X330870022Y-206014790D02*
X329903912Y-204863425D01*
X333137989Y-208779876D02*
X332176378Y-207633874D01*
X330839380Y-206040501D02*
X329877770Y-204894499D01*
X333102205Y-208799460D02*
X332145737Y-207659585D01*
X330808738Y-206066213D02*
X329852270Y-204926339D01*
X333066420Y-208819043D02*
X332115095Y-207685297D01*
X330778097Y-206091924D02*
X329826771Y-204958179D01*
X333029994Y-208837860D02*
X332084453Y-207711008D01*
X330747455Y-206117636D02*
X329801914Y-204990785D01*
X332992924Y-208855911D02*
X332053811Y-207736720D01*
X330716813Y-206143347D02*
X329777700Y-205024157D01*
X332955854Y-208873962D02*
X332023169Y-207762431D01*
X330686171Y-206169059D02*
X329753486Y-205057528D01*
X332917376Y-208891890D02*
X331991762Y-207788786D01*
X330654763Y-206195413D02*
X329729149Y-205092309D01*
X332879021Y-208908409D02*
X331961120Y-207814497D01*
X330624122Y-206221125D02*
X329706221Y-205127213D01*
X332840023Y-208924162D02*
X331930478Y-207840209D01*
X330593480Y-206246836D02*
X329683935Y-205162883D01*
X332801025Y-208939915D02*
X331899836Y-207865920D01*
X330562838Y-206272548D02*
X329661650Y-205198553D01*
X332761384Y-208954901D02*
X331869195Y-207891632D01*
X330532196Y-206298259D02*
X329640007Y-205234990D01*
X332721743Y-208969888D02*
X331838553Y-207917343D01*
X330501555Y-206323971D02*
X329618364Y-205271426D01*
X332680817Y-208983343D02*
X331807911Y-207943055D01*
X330470913Y-206349682D02*
X329598007Y-205309394D01*
X332639890Y-208996798D02*
X331777269Y-207968766D01*
X330440271Y-206375394D02*
X329577650Y-205347362D01*
X332598321Y-209009487D02*
X331746627Y-207994478D01*
X330409629Y-206401105D02*
X329557936Y-205386096D01*
X332556752Y-209022175D02*
X331715986Y-208020189D01*
X330378987Y-206426817D02*
X329538221Y-205424831D01*
X332513897Y-209033332D02*
X331685344Y-208045901D01*
X330348346Y-206452528D02*
X329519792Y-205465097D01*
X332471042Y-209044489D02*
X331654702Y-208071612D01*
X330317704Y-206478240D02*
X329501364Y-205505363D01*
X332427545Y-209054879D02*
X331624060Y-208097324D01*
X330287062Y-206503951D02*
X329483578Y-205546396D01*
X332382762Y-209063738D02*
X331593419Y-208123035D01*
X330256420Y-206529663D02*
X329467077Y-205588960D01*
X332338621Y-209073362D02*
X331562777Y-208148747D01*
X330225779Y-206555374D02*
X329449934Y-205630759D01*
X332293195Y-209081455D02*
X331532135Y-208174458D01*
X330195137Y-206581086D02*
X329434076Y-205674089D01*
X332247127Y-209088781D02*
X331501493Y-208200170D01*
X330164495Y-206606797D02*
X329418861Y-205718186D01*
X332200415Y-209095342D02*
X331470851Y-208225881D01*
X330133853Y-206632509D02*
X329404289Y-205763048D01*
X332153061Y-209101136D02*
X331440210Y-208251593D01*
X330103211Y-206658220D02*
X329390360Y-205808677D01*
X332105064Y-209106164D02*
X331409568Y-208277304D01*
X330072570Y-206683932D02*
X329377073Y-205855072D01*
X332057067Y-209111193D02*
X331378926Y-208303016D01*
X330041928Y-206709643D02*
X329363787Y-205901466D01*
X332007142Y-209113923D02*
X331348284Y-208328727D01*
X330011286Y-206735355D02*
X329352429Y-205950159D01*
X331957216Y-209116653D02*
X331317643Y-208354439D01*
X329980644Y-206761066D02*
X329341071Y-205998852D01*
X331906648Y-209118617D02*
X331287001Y-208380150D01*
X329950003Y-206786778D02*
X329330355Y-206048311D01*
X331854794Y-209119049D02*
X331256359Y-208405862D01*
X329919361Y-206812489D02*
X329320925Y-206099302D01*
X331802298Y-209118715D02*
X331225717Y-208431573D01*
X329888719Y-206838201D02*
X329312138Y-206151059D01*
X331748516Y-209116849D02*
X331195075Y-208457285D01*
X329858077Y-206863912D02*
X329304637Y-206204348D01*
X331694091Y-209114217D02*
X331164434Y-208482996D01*
X329827435Y-206889624D02*
X329297778Y-206258403D01*
X331639023Y-209110819D02*
X331133792Y-208508708D01*
X329796794Y-206915335D02*
X329291563Y-206313224D01*
X331582027Y-209105122D02*
X331103150Y-208534419D01*
X329766152Y-206941047D02*
X329287275Y-206370344D01*
X331524388Y-209098660D02*
X331072508Y-208560131D01*
X329735510Y-206966758D02*
X329283630Y-206428229D01*
X331465464Y-209090666D02*
X331041867Y-208585842D01*
X329704868Y-206992470D02*
X329281271Y-206487647D01*
X331405254Y-209081139D02*
X331011225Y-208611554D01*
X329674227Y-207018181D02*
X329280198Y-206548596D01*
X331343758Y-209070080D02*
X329280410Y-206611078D01*
X331280334Y-209056724D02*
X329282550Y-206675858D01*
X331214982Y-209041069D02*
X329286619Y-206742935D01*
X331147701Y-209023116D02*
X329292616Y-206812312D01*
X331078492Y-209002865D02*
X329300541Y-206883986D01*
X331006712Y-208979549D02*
X329311038Y-206958724D01*
X330932360Y-208953170D02*
X329324106Y-207036527D01*
X330854795Y-208922960D02*
X329340388Y-207118159D01*
X330772730Y-208887388D02*
X329361169Y-207205154D01*
X330686166Y-208846454D02*
X329386450Y-207297512D01*
X330593817Y-208798625D02*
X329417515Y-207396763D01*
X330492468Y-208740071D02*
X329457580Y-207506740D01*
X330379550Y-208667729D02*
X329509215Y-207630505D01*
X330246705Y-208571640D02*
X329580777Y-207778018D01*
X330065651Y-208418097D02*
X329700547Y-207982984D01*
X334972275Y-205855691D02*
X334589252Y-206177084D01*
X334941460Y-206207899D02*
X334620067Y-205824876D01*
X337294600Y-221833716D02*
X336841446Y-222045025D01*
X336962368Y-221712793D02*
X337173677Y-222165947D01*
X338167535Y-227115428D02*
X337652752Y-227355475D01*
X338362706Y-226980283D02*
X337423771Y-227418115D01*
X338489904Y-226876834D02*
X337262764Y-227449059D01*
X338589007Y-226786487D02*
X337129851Y-227466902D01*
X338671796Y-226703746D02*
X337013253Y-227477138D01*
X338741897Y-226626923D02*
X336909343Y-227481457D01*
X338803841Y-226553903D02*
X336813589Y-227481972D01*
X338859441Y-226483841D02*
X336724180Y-227479529D01*
X338908697Y-226416737D02*
X336641114Y-227474128D01*
X338953421Y-226351747D02*
X336562581Y-227466614D01*
X338994520Y-226288447D02*
X336487672Y-227457409D01*
X339031993Y-226226838D02*
X336416389Y-227446514D01*
X339066748Y-226166496D02*
X336347825Y-227434351D01*
X339098784Y-226107423D02*
X336281980Y-227420920D01*
X339128101Y-226049617D02*
X336218853Y-227406221D01*
X336714012Y-227131190D02*
X336158446Y-227390255D01*
X339154699Y-225993079D02*
X338599133Y-226252144D01*
X336697108Y-227094937D02*
X336099851Y-227373443D01*
X339179485Y-225937386D02*
X338582228Y-226215891D01*
X336680203Y-227058685D02*
X336043068Y-227355786D01*
X339202457Y-225882538D02*
X338565323Y-226179639D01*
X336663298Y-227022433D02*
X335988099Y-227337283D01*
X339223618Y-225828536D02*
X338548418Y-226143387D01*
X336646393Y-226986180D02*
X335934035Y-227318358D01*
X339243872Y-225774956D02*
X338531514Y-226107134D01*
X336629489Y-226949928D02*
X335882691Y-227298166D01*
X339261406Y-225722645D02*
X338514609Y-226070882D01*
X336612584Y-226913676D02*
X335832253Y-227277550D01*
X339278035Y-225670755D02*
X338497704Y-226034630D01*
X336595679Y-226877423D02*
X335782721Y-227256512D01*
X339293757Y-225619289D02*
X338480799Y-225998377D01*
X336578774Y-226841171D02*
X335735002Y-227234629D01*
X339307667Y-225568668D02*
X338463895Y-225962125D01*
X336561870Y-226804919D02*
X335688189Y-227212323D01*
X339320671Y-225518469D02*
X338446990Y-225925873D01*
X336544965Y-226768667D02*
X335643189Y-227189172D01*
X339331861Y-225469115D02*
X338430085Y-225889621D01*
X336528060Y-226732414D02*
X335599095Y-227165598D01*
X339342146Y-225420185D02*
X338413180Y-225853368D01*
X336511156Y-226696162D02*
X335555001Y-227142024D01*
X339352430Y-225371254D02*
X338396276Y-225817116D01*
X336494251Y-226659910D02*
X335513626Y-227117183D01*
X339359996Y-225323591D02*
X338379371Y-225780864D01*
X336477346Y-226623657D02*
X335472251Y-227092341D01*
X339367562Y-225275928D02*
X338362466Y-225744611D01*
X336460441Y-226587405D02*
X335431782Y-227067077D01*
X339374221Y-225228687D02*
X338345562Y-225708359D01*
X336443537Y-226551153D02*
X335392220Y-227041390D01*
X339379974Y-225181870D02*
X338328657Y-225672107D01*
X336426632Y-226514900D02*
X335353563Y-227015280D01*
X339384821Y-225135474D02*
X338311752Y-225635854D01*
X336409727Y-226478648D02*
X335315814Y-226988748D01*
X339388761Y-225089502D02*
X338294847Y-225599602D01*
X336392822Y-226442396D02*
X335279876Y-226961371D01*
X339390889Y-225044375D02*
X338277943Y-225563350D01*
X336375918Y-226406143D02*
X335243033Y-226934416D01*
X339393923Y-224998825D02*
X338261038Y-225527097D01*
X336359013Y-226369891D02*
X335208002Y-226906616D01*
X339395144Y-224954120D02*
X338244133Y-225490845D01*
X336342108Y-226333639D02*
X335173877Y-226878394D01*
X339395459Y-224909838D02*
X338227228Y-225454593D01*
X336325204Y-226297386D02*
X335139753Y-226850171D01*
X339395774Y-224865556D02*
X338210324Y-225418341D01*
X336308299Y-226261134D02*
X335107441Y-226821103D01*
X339394277Y-224822119D02*
X338193419Y-225382088D01*
X336291394Y-226224882D02*
X335075129Y-226792036D01*
X339392779Y-224778682D02*
X338176514Y-225345836D01*
X336274489Y-226188630D02*
X335043723Y-226762545D01*
X339390375Y-224735668D02*
X338159610Y-225309584D01*
X336257585Y-226152377D02*
X335012318Y-226733055D01*
X339387972Y-224692654D02*
X338142705Y-225273331D01*
X336240680Y-226116125D02*
X334982725Y-226702719D01*
X339383755Y-224650485D02*
X338125800Y-225237079D01*
X336223775Y-226079873D02*
X334953132Y-226672383D01*
X339379539Y-224608316D02*
X338108895Y-225200827D01*
X336206870Y-226043620D02*
X334924445Y-226641625D01*
X339374416Y-224566569D02*
X338091991Y-225164574D01*
X336189966Y-226007368D02*
X334895758Y-226610867D01*
X339369293Y-224524823D02*
X338075086Y-225128322D01*
X336173061Y-225971116D02*
X334867978Y-226579686D01*
X339363264Y-224483499D02*
X338058181Y-225092070D01*
X336155734Y-225933957D02*
X334840681Y-226547176D01*
X339355906Y-224441692D02*
X338040854Y-225054911D01*
X336138829Y-225897705D02*
X334814713Y-226515150D01*
X339348065Y-224401213D02*
X338023949Y-225018659D01*
X336121924Y-225861452D02*
X334788745Y-226483124D01*
X339340223Y-224360735D02*
X338007044Y-224982406D01*
X336105019Y-225825200D02*
X334763684Y-226450675D01*
X339331475Y-224320679D02*
X337990140Y-224946154D01*
X336088115Y-225788948D02*
X334739529Y-226417804D01*
X339321821Y-224281046D02*
X337973235Y-224909902D01*
X336071210Y-225752696D02*
X334715373Y-226384932D01*
X339312167Y-224241413D02*
X337956330Y-224873650D01*
X336054305Y-225716443D02*
X334692125Y-226351638D01*
X339301606Y-224202202D02*
X337939425Y-224837397D01*
X336037400Y-225680191D02*
X334668876Y-226318344D01*
X339291045Y-224162991D02*
X337922521Y-224801145D01*
X336020496Y-225643939D02*
X334646533Y-226284628D01*
X339279579Y-224124203D02*
X337905616Y-224764893D01*
X336003591Y-225607686D02*
X334625097Y-226250489D01*
X339267205Y-224085838D02*
X337888711Y-224728640D01*
X335986686Y-225571434D02*
X334604567Y-226215927D01*
X339253926Y-224047895D02*
X337871806Y-224692388D01*
X335969782Y-225535182D02*
X334584037Y-226181365D01*
X339240646Y-224009952D02*
X337854902Y-224656136D01*
X335952877Y-225498929D02*
X334563507Y-226146803D01*
X339227367Y-223972010D02*
X337837997Y-224619883D01*
X335935972Y-225462677D02*
X334543883Y-226111819D01*
X339213181Y-223934489D02*
X337821092Y-224583631D01*
X335919067Y-225426425D02*
X334525166Y-226076412D01*
X339198089Y-223897392D02*
X337804188Y-224547379D01*
X335902163Y-225390172D02*
X334507355Y-226040582D01*
X339182091Y-223860717D02*
X337787283Y-224511126D01*
X339166092Y-223824042D02*
X337770378Y-224474874D01*
X335885258Y-225353920D02*
X334489544Y-226004752D01*
X339149187Y-223787790D02*
X337753473Y-224438622D01*
X335868353Y-225317668D02*
X334472639Y-225968500D01*
X339430913Y-224878145D02*
G75*
G03X339430913Y-224878145I-2620000J0D01*
G01*
X331399283Y-226877100D02*
X331851785Y-226615848D01*
X332109283Y-228106856D02*
X332561785Y-227845604D01*
X347700000Y-233633748D02*
X347700000Y-234156252D01*
X346280000Y-233633748D02*
X346280000Y-234156252D01*
X340378748Y-238020000D02*
X340901252Y-238020000D01*
X340378748Y-239440000D02*
X340901252Y-239440000D01*
X321249506Y-274224441D02*
X318838727Y-275348606D01*
X325568664Y-283486907D02*
X321249506Y-274224441D01*
X323157885Y-284611071D02*
X318838727Y-275348606D01*
X325568664Y-283486907D02*
X323157885Y-284611071D01*
X326105389Y-284637918D02*
X326667472Y-285843307D01*
X326667472Y-285843307D02*
X325462082Y-286405389D01*
X344457361Y-214602220D02*
G75*
G03X344457361Y-214602220I-6370000J0D01*
G01*
X276446038Y-213616520D02*
X275941337Y-213481286D01*
X276078515Y-214988134D02*
X275573814Y-214852900D01*
X285783252Y-287804000D02*
X285260748Y-287804000D01*
X285783252Y-289224000D02*
X285260748Y-289224000D01*
X340378748Y-237290891D02*
X340901252Y-237290891D01*
X340378748Y-235870891D02*
X340901252Y-235870891D01*
X345010000Y-238468748D02*
X345010000Y-238991252D01*
X346430000Y-238468748D02*
X346430000Y-238991252D01*
X344525000Y-232118748D02*
X344525000Y-232641252D01*
X343105000Y-232118748D02*
X343105000Y-232641252D01*
X261150000Y-219400000D02*
G75*
G03X261150000Y-219400000I-950000J0D01*
G01*
X252143662Y-230631115D02*
G75*
G03X252143662Y-230631115I-950000J0D01*
G01*
X250694275Y-236040300D02*
G75*
G03X250694275Y-236040300I-950000J0D01*
G01*
X273229581Y-223029535D02*
G75*
G03X273229581Y-223029535I-950000J0D01*
G01*
X352385000Y-252065000D02*
G75*
G03X352385000Y-252065000I-950000J0D01*
G01*
X273928392Y-220421535D02*
G75*
G03X273928392Y-220421535I-950000J0D01*
G01*
X271320393Y-219722724D02*
G75*
G03X271320393Y-219722724I-950000J0D01*
G01*
X258350000Y-218400000D02*
G75*
G03X258350000Y-218400000I-950000J0D01*
G01*
X255016553Y-219909338D02*
G75*
G03X255016553Y-219909338I-950000J0D01*
G01*
X254317742Y-222517338D02*
G75*
G03X254317742Y-222517338I-950000J0D01*
G01*
X253593049Y-225221930D02*
G75*
G03X253593049Y-225221930I-950000J0D01*
G01*
X252868355Y-227926523D02*
G75*
G03X252868355Y-227926523I-950000J0D01*
G01*
X268712393Y-219023912D02*
G75*
G03X268712393Y-219023912I-950000J0D01*
G01*
X266104393Y-218325101D02*
G75*
G03X266104393Y-218325101I-950000J0D01*
G01*
X263496393Y-217626290D02*
G75*
G03X263496393Y-217626290I-950000J0D01*
G01*
X251418969Y-233335707D02*
G75*
G03X251418969Y-233335707I-950000J0D01*
G01*
X252011896Y-238463908D02*
G75*
G03X252011896Y-238463908I-950000J0D01*
G01*
X254716489Y-239188601D02*
G75*
G03X254716489Y-239188601I-950000J0D01*
G01*
X257421081Y-239913294D02*
G75*
G03X257421081Y-239913294I-950000J0D01*
G01*
X260125673Y-240637988D02*
G75*
G03X260125673Y-240637988I-950000J0D01*
G01*
X262830265Y-241362681D02*
G75*
G03X262830265Y-241362681I-950000J0D01*
G01*
X265534858Y-242087374D02*
G75*
G03X265534858Y-242087374I-950000J0D01*
G01*
X255715365Y-217301339D02*
G75*
G03X255715365Y-217301339I-950000J0D01*
G01*
X262310900Y-223574853D02*
X262160900Y-223315045D01*
X262160900Y-223315045D02*
X261901092Y-223465045D01*
X265620900Y-229307941D02*
X265770900Y-229567749D01*
X265770900Y-229567749D02*
X265511092Y-229717749D01*
X256058196Y-227184853D02*
X255908196Y-226925045D01*
X255908196Y-226925045D02*
X256168004Y-226775045D01*
X259368196Y-232917941D02*
X259518196Y-233177749D01*
X259518196Y-233177749D02*
X259778004Y-233027749D01*
X259778004Y-233027749D02*
X260435504Y-234166572D01*
X313760000Y-274180000D02*
X313760000Y-290420000D01*
X313760000Y-290420000D02*
X306140000Y-290420000D01*
X290140000Y-290420000D02*
X289520000Y-290420000D01*
X289520000Y-290420000D02*
X289520000Y-288300000D01*
X289520000Y-276300000D02*
X289520000Y-274180000D01*
X289520000Y-274180000D02*
X290140000Y-274180000D01*
X306140000Y-274180000D02*
X313760000Y-274180000D01*
X306140000Y-274180000D02*
X306140000Y-273570000D01*
X342250000Y-233280000D02*
X342250000Y-231480000D01*
X339030000Y-231480000D02*
X339030000Y-233930000D01*
X349070000Y-233770000D02*
X351730000Y-233770000D01*
X349070000Y-233770000D02*
X349070000Y-246530000D01*
X349070000Y-246530000D02*
X351730000Y-246530000D01*
X351730000Y-233770000D02*
X351730000Y-246530000D01*
X351730000Y-231170000D02*
X351730000Y-232500000D01*
X350400000Y-231170000D02*
X351730000Y-231170000D01*
X332929312Y-198527240D02*
G75*
G03X332929312Y-198527240I-2250000J0D01*
G01*
X327458211Y-194990711D02*
G75*
G03X327458211Y-194990711I-2250000J0D01*
G01*
X285910252Y-274365000D02*
X285387748Y-274365000D01*
X285910252Y-272945000D02*
X285387748Y-272945000D01*
X265284004Y-235563338D02*
X264831502Y-235824590D01*
X264574004Y-234333582D02*
X264121502Y-234594834D01*
D12*
X260073075Y-217135275D02*
X254326554Y-210286838D01*
X254326554Y-210286838D02*
X279606020Y-189074847D01*
X279606020Y-189074847D02*
X285352542Y-195923284D01*
X285352542Y-195923284D02*
X260073075Y-217135275D01*
X271008359Y-207959482D02*
X270172736Y-206963624D01*
X270172736Y-206963624D02*
X260156704Y-215368072D01*
X260156704Y-215368072D02*
X256081431Y-210511351D01*
X256081431Y-210511351D02*
X279522391Y-190842050D01*
X279522391Y-190842050D02*
X283597664Y-195698772D01*
X283597664Y-195698772D02*
X273581633Y-204103220D01*
X273581633Y-204103220D02*
X274417257Y-205099077D01*
X266774776Y-199841539D02*
X266646218Y-199688331D01*
X266646218Y-199688331D02*
X267029241Y-199366937D01*
X267029241Y-199366937D02*
X267157798Y-199520146D01*
X266710497Y-199764935D02*
X267093519Y-199443541D01*
X277369171Y-190951787D02*
X277240613Y-190798578D01*
X277240613Y-190798578D02*
X277623635Y-190477184D01*
X277623635Y-190477184D02*
X277752193Y-190630393D01*
X277304892Y-190875182D02*
X277687914Y-190553789D01*
X256180381Y-208731292D02*
X256051824Y-208578083D01*
X256051824Y-208578083D02*
X256434846Y-208256689D01*
X256434846Y-208256689D02*
X256563404Y-208409898D01*
X256116103Y-208654688D02*
X256499125Y-208333294D01*
X260600375Y-213298759D02*
X259829030Y-212379506D01*
X259829030Y-212379506D02*
X260674329Y-212453460D01*
X260674329Y-212453460D02*
X260600375Y-213298759D01*
D10*
X269454000Y-230602000D02*
G75*
G03X269454000Y-230602000I-950000J0D01*
G01*
X270724000Y-227935000D02*
G75*
G03X270724000Y-227935000I-950000J0D01*
G01*
D12*
X264628978Y-259211782D02*
X265033740Y-259912850D01*
X265122598Y-259971519D01*
X265187647Y-259988949D01*
X265293935Y-259982569D01*
X265458892Y-259887331D01*
X265517562Y-259798473D01*
X265534991Y-259733424D01*
X265528612Y-259627136D01*
X265123850Y-258926068D01*
X266489875Y-259292093D02*
X265995003Y-259577808D01*
X266242439Y-259434950D02*
X265742439Y-258568925D01*
X265731389Y-258740262D01*
X265696530Y-258870360D01*
X265637861Y-258959218D01*
X266525986Y-258116544D02*
X266608465Y-258068925D01*
X266714753Y-258062545D01*
X266779802Y-258079975D01*
X266868660Y-258138644D01*
X267005137Y-258279792D01*
X267124185Y-258485988D01*
X267178184Y-258674755D01*
X267184564Y-258781043D01*
X267167134Y-258846092D01*
X267108465Y-258934950D01*
X267025986Y-258982569D01*
X266919698Y-258988949D01*
X266854649Y-258971519D01*
X266765791Y-258912850D01*
X266629313Y-258771703D01*
X266510266Y-258565506D01*
X266456267Y-258376739D01*
X266449887Y-258270451D01*
X266467317Y-258205402D01*
X266525986Y-258116544D01*
X299952380Y-202238095D02*
X300761904Y-202238095D01*
X300857142Y-202190476D01*
X300904761Y-202142857D01*
X300952380Y-202047619D01*
X300952380Y-201857142D01*
X300904761Y-201761904D01*
X300857142Y-201714285D01*
X300761904Y-201666666D01*
X299952380Y-201666666D01*
X300952380Y-200666666D02*
X300952380Y-201238095D01*
X300952380Y-200952380D02*
X299952380Y-200952380D01*
X300095238Y-201047619D01*
X300190476Y-201142857D01*
X300238095Y-201238095D01*
X299952380Y-200333333D02*
X299952380Y-199714285D01*
X300333333Y-200047619D01*
X300333333Y-199904761D01*
X300380952Y-199809523D01*
X300428571Y-199761904D01*
X300523809Y-199714285D01*
X300761904Y-199714285D01*
X300857142Y-199761904D01*
X300904761Y-199809523D01*
X300952380Y-199904761D01*
X300952380Y-200190476D01*
X300904761Y-200285714D01*
X300857142Y-200333333D01*
X332726577Y-258839713D02*
X332321815Y-259540781D01*
X332315435Y-259647069D01*
X332332865Y-259712118D01*
X332391534Y-259800976D01*
X332556492Y-259896214D01*
X332662780Y-259902594D01*
X332727828Y-259885164D01*
X332816687Y-259826495D01*
X333221449Y-259125427D01*
X333587474Y-260491453D02*
X333092602Y-260205738D01*
X333340038Y-260348595D02*
X333840038Y-259482570D01*
X333686131Y-259558669D01*
X333556033Y-259593528D01*
X333449745Y-259587149D01*
X334369770Y-259898382D02*
X334434818Y-259880952D01*
X334541107Y-259887332D01*
X334747303Y-260006380D01*
X334805972Y-260095238D01*
X334823402Y-260160287D01*
X334817022Y-260266575D01*
X334769403Y-260349053D01*
X334656735Y-260448962D01*
X333876149Y-260658119D01*
X334412260Y-260967643D01*
X318856890Y-212645054D02*
X318790570Y-212656748D01*
X318646235Y-212613816D01*
X318568221Y-212559189D01*
X318478512Y-212438242D01*
X318455124Y-212305602D01*
X318470743Y-212200274D01*
X318540988Y-212016932D01*
X318622928Y-211899910D01*
X318771188Y-211771194D01*
X318864821Y-211720493D01*
X318997462Y-211697105D01*
X319141797Y-211740037D01*
X319219812Y-211794664D01*
X319309520Y-211915610D01*
X319321214Y-211981931D01*
X319582409Y-213269331D02*
X319114322Y-212941574D01*
X319348365Y-213105453D02*
X319921942Y-212286300D01*
X319761988Y-212348696D01*
X319629347Y-212372084D01*
X319524019Y-212356465D01*
X330148889Y-210540677D02*
X330143020Y-210607764D01*
X330064194Y-210736069D01*
X329991237Y-210797287D01*
X329851194Y-210852636D01*
X329717019Y-210840897D01*
X329619323Y-210798549D01*
X329460409Y-210683245D01*
X329368582Y-210573810D01*
X329282625Y-210397288D01*
X329257885Y-210293722D01*
X329269624Y-210159548D01*
X329348450Y-210031243D01*
X329421406Y-209970025D01*
X329561450Y-209914676D01*
X329628538Y-209920546D01*
X329920364Y-209675674D02*
X329926233Y-209608587D01*
X329968581Y-209510891D01*
X330150973Y-209357846D01*
X330254538Y-209333107D01*
X330321625Y-209338976D01*
X330419322Y-209381324D01*
X330480539Y-209454280D01*
X330535888Y-209594324D01*
X330465455Y-210399371D01*
X330939673Y-210001455D01*
X339815449Y-223293209D02*
X339752167Y-223270176D01*
X339648635Y-223160829D01*
X339608386Y-223074514D01*
X339591169Y-222924916D01*
X339637235Y-222798352D01*
X339703425Y-222714945D01*
X339855931Y-222591289D01*
X339985403Y-222530915D01*
X340178158Y-222493574D01*
X340284598Y-222496482D01*
X340411162Y-222542547D01*
X340514693Y-222651895D01*
X340554943Y-222738210D01*
X340572159Y-222887808D01*
X340549127Y-222951090D01*
X340997686Y-223687676D02*
X340917187Y-223515046D01*
X340833780Y-223448855D01*
X340770498Y-223425822D01*
X340600776Y-223399881D01*
X340408021Y-223437223D01*
X340062761Y-223598220D01*
X339996571Y-223681627D01*
X339973538Y-223744909D01*
X339970630Y-223851349D01*
X340051129Y-224023979D01*
X340134535Y-224090169D01*
X340197818Y-224113202D01*
X340304257Y-224116110D01*
X340520045Y-224015487D01*
X340586235Y-223932080D01*
X340609268Y-223868798D01*
X340612176Y-223762358D01*
X340531678Y-223589728D01*
X340448271Y-223523538D01*
X340384989Y-223500505D01*
X340278549Y-223497597D01*
X331189766Y-226325039D02*
X331172337Y-226390087D01*
X331072428Y-226502755D01*
X330989950Y-226550374D01*
X330842422Y-226580564D01*
X330712324Y-226545704D01*
X330623466Y-226487035D01*
X330486989Y-226345887D01*
X330415560Y-226222169D01*
X330361561Y-226033403D01*
X330355182Y-225927115D01*
X330390041Y-225797017D01*
X330489950Y-225684349D01*
X330572428Y-225636730D01*
X330719956Y-225606541D01*
X330785004Y-225623970D01*
X331026061Y-225374825D02*
X331603411Y-225041492D01*
X331732257Y-226121803D01*
X348997142Y-234537857D02*
X349044761Y-234585476D01*
X349092380Y-234728333D01*
X349092380Y-234823571D01*
X349044761Y-234966428D01*
X348949523Y-235061666D01*
X348854285Y-235109285D01*
X348663809Y-235156904D01*
X348520952Y-235156904D01*
X348330476Y-235109285D01*
X348235238Y-235061666D01*
X348140000Y-234966428D01*
X348092380Y-234823571D01*
X348092380Y-234728333D01*
X348140000Y-234585476D01*
X348187619Y-234537857D01*
X348092380Y-234204523D02*
X348092380Y-233585476D01*
X348473333Y-233918809D01*
X348473333Y-233775952D01*
X348520952Y-233680714D01*
X348568571Y-233633095D01*
X348663809Y-233585476D01*
X348901904Y-233585476D01*
X348997142Y-233633095D01*
X349044761Y-233680714D01*
X349092380Y-233775952D01*
X349092380Y-234061666D01*
X349044761Y-234156904D01*
X348997142Y-234204523D01*
X348187619Y-233204523D02*
X348140000Y-233156904D01*
X348092380Y-233061666D01*
X348092380Y-232823571D01*
X348140000Y-232728333D01*
X348187619Y-232680714D01*
X348282857Y-232633095D01*
X348378095Y-232633095D01*
X348520952Y-232680714D01*
X349092380Y-233252142D01*
X349092380Y-232633095D01*
X336672142Y-239587142D02*
X336624523Y-239634761D01*
X336481666Y-239682380D01*
X336386428Y-239682380D01*
X336243571Y-239634761D01*
X336148333Y-239539523D01*
X336100714Y-239444285D01*
X336053095Y-239253809D01*
X336053095Y-239110952D01*
X336100714Y-238920476D01*
X336148333Y-238825238D01*
X336243571Y-238730000D01*
X336386428Y-238682380D01*
X336481666Y-238682380D01*
X336624523Y-238730000D01*
X336672142Y-238777619D01*
X337529285Y-239015714D02*
X337529285Y-239682380D01*
X337291190Y-238634761D02*
X337053095Y-239349047D01*
X337672142Y-239349047D01*
X338005476Y-238777619D02*
X338053095Y-238730000D01*
X338148333Y-238682380D01*
X338386428Y-238682380D01*
X338481666Y-238730000D01*
X338529285Y-238777619D01*
X338576904Y-238872857D01*
X338576904Y-238968095D01*
X338529285Y-239110952D01*
X337957857Y-239682380D01*
X338576904Y-239682380D01*
X325351164Y-286956258D02*
X325653034Y-287603621D01*
X325670251Y-287753218D01*
X325624185Y-287879782D01*
X325514837Y-287983314D01*
X325428522Y-288023563D01*
X326312030Y-286875992D02*
X326593775Y-287480197D01*
X325935245Y-286631355D02*
X326021327Y-287379341D01*
X326582375Y-287117720D01*
X342512133Y-221212024D02*
X342122061Y-221485156D01*
X341548484Y-220666004D01*
X343214264Y-220720387D02*
X342746177Y-221048145D01*
X342980220Y-220884266D02*
X342406644Y-220065114D01*
X342410569Y-220236762D01*
X342387181Y-220369403D01*
X342336479Y-220463037D01*
X275304802Y-216222317D02*
X275106074Y-215676080D01*
X274752844Y-216074421D02*
X275011663Y-215108495D01*
X275379635Y-215207093D01*
X275459303Y-215277739D01*
X275492975Y-215336060D01*
X275514322Y-215440377D01*
X275477348Y-215578367D01*
X275406702Y-215658035D01*
X275348381Y-215691707D01*
X275244063Y-215713054D01*
X274876092Y-215614456D01*
X276224731Y-216468812D02*
X275672774Y-216320915D01*
X275948753Y-216394863D02*
X276207572Y-215428938D01*
X276078605Y-215542278D01*
X275961962Y-215609621D01*
X275857645Y-215630968D01*
X284815642Y-287315380D02*
X284482309Y-286839190D01*
X284244214Y-287315380D02*
X284244214Y-286315380D01*
X284625166Y-286315380D01*
X284720404Y-286363000D01*
X284768023Y-286410619D01*
X284815642Y-286505857D01*
X284815642Y-286648714D01*
X284768023Y-286743952D01*
X284720404Y-286791571D01*
X284625166Y-286839190D01*
X284244214Y-286839190D01*
X285768023Y-287315380D02*
X285196595Y-287315380D01*
X285482309Y-287315380D02*
X285482309Y-286315380D01*
X285387071Y-286458238D01*
X285291833Y-286553476D01*
X285196595Y-286601095D01*
X286720404Y-287315380D02*
X286148976Y-287315380D01*
X286434690Y-287315380D02*
X286434690Y-286315380D01*
X286339452Y-286458238D01*
X286244214Y-286553476D01*
X286148976Y-286601095D01*
X336631642Y-237023380D02*
X336298309Y-236547190D01*
X336060214Y-237023380D02*
X336060214Y-236023380D01*
X336441166Y-236023380D01*
X336536404Y-236071000D01*
X336584023Y-236118619D01*
X336631642Y-236213857D01*
X336631642Y-236356714D01*
X336584023Y-236451952D01*
X336536404Y-236499571D01*
X336441166Y-236547190D01*
X336060214Y-236547190D01*
X337584023Y-237023380D02*
X337012595Y-237023380D01*
X337298309Y-237023380D02*
X337298309Y-236023380D01*
X337203071Y-236166238D01*
X337107833Y-236261476D01*
X337012595Y-236309095D01*
X338488785Y-236023380D02*
X338012595Y-236023380D01*
X337964976Y-236499571D01*
X338012595Y-236451952D01*
X338107833Y-236404333D01*
X338345928Y-236404333D01*
X338441166Y-236451952D01*
X338488785Y-236499571D01*
X338536404Y-236594809D01*
X338536404Y-236832904D01*
X338488785Y-236928142D01*
X338441166Y-236975761D01*
X338345928Y-237023380D01*
X338107833Y-237023380D01*
X338012595Y-236975761D01*
X337964976Y-236928142D01*
X347822380Y-239372857D02*
X347346190Y-239706190D01*
X347822380Y-239944285D02*
X346822380Y-239944285D01*
X346822380Y-239563333D01*
X346870000Y-239468095D01*
X346917619Y-239420476D01*
X347012857Y-239372857D01*
X347155714Y-239372857D01*
X347250952Y-239420476D01*
X347298571Y-239468095D01*
X347346190Y-239563333D01*
X347346190Y-239944285D01*
X346917619Y-238991904D02*
X346870000Y-238944285D01*
X346822380Y-238849047D01*
X346822380Y-238610952D01*
X346870000Y-238515714D01*
X346917619Y-238468095D01*
X347012857Y-238420476D01*
X347108095Y-238420476D01*
X347250952Y-238468095D01*
X347822380Y-239039523D01*
X347822380Y-238420476D01*
X346822380Y-237801428D02*
X346822380Y-237706190D01*
X346870000Y-237610952D01*
X346917619Y-237563333D01*
X347012857Y-237515714D01*
X347203333Y-237468095D01*
X347441428Y-237468095D01*
X347631904Y-237515714D01*
X347727142Y-237563333D01*
X347774761Y-237610952D01*
X347822380Y-237706190D01*
X347822380Y-237801428D01*
X347774761Y-237896666D01*
X347727142Y-237944285D01*
X347631904Y-237991904D01*
X347441428Y-238039523D01*
X347203333Y-238039523D01*
X347012857Y-237991904D01*
X346917619Y-237944285D01*
X346870000Y-237896666D01*
X346822380Y-237801428D01*
X345917380Y-233022857D02*
X345441190Y-233356190D01*
X345917380Y-233594285D02*
X344917380Y-233594285D01*
X344917380Y-233213333D01*
X344965000Y-233118095D01*
X345012619Y-233070476D01*
X345107857Y-233022857D01*
X345250714Y-233022857D01*
X345345952Y-233070476D01*
X345393571Y-233118095D01*
X345441190Y-233213333D01*
X345441190Y-233594285D01*
X345012619Y-232641904D02*
X344965000Y-232594285D01*
X344917380Y-232499047D01*
X344917380Y-232260952D01*
X344965000Y-232165714D01*
X345012619Y-232118095D01*
X345107857Y-232070476D01*
X345203095Y-232070476D01*
X345345952Y-232118095D01*
X345917380Y-232689523D01*
X345917380Y-232070476D01*
X345917380Y-231118095D02*
X345917380Y-231689523D01*
X345917380Y-231403809D02*
X344917380Y-231403809D01*
X345060238Y-231499047D01*
X345155476Y-231594285D01*
X345203095Y-231689523D01*
X261556001Y-220535010D02*
X261814820Y-219569085D01*
X262182792Y-219667682D01*
X262262460Y-219738328D01*
X262296132Y-219796649D01*
X262317479Y-219900967D01*
X262280505Y-220038956D01*
X262209859Y-220118625D01*
X262151538Y-220152296D01*
X262047220Y-220173643D01*
X261679248Y-220075046D01*
X262549879Y-220505526D02*
X263009844Y-220628773D01*
X262383938Y-220756855D02*
X262964732Y-219877202D01*
X263027888Y-220929401D01*
X263635749Y-220500691D02*
X263556081Y-220430045D01*
X263522410Y-220371724D01*
X263501062Y-220267406D01*
X263513387Y-220221410D01*
X263584033Y-220141741D01*
X263642354Y-220108070D01*
X263746672Y-220086723D01*
X263930658Y-220136022D01*
X264010326Y-220206667D01*
X264043998Y-220264989D01*
X264065345Y-220369306D01*
X264053020Y-220415303D01*
X263982374Y-220494971D01*
X263924053Y-220528643D01*
X263819735Y-220549990D01*
X263635749Y-220500691D01*
X263531432Y-220522038D01*
X263473111Y-220555710D01*
X263402465Y-220635378D01*
X263353166Y-220819364D01*
X263374513Y-220923681D01*
X263408185Y-220982003D01*
X263487853Y-221052648D01*
X263671839Y-221101947D01*
X263776156Y-221080600D01*
X263834478Y-221046929D01*
X263905123Y-220967260D01*
X263954422Y-220783274D01*
X263933075Y-220678957D01*
X263899404Y-220620636D01*
X263819735Y-220549990D01*
X252585261Y-231472331D02*
X252844080Y-230506405D01*
X253212051Y-230605003D01*
X253291720Y-230675649D01*
X253325391Y-230733970D01*
X253346738Y-230838288D01*
X253309764Y-230976277D01*
X253239118Y-231055946D01*
X253180797Y-231089617D01*
X253076479Y-231110964D01*
X252708508Y-231012367D01*
X254008734Y-231311462D02*
X254134398Y-231394433D01*
X254168070Y-231452754D01*
X254189417Y-231557072D01*
X254152443Y-231695061D01*
X254081797Y-231774729D01*
X254023476Y-231808401D01*
X253919158Y-231829748D01*
X253551186Y-231731150D01*
X253810005Y-230765225D01*
X254131981Y-230851498D01*
X254211649Y-230922143D01*
X254245321Y-230980465D01*
X254266668Y-231084782D01*
X254242018Y-231176775D01*
X254171372Y-231256443D01*
X254113051Y-231290115D01*
X254008734Y-231311462D01*
X253686758Y-231225189D01*
X254683938Y-230999394D02*
X255281892Y-231159615D01*
X254861319Y-231441314D01*
X254999309Y-231478288D01*
X255078977Y-231548934D01*
X255112649Y-231607255D01*
X255133996Y-231711573D01*
X255072372Y-231941555D01*
X255001726Y-232021224D01*
X254943405Y-232054895D01*
X254839087Y-232076242D01*
X254563109Y-232002294D01*
X254483440Y-231931648D01*
X254449769Y-231873327D01*
X251039282Y-236855634D02*
X251298101Y-235889708D01*
X251666072Y-235988306D01*
X251745741Y-236058952D01*
X251779412Y-236117273D01*
X251800759Y-236221591D01*
X251763785Y-236359580D01*
X251693139Y-236439249D01*
X251634818Y-236472920D01*
X251530500Y-236494267D01*
X251162529Y-236395670D01*
X252462755Y-236694765D02*
X252588419Y-236777736D01*
X252622091Y-236836057D01*
X252643438Y-236940375D01*
X252606464Y-237078364D01*
X252535818Y-237158032D01*
X252477497Y-237191704D01*
X252373179Y-237213051D01*
X252005207Y-237114453D01*
X252264026Y-236148528D01*
X252586002Y-236234801D01*
X252665670Y-236305446D01*
X252699342Y-236363768D01*
X252720689Y-236468085D01*
X252696039Y-236560078D01*
X252625393Y-236639746D01*
X252567072Y-236673418D01*
X252462755Y-236694765D01*
X252140779Y-236608492D01*
X253689917Y-236530594D02*
X253229952Y-236407347D01*
X253060709Y-236854987D01*
X253119030Y-236821315D01*
X253223347Y-236799968D01*
X253453330Y-236861591D01*
X253532998Y-236932237D01*
X253566670Y-236990558D01*
X253588017Y-237094876D01*
X253526393Y-237324858D01*
X253455747Y-237404527D01*
X253397426Y-237438198D01*
X253293108Y-237459545D01*
X253063126Y-237397922D01*
X252983458Y-237327276D01*
X252949786Y-237268955D01*
X268356000Y-222935010D02*
X268614819Y-221969085D01*
X268982791Y-222067682D01*
X269062459Y-222138328D01*
X269096131Y-222196649D01*
X269117478Y-222300967D01*
X269080504Y-222438956D01*
X269009858Y-222518625D01*
X268951537Y-222552296D01*
X268847219Y-222573643D01*
X268479247Y-222475046D01*
X269349878Y-222905526D02*
X269809843Y-223028773D01*
X269183937Y-223156855D02*
X269764731Y-222277202D01*
X269827887Y-223329401D01*
X270868646Y-222572996D02*
X270408682Y-222449749D01*
X270239438Y-222897388D01*
X270297759Y-222863717D01*
X270402077Y-222842370D01*
X270632059Y-222903993D01*
X270711727Y-222974639D01*
X270745399Y-223032960D01*
X270766746Y-223137278D01*
X270705122Y-223367260D01*
X270634477Y-223446929D01*
X270576155Y-223480600D01*
X270471838Y-223501947D01*
X270241855Y-223440324D01*
X270162187Y-223369678D01*
X270128515Y-223311357D01*
X346849863Y-250133688D02*
X347401820Y-250281585D01*
X346867022Y-251173562D02*
X347125841Y-250207636D01*
X347464977Y-251333783D02*
X347723796Y-250367858D01*
X348091767Y-250466455D01*
X348171436Y-250537101D01*
X348205107Y-250595422D01*
X348226454Y-250699740D01*
X348189480Y-250837729D01*
X348118834Y-250917398D01*
X348060513Y-250951069D01*
X347956195Y-250972416D01*
X347588224Y-250873819D01*
X348936863Y-251728174D02*
X348384906Y-251580278D01*
X348660885Y-251654226D02*
X348919704Y-250688300D01*
X348790737Y-250801640D01*
X348674094Y-250868984D01*
X348569777Y-250890331D01*
X349793637Y-250922470D02*
X349885630Y-250947119D01*
X349965298Y-251017765D01*
X349998970Y-251076086D01*
X350020317Y-251180404D01*
X350017014Y-251376715D01*
X349955391Y-251606697D01*
X349860095Y-251778358D01*
X349789449Y-251858026D01*
X349731128Y-251891698D01*
X349626810Y-251913045D01*
X349534818Y-251888396D01*
X349455149Y-251817750D01*
X349421478Y-251759429D01*
X349400131Y-251655111D01*
X349403433Y-251458800D01*
X349465057Y-251228818D01*
X349560352Y-251057157D01*
X349630998Y-250977489D01*
X349689319Y-250943817D01*
X349793637Y-250922470D01*
X274294923Y-219544839D02*
X273587816Y-218837732D01*
X273857190Y-218568358D01*
X273958206Y-218534687D01*
X274025549Y-218534687D01*
X274126564Y-218568358D01*
X274227580Y-218669374D01*
X274261251Y-218770389D01*
X274261251Y-218837732D01*
X274227580Y-218938748D01*
X273958206Y-219208122D01*
X274766328Y-218669374D02*
X275103045Y-218332656D01*
X274901015Y-218938748D02*
X274429610Y-217995938D01*
X275372419Y-218467343D01*
X275204061Y-217221488D02*
X275069374Y-217356175D01*
X275035702Y-217457190D01*
X275035702Y-217524534D01*
X275069374Y-217692893D01*
X275170389Y-217861251D01*
X275439763Y-218130625D01*
X275540778Y-218164297D01*
X275608122Y-218164297D01*
X275709137Y-218130625D01*
X275843824Y-217995938D01*
X275877496Y-217894923D01*
X275877496Y-217827580D01*
X275843824Y-217726564D01*
X275675465Y-217558206D01*
X275574450Y-217524534D01*
X275507106Y-217524534D01*
X275406091Y-217558206D01*
X275271404Y-217692893D01*
X275237732Y-217793908D01*
X275237732Y-217861251D01*
X275271404Y-217962267D01*
X271494923Y-218744839D02*
X270787816Y-218037732D01*
X271057190Y-217768358D01*
X271158206Y-217734687D01*
X271225549Y-217734687D01*
X271326564Y-217768358D01*
X271427580Y-217869374D01*
X271461251Y-217970389D01*
X271461251Y-218037732D01*
X271427580Y-218138748D01*
X271158206Y-218408122D01*
X271966328Y-217869374D02*
X272303045Y-217532656D01*
X272101015Y-218138748D02*
X271629610Y-217195938D01*
X272572419Y-217667343D01*
X272033671Y-216791877D02*
X272505076Y-216320473D01*
X272909137Y-217330625D01*
X255560258Y-215103797D02*
X256379410Y-214530221D01*
X256597916Y-214842279D01*
X256613535Y-214947606D01*
X256601841Y-215013927D01*
X256551139Y-215107560D01*
X256434118Y-215189500D01*
X256328790Y-215205119D01*
X256262469Y-215193425D01*
X256168836Y-215142723D01*
X255950331Y-214830666D01*
X256340565Y-215720063D02*
X256613697Y-216110135D01*
X256051895Y-215805927D02*
X257062239Y-215505402D01*
X256434279Y-216352029D01*
X256652785Y-216664087D02*
X256762037Y-216820116D01*
X256855671Y-216870817D01*
X256921991Y-216882511D01*
X257093639Y-216878586D01*
X257276982Y-216808341D01*
X257589039Y-216589835D01*
X257639741Y-216496202D01*
X257651435Y-216429881D01*
X257635816Y-216324554D01*
X257526563Y-216168525D01*
X257432930Y-216117824D01*
X257366609Y-216106129D01*
X257261282Y-216121749D01*
X257066245Y-216258314D01*
X257015544Y-216351948D01*
X257003850Y-216418268D01*
X257019469Y-216523596D01*
X257128722Y-216679625D01*
X257222355Y-216730326D01*
X257288676Y-216742020D01*
X257394003Y-216726401D01*
X255453553Y-220749322D02*
X255712372Y-219783396D01*
X256080343Y-219881994D01*
X256160012Y-219952640D01*
X256193683Y-220010961D01*
X256215030Y-220115279D01*
X256178056Y-220253268D01*
X256107410Y-220332936D01*
X256049089Y-220366608D01*
X255944771Y-220387955D01*
X255576800Y-220289358D01*
X256447430Y-220719838D02*
X256907395Y-220843085D01*
X256281489Y-220971167D02*
X256862283Y-220091514D01*
X256925440Y-221143713D01*
X257753376Y-221365558D02*
X257201418Y-221217661D01*
X257477397Y-221291610D02*
X257736216Y-220325684D01*
X257607249Y-220439024D01*
X257490607Y-220506367D01*
X257386289Y-220527714D01*
X258610149Y-220559854D02*
X258702142Y-220584503D01*
X258781810Y-220655149D01*
X258815482Y-220713470D01*
X258836829Y-220817788D01*
X258833527Y-221014098D01*
X258771903Y-221244081D01*
X258676608Y-221415742D01*
X258605962Y-221495410D01*
X258547641Y-221529082D01*
X258443323Y-221550429D01*
X258351330Y-221525779D01*
X258271662Y-221455133D01*
X258237990Y-221396812D01*
X258216643Y-221292495D01*
X258219945Y-221096184D01*
X258281569Y-220866202D01*
X258376864Y-220694541D01*
X258447510Y-220614872D01*
X258505831Y-220581201D01*
X258610149Y-220559854D01*
X254987679Y-222487989D02*
X255246498Y-221522063D01*
X255614469Y-221620661D01*
X255694138Y-221691307D01*
X255727809Y-221749628D01*
X255749156Y-221853946D01*
X255712182Y-221991935D01*
X255641536Y-222071603D01*
X255583215Y-222105275D01*
X255478897Y-222126622D01*
X255110926Y-222028025D01*
X255981556Y-222458505D02*
X256441521Y-222581752D01*
X255815615Y-222709834D02*
X256396409Y-221830181D01*
X256459566Y-222882380D01*
X257287502Y-223104225D02*
X256735544Y-222956328D01*
X257011523Y-223030277D02*
X257270342Y-222064351D01*
X257141375Y-222177691D01*
X257024733Y-222245034D01*
X256920415Y-222266381D01*
X258207431Y-223350719D02*
X257655474Y-223202823D01*
X257931452Y-223276771D02*
X258190272Y-222310845D01*
X258061304Y-222424185D01*
X257944662Y-222491529D01*
X257840344Y-222512876D01*
X248330206Y-226662169D02*
X248071387Y-225696243D01*
X248439359Y-225597645D01*
X248543677Y-225618992D01*
X248601998Y-225652664D01*
X248672644Y-225732332D01*
X248709618Y-225870322D01*
X248688271Y-225974639D01*
X248654599Y-226032960D01*
X248574931Y-226103606D01*
X248206959Y-226202204D01*
X249176187Y-226139696D02*
X249636152Y-226016448D01*
X249158143Y-226440324D02*
X249221299Y-225388125D01*
X249802093Y-226267778D01*
X250630030Y-226045933D02*
X250078072Y-226193829D01*
X250354051Y-226119881D02*
X250095232Y-225153955D01*
X250040213Y-225316594D01*
X249972869Y-225433237D01*
X249893201Y-225503882D01*
X250763832Y-225073402D02*
X250797503Y-225015081D01*
X250877172Y-224944435D01*
X251107154Y-224882812D01*
X251211472Y-224904159D01*
X251269793Y-224937830D01*
X251340439Y-225017499D01*
X251365088Y-225109491D01*
X251356066Y-225259806D01*
X250952005Y-225959660D01*
X251549959Y-225799439D01*
X247530206Y-229662169D02*
X247271387Y-228696243D01*
X247639359Y-228597645D01*
X247743677Y-228618992D01*
X247801998Y-228652664D01*
X247872644Y-228732332D01*
X247909618Y-228870322D01*
X247888271Y-228974639D01*
X247854599Y-229032960D01*
X247774931Y-229103606D01*
X247406959Y-229202204D01*
X248376187Y-229139696D02*
X248836152Y-229016448D01*
X248358143Y-229440324D02*
X248421299Y-228388125D01*
X249002093Y-229267778D01*
X249830030Y-229045933D02*
X249278072Y-229193829D01*
X249554051Y-229119881D02*
X249295232Y-228153955D01*
X249240213Y-228316594D01*
X249172869Y-228433237D01*
X249093201Y-228503882D01*
X250445143Y-227845837D02*
X249985179Y-227969085D01*
X250062429Y-228441374D01*
X250096101Y-228383053D01*
X250175769Y-228312407D01*
X250405752Y-228250783D01*
X250510069Y-228272130D01*
X250568391Y-228305802D01*
X250639036Y-228385470D01*
X250700660Y-228615453D01*
X250679313Y-228719770D01*
X250645641Y-228778091D01*
X250565973Y-228848737D01*
X250335991Y-228910361D01*
X250231673Y-228889014D01*
X250173352Y-228855342D01*
X269044416Y-218195347D02*
X268337309Y-217488240D01*
X268606683Y-217218866D01*
X268707698Y-217185194D01*
X268775042Y-217185194D01*
X268876057Y-217218866D01*
X268977072Y-217319881D01*
X269010744Y-217420896D01*
X269010744Y-217488240D01*
X268977072Y-217589255D01*
X268707698Y-217858629D01*
X269616835Y-216882148D02*
X269751522Y-216814805D01*
X269818866Y-216814805D01*
X269919881Y-216848477D01*
X270020896Y-216949492D01*
X270054568Y-217050507D01*
X270054568Y-217117851D01*
X270020896Y-217218866D01*
X269751522Y-217488240D01*
X269044416Y-216781133D01*
X269280118Y-216545431D01*
X269381133Y-216511759D01*
X269448477Y-216511759D01*
X269549492Y-216545431D01*
X269616835Y-216612774D01*
X269650507Y-216713790D01*
X269650507Y-216781133D01*
X269616835Y-216882148D01*
X269381133Y-217117851D01*
X269886209Y-215939339D02*
X269953553Y-215871996D01*
X270054568Y-215838324D01*
X270121912Y-215838324D01*
X270222927Y-215871996D01*
X270391286Y-215973011D01*
X270559644Y-216141370D01*
X270660660Y-216309729D01*
X270694331Y-216410744D01*
X270694331Y-216478087D01*
X270660660Y-216579103D01*
X270593316Y-216646446D01*
X270492301Y-216680118D01*
X270424957Y-216680118D01*
X270323942Y-216646446D01*
X270155583Y-216545431D01*
X269987225Y-216377072D01*
X269886209Y-216208713D01*
X269852538Y-216107698D01*
X269852538Y-216040355D01*
X269886209Y-215939339D01*
X266444416Y-217395347D02*
X265737309Y-216688240D01*
X266006683Y-216418866D01*
X266107698Y-216385194D01*
X266175042Y-216385194D01*
X266276057Y-216418866D01*
X266377072Y-216519881D01*
X266410744Y-216620896D01*
X266410744Y-216688240D01*
X266377072Y-216789255D01*
X266107698Y-217058629D01*
X267016835Y-216082148D02*
X267151522Y-216014805D01*
X267218866Y-216014805D01*
X267319881Y-216048477D01*
X267420896Y-216149492D01*
X267454568Y-216250507D01*
X267454568Y-216317851D01*
X267420896Y-216418866D01*
X267151522Y-216688240D01*
X266444416Y-215981133D01*
X266680118Y-215745431D01*
X266781133Y-215711759D01*
X266848477Y-215711759D01*
X266949492Y-215745431D01*
X267016835Y-215812774D01*
X267050507Y-215913790D01*
X267050507Y-215981133D01*
X267016835Y-216082148D01*
X266781133Y-216317851D01*
X268229018Y-215610744D02*
X267824957Y-216014805D01*
X268026988Y-215812774D02*
X267319881Y-215105668D01*
X267353553Y-215274026D01*
X267353553Y-215408713D01*
X267319881Y-215509729D01*
X263844416Y-216595347D02*
X263137309Y-215888240D01*
X263406683Y-215618866D01*
X263507698Y-215585194D01*
X263575042Y-215585194D01*
X263676057Y-215618866D01*
X263777072Y-215719881D01*
X263810744Y-215820896D01*
X263810744Y-215888240D01*
X263777072Y-215989255D01*
X263507698Y-216258629D01*
X264416835Y-215282148D02*
X264551522Y-215214805D01*
X264618866Y-215214805D01*
X264719881Y-215248477D01*
X264820896Y-215349492D01*
X264854568Y-215450507D01*
X264854568Y-215517851D01*
X264820896Y-215618866D01*
X264551522Y-215888240D01*
X263844416Y-215181133D01*
X264080118Y-214945431D01*
X264181133Y-214911759D01*
X264248477Y-214911759D01*
X264349492Y-214945431D01*
X264416835Y-215012774D01*
X264450507Y-215113790D01*
X264450507Y-215181133D01*
X264416835Y-215282148D01*
X264181133Y-215517851D01*
X264585194Y-214575042D02*
X264585194Y-214507698D01*
X264618866Y-214406683D01*
X264787225Y-214238324D01*
X264888240Y-214204652D01*
X264955583Y-214204652D01*
X265056599Y-214238324D01*
X265123942Y-214305668D01*
X265191286Y-214440355D01*
X265191286Y-215248477D01*
X265629018Y-214810744D01*
X251860568Y-234176923D02*
X252119387Y-233210997D01*
X252487358Y-233309595D01*
X252567027Y-233380241D01*
X252600698Y-233438562D01*
X252622045Y-233542880D01*
X252585071Y-233680869D01*
X252514425Y-233760538D01*
X252456104Y-233794209D01*
X252351786Y-233815556D01*
X251983815Y-233716959D01*
X253284041Y-234016054D02*
X253409705Y-234099025D01*
X253443377Y-234157346D01*
X253464724Y-234261664D01*
X253427750Y-234399653D01*
X253357104Y-234479321D01*
X253298783Y-234512993D01*
X253194465Y-234534340D01*
X252826493Y-234435742D01*
X253085312Y-233469817D01*
X253407288Y-233556090D01*
X253486956Y-233626735D01*
X253520628Y-233685057D01*
X253541975Y-233789374D01*
X253517325Y-233881367D01*
X253446679Y-233961035D01*
X253388358Y-233994707D01*
X253284041Y-234016054D01*
X252962065Y-233929781D01*
X254378933Y-234161533D02*
X254206387Y-234805484D01*
X254247549Y-233731938D02*
X253832696Y-234360261D01*
X254430650Y-234520483D01*
X250401962Y-242674677D02*
X249436036Y-242415858D01*
X249534634Y-242047887D01*
X249605280Y-241968218D01*
X249663601Y-241934547D01*
X249767919Y-241913200D01*
X249905908Y-241950174D01*
X249985577Y-242020820D01*
X250019248Y-242079141D01*
X250040595Y-242183459D01*
X249941998Y-242551430D01*
X250241093Y-241251204D02*
X250324064Y-241125540D01*
X250382385Y-241091868D01*
X250486703Y-241070521D01*
X250624692Y-241107495D01*
X250704360Y-241178141D01*
X250738032Y-241236462D01*
X250759379Y-241340780D01*
X250660781Y-241708752D01*
X249694856Y-241449933D01*
X249781129Y-241127957D01*
X249851774Y-241048289D01*
X249910096Y-241014617D01*
X250014413Y-240993270D01*
X250106406Y-241017920D01*
X250186074Y-241088566D01*
X250219746Y-241146887D01*
X250241093Y-241251204D01*
X250154820Y-241573180D01*
X250064597Y-240070039D02*
X250015298Y-240254024D01*
X250036645Y-240358342D01*
X250070317Y-240416663D01*
X250183657Y-240545630D01*
X250355318Y-240640926D01*
X250723290Y-240739523D01*
X250827607Y-240718176D01*
X250885929Y-240684505D01*
X250956575Y-240604836D01*
X251005873Y-240420851D01*
X250984526Y-240316533D01*
X250950855Y-240258212D01*
X250871186Y-240187566D01*
X250641204Y-240125942D01*
X250536886Y-240147289D01*
X250478565Y-240180961D01*
X250407919Y-240260629D01*
X250358620Y-240444615D01*
X250379968Y-240548933D01*
X250413639Y-240607254D01*
X250493307Y-240677900D01*
X253106555Y-243399370D02*
X252140629Y-243140551D01*
X252239227Y-242772580D01*
X252309873Y-242692911D01*
X252368194Y-242659240D01*
X252472512Y-242637893D01*
X252610501Y-242674867D01*
X252690170Y-242745513D01*
X252723841Y-242803834D01*
X252745188Y-242908152D01*
X252646591Y-243276123D01*
X252945686Y-241975897D02*
X253028657Y-241850233D01*
X253086978Y-241816561D01*
X253191296Y-241795214D01*
X253329285Y-241832188D01*
X253408953Y-241902834D01*
X253442625Y-241961155D01*
X253463972Y-242065473D01*
X253365374Y-242433445D01*
X252399449Y-242174626D01*
X252485722Y-241852650D01*
X252556367Y-241772982D01*
X252614689Y-241739310D01*
X252719006Y-241717963D01*
X252810999Y-241742613D01*
X252890667Y-241813259D01*
X252924339Y-241871580D01*
X252945686Y-241975897D01*
X252859413Y-242297873D01*
X252633618Y-241300693D02*
X252806164Y-240656742D01*
X253661168Y-241329529D01*
X255785265Y-244220656D02*
X254819339Y-243961837D01*
X254917937Y-243593866D01*
X254988583Y-243514197D01*
X255046904Y-243480526D01*
X255151222Y-243459179D01*
X255289211Y-243496153D01*
X255368880Y-243566799D01*
X255402551Y-243625120D01*
X255423898Y-243729438D01*
X255325301Y-244097409D01*
X255624396Y-242797183D02*
X255707367Y-242671519D01*
X255765688Y-242637847D01*
X255870006Y-242616500D01*
X256007995Y-242653474D01*
X256087663Y-242724120D01*
X256121335Y-242782441D01*
X256142682Y-242886759D01*
X256044084Y-243254731D01*
X255078159Y-242995912D01*
X255164432Y-242673936D01*
X255235077Y-242594268D01*
X255293399Y-242560596D01*
X255397716Y-242539249D01*
X255489709Y-242563899D01*
X255569377Y-242634545D01*
X255603049Y-242692866D01*
X255624396Y-242797183D01*
X255538123Y-243119159D01*
X255787920Y-242002919D02*
X255717274Y-242082587D01*
X255658953Y-242116259D01*
X255554635Y-242137606D01*
X255508639Y-242125281D01*
X255428971Y-242054635D01*
X255395299Y-241996314D01*
X255373952Y-241891996D01*
X255423251Y-241708010D01*
X255493896Y-241628342D01*
X255552218Y-241594671D01*
X255656535Y-241573323D01*
X255702532Y-241585648D01*
X255782200Y-241656294D01*
X255815872Y-241714615D01*
X255837219Y-241818933D01*
X255787920Y-242002919D01*
X255809267Y-242107236D01*
X255842939Y-242165558D01*
X255922607Y-242236204D01*
X256106593Y-242285502D01*
X256210910Y-242264155D01*
X256269232Y-242230484D01*
X256339878Y-242150815D01*
X256389176Y-241966830D01*
X256367829Y-241862512D01*
X256334158Y-241804191D01*
X256254489Y-241733545D01*
X256070504Y-241684246D01*
X255966186Y-241705593D01*
X255907865Y-241739265D01*
X255837219Y-241818933D01*
X259991007Y-239342980D02*
X259025081Y-239084161D01*
X259123679Y-238716190D01*
X259194325Y-238636521D01*
X259252646Y-238602850D01*
X259356964Y-238581503D01*
X259494953Y-238618477D01*
X259574622Y-238689123D01*
X259608293Y-238747444D01*
X259629640Y-238851762D01*
X259531043Y-239219733D01*
X259830138Y-237919507D02*
X259913109Y-237793843D01*
X259971430Y-237760171D01*
X260075748Y-237738824D01*
X260213737Y-237775798D01*
X260293405Y-237846444D01*
X260327077Y-237904765D01*
X260348424Y-238009083D01*
X260249826Y-238377055D01*
X259283901Y-238118236D01*
X259370174Y-237796260D01*
X259440819Y-237716592D01*
X259499141Y-237682920D01*
X259603458Y-237661573D01*
X259695451Y-237686223D01*
X259775119Y-237756869D01*
X259808791Y-237815190D01*
X259830138Y-237919507D01*
X259743865Y-238241483D01*
X260520970Y-237365132D02*
X260570269Y-237181146D01*
X260548922Y-237076829D01*
X260515250Y-237018508D01*
X260401910Y-236889541D01*
X260230249Y-236794245D01*
X259862277Y-236695647D01*
X259757960Y-236716995D01*
X259699638Y-236750666D01*
X259628993Y-236830334D01*
X259579694Y-237014320D01*
X259601041Y-237118638D01*
X259634713Y-237176959D01*
X259714381Y-237247605D01*
X259944363Y-237309229D01*
X260048681Y-237287882D01*
X260107002Y-237254210D01*
X260177648Y-237174542D01*
X260226947Y-236990556D01*
X260205600Y-236886238D01*
X260171928Y-236827917D01*
X260092260Y-236757271D01*
X262701762Y-240044675D02*
X261735836Y-239785856D01*
X261834434Y-239417884D01*
X261905080Y-239338216D01*
X261963401Y-239304544D01*
X262067719Y-239283197D01*
X262205708Y-239320172D01*
X262285376Y-239390817D01*
X262319048Y-239449139D01*
X262340395Y-239553456D01*
X262241797Y-239921428D01*
X263016485Y-238502142D02*
X263050157Y-238560463D01*
X263059179Y-238710778D01*
X263034529Y-238802771D01*
X262951559Y-238928435D01*
X262834917Y-238995779D01*
X262730599Y-239017126D01*
X262534288Y-239013823D01*
X262396299Y-238976849D01*
X262224638Y-238881554D01*
X262144969Y-238810908D01*
X262077626Y-238694266D01*
X262068604Y-238543951D01*
X262093253Y-238451959D01*
X262176224Y-238326294D01*
X262234545Y-238292622D01*
X263354972Y-237606862D02*
X263207076Y-238158820D01*
X263281024Y-237882841D02*
X262315098Y-237624022D01*
X262428438Y-237752989D01*
X262495781Y-237869632D01*
X262517129Y-237973949D01*
X262932866Y-236606380D02*
X263576817Y-236778926D01*
X262503271Y-236737765D02*
X263131595Y-237152618D01*
X263291816Y-236554664D01*
X265406355Y-240769368D02*
X264440429Y-240510549D01*
X264539027Y-240142577D01*
X264609673Y-240062909D01*
X264667994Y-240029237D01*
X264772312Y-240007890D01*
X264910301Y-240044865D01*
X264989969Y-240115510D01*
X265023641Y-240173832D01*
X265044988Y-240278149D01*
X264946390Y-240646121D01*
X265721078Y-239226835D02*
X265754750Y-239285156D01*
X265763772Y-239435471D01*
X265739122Y-239527464D01*
X265656152Y-239653128D01*
X265539510Y-239720472D01*
X265435192Y-239741819D01*
X265238881Y-239738516D01*
X265100892Y-239701542D01*
X264929231Y-239606247D01*
X264849562Y-239535601D01*
X264782219Y-239418959D01*
X264773197Y-239268644D01*
X264797846Y-239176652D01*
X264880817Y-239050987D01*
X264939138Y-239017315D01*
X266059565Y-238331555D02*
X265911669Y-238883513D01*
X265985617Y-238607534D02*
X265019691Y-238348715D01*
X265133031Y-238477682D01*
X265200374Y-238594325D01*
X265221722Y-238698642D01*
X265327809Y-237198803D02*
X265204562Y-237658768D01*
X265652202Y-237828012D01*
X265618530Y-237769691D01*
X265597183Y-237665373D01*
X265658807Y-237435391D01*
X265729452Y-237355722D01*
X265787774Y-237322051D01*
X265892091Y-237300704D01*
X266122074Y-237362327D01*
X266201742Y-237432973D01*
X266235414Y-237491294D01*
X266256761Y-237595612D01*
X266195137Y-237825594D01*
X266124491Y-237905262D01*
X266066170Y-237938934D01*
X250859268Y-218460501D02*
X250685620Y-217475693D01*
X251060785Y-217409541D01*
X251162845Y-217439899D01*
X251218009Y-217478526D01*
X251281443Y-217564048D01*
X251306250Y-217704735D01*
X251275892Y-217806795D01*
X251237265Y-217861959D01*
X251151743Y-217925393D01*
X250776578Y-217991545D01*
X252390285Y-218093834D02*
X252351658Y-218148998D01*
X252219240Y-218220701D01*
X252125449Y-218237239D01*
X251976493Y-218215150D01*
X251866164Y-218137897D01*
X251802731Y-218052375D01*
X251722759Y-217873061D01*
X251697952Y-217732374D01*
X251711772Y-217536523D01*
X251742130Y-217434463D01*
X251819383Y-217324134D01*
X251951801Y-217252431D01*
X252045592Y-217235893D01*
X252194548Y-217257982D01*
X252249713Y-217296609D01*
X253077296Y-217053976D02*
X252889713Y-217087052D01*
X252804191Y-217150485D01*
X252765564Y-217205650D01*
X252696580Y-217362875D01*
X252682760Y-217558726D01*
X252748912Y-217933891D01*
X252812345Y-218019413D01*
X252867510Y-218058040D01*
X252969570Y-218088398D01*
X253157153Y-218055322D01*
X253242675Y-217991888D01*
X253281301Y-217936724D01*
X253311659Y-217834663D01*
X253270314Y-217600185D01*
X253206881Y-217514663D01*
X253151716Y-217476036D01*
X253049656Y-217445679D01*
X252862074Y-217478755D01*
X252776551Y-217542188D01*
X252737925Y-217597353D01*
X252707567Y-217699413D01*
X260839361Y-230000700D02*
X261244123Y-230701768D01*
X261332981Y-230760437D01*
X261398030Y-230777867D01*
X261504318Y-230771487D01*
X261669276Y-230676249D01*
X261727945Y-230587391D01*
X261745374Y-230522342D01*
X261738995Y-230416054D01*
X261334233Y-229714986D01*
X261753006Y-229583178D02*
X261770435Y-229518130D01*
X261829104Y-229429271D01*
X262035301Y-229310224D01*
X262141589Y-229303844D01*
X262206638Y-229321274D01*
X262295496Y-229379943D01*
X262343115Y-229462421D01*
X262373305Y-229609949D01*
X262164147Y-230390535D01*
X262700258Y-230081011D01*
X306352380Y-272501904D02*
X307161904Y-272501904D01*
X307257142Y-272454285D01*
X307304761Y-272406666D01*
X307352380Y-272311428D01*
X307352380Y-272120952D01*
X307304761Y-272025714D01*
X307257142Y-271978095D01*
X307161904Y-271930476D01*
X306352380Y-271930476D01*
X307352380Y-271406666D02*
X307352380Y-271216190D01*
X307304761Y-271120952D01*
X307257142Y-271073333D01*
X307114285Y-270978095D01*
X306923809Y-270930476D01*
X306542857Y-270930476D01*
X306447619Y-270978095D01*
X306400000Y-271025714D01*
X306352380Y-271120952D01*
X306352380Y-271311428D01*
X306400000Y-271406666D01*
X306447619Y-271454285D01*
X306542857Y-271501904D01*
X306780952Y-271501904D01*
X306876190Y-271454285D01*
X306923809Y-271406666D01*
X306971428Y-271311428D01*
X306971428Y-271120952D01*
X306923809Y-271025714D01*
X306876190Y-270978095D01*
X306780952Y-270930476D01*
X337806380Y-233618095D02*
X338615904Y-233618095D01*
X338711142Y-233570476D01*
X338758761Y-233522857D01*
X338806380Y-233427619D01*
X338806380Y-233237142D01*
X338758761Y-233141904D01*
X338711142Y-233094285D01*
X338615904Y-233046666D01*
X337806380Y-233046666D01*
X338806380Y-232046666D02*
X338806380Y-232618095D01*
X338806380Y-232332380D02*
X337806380Y-232332380D01*
X337949238Y-232427619D01*
X338044476Y-232522857D01*
X338092095Y-232618095D01*
X338806380Y-231094285D02*
X338806380Y-231665714D01*
X338806380Y-231380000D02*
X337806380Y-231380000D01*
X337949238Y-231475238D01*
X338044476Y-231570476D01*
X338092095Y-231665714D01*
X350066666Y-229182380D02*
X350066666Y-229896666D01*
X350019047Y-230039523D01*
X349923809Y-230134761D01*
X349780952Y-230182380D01*
X349685714Y-230182380D01*
X351019047Y-229182380D02*
X350542857Y-229182380D01*
X350495238Y-229658571D01*
X350542857Y-229610952D01*
X350638095Y-229563333D01*
X350876190Y-229563333D01*
X350971428Y-229610952D01*
X351019047Y-229658571D01*
X351066666Y-229753809D01*
X351066666Y-229991904D01*
X351019047Y-230087142D01*
X350971428Y-230134761D01*
X350876190Y-230182380D01*
X350638095Y-230182380D01*
X350542857Y-230134761D01*
X350495238Y-230087142D01*
X285357142Y-272357142D02*
X285309523Y-272404761D01*
X285166666Y-272452380D01*
X285071428Y-272452380D01*
X284928571Y-272404761D01*
X284833333Y-272309523D01*
X284785714Y-272214285D01*
X284738095Y-272023809D01*
X284738095Y-271880952D01*
X284785714Y-271690476D01*
X284833333Y-271595238D01*
X284928571Y-271500000D01*
X285071428Y-271452380D01*
X285166666Y-271452380D01*
X285309523Y-271500000D01*
X285357142Y-271547619D01*
X286261904Y-271452380D02*
X285785714Y-271452380D01*
X285738095Y-271928571D01*
X285785714Y-271880952D01*
X285880952Y-271833333D01*
X286119047Y-271833333D01*
X286214285Y-271880952D01*
X286261904Y-271928571D01*
X286309523Y-272023809D01*
X286309523Y-272261904D01*
X286261904Y-272357142D01*
X286214285Y-272404761D01*
X286119047Y-272452380D01*
X285880952Y-272452380D01*
X285785714Y-272404761D01*
X285738095Y-272357142D01*
X286642857Y-271452380D02*
X287261904Y-271452380D01*
X286928571Y-271833333D01*
X287071428Y-271833333D01*
X287166666Y-271880952D01*
X287214285Y-271928571D01*
X287261904Y-272023809D01*
X287261904Y-272261904D01*
X287214285Y-272357142D01*
X287166666Y-272404761D01*
X287071428Y-272452380D01*
X286785714Y-272452380D01*
X286690476Y-272404761D01*
X286642857Y-272357142D01*
X266347840Y-236439724D02*
X266330411Y-236504773D01*
X266230502Y-236617441D01*
X266148024Y-236665060D01*
X266000496Y-236695249D01*
X265870398Y-236660389D01*
X265781540Y-236601720D01*
X265645063Y-236460573D01*
X265573634Y-236336855D01*
X265519635Y-236148088D01*
X265513256Y-236041800D01*
X265548115Y-235911702D01*
X265648024Y-235799034D01*
X265730502Y-235751415D01*
X265878030Y-235721226D01*
X265943078Y-235738656D01*
X266679006Y-235203796D02*
X266266613Y-235441891D01*
X266463469Y-235878094D01*
X266480899Y-235813045D01*
X266539568Y-235724187D01*
X266745764Y-235605139D01*
X266852053Y-235598759D01*
X266917101Y-235616189D01*
X267005960Y-235674858D01*
X267125007Y-235881055D01*
X267131387Y-235987343D01*
X267113957Y-236052392D01*
X267055288Y-236141250D01*
X266849092Y-236260298D01*
X266742804Y-236266677D01*
X266677755Y-236249248D01*
X267629220Y-235040090D02*
X267962553Y-235617441D01*
X267232547Y-234829223D02*
X267383493Y-235566861D01*
X267919604Y-235257337D01*
X273392649Y-206794762D02*
X273851783Y-207341936D01*
X273907131Y-207481980D01*
X273895392Y-207616154D01*
X273816566Y-207744460D01*
X273743610Y-207805677D01*
X274801481Y-206918018D02*
X274363741Y-207285326D01*
X274582611Y-207101672D02*
X273939823Y-206335628D01*
X273958693Y-206506280D01*
X273946955Y-206640455D01*
X273904607Y-206738151D01*
X267337333Y-232832380D02*
X267337333Y-231832380D01*
X267718285Y-231832380D01*
X267813523Y-231880000D01*
X267861142Y-231927619D01*
X267908761Y-232022857D01*
X267908761Y-232165714D01*
X267861142Y-232260952D01*
X267813523Y-232308571D01*
X267718285Y-232356190D01*
X267337333Y-232356190D01*
X268289714Y-232546666D02*
X268765904Y-232546666D01*
X268194476Y-232832380D02*
X268527809Y-231832380D01*
X268861142Y-232832380D01*
X269718285Y-232832380D02*
X269146857Y-232832380D01*
X269432571Y-232832380D02*
X269432571Y-231832380D01*
X269337333Y-231975238D01*
X269242095Y-232070476D01*
X269146857Y-232118095D01*
X266903537Y-225397066D02*
X267669581Y-224754278D01*
X267914453Y-225046105D01*
X267939192Y-225149670D01*
X267933323Y-225216757D01*
X267890975Y-225314454D01*
X267781540Y-225406280D01*
X267677975Y-225431020D01*
X267610887Y-225425151D01*
X267513191Y-225382803D01*
X267268320Y-225090977D01*
X267734585Y-225942978D02*
X268040675Y-226307761D01*
X267454498Y-226053675D02*
X268434804Y-225666236D01*
X267883023Y-226564372D01*
X268759764Y-226201672D02*
X268826851Y-226207541D01*
X268924547Y-226249889D01*
X269077592Y-226432280D01*
X269102332Y-226535846D01*
X269096462Y-226602933D01*
X269054115Y-226700629D01*
X268981158Y-226761847D01*
X268841114Y-226817196D01*
X268036067Y-226746763D01*
X268433983Y-227220981D01*
M02*
