G04 #@! TF.GenerationSoftware,KiCad,Pcbnew,(5.1.4)-1*
G04 #@! TF.CreationDate,2019-09-16T17:17:07+02:00*
G04 #@! TF.ProjectId,PixelFan,50697865-6c46-4616-9e2e-6b696361645f,rev?*
G04 #@! TF.SameCoordinates,Original*
G04 #@! TF.FileFunction,Legend,Bot*
G04 #@! TF.FilePolarity,Positive*
%FSLAX46Y46*%
G04 Gerber Fmt 4.6, Leading zero omitted, Abs format (unit mm)*
G04 Created by KiCad (PCBNEW (5.1.4)-1) date 2019-09-16 17:17:07*
%MOMM*%
%LPD*%
G04 APERTURE LIST*
%ADD10C,0.150000*%
%ADD11C,0.120000*%
G04 APERTURE END LIST*
D10*
X279731467Y-287451361D02*
X279645194Y-287773336D01*
X279139233Y-287637765D02*
X280105158Y-287896584D01*
X280228406Y-287436619D01*
X279484325Y-286349863D02*
X279361078Y-286809828D01*
X280327003Y-287068647D01*
X279834252Y-286147833D02*
X279957499Y-285687868D01*
X279533624Y-286165878D02*
X280585822Y-286102721D01*
X279706170Y-285521927D01*
X279826114Y-285258273D02*
X279817092Y-285107959D01*
X279878716Y-284877977D01*
X279949361Y-284798308D01*
X280007683Y-284764637D01*
X280112000Y-284743289D01*
X280203993Y-284767939D01*
X280283661Y-284838585D01*
X280317333Y-284896906D01*
X280338680Y-285001224D01*
X280335378Y-285197534D01*
X280356725Y-285301852D01*
X280390397Y-285360173D01*
X280470065Y-285430819D01*
X280562058Y-285455468D01*
X280666375Y-285434121D01*
X280724697Y-285400450D01*
X280795343Y-285320781D01*
X280856966Y-285090799D01*
X280847944Y-284940485D01*
X280038937Y-284280022D02*
X281004863Y-284538841D01*
X280544898Y-284415594D02*
X280692795Y-283863637D01*
X280186834Y-283728065D02*
X281152759Y-283986884D01*
X304447619Y-290652380D02*
X304923809Y-290985714D01*
X304447619Y-291223809D02*
X305447619Y-291223809D01*
X305447619Y-290842857D01*
X305400000Y-290747619D01*
X305352380Y-290700000D01*
X305257142Y-290652380D01*
X305114285Y-290652380D01*
X305019047Y-290700000D01*
X304971428Y-290747619D01*
X304923809Y-290842857D01*
X304923809Y-291223809D01*
X304971428Y-290223809D02*
X304971428Y-289890476D01*
X304447619Y-289747619D02*
X304447619Y-290223809D01*
X305447619Y-290223809D01*
X305447619Y-289747619D01*
X304495238Y-289366666D02*
X304447619Y-289223809D01*
X304447619Y-288985714D01*
X304495238Y-288890476D01*
X304542857Y-288842857D01*
X304638095Y-288795238D01*
X304733333Y-288795238D01*
X304828571Y-288842857D01*
X304876190Y-288890476D01*
X304923809Y-288985714D01*
X304971428Y-289176190D01*
X305019047Y-289271428D01*
X305066666Y-289319047D01*
X305161904Y-289366666D01*
X305257142Y-289366666D01*
X305352380Y-289319047D01*
X305400000Y-289271428D01*
X305447619Y-289176190D01*
X305447619Y-288938095D01*
X305400000Y-288795238D01*
X304971428Y-288366666D02*
X304971428Y-288033333D01*
X304447619Y-287890476D02*
X304447619Y-288366666D01*
X305447619Y-288366666D01*
X305447619Y-287890476D01*
X305447619Y-287604761D02*
X305447619Y-287033333D01*
X304447619Y-287319047D02*
X305447619Y-287319047D01*
D11*
X330500000Y-240000000D02*
G75*
G03X330500000Y-240000000I-30500000J0D01*
G01*
X337500000Y-240000000D02*
G75*
G03X337500000Y-240000000I-37500000J0D01*
G01*
X334353584Y-208721981D02*
X333953323Y-209057840D01*
X333440825Y-207634198D02*
X333040564Y-207970057D01*
X334949587Y-209447552D02*
X334521577Y-209747248D01*
X335764065Y-210610748D02*
X335336055Y-210910444D01*
X331775062Y-214136790D02*
X331820601Y-213616275D01*
X333189659Y-214260551D02*
X333235198Y-213740036D01*
X338660000Y-232118748D02*
X338660000Y-232641252D01*
X340080000Y-232118748D02*
X340080000Y-232641252D01*
X302310000Y-280361252D02*
X302310000Y-279838748D01*
X300890000Y-280361252D02*
X300890000Y-279838748D01*
X297390000Y-279838748D02*
X297390000Y-280361252D01*
X298810000Y-279838748D02*
X298810000Y-280361252D01*
X294261252Y-283910000D02*
X293738748Y-283910000D01*
X294261252Y-282490000D02*
X293738748Y-282490000D01*
X343441252Y-234210000D02*
X342918748Y-234210000D01*
X343441252Y-235630000D02*
X342918748Y-235630000D01*
X348521252Y-227860000D02*
X347998748Y-227860000D01*
X348521252Y-229280000D02*
X347998748Y-229280000D01*
X345458748Y-238210000D02*
X345981252Y-238210000D01*
X345458748Y-236790000D02*
X345981252Y-236790000D01*
X345474639Y-239290000D02*
X345997143Y-239290000D01*
X345474639Y-240710000D02*
X345997143Y-240710000D01*
X345458748Y-243250000D02*
X345981252Y-243250000D01*
X345458748Y-241830000D02*
X345981252Y-241830000D01*
X302050000Y-285700000D02*
X302050000Y-285450000D01*
X302050000Y-285450000D02*
X295750000Y-285450000D01*
X295750000Y-285450000D02*
X295750000Y-285700000D01*
X302050000Y-290200000D02*
X302050000Y-287600000D01*
X295750000Y-292100000D02*
X295750000Y-292350000D01*
X295750000Y-292350000D02*
X302050000Y-292350000D01*
X302050000Y-292350000D02*
X302050000Y-292100000D01*
X295750000Y-287600000D02*
X295750000Y-290200000D01*
X283293798Y-285129016D02*
X282620869Y-287640424D01*
X288149741Y-291347724D02*
X288214445Y-291106243D01*
X282064408Y-289717164D02*
X288149741Y-291347724D01*
X282129113Y-289475683D02*
X282064408Y-289717164D01*
X288706202Y-289270984D02*
X289379131Y-286759576D01*
X283850259Y-283052276D02*
X283785555Y-283293757D01*
X289935592Y-284682836D02*
X283850259Y-283052276D01*
X289870887Y-284924317D02*
X289935592Y-284682836D01*
X342055080Y-216234946D02*
X342587579Y-217376893D01*
X344937336Y-222415965D02*
X344404837Y-221274017D01*
X338647362Y-217823990D02*
X342055080Y-216234946D01*
X339490426Y-224955900D02*
X344937336Y-222415965D01*
X289311252Y-278910000D02*
X288788748Y-278910000D01*
X289311252Y-277490000D02*
X288788748Y-277490000D01*
X251185310Y-225974888D02*
X251050076Y-226479589D01*
X252556924Y-226342411D02*
X252421690Y-226847112D01*
X336242778Y-257703163D02*
X336695280Y-257964415D01*
X336952778Y-256473407D02*
X337405280Y-256734659D01*
X335702778Y-258638471D02*
X336155280Y-258899723D01*
X334992778Y-259868227D02*
X335445280Y-260129479D01*
X296290000Y-198738748D02*
X296290000Y-199261252D01*
X297710000Y-198738748D02*
X297710000Y-199261252D01*
X300210000Y-198738748D02*
X300210000Y-199261252D01*
X298790000Y-198738748D02*
X298790000Y-199261252D01*
X325511435Y-249290394D02*
X325963937Y-249551646D01*
X324801435Y-250520150D02*
X325253937Y-250781402D01*
X295290000Y-213261252D02*
X295290000Y-212738748D01*
X296710000Y-213261252D02*
X296710000Y-212738748D01*
X323301435Y-253118227D02*
X323753937Y-253379479D01*
X324011435Y-251888471D02*
X324463937Y-252149723D01*
X299710000Y-213261252D02*
X299710000Y-212738748D01*
X298290000Y-213261252D02*
X298290000Y-212738748D01*
X295840000Y-194700000D02*
X295840000Y-192800000D01*
X298160000Y-193300000D02*
X298160000Y-194700000D01*
X265246164Y-261404589D02*
X263600716Y-262354589D01*
X262873728Y-260095411D02*
X264086164Y-259395411D01*
X339296399Y-266336640D02*
X338083963Y-265636640D01*
X339243963Y-263627462D02*
X340889411Y-264577462D01*
X340993963Y-260596373D02*
X342639411Y-261546373D01*
X341046399Y-263305551D02*
X339833963Y-262605551D01*
X301160000Y-193300000D02*
X301160000Y-194700000D01*
X298840000Y-194700000D02*
X298840000Y-192800000D01*
X264583020Y-263055992D02*
X265795456Y-262355992D01*
X266955456Y-264365170D02*
X265310008Y-265315170D01*
X251541718Y-251695974D02*
X249421718Y-248024026D01*
X249421718Y-248024026D02*
X257856805Y-243154026D01*
X257856805Y-243154026D02*
X259976805Y-246825974D01*
X259976805Y-246825974D02*
X251541718Y-251695974D01*
X250273872Y-249980000D02*
X250481718Y-249860000D01*
X259124651Y-244870000D02*
X258916805Y-244990000D01*
X324675349Y-273270000D02*
X324883195Y-273390000D01*
X333526128Y-278380000D02*
X333318282Y-278260000D01*
X325943195Y-271554026D02*
X334378282Y-276424026D01*
X323823195Y-275225974D02*
X325943195Y-271554026D01*
X332258282Y-280095974D02*
X323823195Y-275225974D01*
X334378282Y-276424026D02*
X332258282Y-280095974D01*
X313380000Y-191480000D02*
X317620000Y-191480000D01*
X317620000Y-191480000D02*
X317620000Y-201220000D01*
X317620000Y-201220000D02*
X313380000Y-201220000D01*
X313380000Y-201220000D02*
X313380000Y-191480000D01*
X315500000Y-191240000D02*
X315500000Y-191480000D01*
X315500000Y-201460000D02*
X315500000Y-201220000D01*
X298710000Y-189261252D02*
X298710000Y-188738748D01*
X297290000Y-189261252D02*
X297290000Y-188738748D01*
X258492542Y-263629479D02*
X258945044Y-263368227D01*
X257782542Y-262399723D02*
X258235044Y-262138471D01*
X344181559Y-266997799D02*
X343729057Y-266736547D01*
X343471559Y-268227555D02*
X343019057Y-267966303D01*
X345221559Y-265196466D02*
X344769057Y-264935214D01*
X345931559Y-263966710D02*
X345479057Y-263705458D01*
X301290000Y-189286252D02*
X301290000Y-188763748D01*
X302710000Y-189286252D02*
X302710000Y-188763748D01*
X259032542Y-264564786D02*
X259485044Y-264303534D01*
X259742542Y-265794542D02*
X260195044Y-265533290D01*
D10*
X336457251Y-206668409D02*
X336524338Y-206674278D01*
X336664382Y-206618929D01*
X336737338Y-206557712D01*
X336816164Y-206429406D01*
X336827903Y-206295232D01*
X336803163Y-206191666D01*
X336717206Y-206015144D01*
X336625379Y-205905709D01*
X336466465Y-205790405D01*
X336368769Y-205748057D01*
X336234595Y-205736319D01*
X336094551Y-205791667D01*
X336021594Y-205852885D01*
X335942768Y-205981190D01*
X335936899Y-206048277D01*
X335620333Y-206189583D02*
X335146115Y-206587499D01*
X335646334Y-206665063D01*
X335536899Y-206756890D01*
X335494552Y-206854586D01*
X335488682Y-206921674D01*
X335513422Y-207025239D01*
X335666467Y-207207631D01*
X335764163Y-207249978D01*
X335831250Y-207255848D01*
X335934816Y-207231108D01*
X336153685Y-207047454D01*
X336196033Y-206949758D01*
X336201902Y-206882671D01*
X337985008Y-208665436D02*
X338051328Y-208677130D01*
X338195663Y-208634198D01*
X338273677Y-208579571D01*
X338363386Y-208458624D01*
X338386774Y-208325984D01*
X338371155Y-208220656D01*
X338300910Y-208037314D01*
X338218970Y-207920292D01*
X338070710Y-207791576D01*
X337977077Y-207740875D01*
X337844436Y-207717487D01*
X337700101Y-207760419D01*
X337622086Y-207815046D01*
X337532378Y-207935992D01*
X337520684Y-208002313D01*
X336955119Y-208688986D02*
X337337504Y-209235087D01*
X336931650Y-208240362D02*
X337536384Y-208688905D01*
X337029290Y-209043976D01*
X330915500Y-213574955D02*
X330967088Y-213531668D01*
X331026977Y-213393504D01*
X331035278Y-213298629D01*
X331000291Y-213152165D01*
X330913715Y-213048989D01*
X330822990Y-212993250D01*
X330637389Y-212929211D01*
X330495075Y-212916760D01*
X330301174Y-212947597D01*
X330202148Y-212986734D01*
X330098972Y-213073310D01*
X330039083Y-213211473D01*
X330030782Y-213306349D01*
X330065769Y-213452812D01*
X330109057Y-213504400D01*
X329935326Y-214397419D02*
X329976829Y-213923040D01*
X330455358Y-213917105D01*
X330403769Y-213960393D01*
X330348031Y-214051118D01*
X330327280Y-214288308D01*
X330366417Y-214387334D01*
X330409704Y-214438922D01*
X330500430Y-214494660D01*
X330737619Y-214515411D01*
X330836645Y-214476274D01*
X330888233Y-214432987D01*
X330943972Y-214342261D01*
X330964723Y-214105072D01*
X330925586Y-214006046D01*
X330882298Y-213954458D01*
X338077142Y-231737142D02*
X338124761Y-231689523D01*
X338172380Y-231546666D01*
X338172380Y-231451428D01*
X338124761Y-231308571D01*
X338029523Y-231213333D01*
X337934285Y-231165714D01*
X337743809Y-231118095D01*
X337600952Y-231118095D01*
X337410476Y-231165714D01*
X337315238Y-231213333D01*
X337220000Y-231308571D01*
X337172380Y-231451428D01*
X337172380Y-231546666D01*
X337220000Y-231689523D01*
X337267619Y-231737142D01*
X337172380Y-232070476D02*
X337172380Y-232689523D01*
X337553333Y-232356190D01*
X337553333Y-232499047D01*
X337600952Y-232594285D01*
X337648571Y-232641904D01*
X337743809Y-232689523D01*
X337981904Y-232689523D01*
X338077142Y-232641904D01*
X338124761Y-232594285D01*
X338172380Y-232499047D01*
X338172380Y-232213333D01*
X338124761Y-232118095D01*
X338077142Y-232070476D01*
X337172380Y-233022857D02*
X337172380Y-233641904D01*
X337553333Y-233308571D01*
X337553333Y-233451428D01*
X337600952Y-233546666D01*
X337648571Y-233594285D01*
X337743809Y-233641904D01*
X337981904Y-233641904D01*
X338077142Y-233594285D01*
X338124761Y-233546666D01*
X338172380Y-233451428D01*
X338172380Y-233165714D01*
X338124761Y-233070476D01*
X338077142Y-233022857D01*
X303702380Y-279933333D02*
X303226190Y-279600000D01*
X303702380Y-279361904D02*
X302702380Y-279361904D01*
X302702380Y-279742857D01*
X302750000Y-279838095D01*
X302797619Y-279885714D01*
X302892857Y-279933333D01*
X303035714Y-279933333D01*
X303130952Y-279885714D01*
X303178571Y-279838095D01*
X303226190Y-279742857D01*
X303226190Y-279361904D01*
X303130952Y-280504761D02*
X303083333Y-280409523D01*
X303035714Y-280361904D01*
X302940476Y-280314285D01*
X302892857Y-280314285D01*
X302797619Y-280361904D01*
X302750000Y-280409523D01*
X302702380Y-280504761D01*
X302702380Y-280695238D01*
X302750000Y-280790476D01*
X302797619Y-280838095D01*
X302892857Y-280885714D01*
X302940476Y-280885714D01*
X303035714Y-280838095D01*
X303083333Y-280790476D01*
X303130952Y-280695238D01*
X303130952Y-280504761D01*
X303178571Y-280409523D01*
X303226190Y-280361904D01*
X303321428Y-280314285D01*
X303511904Y-280314285D01*
X303607142Y-280361904D01*
X303654761Y-280409523D01*
X303702380Y-280504761D01*
X303702380Y-280695238D01*
X303654761Y-280790476D01*
X303607142Y-280838095D01*
X303511904Y-280885714D01*
X303321428Y-280885714D01*
X303226190Y-280838095D01*
X303178571Y-280790476D01*
X303130952Y-280695238D01*
X296902380Y-279933333D02*
X296426190Y-279600000D01*
X296902380Y-279361904D02*
X295902380Y-279361904D01*
X295902380Y-279742857D01*
X295950000Y-279838095D01*
X295997619Y-279885714D01*
X296092857Y-279933333D01*
X296235714Y-279933333D01*
X296330952Y-279885714D01*
X296378571Y-279838095D01*
X296426190Y-279742857D01*
X296426190Y-279361904D01*
X296902380Y-280409523D02*
X296902380Y-280600000D01*
X296854761Y-280695238D01*
X296807142Y-280742857D01*
X296664285Y-280838095D01*
X296473809Y-280885714D01*
X296092857Y-280885714D01*
X295997619Y-280838095D01*
X295950000Y-280790476D01*
X295902380Y-280695238D01*
X295902380Y-280504761D01*
X295950000Y-280409523D01*
X295997619Y-280361904D01*
X296092857Y-280314285D01*
X296330952Y-280314285D01*
X296426190Y-280361904D01*
X296473809Y-280409523D01*
X296521428Y-280504761D01*
X296521428Y-280695238D01*
X296473809Y-280790476D01*
X296426190Y-280838095D01*
X296330952Y-280885714D01*
X294642857Y-282002380D02*
X294976190Y-281526190D01*
X295214285Y-282002380D02*
X295214285Y-281002380D01*
X294833333Y-281002380D01*
X294738095Y-281050000D01*
X294690476Y-281097619D01*
X294642857Y-281192857D01*
X294642857Y-281335714D01*
X294690476Y-281430952D01*
X294738095Y-281478571D01*
X294833333Y-281526190D01*
X295214285Y-281526190D01*
X293690476Y-282002380D02*
X294261904Y-282002380D01*
X293976190Y-282002380D02*
X293976190Y-281002380D01*
X294071428Y-281145238D01*
X294166666Y-281240476D01*
X294261904Y-281288095D01*
X293071428Y-281002380D02*
X292976190Y-281002380D01*
X292880952Y-281050000D01*
X292833333Y-281097619D01*
X292785714Y-281192857D01*
X292738095Y-281383333D01*
X292738095Y-281621428D01*
X292785714Y-281811904D01*
X292833333Y-281907142D01*
X292880952Y-281954761D01*
X292976190Y-282002380D01*
X293071428Y-282002380D01*
X293166666Y-281954761D01*
X293214285Y-281907142D01*
X293261904Y-281811904D01*
X293309523Y-281621428D01*
X293309523Y-281383333D01*
X293261904Y-281192857D01*
X293214285Y-281097619D01*
X293166666Y-281050000D01*
X293071428Y-281002380D01*
X347322857Y-235372380D02*
X347656190Y-234896190D01*
X347894285Y-235372380D02*
X347894285Y-234372380D01*
X347513333Y-234372380D01*
X347418095Y-234420000D01*
X347370476Y-234467619D01*
X347322857Y-234562857D01*
X347322857Y-234705714D01*
X347370476Y-234800952D01*
X347418095Y-234848571D01*
X347513333Y-234896190D01*
X347894285Y-234896190D01*
X346370476Y-235372380D02*
X346941904Y-235372380D01*
X346656190Y-235372380D02*
X346656190Y-234372380D01*
X346751428Y-234515238D01*
X346846666Y-234610476D01*
X346941904Y-234658095D01*
X345513333Y-234705714D02*
X345513333Y-235372380D01*
X345751428Y-234324761D02*
X345989523Y-235039047D01*
X345370476Y-235039047D01*
X349002857Y-230822380D02*
X349336190Y-230346190D01*
X349574285Y-230822380D02*
X349574285Y-229822380D01*
X349193333Y-229822380D01*
X349098095Y-229870000D01*
X349050476Y-229917619D01*
X349002857Y-230012857D01*
X349002857Y-230155714D01*
X349050476Y-230250952D01*
X349098095Y-230298571D01*
X349193333Y-230346190D01*
X349574285Y-230346190D01*
X348050476Y-230822380D02*
X348621904Y-230822380D01*
X348336190Y-230822380D02*
X348336190Y-229822380D01*
X348431428Y-229965238D01*
X348526666Y-230060476D01*
X348621904Y-230108095D01*
X347193333Y-229822380D02*
X347383809Y-229822380D01*
X347479047Y-229870000D01*
X347526666Y-229917619D01*
X347621904Y-230060476D01*
X347669523Y-230250952D01*
X347669523Y-230631904D01*
X347621904Y-230727142D01*
X347574285Y-230774761D01*
X347479047Y-230822380D01*
X347288571Y-230822380D01*
X347193333Y-230774761D01*
X347145714Y-230727142D01*
X347098095Y-230631904D01*
X347098095Y-230393809D01*
X347145714Y-230298571D01*
X347193333Y-230250952D01*
X347288571Y-230203333D01*
X347479047Y-230203333D01*
X347574285Y-230250952D01*
X347621904Y-230298571D01*
X347669523Y-230393809D01*
X343042857Y-237952380D02*
X343376190Y-237476190D01*
X343614285Y-237952380D02*
X343614285Y-236952380D01*
X343233333Y-236952380D01*
X343138095Y-237000000D01*
X343090476Y-237047619D01*
X343042857Y-237142857D01*
X343042857Y-237285714D01*
X343090476Y-237380952D01*
X343138095Y-237428571D01*
X343233333Y-237476190D01*
X343614285Y-237476190D01*
X342090476Y-237952380D02*
X342661904Y-237952380D01*
X342376190Y-237952380D02*
X342376190Y-236952380D01*
X342471428Y-237095238D01*
X342566666Y-237190476D01*
X342661904Y-237238095D01*
X341757142Y-236952380D02*
X341090476Y-236952380D01*
X341519047Y-237952380D01*
X343042857Y-240452380D02*
X343376190Y-239976190D01*
X343614285Y-240452380D02*
X343614285Y-239452380D01*
X343233333Y-239452380D01*
X343138095Y-239500000D01*
X343090476Y-239547619D01*
X343042857Y-239642857D01*
X343042857Y-239785714D01*
X343090476Y-239880952D01*
X343138095Y-239928571D01*
X343233333Y-239976190D01*
X343614285Y-239976190D01*
X342090476Y-240452380D02*
X342661904Y-240452380D01*
X342376190Y-240452380D02*
X342376190Y-239452380D01*
X342471428Y-239595238D01*
X342566666Y-239690476D01*
X342661904Y-239738095D01*
X341519047Y-239880952D02*
X341614285Y-239833333D01*
X341661904Y-239785714D01*
X341709523Y-239690476D01*
X341709523Y-239642857D01*
X341661904Y-239547619D01*
X341614285Y-239500000D01*
X341519047Y-239452380D01*
X341328571Y-239452380D01*
X341233333Y-239500000D01*
X341185714Y-239547619D01*
X341138095Y-239642857D01*
X341138095Y-239690476D01*
X341185714Y-239785714D01*
X341233333Y-239833333D01*
X341328571Y-239880952D01*
X341519047Y-239880952D01*
X341614285Y-239928571D01*
X341661904Y-239976190D01*
X341709523Y-240071428D01*
X341709523Y-240261904D01*
X341661904Y-240357142D01*
X341614285Y-240404761D01*
X341519047Y-240452380D01*
X341328571Y-240452380D01*
X341233333Y-240404761D01*
X341185714Y-240357142D01*
X341138095Y-240261904D01*
X341138095Y-240071428D01*
X341185714Y-239976190D01*
X341233333Y-239928571D01*
X341328571Y-239880952D01*
X343042857Y-242952380D02*
X343376190Y-242476190D01*
X343614285Y-242952380D02*
X343614285Y-241952380D01*
X343233333Y-241952380D01*
X343138095Y-242000000D01*
X343090476Y-242047619D01*
X343042857Y-242142857D01*
X343042857Y-242285714D01*
X343090476Y-242380952D01*
X343138095Y-242428571D01*
X343233333Y-242476190D01*
X343614285Y-242476190D01*
X342090476Y-242952380D02*
X342661904Y-242952380D01*
X342376190Y-242952380D02*
X342376190Y-241952380D01*
X342471428Y-242095238D01*
X342566666Y-242190476D01*
X342661904Y-242238095D01*
X341614285Y-242952380D02*
X341423809Y-242952380D01*
X341328571Y-242904761D01*
X341280952Y-242857142D01*
X341185714Y-242714285D01*
X341138095Y-242523809D01*
X341138095Y-242142857D01*
X341185714Y-242047619D01*
X341233333Y-242000000D01*
X341328571Y-241952380D01*
X341519047Y-241952380D01*
X341614285Y-242000000D01*
X341661904Y-242047619D01*
X341709523Y-242142857D01*
X341709523Y-242380952D01*
X341661904Y-242476190D01*
X341614285Y-242523809D01*
X341519047Y-242571428D01*
X341328571Y-242571428D01*
X341233333Y-242523809D01*
X341185714Y-242476190D01*
X341138095Y-242380952D01*
X300233333Y-284804761D02*
X300090476Y-284852380D01*
X299852380Y-284852380D01*
X299757142Y-284804761D01*
X299709523Y-284757142D01*
X299661904Y-284661904D01*
X299661904Y-284566666D01*
X299709523Y-284471428D01*
X299757142Y-284423809D01*
X299852380Y-284376190D01*
X300042857Y-284328571D01*
X300138095Y-284280952D01*
X300185714Y-284233333D01*
X300233333Y-284138095D01*
X300233333Y-284042857D01*
X300185714Y-283947619D01*
X300138095Y-283900000D01*
X300042857Y-283852380D01*
X299804761Y-283852380D01*
X299661904Y-283900000D01*
X299328571Y-283852380D02*
X299090476Y-284852380D01*
X298900000Y-284138095D01*
X298709523Y-284852380D01*
X298471428Y-283852380D01*
X297566666Y-284852380D02*
X298138095Y-284852380D01*
X297852380Y-284852380D02*
X297852380Y-283852380D01*
X297947619Y-283995238D01*
X298042857Y-284090476D01*
X298138095Y-284138095D01*
X288347827Y-283589396D02*
X288197512Y-283598418D01*
X287967530Y-283536794D01*
X287887862Y-283466148D01*
X287854190Y-283407827D01*
X287832843Y-283303510D01*
X287857492Y-283211517D01*
X287928138Y-283131848D01*
X287986460Y-283098177D01*
X288090777Y-283076830D01*
X288287088Y-283080132D01*
X288391405Y-283058785D01*
X288449727Y-283025113D01*
X288520373Y-282945445D01*
X288545022Y-282853452D01*
X288523675Y-282749134D01*
X288490003Y-282690813D01*
X288410335Y-282620167D01*
X288180353Y-282558544D01*
X288030039Y-282567566D01*
X287720388Y-282435297D02*
X287231587Y-283339599D01*
X287232471Y-282600353D01*
X286863615Y-283241001D01*
X286892452Y-282213452D01*
X286545827Y-282219172D02*
X286512155Y-282160850D01*
X286432487Y-282090205D01*
X286202505Y-282028581D01*
X286098187Y-282049928D01*
X286039866Y-282083600D01*
X285969220Y-282163268D01*
X285944570Y-282255261D01*
X285953593Y-282405575D01*
X286357654Y-283105429D01*
X285759700Y-282945208D01*
X344126028Y-223392734D02*
X344468147Y-224126412D01*
X344465239Y-224232852D01*
X344442206Y-224296134D01*
X344376016Y-224379541D01*
X344203386Y-224460039D01*
X344096946Y-224457131D01*
X344033664Y-224434098D01*
X343950257Y-224367908D01*
X343608138Y-223634230D01*
X343124448Y-224963156D02*
X343642338Y-224721660D01*
X343383393Y-224842408D02*
X342960775Y-223936101D01*
X343107464Y-224025324D01*
X343234028Y-224071389D01*
X343340468Y-224074298D01*
X286242857Y-278557142D02*
X286290476Y-278604761D01*
X286433333Y-278652380D01*
X286528571Y-278652380D01*
X286671428Y-278604761D01*
X286766666Y-278509523D01*
X286814285Y-278414285D01*
X286861904Y-278223809D01*
X286861904Y-278080952D01*
X286814285Y-277890476D01*
X286766666Y-277795238D01*
X286671428Y-277700000D01*
X286528571Y-277652380D01*
X286433333Y-277652380D01*
X286290476Y-277700000D01*
X286242857Y-277747619D01*
X285338095Y-277652380D02*
X285814285Y-277652380D01*
X285861904Y-278128571D01*
X285814285Y-278080952D01*
X285719047Y-278033333D01*
X285480952Y-278033333D01*
X285385714Y-278080952D01*
X285338095Y-278128571D01*
X285290476Y-278223809D01*
X285290476Y-278461904D01*
X285338095Y-278557142D01*
X285385714Y-278604761D01*
X285480952Y-278652380D01*
X285719047Y-278652380D01*
X285814285Y-278604761D01*
X285861904Y-278557142D01*
X284909523Y-277747619D02*
X284861904Y-277700000D01*
X284766666Y-277652380D01*
X284528571Y-277652380D01*
X284433333Y-277700000D01*
X284385714Y-277747619D01*
X284338095Y-277842857D01*
X284338095Y-277938095D01*
X284385714Y-278080952D01*
X284957142Y-278652380D01*
X284338095Y-278652380D01*
X250689824Y-225940046D02*
X250316133Y-225494823D01*
X250837721Y-225388088D02*
X249871795Y-225129269D01*
X249773197Y-225497241D01*
X249794545Y-225601558D01*
X249828216Y-225659880D01*
X249907884Y-225730525D01*
X250045874Y-225767500D01*
X250150192Y-225746153D01*
X250208513Y-225712481D01*
X250279159Y-225632813D01*
X250377756Y-225264841D01*
X249717294Y-226073848D02*
X249658973Y-226107520D01*
X249588327Y-226187188D01*
X249526703Y-226417170D01*
X249548050Y-226521488D01*
X249581722Y-226579809D01*
X249661390Y-226650455D01*
X249753383Y-226675104D01*
X249903697Y-226666082D01*
X250603551Y-226262021D01*
X250443330Y-226859975D01*
X339818148Y-258075106D02*
X340344918Y-257829380D01*
X340313019Y-258360821D02*
X340813019Y-257494795D01*
X340483105Y-257304319D01*
X340376817Y-257297939D01*
X340311768Y-257315369D01*
X340222909Y-257374038D01*
X340151481Y-257497756D01*
X340145101Y-257604044D01*
X340162531Y-257669093D01*
X340221200Y-257757951D01*
X340551114Y-257948427D01*
X340029472Y-257042414D02*
X339493361Y-256732890D01*
X339591560Y-257229471D01*
X339467843Y-257158043D01*
X339361554Y-257151663D01*
X339296506Y-257169093D01*
X339207647Y-257227762D01*
X339088600Y-257433959D01*
X339082220Y-257540247D01*
X339099650Y-257605295D01*
X339158319Y-257694154D01*
X339405755Y-257837011D01*
X339512043Y-257843391D01*
X339577092Y-257825961D01*
X334667176Y-261288023D02*
X335193946Y-261042297D01*
X335162047Y-261573738D02*
X335662047Y-260707712D01*
X335332133Y-260517236D01*
X335225845Y-260510856D01*
X335160796Y-260528286D01*
X335071937Y-260586955D01*
X335000509Y-260710673D01*
X334994129Y-260816961D01*
X335011559Y-260882010D01*
X335070228Y-260970868D01*
X335400142Y-261161344D01*
X334258201Y-260282102D02*
X333924868Y-260859452D01*
X334654874Y-260071235D02*
X334503928Y-260808872D01*
X333967817Y-260499348D01*
X295802380Y-198833333D02*
X295326190Y-198500000D01*
X295802380Y-198261904D02*
X294802380Y-198261904D01*
X294802380Y-198642857D01*
X294850000Y-198738095D01*
X294897619Y-198785714D01*
X294992857Y-198833333D01*
X295135714Y-198833333D01*
X295230952Y-198785714D01*
X295278571Y-198738095D01*
X295326190Y-198642857D01*
X295326190Y-198261904D01*
X294802380Y-199738095D02*
X294802380Y-199261904D01*
X295278571Y-199214285D01*
X295230952Y-199261904D01*
X295183333Y-199357142D01*
X295183333Y-199595238D01*
X295230952Y-199690476D01*
X295278571Y-199738095D01*
X295373809Y-199785714D01*
X295611904Y-199785714D01*
X295707142Y-199738095D01*
X295754761Y-199690476D01*
X295802380Y-199595238D01*
X295802380Y-199357142D01*
X295754761Y-199261904D01*
X295707142Y-199214285D01*
X301752380Y-198733333D02*
X301276190Y-198400000D01*
X301752380Y-198161904D02*
X300752380Y-198161904D01*
X300752380Y-198542857D01*
X300800000Y-198638095D01*
X300847619Y-198685714D01*
X300942857Y-198733333D01*
X301085714Y-198733333D01*
X301180952Y-198685714D01*
X301228571Y-198638095D01*
X301276190Y-198542857D01*
X301276190Y-198161904D01*
X300752380Y-199590476D02*
X300752380Y-199400000D01*
X300800000Y-199304761D01*
X300847619Y-199257142D01*
X300990476Y-199161904D01*
X301180952Y-199114285D01*
X301561904Y-199114285D01*
X301657142Y-199161904D01*
X301704761Y-199209523D01*
X301752380Y-199304761D01*
X301752380Y-199495238D01*
X301704761Y-199590476D01*
X301657142Y-199638095D01*
X301561904Y-199685714D01*
X301323809Y-199685714D01*
X301228571Y-199638095D01*
X301180952Y-199590476D01*
X301133333Y-199495238D01*
X301133333Y-199304761D01*
X301180952Y-199209523D01*
X301228571Y-199161904D01*
X301323809Y-199114285D01*
X326118147Y-248975106D02*
X326644917Y-248729380D01*
X326613018Y-249260821D02*
X327113018Y-248394795D01*
X326783104Y-248204319D01*
X326676816Y-248197939D01*
X326611767Y-248215369D01*
X326522908Y-248274038D01*
X326451480Y-248397756D01*
X326445100Y-248504044D01*
X326462530Y-248569093D01*
X326521199Y-248657951D01*
X326851113Y-248848427D01*
X326329471Y-247942414D02*
X325752121Y-247609081D01*
X325623275Y-248689392D01*
X294652380Y-212357142D02*
X294176190Y-212023809D01*
X294652380Y-211785714D02*
X293652380Y-211785714D01*
X293652380Y-212166666D01*
X293700000Y-212261904D01*
X293747619Y-212309523D01*
X293842857Y-212357142D01*
X293985714Y-212357142D01*
X294080952Y-212309523D01*
X294128571Y-212261904D01*
X294176190Y-212166666D01*
X294176190Y-211785714D01*
X294652380Y-213309523D02*
X294652380Y-212738095D01*
X294652380Y-213023809D02*
X293652380Y-213023809D01*
X293795238Y-212928571D01*
X293890476Y-212833333D01*
X293938095Y-212738095D01*
X293747619Y-213690476D02*
X293700000Y-213738095D01*
X293652380Y-213833333D01*
X293652380Y-214071428D01*
X293700000Y-214166666D01*
X293747619Y-214214285D01*
X293842857Y-214261904D01*
X293938095Y-214261904D01*
X294080952Y-214214285D01*
X294652380Y-213642857D01*
X294652380Y-214261904D01*
X323388226Y-254776118D02*
X323914996Y-254530392D01*
X323883097Y-255061833D02*
X324383097Y-254195807D01*
X324053183Y-254005331D01*
X323946895Y-253998951D01*
X323881846Y-254016381D01*
X323792988Y-254075050D01*
X323721559Y-254198768D01*
X323715179Y-254305056D01*
X323732609Y-254370105D01*
X323791278Y-254458964D01*
X324121193Y-254649440D01*
X322563440Y-254299928D02*
X323058311Y-254585642D01*
X322810875Y-254442785D02*
X323310875Y-253576760D01*
X323321925Y-253748097D01*
X323356785Y-253878194D01*
X323415454Y-253967053D01*
X322774764Y-253267236D02*
X322238653Y-252957712D01*
X322336852Y-253454293D01*
X322213134Y-253382865D01*
X322106846Y-253376485D01*
X322041798Y-253393915D01*
X321952939Y-253452584D01*
X321833892Y-253658780D01*
X321827512Y-253765068D01*
X321844942Y-253830117D01*
X321903611Y-253918976D01*
X322151046Y-254061833D01*
X322257335Y-254068212D01*
X322322383Y-254050783D01*
X301102380Y-212357142D02*
X300626190Y-212023809D01*
X301102380Y-211785714D02*
X300102380Y-211785714D01*
X300102380Y-212166666D01*
X300150000Y-212261904D01*
X300197619Y-212309523D01*
X300292857Y-212357142D01*
X300435714Y-212357142D01*
X300530952Y-212309523D01*
X300578571Y-212261904D01*
X300626190Y-212166666D01*
X300626190Y-211785714D01*
X300197619Y-212738095D02*
X300150000Y-212785714D01*
X300102380Y-212880952D01*
X300102380Y-213119047D01*
X300150000Y-213214285D01*
X300197619Y-213261904D01*
X300292857Y-213309523D01*
X300388095Y-213309523D01*
X300530952Y-213261904D01*
X301102380Y-212690476D01*
X301102380Y-213309523D01*
X300197619Y-213690476D02*
X300150000Y-213738095D01*
X300102380Y-213833333D01*
X300102380Y-214071428D01*
X300150000Y-214166666D01*
X300197619Y-214214285D01*
X300292857Y-214261904D01*
X300388095Y-214261904D01*
X300530952Y-214214285D01*
X301102380Y-213642857D01*
X301102380Y-214261904D01*
X294452380Y-193238095D02*
X295261904Y-193238095D01*
X295357142Y-193285714D01*
X295404761Y-193333333D01*
X295452380Y-193428571D01*
X295452380Y-193619047D01*
X295404761Y-193714285D01*
X295357142Y-193761904D01*
X295261904Y-193809523D01*
X294452380Y-193809523D01*
X294452380Y-194190476D02*
X294452380Y-194809523D01*
X294833333Y-194476190D01*
X294833333Y-194619047D01*
X294880952Y-194714285D01*
X294928571Y-194761904D01*
X295023809Y-194809523D01*
X295261904Y-194809523D01*
X295357142Y-194761904D01*
X295404761Y-194714285D01*
X295452380Y-194619047D01*
X295452380Y-194333333D01*
X295404761Y-194238095D01*
X295357142Y-194190476D01*
X263386019Y-257944795D02*
X263790781Y-258645863D01*
X263797161Y-258752151D01*
X263779731Y-258817200D01*
X263721062Y-258906059D01*
X263556104Y-259001297D01*
X263449816Y-259007676D01*
X263384767Y-258990247D01*
X263295909Y-258931578D01*
X262891147Y-258230509D01*
X262274267Y-258971565D02*
X262607600Y-259548916D01*
X262289987Y-258522603D02*
X262853327Y-259022145D01*
X262317216Y-259331669D01*
X339133638Y-266806700D02*
X338728876Y-267507768D01*
X338640018Y-267566437D01*
X338574969Y-267583867D01*
X338468681Y-267577487D01*
X338303723Y-267482249D01*
X338245054Y-267393391D01*
X338227625Y-267328342D01*
X338234004Y-267222054D01*
X338638766Y-266520986D01*
X337813980Y-266044795D02*
X338226373Y-266282890D01*
X338029517Y-266719093D01*
X338012087Y-266654044D01*
X337953418Y-266565186D01*
X337747222Y-266446138D01*
X337640934Y-266439758D01*
X337575885Y-266457188D01*
X337487027Y-266515857D01*
X337367979Y-266722054D01*
X337361599Y-266828342D01*
X337379029Y-266893391D01*
X337437698Y-266982249D01*
X337643895Y-267101297D01*
X337750183Y-267107676D01*
X337815232Y-267090247D01*
X342953819Y-260125611D02*
X342549057Y-260826679D01*
X342460199Y-260885348D01*
X342395150Y-260902778D01*
X342288862Y-260896398D01*
X342123904Y-260801160D01*
X342065235Y-260712302D01*
X342047806Y-260647253D01*
X342054185Y-260540965D01*
X342458947Y-259839897D01*
X341675400Y-259387516D02*
X341840358Y-259482754D01*
X341899027Y-259571612D01*
X341916457Y-259636661D01*
X341927507Y-259807998D01*
X341873508Y-259996765D01*
X341683032Y-260326679D01*
X341594173Y-260385348D01*
X341529124Y-260402778D01*
X341422836Y-260396398D01*
X341257879Y-260301160D01*
X341199210Y-260212302D01*
X341181780Y-260147253D01*
X341188160Y-260040965D01*
X341307208Y-259834768D01*
X341396066Y-259776099D01*
X341461115Y-259758669D01*
X341567403Y-259765049D01*
X341732360Y-259860287D01*
X341791029Y-259949146D01*
X341808459Y-260014194D01*
X341802079Y-260120483D01*
X301752380Y-193238095D02*
X302561904Y-193238095D01*
X302657142Y-193285714D01*
X302704761Y-193333333D01*
X302752380Y-193428571D01*
X302752380Y-193619047D01*
X302704761Y-193714285D01*
X302657142Y-193761904D01*
X302561904Y-193809523D01*
X301752380Y-193809523D01*
X301752380Y-194190476D02*
X301752380Y-194857142D01*
X302752380Y-194428571D01*
X267155257Y-264587427D02*
X267560019Y-265288495D01*
X267566399Y-265394783D01*
X267548969Y-265459832D01*
X267490300Y-265548691D01*
X267325342Y-265643929D01*
X267219054Y-265650308D01*
X267154005Y-265632879D01*
X267065147Y-265574210D01*
X266660385Y-264873141D01*
X266338560Y-265553819D02*
X266397229Y-265464961D01*
X266414659Y-265399912D01*
X266408279Y-265293624D01*
X266384470Y-265252384D01*
X266295611Y-265193715D01*
X266230562Y-265176285D01*
X266124274Y-265182665D01*
X265959317Y-265277903D01*
X265900648Y-265366762D01*
X265883218Y-265431810D01*
X265889598Y-265538099D01*
X265913407Y-265579338D01*
X266002266Y-265638007D01*
X266067315Y-265655437D01*
X266173603Y-265649057D01*
X266338560Y-265553819D01*
X266444848Y-265547439D01*
X266509897Y-265564869D01*
X266598755Y-265623538D01*
X266693993Y-265788495D01*
X266700373Y-265894783D01*
X266682943Y-265959832D01*
X266624274Y-266048691D01*
X266459317Y-266143929D01*
X266353029Y-266150308D01*
X266287980Y-266132879D01*
X266199122Y-266074210D01*
X266103884Y-265909252D01*
X266097504Y-265802964D01*
X266114934Y-265737915D01*
X266173603Y-265649057D01*
X249253028Y-247102940D02*
X249665421Y-246864844D01*
X249165421Y-245998819D01*
X248553211Y-246462250D02*
X248488162Y-246444820D01*
X248381874Y-246451200D01*
X248175677Y-246570247D01*
X248117008Y-246659106D01*
X248099578Y-246724155D01*
X248105958Y-246830443D01*
X248153577Y-246912921D01*
X248266245Y-247012830D01*
X249046831Y-247221987D01*
X248510720Y-247531511D01*
X332112647Y-281940606D02*
X332525040Y-282178701D01*
X333025040Y-281312676D01*
X332406450Y-280955533D02*
X331870339Y-280646009D01*
X331968538Y-281142591D01*
X331844820Y-281071162D01*
X331738532Y-281064782D01*
X331673483Y-281082212D01*
X331584625Y-281140881D01*
X331465577Y-281347078D01*
X331459197Y-281453366D01*
X331476627Y-281518415D01*
X331535296Y-281607273D01*
X331782732Y-281750130D01*
X331889020Y-281756510D01*
X331954069Y-281739080D01*
X312832380Y-196183333D02*
X312832380Y-195707142D01*
X311832380Y-195707142D01*
X312165714Y-196945238D02*
X312832380Y-196945238D01*
X311784761Y-196707142D02*
X312499047Y-196469047D01*
X312499047Y-197088095D01*
X300102380Y-188357142D02*
X299626190Y-188023809D01*
X300102380Y-187785714D02*
X299102380Y-187785714D01*
X299102380Y-188166666D01*
X299150000Y-188261904D01*
X299197619Y-188309523D01*
X299292857Y-188357142D01*
X299435714Y-188357142D01*
X299530952Y-188309523D01*
X299578571Y-188261904D01*
X299626190Y-188166666D01*
X299626190Y-187785714D01*
X299197619Y-188738095D02*
X299150000Y-188785714D01*
X299102380Y-188880952D01*
X299102380Y-189119047D01*
X299150000Y-189214285D01*
X299197619Y-189261904D01*
X299292857Y-189309523D01*
X299388095Y-189309523D01*
X299530952Y-189261904D01*
X300102380Y-188690476D01*
X300102380Y-189309523D01*
X299102380Y-189642857D02*
X299102380Y-190261904D01*
X299483333Y-189928571D01*
X299483333Y-190071428D01*
X299530952Y-190166666D01*
X299578571Y-190214285D01*
X299673809Y-190261904D01*
X299911904Y-190261904D01*
X300007142Y-190214285D01*
X300054761Y-190166666D01*
X300102380Y-190071428D01*
X300102380Y-189785714D01*
X300054761Y-189690476D01*
X300007142Y-189642857D01*
X258382920Y-261470344D02*
X258433499Y-260891285D01*
X258877791Y-261184630D02*
X258377791Y-260318605D01*
X258047877Y-260509081D01*
X257989208Y-260597939D01*
X257971778Y-260662988D01*
X257978158Y-260769276D01*
X258049586Y-260892994D01*
X258138445Y-260951663D01*
X258203493Y-260969093D01*
X258309782Y-260962713D01*
X258639696Y-260772237D01*
X257600624Y-260877274D02*
X257535575Y-260859844D01*
X257429287Y-260866224D01*
X257223091Y-260985271D01*
X257164422Y-261074130D01*
X257146992Y-261139178D01*
X257153372Y-261245467D01*
X257200991Y-261327945D01*
X257313659Y-261427854D01*
X258094244Y-261637011D01*
X257558133Y-261946535D01*
X256482493Y-261797756D02*
X256815826Y-262375106D01*
X256498213Y-261348794D02*
X257061552Y-261848336D01*
X256525441Y-262157860D01*
X344755848Y-266766310D02*
X345282618Y-266520584D01*
X345250719Y-267052025D02*
X345750719Y-266185999D01*
X345420805Y-265995523D01*
X345314517Y-265989143D01*
X345249468Y-266006573D01*
X345160610Y-266065242D01*
X345089181Y-266188960D01*
X345082801Y-266295248D01*
X345100231Y-266360297D01*
X345158900Y-266449156D01*
X345488815Y-266639632D01*
X344878314Y-265792287D02*
X344860884Y-265727239D01*
X344802215Y-265638380D01*
X344596019Y-265519333D01*
X344489731Y-265512953D01*
X344424682Y-265530383D01*
X344335823Y-265589052D01*
X344288204Y-265671530D01*
X344258015Y-265819058D01*
X344467173Y-266599644D01*
X343931062Y-266290120D01*
X343647515Y-264971714D02*
X344059908Y-265209809D01*
X343863052Y-265646011D01*
X343845622Y-265580963D01*
X343786953Y-265492104D01*
X343580756Y-265373057D01*
X343474468Y-265366677D01*
X343409420Y-265384107D01*
X343320561Y-265442776D01*
X343201514Y-265648972D01*
X343195134Y-265755260D01*
X343212564Y-265820309D01*
X343271233Y-265909168D01*
X343477429Y-266028215D01*
X343583717Y-266034595D01*
X343648766Y-266017165D01*
X346505848Y-263735221D02*
X347032618Y-263489495D01*
X347000719Y-264020936D02*
X347500719Y-263154910D01*
X347170805Y-262964434D01*
X347064517Y-262958054D01*
X346999468Y-262975484D01*
X346910610Y-263034153D01*
X346839181Y-263157871D01*
X346832801Y-263264159D01*
X346850231Y-263329208D01*
X346908900Y-263418067D01*
X347238815Y-263608543D01*
X346628314Y-262761198D02*
X346610884Y-262696150D01*
X346552215Y-262607291D01*
X346346019Y-262488244D01*
X346239731Y-262481864D01*
X346174682Y-262499294D01*
X346085823Y-262557963D01*
X346038204Y-262640441D01*
X346008015Y-262787969D01*
X346217173Y-263568555D01*
X345681062Y-263259031D01*
X345438754Y-261964434D02*
X345603711Y-262059672D01*
X345662380Y-262148531D01*
X345679810Y-262213579D01*
X345690860Y-262384916D01*
X345636861Y-262573683D01*
X345446385Y-262903598D01*
X345357527Y-262962267D01*
X345292478Y-262979696D01*
X345186190Y-262973317D01*
X345021233Y-262878079D01*
X344962564Y-262789220D01*
X344945134Y-262724171D01*
X344951514Y-262617883D01*
X345070561Y-262411687D01*
X345159420Y-262353018D01*
X345224468Y-262335588D01*
X345330756Y-262341968D01*
X345495714Y-262437206D01*
X345554383Y-262526064D01*
X345571813Y-262591113D01*
X345565433Y-262697401D01*
X304102380Y-188382142D02*
X303626190Y-188048809D01*
X304102380Y-187810714D02*
X303102380Y-187810714D01*
X303102380Y-188191666D01*
X303150000Y-188286904D01*
X303197619Y-188334523D01*
X303292857Y-188382142D01*
X303435714Y-188382142D01*
X303530952Y-188334523D01*
X303578571Y-188286904D01*
X303626190Y-188191666D01*
X303626190Y-187810714D01*
X303197619Y-188763095D02*
X303150000Y-188810714D01*
X303102380Y-188905952D01*
X303102380Y-189144047D01*
X303150000Y-189239285D01*
X303197619Y-189286904D01*
X303292857Y-189334523D01*
X303388095Y-189334523D01*
X303530952Y-189286904D01*
X304102380Y-188715476D01*
X304102380Y-189334523D01*
X303102380Y-189667857D02*
X303102380Y-190334523D01*
X304102380Y-189905952D01*
X261221714Y-266548324D02*
X261272293Y-265969265D01*
X261716585Y-266262610D02*
X261216585Y-265396585D01*
X260886671Y-265587061D01*
X260828002Y-265675919D01*
X260810572Y-265740968D01*
X260816952Y-265847256D01*
X260888380Y-265970974D01*
X260977239Y-266029643D01*
X261042287Y-266047073D01*
X261148576Y-266040693D01*
X261478490Y-265850217D01*
X260439418Y-265955254D02*
X260374369Y-265937824D01*
X260268081Y-265944204D01*
X260061885Y-266063251D01*
X260003216Y-266152110D01*
X259985786Y-266217158D01*
X259992166Y-266323447D01*
X260039785Y-266405925D01*
X260152453Y-266505834D01*
X260933038Y-266714991D01*
X260396927Y-267024515D01*
X259616342Y-266815357D02*
X259675011Y-266726499D01*
X259692440Y-266661450D01*
X259686061Y-266555162D01*
X259662251Y-266513923D01*
X259573393Y-266455254D01*
X259508344Y-266437824D01*
X259402056Y-266444204D01*
X259237099Y-266539442D01*
X259178430Y-266628300D01*
X259161000Y-266693349D01*
X259167379Y-266799637D01*
X259191189Y-266840876D01*
X259280047Y-266899545D01*
X259345096Y-266916975D01*
X259451384Y-266910596D01*
X259616342Y-266815357D01*
X259722630Y-266808978D01*
X259787679Y-266826407D01*
X259876537Y-266885077D01*
X259971775Y-267050034D01*
X259978155Y-267156322D01*
X259960725Y-267221371D01*
X259902056Y-267310229D01*
X259737099Y-267405467D01*
X259630810Y-267411847D01*
X259565762Y-267394417D01*
X259476903Y-267335748D01*
X259381665Y-267170791D01*
X259375285Y-267064503D01*
X259392715Y-266999454D01*
X259451384Y-266910596D01*
M02*
